<?xml version="1.0" encoding="UTF-8" standalone="no"?>
<svg
   xmlns:dc="http://purl.org/dc/elements/1.1/"
   xmlns:cc="http://creativecommons.org/ns#"
   xmlns:rdf="http://www.w3.org/1999/02/22-rdf-syntax-ns#"
   xmlns:svg="http://www.w3.org/2000/svg"
   xmlns="http://www.w3.org/2000/svg"
   xmlns:sodipodi="http://sodipodi.sourceforge.net/DTD/sodipodi-0.dtd"
   xmlns:inkscape="http://www.inkscape.org/namespaces/inkscape"
   version="1.0"
   width="1360"
   height="1360"
   viewBox="0 0 1020 1020"
   preserveAspectRatio="xMidYMid meet"
   id="svg74"
   sodipodi:docname="Alexander_Island.svg"
   inkscape:version="1.0.1 (3bc2e813f5, 2020-09-07)">
  <defs
     id="defs78" />
  <sodipodi:namedview
     pagecolor="#ffffff"
     bordercolor="#666666"
     borderopacity="1"
     objecttolerance="10"
     gridtolerance="10"
     guidetolerance="10"
     inkscape:pageopacity="0"
     inkscape:pageshadow="2"
     inkscape:window-width="1920"
     inkscape:window-height="974"
     id="namedview76"
     showgrid="false"
     inkscape:zoom="0.35872474"
     inkscape:cx="126.55538"
     inkscape:cy="422.07579"
     inkscape:window-x="-11"
     inkscape:window-y="-11"
     inkscape:window-maximized="1"
     inkscape:current-layer="g72"
     inkscape:document-rotation="0"
     scale-x="0.75"
     units="px" />
  <metadata
     id="metadata2">
Created by potrace 1.10, written by Peter Selinger 2001-2011
<rdf:RDF>
  <cc:Work
     rdf:about="">
    <dc:format>image/svg+xml</dc:format>
    <dc:type
       rdf:resource="http://purl.org/dc/dcmitype/StillImage" />
    <dc:title></dc:title>
  </cc:Work>
</rdf:RDF>
</metadata>
  <g
     transform="matrix(0.1,0,0,-0.1,0,1024)"
     fill="#000000"
     stroke="none"
     id="g72">
    <path
       d="m 5392.1739,177.53412 231.0714,-31.3339 230.9425,-31.4629 24.4998,14.0551 17.9236,35.7181 6.4472,40.1022 1.0316,42.1655 2.9658,39.07061 11.863,30.43133 7.35,5.54465 22.1787,1.03156 7.0921,6.96309 21.276,30.81808 15.4736,13.79723 16.6341,5.67375 15.8602,-8.63945 13.4103,-29.91549 9.5421,-65.37576 2.321,-71.5651 4.6421,-66.1494 16.5051,-49.128399 21.2761,-21.1472 105.349,-1.4184 229.9109,106.896399 160.667,-11.9921 366.4649,132.16986 366.336,131.78294 67.052,116.82521 -44.3574,76.72299 -18.5683,16.50515 -12.121,122.24089 28.755,2.70792 20.5025,11.08931 10.9604,20.88928 1.0315,23.72616 -1.0315,21.27604 0.1288,20.76032 3.8684,23.21031 5.5447,14.57099 6.5762,7.60777 114.1174,26.43394 48.6127,-12.50775 15.3445,6.96309 14.1841,19.85773 13.1526,34.55755 -0.3869,8.76828 -6.0605,28.2393 -1.6762,10.5736 0.6446,14.3129 4.2552,21.2762 0.7738,11.992 -1.4184,15.6024 -5.2868,31.8498 -1.8053,15.6024 50.418,-1.5473 72.3387,54.5441 16.7631,26.8209 -10.8315,20.7603 -8.1236,30.3024 -1.1605,34.4285 9.671,31.4629 18.697,19.7288 21.1472,6.8341 41.1339,-7.8657 97.4832,-76.594 50.547,-21.7919 52.0943,30.5603 18.955,59.5731 4.5131,184.7798 15.9894,94.5176 33.7838,103.1567 6.3184,34.6865 1.5474,39.0707 -1.6764,36.3628 -4.9,33.526 -7.8656,30.3023 -7.35,19.213 -36.7496,57.639 -5.4157,12.8945 -2.1921,19.2131 -1.5474,36.3627 -7.0921,56.9942 -14.0551,57.1232 -16.8919,50.16 -15.8603,35.5892 49.6442,16.8919 101.6096,-12.3788 49.6442,33.7839 25.1445,68.4703 10.1868,102.899 -2.7079,334.6153 3.8684,97.6123 13.0235,82.7833 26.5629,73.6284 -24.1129,71.952 -6.9631,28.368 -7.9947,47.9681 -14.6998,125.7224 -11.3472,66.6651 -14.3131,61.7653 -17.5367,58.5415 2.9659,20.2446 1.5472,19.0839 3.2237,18.1815 7.9946,17.4078 -6.7052,55.0599 -3.3526,55.4469 7.9947,45.9047 26.9498,25.7893 -6.5762,36.3629 -2.45,27.3365 -0.1289,22.4367 0.9026,23.9839 -6.0605,173.1747 0.1289,103.9307 4.3841,74.2728 -39.0706,141.7119 -10.4447,47.3232 7.479,11.7342 6.7051,16.7629 4.6421,18.1815 1.0315,15.6024 -6.9631,46.8075 -25.1444,106.3806 11.6051,52.6099 2.1921,16.7631 -12.121,230.1689 7.6079,89.1018 -8.2526,39.0706 -31.8497,48.8706 -93.228,32.4945 -23.3393,35.718 9.671,-3.8684 120.3067,29.3998 -4.2551,9.0262 -18.9552,55.7047 -24.7577,31.7208 -6.8341,15.0866 0.9026,9.2841 6.1894,39.0708 0.7737,14.0552 -3.7394,15.2155 -5.4158,5.4158 -6.3183,1.8052 -6.3184,4.2552 -14.9577,40.747 0.7737,100.578 -11.6051,43.7128 -26.3051,18.1814 -5.1578,13.9262 0.9026,11.4762 7.9946,25.2734 1.4185,15.2157 -1.4185,12.6367 -3.2236,10.4446 -7.35,16.3762 -21.9208,38.1681 -47.8391,55.9625 -21.6629,38.8129 -17.1498,62.152 -26.8208,165.5668 -20.6314,87.8124 -52.0942,157.1853 -264.2107,533.3212 -97.8701,281.1028 -61.3784,129.9776 -7.7367,22.6946 -3.7395,28.497 -2.321,30.4314 -3.6105,27.5944 -8.8973,28.1103 -11.4762,18.8261 -24.3708,29.3997 12.2498,40.7472 6.1895,32.6227 -1.8053,33.1394 -12.2498,44.2292 -29.3998,86.1356 -14.9578,56.865 -0.7736,37.6523 9.2841,30.8178 2.7079,37.9114 -3.8684,44.2279 -10.0577,49.3863 3.4815,1.1608 5.5447,13.1524 5.1577,15.9893 2.7079,11.734 0.7737,16.1181 -0.7737,16.5046 -11.863,82.5257 -1.0316,17.5366 1.2895,19.3428 9.542,51.9655 -83.1702,99.1592 -39.8444,31.5921 -10.8315,18.955 -4.8999,23.3391 1.4183,21.2753 2.579,20.7612 -1.2895,23.8545 -5.8026,15.474 -26.9496,38.8131 -33.3971,78.9145 12.6367,28.7553 2.1921,10.1867 -2.7079,18.3095 -7.0921,14.4421 -14.6998,21.663 -120.0488,294.6419 -31.076,54.5448 -24.242,15.6028 -88.1991,-41.0059 -150.0934,36.4929 -28.497,-4.7719 -26.6919,-23.9833 11.4762,49.2575 2.7079,7.994 -10.9605,19.7293 -32.2365,78.528 13.5393,-15.474 14.8289,-4.7706 14.6998,5.8026 13.6683,14.442 10.4447,17.5366 4.8999,11.8628 3.0947,13.4101 v 13.7979 l -2.9657,28.6264 1.1605,11.8628 10.3157,10.4444 11.7341,-3.9977 7.8657,6.5769 -1.2895,41.1333 -9.9288,42.9397 -15.4736,25.7895 -35.718,24.1121 12.8946,42.9396 7.0921,15.9893 10.1867,14.1844 27.8524,20.3734 28.1101,9.026 -32.3655,54.1569 -32.1075,37.6524 -7.0921,15.3451 -25.0155,116.1804 5.6737,2.8369 29.1418,31.8498 -16.3762,51.9642 -5.6736,29.7872 -2.1921,34.5578 0.6447,59.0564 -2.7078,25.6607 -7.6079,28.1098 -47.1942,64.9894 -131.5251,61.894 -76.465,120.823 -28.2393,16.118 -29.7865,-2.708 -109.4754,-54.157 -237.2606,-24.114 -26.8208,-22.049 -15.6026,-45.518 -76.5939,-39.586 -338.2258,-2.45 -261.8896,-113.9893 -262.0185,-114.2453 -0.6448,-13.1524 -28.1103,-74.0151 -104.9622,-153.5751 -14.9577,-29.3994 -9.9288,-34.9456 -1.5474,-36.8781 7.35,-22.695 23.4681,-30.689 40.618,-90.0043 9.9289,-11.0886 -15.6025,-30.9479 -17.9234,-86.5221 -13.2816,-39.845 14.3131,-13.7966 72.8546,-113.8602 13.4103,-40.7468 -10.3157,-21.0176 -38.0391,-19.6005 15.4736,-12.507 83.815,5.9315 17.7946,-8.7683 7.7367,-28.7553 22.6946,-23.8557 63.6994,-27.5945 9.284,-13.7966 14.442,-28.2399 18.6972,-14.3132 108.3148,-27.8521 21.9208,-19.4703 -8.7683,-3.6112 -9.0262,-9.1548 -8.3815,-12.7659 -6.4474,-16.1181 45.9049,-84.846 17.6657,-21.7918 -32.2367,-20.1158 -10.3157,-11.3475 -7.6077,-14.8285 -6.0605,-19.2127 -10.3157,-43.0684 4.3841,-4.9008 3.8685,-6.1891 3.7394,-8.1228 3.2237,-9.6714 -40.7471,-86.9099 -15.8603,-50.2894 0.2579,-58.7988 -2.0632,-6.189 -7.9947,-36.2339 -1.6762,-13.7979 3.0947,-24.7576 6.9631,-19.0838 8.6394,-14.0556 8.5104,-10.0579 -16.3762,-15.3438 -102.7701,-61.1203 -25.0155,-27.9823 -7.9946,-34.9443 -10.0579,-27.9809 11.992,-36.1051 19.213,-37.91 11.992,-33.7835 -10.4446,-7.0922 -5.1578,-13.2813 0.1288,-19.6004 5.9316,-26.1761 7.6079,-16.2469 17.7944,-19.6005 7.2211,-17.2776 -3.7395,-10.5745 -6.4473,-111.2796 -15.8603,-42.2955 -25.0156,-36.6204 -14.4419,-35.8474 15.8603,-39.8437 -29.0129,-56.3495 -5.2867,-19.5998 3.8683,-34.2997 13.2815,-29.3997 27.9813,-37.0075 25.2735,-24.6288 7.3498,-9.9288 7.221,-18.4394 12.121,-45.26 7.0921,-19.8577 22.8234,-37.0075 74.9177,-83.6861 128.4303,-88.8439 127.7857,-43.7127 15.2157,-14.1841 10.7024,-20.8893 19.0841,-52.3522 10.7026,-21.405 15.4734,-16.5051 142.0987,-27.4655 28.8839,-26.3051 23.9841,-43.8417 11.7341,-16.505 15.0867,-4.6421 51.0626,31.076 17.4077,-1.6763 13.6684,-19.8578 21.0181,9.929 101.7385,131.0092 25.2736,14.0551 -1.1606,4.5131 -5.4158,15.2157 -1.4183,6.0605 3.8683,37.2654 14.442,22.0498 70.2755,27.4655 20.5024,-2.5789 18.9552,-11.2183 69.5019,-97.0964 26.305,-19.213 57.8968,-4.3842 209.0217,80.0756 30.0444,-9.5421 8.6395,-10.3157 6.3183,-16.2472 4.5131,-21.0182 3.3526,-24.7576 -12.7657,-15.4736 -29.0128,-11.2183 -22.5656,-32.7523 6.4472,-79.4308 -0.7736,-1.9342 -3.9972,-14.442 8.7682,-13.6683 103.8016,-19.4708 380.0044,-283.6816 47.8391,-55.4468 21.9208,-45.9049 10.3157,-60.6046 -16.7631,-16.2472 -84.8465,7.3498 -330.1021,225.7847 -33.784,6.8342 -379.1016,-174.0773 -379.1015,-174.722 -20.2446,-48.2258 16.3762,-75.4335 -11.0894,-10.0579 -35.8471,-58.0257 -7.0919,-19.342 -8.8974,-33.6549 -124.8198,-169.4352 -26.6919,-59.1863 -12.1208,-81.1071 22.5655,-21.2762 5.4158,-13.5393 3.0947,-13.1524 7.9946,-63.0548 3.9973,-22.1787 5.6737,-18.8262 9.1552,-16.634 28.497,-29.0129 140.9381,-25.1444 185.2957,-142.6145 73.628,-30.6892 256.9897,33.2682 163.5038,-54.9312 36.4917,-41.9075 14.0551,-5.1578 115.2778,21.663 19.9867,-18.5683 38.0391,-57.7679 19.0841,-7.092 9.5421,8.3815 8.3814,14.9578 30.1734,75.5624 8.2525,13.6683 9.671,8.1236 14.6999,-6.3184 42.8101,-40.618 9.0262,-12.1209 -3.3526,-25.0155 -7.7367,-19.2131 -17.6657,-24.8865 3.9974,-11.7341 13.6683,-27.5945 -26.6919,-69.373 -9.8,-44.0996 -4.2551,-51.0627 2.7079,-58.9284 8.1236,-57.1232 23.3393,-100.1911 -13.2816,-17.021 -12.121,-38.5548 -8.6393,-46.9364 -3.3526,-42.8102 0.9026,-5.5446 4.1263,-15.9893 1.1605,-7.8657 -0.2578,-11.2184 -3.4816,-18.826 -1.0315,-9.6711 -0.3869,-55.3178 0.9026,-17.9236 -24.1129,12.121 -11.0893,-2.579 v -22.5655 l -7.35,-6.7053 -39.3286,-2.45 -54.8021,22.5657 -13.0235,18.6972 -104.4464,277.879 -64.602,137.9722 -78.0125,93.8728 -96.4518,18.4393 -263.8238,-140.0355 -74.5306,1.6764 -190.1956,94.1307 -25.2735,-12.5079 -55.7047,-63.9572 -27.5945,-16.763 -30.0444,6.0605 -118.7594,76.8519 h -16.3762 l -11.6051,-13.9262 -5.6736,-49.2575 11.2182,-42.2942 18.4393,-31.076 16.6341,-14.4421 -8.3815,-22.8234 -13.5393,-49.9022 -7.8657,-22.9524 -13.0236,-25.9182 -160.5379,-179.3641 -123.7883,-59.1863 -303.4103,124.691 -303.5393,124.562 -117.5988,-28.3683 -218.5637,34.5577 -26.5629,-15.0867 -8.3816,-11.2184 -20.1156,-48.8706 -8.5104,-10.3157 -48.6127,-17.7945 -127.6567,-2.9658 -30.947,-34.1707 -20.3736,-75.3045 61.1206,-100.707 135.6512,-129.9777 249.7687,-78.1413 249.7688,-78.2704 121.725,-111.2805 -7.8656,1.5473 -12.3788,-5.6736 -11.9921,-11.8631 -6.4472,-15.7314 1.6762,-25.4023 7.6079,-22.8235 16.3762,-35.4603 -325.718,24.1131 -36.6207,-28.4972 -14.6998,-67.1809 -16.1184,-10.0578 -95.9359,-3.0947 -279.9421,120.1778 -279.8131,119.9199 -152.6723,-20.2445 -38.8127,-33.1392 -20.2446,-38.426 -13.1526,-49.5153 -2.8367,-56.3494 10.7026,-58.6705 66.2782,-123.5305 153.7039,-114.2462 58.5415,-104.0596 -105.349,-159.2484 -57.1232,-29.6577 -47.71,103.9306 -151.6406,156.7985 -27.2077,63.9574 -54.8021,84.2018 -232.2321,196.2559 -86.3938,2.8369 -125.3357,-71.5651 -46.9364,-53.5127 -11.992,-61.2494 21.6629,-64.7309 -20.6314,-51.5786 24.8867,-59.444 15.3445,-60.9915 3.4815,-62.1522 -10.7024,-61.3783 52.61,-79.1729 34.4287,-34.1708 14.8288,-29.2707 0.1288,-40.4891 -9.4131,-19.342 -55.8337,-25.6603 -30.8181,-2.4499 -218.4349,113.6015 -128.5593,198.7061 -79.4308,68.5993 -112.441,5.0289 -53.6415,-20.1156 -39.4576,-30.9471 -17.5367,-26.9498 -21.6629,-42.9389 -18.0525,-48.7417 -7.0921,-43.5839 -114.1173,-47.8389 -42.939,-36.8786 -27.7235,-68.0837 9.0262,-27.2075 72.9836,-56.0917 42.9391,-4.771 21.9208,-14.4419 16.6341,-33.397 -5.2869,-5.4158 -4.771,-8.5104 -4.1262,-11.0895 -3.4816,-13.0234 31.9786,-27.2077 16.3762,-21.405 9.8,-28.8839 -62.6679,-21.6631 10.9604,-50.16 -42.939,-22.8235 -51.5785,-6.8342 -47.5811,-31.7206 -30.9471,-98.7728 8.2526,-105.2201 24.8865,-76.3361 37.6524,-58.5415 232.3609,-196.2561 232.3609,-196.9008 135.6514,-28.2391 225.0111,96.8385 33.526,-11.3472 39.3286,-59.5732 78.6571,-220.6267 85.4913,-78.5282 100.3201,-3.0946 96.5807,46.9363 74.2729,71.3073 18.0525,102.2541 244.353,230.2978 -324.9444,411.4671 77.3678,70.7914 244.7397,8.3816 82.6545,-38.0391 158.9905,-133.7172 162.3433,-79.8177 75.8203,-6.9631 75.3045,22.0498 68.4704,51.4496 33.0103,47.0653 25.7892,67.8257 v 5.4157 l 10.4446,88.7149 14.3131,62.1522 6.5762,37.6522 -10.1867,18.4393 -1.8052,3.9974 -1.0317,36.4917 1.1605,43.197 5.029,37.5232 10.0577,17.9236 28.4972,1.9341 76.4651,-42.8101 7.4788,45.776 85.7492,95.9359 -5.4157,48.3548 5.4157,34.0418 11.8631,24.1129 14.5708,18.1814 30.5603,21.1472 9.5421,10.7024 6.7051,15.7315 4.9,34.6865 4.8999,16.2473 4.771,3.9972 78.5282,-29.1417 -3.7394,-10.8315 -6.1894,-26.9498 -3.2237,-11.0893 80.3334,-90.1334 -4.8998,-20.2446 -7.221,-51.3205 -4.3842,-18.3104 19.4709,21.663 25.0155,-5.1579 101.9964,-87.0387 2.0631,-3.4815 3.0948,-10.0578 5.0288,-23.0813 1.5474,-13.1526 3.0947,-6.9631 72.7256,-49.6442 8.3815,-10.8314 6.4474,-14.571 11.9919,-33.2681 6.9631,-12.121 6.9631,-4.5131 28.1103,4.5131 3.9972,-3.2236 1.4185,-10.3157 5.5446,-83.0413 0.3869,-33.1391 -3.6105,-28.1103 -5.8026,-12.121 -14.0551,-10.1867 -5.2868,-11.4762 -0.9026,-13.6683 3.9973,-25.2734 -2.1921,-15.7315 22.5657,-31.8496 h 35.5891 l 261.6317,160.5379 77.6256,19.7288 76.3361,-20.6314 119.4041,-107.5411 43.3259,-13.0236 43.4548,6.9631 160.0222,98.5149 20.1157,2.0631 16.6339,-14.4419 27.5946,-58.9284 60.0889,-65.1178 13.2813,-27.7234 -14.184,-16.6341 -14.3129,-23.4682 -8.3816,-33.655 3.2236,-47.4522 4.3842,-13.2814 12.25,-23.0813 4.384,-15.0867 -6.3182,-36.4919 -24.113,-23.9839 -272.8501,-166.9852 -397.7988,-97.9991 -397.7988,-98.2569 -27.0788,-41.2627 -10.5736,-66.4073 336.6784,-170.3378 -22.3076,-39.4575 -4.5131,-5.0289 122.6278,-124.1752 159.6353,-26.6917 278.2657,85.6202 264.5975,222.8189 239.7108,107.4121 39.5865,-11.0893 41.3916,-34.2998 30.6892,-52.352 7.4789,-67.3099 14.5709,-31.5919 102.6412,-34.0418 57.381,-45.7758 -7.35,-7.8657 -15.2155,-9.671 -6.9631,-9.7999 -20.1157,-56.7363 -7.9946,-15.7315 -336.6784,-212.24526 -24.1129,-4.12635 -10.4447,-8.51036 -7.3499,-23.21031 -0.3869,-12.89464 1.0317,-13.66826 0.5157,-13.79723 -2.3211,-15.34463 -2.9657,-6.18946 -19.4709,-15.9893 -50.8048,-21.53395 -333.0676,45.13115 -333.068,45.13115 -333.1969,45.00219 -166.7273,87.03866 -29.9155,-2.8368 -10.7025,-5.029 -10.1868,-9.6709 -8.1236,-16.892 -4.2552,-26.305 2.7079,-21.01822 14.184,-37.13651 -52.481,-6.96309 -43.7127,37.26546 -8.1236,10.57361 -9.2842,17.53665 -6.4473,20.3735 -11.9919,47.1942 -17.5367,34.8155 -24.2419,20.7603 -114.6331,53.7706 -191.7431,16.1183 -122.8855,-59.0573 -234.0373,-258.79491 -54.0284,-112.05431 -8.5105,-24.11291 15.0867,-61.24941 32.2365,-59.05734 266.4028,-346.2203 70.4046,-38.426 31.4628,3.9973 29.3997,19.5998 86.7807,107.92795 33.0103,19.08409 65.1179,4.64207 -46.9365,-105.60693 -8.7683,-30.17338 -6.9631,-33.526 -5.0289,-36.7496 -3.3526,-40.876 91.6807,-101.480599 407.8566,65.504599 z"
       id="path864"
       style="fill:#000000;fill-opacity:1;stroke:#000000;stroke-width:12.6367" />
  </g>
</svg>
