<?xml version="1.0" encoding="UTF-8" standalone="no"?>
<svg
   xmlns:dc="http://purl.org/dc/elements/1.1/"
   xmlns:cc="http://creativecommons.org/ns#"
   xmlns:rdf="http://www.w3.org/1999/02/22-rdf-syntax-ns#"
   xmlns:svg="http://www.w3.org/2000/svg"
   xmlns="http://www.w3.org/2000/svg"
   xmlns:sodipodi="http://sodipodi.sourceforge.net/DTD/sodipodi-0.dtd"
   xmlns:inkscape="http://www.inkscape.org/namespaces/inkscape"
   version="1.1"
   width="1360"
   height="1360"
   viewBox="0 0 1360 1360"
   id="svg830"
   sodipodi:docname="Axel_Heiberg_Island.svg"
   inkscape:version="1.0.1 (3bc2e813f5, 2020-09-07)">
  <metadata
     id="metadata836">
    <rdf:RDF>
      <cc:Work
         rdf:about="">
        <dc:format>image/svg+xml</dc:format>
        <dc:type
           rdf:resource="http://purl.org/dc/dcmitype/StillImage" />
        <dc:title></dc:title>
      </cc:Work>
    </rdf:RDF>
  </metadata>
  <defs
     id="defs834" />
  <sodipodi:namedview
     pagecolor="#ffffff"
     bordercolor="#666666"
     borderopacity="1"
     objecttolerance="10"
     gridtolerance="10"
     guidetolerance="10"
     inkscape:pageopacity="0"
     inkscape:pageshadow="2"
     inkscape:window-width="1920"
     inkscape:window-height="974"
     id="namedview832"
     showgrid="false"
     inkscape:zoom="0.31955855"
     inkscape:cx="316.78562"
     inkscape:cy="401.70803"
     inkscape:window-x="-11"
     inkscape:window-y="-11"
     inkscape:window-maximized="1"
     inkscape:current-layer="g826"
     inkscape:document-rotation="0" />
  <g
     id="g828"
     style="fill:#000000;fill-opacity:1">
    <g
       stroke="#000000"
       stroke-width="0.98"
       fill="#FFFFFF"
       id="g826"
       style="fill:#000000;fill-opacity:1">
      <path
         d="m 660.06,209.23 -0.1,-0.21 -0.11,0.02 -0.3,0.27 -0.12,0.32 -0.08,0.07 -0.21,-0.04 -0.11,0.06 -0.1,0.19 -0.06,0.27 -0.03,0.3 v 0.38 0.47 l -0.08,0.42 v 0.21 l 0.1,0.09 0.07,0.02 0.06,0.05 0.05,0.14 0.03,0.24 -0.64,0.27 -0.3,0.39 -0.28,0.62 -0.15,0.61 -0.07,0.73 0.04,0.69 0.18,0.46 0.31,0.15 0.31,-0.2 0.29,-0.47 0.26,-0.71 0.15,-0.5 0.15,-0.68 0.09,-0.79 -0.06,-0.81 0.55,-1.22 0.23,-0.81 z"
         id="path552"
         style="fill:#000000;fill-opacity:1" />
      <path
         d="m 257.69486,616.66307 4.27205,-3.31084 12.81615,1.38842 -18.58342,8.9713 -2.45643,5.23327 1.70882,5.55366 2.67003,12.17535 1.60202,5.55366 2.77683,4.80606 25.63231,6.30127 5.23326,9.18491 -2.45643,3.31084 -8.1169,-0.74761 -2.02922,1.60202 -3.95165,6.30127 -2.02922,0.64081 0.96121,-8.3305 -2.13602,-3.41764 -5.44687,0.64081 -1.92242,2.02922 -4.05845,0.74761 -1.38842,1.17482 -1.38841,2.67003 -1.17482,4.48565 0.64081,1.38842 0.64081,1.92242 0.64081,2.45643 0.534,2.88363 -0.4272,2.99044 3.31084,3.63124 7.68969,-8.7577 3.52444,2.13602 -1.92242,3.63125 -3.95165,2.99043 -1.70882,4.69926 6.30127,2.02922 8.97131,10.68013 1.38842,3.20403 0.96121,4.16525 0.2136,3.73805 v 4.59245 l -0.2136,5.76727 1.06801,4.59245 1.38842,1.38842 2.99043,-0.64081 3.31084,1.81562 20.50584,34.71041 24.13709,0.96121 24.24388,1.06802 3.63125,-3.63125 27.34112,-10.57332 3.84484,-7.58289 1.81562,-2.34963 5.66047,-2.24283 0.96121,-2.56323 1.06801,-7.58288 1.06802,-2.67004 11.53453,-4.05844 3.52444,-6.30128 -1.06801,-2.34963 -0.4272,-0.534 1.28161,-3.95165 1.92242,-1.06801 1.92243,1.49522 1.38841,3.52444 0.42721,6.83528 -1.17482,4.48565 -3.73804,5.55367 0.53401,3.95164 1.49521,7.7965 0.32041,3.52444 -0.85441,4.48565 -21.68066,20.39904 -6.72848,10.46652 -32.36078,10.35973 -32.36078,10.46652 -6.30127,6.19447 -2.99044,0.53401 0.42721,4.37885 0.6408,3.73804 1.38842,5.87407 -1.17481,5.44687 -1.28162,3.41764 -1.49522,1.70882 -1.60201,0.2136 1.06801,2.34963 2.45643,2.67003 1.06801,0.4272 0.74761,0.96122 2.77683,7.26248 -2.02922,2.67003 -4.05845,0.64081 -2.02922,2.34963 0.534,0.4272 1.49522,2.34963 -1.38842,2.13603 -0.6408,0.3204 1.81562,5.23326 4.27205,-0.3204 1.92242,2.02922 1.81562,3.09724 5.87407,1.06801 12.92295,5.66047 0.32041,-8.97131 2.45643,-2.67003 5.23326,0.53401 -1.38842,4.37885 -0.64081,1.06801 0.74761,0.53401 0.53401,1.60202 0.4272,2.56323 0.32041,3.52444 -0.64081,3.52444 0.64081,1.70882 7.26248,0.3204 1.28162,2.77683 -2.34963,5.66047 -1.28162,2.0292 -1.28161,-0.534 -1.60202,-2.56321 -1.60202,-1.49522 -1.70882,0.1068 -1.70882,1.92243 2.13603,4.6993 2.56323,2.8836 2.56323,1.068 2.34963,-0.3204 v 2.4564 l -0.96122,0.9612 -0.96121,1.7089 -0.85441,2.3496 -0.74761,3.3108 2.02923,2.9905 6.72848,-0.3204 8.5441,5.6604 1.38841,-1.7088 1.70882,-7.7965 31.50637,-20.07863 7.04889,-9.39851 3.31084,-1.92242 -2.02923,-5.55367 -1.17481,-1.92242 -1.06801,-0.74761 -0.96121,1.28161 -0.85441,2.34963 -0.96122,1.17482 -0.96121,-2.13603 0.64081,-4.05845 -0.1068,-3.95164 -0.64081,-3.31084 -0.96121,-2.45643 2.34963,-2.88363 28.51593,13.88416 18.36982,-2.88364 v 2.99044 l -2.45643,-0.1068 -9.93252,7.68969 -9.82571,14.09777 -1.60202,4.5924 -0.1068,5.0197 0.4272,5.7673 -1.06801,3.6312 -1.60202,2.6701 -0.96121,2.8836 4.27205,-2.5632 1.28162,0.534 6.51487,7.3692 8.5441,0.7477 10.57333,-8.3305 4.59245,-8.6509 4.69926,-3.7381 2.13602,-4.272 -0.85441,-3.8449 -1.06801,-1.7088 -1.06801,-0.96121 -0.96121,-1.60202 1.06801,-2.24283 0.4272,-0.42721 -0.96121,-2.77683 1.60202,-3.84484 2.02922,0.4272 3.95165,3.41764 3.73805,0.74761 1.17481,-0.74761 0.74761,-1.28161 3.31084,-10.57333 0.85441,-3.95164 0.85441,-4.91286 1.06801,-4.16525 2.56323,-4.37885 2.56323,-5.98087 1.60202,-2.67003 1.60202,-0.96122 1.92242,1.28162 1.17481,3.09724 1.17482,5.23326 0.4272,4.91286 -2.13602,3.95164 -3.63124,12.28215 -4.27205,8.8645 -1.28162,4.69926 21.68066,-11.00053 6.40807,-8.2237 -1.49522,-6.72848 -4.37885,-10.46652 -1.81562,-6.08767 -1.92242,-3.63125 -0.74761,-2.88363 0.1068,-4.37885 0.85441,-2.34963 1.17481,-1.17481 2.24283,-0.53401 1.38842,0.74761 1.06801,2.02922 6.94208,22.10786 2.56323,3.63125 5.66047,1.28161 17.62221,-15.16578 23.38947,-2.67003 2.67003,3.09724 1.49522,6.83528 -3.63124,1.06801 -5.23326,4.69926 -3.52445,-0.85441 -1.70882,1.06801 -5.55366,7.36928 -4.59246,2.99044 -1.38841,2.67003 2.34963,6.51488 3.84484,1.17481 7.04888,-2.13602 16.8746,7.36928 8.65091,-0.6408 16.12699,4.27205 1.70882,-1.06802 4.69925,-7.26248 20.61264,-6.08767 h 9.71892 l 12.1753,-6.51488 3.0973,1.70882 -0.534,1.17481 -1.3884,4.48566 0.2136,1.17481 0.4272,2.88363 0.3204,1.17482 -0.534,-0.32041 -0.2136,0.85441 -0.1068,1.38842 -0.1068,0.96121 v -2.88363 l -1.7089,3.84484 -23.81665,7.58289 -11.96174,-0.1068 -12.81615,7.7965 h 0.53401 l -1.60202,0.3204 -4.91286,5.1265 -10.78693,0.534 -1.60201,-1.068 -2.56323,-5.9809 -1.70882,-0.9612 -1.70882,0.4272 -1.28162,1.602 0.96121,-0.2136 0.85441,0.4272 1.70882,2.2428 v 2.9905 l -31.39957,-3.2041 -2.67003,2.4564 -5.01966,11.6414 -2.02922,2.7768 1.92242,5.4469 3.09724,3.204 19.86503,7.6897 19.86503,7.7965 14.73858,-5.5537 10.25292,1.1749 28.62276,-5.0197 22.7486,-8.5441 20.6127,0.8544 25.3119,-4.4857 3.204,5.2333 h 0.534 l -1.602,3.204 -10.2529,7.5829 -12.6026,0.7476 -19.7582,5.0197 -19.7582,4.9129 -10.0393,-0.8544 -14.52501,5.7672 -22.53507,6.5149 -29.90435,4.0584 -17.40861,-5.6604 -16.34059,1.068 -1.70882,1.3884 -3.20404,4.8061 -1.70882,1.4952 -11.74814,-5.5537 -6.08767,2.5632 -10.57332,-7.1556 -7.47609,0.1068 -3.84484,1.7088 -3.63125,3.9516 -2.34963,7.0489 -0.4272,7.0489 -7.68969,13.99101 -1.38842,8.3305 -1.06801,2.136 -1.28162,1.068 h -1.38841 l -2.99044,-2.136 -8.8645,4.5924 -9.07811,1.7088 -6.62168,6.5149 -13.88416,7.2625 -6.08767,8.0101 1.60202,7.1557 15.37938,25.0983 5.12646,3.0972 2.34963,4.1653 2.13602,6.1944 1.81562,7.5829 2.34963,4.9129 7.47609,1.068 16.55419,-2.7768 13.13656,6.8352 4.48565,6.1945 16.4474,9.6121 3.09723,4.0585 -0.534,2.5632 0.3204,3.2041 -0.64081,2.4564 -1.06801,1.4952 -7.15568,0.7476 -29.58395,-17.4086 -15.48619,1.2816 -2.56323,5.6605 3.95165,5.0196 7.90329,17.0882 5.01966,4.6993 2.13603,4.9129 1.06801,1.7088 1.17481,0.6408 10.89373,-4.2721 1.92243,3.6313 -1.81563,3.5244 -5.23326,4.1653 h -2.02922 v 2.2428 l 9.18491,16.2338 4.69925,5.0196 4.80606,1.9225 17.62221,-5.4469 2.45643,-2.2428 0.3204,-1.2816 0.1068,-1.7089 v -1.3884 l 0.53401,-0.6408 1.49521,-0.4272 4.27205,-3.9516 2.88364,-0.9612 5.76727,3.204 5.66046,6.5149 33.6424,9.7189 33.6424,9.7189 4.05844,-2.8836 2.45643,0.8544 0.74761,6.8353 -1.17481,6.0876 -3.20404,-1.2816 -2.02922,-2.136 -8.65091,-3.9517 -22.96227,5.3401 -22.96227,5.4469 -3.52444,-2.4565 h -1.70882 l -1.81562,2.4565 5.55367,2.2428 -2.02923,5.5537 -2.99043,2.136 -5.55367,-0.2136 h 0.53401 l -18.58342,-4.6993 0.1068,2.8837 0.3204,1.1748 -4.37885,-0.4272 -2.45643,2.7768 -1.60202,8.6509 2.77684,10.6801 6.08767,11.5346 3.52444,1.2816 10.57332,12.1753 3.95165,1.1748 1.70882,2.9905 -0.4272,1.8156 -0.53401,5.5537 8.1169,8.4373 8.33049,1.7088 8.1169,-7.2625 4.27205,-1.3884 3.20404,6.1944 -2.67003,2.7769 -5.98088,1.2816 -2.34962,5.5537 1.38841,2.0292 7.7965,0.2136 0.96121,2.0292 -0.64081,5.5537 5.87407,12.3889 3.63124,4.0585 3.09724,1.8156 1.49522,-0.8544 0.85441,-1.8156 1.70882,-4.5925 8.01009,-4.6992 2.88363,2.8836 4.05845,1.8156 11.74814,14.3114 30.75874,5.5536 22.0011,11.0006 20.6126,-3.3109 18.3698,3.3109 2.4565,-2.6701 2.3496,-5.4468 0.8544,-6.8353 -1.8156,-6.5149 -2.9904,-4.5924 -1.4953,-3.6313 -0.8544,-4.806 0.2136,-5.5537 0.9612,-2.9904 2.3497,-3.5245 -3.5245,-4.6992 -16.2338,-1.3884 -8.0101,-5.2333 -3.4176,-6.0877 3.3108,-4.6992 12.2822,4.6992 15.059,-5.0196 14.2045,4.0584 6.7285,7.4761 6.7285,13.3502 -0.4272,8.6509 1.8156,5.34 2.5632,2.67 13.7774,-1.7088 1.2816,0.534 2.3496,2.8837 0.8544,2.7768 0.3204,4.6993 0.2137,4.1652 0.534,3.3108 0.8544,2.5633 0.8544,1.7088 2.8836,2.9904 2.8836,0.7476 2.8837,-1.2816 2.9904,-3.0972 -1.2816,-7.6897 -5.1265,-12.0685 -1.9224,-6.1945 -1.4952,-14.0978 -0.7476,-3.204 -13.7774,-41.1185 -13.8841,-14.9522 -0.8544,-3.4176 0.4272,-6.3013 -0.9613,0.534 -0.3204,-1.3884 v -2.2428 l -0.3204,-1.9225 -0.534,-1.1748 -1.1748,-1.3884 -2.2428,-8.3305 -0.3204,-3.204 0.8544,-3.7381 -2.136,-4.9128 -0.8544,-3.0973 -0.534,-4.3788 1.1748,-2.2428 -0.2136,-9.3985 1.3884,-4.5925 2.0292,-2.0292 2.4564,-0.9612 2.3497,0.6408 1.8156,2.9904 -0.4272,2.5632 3.9516,13.0298 3.8449,5.3401 0.9612,3.0972 1.4952,9.3985 0.7476,3.5244 10.7869,24.9915 0.9613,1.068 1.602,0.7477 5.2332,7.2624 1.2816,3.2041 2.0293,6.9421 1.068,2.7768 8.1169,9.1849 2.136,3.9516 0.7476,2.8837 0.9612,4.3788 0.9612,3.7381 2.1361,5.0196 2.8836,11.855 14.4182,28.8363 3.738,4.4857 10.5733,3.204 3.2041,-1.9224 2.9904,-7.1557 2.4564,-11.0005 1.068,-7.4761 0.7477,-11.1073 0.534,-2.5633 0.6408,-2.2428 0.6408,-2.67 0.3204,-3.2041 0.3204,-6.7285 0.3204,-2.3496 7.5829,-21.0398 0.9612,-3.8449 1.2816,-9.3985 -0.8544,-5.7673 -1.8156,-5.1264 -1.602,-4.5925 -11.6414,-32.8948 0.4272,-4.272 -0.2136,-2.9904 -0.6408,-1.8157 -1.068,-0.9612 1.4952,-4.9128 -0.534,-3.4177 -2.9904,-4.3788 1.2816,-2.2428 1.4952,-0.6409 11.3209,2.8837 3.2041,-0.8544 0.8544,0.8544 0.3204,1.7088 0.3204,4.3788 0.3204,1.6021 19.6514,41.5457 3.5245,4.806 13.5637,-5.7673 2.5633,-5.2332 7.1556,-21.6807 0.8545,-8.0101 -0.6408,-8.1169 -1.9225,-7.6897 -3.3108,-8.5441 -3.204,-5.5536 -3.3109,-2.9905 -15.3794,-0.8544 -3.5244,4.9129 v -2.2428 l -0.6408,1.068 -0.534,0.2136 -1.2816,-1.2816 2.67,-5.7673 11.8549,-1.9224 1.8157,-3.0973 -0.6409,-7.476 -4.3788,-21.5739 -1.1748,-7.0489 -0.6408,-8.1169 0.1068,-9.6121 0.7476,-7.0489 1.9224,-13.3501 0.3204,-8.0101 -0.6408,-7.0489 -0.9612,-5.5537 -0.534,-5.6604 0.534,-7.7965 2.5632,-8.6509 3.5245,-3.8449 14.4181,-1.2816 1.6021,-2.5632 0.6408,-3.3109 0.4272,-3.8448 1.068,-4.2721 5.34,-13.0297 2.9905,-3.6313 2.67,2.1361 -1.2816,8.3305 -2.2428,4.806 -2.5633,3.4177 -2.0292,4.4856 0.8544,1.1748 0.7476,1.7088 0.7476,2.2429 0.6408,2.7768 -6.5148,10.0393 -5.1265,3.5245 -1.3884,2.136 -0.3204,0.2136 -0.3204,0.8544 -0.3204,1.8156 2.136,11.6414 0.3204,8.5441 -2.4564,18.797 -0.8544,9.8257 0.2136,7.5829 0.9612,6.8353 5.0196,25.0983 2.0293,7.3693 2.136,5.1264 13.6706,17.4086 1.7088,1.1748 2.0292,-1.068 5.0197,-6.7285 1.1748,-2.8836 0.3204,-1.9224 0.1068,-2.3496 v -2.2429 l 0.1068,-1.3884 2.4564,-6.7285 7.5829,-16.0202 3.8448,-14.7385 2.2429,-6.3013 6.408,-4.6993 13.6706,-19.9718 6.9421,-16.7678 -0.7476,-3.4176 -1.7088,-5.1265 -0.7477,-3.3108 -0.1068,-1.9225 v -2.3496 -2.7768 l -1.068,-8.4373 v -4.0585 l 0.9612,-10.6801 -0.1068,0.3204 0.1068,-9.3985 0.4273,-3.4176 0.9612,-1.2816 1.068,0.4272 0.7476,1.602 1.4952,10.5733 0.8544,4.5925 7.3693,17.8358 2.4564,4.1652 2.2429,1.1748 9.7189,-5.7672 1.2816,-2.2429 0.3204,-2.3496 0.3204,-5.9809 0.2136,-2.3496 1.9224,-7.6897 0.534,-4.5924 -0.8544,-3.5245 4.3789,-7.5829 30.33147,-15.69981 30.2248,-15.6997 3.204,-5.1265 8.9713,-1.3884 4.0585,-3.4177 3.738,-6.0876 6.4081,-0.6408 1.602,-1.6021 3.5244,-9.3985 3.7381,-5.34 18.1562,-10.2529 2.67,-4.1653 -0.534,-9.9325 -1.2816,-4.3789 -4.6992,-9.1849 -4.0585,-10.5733 -3.4176,-5.98087 -10.5734,-9.93252 -1.3884,-3.31083 -2.7768,-9.29171 -1.4952,-3.84485 -5.1265,-6.08767 -0.7476,-4.05845 -1.068,-9.71891 -2.4564,-7.47609 -5.0197,-10.35972 -1.068,-3.52444 -0.2136,-3.09724 -0.2136,-3.52444 -0.534,-4.80606 -1.068,-4.37885 -4.4857,-9.71892 -5.4468,-5.76726 -6.4081,0.3204 -5.5537,9.82572 -2.67,23.28267 0.534,9.93252 -0.2136,4.80605 -2.5632,3.41764 -1.1749,3.73805 -1.9224,9.93252 -2.8836,6.83528 -4.1653,1.17481 -4.1652,-3.09724 -3.0972,-6.30127 2.2428,-4.80606 5.4468,-1.17481 2.4565,-2.45643 -0.6408,-0.42721 -0.6408,-0.7476 -0.6408,-1.17482 -0.6409,-1.60202 -0.2136,-1.70882 -0.1068,-2.13602 v -1.92242 l -0.1068,-1.06802 -1.068,-2.13602 -2.7768,-3.09724 -1.1748,-0.53401 v -2.67003 l 3.6312,-2.45643 2.0292,-2.56323 1.3885,-2.99043 -0.6408,-1.38842 -0.3204,-1.60202 -0.6409,-2.88363 0.534,-0.2136 1.0681,-2.24283 -2.8837,-5.87407 -6.3012,-8.9713 -6.5149,-13.56376 -3.9517,-3.73805 -22.74857,-1.60202 -7.2625,3.95165 -7.1557,10.14612 5.1265,5.66047 2.5632,4.69925 1.3884,9.29171 -5.5537,-0.53401 -0.534,0.53401 v 0.85441 3.52444 0.85441 l -1.3884,2.13603 -1.9224,1.70882 -1.1748,-1.28162 0.7476,-6.51487 0.4272,-7.36929 -1.7088,-3.63124 -10.6802,-4.27205 -10.0393,7.36928 -2.3496,3.63125 -1.068,3.63124 -2.2428,9.93252 -1.1749,4.37885 -4.3788,8.01009 -4.4857,1.60202 -4.3788,-3.52444 -4.3789,-7.47609 0.6408,-3.31084 0.5341,-3.41764 0.2136,-3.52444 -0.4273,-3.31084 2.7769,-8.6509 16.2338,-15.16578 2.2428,-4.48565 1.602,-4.37885 0.3204,-2.24283 v -5.87407 -1.38842 l 4.6993,-21.36025 0.7476,-5.34006 -0.2136,-9.71892 -0.4272,-6.94208 0.1068,-6.72848 1.068,-8.8645 5.7673,-27.23432 0.6408,-11.32093 -2.0293,-3.20404 -3.0972,1.60202 -23.0691,29.15674 -6.8352,2.24283 h -3.5245 l 1.2816,-6.94209 2.4565,-2.99043 9.1849,-5.34006 2.0292,-4.16525 4.0584,-14.63178 2.3497,-2.02922 2.4564,-0.64081 4.6992,-4.59245 4.6993,-1.17481 2.0292,-5.98088 -2.0292,-5.66046 -6.5149,-8.97131 -3.204,-8.6509 -1.7088,-6.40807 -0.6408,-6.62168 -2.8837,-13.13656 -34.8172,-3.95164 -10.8937,8.7577 -2.5632,-0.2136 -2.6701,-3.63125 -0.8544,-2.45643 -0.4272,-2.88363 -0.3204,-2.56323 -0.3204,-1.60202 -0.9612,-1.17481 -0.9612,-0.42721 -0.534,-1.81562 0.4272,-5.34006 -1.3884,-2.67003 -2.7769,-1.06802 -1.2816,-2.34962 2.7768,-5.66047 26.0596,-10.14612 2.9904,-6.19447 1.4952,-1.38842 1.602,0.42721 0.8544,-0.32041 0.534,-1.60202 0.2136,-3.09723 -0.3204,-1.70882 -0.4272,-1.28162 -0.2136,-1.28161 0.4272,-11.96174 -0.534,-5.34007 -1.068,-4.05844 -1.2816,-8.1169 -0.4272,-9.29171 0.4272,-16.7678 -0.8544,-8.11689 -2.4564,-18.04942 -1.2816,-6.72847 -1.9225,-3.95165 -28.1955,-5.98087 -28.0887,-5.98087 -1.8157,1.38841 -3.4176,6.19448 -4.1652,4.37885 -3.5245,7.04888 -2.67,8.3305 v 7.26249 l 2.2428,9.71891 -0.534,7.47609 -3.738,13.88416 2.3496,3.73805 2.2428,5.44686 0.534,2.24283 0.7476,4.16525 0.7476,2.45642 1.8157,4.27205 6.1944,7.58289 14.525,3.73805 4.0585,10.89373 -1.3885,5.44686 h -1.3884 l -2.7768,-5.44686 -3.4177,-2.45643 -3.6312,-0.21361 2.0292,7.58289 5.9809,6.72848 10.1461,21.57386 2.4564,2.45643 v 2.56323 l -7.2624,-4.05845 -2.1361,-6.40808 -8.6509,-8.5441 -6.5148,-1.38841 0.7476,4.27205 4.1652,10.35972 -2.4564,3.52444 -3.3109,1.81562 -3.3108,-0.3204 -2.4564,-3.41764 -2.2428,-4.80606 -32.0404,-32.25398 -8.7577,-16.7678 -5.5537,-17.83581 -1.4952,-6.94208 -0.4272,-6.08767 7.0489,-6.51488 2.5632,-4.69925 1.8156,-6.19448 -1.8156,-5.23326 0.6408,-5.98087 3.0972,-13.02975 -3.0972,-4.59246 -6.8353,7.26249 -3.0972,-2.67003 2.0292,-7.04888 8.8645,-12.38895 0.8544,-2.13603 2.7769,-8.7577 -19.5447,-30.65196 -22.1078,-2.67003 -0.3204,4.91286 -2.0293,0.534 -4.1652,-2.77683 -8.5441,3.41764 1.602,6.30128 4.5925,14.41816 0.6408,5.12647 -2.5633,2.99043 -9.5053,-19.54463 -1.4952,-0.85441 -1.4952,-2.45643 -4.4857,-11.64134 -35.5648,-9.61211 -4.6992,-6.83528 -0.7476,2.24283 -0.7477,4.05844 -4.5924,-1.70882 -2.8836,1.70882 -3.8449,-0.96121 -2.67,-4.27205 1.1748,-8.01009 9.7189,-16.9814 1.8156,-9.39851 -0.9612,-0.42721 -0.534,-0.96121 -7.0489,-21.46705 -27.7683,-20.61264 -2.9904,-7.26249 -1.8157,-11.64134 0.1069,-5.12646 0.534,-2.67003 -0.1068,-2.77683 -1.4953,-5.01966 -1.7088,-2.56323 -3.3108,-1.81562 -1.602,-3.31084 -4.9129,-19.65143 -2.67,-7.47609 -5.12649,-4.37885 -4.05845,-8.0101 -1.81562,-4.91285 -1.17481,-4.48566 -0.21361,-3.52444 0.21361,-4.37885 0.2136,-6.83528 -13.45696,-28.08873 -15.16578,-18.58342 v -3.20404 l 7.36929,0.96121 2.13602,-4.16525 -0.96121,-5.98087 -1.06801,-4.16525 -2.45643,-6.08767 0.74761,-5.12646 1.92242,-6.72848 0.85441,-4.37885 -2.24282,-1.28161 -29.90436,-45.283738 -9.82571,-3.41764 -8.5441,-10.78692 -16.02019,-7.6897 -4.80606,-7.79649 -23.70988,-14.41817 -11.85494,-12.70935 -19.75823,-6.6216753 -1.49522,0.961212 -1.38841,2.990433 1.06801,7.1556903 1.38842,6.40807 1.38841,4.59246 1.38842,1.81562 0.74761,1.60202 -0.21361,3.52444 -0.6408,3.52444 -0.85441,1.60202 -1.06802,0.534 -2.24282,3.63125 -0.96121,2.45643 0.534,-3.31084 -2.67003,-3.31084 -5.01966,-10.89373 -19.33103,-9.39851 -19.11742,-3.95165 -3.95165,2.88364 -2.67003,8.11689 0.74761,1.06801 1.06801,2.77684 0.74761,3.41764 -0.4272,3.31084 -8.0101,14.31137 -1.49522,5.76726 -1.17481,9.29171 4.59245,8.6509 12.28215,9.93252 17.94261,6.51488 10.57333,1.17481 14.52497,-8.11689 26.48671,4.59245 -0.64081,1.17481 -1.92242,5.66047 2.56323,4.592458 5.34006,-0.21361 2.45643,6.83528 0.74761,9.71892 -1.81562,3.20404 -2.56323,2.13602 -1.70882,5.98087 1.28161,-0.4272 1.17482,0.6408 1.06801,2.13603 0.96121,4.48565 -1.06801,1.92242 -2.34963,2.02923 -1.06801,2.13602 0.534,1.38842 0.42721,1.06801 1.06801,1.06801 -11.53453,5.34007 -15.05898,-2.02923 0.85441,4.59246 0.4272,1.17481 0.74761,0.64081 v 3.52444 l -24.35068,-16.44739 -24.35069,3.20403 -10.78693,-11.74813 -2.77683,5.34006 -1.38842,3.20404 1.17482,3.09723 5.23326,4.37886 2.67003,4.48565 2.34963,1.92242 1.60202,4.48565 0.85441,0.96121 14.63177,2.67004 4.48565,7.26248 -9.50531,-4.59245 -2.56323,4.59245 10.03932,6.51488 v 2.88363 l -12.28215,-3.73804 -1.81562,7.26248 -1.49522,2.67004 -2.45643,1.81562 h -2.34962 l -2.67003,-5.34007 -1.92243,-0.3204 -1.60202,2.24283 v 5.34006 l -2.56323,7.47609 -2.67003,5.01966 -2.67003,2.67003 -2.88363,0.74761 -2.77684,-2.24283 -1.38841,-2.99043 -0.64081,-4.27206 0.53401,-4.37885 3.52444,-8.4373 -1.17482,-3.20403 -2.67003,0.1068 -1.28161,-1.92243 -1.38842,-3.41764 -23.28267,-14.84537 -2.88364,0.4272 -9.93251,13.45696 -9.50532,2.88364 -4.59245,6.51487 -2.88363,24.9915 -2.13603,6.30127 -13.56376,19.65143 3.63124,8.1169 20.93305,1.38842 -3.09724,6.08767 -21.14665,10.57332 -3.41764,5.66047 0.53401,2.77683 -1.06801,3.20404 2.56323,7.36929 26.37991,4.91285 15.48618,-10.46652 2.99044,0.2136 2.34962,4.48566 -3.09723,6.40807 -10.46653,6.08767 1.17482,5.12646 24.13708,16.9814 13.24336,3.73805 1.60202,-4.05845 1.28161,1.49522 6.30128,-7.68969 3.95164,-0.53401 1.81562,1.70882 -0.3204,5.01966 v 3.41764 l 4.37885,1.92242 9.18491,-2.34962 4.05845,9.50531 -19.97184,3.20404 -20.07863,3.09723 -2.45643,4.37885 -1.70882,8.1169 1.60202,6.19447 3.95164,4.69926 1.70882,5.98087 1.17482,5.98087 1.38841,3.20404 1.60202,1.38841 10.68013,-5.66046 27.12752,11.74813 16.12699,24.35069 v 3.41764 l -7.15569,3.84485 -3.84484,-0.64081 -2.67003,-9.29171 1.06801,-3.09724 -0.96121,-2.34962 -1.17482,-1.38842 -1.28161,0.1068 -0.85441,2.24283 -1.17481,1.81562 -18.69022,-7.9033 -21.25346,5.01966 -13.56376,-6.19447 -16.12699,-15.48618 -5.34006,0.64081 -17.72901,6.62167 -24.13708,-1.81562 -29.37035,3.41764 1.38842,8.86451 2.56323,4.91286 5.12646,4.59245 -1.38842,0.2136 -0.74761,3.09724 -0.4272,5.76727 -1.17481,4.27205 -0.74761,1.49521 -10.14612,6.62168 3.20404,5.66047 19.54463,13.45696 4.59245,15.91338 3.20404,4.80606 8.9713,6.30128 h 5.87407 l 2.34963,5.01965 -1.17481,2.45643 -0.32041,0.64081 0.42721,2.99044 1.38841,5.34006 0.64081,3.84484 -9.29171,-3.84484 -7.58289,-8.3305 -10.35972,0.96121 -10.14612,-9.71891 -11.32093,0.85441 -2.77684,3.41764 -1.70882,-1.38842 -6.62167,4.80606 -1.92243,4.27205 1.17482,1.49522 3.31084,7.47608 -2.13603,3.09724 -5.98087,-1.38842 -6.83528,-7.26248 -2.24283,-0.42721 -0.3204,5.98087 -4.16525,-2.02922 -4.37885,-5.44686 -4.16525,-1.60202 -3.84484,9.0781 8.01009,5.98088 6.08767,0.3204 1.92242,2.67003 -1.17481,5.55367 -5.87407,12.17534 -0.4272,2.77683 18.04941,6.19447 25.8459,26.05951 6.30128,0.42721 19.75823,-20.61265 1.17481,1.38842 1.60202,6.08767 0.85441,1.38842 h 13.77737 l 5.34006,-7.90329 2.88363,-2.13603 2.24283,4.16525 -3.63124,9.50531 -4.05845,4.27205 -16.23379,-0.3204 -8.5441,7.47609 -1.60202,5.55366 3.09723,1.17482 18.58342,21.57385 32.36078,-6.62168 19.54463,-19.75823 5.55367,-14.84538 2.34963,-1.60202 3.31084,0.32041 2.77683,2.77683 0.74761,5.23326 28.19553,8.6509 1.49522,3.09724 -33.6424,9.50531 -19.11742,25.73911 v 2.99043 l 4.05844,1.92242 7.7965,14.84538 6.08767,5.34006 4.48565,7.9033 3.84485,2.88363 1.70882,2.67003 3.09723,7.79649 -2.88363,2.45643 -31.07917,-26.70031 -8.22369,-0.21361 -15.48619,5.01966 -21.78745,-5.98087 -15.37939,-0.3204 h 0.53401 l -2.45643,-3.41764 -23.06907,-6.40808 -25.3119,-29.58394 -25.4187,-2.88364 -2.77683,3.41764 -0.96121,4.59246 -0.74761,6.72847 -0.85441,5.66047 -1.38842,1.28162 2.13603,10.46652 3.84484,7.90329 4.05845,4.37885 z"
         id="path566"
         style="fill:#000000;fill-opacity:1;stroke-width:10.4665" />
    </g>
  </g>
</svg>
