<?xml version="1.0" encoding="UTF-8" standalone="no"?>
<svg
   xmlns:dc="http://purl.org/dc/elements/1.1/"
   xmlns:cc="http://creativecommons.org/ns#"
   xmlns:rdf="http://www.w3.org/1999/02/22-rdf-syntax-ns#"
   xmlns:svg="http://www.w3.org/2000/svg"
   xmlns="http://www.w3.org/2000/svg"
   xmlns:sodipodi="http://sodipodi.sourceforge.net/DTD/sodipodi-0.dtd"
   xmlns:inkscape="http://www.inkscape.org/namespaces/inkscape"
   version="1.0"
   width="1024.000000pt"
   height="1024.000000pt"
   viewBox="0 0 1024.000000 1024.000000"
   preserveAspectRatio="xMidYMid meet"
   id="svg106"
   sodipodi:docname="Baffin_Island.svg"
   inkscape:version="1.0.1 (3bc2e813f5, 2020-09-07)">
  <defs
     id="defs110" />
  <sodipodi:namedview
     pagecolor="#ffffff"
     bordercolor="#666666"
     borderopacity="1"
     objecttolerance="10"
     gridtolerance="10"
     guidetolerance="10"
     inkscape:pageopacity="0"
     inkscape:pageshadow="2"
     inkscape:window-width="1920"
     inkscape:window-height="974"
     id="namedview108"
     showgrid="false"
     inkscape:zoom="0.55286249"
     inkscape:cx="682.66667"
     inkscape:cy="624.85865"
     inkscape:window-x="-11"
     inkscape:window-y="-11"
     inkscape:window-maximized="1"
     inkscape:current-layer="g104" />
  <metadata
     id="metadata2">
Created by potrace 1.10, written by Peter Selinger 2001-2011
<rdf:RDF>
  <cc:Work
     rdf:about="">
    <dc:format>image/svg+xml</dc:format>
    <dc:type
       rdf:resource="http://purl.org/dc/dcmitype/StillImage" />
  </cc:Work>
</rdf:RDF>
</metadata>
  <g
     transform="translate(0.000000,1024.000000) scale(0.100000,-0.100000)"
     fill="#000000"
     stroke="none"
     id="g104">
    <path
       d="m 1571.5026,9196.0341 c -8.4252,-16.8505 -29.4883,-80.0397 -42.1261,-139.0163 -16.8505,-67.4019 -80.0397,-134.8037 -168.5046,-176.9298 -130.5911,-63.1893 -147.4415,-88.465 -168.5046,-294.8831 -16.8505,-122.1658 -29.4883,-320.1587 -29.4883,-438.1119 0,-185.3551 12.6378,-219.056 101.1027,-261.1821 l 101.1028,-46.3388 -84.2523,-168.5046 c -54.764,-109.528 -75.8271,-210.6307 -58.9766,-278.0326 21.0631,-88.4649 50.5514,-105.3153 189.5677,-105.3153 h 164.2919 l 16.8505,-231.6939 c 12.6378,-219.0559 8.4252,-231.6938 -88.4649,-231.6938 -84.2523,0 -92.6775,16.8505 -71.6145,101.1028 21.0631,84.2523 -12.6378,139.0163 -193.7802,311.7335 -214.8434,202.2055 -219.056,219.056 -256.96948,518.1516 -71.6145,598.1913 -71.6145,914.1374 -4.2127,939.4131 58.97658,21.0631 92.67758,92.6775 160.07938,311.7335 29.4883,88.4649 21.0631,92.6775 -256.96948,92.6775 l -286.4578,-4.2126 -189.5677,-252.7569 c -105.3153,-143.2289 -214.8433,-286.4578 -240.119,-328.5839 -37.9135,-50.5514 -42.1262,-109.528 -12.6379,-214.8434 33.701,-117.9532 25.2757,-181.1424 -58.976605,-362.2849 -63.1892,-139.0162 -88.4648999,-235.9064 -63.1892,-273.8199 21.0631,-33.7009 37.9135,-240.1191 37.9135,-463.3877 0,-463.3876 -8.4252,-454.9624 408.623705,-438.1119 189.5676,8.4252 227.4812,-4.2126 282.2452,-88.4649 63.1892,-88.4649 58.9766,-96.8901 -21.0631,-122.1658 -46.3388,-16.8505 -126.3784,0 -181.1424,37.9135 -80.0397,50.5514 -113.7406,54.764 -172.7172,12.6378 -63.1893,-50.5513 -63.1893,-67.4018 4.2126,-240.119 42.1261,-105.3154 101.1027,-206.4181 139.0163,-227.4812 33.7009,-21.0631 105.3153,-84.2523 155.8667,-139.0163 126.3784,-134.8037 362.28488,-122.1658 395.98578,21.0631 21.0631,92.6775 25.2757,92.6775 189.5677,-75.8271 185.355,-189.5676 210.6307,-197.9929 358.0722,-88.4649 92.6775,75.8271 105.3154,75.8271 151.6542,12.6379 46.3387,-63.1893 75.827,-63.1893 248.5442,-16.8505 160.0794,42.1261 227.4812,42.1261 345.4344,0 130.5911,-46.3388 151.6542,-46.3388 202.2056,21.0631 50.5513,71.6144 63.1892,71.6144 185.355,12.6378 l 130.5911,-67.4018 -25.2757,122.1658 c -25.2757,113.7406 -16.8505,122.1658 134.8024,139.0163 92.6775,12.6378 185.355,4.2126 214.8433,-16.8505 29.4883,-25.2757 88.465,-12.6378 160.0794,33.701 113.7406,75.827 113.7406,75.827 -84.2523,307.5208 l -84.2523,101.1028 105.3154,-25.2757 c 58.9766,-16.8505 168.5046,-29.4883 244.3316,-29.4883 117.9533,0 147.4416,-21.0631 227.4812,-189.5677 58.9767,-122.1658 122.1659,-189.5676 168.5046,-189.5676 42.1262,0 75.8271,-16.8505 75.8271,-42.1262 0,-21.0631 50.5514,-42.1261 109.528,-42.1261 63.1892,0 185.355,-42.1262 273.82,-92.6776 130.591,-71.6144 164.2919,-117.9532 164.2919,-210.6307 0,-88.4649 -25.2757,-122.1658 -109.528,-143.2289 -84.2523,-21.0631 -101.1027,-50.5514 -92.6775,-139.0163 8.4252,-75.8271 42.1262,-113.7406 105.3154,-122.1658 75.8271,-12.6379 109.528,21.0631 160.0794,151.6541 58.9766,143.2289 80.0396,160.0794 181.1424,143.2289 63.1892,-8.4252 160.0793,-63.1892 219.056,-117.9532 71.6144,-67.4018 126.3784,-84.2523 168.5045,-58.9766 42.1262,25.2757 71.6145,8.4252 105.3154,-54.764 21.0631,-50.5514 130.5911,-139.0163 240.1191,-197.9929 122.1654,-63.1892 286.4574,-219.056 429.6864,-395.9858 214.844,-265.3947 231.694,-299.0956 172.717,-362.2849 -37.913,-42.1261 -63.189,-151.6541 -63.189,-265.3947 0,-160.0794 -29.488,-240.119 -147.441,-404.411 -193.781,-269.6074 -189.568,-349.647 33.701,-501.3012 96.89,-67.4018 214.843,-164.292 256.969,-214.8433 67.402,-75.8271 71.615,-88.4649 12.638,-88.4649 -37.914,0 -117.953,-46.3388 -181.142,-105.3154 -63.19,-58.9766 -139.017,-105.3154 -164.292,-105.3154 -29.489,0 -63.19,-25.2757 -75.827,-58.9766 -29.489,-80.0397 -290.6709,-151.6541 -543.4278,-151.6541 -286.4578,0 -332.7966,-25.2757 -282.2452,-155.8668 42.1262,-109.528 29.4883,-122.1658 -189.5676,-273.8199 -25.2757,-16.8505 -16.8505,-75.8271 16.8504,-160.0794 164.292,-391.7732 450.7498,-509.7264 779.3342,-315.9461 206.418,117.9532 206.418,117.9532 147.441,231.6938 -54.764,105.3154 54.764,139.0163 252.757,84.2523 80.04,-25.2757 151.654,-42.1262 155.867,-42.1262 8.425,0 12.638,37.9136 12.638,80.0397 0,42.1262 37.913,122.1659 80.039,176.9299 l 80.04,101.1027 54.764,-117.9532 c 54.764,-122.1658 71.614,-130.5911 160.079,-75.8271 42.126,29.4883 143.229,-16.8504 337.009,-147.4415 231.694,-155.8667 311.734,-185.355 476.026,-185.355 h 202.205 v -189.5677 c 0,-244.3317 80.04,-286.4578 568.703,-294.883 265.395,-4.2127 417.049,-25.2757 513.939,-75.8271 151.655,-80.0397 366.498,-88.4649 762.484,-29.4883 197.993,25.2757 315.946,21.0631 463.387,-21.0631 172.7182,-54.764 202.2062,-50.5514 269.6082,8.4252 67.402,63.1893 67.402,71.6145 -12.638,227.4812 -54.764,109.528 -109.528,164.292 -168.5052,164.292 -46.338,0 -147.441,46.3388 -219.056,101.1028 -139.016,105.3153 -522.364,235.9064 -686.656,235.9064 -58.977,0 -155.867,71.6145 -265.395,206.4181 l -172.717,206.4182 210.631,-54.764 c 117.953,-29.4883 311.733,-96.8902 433.899,-147.4416 193.78,-80.0396 248.544,-84.2523 450.75,-50.5513 202.206,37.9135 248.544,33.7009 370.7102,-42.1262 L 10220,1845.0212 v 214.8434 c 0,164.292 -16.851,214.8433 -75.827,231.6938 -42.126,16.8504 -122.166,84.2523 -172.7172,155.8667 l -96.891,130.5911 96.891,-29.4883 c 54.7632,-16.8505 126.3782,-42.1262 151.6542,-50.5514 42.126,-16.8504 42.126,8.4252 8.425,101.1028 -25.276,80.0397 -96.89,151.6541 -185.3552,193.7803 -80.04,37.9135 -147.442,96.8901 -147.442,130.591 0,37.9135 -71.614,84.2523 -168.504,113.7406 -155.867,46.3388 -164.292,58.9766 -105.316,122.1658 54.764,58.9766 54.764,80.0397 8.426,117.9533 -29.489,25.2756 -92.678,37.9135 -143.229,25.2756 -63.19,-16.8504 -109.528,12.6379 -181.143,109.528 -88.465,126.3785 -109.528,134.8037 -278.032,109.528 -176.93,-21.0631 -189.568,-16.8504 -294.883,139.0163 -122.166,189.5677 -248.545,240.1191 -383.348,151.6541 -122.166,-80.0396 -139.017,-80.0396 -139.017,16.8505 0,50.5514 -46.338,96.8901 -126.378,126.3784 -84.252,29.4883 -126.379,71.6145 -126.379,130.5911 0,80.0397 8.426,84.2523 117.954,29.4883 117.953,-58.9766 261.182,-50.5514 261.182,12.6379 0,50.5513 -172.717,210.6307 -227.481,210.6307 -25.276,0 -21.063,16.8505 12.637,37.9135 50.552,33.7009 54.764,63.1892 16.851,143.2289 -29.488,58.9766 -37.914,117.9532 -25.276,130.5911 50.552,50.5514 168.505,25.2757 240.119,-54.764 37.914,-42.1262 155.867,-101.1028 252.757,-130.5911 155.867,-42.1261 197.993,-42.1261 290.671,16.8505 l 101.102,71.6144 -4.212,-160.0793 c -4.213,-143.2289 12.638,-168.5046 240.119,-324.3714 172.717,-122.1658 252.757,-155.8667 286.458,-122.1658 25.275,25.2757 117.953,37.9135 210.63,25.2757 181.143,-25.2757 206.418,12.6378 101.103,168.5046 -33.701,50.5514 -88.465,172.7172 -122.166,273.82 -58.976,164.2919 -58.976,176.9298 12.638,176.9298 80.04,0 214.843,240.119 214.843,379.1353 0,63.1892 -29.488,84.2523 -105.315,84.2523 -88.465,0 -105.315,21.0631 -105.315,122.1658 0,88.465 25.275,134.8037 84.252,151.6542 92.678,29.4883 109.528,84.2523 37.914,130.591 -25.276,12.6379 -37.914,80.0397 -25.276,143.2289 25.276,105.3154 12.638,117.9533 -130.591,139.0163 -117.953,21.0631 -193.78,4.2126 -328.584,-75.827 -101.103,-58.9766 -189.568,-105.3154 -202.206,-105.3154 -12.638,0 -25.275,80.0397 -25.275,176.9298 v 181.1424 l -109.528,-155.8667 -113.741,-155.8667 -109.528,75.827 c -58.977,46.3388 -155.867,130.5911 -210.631,189.5677 -75.827,80.0397 -126.378,101.1027 -202.205,84.2523 -84.252,-25.2757 -96.89,-12.6379 -96.89,105.3154 0,176.9298 -58.977,164.2919 -193.781,-37.9136 -92.677,-143.2289 -134.803,-168.5046 -252.757,-168.5046 -117.953,0 -160.079,25.2757 -227.481,134.8037 -80.039,134.8037 -88.465,134.8037 -425.474,143.2289 -379.135,8.4252 -497.088,63.1892 -294.883,134.8037 147.442,50.5514 160.08,101.1027 71.615,273.8199 -58.977,109.528 -58.977,113.7406 29.488,113.7406 54.764,0 139.016,29.4883 189.568,67.4019 80.039,54.764 88.464,80.0397 46.338,130.591 -42.126,46.3388 -109.528,54.764 -320.158,29.4883 l -269.608,-25.2757 54.764,117.9533 c 25.276,67.4018 75.827,155.8667 109.528,193.7802 50.552,58.9767 46.339,75.8271 -42.126,122.1659 -54.764,29.4883 -139.016,80.0397 -193.78,113.7406 -88.465,58.9766 -92.678,54.764 -84.252,-37.9136 12.637,-92.6775 -4.213,-101.1027 -172.718,-113.7406 l -185.355,-12.6378 134.804,164.292 c 71.614,92.6775 130.591,176.9298 130.591,189.5676 0,12.6379 -96.89,42.1262 -214.843,71.6145 -189.568,46.3388 -214.844,46.3388 -269.608,-25.2757 -54.764,-67.4018 -67.402,-71.6144 -101.102,-16.8505 -33.701,50.5514 -54.764,50.5514 -126.379,-16.8504 -88.4648,-80.0397 -88.4648,-80.0397 -88.4648,71.6144 0,126.3785 -16.8505,155.8668 -84.2523,155.8668 -63.1892,0 -84.2523,-29.4883 -84.2523,-109.528 0,-164.292 -71.6145,-265.3947 -168.5046,-240.119 -101.1028,25.2756 -105.3154,113.7406 -21.0631,278.0325 75.8271,147.4416 25.2757,269.6074 -126.3784,307.5209 -155.8668,37.9135 -223.2686,-4.2126 -240.1191,-155.8667 -16.8504,-197.9929 -101.1027,-193.7803 -202.2055,0 -46.3387,96.8901 -96.8901,172.7172 -109.528,172.7172 -12.6378,0 -80.0396,-46.3388 -151.6541,-105.3154 -67.4018,-58.9766 -143.2289,-105.3154 -164.292,-105.3154 -67.4018,0 -37.9135,139.0163 50.5514,235.9065 71.6145,75.827 80.0397,109.5279 37.9135,185.355 -37.9135,67.4019 -71.6144,84.2523 -151.6541,67.4019 -67.4018,-16.8505 -101.1027,-8.4253 -101.1027,29.4883 0,88.4649 -160.0794,147.4415 -463.3877,172.7172 -324.3713,29.4883 -480.2381,-29.4883 -497.0885,-185.3551 -4.2126,-58.9766 -21.0631,-147.4415 -29.4883,-197.9929 l -21.0631,-96.8901 -88.4636,88.4649 c -46.3388,46.3387 -126.3785,80.0397 -176.9299,71.6144 -75.827,-8.4252 -101.1027,-50.5513 -130.591,-231.6938 -25.2757,-143.2289 -58.9766,-223.2686 -92.6776,-223.2686 -71.6144,0 -75.827,143.2289 -12.6378,261.1822 37.9135,71.6144 33.7009,101.1027 -25.2757,143.2289 -50.5514,37.9135 -67.4018,84.2523 -46.3388,164.2919 33.701,126.3785 -63.1892,337.0092 -189.5676,404.4111 -63.1892,33.7009 -80.0397,71.6144 -63.1892,143.2289 16.8504,63.1892 -4.2127,130.591 -54.764,193.7802 -67.4019,84.2523 -96.8902,92.6776 -197.9929,54.764 -92.6776,-33.7009 -143.2289,-29.4883 -214.8434,12.6379 -46.3387,33.7009 -96.8901,42.1261 -109.528,25.2757 z"
       id="path56"
       style="stroke-width:4.21262" />
  </g>
</svg>
