<?xml version="1.0" encoding="UTF-8" standalone="no"?>
<svg
   xmlns:dc="http://purl.org/dc/elements/1.1/"
   xmlns:cc="http://creativecommons.org/ns#"
   xmlns:rdf="http://www.w3.org/1999/02/22-rdf-syntax-ns#"
   xmlns:svg="http://www.w3.org/2000/svg"
   xmlns="http://www.w3.org/2000/svg"
   xmlns:sodipodi="http://sodipodi.sourceforge.net/DTD/sodipodi-0.dtd"
   xmlns:inkscape="http://www.inkscape.org/namespaces/inkscape"
   version="1.1"
   width="1360"
   height="1360"
   viewBox="0 0 1360 1360"
   id="svg224"
   sodipodi:docname="Bali.svg"
   inkscape:version="1.0.1 (3bc2e813f5, 2020-09-07)">
  <metadata
     id="metadata230">
    <rdf:RDF>
      <cc:Work
         rdf:about="">
        <dc:format>image/svg+xml</dc:format>
        <dc:type
           rdf:resource="http://purl.org/dc/dcmitype/StillImage" />
        <dc:title></dc:title>
      </cc:Work>
    </rdf:RDF>
  </metadata>
  <defs
     id="defs228" />
  <sodipodi:namedview
     pagecolor="#ffffff"
     bordercolor="#666666"
     borderopacity="1"
     objecttolerance="10"
     gridtolerance="10"
     guidetolerance="10"
     inkscape:pageopacity="0"
     inkscape:pageshadow="2"
     inkscape:window-width="1920"
     inkscape:window-height="974"
     id="namedview226"
     showgrid="false"
     inkscape:zoom="0.45192403"
     inkscape:cx="256.95752"
     inkscape:cy="465.99285"
     inkscape:window-x="-11"
     inkscape:window-y="-11"
     inkscape:window-maximized="1"
     inkscape:current-layer="svg224"
     inkscape:document-rotation="0" />
  <path
     d="m 1257.3812,501.12747 -57.9837,-72.80505 -31.9607,-29.28873 -35.2835,-23.81922 -176.56593,-74.63201 -74.14103,-15.52931 -18.08707,-10.75633 -16.9338,-12.52622 -22.18636,-9.16914 -24.01333,-4.77298 -21.74103,0.27405 -39.64541,18.95489 -77.9891,76.29914 -43.57341,31.85791 -41.04989,8.46119 -98.15436,-0.17128 -37.89837,13.94213 -178.3244,-62.99647 -19.64001,-4.31623 -41.91771,-4.14496 -23.05417,-5.82349 -16.24868,-12.17223 -28.38666,20.46214 -16.76252,4.76156 -16.762524,-6.34874 -13.27984,-15.70058 -10.21967,-15.00406 -14.05635,-10.04837 -24.9725,-0.97058 -31.1727995,6.08611 -4.80720003,28.93475 22.00369953,104.79999 86.541624,125.49051 26.98217,30.62471 32.48594,26.04584 37.03055,13.15424 125.39916,-0.97058 43.75611,8.38126 139.90079,67.26702 28.03268,19.16043 74.57493,69.23102 38.06964,23.67078 19.91406,15.63207 8.64388,16.51131 5.7664,15.72342 14.23901,16.0774 30.55619,24.19603 8.56396,3.71105 9.5117,3.0031 7.94735,4.2363 17.47047,37.46446 4.88717,7.42209 10.04837,20.57633 -4.71588,26.06869 -12.05805,24.29877 -12.30926,14.5816 -47.51283,23.0656 -22.17494,16.34 0.78788,16.5342 19.82271,12.7203 22.62026,5.8349 24.53859,1.1533 25.23513,-1.4159 15.19816,-3.7111 19.46873,-7.7761 16.94522,-10.5165 6.98818,-11.4072 2.61487,-51.6007 -5.93768,-19.7998 -19.3888,8.484 9.78575,17.5846 4.88716,4.5104 -8.0387,7.4221 -16.32861,-21.2044 -2.35223,-24.39012 9.95703,-20.14243 20.69052,-8.31274 23.84205,-6.71414 15.98605,-16.78536 23.56801,-43.8132 34.15306,-37.97829 44.44122,-29.15171 144.61667,-52.62837 18.4296,-15.27809 7.5135,-24.99534 11.5214,-5.20688 76.3219,-5.91484 11.4415,-9.36326 26.2057,-28.43234 19.9026,-11.64698 34.587,-28.24964 10.9961,-11.21307 14.239,-47.67269 -24.8012,-33.36517 -41.3925,-28.14687 z"
     id="path940"
     style="fill:#000000;fill-opacity:1;stroke:#000000;stroke-width:1.11902" />
</svg>
