<?xml version="1.0" encoding="UTF-8" standalone="no"?>
<svg
   xmlns:dc="http://purl.org/dc/elements/1.1/"
   xmlns:cc="http://creativecommons.org/ns#"
   xmlns:rdf="http://www.w3.org/1999/02/22-rdf-syntax-ns#"
   xmlns:svg="http://www.w3.org/2000/svg"
   xmlns="http://www.w3.org/2000/svg"
   xmlns:sodipodi="http://sodipodi.sourceforge.net/DTD/sodipodi-0.dtd"
   xmlns:inkscape="http://www.inkscape.org/namespaces/inkscape"
   version="1.0"
   width="1360"
   height="1360"
   viewBox="0 0 1020 1020"
   preserveAspectRatio="xMidYMid meet"
   id="svg74"
   sodipodi:docname="Banks_Island.svg"
   inkscape:version="1.0.1 (3bc2e813f5, 2020-09-07)">
  <defs
     id="defs78" />
  <sodipodi:namedview
     pagecolor="#ffffff"
     bordercolor="#666666"
     borderopacity="1"
     objecttolerance="10"
     gridtolerance="10"
     guidetolerance="10"
     inkscape:pageopacity="0"
     inkscape:pageshadow="2"
     inkscape:window-width="1920"
     inkscape:window-height="974"
     id="namedview76"
     showgrid="false"
     inkscape:zoom="0.35872474"
     inkscape:cx="126.55538"
     inkscape:cy="422.07579"
     inkscape:window-x="-11"
     inkscape:window-y="-11"
     inkscape:window-maximized="1"
     inkscape:current-layer="g72"
     inkscape:document-rotation="0"
     scale-x="0.75"
     units="px" />
  <metadata
     id="metadata2">
Created by potrace 1.10, written by Peter Selinger 2001-2011
<rdf:RDF>
  <cc:Work
     rdf:about="">
    <dc:format>image/svg+xml</dc:format>
    <dc:type
       rdf:resource="http://purl.org/dc/dcmitype/StillImage" />
    <dc:title></dc:title>
  </cc:Work>
</rdf:RDF>
</metadata>
  <g
     transform="matrix(0.1,0,0,-0.1,0,1024)"
     fill="#000000"
     stroke="none"
     id="g72">
    <path
       d="m 9660.0493,6943.6601 -8.5106,46.9371 -19.729,53.9002 -37.137,76.9818 -82.1397,109.0899 -33.1396,69.6319 -31.2054,27.5948 -13.2817,21.6632 -22.05,67.5687 -7.9948,16.3764 -23.5975,23.4685 -76.7239,20.2448 -162.2164,144.55 -46.1633,110.1215 -177.8191,188.1349 -54.8029,107.4136 -71.9529,24.1132 -29.1422,51.7081 -20.5027,49.387 -207.606,290.9064 -207.6061,292.5829 -237.264,228.882 -237.393,229.914 -280.5905,76.724 -280.4616,76.724 -291.0353,-76.079 -46.6791,-31.205 -85.4924,-16.119 -60.0897,-47.195 -86.3951,-20.116 -57.8976,-64.345 -39.8449,-15.731 -18.3106,-17.021 -14.3132,-21.793 -5.9316,-14.571 1.1606,-17.924 6.8342,-32.108 22.308,-47.452 27.7238,-26.306 17.6658,-37.91 -8.2526,-82.785 -14.7001,-36.105 -33.6554,-17.279 -14.3132,-22.695 -26.6922,-75.6925 -16.3764,-60.2187 -21.1474,-51.5791 -9.929,-17.1501 -16.5053,-15.2158 -11.9922,5.8026 -24.5001,30.5607 -38.1685,-0.7737 -68.0845,-73.2424 -35.8475,-9.6711 3.7395,39.3291 6.3184,30.5607 7.35,27.8527 6.1895,30.8185 11.0896,83.3003 8.2526,25.2738 15.9896,20.374 30.9474,21.663 13.7975,29.916 2.45,56.092 -8.8974,36.621 -15.8606,16.248 -34.1712,11.605 29.4001,73.629 2.3211,38.814 -8.1237,62.539 -14.958,56.48 -17.0211,22.823 -80.2056,57.898 -118.3741,-31.077 -59.8318,27.208 -31.4633,0.258 -23.8553,-38.297 -29.5291,-99.935 -32.3659,-86.266 -36.3633,-66.408 -87.4266,-76.853 -21.1475,-39.974 -8.8974,-63.313 5.6737,-33.1397 10.7027,-30.3028 6.9632,-33.3975 -5.6737,-41.7791 -24.6291,6.9632 -25.9185,24.6291 -23.0816,38.2975 -10.058,48.3554 3.6106,64.9899 9.9289,40.747 114.8926,194.067 32.3659,93.487 -12.7658,94.519 28.8843,20.76 64.8607,-23.339 30.6896,22.179 -40.8764,24.758 -253.8984,-7.737 -70.5344,84.848 -34.3002,22.823 -151.7716,27.595 -336.167,230.946 -336.1671,232.106 -29.4001,-6.576 -7.6079,6.576 -3.3526,68.085 -2.45,19.857 -23.5975,62.927 -104.3188,127.787 -67.8266,7.737 -39.9738,58.027 -17.408,8.123 -131.5268,-8.123 -130.6241,82.913 -177.3033,-41.005 -285.7485,-150.74 -242.4219,-59.058 -195.0981,-49.258 -313.6012,-34.558 -274.1431,-9.543 -150.2243,-73.887 -177.948,-1.547 -40.7475,-44.874 -307.7985,-25.661 -15.3448,-17.408 1.6763,-51.321 -16.1185,-20.116 -94.9056,22.05 -154.4795,-31.979 -235.9746,-69.116 -62.6686,-10.058 -27.208,-45.905 30.9474,-57.253 89.232,27.595 39.0712,-35.976 -60.0897,-76.853 -18.5685,-44.358 25.5316,-31.206 71.3082,15.603 31.3343,-18.182 21.1475,-84.461 -0.9027,-34.429 -6.7052,-16.247 -1.2895,-15.732 15.0869,-33.268 9.1553,-27.208 3.2237,-32.366 2.45,-34.945 6.4474,-35.074 10.8316,-23.211 12.1211,-14.442 11.4763,-19.987 8.8974,-39.716 3.8685,-50.418 -3.9974,-28.498 -11.2185,-10.831 -17.5369,3.739 8.3816,-48.097 9.2843,-40.232 -11.8632,-19.342 17.4079,-29.2714 36.3633,-37.3949 17.0211,-42.6817 -4.6421,-27.208 28.8843,-71.695 11.7343,-49.2581 -15.2158,-12.25 4.2552,-13.4106 41.3923,-27.9817 23.8553,-27.8527 10.5738,-5.6737 5.2868,-9.8 11.7343,-47.4529 6.8342,-18.4395 26.5633,-44.1002 9.6711,-8.3816 -19.3422,-61.766 -4.3842,-40.4896 10.1868,-34.9449 24.2422,-45.3896 34.4291,-42.166 226.8193,-38.1685 34.6869,-36.2344 17.408,-39.9738 26.0475,-103.0293 16.1185,-47.3239 -47.8397,-66.666 -16.7632,-44.2292 17.4079,-38.4264 -11.2184,-49.6444 -21.1475,-12.1211 -44.2291,-1.4184 -83.1713,-85.6214 -37.0081,-21.5343 -15.3448,-27.8527 -6.7053,-53.5134 3.9974,-37.137 9.929,-37.008 11.7343,-31.5922 9.8,-19.7291 -6.7053,-22.5658 -18.8264,-27.208 -3.9974,-23.3396 5.5448,-79.4319 0.3868,-14.4421 -19.0842,-39.716 -54.0292,-22.3079 -15.8606,-43.8423 h 11.7343 l -20.6317,-63.8292 -84.074,1.2895 -31.4632,-20.2448 19.9869,-29.4001 -12.6369,-23.7264 -88.7161,-68.2135 -21.7922,-27.8527 -9.4132,-27.9817 6.9632,-38.1685 27.3369,-50.2897 1.5474,-46.4212 -12.1211,-32.6238 -44.487,-32.237 -17.279,-27.9817 -44.616,-135.3952 -28.6264,-143.1321 -10.1869,-20.7606 -10.8316,-17.408 -44.7449,-105.2214 -6.9632,-12.1211 -6.5763,-5.029 -4.3843,-11.7343 -0.7737,-32.4948 3.4816,-13.4106 7.3501,-12.1211 7.8658,-9.2842 5.4158,-3.8685 -19.4711,-45.7765 -104.3188,-37.6527 -7.8659,-13.9264 -7.8658,-21.1474 -6.0605,-26.8212 -2.45,-30.4317 -5.029,-13.2816 -24.629,-32.237 -8.8974,-15.4737 -4.7711,-43.9712 12.7658,-35.4607 82.9135,-136.2979 24.5001,-25.7895 23.9843,8.1237 -5.029,8.6395 -12.6369,33.5264 h 82.6556 l -11.8632,-20.1158 14.5711,-38.4265 22.308,-32.3659 23.8553,-21.9211 19.4712,-8.2527 24.7579,3.6105 13.4106,-5.6737 6.0606,-19.9869 -3.8685,-11.2185 -18.8264,-31.979 -6.8342,-17.279 41.3923,-50.2897 2.8368,-19.858 -12.379,-23.3395 -29.7869,-7.0922 -43.9712,-42.4238 -113.6031,-59.7029 -60.3476,22.0501 -150.6111,-112.5714 -21.7922,20.5027 -12.6369,17.4079 -37.5238,5.8027 -29.0132,35.7185 -13.9264,-13.1526 -13.0237,-23.3396 -11.9922,-12.379 -4.2553,-11.8632 9.0264,-26.4343 21.6632,-41.6502 38.2975,-22.6948 9.4132,-17.279 4.1264,-27.208 1.0315,-57.5107 3.4816,-25.0159 9.0264,-25.6606 18.0527,-31.3344 8.2526,-22.6948 2.45,-48.0975 -13.4105,-41.7791 -17.408,-39.3291 -9.6711,-41.5212 52.095,17.15 12.7658,-17.15 -15.0869,-59.3161 -9.2843,-23.5974 -10.9605,-16.2474 -16.5053,-0.6448 -18.0527,11.6053 -15.6027,1.0316 -9.4132,-31.8501 6.3184,-2.8369 11.6053,-13.0237 6.1895,-3.8684 -9.6711,-35.4607 -17.6658,-8.3816 -20.2448,-1.4184 -17.279,-14.1843 26.5632,-49.1291 28.6264,-22.9527 62.7976,-6.5764 -7.9947,-42.6817 19.8579,-66.6661 -17.7948,-10.8316 -51.7081,6.8343 -24.1132,-7.608 -99.1609,-136.6847 -38.8133,-37.5238 -33.5264,-13.4106 -34.5581,-32.6238 -10.4447,-29.0132 2.1921,-44.4871 -38.94229,-41.7791 -7.9947,-28.6264 17.53689,-46.8081 -62.92659,-2.5789 -19.6001,-17.0211 9.6711,-16.5053 21.0185,-9.5422 10.5738,-13.0237 -22.308,-79.4319 -7.2211,-19.9869 -12.7658,-17.9238 -28.4975,-23.5974 -12.8948,-16.6343 -18.1816,-39.458 -10.3159,-28.4975 -6.9632,-29.1422 -3.3526,-40.4896 3.9974,-17.537 9.1553,4.3843 11.4763,25.2737 14.1843,21.5343 5.5448,-28.1106 -1.5474,-41.908 -6.7053,-21.9212 -10.1869,-8.5105 -39.9738,-58.5424 -20.8896,-15.6026 -67.5686,24.5 -7.9948,-9.2842 -9.1553,-47.1949 -7.2211,-19.2132 6.7053,-38.0397 4.6421,-12.7658 7.3501,-8.7685 0.7736,-44.7449 23.0817,-23.3395 52.3528,-7.479 v -20.8895 l -47.5817,5.0289 -56.7371,-24.8869 -53.5133,-58.4134 -37.266,-95.0346 38.5554,4.5132 15.8606,-15.8606 10.3159,-46.1633 0.7736,-38.8133 -4.3842,-31.2054 -5.4158,-27.4659 -9.4132,-95.0345 -16.3764,-58.6713 -21.1474,-46.4212 -20.1159,-30.6896 -59.8318,-34.1712 75.3056,-41.5212 193.2928,68.7292 254.67199,19.6001 229.1403,-5.029 41.2633,-34.558 12.6369,-25.4027 3.4816,-21.2764 -6.8342,-14.829 -17.0211,-5.158 -12.2501,7.7369 -25.7896,37.7817 -13.5395,11.6053 -195.0981,-20.8895 18.1817,-40.1028 227.8508,-141.3268 82.3977,-96.9688 182.7191,-141.3269 257.8957,-143.9058 258.0246,-143.6479 107.9294,-129.4636 90.2635,-222.1771 14.4421,-55.5766 8.7685,-25.2737 8.8974,-10.7027 54.8028,-31.2054 13.7975,-16.2474 42.5527,-71.9529 39.4581,-88.5872 57.7686,-173.82173 104.5767,-403.4778 71.9529,-176.4007 83.8161,-140.1663 91.1662,-100.063499 43.0685,-22.179 261.1194,8.5105 38.4265,31.9791 22.179,38.039599 26.4343,66.9239 21.5343,27.7238 36.7502,68.0845 196.7744,136.9426 70.6634,20.8895 75.0477,51.8371 66.537,21.6632 28.6265,25.9185 53.7712,74.4029 69.374,130.6242 42.5527,36.8791 66.1503,127.6584 100.8372,139.77943 32.108,24.1133 42.037,4.5132 41.9081,-14.4422 31.7211,-32.7527 24.887,-58.92923 -6.3185,-28.8843 -54.287,-50.2897 159.7664,-57.1239 188.0059,83.3003 184.0086,48.0976 197.2902,120.69523 111.411,49.387 103.4162,141.0689 80.2055,250.6746 14.3132,78.0135 15.7317,52.4818 4.6421,25.6606 -0.7737,26.8211 -7.0921,32.6238 -18.1817,61.7661 -7.7369,37.1369 1.4185,41.7791 9.5421,75.9503 1.8053,54.9318 0.1289,76.4661 2.8369,68.0845 10.1869,29.4001 2.9658,21.7922 -19.3422,49.1291 -40.4896,80.8503 20.2448,98.3872 33.9133,56.2213 39.3291,40.7475 36.879,52.3528 94.003,188.6507 25.0159,81.2371 9.1553,40.6186 4.6421,32.6238 -1.6763,32.3659 -16.6343,75.4345 -3.3526,36.7502 -4.9,37.008 -11.3474,35.9764 -40.3607,38.5555 -15.4738,31.7211 5.6737,53.6423 21.6633,29.658 32.4948,7.7369 32.8817,-8.5106 22.5659,-19.0842 -10.0579,-28.3686 -49.387,-28.1106 17.7948,-24.5001 172.7901,-31.0764 42.5528,16.3764 21.5343,0.5158 61.766,-22.0501 21.4053,1.0316 28.3685,17.9237 105.2215,125.5952 185.1691,125.8531 43.3265,50.2897 39.9738,31.0764 9.8,14.3132 13.5396,26.4343 7.2211,25.6606 -9.5422,11.4764 -11.8632,29.658 2.579,67.6976 9.5421,73.7582 8.7685,47.066 15.8605,33.1396 20.8896,30.5606 14.3132,37.3949 -3.8684,53.7712 13.9263,29.9159 35.4607,44.487 10.1869,23.9843 1.5474,39.8449 -8.5106,76.8529 3.7395,32.4949 6.8342,37.5238 4.2553,42.166 7.6079,34.558 16.6343,14.0553 18.5685,6.7053 188.1349,149.8374 118.761,147.6453 43.4554,26.9501 124.9505,7.35 44.1001,18.8264 30.1738,50.5476 22.179,59.0581 26.1765,38.5554 166.7295,143.6479 169.1796,83.0424 46.2923,55.9634 99.9346,72.5976 96.5819,124.1768 65.5055,27.7238 254.9299,219.8561 150.9979,31.4632 13.4106,10.1869 45.5186,71.0503 141.7137,78.0134 65.7634,65.8924 47.7107,73.7581 54.416,21.1475 17.408,15.2158 48.3554,67.3108 181.1717,109.8636 37.9107,69.3739 207.8639,70.5345 206.1877,120.8241 195.227,98.3872 140.6821,141.1979 29.0133,45.5186 17.4079,16.7632 68.7292,15.3448 6.5764,13.4106 28.7553,79.6898 13.4106,22.4369 44.616,26.0475 16.2474,3.4816 8.8974,9.0263 1.2895,23.0817 z"
       id="path882"
       style="fill:#000000;stroke:#000000;stroke-width:12.6369;fill-opacity:1" />
  </g>
</svg>
