<?xml version="1.0" encoding="UTF-8" standalone="no"?>
<svg
   xmlns:dc="http://purl.org/dc/elements/1.1/"
   xmlns:cc="http://creativecommons.org/ns#"
   xmlns:rdf="http://www.w3.org/1999/02/22-rdf-syntax-ns#"
   xmlns:svg="http://www.w3.org/2000/svg"
   xmlns="http://www.w3.org/2000/svg"
   xmlns:sodipodi="http://sodipodi.sourceforge.net/DTD/sodipodi-0.dtd"
   xmlns:inkscape="http://www.inkscape.org/namespaces/inkscape"
   version="1.0"
   width="1024.000000pt"
   height="1024.000000pt"
   viewBox="0 0 1024.000000 1024.000000"
   preserveAspectRatio="xMidYMid meet"
   id="svg30"
   sodipodi:docname="Borneo.svg"
   inkscape:version="1.0.1 (3bc2e813f5, 2020-09-07)">
  <defs
     id="defs34" />
  <sodipodi:namedview
     pagecolor="#ffffff"
     bordercolor="#666666"
     borderopacity="1"
     objecttolerance="10"
     gridtolerance="10"
     guidetolerance="10"
     inkscape:pageopacity="0"
     inkscape:pageshadow="2"
     inkscape:window-width="1920"
     inkscape:window-height="974"
     id="namedview32"
     showgrid="false"
     inkscape:zoom="0.39093281"
     inkscape:cx="346.58383"
     inkscape:cy="817.09164"
     inkscape:window-x="-11"
     inkscape:window-y="-11"
     inkscape:window-maximized="1"
     inkscape:current-layer="svg30" />
  <metadata
     id="metadata2">
Created by potrace 1.10, written by Peter Selinger 2001-2011
<rdf:RDF>
  <cc:Work
     rdf:about="">
    <dc:format>image/svg+xml</dc:format>
    <dc:type
       rdf:resource="http://purl.org/dc/dcmitype/StillImage" />
  </cc:Work>
</rdf:RDF>
</metadata>
  <path
     d="m 830.05399,263.19599 3.7523,-1.50865 0.7865,-0.11605 0.9155,0.0903 -0.6318,-0.74788 -1.586,-1.54733 -0.3482,-0.4771 0.2837,-0.74788 0.5416,-0.63182 0.4513,-0.78656 0.606,-0.59315 1.8955,-1.27655 0.7737,-0.85103 0.4255,-1.03156 -0.1418,-1.1605 -1.3797,-1.27655 -0.3353,-0.96708 v -3.76518 l -0.4126,-0.97998 -1.7408,-1.04445 -0.3481,-0.78656 0.7994,-1.00576 1.7795,-1.54734 1.9857,-1.28944 1.3797,-0.15474 1.4442,1.71497 0.8252,1.75364 1.0316,1.6247 1.9986,1.37971 0.8124,0.27078 2.2823,0.41262 2.8368,1.12182 1.2249,0.11605 0.3482,0.38683 0.6189,1.70207 0.3353,0.39973 0.7865,0.14183 0.7608,0.34815 1.2766,0.74788 3.5073,3.23651 1.1089,0.47709 1.5086,0.2321 5.5962,1.6376 1.9858,-0.0516 12.0434,-6.08618 2.1533,-0.6834 7.3886,-0.68341 8.2137,-2.29521 0.6963,-0.4642 1.1992,-1.58602 1.4184,0.99287 2.0889,0.38684 3.9328,-0.0774 1.7408,-0.28368 2.927,-0.83814 1.5344,-0.18052 3.5718,0.14184 1.2765,-0.32236 1.4055,-1.00577 0.9542,-0.90261 0.9026,-1.1605 0.4256,-1.36681 -0.4771,-1.52154 1.4055,0.32236 0.9026,0.43841 0.7865,0.12894 0.9929,-0.60604 0.7866,-0.97997 -0.052,-0.65762 -3.5976,-3.89412 -1.0573,-1.70207 0.5029,-1.23787 -1.109,-0.42551 -2.192,-0.30947 -1.0316,-0.50288 -2.5917,1.92127 -1.6763,0.83814 -0.7608,-0.52867 -0.5545,-0.74788 -1.1089,-0.86393 -0.7994,-1.01866 0.3481,-1.14761 1.0058,-1.17339 0.4771,-1.12182 -0.1934,-1.13471 -0.9671,-1.22497 -1.3024,-0.81235 -1.6247,-0.45131 -1.2507,0.33526 -0.2192,1.54733 -1.5732,-0.65761 -0.6447,-0.39973 -0.5673,-0.48999 -0.4127,-0.64472 -0.722,-1.66339 -0.4256,-0.54156 -0.7092,-0.28368 -1.9083,-0.25789 -0.8253,-0.0258 -0.8381,-0.24499 -0.7479,-0.56736 -1.1734,-1.09603 -3.1591,-2.29521 -2.8239,-2.60467 -2.5015,-2.95283 -2.1792,-3.32677 -1.0058,-2.63047 -0.5415,-0.79945 -0.5932,-0.52867 -2.3339,-1.52155 -0.606,-0.19341 -0.3739,-0.38684 -0.129,-1.09603 0.2708,-0.96708 0.6705,-0.72209 1.5344,-1.13471 5.1062,-5.72513 3.2494,-1.93417 3.5073,0.83814 -0.1418,-1.18629 0.1805,-0.9155 0.4513,-0.32237 0.735,0.51578 2.811,-2.38547 1.9471,-1.23787 0.8768,0.25789 0.851,-0.47709 1.8955,0.58025 2.8497,1.45707 3.1075,3.63623 1.6505,2.7852 0.5029,0.67051 1.1863,0.83814 0.8768,0.0387 1.9729,-1.21208 2.682,-2.1018 1.096,-0.37393 1.1476,-0.0258 1.8955,0.55446 2.6047,0.39973 2.8497,1.21207 1.4184,0.33526 1.9083,-0.20631 2.2566,-0.65762 2.1276,-0.9284 3.2622,-1.99864 16.9562,-4.89989 16.6081,-6.00881 3.5975,-2.05021 4.4099,-4.78384 2.0889,-1.79233 0.2063,-2.28234 -0.4513,-4.22937 0.1806,-1.54734 0.8639,-3.0173 0.1934,-1.97285 -0.3481,-1.49575 -0.8382,-1.18629 -1.9599,-1.94706 -2.1663,-2.92704 -1.341,-1.4055 -1.4055,-0.67051 -2.321,0.33526 -7.092,3.37834 -2.7336,-0.10315 -4.3067,-2.25653 -2.2179,-0.0645 -1.1734,0.74788 0.2192,0.78656 0.5416,0.95419 -0.2579,1.22497 -1.0831,0.65761 -1.4829,-0.012 -1.4184,-0.50288 -0.9928,-0.81235 1.6118,-0.88972 -0.3353,-1.92127 -1.5344,-1.90838 -1.8955,-0.86393 -1.6763,-0.48999 -4.2809,-3.2365 0.026,0.9284 -0.1547,0.60604 -0.3739,0.4513 -0.6834,0.50289 -0.5803,-2.20495 -1.1734,-1.79233 -1.7923,-1.19919 -2.3984,-0.4513 -1.5731,-0.68341 -1.7536,-1.63759 -4.281,-5.19646 -1.7407,-1.22497 -1.9987,-0.012 -2.3597,1.6247 -0.3739,0.97998 0.1418,2.42415 -0.4126,0.91551 -0.6963,0.77367 -0.5545,1.03155 -0.9026,2.30811 h -0.6189 l -0.606,-1.90838 0.2965,-1.92127 0.6061,-1.94706 0.8768,-5.15778 0.2966,-0.33526 0.6318,-0.33525 0.6705,-0.51578 0.3224,-0.90261 -0.5029,-1.1605 -1.341,-0.87682 -1.5861,-0.73499 -1.2507,-0.76077 -3.1849,-2.60468 -9.2969,-5.38987 -1.8053,-0.43842 -0.5673,-0.27078 -0.8382,-0.54157 -0.9155,-0.36104 -0.7736,0.28368 -1.0058,1.12181 -0.4513,0.37394 -0.4513,-0.14184 -4.7323,-2.48862 -1.947,-0.42552 -3.7523,1.66338 -4.0618,0.39973 -1.4055,1.07024 -0.1289,0.96708 0.7221,1.67628 -0.245,0.73498 -0.5803,0.65762 -0.3997,0.61893 -0.606,1.59892 0.4126,0.95418 -0.012,0.81235 -0.7092,1.00577 -0.8768,0.39973 -0.6706,-0.34815 -0.9284,-1.32813 -0.9026,-0.39973 -0.9413,0.18053 -0.8768,0.37393 -0.6963,0.15474 -0.8381,-0.29657 -0.6319,-0.78657 -0.722,-0.15473 -1.5345,0.36105 -3.6233,1.67627 -1.3926,0.43841 -1.096,0.2321 -0.5287,0.20632 -0.4126,-0.0774 -0.7479,-0.63183 -2.7207,-7.05326 -0.3998,-0.68341 -0.8381,-0.48998 0.1805,-1.10893 0.98,-1.10892 1.5215,-0.50288 5.6349,0.50288 1.5344,-0.50288 1.6892,0.61893 2.1276,-0.11605 2.0115,-0.58025 1.3539,-0.79945 2.6563,-3.61045 -0.052,-0.58025 -0.5029,-0.4642 -3.8038,-5.1062 -0.4642,-2.10179 0.1418,-1.869698 -0.245,-1.09603 -1.5602,-0.81235 -0.1161,-0.81235 0.064,-1.00576 -0.2063,-0.88972 -3.0947,-3.15914 -1.2894,-0.33525 -0.6576,0.25789 -0.374,0.4513 -1.6118,0.82525 -2.9528,3.81675 -2.4628,1.75365 -1.2637,1.13471 -0.5673,1.1476 -0.8898,0.606038 -4.3067,0.82525 -1.6118,0.11605 -1.3152,-0.20632 -1.0703,-0.32236 -0.9413,-0.0516 -0.9671,0.58025 0.7866,2.25652 -0.5545,1.03156 -1.5989,0.18052 -4.5001,-0.50288 -6.0862,0.76077 -6.4343,0.0258 -2.321,0.59314 -5.1965,2.24364 -1.6118,0.28367 2.1792,-2.37257 11.5276,-3.88123 3.172,-1.934168 1.3024,-1.26365 0.5415,-1.48286 -0.5931,-2.21785 -1.2895,-0.58025 -1.2894,-0.33525 -0.606,-1.49576 0.2578,-1.09603 0.6706,-0.38683 0.851,-0.28368 0.7479,-0.76077 0.3997,-1.10892 -0.026,-0.74788 -0.2321,-0.6963 -0.1418,-0.88972 -0.2966,-0.51578 -1.3152,-0.56735 -1.47,-3.53306 -1.96,-2.30811 -0.4771,-1.45707 0.7995,-1.54733 2.6434,-2.3339 1.6376,-1.10892 1.6891,-0.56736 3.0173,0.55447 1.3539,-0.15474 0.5932,-1.35391 0.8381,-6.00882 -0.9284,-2.42415 0.4127,-0.83814 0.6318,-0.81235 0.3481,-0.85103 -0.1676,-0.61894 -0.8381,-1.58601 -0.2966,-0.83814 -0.1161,-1.03156 v -0.81235 l -0.1031,-0.6834 -0.4126,-0.64473 -0.5674,-0.42551 -0.5029,-0.0774 -0.4513,0.34815 -0.3352,0.78656 h -0.619 l -0.9026,-1.97285 -0.9671,-1.44418 -2.192,-2.51441 -0.8768,-0.4642 -0.98,0.16763 -1.2637,0.63182 -1.1734,-0.16762 -0.8897,-0.43842 -1.3539,-1.25076 -0.3739,-0.15473 -1.1605,-0.29657 -0.3353,-0.16763 -0.064,-0.41262 0.1032,-0.59315 0.2321,-0.41262 0.361,0.12895 -2.1147,-2.11469 -0.3739,-0.0645 -0.064,-2.48862 -0.2965,-1.3926 h -0.7479 l -1.4184,1.71496 -2.1792,3.61044 -0.9928,0.99287 -1.4958,0.36105 -1.47,-0.50288 -1.586,-1.13472 -2.2565,-2.0889 -1.9858,-2.26942 -1.212,-1.05734 -1.4055,-0.45131 -3.6749,0.11605 -1.1734,-0.6834 -1.0445,-1.90838 -0.3739,-1.46997 -0.245,-5.64776 -0.5158,-1.6376 -3.26229,-4.26806 -0.52868,-1.53444 -0.16762,-1.8568 0.39972,-1.58602 1.25076,-0.67051 0.39973,-0.90261 0.58028,-4.37121 -0.077,-1.54734 -0.37393,-0.70919 -0.51578,-0.43841 -4.69358,-2.83678 -0.30947,-0.36105 -0.74787,-0.19341 -2.30811,-0.97998 -0.70919,-0.39973 -0.58025,-0.0645 -1.37971,1.18629 -0.79945,0.4513 -0.6963,-0.14183 -1.03156,-0.38684 -1.08313,-0.28368 -0.95419,0.19342 -0.36105,0.63183 -0.18052,1.03155 0.18052,0.95419 0.6963,0.42552 0.34815,0.29657 -0.24499,0.67051 -0.59314,0.64473 -0.77367,0.30946 -1.12182,-0.2192 -0.83814,-0.30947 -0.73498,0.10316 -0.72209,1.04445 -0.11605,1.92127 2.03732,3.97149 0.55446,1.88259 -0.48998,1.34102 -3.28809,3.35255 -1.23786,2.47574 -0.63183,0.50288 -0.60604,0.18052 -0.43841,0.37394 -0.36105,3.14625 -0.58025,1.12181 -2.96572,2.11469 -4.03596,3.88123 -1.25076,0.51578 -0.90261,0.72209 -1.09603,1.6247 -1.40549,1.67627 -1.90838,0.9413 -3.68781,-0.90261 -0.48999,-3.17204 1.28944,-3.91991 1.6376,-3.17203 3.0173,-4.33253 0.96708,-2.38548 0.36104,-3.57176 -0.56735,-1.88259 -1.28945,-0.79945 -1.44417,-0.50289 -1.04445,-0.90261 0.0387,-0.54156 0.58025,-2.83678 0.45131,-0.37394 0.97997,0.29657 1.67628,0.96709 -1.23787,-6.53749 -0.55446,-1.01866 -3.73939,-2.42415 -0.94129,-2.06312 -0.28368,-0.36104 -1.04445,0.15473 -0.99287,0.56736 -0.77367,0.76077 -0.50288,1.09603 -0.96708,1.45707 -0.38684,0.30947 -0.64472,0.32236 -0.2192,0.78656 -0.10316,1.99864 -0.87682,3.58465 -0.74788,1.41839 -2.57889,1.19919 -0.30947,1.53444 0.15474,3.4815 -0.37394,0.9284 -1.10892,1.50865 -0.37394,0.72208 -0.15474,0.9284 0.15474,3.08178 -0.18052,2.3081 -0.54157,1.61181 -0.95419,1.26365 -1.36681,1.28945 -5.63487,7.51746 -1.59891,1.22497 -1.19919,0.55446 -0.6834,1.37971 -0.30947,1.72785 -0.0138,0.2321 -0.0516,1.4055 -0.52867,1.94706 -1.35392,0.99287 -1.71496,0.77367 -1.6376,1.25076 -1.36681,1.36681 -8.05903,6.11197 -0.85103,0.97997 -0.4642,0.74788 -0.24499,0.58025 -0.78656,2.90125 0.012,0.50289 -0.18052,0.30946 -0.86393,0.54157 -1.81812,-0.10316 -0.67051,0.10316 -0.37394,0.30947 -1.41839,1.56022 -2.48862,1.28945 v 0.56735 l 2.3081,-0.27078 1.74075,-0.83814 1.10892,0.25789 0.37394,3.0173 -0.48999,0.90261 -1.13471,-0.20631 -1.36681,-0.63183 -1.07024,-0.37394 -1.53444,0.2321 -1.1476,0.56736 -1.93417,1.74075 -4.30674,6.42143 -1.59891,1.03154 -2.75941,0.86393 -0.91551,1.70207 0.70919,1.18628 2.03733,-0.70919 1.41839,2.66915 -1.27655,3.93281 -5.5704,9.013208 -0.55447,1.75365 -0.27078,4.20359 -0.59314,2.076 -1.41839,1.57312 -8.17508,4.55174 -1.32813,1.07024 -0.96708,1.48286 -0.54157,1.75365 -0.6834,3.98438 -1.12182,3.66202 -1.80522,3.99728 -2.3339,3.57176 -2.81099,2.42416 -2.39836,0.76077 -2.63047,0.16763 -8.02034,-0.56736 -1.88259,-0.85103 -3.10756,-2.66915 -0.42552,0.97998 -0.39973,2.47573 -0.47709,0.94129 -1.8568,-2.61757 3.13335,-5.85408 -1.27655,-2.076 -1.77944,1.77943 -3.18492,6.89853 -6.42144,4.59042 -1.01866,1.36681 -1.08313,1.84391 -4.73226,2.7723 -1.05735,0.96709 -0.29657,0.6834 -0.64472,0.95419 -0.64472,1.19918 -0.59315,2.96573 -0.54156,1.40549 -0.28368,1.28945 0.51578,1.12181 1.76654,-1.54733 0.39972,-0.20631 0.96709,0.2192 0.0645,0.58025 -0.20631,0.77367 0.2192,0.85103 8.09771,7.00169 3.09467,1.28944 3.36545,0.0774 3.44282,-1.59891 0.59314,1.21207 -0.36104,0.68343 -0.78656,0.54156 -0.76078,0.77367 -0.97997,1.8568 -0.19342,0.87682 -0.12895,3.30098 -0.63182,3.68781 -0.54157,1.44418 -0.85103,1.04445 -1.44418,1.01866 -1.75365,0.78656 -1.8439,0.30947 -1.12182,0.59314 -2.91414,3.70071 -3.62334,3.17203 -0.39973,0.54157 -3.0173,3.04309 -1.07024,0.73498 -1.46996,0.27078 -1.88259,-0.0258 -1.59891,-0.55446 -0.97998,-1.77943 -0.7092,-0.48999 -0.9155,-0.37394 -0.87682,-0.15473 -1.97285,0.14184 -0.4771,-0.16763 -0.28368,-0.64472 -1.01866,-1.26366 -1.25076,-0.12894 -1.05734,0.81235 -0.86393,3.03019 -1.01866,0.67051 -1.3926,0.18053 -1.52155,-0.0387 h -0.0258 l -1.03156,-0.0387 -0.85103,0.11605 -0.59315,0.34815 -0.19341,0.6963 0.52867,1.52154 0.77366,1.41839 -0.0516,1.07024 -1.97285,0.41262 -2.03733,1.07024 -1.79231,2.01154 -1.66338,1.05734 -1.66338,-1.70207 -0.0258,-0.0258 -0.54157,-3.28808 -0.0774,-3.52018 -0.63182,-1.8697 -0.52868,0.83814 -0.72208,0.64472 -0.86393,0.52868 -0.97998,0.47709 0.91551,-1.44418 2.82388,-2.61757 0.60604,-1.25076 0.27078,-1.08313 1.50865,-3.61045 0.74788,-1.22497 2.84965,-1.26366 1.31524,-0.94129 -0.12895,-1.17339 -1.71496,-0.67052 -2.2823,0.28368 -11.74684,4.86121 -15.29281,9.24531 -3.40413,2.06312 -10.98607,8.72953 -3.27519,3.32677 -1.40549,2.63047 -1.90838,1.88259 -3.15914,1.13471 -8.97453,3.22361 -6.2796,3.53308 -6.80826,1.28944 -22.9779,-0.76077 -2.0889,0.58025 -0.58025,1.46997 2.03732,8.54901 0.0258,4.30675 -0.9284,3.84254 -1.93417,3.0173 0.64472,3.57176 -1.90837,4.39701 -19.07089,24.77023 -22.02371,18.9806 -3.75228,2.14048 -1.71496,1.41839 -0.74788,1.68917 -0.27078,2.11469 -0.74788,2.05021 -2.12758,3.67492 -4.34543,4.887 -0.61894,0.96708 -0.47709,0.58025 -2.12758,1.65049 -0.48999,0.9155 -0.14184,1.95996 -0.19342,0.73498 -0.28368,0.7092 -1.66338,2.50152 -7.09194,6.24091 -3.0302,4.78384 -0.37394,0.86393 -0.97997,0.51577 -4.35833,3.82965 -2.39836,1.61181 -0.6963,0.79946 1.18629,2.02442 -1.92128,3.46861 -4.84831,5.17067 -3.04309,1.58602 -15.79569,4.92568 -1.05735,-0.0258 -5.59618,2.19205 -13.86153,2.92704 -25.15706,6.62775 -25.84047,6.82116 -13.88732,0.48999 -17.35592,3.40413 -2.7852,1.35392 -9.91583,6.13775 -6.53748,5.00305 -0.99287,0.99287 -0.60604,1.31523 -0.45131,3.57176 -1.6118,5.5704 -0.0258,2.21785 0.50288,1.40549 0.91551,0.99287 1.1476,0.97998 1.46997,0.90261 3.42992,0.83814 1.97285,0.73498 -0.50288,0.29658 -0.15473,0.0516 -0.12895,-0.12894 -0.48999,-0.21921 -1.80522,1.52155 -2.16627,-0.0903 -2.52731,-0.64472 -2.82388,-0.16763 0.70919,1.34102 1.07024,3.80386 0.76078,1.12182 2.96572,2.73362 1.81811,1.88259 0.74788,1.63759 -1.79233,-1.01866 -1.63759,-1.21208 -0.67051,-0.15473 -3.05598,0.4642 -0.85104,0.27078 -2.84967,1.93417 -0.76077,0.20631 -0.64472,-0.37394 -0.58025,-0.51577 -0.51578,-0.28368 -0.74788,-0.58025 -2.28232,-2.7981 -1.04445,-0.90261 -3.05598,-0.95419 -1.19918,-0.72209 -0.76078,-1.53443 -2.3081,1.81811 -1.12182,2.47574 -0.9155,6.36985 -1.08314,4.26806 -0.15473,1.65049 0.73498,0.72209 1.61181,0.30947 1.71496,0.63182 0.95419,1.71497 -1.83101,-0.36105 -1.80522,0.86393 -1.37971,1.46997 -0.55446,1.44417 0.0645,2.07601 0.4771,0.99287 1.28944,0.16763 6.51169,-0.96708 1.88259,0.30946 2.48863,1.59891 0.9413,0.37394 0.87682,-0.19341 0.73498,-2.25653 0.90261,-0.95419 1.08314,-0.34815 0.85103,0.74788 -0.27078,0.70919 -1.68918,2.34679 -0.59314,0.67051 -1.22497,0.78656 -0.77367,0.15474 -3.30098,-0.65762 -1.80522,-0.64472 -1.61181,-0.12895 -1.26365,1.1605 0.16763,2.17916 2.35968,1.98575 -2.23074,0.18052 -1.80522,-0.59314 -1.10892,-0.16763 -0.48999,0.4513 -0.18052,2.11469 -2.59179,8.40718 -2.86256,5.91855 -2.02443,3.09467 -0.76077,1.67627 -0.29658,1.83102 0.32236,0.74787 1.36682,0.86393 0.15473,0.51578 -0.63183,0.55446 -2.03732,0.50288 -0.43841,0.52868 0.18052,1.35391 0.45131,1.22497 2.10179,3.58466 0.37394,0.43841 0.56735,0.20631 1.6376,0.32236 0.33525,0.33526 0.20632,0.41262 1.04445,1.48286 0.0774,1.09603 0.29657,0.2321 0.59315,-0.0387 1.80522,0.48999 0.79946,-0.0516 0.78656,0.0903 1.6247,1.25076 0.86393,0.39973 1.83101,0.54156 -1.97285,0.54157 -1.52155,-0.78656 -1.26365,-0.88972 -1.1605,0.2321 -2.07601,0.9284 -1.46997,-1.25076 -1.18628,-2.11469 -1.19919,-1.6247 -1.77943,-0.63182 -1.99864,0.0903 -5.23514,0.99287 -0.83814,1.18629 -0.74788,3.32676 -1.22497,3.15914 -0.11605,0.73499 0.11605,2.66915 0.37394,1.10892 1.75364,1.68917 1.63759,4.34543 1.50865,1.25076 4.02307,1.61181 1.6376,1.19918 1.30233,1.35392 1.48287,0.97997 1.71496,0.50289 1.97285,-0.0774 3.28808,-1.49576 1.05734,-0.30946 1.32813,0.12894 2.54021,0.88972 1.43128,0.2192 0.64472,0.56736 0.85104,2.52731 0.39972,0.56736 1.23787,0.24499 2.52731,0.9284 1.50865,0.0774 -3.90701,1.8439 -3.57177,-1.70206 -3.27518,-2.70784 -2.95283,-1.1605 -1.89549,0.59315 -3.0173,1.57312 -2.19205,0.30947 -1.13471,-0.37394 -5.41567,-2.72073 -3.49439,-2.321 -6.91143,-6.92432 -3.90701,-2.5402 -7.74956,-3.17204 -4.20359,-0.58025 -2.42416,1.88259 0.0516,1.4055 0.45131,1.65049 0.11605,1.76654 -0.91551,1.72785 -1.80522,1.56023 -1.67628,0.85103 -1.88259,0.33526 -2.39837,0.0645 v -0.67051 l 3.41703,-2.23074 1.6247,-1.63759 0.52867,-2.26943 -1.13471,-2.16626 -2.321,-1.30234 -5.23514,-1.56023 -3.7265,-2.05022 -1.23786,-0.42551 -1.05735,0.0903 -1.88259,0.95419 -0.82524,0.19341 -1.01866,-0.38683 -0.30947,-0.77367 -0.24499,-0.97997 -0.86393,-1.01867 -1.30234,-0.51577 -1.26365,0.12894 -2.44995,1.00577 0.52867,-1.04445 1.61181,-1.66339 0.34815,-0.70919 0.15473,-1.81812 0.4642,-1.40549 0.79946,-1.26366 1.10892,-1.40549 -1.1605,-1.6247 -1.45707,0.16763 -1.66339,0.9155 -2.72072,0.9284 -1.12182,1.71496 -0.9284,0.37394 -2.01153,-0.11605 -0.79946,-0.18052 -0.65762,-0.25789 -0.60603,-0.34815 -0.4771,-0.41262 -0.41262,-0.51578 -0.30947,-0.64472 -0.0774,-0.58025 0.14183,-1.28945 -0.0645,-0.60603 -0.28368,-0.55447 -0.83813,-1.10892 -0.6963,-2.63046 -1.23787,-0.4642 -1.45707,0.90261 -1.12182,1.99864 -0.12894,0.83813 0.12894,2.88836 0.11605,0.36104 0.43841,0.9284 0.0645,0.56736 -0.2321,0.54157 -0.87682,1.07024 -0.43841,1.58601 -0.61893,-0.19341 -2.17916,-2.39837 -0.52868,-0.33526 -0.52867,0.0903 -0.85103,0.30947 -0.67051,0.37394 -1.3926,1.17339 -0.42552,0.25789 -1.01866,-0.29657 -1.76654,-1.22497 -1.21208,-0.28368 -11.5921,-0.0903 -1.97285,0.24499 -1.37971,0.7092 -1.08313,0.19342 -4.50016,0.0903 -1.27655,-0.28368 -1.10893,-1.45707 -1.52154,-3.15914 -1.09603,-1.54734 -1.54733,-1.1605 -3.70071,-1.56022 -3.22361,-2.12759 -5.59619,-2.37257 -1.8568,-1.35392 -1.66338,-1.68917 -2.68204,-3.77808 -0.81235,-2.02442 0.0645,-1.46997 0.42551,-1.26366 0.32237,-1.45707 -0.12895,-1.77943 -0.90261,-3.70071 -0.20631,-2.01153 -0.41262,-1.54733 -0.0138,-0.0645 -0.9284,0.83814 -2.75941,4.82253 -1.08313,1.22497 -1.26366,0.90261 -1.59891,0.64472 -12.468935,3.15914 -5.91855,0.67051 -1.6247,1.1605 -0.58025,3.13335 0.16763,3.0173 -0.11605,1.61181 -0.61893,1.57312 -1.26366,1.41839 -1.31523,0.9284 -0.97998,1.00576 -0.2192,1.61181 4.34542,-3.37834 0.20631,-0.30947 0.45131,-0.10316 0.43841,0.10316 0.19342,0.30947 -0.0903,0.52867 -0.21921,0.28368 -0.20631,0.18052 -0.10316,0.2321 -0.25788,0.37394 -1.65049,1.77943 -1.59891,2.321 -2.83678,5.35119 -1.76654,2.30811 -14.24836,9.78688 -2.0889,2.42416 -1.10892,3.17203 V 515.413 l -0.58025,2.87546 -1.27655,3.0173 -3.12046,4.07465 -1.41839,2.42415 -0.41262,2.87546 2.39837,-0.77366 4.89989,-0.4771 2.01153,-0.61893 1.46997,-1.13471 0.86392,-0.50289 1.07024,-0.2192 1.05735,-0.48999 0.67051,-1.08313 0.41262,-1.09603 0.34815,-0.48999 1.08313,-0.96708 2.1018,-4.26806 1.18629,-0.96709 1.45707,-0.87682 0.9155,-1.75364 1.19919,-1.4055 2.34679,0.25789 v 0.61893 l -2.0889,1.34103 -1.3926,1.93416 -1.12182,2.1018 -5.19646,6.43432 -1.43128,1.27655 -3.14625,1.98575 -6.84695,2.69494 -3.64913,1.01866 -3.66202,0.34815 -1.79233,0.54157 -0.74787,1.27655 0.24499,2.14047 4.83542,13.16523 0.0516,3.58466 -1.40549,3.80386 -1.04445,1.57312 -1.13471,1.17339 -1.3926,0.73499 -1.76654,0.24499 -1.21208,0.48999 -1.48286,1.12182 -1.30234,1.25076 -0.64472,0.86393 0.0387,1.86969 2.42416,3.09467 0.63183,2.16626 -0.41263,1.8697 -0.6963,0.85103 -0.12894,0.82525 3.75228,4.8741 0.90261,1.8439 0.36105,2.23074 v 3.73939 l -0.27078,1.03156 -1.26366,2.02442 -0.38683,0.99288 0.28367,2.37257 2.29522,3.57176 0.58025,1.80523 -0.0387,2.06311 -0.18052,1.28944 -1.01866,2.59179 -0.9284,3.59755 0.70919,2.28231 2.21785,1.21208 5.72513,0.45131 1.54733,0.30946 1.22498,0.58025 5.05462,3.98439 5.85408,11.88867 0.9284,0.42552 5.42856,4.57753 3.98438,2.70783 1.80522,1.54733 -9.34847,-1.18628 -2.3081,-0.96709 -1.01867,0.012 -0.39972,1.26365 0.0774,2.66915 0.27079,1.30234 1.75364,2.88836 0.65762,2.43705 0.33525,5.00304 -0.19341,3.63623 0.19341,1.03156 0.72209,1.10892 1.83101,1.88259 0.55446,1.41839 h -0.56735 l -1.53444,-1.31523 -2.33389,-0.97998 -2.66915,-0.60604 -2.54021,-0.20631 -2.95283,0.39973 -1.44418,0.39972 -0.90261,0.45131 -0.85103,1.12182 -0.42552,1.52154 0.36105,1.45707 1.53444,0.85104 0.0258,-1.46997 0.82524,-0.41262 1.17339,0.2192 1.08314,0.42552 v 0.56736 l -0.95419,2.11468 1.12182,2.44995 2.97861,4.1649 -2.12758,-0.012 -0.90261,0.11605 -0.18052,0.78656 0.19341,3.64913 1.8697,8.16218 0.61893,1.45707 0.83814,1.1605 1.86969,1.83101 1.04445,0.6963 0.74788,-0.0258 0.6963,-0.28368 0.9284,-0.10316 0.9284,0.0516 0.36105,-0.0258 0.30946,0.11605 0.87682,0.4771 0.29658,0.39972 0.28367,0.63183 0.37394,0.58025 1.36681,0.54157 0.56736,0.55446 0.52867,0.36104 1.37971,-0.56735 6.0346,-0.21921 2.7723,0.32236 2.37258,0.91551 2.12758,1.50865 v 0.56735 h -1.6118 l -3.00441,-0.55446 -1.63759,-0.012 v 0.56735 l 0.39973,0.30947 0.4642,0.59315 0.37393,0.33525 -0.83813,0.52867 -0.39973,0.14184 v 0.63183 l 0.67051,0.33526 1.50865,0.0903 0.96708,0.18052 2.1018,0.82524 1.95995,1.35392 0.82525,0.78656 1.63759,2.321 0.90261,0.32236 2.3339,-0.27078 0.83814,0.25789 0.28367,0.77366 -0.72209,0.55447 -2.0889,0.52867 -0.9155,0.012 -0.60604,-0.20631 -0.55446,-0.24499 -2.42416,-0.56736 -2.81099,-2.06311 -1.3797,-0.65762 -6.29249,-0.0774 -1.49576,-0.85104 -1.70206,-1.50865 -1.45707,-0.15473 -1.04445,0.94129 -0.52868,1.65049 2.54021,14.33863 0.96708,0.86392 3.32677,1.83101 0.72209,0.0774 0.61893,0.45131 3.7265,1.77943 1.32812,0.28368 1.41839,-0.0387 1.13471,-0.70919 0.4642,-1.76654 -0.27078,-0.94129 -0.47709,-0.61894 -0.18053,-0.63182 0.61894,-0.90262 0.67051,-0.32236 0.9284,-0.0903 4.59042,0.55446 3.35256,0.96709 3.107565,1.36681 1.98574,1.54733 1.53444,4.86121 0.60604,0.79945 0.99287,-0.18052 0.64472,-0.28368 0.60604,0.0258 1.6376,1.41839 2.65625,1.48286 2.42416,-2.10179 0.9284,-1.21208 0.36104,-1.94706 0.12895,-1.98575 0.43841,-1.3926 0.95419,-0.88971 2.60467,-0.73499 0.15474,0.30947 -0.48999,1.21208 -0.77367,1.09603 -0.82524,0.77366 -0.67051,0.86393 -0.27079,1.32813 0.20631,1.97285 0.58025,1.22497 1.75365,2.10179 1.3926,2.5531 0.95419,1.28945 2.20495,1.10892 1.18629,2.74652 1.13471,0.97998 2.14048,-0.10316 0.96708,0.10316 2.21784,1.13471 0.55446,0.16762 2.05022,0.28368 1.08313,0.81235 0.20632,1.36681 -1.19919,4.21649 -0.15473,2.51441 0.70919,1.95996 1.97285,0.6963 -0.27078,1.80522 1.41839,1.36681 2.19205,0.83814 1.97285,0.27078 1.77944,0.72209 1.32813,1.71496 1.56022,3.77808 0.87683,3.95859 -0.21921,3.86833 -2.43705,11.56632 -0.28368,6.16355 -0.42551,1.6763 -2.66915,6.0088 -0.96709,1.6376 -1.01866,0.6963 -1.34102,0.5029 -4.21648,2.3726 -0.99288,0.851 -0.18052,1.0187 0.19342,0.8897 0.50288,0.7092 0.72209,0.49 -0.47709,0.245 -0.91551,0.6834 -0.4642,0.245 4.52595,4.3841 1.35392,0.6447 1.72785,0.2966 4.24227,2.2436 2.86257,0.7479 0.83814,0.4384 1.59891,2.4757 0.25789,0.9542 2.5531,5.9315 0.51578,4.0101 -0.85104,3.8684 -1.31523,3.8425 -0.88972,3.907 -0.0516,1.6376 0.19341,1.8439 0.68341,1.4829 1.35392,0.606 1.13471,0.8511 0.79945,1.9599 1.26366,7.8656 0.20631,3.9328 0.27078,1.5345 3.73939,6.5246 1.80522,2.2307 2.34679,0.6447 3.05599,-1.9599 -1.41839,3.4815 -2.99151,0.012 -2.96573,-0.3997 -1.35391,2.2565 -0.42552,1.1605 -1.75364,2.0373 -0.30947,0.8124 0.95419,1.0057 3.30098,0.6963 0.70919,1.1347 0.20631,1.4958 0.83814,2.9915 0.39973,3.6362 1.66338,4.036 0.11605,2.6176 -0.86393,2.8883 -1.44417,2.6434 -1.53444,1.831 1.71496,3.1076 1.50865,3.8812 2.076,2.7078 3.44282,-0.4513 9.36137,-7.0403 9.45162,-4.1649 3.76518,-0.6319 3.54597,0.8124 2.57889,3.0173 1.22498,3.778 0.41262,2.0761 0.15473,1.8696 0.54157,2.1663 0.0903,0.9413 -0.30947,0.7479 -0.64472,0.2063 -0.45131,0.2837 0.21921,0.9671 2.90125,2.4886 3.22361,-1.6376 7.16931,-9.3485 1.54734,-1.4699 1.59891,-0.6319 1.68917,-0.2579 4.48727,-1.4184 1.58601,-0.7607 3.37835,-2.3597 1.99864,-0.4384 0.88971,1.8697 -0.88971,0.039 -7.63352,3.1978 -3.10756,0.8897 -3.04309,1.2765 -2.75941,2.2953 -0.82524,1.0444 -0.85103,1.4571 -0.11605,1.2893 1.45707,0.5545 3.30098,0.077 1.54733,0.3868 7.51746,4.1778 3.26229,0.7479 3.98439,-0.3611 6.78248,-2.3983 21.37898,-11.3214 2.5531,-0.9542 3.53308,-0.2836 7.6722,0.6319 3.4686,1.0572 2.60468,2.0245 0.59314,1.3797 0.43842,1.6247 0.78656,1.3926 1.57312,0.5802 1.65049,-0.2579 1.31523,-0.6189 5.86697,-4.2552 3.91991,-1.3797 0.19342,-0.348 0.83814,0.052 0.20631,-0.3224 -0.15473,-0.7479 -0.36105,-0.3352 -0.39972,-0.1806 -0.79946,-0.838 -0.52867,-0.2192 -0.50289,-0.3096 -0.34815,-0.7349 0.0774,-0.7608 0.45131,-0.606 0.51577,-0.4513 0.245,-0.3739 0.36104,-0.4256 0.81235,-0.5544 0.85104,-0.7737 0.4642,-1.0187 -0.0516,-1.2121 -0.63183,-4.1133 0.4642,-1.3796 1.14761,-1.4056 1.45707,-1.1733 1.32813,-0.6963 -0.11605,1.6117 -1.3926,2.4628 -0.34815,1.8181 0.29657,0.8382 0.63183,0.4384 0.64472,0.2708 0.28368,0.3223 v 4.0876 l 0.56735,3.5202 5.64777,10.0705 0.9155,3.9199 -1.36681,7.5175 -0.2321,4.1778 2.52731,15.5765 0.012,2.0631 -0.6963,5.738 -0.50288,1.8697 -1.93417,3.9586 0.0258,1.9213 1.21208,1.1089 4.30674,1.3668 1.61181,0.9155 1.65048,0.1548 2.3339,-1.1734 3.82965,-3.0431 13.06207,-13.0234 7.81403,-4.7839 9.0648,-1.4312 4.20359,0.8123 3.77807,1.5602 12.18525,8.8843 1.8568,0.5932 0.97998,-0.1419 0.90261,-0.4384 0.65762,-0.6834 0.25788,-0.9284 0.51578,-0.3739 3.31387,0.7092 1.81812,-0.6448 2.88836,-2.5531 31.95243,-20.5408 v -0.5674 l -0.91551,-0.2837 -1.89548,-0.1289 -0.96708,-0.2063 -1.04445,-0.5029 -0.59315,-0.5158 -1.12181,-1.1863 -0.76078,-1.7149 0.72209,-1.8439 1.30234,-1.5474 1.1734,-1.0444 0.61893,-0.7092 0.37394,-0.2965 0.42552,-0.077 1.04445,0.1676 0.39972,-0.09 0.86393,-0.8768 0.72209,-1.7665 0.56736,-0.7737 0.50288,-1.4313 -0.16763,-6.3827 6.00881,10.8699 2.44995,1.1348 2.79809,0.8768 2.14048,1.1347 1.72785,1.4442 0.74788,0.98 0.51578,2.7593 0.55446,1.4313 0.79946,1.3023 0.97997,1.1477 1.21208,0.9155 2.75941,1.5603 1.30234,0.9541 4.70647,5.2481 -0.54156,-2.3468 -3.85544,-7.6335 1.19918,0.5029 1.22497,1.341 0.9284,1.586 0.36105,1.3023 0.20631,2.1147 0.63183,1.0316 1.17339,0.3223 5.20936,-0.5028 1.50865,-0.7995 0.63183,-1.5731 0.50288,-1.9729 1.28944,-1.3797 1.80523,-0.8639 1.98574,-0.4255 h 7.76246 l 1.63759,0.3739 0.79946,1.0058 1.97285,6.4213 0.15473,3.8555 -0.56736,3.9457 -1.1605,3.6749 0.7092,6.7696 7.32404,1.4441 9.23242,-1.5731 6.43433,-2.2436 5.67356,-3.2623 2.96572,-0.8768 5.5704,-2.6821 3.4815,-5.8412 1.25076,-0.9155 0.28368,-0.4642 0.19342,-2.0631 0.87682,-4.0875 0.30946,-0.8639 0.48999,-0.7737 0.43841,2.3339 -1.68917,8.8843 0.38684,3.043 1.59891,1.8697 2.48862,0.9542 3.0302,0.3482 5.58329,-1.9987 3.77808,-4.887 3.13335,-5.3125 3.7007,-3.3138 -0.4642,2.0889 -0.79945,1.3152 -2.46284,2.811 -1.98575,5.983 -0.81235,0.8897 -1.59891,0.619 -0.9284,1.457 -0.15473,1.7408 0.79945,1.4313 1.50865,1.0186 7.18221,3.0947 4.04885,2.4241 3.54598,1.225 2.29521,0.1805 1.04445,-1.1218 1.07024,-9.5934 1.05734,-1.3797 1.58602,-0.9284 1.92127,-0.8511 -2.39837,11.6179 -0.14184,3.9457 1.32813,4.0102 5.40277,6.7567 1.34103,4.1778 -0.63183,15.5636 0.64472,6.473 1.84391,7.86562 -1.90838,6.8985 -0.36105,3.9457 1.65049,3.4815 3.59755,1.2379 4.4099,-1.2121 14.81572,-9.0777 16.74988,-7.7366 23.01657,-9.33562 24.51234,-9.3098 15.93753,-7.5948 3.44282,-2.4887 3.58465,-3.3009 1.99864,-1.1863 2.21785,-0.4771 6.0346,-0.077 1.72785,-0.4771 1.95996,-2.3726 0.9284,-3.8683 0.88971,-8.0977 1.26366,-3.5718 5.60908,-9.5161 1.36681,-3.8296 0.9413,-1.7021 1.10892,-0.7221 3.0173,-1.1347 1.46997,0.039 -0.45131,1.7794 -0.59314,0.6576 -0.64472,0.5803 -0.91551,-0.7092 -0.83814,0.2579 -0.59314,0.9542 -0.14184,1.3668 2.12758,-0.8382 1.71496,-0.4513 1.1734,-0.8897 0.56735,-2.1662 -0.39973,-2.1663 -1.80522,-3.2107 0.34815,-1.5087 1.1734,0.4513 3.55886,-1.3281 4.13912,-0.8897 0.21921,-1.1476 -1.12182,-1.4184 -5.71224,-4.1004 -1.31523,-1.2379 -0.9284,-1.7408 0.012,-1.4441 -0.55446,-1.0316 -2.57889,-0.5029 -1.32813,0.6705 -0.74787,0.09 -0.39973,-0.7608 0.37394,-1.0315 0.88971,-0.9155 0.64473,-0.9542 -0.36105,-1.1089 -1.04445,-2.1405 0.55446,-1.8568 1.19919,-1.8052 0.83813,-1.9084 -0.0137,-1.0058 -0.51578,-1.6247 -0.0903,-0.5287 0.42552,-0.9799 0.61893,-0.5932 0.55446,-0.052 0.27079,0.6963 0.12894,1.8182 0.38683,2.1275 0.58025,1.9729 0.76078,1.2636 0.87682,0.5803 1.48286,0.5287 0.74788,0.6963 0.38683,0.6834 0.19342,0.7478 0.39973,4.2165 0.88971,1.5087 1.36681,0.6705 1.77944,-0.3224 2.19205,-1.6762 4.24227,-5.5833 1.56023,-2.6692 1.21208,-3.1591 0.47709,-3.4042 -0.38683,-15.5765 0.43841,-1.7794 1.80522,-3.9844 0.245,-1.3797 -1.00577,-1.4699 -1.44418,-0.09 -2.23073,0.8897 -2.82389,4.4099 -1.23786,-0.6318 2.16626,-3.7394 0.27079,-1.7665 -1.50865,-0.7479 -0.37394,-0.3869 0.10315,-0.851 0.54157,-0.851 0.99287,-0.3869 1.10892,-0.077 2.95283,-0.5545 0.36105,0.129 0.41262,0.2579 0.50288,0.2321 0.59315,0.012 0.50288,-0.2579 0.88972,-0.7737 0.4642,-0.2192 1.10892,-0.1547 2.33389,0.1547 1.48286,0.7995 0.64473,1.7665 0.4642,1.9084 0.83813,1.1605 3.22362,-0.5803 2.01153,-3.7264 2.99151,-13.6424 2.75941,-12.5849 0.19342,-2.7852 -0.61894,-0.8897 -1.3926,0.3481 -1.54733,0.9155 -1.07024,0.8639 -1.07024,0.1806 -0.65761,-1.2637 -0.34815,-1.586 -0.0645,-0.7737 -1.18628,-0.2579 -1.56023,0.2966 -5.78961,2.5918 -2.38547,0.5029 -1.6247,-1.1605 -0.59314,-3.5202 -1.4055,-1.3152 -3.05598,0.7478 -4.34543,2.1147 h -0.56736 l 0.79946,-1.6634 1.84391,-1.9986 2.21784,-1.8955 2.02443,-1.3152 6.17644,-1.5731 1.05734,-0.8511 1.75365,-2.2307 0.47709,-2.0502 -1.14761,-5.6736 1.46997,-4.5388 -1.34102,-2.1405 -3.4815,-3.3397 1.75364,-2.2952 1.3926,-2.3468 -0.59314,-1.8181 -1.53444,-0.8897 -2.01153,-0.2192 -2.1018,0.1289 -0.0258,0.1806 -0.58025,0.8768 -0.0258,0.1805 -0.52867,-0.077 -0.85103,-0.5286 -0.54157,-0.012 -1.93416,0.5416 -0.82525,0.4255 -0.33525,0.5932 -0.86393,1.0573 -1.99864,0.5545 -2.25653,0.1418 -1.63759,-0.2579 -1.8697,-1.47 0.86393,-1.1347 2.86257,-1.3797 0.77366,-1.1476 4.80963,-4.1262 1.89548,-0.7221 4.10044,-1.0315 3.54597,-2.2953 7.99456,-2.2694 2.02442,-1.0573 1.57313,-1.4958 0.63182,-2.07593 -0.29657,-1.77943 -0.6834,-1.13471 -0.82525,-0.97998 -0.67051,-1.35392 0.19342,-4.03596 2.57889,-3.14624 3.81675,-2.35969 9.92872,-3.9457 1.89549,-0.25789 2.05021,-0.82524 0.4642,-1.89548 -0.39972,-4.16491 0.32236,-0.99287 1.13471,-1.25076 0.88971,-1.76654 0.18053,-0.4771 v -0.47709 l -0.28368,-0.41262 -0.41262,-0.16763 -0.37394,-0.10316 -0.15474,-0.2192 -3.75228,-1.18629 0.16763,-0.54157 1.03155,-1.09603 0.41263,-0.86392 0.33525,-0.45131 -0.0387,-0.56735 -0.7092,-1.21208 -2.70783,-2.95283 -0.37394,-1.05734 0.45131,-4.887 0.77366,-2.44994 1.30234,-1.74075 1.23787,-0.10316 -1.22497,5.60908 0.27078,2.28232 3.73939,4.39701 0.45131,1.10892 0.0645,2.92704 0.36104,1.26365 0.73499,-1.44417 0.55446,-0.78657 0.56735,-0.29657 1.19919,0.50289 -0.12895,0.82524 -1.07024,1.48286 -0.0137,2.46284 0.2192,1.26366 0.90261,0.39972 1.99864,-0.12894 9.61926,-2.21785 2.34679,-0.94129 2.21784,-1.19918 1.43129,-1.22498 0.54156,-1.70206 0.29657,-2.25653 0.58025,-1.95996 2.35969,-1.44417 8.96164,-12.73971 2.83677,-2.95283 3.63624,-2.24364 1.3926,-1.3797 0.55443,-2.28232 0.2579,-2.34679 0.735,-2.73362 1.2765,-1.74075 1.7794,0.63183 2.4371,2.3081 0.3868,0.78657 -0.116,2.50152 0.1676,1.27655 0.5803,0.87682 1.0186,-0.39973 1.225,-1.67628 0.9929,-2.05021 0.4126,-1.50865 1.0573,0.83814 1.9987,2.39836 1.3539,0.52868 1.702,-0.33526 0.49,-0.96708 -0.3352,-2.14048 0.9026,-2.03732 3.2107,0.67051 -0.3997,-2.63047 4.4099,1.25076 0.6318,-0.34815 1.2121,-1.19918 0.6447,-0.38683 0.5932,-0.0516 1.2894,0.14184 2.6563,-0.56736 0.7091,-0.42552 0.3998,-0.95418 -0.039,-1.36682 -0.4255,-1.1605 -0.7737,-0.82524 -1.0187,-0.30947 -2.4757,-0.29657 -4.9386,-1.32813 -1.9083,-0.28367 -1.0187,-0.28368 -0.5158,-0.61894 0.2708,-0.63182 1.2637,-0.28368 2.5273,0.38683 1.0702,0.0516 1.0831,-0.43841 -1.0315,-1.37971 0.5673,-0.79945 1.2508,-0.67051 1.0831,-0.91551 0.374,-1.65049 -0.98,-0.65761 -1.6376,-0.28368 -1.5344,-0.51578 v -0.61893 l 0.5415,-0.38684 0.619,-0.20631 2.811,-0.14184 0.4126,-0.19341 0.2063,-0.36105 1.1605,-1.66338 0.361,-1.37971 0.129,-3.45571 -0.8511,-0.95419 -3.1849,-0.74787 0.3224,-1.12182 1.1347,-0.48999 3.172,-0.79946 0.6705,-0.85103 0.5932,-0.96708 1.1089,-0.78656 0.6576,-1.00577 -0.7865,-1.61181 -1.3282,-0.32236 -1.7794,0.67051 -10.999,7.85272 -3.0431,1.46997 v -0.67051 l 0.98,-1.45708 0.9284,-1.98574 0.374,-2.05022 -0.735,-1.67627 -0.077,-1.08314 0.9026,-1.40549 1.96,-2.19206 0.4384,-1.34102 0.2837,-2.02443 -0.1548,-1.50865 -0.8639,0.19342 -1.0187,-0.50288 -1.5344,-2.01154 -1.4184,-2.38547 -0.7479,-1.63759 0.1032,-2.20495 1.9471,-3.10757 0.5028,-1.79232 0.3095,-3.75229 0.3739,-1.41839 1.3926,-3.32676 0.3869,-0.59315 0.5287,-0.47709 1.1347,-0.97998 0.49,-0.95419 1.1347,-1.54733 0.1418,-0.38683 0.3095,-0.50289 -0.1032,-1.1605 -0.5158,-2.05021 -0.5931,-1.1734 -0.7092,-0.9155 -0.8252,-0.63183 -0.9929,-0.38684 0.7221,-1.25076 -0.4384,-0.33525 -0.8898,0.012 -0.6189,-0.28368 -0.2063,-0.65761 0.026,-0.39973 0.116,-0.50288 0.065,-0.97998 -0.1805,-0.90261 -0.2837,-0.60604 -0.052,-0.59315 0.5158,-0.94129 0.735,-0.51578 2.1018,-0.74788 0.9413,-0.65761 -0.735,-0.76077 -0.9929,-0.19342 -0.9026,-0.0258 -0.5287,-0.24499 -0.2063,-1.1605 0.3224,-1.12182 0.6576,-1.00577 2.0889,-1.99864 0.8381,-1.26365 0.3095,-1.48286 -0.2837,-1.90838 -0.3481,-0.72209 -0.3353,-0.38683 -0.1418,-0.45131 0.2579,-0.96708 3.3139,-5.32541 1.4441,-3.58465 1.4442,-1.65049 0.9026,-0.4642 1.1218,-0.43841 1.0574,-0.61894 0.7092,-0.95419 -0.09,-0.87682 -0.9671,-2.28231 -0.245,-0.88972 0.6834,-2.0889 4.9515,-5.69935 0.3868,-0.90261 0.4771,-1.97285 0.374,-0.90261 0.6705,-0.97998 2.1147,-1.79232 0.5158,-1.44418 0.4255,-5.71224 1.2378,-2.26942 4.1134,-4.70647 2.076,-1.76654 1.6505,-0.77367 1.9083,-0.36104 3.0818,-0.10316 0.4513,-0.20631 0.5029,-0.45131 0.6963,-0.43841 1.0573,-0.19341 1.1992,0.0774 0.98,0.28368 0.851,0.41262 0.7221,0.51578 0.6319,0.76077 0.9928,1.68917 0.8511,0.64473 1.0186,0.25789 1.0316,-0.0258 1.3926,-0.2321 1.1218,-0.81235 0.3095,-1.8568 -0.2064,-2.05022 -0.3223,-1.41839 -0.5158,-1.26365 -0.7221,-1.21208 -0.245,-0.18052 -0.7736,-0.34815 -0.2192,-0.16763 -0.6706,-1.1734 -0.2707,-0.37394 -0.7479,-1.3926 -0.4513,-3.63623 -0.3998,-1.53444 -3.3912,-4.397 -0.3997,-0.65762 -2.9271,-3.62334 -0.7736,-1.48286 -0.1677,-0.85103 0.2579,-0.83814 0.7092,-0.58025 1.0574,-0.4642 h 0.98 l 0.4255,0.76077 0.735,0.77367 3.5459,1.81811 1.2379,0.86393 1.4571,2.50152 2.0889,6.0475 1.4699,2.66915 2.2308,2.39836 2.5015,1.83102 2.9399,1.41838 5.3383,1.61181 11.7211,1.48286 1.4442,0.55446 1.2765,1.25076 0.8768,1.43129 0.98,1.17339 1.5215,0.48999 0.7221,-0.24499 0.9413,-0.56736 0.7866,-0.72209 0.7092,-1.3926 0.8768,-0.25789 4.1004,0.15474 3.6879,1.48286 1.8181,0.36104 0.8897,0.32236 0.98,0.59315 0.9542,0.36104 0.9284,-0.39973 0.7091,-0.47709 5.1062,-2.43705 2.1276,-0.54157 2.1147,0.0258 1.7923,0.9284 1.0574,0.6963 2.2049,0.55446 1.9471,1.18629 1.0058,0.30947 1.096,0.10315 1.0831,-0.0387 1.3153,-0.37394 1.4184,-0.82524 1.1476,-1.07024 0.9413,-2.44995 1.2507,-1.08313 6.8083,-3.0173 1.5086,-0.96708 1.2637,-2.0889 2.9528,-2.43705 0.7995,-1.25076 -0.052,-1.08314 -0.4384,-0.60604 -0.5158,-0.38683 -0.2837,-0.41262 0.129,-0.99287 0.3739,-1.07024 0.2192,-1.01866 -0.4126,-0.9413 -1.4313,-0.87682 -4.6678,-1.67628 -1.6634,-0.2321 -0.8252,0.28368 -1.096,1.1476 -0.6061,0.42552 -0.8768,0.19342 -0.6576,-0.0258 -1.2637,-0.16763 -2.7981,-5.59619 -1.5731,-1.81811 -1.0058,-0.9284 -3.0559,-1.27655 0.2707,-0.78657 0.5932,-0.28367 0.6189,-0.14184 0.3869,-0.39973 -0.7608,-1.84391 -2.0244,-2.50152 -2.2566,-2.20495 -1.4828,-0.95419 -3.43,-1.45707 -5.6219,-6.43433 -2.8239,-1.46996 -4.2036,-0.29657 -1.096,-0.32237 -2.8755,-1.95995 -1.4571,-0.56736 -1.1863,0.67051 h -0.6189 l -0.2192,-0.78656 -0.2708,-2.28231 -0.1934,-0.64473 -0.9671,-0.4642 -2.1276,-0.0258 -0.9026,-0.39973 -0.4642,-0.82525 0.3611,-0.67051 1.341,-1.00576 0.5931,-1.1734 -0.7349,-0.55446 -2.0632,-0.47709 -2.2178,-2.3339 -1.5473,-0.97998 -3.7652,-0.76077 -3.6362,-1.89548 -7.8141,-6.2667 -5.3254,-2.0889 -6.5375,-7.15642 -0.6318,-0.9155 -0.064,-0.78657 0.2063,-0.88971 0.1419,-1.13471 -0.4384,-0.78656 -1.0187,-0.15474 -2.2049,0.0516 -1.4313,-0.67051 -1.2637,-0.82525 -1.4184,-0.6963 -1.8697,-0.29657 -1.8825,-0.6834 -1.109,-1.59891 -0.7736,-1.8697 -0.864,-1.48286 -0.7092,-0.79946 -0.1934,-0.14183 -0.2579,0.18052 -0.967,0.12894 -0.7092,-0.47709 -0.49,-1.07024 -0.052,-1.05735 0.6318,-0.48998 0.7866,-0.90262 0.2321,-2.076 -0.129,-3.90702 h -0.5673 l -1.0445,0.64472 -1.0573,-0.73498 -1.1089,-1.28944 -1.1734,-1.04445 -1.4571,-0.37394 -3.4686,-0.33526 -1.3281,-0.59314 -0.8511,-1.22497 1.2637,-0.11605 3.3525,0.72208 3.0818,0.18053 3.1334,-0.18053 3.6749,-1.05734 -1.6634,-1.65049 -3.4299,-1.83101 -1.6505,-1.66338 5.1449,1.00576 2.9012,0.18053 0.039,-1.18629 1.831,-1.59891 0.3611,-1.74075 0.1805,-1.80523 1.2894,-1.72785 1.831,-0.90261 6.2796,-1.52155 1.1863,-1.00576 3.0689,-3.81676 0.7092,-1.44418 -0.3095,-2.38547 -1.2507,-3.03019 -1.6892,-2.68205 -1.715,-1.32813 -0.6834,1.59891 -1.1863,-1.63759 -1.5731,-3.95859 -0.6447,-0.78657 -1.0831,-2.01153 -0.7995,-0.9284 -8.8456,-7.71088 -1.3281,-1.93416 -3.7136,-3.14625 -0.9026,-1.28944 -0.7995,-1.49576 -0.606,-1.74075 -0.4126,-5.99591 -0.3869,-1.74075 -0.7221,-1.44418 -2.8883,-2.39837 -3.4428,-0.86393 -3.7007,-0.4642 -3.6621,-1.18629 -1.2378,-1.19918 0.6834,-1.04445 3.3783,-2.46284 1.5474,-0.83814 2.076,-0.51577 1.8954,-0.68341 1.0187,-1.36681 -8.7424,-0.63183 -6.602,-1.27655 -2.1534,0.0387 v -0.61893 l 6.2796,-0.6834 1.6118,-0.52868 3.3397,-1.57312 1.6118,-0.32236 0.2708,-0.68341 -1.1476,-1.3797 -1.8052,-1.04445 -1.715,0.29657 -1.3023,0.6963 -1.8826,0.52867 -1.9342,0.14184 -1.3926,-0.41262 0.9155,-0.83814 2.3339,-2.92704 0.7608,-0.63183 0.9542,-0.27078 0.8897,-0.67051 0.4384,-0.91551 -0.3739,-0.95418 -0.6319,-0.86393 -0.2192,-0.64472 -0.3223,-0.58025 -1.0445,-0.68341 -3.8167,-0.77367 -3.9715,0.32236 -3.4815,-0.25788 -2.4242,-2.44995 -0.09,-1.54733 0.3352,-1.37971 -0.3481,-0.97998 -2.0889,-0.37393 -3.7265,0.012 -1.7795,-0.18052 -1.5989,-0.51578 -6.473,-3.66202 -1.0444,-1.01866 -0.1935,-0.9284 -0.3094,-0.88972 0.014,-0.67051 0.8382,-0.28368 0.7092,0.14184 2.7336,1.05734 1.9986,1.77944 1.0058,0.14184 1.341,-1.25076 0.3224,-0.96709 0.2965,-3.7136 0.2966,-0.86393 0.7479,-0.70919 0.8252,-0.61893 0.619,-0.58025 1.0702,-1.75365 0.8124,-0.96708 0.9026,-0.42552 0.9155,-0.30946 0.6705,-0.78657 0.4255,-1.10892 0.1547,-1.21208 v -2.50152 l -0.1547,-0.78656 -0.3997,-0.0903 -0.5803,0.12894 -0.7221,-0.15473 -2.076,-0.77367 -2.7852,-0.37393 -2.6691,0.19341 -1.7666,0.95419 -1.2249,-2.28232 -0.6834,-0.74787 -1.2508,-0.6963 -3.41698,-0.82525 -0.9284,-0.41262 -1.3926,-1.32813 -1.57312,-2.14048 -0.9284,-2.38547 0.47709,-1.98574 1.03156,-2.37258 -1.58602,-1.19918 -2.72073,-0.43841 -4.99014,0.0387 -2.82389,0.36104 -2.65625,0.76078 -2.12759,1.26365 2.28232,-3.40413 3.15914,-1.27655 11.72105,-0.12895 7.51746,1.27655 11.6952,-0.12894 1.831,0.48999 3.9328,1.90838 1.4055,0.0774 1.3153,-1.63759 -0.077,-2.25653 -0.9155,-2.23074 -1.2379,-1.6247 -0.7092,-1.30234 -0.8639,-5.26093 -0.2192,-0.56736 -1.0187,-1.92127 1.831,0.9284 0.9284,0.59315 0.3998,0.61893 0.1676,1.99864 0.2837,0.99287 1.4313,2.44994 0.851,2.19206 1.1734,1.88259 1.9857,0.81235 1.7537,0.38683 3.7265,1.70207 1.9857,0.38683 8.8972,-0.82524 1.1476,-0.61894 1.4571,-2.28231 0.9799,-0.88972 2.6563,-1.46997 0.8123,-0.79945 0.2837,-1.6247 -1.0315,-0.77367 -3.7007,-0.6963 -3.9071,-1.31523 -1.7536,-1.03156 -1.1605,-1.3797 5.3125,0.56735 1.47,-0.15473 0.5544,-0.43841 -0.077,-0.76077 -0.4384,-1.07024 -4.7323,-4.70647 -0.5416,-0.87683 -2.6691,-1.65049 -0.735,-0.32236 -1.225,0.20631 -1.4441,0.43842 -1.4184,0.20631 -1.2121,-0.51578 -1.7794,-1.65049 -2.205,-1.61181 -2.4886,-1.14758 -2.6047,-0.21921 v -0.61893 l 4.2423,0.29657 1.8697,0.63183 3.4041,2.34677 2.0631,0.4642 1.9858,-0.2321 1.4312,-1.01866 0.077,-1.13471 -0.9929,-0.99286 -1.5344,-0.70919 -3.056,-0.63183 -1.2765,-0.90261 -8.4975,-8.38139 -0.9026,-0.41262 -0.9671,0.37394 -0.98,0.61893 -0.9026,0.32236 -0.9799,-0.37394 v -0.85103 l 0.6705,-1.31523 -0.8253,-1.13472 -1.4442,-0.74787 -1.7536,-0.41263 -1.8955,-0.11605 -1.3281,-0.4642 0.039,-0.96708 0.6189,-0.96708 0.3868,-0.42552 -0.3094,-0.95419 -0.7092,-0.37394 -0.8382,-0.25789 -0.6963,-0.61893 -0.1934,-0.4642 -0.2965,-0.99287 -0.077,-0.41262 12.2497,4.21648 0.98,0.10316 0.8768,-0.4771 2.4757,-2.20495 1.0445,-0.70919 z"
     id="path906"
     style="fill:#000000;fill-opacity:1;stroke:#000000;stroke-width:1.26366" />
</svg>
