<?xml version="1.0" encoding="UTF-8" standalone="no"?>
<svg
   xmlns:dc="http://purl.org/dc/elements/1.1/"
   xmlns:cc="http://creativecommons.org/ns#"
   xmlns:rdf="http://www.w3.org/1999/02/22-rdf-syntax-ns#"
   xmlns:svg="http://www.w3.org/2000/svg"
   xmlns="http://www.w3.org/2000/svg"
   xmlns:sodipodi="http://sodipodi.sourceforge.net/DTD/sodipodi-0.dtd"
   xmlns:inkscape="http://www.inkscape.org/namespaces/inkscape"
   version="1.0"
   width="1024.000000pt"
   height="1024.000000pt"
   viewBox="0 0 1024.000000 1024.000000"
   preserveAspectRatio="xMidYMid meet"
   id="svg18"
   sodipodi:docname="Corfu.svg"
   inkscape:version="1.0.1 (3bc2e813f5, 2020-09-07)">
  <defs
     id="defs22" />
  <sodipodi:namedview
     pagecolor="#ffffff"
     bordercolor="#666666"
     borderopacity="1"
     objecttolerance="10"
     gridtolerance="10"
     guidetolerance="10"
     inkscape:pageopacity="0"
     inkscape:pageshadow="2"
     inkscape:window-width="1920"
     inkscape:window-height="974"
     id="namedview20"
     showgrid="false"
     inkscape:zoom="0.52959847"
     inkscape:cx="682.66667"
     inkscape:cy="528.43063"
     inkscape:window-x="-11"
     inkscape:window-y="-11"
     inkscape:window-maximized="1"
     inkscape:current-layer="svg18"
     inkscape:document-rotation="0" />
  <metadata
     id="metadata2">
Created by potrace 1.10, written by Peter Selinger 2001-2011
<rdf:RDF>
  <cc:Work
     rdf:about="">
    <dc:format>image/svg+xml</dc:format>
    <dc:type
       rdf:resource="http://purl.org/dc/dcmitype/StillImage" />
    <dc:title />
  </cc:Work>
</rdf:RDF>
</metadata>
  <path
     d="m 469.58565,4.5925147 v -0.61902 h -0.46427 l -0.0516,-0.74798 -0.32241,0.21923 -0.10317,0.52875 h -0.94143 v -0.52875 l -0.24503,-0.0774 h -2.57926 v -0.73509 h -0.88982 l -0.0387,0.73509 h -0.61902 -0.3353 v 0.20634 0.39978 l -0.50296,-0.0903 0.0387,0.70929 h -0.27082 -0.20634 v 1.92155 l -0.11607,1.12198 -0.3482,0.0258 v 0.3482 0.25793 h -0.77378 -1.58624 l -0.0138,0.56743 -0.42558,0.16765 -0.0258,0.49006 h -0.58034 v 0.6835103 l -0.37399,-0.0645 v 0.78668 0.43847 h -0.21924 -0.24503 v 0.19345 0.41268 l -0.50295,-0.0138 0.0258,1.23804 h -0.32241 l -0.14186,0.61903 h -0.46426 v 0.61902 h -0.28372 -0.19344 v 0.41268 0.79957 h -0.374 -0.56743 v 0.61902 h -0.46422 v 0.61902 h -0.61902 -0.3353 v 0.32241 l -0.0774,0.24503 -0.38689,0.0387 0.0387,0.73509 -0.51585,-0.11607 v 0.39978 l -0.0645,0.14186 -0.39978,0.0645 0.0774,0.64481 -1.01881,-0.0258 v 0.56743 l -0.47716,0.0387 v 0.61902 h -0.46427 v 1.22515 l -0.42558,-0.12896 -0.0516,0.73509 -1.28963,0.0774 -0.11607,0.54164 -0.38688,0.11607 -0.0903,0.50295 -0.38689,0.10317 -0.0774,0.50296 h -0.29662 -0.18055 v 0.61902 h -0.56743 -0.374 v 0.29661 l -0.0645,0.28372 -0.39978,0.0258 0.0387,0.76088 -0.51586,-0.14185 v 0.42557 l -0.0516,0.14186 -0.41268,0.0387 0.012,0.6964 -0.95432,-0.0774 v 0.61902 h -0.47716 v 0.25793 0.3482 h -0.58034 l -0.28371,0.0903 -0.0774,0.51586 h -0.27082 -0.19345 v 0.28371 0.18055 l -0.47716,0.15476 0.0387,0.65771 -0.98012,-0.0387 v 0.55454 l -0.46427,0.0516 v 0.79957 0.42558 h -0.20634 -0.27082 v 0.83826 l -0.10317,0.3353 -0.37399,0.0516 v 0.23213 0.38689 h -0.49006 -0.45137 v 0.3482 l -0.0903,0.19344 -0.374,0.0774 0.0903,0.59323 -1.03171,0.0138 v 0.51585 l -0.46426,0.0903 v 0.19345 l -0.0138,0.42557 -0.50295,-0.11606 0.0387,0.72219 -0.98012,-0.0903 0.0387,0.70929 h -0.94143 v 0.61902 h -0.18055 -0.29661 v 1.21225 0.61903 l -0.12897,-0.0645 h -2.21816 v 0.6835 h -0.47716 v 0.60612 h -0.28372 -0.18055 v 0.60613 l -0.56743,-0.0138 0.0903,0.63192 h -0.56744 -0.37399 v 0.47716 l -0.46427,0.14186 v 0.47717 l -0.46426,0.18054 -0.012,0.56744 h -0.47716 v 0.61902 l -0.41268,-0.12896 -0.0516,0.73509 h -0.98012 v 1.14777 h -0.94142 l 0.0387,0.6835 -1.43148,-0.0387 0.012,0.65771 h -0.94143 v 0.60613 h -0.55454 -0.38688 l -0.0645,0.50295 -0.39978,0.11607 v 0.3353 0.88985 h -0.72219 -0.21924 v 0.61902 l -1.43149,-0.0645 0.012,0.6706 -1.45728,-0.12896 0.0516,0.74799 h -0.94143 v 0.60612 l -0.46426,-0.14186 -0.012,0.76088 h -0.94143 v 0.60613 l -0.38689,-0.0138 -0.0774,0.63192 -0.95433,-0.10317 0.012,0.7093 -0.99302,-0.11607 0.0516,0.73509 h -0.95433 v 0.60612 h -0.59323 -0.3482 v 0.32241 0.29662 h -0.37399 -0.56743 v 0.41268 0.20634 l -0.46427,-0.0138 v 0.61902 l -1.86996,0.12897 -0.012,0.47716 -1.34121,-0.0774 -0.0774,0.6964 -0.95433,-0.15476 0.012,0.77378 h -0.30951 l -0.10317,0.0903 -0.0516,0.51585 h -0.49005 -0.45137 v 0.37399 l -0.0645,0.20634 -0.41268,0.0387 v 0.56744 h -0.81246 l -0.12897,0.64481 h -1.22514 -0.18055 v 0.61902 h -1.0446 -0.11607 -0.25792 v 0.61902 h -0.78668 -0.15475 v 0.60613 h -0.7093 -0.23213 v 0.19344 0.42558 h -0.45137 -0.49006 v 0.38689 0.21924 h -0.47716 v 0.61902 h -1.01881 -0.19344 -0.19345 v 0.60612 l -0.82536,-0.0903 -0.11607,0.7093 h -0.6835 -0.25793 v 0.23213 0.38689 h -1.57334 -0.30951 v 0.60612 h -1.4186 v 0.60613 h -1.13487 -0.27082 v 0.61902 h -1.27673 -0.14186 v 0.61902 h -0.98012 -0.42558 v 0.25793 0.3482 l -1.86996,0.0516 -0.012,0.56744 -1.75389,-0.0903 h -0.15476 l 0.0258,0.6964 h -1.79259 -0.56743 v 0.16766 0.43847 h -1.22515 -0.18055 v 0.61902 h -1.89575 v 0.61902 h -1.4057 v -0.61902 h -1.41859 l 0.012,-0.6835 -1.4186,0.0645 -0.0258,-0.54164 -0.14186,-0.0645 h -1.25094 l -0.012,-0.60612 h -0.92854 v -1.22515 h -0.46426 l 0.0258,-0.6835 -0.50295,0.0645 v 0.85115 0.374 h -0.19345 -0.27082 v 0.19344 0.42558 h -0.47716 v 0.60612 h -1.4057 v -0.60612 h -0.47716 l -0.0258,-0.55454 -0.91564,-0.0645 -0.0387,-0.46427 -0.30951,-0.14186 h -1.53466 l 0.0387,-0.6835 -1.45728,0.0645 v -0.47716 l -0.46427,-0.14186 v -0.60613 H 359.397 v -0.60612 h -0.47716 v -0.61902 h -0.94143 v -0.61903 h -1.40569 l 0.012,-0.63191 -0.95432,0.0258 0.0258,-0.68351 -0.50295,0.0645 -0.0258,-1.97314 -0.43847,0.14186 v -0.61902 h -0.94143 l 0.0258,-0.73509 -0.50295,0.11607 v -1.21225 h -0.46427 v -1.84417 h -0.47716 v -0.61902 h -0.46427 l -0.0137,-0.60613 h -1.86996 v -0.60612 h -1.89576 l -0.10317,-0.61902 h -0.36109 l -0.11607,-0.61903 h -0.3611 l -0.0645,-0.60612 h -0.39978 v -0.61902 h -1.68942 l -0.16765,0.0903 -0.0258,0.52875 -0.85116,-0.11607 -0.0903,0.72219 h -0.94143 -0.47716 v 0.29662 0.32241 l -0.86405,0.012 -0.0774,0.60613 h -1.4057 v 0.60612 h -3.30145 l 0.0258,1.07039 -0.96722,0.15476 v 0.23213 0.38689 h -1.4057 v 0.60613 l -1.67652,-0.0258 -0.23213,-0.012 0.012,0.65771 h -1.23805 l -0.14186,0.0774 -0.0258,0.52874 -2.37292,-0.11606 0.012,0.72219 h -0.94143 v -0.39978 -0.20635 h -0.46426 l -0.0516,0.47717 -0.38689,0.23213 -0.0387,0.51585 h -0.94143 v 0.61902 l -3.73992,-0.14186 -0.0258,0.74799 h -0.94143 v 0.19344 0.42558 h -1.88286 v -0.42558 -0.19344 h -1.40569 v 0.19344 0.42558 h -0.47717 v -0.42558 -0.19344 h -0.94143 v 0.19344 0.42558 l -1.0446,-0.0138 0.10318,0.61903 h -0.46427 v -0.60613 h -0.47716 v -0.61902 h -0.94143 v -0.28372 -0.94143 h -0.21924 -0.25793 l -0.0387,-0.61902 h -0.42558 l -0.0774,-0.64481 -0.39978,0.0387 0.0903,-1.39279 -0.55454,0.16765 v 0.61902 h -3.76572 v -0.61902 h -0.47716 v -0.60613 h -0.46427 v -0.61902 h -1.41859 l -0.0387,-0.6964 -0.43847,0.0774 -0.0387,-0.60613 h -0.42558 l -0.0645,-0.49006 -0.12896,-0.11606 h -0.74758 l 0.0774,-0.60613 -0.54164,-0.012 v -0.61903 h -0.47716 l -0.012,-0.72219 -0.92853,0.11607 -0.0774,-0.61902 h -0.86405 v -0.60613 h -0.47716 v -0.59323 l -4.22999,-0.0258 v 0.55454 0.67061 l -1.98602,-0.0645 0.10317,0.68351 -0.33531,-0.0258 -0.15475,-0.012 0.012,0.64481 -0.95432,-0.0138 0.012,0.63192 h -0.25792 l -0.19345,0.0774 -0.0137,0.54165 -0.96722,-0.0258 0.0258,0.63192 h -0.47716 v 0.60613 l -1.37991,-0.0774 -0.0258,0.6964 h -0.50295 -0.43848 v 0.3482 0.27082 h -0.6835 -0.25793 v 0.60613 h -0.47716 v -0.60613 h -0.46427 v 0.60613 l -0.51585,-0.0516 0.0387,0.67061 h -0.6706 -0.27083 v 0.20634 0.39978 l -0.90274,-0.0387 -0.0387,0.64481 -1.30252,-0.11607 -0.11607,0.73509 h -0.73509 l -0.20634,0.0387 v 0.58033 l -2.25685,-0.14186 -0.11606,0.10317 0.0258,0.64482 -0.87695,0.12896 -0.0645,0.49006 h -2.79849 -2.38582 v 0.38689 0.21924 h -0.46426 v 0.61902 h -1.00591 -0.18055 l -0.23213,0.0516 v 0.55454 l -2.15368,-0.0903 -0.20635,0.0774 v 0.63192 h -1.58624 -0.76088 v 0.30951 0.30951 l -0.50295,-0.10317 0.0258,0.70929 h -0.94143 v 0.60613 h -0.94143 v -0.60613 h -2.34712 v 0.60613 h -0.47717 v 0.61902 h -0.77377 -0.63192 l 0.0387,0.46427 -0.51585,0.15475 v 0.65771 l -4.22999,-0.0516 v 0.61902 h -0.95432 v 0.60612 h -2.37292 -0.45137 v 0.16766 0.43847 l -1.30252,-0.0258 -0.10317,0.64481 h -2.36002 v 0.61902 l -1.88286,0.0774 v 0.52875 l -1.7539,-0.11607 -0.12896,0.11607 v 0.60612 h -0.6835 -0.25793 v 0.21924 0.39979 h -1.41859 v -0.42558 -0.19345 h -0.88984 -3.34014 l 0.012,-0.70929 -0.12896,-0.0138 -3.18538,0.11607 v -0.60613 h -1.88286 v -0.61902 h -0.94143 l -0.0903,-0.64481 -0.374,0.0258 v -0.83826 -0.37399 h -0.16765 -0.30949 l -0.0645,-0.51585 -0.39979,-0.10317 v -0.38689 -0.21924 h 0.18055 0.28372 v -0.3482 -0.27082 h 0.23212 0.24502 l 0.0645,-1.81838 -0.54163,-0.0138 v -0.61902 h -0.94143 v -0.7093 h -1.21225 -0.19345 v 0.7093 h -7.06716 v -0.61903 h -0.19344 -0.27083 l -0.0903,-0.49005 -0.10317,-0.11607 h -0.28372 v -0.30951 -0.30951 h -0.52875 -0.81246 l -0.0774,-0.0387 -0.0258,-0.47716 -0.18055,-0.10318 -0.25793,0.0138 v -1.84417 h 0.25793 0.20634 v -0.73509 h 0.94143 v -1.7152 h -0.94143 l 0.10317,-0.56744 -0.52875,-0.0387 h -4.74583 l -0.0387,-0.51585 -0.43847,-0.25793 -0.0387,-1.07039 h -2.32133 l 0.0258,-0.73509 -0.38689,0.0516 -0.16765,0.0258 -0.39979,0.0516 v 0.30951 0.29661 l -0.47716,0.12897 v 0.47716 l -1.35411,-0.0774 -0.0516,0.6964 h -0.69639 -0.25793 v 0.23213 0.38689 l -0.95433,0.0387 0.0258,-0.65771 h -0.21924 -0.25793 l 0.0387,-0.6964 -0.51585,0.0774 v -0.60613 h -0.46426 v -0.81246 -0.41268 h -0.74799 -0.67061 v -0.39979 -0.21924 h -1.88285 v 0.49006 l -0.46427,0.12897 v 0.39978 0.21924 l -0.49006,-0.10317 0.012,0.70929 -1.99893,-0.0645 0.11607,0.67061 h -0.3482 -0.11607 v 0.61902 h -0.47716 v 0.24503 0.37399 h -4.92638 -0.58033 -0.14186 v 0.60613 h -1.19936 -0.21924 v 1.18646 h -1.43148 l 0.0258,0.64481 -3.1338,-0.11607 -0.16765,0.11607 v 1.0446 0.19344 h -1.4057 l 0.0774,-0.72219 -0.55454,0.10317 0.0774,-0.73509 h -1.0317 l 0.012,0.73509 h -1.40569 v 0.61902 h -0.47716 v 0.60613 h -0.47717 v -0.60613 h -0.46426 v -0.61902 l -0.91564,0.0774 -0.0258,0.54164 -2.7727,-0.14186 -0.15476,-0.41268 -0.37399,-0.0645 -0.0387,-0.49006 -0.3611,-0.24503 -0.0645,-0.30951 v -1.40569 h -0.30951 -0.16765 v -0.24503 -0.3611 l -0.49006,0.0387 v -1.27673 h -0.45137 v -0.60613 h -0.46427 v -1.21225 h -1.77968 l -0.10317,-0.21923 v -0.41269 h -0.20634 -0.27083 v -1.83127 h -0.47716 l 0.0258,-0.63192 -0.49006,0.0138 0.0774,-1.36701 -0.54164,0.14186 v -0.60612 h -1.41859 v 1.22514 h -0.46427 l 0.0645,0.7093 -0.54164,-0.10317 v 0.92853 l -0.0774,0.25793 -0.38689,0.0387 v 1.0446 0.18054 h 0.94143 v 0.61903 h 0.45137 l 0.012,0.61902 h 0.38689 l 0.0903,0.60612 h 0.28372 0.18055 v 0.3611 l 0.0903,0.16765 -0.55454,0.0774 v 1.10908 0.58033 0.77378 h -0.23213 -0.24503 v 0.36109 0.7093 l -0.7222,0.11607 -0.11606,0.012 -0.10317,0.0138 v 0.61902 l -0.16765,-0.0138 -0.78668,-0.0258 0.012,0.65771 h -0.46427 v 0.60613 h -0.94143 v 0.61902 h -0.27082 -0.20634 v 0.60613 1.22514 l -0.38689,-0.0903 -0.0903,0.39978 -0.0645,0.28372 -0.39979,0.0258 0.0387,0.74798 -0.50295,-0.12896 v 0.41268 l -0.0645,0.16765 -0.87694,0.0258 v 0.60613 h 0.46426 v 0.63192 0.45137 0.15475 h -0.15475 -0.0774 -0.23213 v 0.21924 0.52875 0.85115 l -0.0645,0.20634 -0.41269,0.0258 v 0.73509 0.24503 0.24503 h -0.51585 -0.42557 v 1.22515 l -0.3482,-0.0258 -0.14186,-0.012 0.012,0.64481 h -0.92853 v 0.61903 h -0.27082 -0.21924 v 0.61902 H 158.772 v 0.60612 h -0.98012 v 0.52875 l -0.42558,0.0903 v 1.22514 h -0.47716 v 1.13488 l -0.46427,0.0903 v 0.41268 0.19345 l -0.41268,0.12896 -0.0516,0.49006 -0.50295,-0.0387 0.012,0.64481 h -0.46427 l 0.0516,0.60613 -0.51585,0.0138 v 0.60613 h -0.47716 v 0.19344 0.42558 h -0.72219 -0.21924 v 0.30951 0.30951 h -0.23213 -0.23213 v 0.29662 l -0.0903,0.27082 -0.38689,0.0387 v 0.50295 h -0.49006 l 0.012,0.7222 h -0.56744 -0.36109 v 0.38688 0.21924 h -0.27082 -0.68351 v 0.60613 l -0.46426,0.012 v 0.41268 0.20634 h -0.21924 -0.25793 v 0.60613 h -0.46426 v 0.60613 l -0.38689,0.10317 -0.0903,0.51585 h -0.25792 -0.20634 l 0.0516,0.63192 -0.52874,-0.012 v 1.17356 h -0.38689 l -0.0774,0.65771 h -0.94143 v 0.61902 h -1.41859 l -0.0387,-0.61902 h -0.42558 v 1.0317 l -0.0645,0.15476 -0.41268,0.0387 v 0.3482 0.27082 h -0.98012 l -0.41268,0.10317 -0.0138,0.50296 h -0.42558 -0.51585 v 1.56045 l -0.0645,0.18055 -0.39978,0.10317 v 1.07039 0.77377 h -0.32241 -0.15475 v 0.29662 0.30951 h -0.16765 -0.77378 l 0.0774,1.289625 -0.55454,-0.0645 v 0.60612 h -0.46427 l -0.0387,0.60613 -0.43847,0.012 v 0.60613 h -0.94143 v 1.84417 h -0.94143 v 0.61902 h -0.46427 v 0.60613 h -0.51585 l 0.0258,1.0188 0.012,0.20634 h -0.94143 v 0.60613 h -0.12896 -0.3482 v 0.61902 h 0.3482 0.12896 v 1.22515 h -0.12896 -0.3482 v 1.25094 0.59323 h -0.30951 -0.15476 v 0.23213 0.99301 h -0.47716 v 0.60613 h -0.3611 -0.23213 -0.3482 v 0.81247 0.41268 l -0.15475,-0.0258 -0.30952,0.0258 v 1.32831 l -0.47716,-0.10317 v 0.7093 0.51585 h -0.46426 v 0.61902 h -0.47717 l -0.0774,0.59323 -0.38689,0.0138 0.012,1.26383 -0.49006,-0.0258 v 0.29662 0.29661 h -0.19344 -0.27082 l -0.19345,0.55454 -0.28371,0.0645 v 0.96722 l -0.0645,0.23214 -0.39978,0.0258 v 1.16067 0.6706 h -0.24503 -0.23213 v 0.20634 0.41269 h -0.50296 -0.43847 v 0.27082 0.3482 h -0.21924 -0.24503 v 0.37399 l -0.0903,0.14186 -0.38689,0.0903 v 0.7093 0.51585 h -0.23213 -0.23214 v 0.61902 l -0.55454,-0.10317 0.0774,1.32832 h -0.46427 l -0.0774,0.59323 -0.39979,0.0258 v 1.14777 h -0.47716 l 0.012,0.6835 h -1.04459 v 2.41161 l -0.374,0.0258 v 1.81838 0.59323 0.65771 h -0.25792 -0.20634 v 0.45137 0.16765 h -0.0774 -0.42558 v 1.10908 2.70822 l -0.43847,-0.14186 v 2.24396 0.81246 h -0.16765 -0.30952 v 1.66362 0.79957 l -0.12896,-0.11606 -0.3353,0.11606 0.0387,1.22515 -0.32241,-0.012 h -0.19344 l 0.0387,0.77378 0.0258,0.49006 -0.14186,-0.0138 -0.38689,-0.0258 -0.0138,1.19936 -0.46426,0.0258 0.10317,0.65771 -1.0446,-0.0387 v 1.22515 h -1.65073 -0.23213 v 0.60612 l -0.79957,-0.0387 h -0.14186 v 0.65771 h -3.30145 l 0.0387,-0.65771 -0.98012,0.0387 -0.0258,-0.46426 -0.3482,-0.14186 h -0.56744 v 0.60612 l -1.80548,-0.0387 -0.0774,0.65771 h -1.03171 -0.24503 -0.14186 v 0.60613 h -0.49005 -0.43848 l 0.0387,0.47716 -0.51585,0.14186 v 0.65771 l -0.47716,-0.0516 v 0.61902 l -0.96722,-0.0138 0.0387,0.63192 h -2.360016 l -0.0645,-0.63192 -0.39978,0.0138 v 0.61902 h -0.47717 v 1.57335 0.25792 l -0.87694,0.0903 -0.0645,0.51585 h -0.46427 l 0.0258,-0.72219 -1.44438,0.11606 -0.0258,-0.72219 -0.45137,0.10317 v -0.18055 -0.42557 l -2.33423,-0.0258 -0.012,0.94143 v 0.30951 h -0.47716 v 1.22515 h 0.58033 0.37399 l -0.0516,0.61902 h 0.98012 v 0.60613 l 2.32133,-0.0774 0.0387,0.6835 h 2.59215 l 0.21924,0.0645 v 0.11607 l 0.012,0.43847 h 1.637826 1.18646 v 0.41269 0.19344 h 0.20634 0.25793 v 0.28372 0.3353 h 0.3353 0.14186 v 0.60613 l 1.43149,-0.0774 -0.0258,0.6964 h 1.88286 v -0.61902 h 0.47717 l 0.012,-0.60613 h 1.86996 l -0.0645,-0.37399 0.0645,-0.24503 h 3.77862 v 0.24503 0.37399 h 0.83825 l 0.0903,0.60613 1.0188,-0.0387 -0.0645,0.65771 h 0.90274 l 0.0387,0.60612 0.78668,-0.0516 0.15475,0.0516 v 0.63192 1.19936 h 0.25793 l 0.19344,0.0645 0.0138,0.55454 h 0.94143 v 0.61902 l 0.51585,-0.0258 -0.0387,0.63192 1.05749,-0.0903 -0.11606,0.7093 h 0.94143 v 0.60612 l 0.52874,0.0258 -0.0645,1.19935 h 0.27083 0.20634 v 0.55454 0.67061 h 1.40569 v 0.61902 l 0.55454,-0.0774 -0.0774,1.90865 0.38689,-0.0258 0.0774,0.64481 0.49006,-0.0258 -0.012,0.63192 h 0.79957 0.14186 v 0.30951 0.91564 l 0.49006,-0.0387 -0.0258,0.64481 0.42557,-0.11606 v 1.88285 l 0.51586,0.0774 v 0.20634 0.39979 h 0.42557 l 0.0516,0.61902 0.39978,0.0387 0.0645,1.18646 h 0.29661 0.18055 v 0.38688 0.83826 l 0.39978,0.15476 0.0645,0.45137 0.39979,0.11607 0.0774,0.50295 0.23213,-0.14186 0.16765,0.21924 0.0645,0.52875 h 0.33531 l 0.14186,0.61902 0.39978,0.0903 0.0645,0.52875 0.41268,0.0774 0.0645,0.52875 0.30952,-0.0258 0.0903,0.11607 0.0645,0.51585 0.41268,0.0903 0.0645,0.52875 h 0.23214 0.23213 v 0.50296 0.72219 h 0.42558 l 0.0516,0.61902 h 0.50296 l 0.0516,0.58033 0.38689,0.0258 v 2.48898 l 0.94143,-0.0387 v 0.60613 h 1.30253 l 0.10317,1.70231 0.94142,0.012 0.012,1.35411 h 0.29662 l 0.15475,0.0516 0.012,0.55454 h 0.94143 v 1.22515 l 0.56743,0.0387 -0.0903,1.18645 h -0.24503 -0.23213 v 0.60613 h -0.32241 -0.14186 v 0.61902 h 0.37399 l 0.0903,0.60613 h -0.16765 -0.29662 l 0.0645,1.68941 -0.54164,0.15476 v 0.46426 l -0.19345,0.0645 -0.27082,0.0774 v 3.05642 l 0.3482,0.0387 0.11607,2.4245 h 1.41859 v 0.61902 h 0.94143 v 0.59323 l 0.25792,-0.0903 0.21924,0.0903 v 0.3611 0.87695 h 0.38689 l 0.0774,1.22514 h 0.46426 v 1.21225 h 0.51586 v 1.84417 H 141.342 v 0.33531 0.28372 l -0.83825,-0.0387 -0.0903,2.47608 h -0.21924 -0.25792 v 1.84417 l 0.36109,0.0516 0.11607,1.77969 h 0.39979 v 0.61902 h -0.39979 v 1.22514 l 0.39979,-0.0516 0.0645,0.65771 h -0.29662 -0.16765 v 0.50295 0.7222 h -0.21924 -0.25792 v 0.98011 0.85116 h -0.25793 -0.21923 v 0.47716 0.76088 l -0.29662,-0.11606 -0.16765,0.11606 v 0.60613 h -0.47716 v 1.12198 l -0.38689,0.0387 -0.55454,0.0645 v 0.27082 0.3353 l -0.49006,-0.0645 0.0258,0.6835 -1.05749,-0.0774 0.10317,0.6964 h -1.4057 v 0.60612 l -0.3482,0.0387 -0.12896,0.56744 h -0.46427 v 0.61902 h -0.12896 -0.3482 v 0.60612 h 0.3482 0.12896 v 0.95433 0.27082 h 0.7093 l 0.19344,0.0774 0.0387,0.52875 h 0.83826 l 0.0903,0.47716 0.012,0.14186 h 0.46427 v -0.33531 -0.28371 h 0.60612 l 0.33531,-0.12897 0.012,1.7539 v 0.21924 h 1.00591 v 0.61902 h 1.81838 v 0.60612 h 1.40569 v 1.22515 H 140.876 v 0.60613 h -0.46427 v 0.61902 h -0.95432 v -0.61902 h -0.46427 v -0.60613 h -0.47716 v -0.61902 h -0.46427 l 0.0645,-0.7093 -1.48307,0.10317 v -0.50295 h -0.88984 l -0.0516,0.50295 h -0.46427 l 0.012,-0.6964 -0.49006,0.0903 v -0.29662 -0.3224 h -0.47716 l 0.0258,0.64481 -0.49006,-0.0258 -0.0774,0.51585 -0.38689,0.11606 -0.0138,0.58034 h -0.94143 v 0.12896 1.09619 h 0.33531 0.14185 v 0.37399 1.45728 l 0.55454,-0.0258 -0.0903,1.26383 0.3482,-0.15475 0.0387,0.18054 0.0645,1.32832 0.0258,0.47716 h 0.33531 0.12896 v 0.58034 1.86996 h 0.43847 v 1.34121 l 1.44439,-0.11606 v 0.60612 h 0.47716 v -0.60612 l 0.94143,0.10317 v 0.50295 h 2.38581 0.45137 l 0.0903,-0.60612 0.82536,0.10317 0.0137,0.50295 h 0.82537 0.12896 v -1.34121 -1.71521 l 0.18055,-0.11607 0.28372,0.11607 v -0.61902 -0.60613 l 0.37399,-0.0903 0.0903,-0.14186 v -0.19344 -1.4057 l 0.28372,-0.15475 0.19344,0.15475 v -0.92853 -0.90274 l 0.21924,-0.0258 0.72219,-0.0516 v -1.16066 l 0.55454,0.0516 -0.012,-0.23213 -0.0774,-2.87587 0.45137,-0.012 0.0258,-0.23213 v -0.99302 -0.60612 l 0.30951,-0.12897 0.15476,0.12897 v -0.99302 -1.44438 h 0.94143 v -0.61902 h 0.47716 v -0.60613 h 0.19344 0.27083 l 0.0258,-1.30252 0.91564,0.0774 0.0258,-0.54164 0.14186,-0.0774 h 0.30951 l -0.0387,-0.79957 1.66362,0.16765 0.25793,0.0258 v -0.19345 -0.19344 -0.83826 l 0.39978,-0.0258 0.0645,-0.29662 v -0.28372 l 0.49006,0.012 -0.012,-1.25094 h 0.43848 l 0.0387,-0.21924 v -0.38689 l 0.46426,-0.14185 v -0.47717 l 0.46427,-0.12896 v -0.47716 l 0.49006,-0.14186 v -0.46427 h 0.46427 l -0.0516,-0.70929 0.98012,0.0903 v -0.60527 h 0.25792 l 2.68243,-0.0516 -0.10317,0.65771 h 3.30145 v 0.61902 h 0.46427 v -0.61902 h 1.88285 v 0.61902 h 2.32134 v 1.21225 h 1.44438 v 0.47716 0.74799 l 1.00591,-0.0645 -0.0645,0.6835 0.50295,0.0903 -0.0258,0.52874 2.36002,-0.14186 -0.0138,0.74799 h 1.19935 l 0.16765,0.11607 0.0516,0.49005 h 1.77969 l 0.10317,0.61903 h 0.46426 v 0.60612 l 0.49006,0.14186 -0.0137,0.47716 h 0.41268 l 0.0516,0.61902 h 0.43848 l 0.0387,0.60613 h 0.43848 l 0.0387,0.60613 h 0.46426 v 0.61902 l 0.49006,-0.0138 -0.0138,0.18055 v 0.43847 l 0.49006,-0.0516 -0.0258,0.67061 h 0.47717 v 0.60612 l 0.96722,-0.0516 -0.0258,0.65771 h 1.0575 0.3482 v 0.21923 0.39979 l 0.41268,0.0903 0.0645,0.52875 0.3611,-0.012 0.10317,1.23805 h 0.46426 0.47717 v 0.21923 0.38689 l 0.60612,-0.10317 -0.12896,1.32832 0.54164,0.0258 -0.0774,0.58033 h 0.47716 v 3.06932 h 0.46427 v 0.60613 l 0.52874,-0.0138 -0.0516,1.84417 h 0.30951 0.15475 v 0.24503 0.99301 h 0.47717 v 4.10102 l -0.0387,0.16765 -0.43848,0.012 v 1.17356 h -0.46426 v 0.65771 h -0.59323 -0.12896 -0.21924 v 0.61903 h -0.50296 -0.23213 l -0.19344,0.0774 -0.012,0.52875 -0.90274,-0.14186 v 4.12681 0.91564 h -0.51585 v 0.37399 0.23214 h -0.72219 l -0.20634,0.0645 -0.012,0.55454 h -0.47716 v 0.60612 h -0.55454 -0.85116 l -0.0387,1.08329 -0.90274,0.14186 v 0.32241 0.28372 h -0.88984 -0.51585 v 0.18054 0.79957 l -0.0387,0.24503 -0.43848,0.0138 0.0516,2.4374 h -0.52875 v 0.83826 0.99301 0.30951 l -0.012,0.30951 h -0.45137 l 0.0645,5.48092 -0.54165,0.0387 v 1.30253 l -0.46426,-0.0903 v 0.61902 h -0.46427 -0.47716 l 0.0138,1.26384 -0.83826,-0.0258 -0.59322,-0.012 v 0.38689 l -0.0516,0.19344 -0.41268,0.0258 0.10317,1.13487 -0.58033,0.0903 0.0258,3.10801 -0.50296,-0.0516 v 0.34819 l -0.0645,0.23213 -0.39978,0.0387 0.0774,1.08329 -0.54165,0.14186 v 2.43739 h 0.16765 0.29662 v 1.23805 l 0.56743,-0.0258 -0.10317,1.85706 0.41268,0.0903 0.0645,1.13488 h 0.47716 v 1.21225 h 0.36109 l 0.10318,0.61902 -0.39979,0.0774 -0.0645,0.52875 -0.38689,0.11606 -0.0903,0.50296 h -0.32241 -0.15476 v 0.61902 h 0.19345 0.28372 v 1.21225 h -0.25793 -0.21924 v 1.28963 0.14186 0.46427 1.77968 l -0.38688,0.0258 v 0.58033 h -0.47717 -0.0645 v 0.20634 1.62493 h 0.58033 0.3482 l -0.0645,1.85707 -0.39978,-0.012 v 1.22515 h -0.46427 v 1.57334 0.25793 h -0.94143 v 0.61902 h -0.24503 -0.23213 l 0.0645,1.23805 -0.32241,-0.012 h -0.20634 v 0.37399 0.83826 h 1.4057 v 1.23804 h 0.49006 l -0.012,1.21225 0.54164,-0.0516 -0.15475,0.63192 -0.38689,0.0387 v 0.54164 h -0.79957 l -0.0903,0.12896 -0.0516,0.55454 h -0.30951 -0.16765 v 0.24503 0.3611 h 0.38689 l 0.0903,0.60612 0.55454,-0.012 -0.0903,0.63192 h 4.24288 v 0.60612 h 0.46426 v 0.61902 h 0.20634 0.27083 l -0.0258,2.4503 h 1.03171 l -0.0645,0.60612 h 2.36002 l 0.0903,-0.60612 h 0.92853 l -0.0774,-0.61902 0.46427,-0.11607 V 320.643 l 0.3353,-0.12896 0.14186,0.12896 v 0.60613 h 0.65771 0.27083 v 0.20634 0.41268 l 1.43148,-0.0516 -0.012,0.65771 h 0.41268 l 0.0258,0.3482 0.11607,0.18055 0.38689,0.0903 -0.012,0.51586 h 1.43149 v 0.6964 h 1.44438 0.43847 v 0.24502 0.374 h 1.88286 v 1.83127 l 0.49006,-0.0516 -0.0258,1.27674 h 0.42558 l 0.0516,0.60612 h 0.94143 v 0.61902 h 0.46427 v 0.61903 h 0.94143 v -0.61903 h 3.77861 l -0.012,1.22515 h 0.27082 0.20634 v 0.60613 l 0.98012,-0.12897 -0.0387,0.74799 0.96722,-0.0516 -0.0258,0.65771 h 0.68351 0.25792 v 0.21924 0.39979 h 0.99302 l -0.0516,0.60612 h 2.34712 l 0.0903,-0.60612 h 0.39978 l -0.0903,-0.79957 0.47716,0.18054 h 0.54165 v 0.20635 0.41268 h 1.05749 l -0.10317,0.60612 h 0.92853 v -0.60612 h 0.23214 1.65072 v -0.42558 -0.19345 h 0.21924 0.73509 l 0.0516,-0.72219 0.41268,0.11607 v -0.61902 l 0.94143,-0.0138 v 0.63192 h 0.47716 v 0.60612 h 0.7093 0.21924 v 0.21924 0.39979 h 0.96722 l -0.0258,0.60612 h 0.6964 0.25792 v 0.33531 l 0.0258,0.27082 0.43848,0.012 v 2.81139 l -0.0645,0.19345 -0.39979,0.0516 v 0.42558 0.56744 0.45137 0.38689 l -0.47716,-0.012 v 0.63192 l -0.45137,-0.14186 -0.11607,0.7093 -0.37399,0.0387 v 0.77378 0.45137 h 1.70231 2.06341 v 0.29662 0.30951 h 0.25792 0.21924 l -0.0258,0.51585 h 0.49005 v 0.70929 h 0.33531 0.60612 v -0.60612 h 1.00591 0.41269 l -0.0387,-0.65771 0.50295,0.0387 -0.0258,-0.65771 1.44438,0.0516 v -0.21924 l 0.0258,-3.49489 h 1.3799 v 0.64481 h 0.47716 v 0.61903 h 0.83826 l 0.0387,0.58033 -0.41268,0.0387 0.0645,1.19935 -0.52875,0.0258 v 0.60612 H 224.23 v 0.60613 h 0.47716 v 0.61902 l 0.54165,-0.10317 -0.0774,0.70929 h 0.87695 0.54164 v -0.16765 -1.05749 h 0.24503 0.21924 v -0.60613 h 0.47716 l 0.10317,-0.63192 0.36109,0.0258 -0.0516,-0.82537 0.52875,0.20634 v -0.60612 h 0.19344 0.27082 l 0.0387,-1.35411 h 0.90274 v -1.09619 h 0.32241 0.15476 l -0.0645,-0.61902 h -0.41268 v -1.40569 -0.42558 l -0.18055,-0.0774 -0.28371,0.0774 v -2.16658 -2.11499 l 0.28371,-0.10317 0.18055,0.10317 v -0.87695 l 0.0774,-0.3224 0.86405,-0.0258 v -0.63191 l 0.23212,-0.12897 h 1.18646 v 1.37991 l 0.15475,-0.0258 0.78667,0.0258 v 0.37399 0.83826 h 0.78668 0.15475 v 0.61902 h 1.88286 l 0.11607,-0.61902 0.82536,0.0903 v 0.52875 h 0.94143 0.46427 v 0.32241 0.28371 h 0.28371 0.19345 v 0.24503 0.374 h 0.28372 0.18054 v 0.60612 h -0.46426 v 0.61902 h -1.0575 l 0.10317,1.0446 0.012,0.16765 h -0.59323 -0.82536 v 0.23214 0.38689 h -0.49006 -0.24503 -0.20634 v 0.3482 0.25792 h -0.16765 -0.29662 l 0.0258,1.71521 2.3987,0.0774 1.34122,0.0387 -0.0258,-0.64481 1.44438,0.0387 0.0258,-0.43847 0.90274,-0.16766 v -0.61902 h 0.47717 v -0.36109 -0.24503 h 0.19344 0.27082 v -0.3611 -0.25793 h 0.39979 1.0188 l 0.0387,-0.6835 h 0.90274 v -0.52875 l 0.37399,-0.0645 0.10317,-0.23213 v -0.32241 h 0.7093 1.17356 l 0.0258,-0.52875 0.16765,-0.0774 h 2.16657 v -0.3611 -0.25793 h 0.88985 l 0.49006,-0.14185 0.0258,1.367 h 0.46426 v 0.61902 h 1.88286 v -0.61902 h 1.88286 v -0.60612 h 0.95433 v -0.61903 h 0.94142 l 0.0903,-0.72219 2.25685,0.11607 v -0.61902 h 0.28372 0.65771 v -0.39979 -0.20634 l 0.51585,-0.10317 -0.0387,0.7093 h 1.76679 l 0.11607,0.61902 h 0.94143 l 0.0387,3.1338 -0.51586,-0.0774 0.0774,0.46427 -0.54164,0.14185 v 1.13488 l -0.72219,0.0645 -0.21924,0.0258 0.0258,0.38689 0.0258,0.27082 -0.52874,-0.0387 v 0.92854 0.16765 h -0.0774 -0.3482 l -0.0387,0.73509 h -0.99301 v 1.0188 l -0.0258,0.18055 -0.39978,0.0258 v 1.32832 0.20634 l -0.0258,0.28372 -0.43848,0.0138 v 2.36002 l -0.95432,0.0903 0.0387,0.64482 -0.50296,-0.0387 v 0.55454 l -0.78667,0.0516 -0.10317,0.10317 -0.0516,0.51585 h -0.15475 l -0.32241,-0.0258 0.012,0.64482 h -0.95433 v 0.61902 l -0.72219,-0.10317 -0.23213,-0.0258 0.012,0.7222 h -2.56636 -0.25792 v 0.61902 h -0.94143 v 0.60612 h 0.94143 v 0.61903 h 0.47716 v 0.61902 h 0.94143 v 0.60612 h 0.74798 0.19345 v 0.20634 0.29662 0.10317 l 1.41859,-0.11607 -0.012,0.73509 h 0.95433 v 0.60613 h 0.46426 v 1.22514 h 0.56744 v 0.60613 h -0.56744 v 0.61902 h 0.47717 v 0.60613 h 0.46426 v 0.61902 h 0.46427 v 0.60612 h 0.47716 v 0.60613 h 1.0575 l -0.0774,0.45137 v 0.15475 l -0.50296,0.012 v 1.22515 l 0.58034,-0.0258 -0.11607,4.83611 -0.46427,0.0774 0.0258,1.32832 -0.98012,-0.10317 0.0903,0.6706 -0.55454,-0.0516 v 0.60612 h -0.46426 l 0.0903,0.16766 -0.0903,0.45137 -0.85116,-0.0516 h -0.10317 l 0.012,-1.17356 h -0.38644 -0.56744 l 0.0516,1.25094 -0.51586,-0.0258 v 1.16066 l -0.47716,0.0516 v 0.56743 l -0.94143,0.0516 v 0.38689 0.21923 h -0.24503 -0.6964 l 0.0516,0.60613 -0.51585,0.012 v 0.60612 l -0.83826,-0.0774 -0.15476,-0.0138 0.0516,0.6964 h -0.47716 v 0.61902 h -0.38689 -0.54165 v 1.84417 h 0.46427 v 0.59323 h 0.32241 0.14186 v 0.28372 l 0.012,1.57334 1.4057,-0.012 v -0.30951 -0.29662 h 0.65771 l 0.23213,-0.15475 0.0516,0.76088 0.60612,0.0516 -0.14186,0.56744 h 3.67545 1.50886 v 0.23213 0.3611 h 0.94143 v -0.3611 -0.23213 h 0.41268 0.52875 l 0.0645,-0.49006 0.16765,-0.12896 h 0.24503 l -0.0387,-0.63192 0.98012,0.0258 v 1.22515 h 0.67061 0.73509 v 0.21924 0.37399 h 0.98011 0.43848 v 0.18055 0.43847 l 1.0317,-0.0387 -0.0903,0.65771 h 0.46426 v 0.60613 h 0.47717 v 4.88769 l 0.50295,0.0387 -0.0387,0.58033 h 0.47716 v 1.22515 h 0.47717 v 0.60612 h 1.08328 0.32241 v 0.23214 0.38689 h 0.94143 v 0.60612 h 0.94143 v 0.60613 h 0.47716 v 0.19344 0.42558 l 0.50296,-0.12896 -0.0387,0.73508 h 1.41859 v 0.61903 l 0.56744,0.0903 -0.10317,0.51585 h 0.47716 v 1.22515 l 0.56744,0.012 -0.10317,0.60612 h 0.28371 0.19345 v 0.60613 h 0.46426 v 0.37399 0.24503 l 0.19345,-0.0903 0.28372,0.0903 v 0.42558 0.78667 h 0.41268 l 0.0516,1.22515 h 0.24503 0.23214 v 0.61902 h -0.47717 v 1.21225 h -0.30951 l -0.15475,0.0516 v 0.56744 l -1.31542,-0.14186 -0.10317,0.74799 0.49005,-0.012 -0.012,1.23804 h 0.46426 v 0.60613 h 0.47717 v 0.61902 h 0.46426 v 0.60613 h 1.41859 v 0.61902 l 0.51586,0.012 -0.0516,0.59323 h 0.19345 0.28371 v 1.18646 1.26384 h 0.29662 0.16765 v 0.3353 0.88985 h 0.47716 v 0.16765 0.43847 h 0.38689 l 0.0774,0.60613 h 0.37399 l 0.10317,1.22514 0.49006,-0.11606 -0.0258,1.94734 0.50295,-0.0516 -0.0258,0.67061 h 0.46427 v 0.60612 h 0.47716 v 0.61903 h 0.99301 v 1.83127 h -0.52874 v 2.4374 h 0.52874 l -0.0258,0.25792 -0.0258,0.3611 -0.95433,-0.0645 0.012,0.6706 h -0.43847 -0.50296 v 1.84417 h -0.47716 v 0.60613 h 0.88984 l 0.0516,0.60612 h 0.42557 l 0.0516,0.61903 0.99301,-0.20635 -0.0516,0.81247 h 0.36109 l 0.11607,0.61902 h -0.21924 -0.25792 l 0.0516,1.26384 -0.52874,-0.0516 v 1.22515 l 0.52874,0.0258 -0.0516,2.42451 0.36109,-0.12897 0.0645,0.15476 0.0387,0.63192 -0.46427,-0.0516 v 0.61902 l -0.99302,-0.012 v 1.19935 l -0.42557,0.0258 v 1.50887 0.3353 h 0.0774 0.3482 l 0.0516,1.21225 0.46427,0.012 v 0.43847 l 0.11606,0.10317 0.3611,0.0645 v 1.22514 h -0.47716 v 0.60611 h -0.47717 l 0.012,1.22515 0.25793,-0.0395 0.20634,0.0395 v 0.77378 l 0.11606,0.39978 h 1.7539 l 0.012,0.65771 h 0.47717 v 1.83127 h 0.94143 v -0.60612 h 0.21923 2.60505 v 0.38689 0.21923 h 0.21924 0.25793 v 0.25793 0.3611 l 0.3353,-0.0172 0.11607,0.0516 0.012,0.56743 0.90274,-0.0911 0.0387,0.70929 h 2.59215 l 0.21924,0.0516 0.012,0.55454 h 2.36002 v 0.60612 h 1.40569 v 0.61903 l 0.51586,0.0172 -0.0387,0.59323 1.3799,-0.0516 0.0258,0.6706 0.98012,-0.0172 -0.0387,1.22514 0.38689,-0.14099 0.0258,0.16679 0.0645,1.81837 h 1.88286 l -0.012,-0.64481 0.95433,0.0258 v -0.60612 h 1.4057 v 0.58033 0.64481 h 2.36002 l 0.0387,-0.64481 0.43848,0.0258 -0.0258,-1.367 h 1.43148 v 0.76088 l 0.54165,0.0516 -0.0645,0.55454 0.96722,-0.0894 -0.0138,0.61902 -0.012,0.6964 -0.15476,-0.0395 -0.32241,0.0395 0.012,1.30252 -0.47716,-0.0774 v 0.60612 h 0.46426 v 0.61902 l 0.86405,0.0911 0.0774,0.51585 h 0.47716 v -0.60613 h 0.94143 v 0.28372 0.32241 h 1.37991 l 0.0387,0.61902 h 0.3611 l 0.10317,0.60613 h 0.21924 0.25792 l -0.0516,0.51585 0.51585,0.0911 v 0.29662 0.3224 h 0.27082 0.19345 v 0.51585 l 0.94143,0.10317 v 0.60613 l 1.80548,-0.0516 0.0903,0.65771 h 1.61204 l 0.24502,0.15475 0.0258,0.45137 1.43149,-0.0516 -0.0258,0.6706 h 0.99302 0.42557 v 0.27083 0.3353 h 1.72811 l 0.15475,0.0258 v 0.59323 h 2.34713 v 1.7281 h -0.55454 l 0.0903,0.7093 -0.85115,0.0636 -0.0903,0.24503 -0.0774,0.19344 -0.39978,0.11521 v 1.22515 h 0.39978 l 0.0774,1.21225 h 2.34713 l -0.14186,-0.6835 0.61902,0.0774 0.10317,-0.60612 h 0.36109 l -0.0516,-0.81247 1.00591,0.19345 0.0258,-0.7222 0.91564,0.11521 v 0.3482 0.25793 h 0.19344 0.27082 l -0.0258,0.61902 h 1.90865 v 0.60612 h 0.94143 v 1.22515 l 0.55454,-0.0911 -0.0774,0.6964 h 1.30253 0.58033 v 0.24503 0.37399 h 1.4057 v -0.37399 -0.24503 h 0.94143 v 0.3353 0.28372 l 1.41859,-0.0172 v 0.61903 h 2.34712 v -0.60613 h 0.25793 1.62493 v 0.42558 l 0.0387,0.16679 0.43847,0.0172 v 1.83128 l -0.12896,-0.12897 -0.3482,0.12897 0.0387,1.08329 -0.50296,0.14099 v 1.19936 h -0.54164 l 0.0645,0.63192 -0.95432,-0.0395 v 0.15475 l 0.0137,0.50296 h -0.94143 v 0.60612 h -0.46426 v 0.60613 h -0.74799 -0.19344 v 1.23804 1.21225 h -0.19345 -0.28371 l 0.0645,1.23805 -0.52875,-0.0258 v 0.55454 0.6706 h -1.88286 v 0.61902 l -0.3611,-0.0395 -0.11606,0.64481 h -1.17356 -0.23214 v 1.22515 h 0.49006 0.23214 l 0.19344,0.0911 0.0258,0.51585 h 0.46427 v 0.61902 l 0.42558,-0.0172 v 0.24503 l 0.0387,2.03761 0.012,0.16851 0.98012,-0.16851 -0.0387,0.78668 h 0.3482 0.11607 v 3.05642 h 0.47716 v 0.23213 0.37399 l 0.43847,-0.15475 0.0258,0.77377 h 0.47716 v 0.60613 l 0.54164,-0.0258 -0.0774,0.63191 h 1.68942 0.6706 v 0.27083 0.3353 h 0.16766 0.29661 l -0.0645,0.50296 h 2.88877 v 0.72219 h 0.6964 0.24503 v 0.21923 0.39979 h 0.92853 l 0.0258,0.60612 h 0.45137 l 0.0138,0.60613 h 0.45137 l 0.0258,0.61902 0.38689,-0.0911 0.0774,0.6964 h 2.36002 v -0.6964 h 0.46426 v 0.6964 l 0.50296,-0.0258 -0.0258,0.64482 h 0.3224 0.14186 v 0.60612 h 0.47717 v 0.60613 h 0.94142 v -0.60613 h 0.46427 v -0.16851 -0.43847 h 0.78667 0.63192 v -0.37399 -0.24503 h 0.25793 0.6835 l 0.0903,-0.6964 1.7281,0.18055 0.0645,0.51585 h 0.37399 l 0.0903,0.61902 h 0.95432 v -0.37399 -0.24503 h 1.86996 v 0.24503 0.37399 l 0.55454,-0.11521 -0.0774,0.72219 0.88984,0.10317 0.0516,0.50296 0.38689,0.0774 0.0903,0.54164 0.15475,-0.0516 h 1.25094 v 0.65771 h 0.47716 v 0.61902 h 2.7856 l 0.0387,0.60612 h 5.223 2.30843 v 0.24503 0.3611 h 2.25685 1.0446 v 0.16851 0.45137 h 1.0575 l 0.30951,0.141 0.0387,0.46427 h 0.47716 v 0.61902 h 0.46427 v 0.60612 h 0.47716 v 0.61903 h 0.94143 v 0.60612 l 0.51585,0.0172 -0.0516,0.59323 h 0.46427 v 1.22514 h 0.61902 0.33531 v 0.61903 h 2.82428 v -0.6964 h 0.15476 1.75389 l -0.0258,0.6964 h 0.7093 0.23213 v 0.23213 0.37399 h 0.92853 l 0.012,0.60613 h 1.0446 0.37399 v 0.21923 0.39979 h 0.74799 l 0.15475,0.0774 0.0258,0.52874 h 0.88985 l 0.0645,0.60613 h 0.46426 v 0.61902 h 0.94143 v 0.60613 h 0.39979 l 0.0387,0.28371 0.0387,0.32241 h 0.46426 v 0.61902 l 0.56744,-0.0172 -0.0903,0.61902 h 0.77377 l 0.10317,0.10317 0.0645,0.51585 h 1.4057 v -0.29661 -0.32241 h 0.6835 l 0.23214,-0.10317 0.0258,1.32832 0.52875,-0.0911 -0.0516,0.6964 h 0.42558 l 0.0387,0.61902 h 0.29661 0.18055 v 0.38689 0.83826 l 0.38689,0.141 0.0774,2.29554 0.39978,-0.15475 0.0774,0.77377 h 0.42558 0.51585 v 0.32241 0.28372 l 0.49006,-0.0911 -0.0258,1.30253 h 0.46427 0.47716 v 0.41268 0.20634 h 0.24503 0.23214 v 0.19345 0.41268 h 0.15475 0.32241 l -0.0645,0.61902 h 1.0317 l -0.0387,0.60612 h 0.94143 v 0.60613 h 0.39978 l 0.0774,0.61902 h 0.42558 l 0.0387,0.60613 h 0.32241 0.15475 v 0.47716 l 0.47716,0.0516 0.94143,0.0911 v -0.37399 -0.24503 h 0.33531 0.60612 v -0.41269 -0.19344 h 0.27082 l 0.11607,-0.0911 0.0774,0.6964 h 0.99301 0.42558 v 0.24503 0.37399 h 0.81247 0.12896 v 0.60612 h 0.46427 v 1.83128 h 1.41859 v 1.22514 l 0.43847,-0.141 0.0387,1.35411 0.37399,-0.0172 0.0903,1.23804 0.52874,0.10317 -0.0645,0.51585 h 0.15476 0.3224 l -0.0903,1.23805 0.55454,-0.0258 v 0.3353 0.28372 h 0.19345 0.28371 v 1.54755 l -0.0258,0.28372 h -0.45137 v 3.67544 h 0.16765 1.71521 v 0.59323 h 0.47716 v 1.22515 h 0.18055 1.22515 v -0.41268 -0.19345 h 1.88285 v 0.19345 0.41268 h 0.92854 l 0.0258,1.22515 h 0.3611 l 0.10317,2.45029 h 0.55454 v 0.60613 h -0.55454 v 0.61902 h 0.46426 v 0.60612 h 0.3611 l 0.11607,0.60613 h 3.03062 l 0.29662,0.0653 -0.0387,0.55454 h 1.67652 0.6964 v 0.23213 0.374 l 0.94142,-0.0172 v 3.67544 h 0.45137 l 0.012,0.61902 h 0.94143 v 0.60613 h 0.3482 l 0.11607,0.60612 h 0.47716 v 0.90274 0.94143 h -0.15476 -0.3224 v 3.41752 l -0.0774,0.83826 0.55454,0.0172 v 0.28372 0.32241 h 0.20634 0.25792 v 1.43149 1.62493 h 0.29662 0.18055 v 0.29661 0.32241 h 0.58033 l -0.10317,0.60613 2.47609,-0.0774 -0.12897,1.30252 h -0.16765 -0.29661 v 0.51586 0.69639 l -0.43848,0.0396 v 0.58034 h -0.50295 v 1.22514 h 0.50295 v 0.47717 l -0.50295,0.12896 v 0.60612 h 0.46427 v 1.22515 h 0.3482 v 3.67544 l 1.07039,-0.0172 v 0.55454 0.67061 h 4.19129 l 0.50296,0.0774 0.012,0.52875 h 0.46427 v -0.47716 l 0.94143,-0.12896 v 0.60612 h 0.38689 l 0.0903,0.61902 0.20634,-0.15475 0.25793,0.15475 v 0.51585 l 0.94143,0.11693 v 1.19936 l 0.50295,-0.0172 -0.0258,1.84417 h 0.43847 l 0.0258,0.60612 h 0.24503 1.17357 v 0.3611 0.25793 h 0.24503 0.21923 v 0.58033 l 1.0446,0.0172 -0.0903,0.61903 0.49006,-0.0258 -0.0258,0.63192 0.49006,-0.0172 -0.012,0.63191 0.49005,-0.10317 -0.0258,0.7093 h 0.19345 0.28371 v 0.61902 h 0.46427 v 0.28372 0.32241 l 0.43847,-0.0516 0.0258,0.65771 h 0.47716 v 0.61902 l 0.52875,-0.0636 -0.0645,0.67061 h 0.15475 0.32241 v 1.59914 0.23213 h 0.92853 l 0.0138,1.52176 v 0.30952 h 1.41859 v 0.61902 h 0.46427 v 1.21225 h 0.49005 l -0.0137,0.61902 h 0.27082 0.19344 v 0.47716 0.74799 l 0.27083,-0.0911 0.20634,0.0911 v 0.3353 0.87695 h 0.39978 l 0.0645,1.22515 h 0.47717 v 0.60612 h 0.47716 v 1.22515 h 0.39978 l 0.0645,3.66254 h 0.59322 l 0.32241,0.0516 0.0258,0.55454 h 0.46427 v 1.84417 l 0.54164,0.12896 -0.0645,0.47716 0.96722,-0.12896 -0.0258,1.35411 h 0.46427 v 1.22515 h 0.47716 v 0.59323 l 0.56744,-0.0395 -0.10317,0.65771 0.50295,-0.0396 -0.0258,0.64482 h 0.28372 0.18055 v 1.09618 1.35411 h -0.46427 v 5.5454 l -0.87695,0.0516 -0.0645,0.51585 h -0.42558 -0.51585 l 0.012,0.61902 -0.49006,-0.0258 v 0.82536 0.16679 l -0.0774,0.15476 -0.18055,0.0378 -0.20634,0.0395 v 0.64481 0.58033 h -0.24503 -0.23213 v 0.60613 h -0.49006 v 0.60612 h -0.45137 v 0.24503 0.15476 0.21924 l -0.42558,-0.0395 h -0.0645 l 0.0258,0.64481 h -0.42558 v 0.52875 l -0.25793,0.0516 -0.25792,0.0395 v 1.25094 l -0.94143,-0.0378 v 0.61903 h -0.3482 -0.12896 v 0.55454 0.6706 l -0.14186,-0.0653 h -0.61903 l -0.18054,0.0516 v 0.61902 l -1.43149,-0.0258 0.0258,0.63191 h -0.72219 l -0.19345,0.0774 -0.0258,0.52875 -0.88984,-0.141 v 1.34121 l -0.52875,0.0258 v 2.95325 0.54164 1.3928 l -0.19344,-0.0774 -0.28372,0.0774 v 3.482 0.46426 l -0.0516,0.30951 -0.41268,0.0172 v 1.22515 h -0.46426 v 0.19344 0.42558 h -0.45137 -0.0774 -0.41268 v 2.72112 0.3224 l 0.49006,0.0258 -0.0258,0.59322 h 0.28372 0.19345 v 0.46427 0.74799 l 0.28371,-0.0653 0.18055,0.0653 v 1.76679 1.28963 h 0.12896 l 0.81247,-0.0258 v 0.63192 h 1.35411 0.52875 v 0.29662 0.3224 h 0.81246 l 0.21924,0.0774 -0.0645,0.79957 0.012,0.3482 h -0.50296 v 1.81838 l 0.55454,0.1152 -0.0774,0.50296 h 0.45137 l 0.012,0.60612 h 0.45137 l 0.012,0.60613 h 0.46426 l 0.012,2.45029 h 0.39978 l 0.0645,1.21225 h 0.27082 0.20634 v 0.78668 l 0.10317,0.41268 0.83826,0.0258 v 0.29662 0.30951 h 0.3482 l 0.12896,0.61902 h 0.28372 l 0.0903,0.11693 0.0903,1.09618 h 0.46426 v 1.84417 h 0.43848 l 0.0387,0.60612 h 0.46426 v 1.21226 l 0.54165,0.0516 -0.0645,0.56744 h 0.94143 v 1.22514 h 0.77378 0.16765 v 0.59323 h -0.19344 -0.28372 v 4.5395 l -0.0903,0.30951 -0.374,0.0395 v 1.14777 0.6835 h -0.20634 -0.27082 v 0.21924 0.39978 l -0.39978,-0.0774 -0.0645,4.96507 0.374,-0.12896 0.0645,0.141 0.0258,1.80548 h 0.72219 0.21924 v 0.47716 0.74799 h 0.30951 0.16765 v 0.28372 0.94142 l 0.56744,0.0258 -0.10317,1.80548 h -0.94143 v 0.3353 l -0.0774,0.23213 -0.38689,0.0395 v 0.61902 h -0.47716 v 1.81838 h 0.47716 v 0.61902 h 0.30951 0.15476 v 0.6964 l 0.47716,-0.0911 v 0.28372 0.3353 l 0.56744,-0.11521 -0.10317,0.7222 h 0.47716 v 0.60612 h 0.46427 v 0.60613 l 0.49006,-0.0172 -0.012,0.63192 0.39978,0.0774 0.0774,1.13487 h 0.46427 v 0.61902 l 0.51585,-0.0172 -0.0516,1.22514 h 0.27082 0.20634 v 0.65771 1.79259 l 0.52875,-0.141 -0.0516,13.56689 h -0.27082 -0.20634 v 0.60613 l -0.51585,-0.0911 v 1.34122 l -0.42558,-0.0258 v 0.73508 0.47717 h -0.28372 -0.18055 v 0.28372 0.3353 h -0.23213 -0.24503 v 0.3353 0.27082 h -0.47716 v 3.66255 l 0.50295,-0.0396 -0.0258,1.86996 0.38689,0.0774 0.0903,1.14777 0.58034,-0.0172 -0.11607,1.83127 0.42558,-0.0911 0.0387,0.7093 h 0.47716 v 1.22515 l 0.52875,-0.0516 -0.0516,1.86996 0.3482,-0.12896 0.16765,1.41859 -0.51585,-0.0653 v 0.60613 h -0.47716 v 0.60612 h 0.47716 v 0.61902 h 0.46427 v 0.60613 h 1.41859 v 0.61902 l 0.54164,-0.11693 -0.0774,0.7222 h 0.46427 v 0.60612 h 0.49006 v 0.60613 h 0.46427 v 0.61902 h 0.46426 v 0.60613 l 0.56744,-0.0774 -0.10317,0.6835 h 0.49006 v 0.61902 h 0.46426 v 1.21225 h 0.50296 v 1.09619 h 1.34121 l 0.0387,1.35411 h 0.27082 0.19345 v 0.3224 0.88985 l 0.52875,-0.0172 -0.0516,0.61903 h 0.74799 l 0.12896,0.12896 0.0645,0.49006 h 0.27082 0.19345 v 0.50295 l 0.47716,0.10317 v 0.30951 0.29662 h 0.20634 0.27082 v 0.61902 1.21225 l 0.50296,-0.0395 -0.0387,1.26384 h 0.46426 v 4.87479 l 0.52875,-0.0172 -0.0516,1.85707 0.51585,-0.0774 -0.0387,0.6706 h 0.46427 v 0.61903 h 0.46426 l 0.012,1.22514 h 0.56744 v 1.14777 l 0.83825,0.0653 v 0.27083 0.3353 h 0.30951 0.16766 v 0.37399 l 0.0774,0.18055 0.85116,0.10317 v 1.18646 l 0.58033,-0.0395 -0.10317,1.85707 h 0.49006 l -0.0138,1.22514 h 0.45137 v 0.20634 l 0.012,0.41268 h 1.50887 l -0.0903,0.59323 h 0.47717 l -0.012,0.61903 0.47716,-0.0172 -0.012,0.61902 0.50296,-0.0774 v 1.34122 l 0.45137,-0.0395 v 0.32241 0.28372 h 0.27082 0.19345 v 0.3353 0.88984 l 0.51585,-0.0395 -0.0387,1.25094 h 0.25792 0.21924 v 3.66255 l -0.21924,-0.10317 -0.25792,0.10317 v 3.18538 0.47716 h 0.0903 0.16765 0.21924 v 1.83128 h -0.21924 -0.25792 v 1.31542 0.19344 0.32241 h -0.47716 v 1.22515 0.36109 2.68243 l 0.50295,-0.0172 -0.0258,1.23804 h 0.3611 l 0.11606,0.60613 h 0.20634 0.12897 0.12896 v 0.45137 0.76088 l 0.47716,-0.0172 -0.012,0.63192 0.49006,-0.0258 -0.0258,0.63191 0.46427,-0.15475 0.012,1.3799 h 0.29662 0.18055 v 0.42558 1.3928 l 0.54164,-0.11521 -0.0774,0.73509 h 0.47716 v 0.60613 h 0.52875 l -0.0645,0.61902 h 0.21924 0.25792 v 1.09618 l 1.0446,0.0258 -0.10317,3.1338 h -0.3224 -0.14186 v 0.61902 h -0.46427 v 1.0704 l -0.49006,0.14271 0.012,0.12897 0.0516,2.81139 h 1.35411 1.44439 l -0.0387,0.72219 h 2.83718 v 0.60613 l 0.51585,0.0172 -0.0516,0.59323 h 0.23213 0.24503 l -0.012,0.74798 0.47717,-0.12896 v 0.3353 0.27083 l 0.45137,-0.0774 0.0258,0.6964 h 0.46427 v 1.21225 l 0.54164,-0.16679 -0.0645,1.3928 0.47716,-0.0516 v 1.34122 l 2.81139,-0.0654 v 0.45137 l 0.18055,0.0516 0.16765,0.0516 0.11607,0.065 0.0138,0.5933 h 0.43848 v 0.6061 h 0.50295 v 0.3095 0.3095 h 0.19345 0.27082 l -0.0387,0.7093 0.98012,-0.1032 v 0.6062 h 0.94143 v 0.6061 h 1.41859 v 0.6061 l 0.49006,0.026 -0.0258,0.5932 h 0.47717 v 0.6062 h 0.43847 l 0.0258,0.619 1.90865,-0.1169 -0.012,0.7093 h 2.34712 v 0.619 l 0.54165,0.052 -0.0774,1.1735 h 2.83718 v 0.6061 l 0.95433,-0.026 -0.0138,0.6319 h 1.09618 l 0.27083,0.141 0.0387,0.4642 h 1.41859 v 0.6191 h 0.46426 v 0.6061 l 0.99302,-0.091 -0.0387,0.6964 h 3.22407 l 0.0645,0.619 0.47716,-0.017 -0.012,0.619 h 1.45728 l 0.39978,0.1169 0.0387,0.4901 1.30253,-0.077 0.10317,0.077 v 0.619 h 0.78667 l 0.14186,0.1032 0.012,0.5029 h 1.25094 0.16765 v 0.6062 h 0.6835 0.25793 v 0.2192 0.3998 l 1.88286,-0.026 v 0.619 l 1.84416,-0.039 0.0387,0.6577 h 0.46427 v 0.6061 l 0.54164,0.065 -0.0645,0.5546 h 1.88286 v 0.6061 l 0.55454,0.052 -0.0774,0.5545 0.96722,-0.091 -0.0387,0.6964 h 0.6706 0.28372 v 0.3095 0.3095 l 0.42558,0.064 0.0387,0.5417 0.42557,-0.1032 0.0516,0.7093 h 0.94143 v 0.6061 l 0.3482,0.017 0.11606,1.2123 h 0.29662 0.18055 v 0.2579 0.9672 l 0.50295,-0.026 -0.0387,1.2381 0.374,0.064 0.10317,2.3858 h 0.46426 v 0.5932 l 0.47717,0.017 v 0.6062 l 2.85007,-0.1032 -0.0258,0.7093 0.99302,-0.091 -0.0516,0.6964 h 0.46427 v 0.619 l 0.42557,-0.026 0.0516,0.6319 h 0.46427 v 0.6061 l 0.99301,-0.1031 -0.0516,0.7093 h 0.47716 v 0.619 h 1.22514 l 0.14186,0.245 0.0387,0.3611 h 0.42558 l 0.0516,0.619 h 0.46426 v 0.5932 h 0.87695 l 0.0774,1.2252 0.25792,-0.1548 0.16765,0.2193 0.0387,0.5416 h 0.38689 l 0.0903,0.619 h 0.56743 0.374 v 0.3353 l 0.0516,0.2451 0.41268,0.026 v 1.1606 l 0.47716,0.052 v 0.2193 0.3997 h 0.27083 0.19344 v 0.4127 0.8125 h 0.43847 l 0.0387,0.5932 h 0.42558 l 0.0387,1.2252 0.54164,-0.026 -0.0645,2.4632 h 0.46427 v 1.2251 l 0.46426,-0.065 0.012,0.6706 h 1.93444 0.88985 v 0.2579 0.3611 h 2.34712 v -0.3611 -0.2579 h 0.60613 0.81246 l 0.0258,-0.5417 0.20634,-0.1289 4.01074,0.065 0.0258,-0.4643 2.32134,-0.141 0.0516,-0.6706 0.88985,0.052 v -0.6061 h 0.15475 l 2.20527,0.026 v 0.5803 h 2.34712 v -0.6061 h 0.14186 0.79957 v -0.3095 -0.2966 h 1.76679 4.35895 v -0.63187 l 0.58033,-0.077 -0.10317,0.7093 h 1.59914 l 0.24503,0.1152 0.0387,0.49 h 3.76571 v -0.3869 -0.2192 h 0.73509 1.35411 1.21223 v 0.2192 0.3869 l 0.98012,0.026 -0.0516,0.5804 h 1.7152 l 1.12198,-0.04 v 0.6577 h 3.19828 l 1.05749,0.141 -0.0258,0.4643 1.89576,-0.1169 -0.012,0.7222 2.90166,-0.141 -0.0774,0.7608 h 0.46426 l 0.012,0.5933 0.94143,-0.017 v 1.2122 h 1.0446 l -0.10317,0.6448 0.90274,0.064 0.0387,0.5416 0.47716,-0.017 -0.0138,0.619 0.45137,-0.1169 0.0258,0.7222 h 0.46426 v 0.619 h 0.43848 l 0.0387,0.6061 h 0.46427 v 0.6062 l 0.86405,0.141 0.0903,0.4771 1.43148,-0.141 -0.0258,1.3541 h 0.46427 v 0.6062 h 0.47716 v 0.619 h 0.47716 v 0.6061 l 0.47717,-0.064 -0.0138,0.6706 h 0.94143 v 0.6061 h 2.29554 l 0.0645,0.619 3.85599,-0.1547 -0.0903,0.7609 h 1.17357 l 0.18054,0.1289 0.0516,0.4772 1.3799,-0.026 0.0387,0.6448 h 1.88286 v -0.619 h 0.14186 0.3353 l -0.0903,-0.6577 2.33423,0.026 2.46319,0.026 v 0.1805 0.4256 l 4.24287,-0.052 -0.0137,0.6706 1.89575,-0.1032 -0.0137,0.6964 h 2.10209 l 0.29662,0.1032 -0.0387,0.5159 2.72111,-0.117 0.10317,0.7222 h 1.72811 0.63191 v 0.2193 0.3998 h 0.95433 l -0.012,0.6061 h 0.94143 v 0.6061 h 0.94143 v 0.6061 l 0.95433,-0.026 -0.0138,0.6449 h 0.67061 0.27082 v 0.245 0.3611 h 1.18646 l 0.14186,0.038 0.0774,0.5674 h 1.88286 v 0.6191 h 2.33423 l 0.46427,0.141 0.0258,0.4513 1.31542,-0.039 0.10317,0.6577 h 0.47716 v 1.2251 h 0.14186 l 2.69533,-0.141 -0.0138,0.748 1.43149,-0.1031 -0.0258,0.7093 h 0.94142 v 0.6061 l 1.3928,-0.2193 0.0258,0.8254 0.88984,0.129 0.0516,0.49 0.96722,-0.141 -0.0258,0.748 h 1.96024 l 0.3611,0.141 0.0258,0.4772 1.53466,0.017 -0.11607,0.5803 h 1.4057 v 0.619 h 0.47716 v 0.6062 h 0.94143 v 0.619 h 0.42557 l 0.0516,0.6061 h 0.76088 l 0.14186,0.077 0.0387,0.5287 h 0.46426 v 0.6062 h 0.91564 l 0.0258,0.6061 h 0.94143 v 0.619 h 0.94143 v 0.6061 h 2.36002 v 1.2123 h 0.43848 l 0.0258,0.619 h 0.20634 2.61795 v 0.3353 0.2708 h 0.47716 v 0.6061 h 0.91563 l 0.0258,0.6191 1.45728,-0.091 -0.0387,0.6964 h 0.46426 v 0.6062 h 0.46427 v 0.6061 h 0.47716 v 0.619 h 0.46427 v 0.6061 l 0.54164,-0.052 -0.0645,0.6578 0.49006,-0.026 -0.0138,0.6319 h 0.38688 l 0.0774,0.619 h 0.25793 0.21923 v 0.3869 0.2192 h 0.27083 l 0.14186,0.1032 0.0516,0.503 0.56744,-0.026 -0.10317,0.6448 h 0.72219 0.23213 v 0.2192 0.3869 h 0.21924 0.24503 v 0.4514 l 1.05749,0.04 -0.11606,0.7222 h 0.83826 l 0.10317,0.6061 0.96722,-0.1289 -0.0258,0.748 h 0.94142 v 0.6061 h 1.4186 v 0.6061 l 0.99301,-0.1169 -0.0516,0.7351 h 0.46426 v 0.6061 l 0.56744,0.038 -0.0903,0.5675 h 0.46427 v 0.619 h 0.47716 v 0.6061 h 0.46427 v 0.6061 l 0.51585,-0.026 -0.0387,0.632 h 0.47716 v 0.6061 l 0.42558,-0.129 v 1.3412 h 1.44439 v 0.6191 l 0.98011,-0.017 -0.0258,1.238 0.29654,-0.1032 0.1806,0.052 -0.014,0.6577 h 0.9415 v 1.2252 l 0.5416,-0.1935 -0.064,1.4057 0.4772,-0.065 -0.014,1.2896 h 0.3095 0.1677 v 0.4514 0.7609 h 0.2708 0.1935 v 0.5674 0.6448 h -0.4643 v 0.619 h 0.4643 v 1.2252 l 0.5545,-0.04 -0.077,2.4761 0.5675,-0.1031 v 1.9215 h -0.5675 v 0.6061 h 0.9414 v 0.6191 h 0.9415 v 0.6061 h 0.2321 0.2321 l -0.026,-0.6706 h 2.3859 v 0.6706 h 1.3928 l 0.012,0.6061 h 0.9414 v 0.6061 h 0.6577 0.2838 v 0.258 0.3482 h 0.9027 0.5158 v 0.1934 0.4256 l 2.3214,-0.026 0.039,0.6319 h 2.6695 l 0.6061,0.141 0.014,0.4772 h 0.5416 0.3998 v 0.3353 0.2579 l 0.1806,-0.1032 0.2966,0.1032 v 1.5347 0.3095 h 1.0704 l 0.3224,0.091 0.012,0.5159 h 0.4772 v 0.6061 l 1.857,-0.077 0.026,0.6835 h 1.7152 0.632 v 0.245 0.3611 h 1.5346 1.7668 v 0.4256 l 0.064,0.141 0.3998,0.052 -0.039,0.7609 0.9801,-0.1548 0.064,-0.374 -0.064,-0.2321 h 2.8372 v 0.2321 0.374 h 0.4642 v 0.6061 h 1.4186 l -0.026,-0.49 0.1548,-0.026 0.3353,-0.091 -0.052,-0.7738 1.9345,0.1685 v -0.619 h 0.1289 l 6.9382,0.052 v 0.5674 h 1.1607 l 0.2063,0.1152 0.039,0.4901 h 0.877 l 0.077,0.6061 1.8829,-0.052 v 0.6577 l 0.5159,-0.077 -0.052,0.6835 h 1.4186 v 0.6191 h 1.0833 0.3224 v 0.2708 0.3353 h 0.7479 l 0.1806,0.091 0.014,0.5288 2.3601,-0.064 v 0.6706 l 1.4315,-0.052 -0.026,0.6577 0.9543,-0.017 -0.014,0.619 h 0.4772 v 0.6061 l 0.9543,-0.038 -0.012,0.6577 1.4186,-0.04 v 1.2509 h 0.1289 0.7996 v 0.6061 l 1.8829,-0.064 0.012,0.6835 h 1.8829 v 0.6061 l 0.49,0.052 -0.026,1.1736 h 0.2966 0.1806 v 0.2192 0.374 l 0.8898,-0.026 0.052,0.6448 h 0.7738 l 0.1161,0.091 0.052,0.5158 h 0.6964 l 0.1935,0.129 0.052,0.49 0.4513,-0.1289 0.014,0.7351 0.5416,-0.117 -0.064,0.7222 h 0.7608 l 0.1161,0.1032 0.064,0.503 h 0.3095 0.1548 v 0.361 l 0.09,0.1935 0.8512,0.1685 v 0.503 h 0.4772 v -0.6191 h 1.4185 v 0.6191 l 1.3671,-0.1032 0.039,0.7093 h 0.9931 l -0.039,1.0317 -0.014,0.1805 h 0.619 0.7996 v 0.2322 0.3869 h 0.7222 l 0.1805,0.089 0.026,0.5158 0.9802,-0.1169 -0.026,0.7222 h 0.9414 v 0.619 l 0.9543,-0.064 -0.012,0.6577 h 1.1606 l 0.2064,0.129 0.052,0.49 0.9414,-0.052 -0.012,0.6577 h 0.4771 v -0.6061 l 0.9415,0.038 v 0.5675 l 1.4314,-0.077 -0.026,0.6835 h 0.9544 l -0.014,0.619 h 1.3541 l 0.064,0.6062 h 0.9414 v 0.6061 h 0.9157 l 0.026,0.6061 h 0.9543 l -0.014,0.619 h 1.5863 l 0.2708,0.1032 0.026,0.503 0.9672,-0.1152 -0.026,0.7221 h 0.4772 v 0.6062 h 0.9285 v 0.6061 h 0.9543 v 0.619 h 0.4643 l 0.039,-0.7609 0.4514,0.1935 -0.026,0.5674 h 0.9543 v 0.6061 l 0.5159,0.026 -0.052,0.5804 0.9801,-0.052 -0.026,0.6577 1.2251,0.017 0.1548,0.077 0.026,0.5158 h 1.238 l 0.1806,0.077 -0.012,0.5416 h 0.632 0.3224 v 0.2709 0.3353 h 0.8769 l 0.064,0.619 1.4315,-0.026 -0.026,0.6319 h 0.8382 l 0.1032,0.6061 h 0.9414 v 0.6062 h 0.9415 v 0.6061 h 0.8253 l 0.1161,0.619 h 1.3928 l 0.026,0.6061 h 1.4702 0.4127 v 0.1668 0.4385 l 0.9543,-0.064 -0.014,0.6706 h 1.0575 0.3482 v 0.2579 0.3482 h 0.2193 0.2579 l -0.039,0.6706 0.9801,-0.052 0.064,0.5417 0.3998,0.064 v 0.6448 h 1.4186 v 0.5674 h 0.4384 l 0.014,0.374 0.09,0.1806 0.3998,0.065 -0.077,0.5546 h 1.4831 v 0.6577 h 0.4771 v 0.619 h 1.4186 v 0.5932 h 0.4514 l 0.014,0.6191 h 0.4643 l 0.012,0.6061 0.9544,-0.091 -0.014,0.6964 1.87,-0.091 v 0.7093 l 0.5416,-0.1032 -0.065,0.7093 1.4186,-0.04 v 0.6448 h 1.367 0.5159 v 0.2192 0.3869 l 0.9801,0.017 -0.039,0.6061 1.0833,-0.064 -0.1419,0.6706 h 1.5218 0.2708 l 0.09,0.6062 h 0.4643 v 2.4374 h 0.4642 v 0.1685 l 0.014,0.43839 h 0.4771 v 0.6191 h 1.1994 l 0.1548,0.1152 0.051,0.4771 h 0.4385 l 0.039,0.6191 0.3353,-0.129 0.1419,0.1032 -0.012,0.6319 h 0.4643 v 0.6061 h 0.4514 l 0.026,0.619 h 0.4771 v 0.6062 l 0.9801,-0.1032 -0.052,0.7093 h 0.4771 l 0.014,0.6061 h 0.9414 l -0.014,0.619 h 1.4573 1.8442 v 0.5546 0.6577 h 0.9801 v 0.5416 l -0.5158,0.064 v 1.2252 l 0.2063,0.052 1.2123,-0.052 v -0.3095 -0.3095 h 1.8828 v 0.2708 0.3482 l 0.4772,-0.04 v 1.4186 l -0.014,0.4385 0.4772,-0.026 v 0.6319 h 0.9414 l 0.09,-0.6319 0.8511,0.026 v -0.3482 -0.2579 h 0.2967 0.6448 v -0.6061 l -0.1419,-0.1548 -0.3224,0.1548 0.026,-0.8641 0.064,-1.5862 -0.5675,0.017 v -0.6062 l 0.4901,-0.052 0.4514,0.052 v -0.8769 -0.3482 h 0.1805 0.2966 v -1.2123 h 0.9415 v -0.6061 h 0.9414 v -0.619 h 0.9156 l 0.026,0.619 4.2429,-0.1152 -0.012,0.7222 h 1.8828 l -0.026,-0.6964 h 1.9216 v 0.6964 h 1.2896 l 0.1161,0.6061 5.1456,-0.091 0.039,0.6964 h 1.4057 v 0.619 h 0.4771 v 0.6061 h 0.4643 v 0.6062 h 1.8442 l 0.039,0.6061 1.5346,-0.065 -0.1161,0.6706 h 0.9415 v 0.6191 h 0.3998 l 0.026,0.4642 0.039,0.748 h 0.9415 v 0.6061 l 0.4513,-0.026 0.026,0.6319 1.0188,-0.091 -0.077,0.7093 h 0.4642 v 1.2123 h 0.7222 0.2193 v 0.5932 l 1.4186,0.017 v 0.619 h 0.9414 v 0.6062 h 1.2251 l 0.1548,0.1289 0.039,0.4772 0.993,-0.077 -0.052,0.6964 0.4901,-0.039 -0.026,0.6448 1.4186,-0.017 v 0.619 h 0.7608 l 0.1161,0.1032 0.064,0.5029 h 0.4514 l 0.026,0.6061 0.4772,-0.052 -0.014,0.6706 h 1.4057 l 0.014,0.6061 h 0.9672 v 0.4643 l -0.5029,0.1427 v 0.6061 h 1.8828 l -0.039,-0.748 h 0.9802 v -0.4642 h 0.4771 v -0.6062 l -0.4127,-0.1289 -0.064,-0.4901 0.6835,-0.052 0.2579,0.052 v -0.3353 -0.2708 h 0.245 0.2193 v -0.2451 -0.361 h 0.3611 0.5932 v -0.6062 l 0.5545,0.017 0.4643,0.026 -0.09,-0.6448 0.4256,-0.052 0.052,-0.5674 0.49,0.039 -0.012,-0.6448 h 0.4643 v -0.6061 l 0.4771,-0.1032 v -0.5029 h 0.4643 v 0.2708 0.3353 h 0.4772 v -0.6061 h 0.4642 v -1.2252 l 0.5159,-0.1152 v -4.8232 l -0.5159,0.064 v -3.6496 h 0.4772 v -0.2966 -1.5347 h 0.2966 0.1677 l -0.026,-0.7351 -0.4385,0.129 v -0.6191 h 0.4514 l 0.014,-0.3739 v -0.8383 l 0.2966,-0.04 0.1677,0.04 v -0.25789 -0.3482 h 0.2837 0.1934 v -0.2322 -0.374 h 0.2838 0.1934 v -0.2579 -0.3611 l 0.2192,0.017 0.7222,0.04 v -4.9135 h 0.2966 0.1677 v -0.7351 -1.0962 l 0.4127,-0.04 0.064,-0.1806 v -0.3998 l 0.5158,0.129 -0.039,-1.0059 -0.014,-0.3353 0.4771,-0.129 0.09,-0.5287 0.3095,0.04 0.064,0.017 v -0.129 l 0.039,-1.1219 0.4385,0.026 0.064,-0.4772 0.1419,-0.1152 h 0.2579 v -0.2966 -0.3224 l 0.3998,-0.1032 0.077,-0.503 0.374,0.026 0.2063,0.026 -0.065,-0.4126 -0.051,-0.258 0.1289,-0.017 0.2708,-0.039 0.077,-0.2193 v -0.3353 h 0.245 0.2193 v -0.2966 -0.3095 h 0.2063 0.2708 v -0.2837 -0.3224 l 0.3998,-0.1169 0.077,-0.4901 h 0.4643 v -1.2251 l 0.4771,-0.1152 v -0.4901 l 0.4901,0.04 -0.026,-0.6448 0.5288,-0.017 -0.052,-0.6061 v -2.4245 h -0.2193 -0.2579 v -0.3869 -0.2321 l -0.4901,-0.052 0.026,-1.1607 h -0.2966 -0.1805 v -0.3611 -0.2579 h -0.1935 -0.2708 l -0.077,-0.4772 -0.8769,-0.1289 v -0.6061 h -0.4643 v -0.6191 h -0.9801 l 0.039,-0.5932 h -0.245 -0.2322 l 0.026,-0.6061 -0.49,-0.017 v -0.6061 h -0.4772 v -0.6062 h -0.4643 v -0.6061 h -0.4771 v -1.2251 h -0.4643 l 0.09,-0.5546 -0.5675,-0.052 -0.1547,-0.619 h -0.3095 v -0.6964 -0.5158 h -0.2966 -0.1806 v -0.3095 -0.2967 h -0.3611 -0.5803 v -0.4642 l 0.012,-0.1548 -0.49,0.017 v -0.619 h -0.9286 l -0.012,-0.6061 h -0.9285 l -0.129,-0.6062 h -1.2896 l 0.116,-0.7093 -0.5803,0.1032 v -0.3224 -0.2966 l -0.4514,0.1169 -0.026,-0.7222 h -0.2063 -0.2708 l 0.09,-0.6061 h -0.5545 v -0.6061 h -0.9414 v -0.6061 h -0.9415 l 0.052,-0.5288 -0.5158,-0.091 v -0.6062 h -0.4772 l 0.065,-0.6448 -0.5416,0.026 v -0.2321 -0.3611 h -0.503 l -0.014,-1.2252 h -0.4126 v -0.6061 h -0.9544 l 0.039,-0.6835 -0.9801,0.064 -0.052,-0.4642 -0.1031,-0.141 h -0.3096 l -0.077,-0.503 -0.3998,-0.1032 v -0.3095 -0.2966 l -0.4643,-0.026 v -0.5932 h -0.1934 -0.2709 l -0.1031,-0.6061 h -0.374 l -0.1677,-0.6062 h -0.3095 l -0.077,-0.5029 -0.3868,-0.1032 -0.077,-0.5287 -0.3998,-0.077 -0.077,-0.619 h -0.864 l -0.014,-0.5159 -0.9156,-0.245 0.1031,-1.0704 h -0.5803 l -0.039,-0.6577 -0.4385,0.052 v -1.2123 h -0.4642 v -1.2251 h -0.4772 l 0.026,-0.6835 -0.49,0.077 -0.1161,-1.2123 h -0.3611 l -0.1161,-0.619 h -0.3611 l 0.012,-0.3869 v -0.2321 l -0.4772,0.017 0.014,-1.2252 -0.4901,0.017 v -0.619 h -0.4643 l 0.052,-1.2639 -0.5287,0.04 -0.09,-1.2123 h -0.374 l 0.012,-1.6765 v -0.1547 h -0.49 v -0.6062 h -0.4643 l -0.039,-0.6061 h -0.4384 l -0.039,-0.6061 h -0.4256 v -0.4256 -0.1805 l -0.4256,-0.1032 -0.052,-0.2063 v -0.9157 h -0.2192 -0.245 l -0.064,-0.5158 -0.4127,-0.1032 -0.052,-0.3998 -0.039,-0.1934 h -0.374 l 0.1161,-1.1478 -0.5932,-0.077 v -1.3283 -0.503 h -0.2193 -0.245 l -0.039,-0.6061 h -0.4385 v -0.6061 h -0.4642 v -0.619 h -0.4772 l 0.077,-1.2897 -0.5417,0.077 v -0.6061 h -0.4771 l -0.014,-0.619 h -0.4513 v -1.2123 h -0.4772 l -0.09,-1.8441 -0.374,0.017 0.064,-1.3542 -0.5416,0.129 0.064,-1.2638 -0.5287,0.052 0.065,-1.2639 -0.5417,0.052 0.129,-1.1865 -0.5932,-0.039 -0.052,-1.1736 -0.4256,-0.052 0.1161,-2.4502 -0.5804,0.017 v -0.6062 l 0.503,-0.1169 v -1.741 l 0.4385,0.026 v -0.2966 -0.3095 h 0.245 0.2192 v -0.6706 -1.1607 l 0.3998,-0.04 0.077,-0.245 v -0.3224 l 0.4901,0.064 -0.026,-1.8054 v -1.3026 l -0.1935,-0.091 -0.2708,0.091 v 1.122 l -1.3799,0.1169 v -1.3283 h -1.4444 v -1.2122 -1.741 h -0.1676 -0.3096 v -0.6191 h -0.4771 l 0.039,-6.706 h -0.503 v -1.2252 h 0.4772 v -0.2837 -0.9285 h -0.4772 v -0.6062 h 0.4643 v -3.0435 h -0.2708 -0.6706 l 0.077,-1.3025 -0.5416,0.077 v -0.6061 h -0.4643 v -3.1081 -0.5545 l -0.1805,-0.1152 -0.2966,0.1152 -0.09,-0.619 h -0.374 l -0.09,-0.5932 h -0.3869 l -0.1031,-0.6449 -0.374,0.026 -0.077,-0.6061 h -0.3869 v -0.374 -0.2321 l -0.503,-0.1548 0.026,-0.4642 h -0.2063 -0.2708 v -0.3998 -0.2064 l -0.4643,-0.052 v -1.1606 h -0.3095 -0.1548 l 0.052,-0.6319 -0.5287,0.017 -0.077,-1.1478 -0.3869,-0.064 v -0.3869 -0.2193 h -0.2579 -0.6835 v -0.619 h -0.1677 -0.3095 v -2.5534 l -0.4642,0.1152 v -0.9157 -0.2966 l -0.2451,-0.1152 -0.2321,0.1152 v -0.5803 -0.6448 h -0.3095 -0.1548 v -0.3224 -0.2967 h -0.2321 -0.245 v -0.3095 -0.2837 h -0.2193 -0.245 v -0.3353 -0.2837 l -0.3353,-0.141 -0.1419,0.141 v -0.2579 -0.3482 l -0.4771,-0.091 -0.1032,-1.1864 -0.3611,0.052 0.052,-1.3928 -0.5159,0.1805 v -1.2251 h -0.4771 l -0.039,-0.6964 -0.4256,0.091 v -0.3095 -0.2966 l -0.619,-0.017 0.1418,-0.5933 h -0.2837 -0.1805 l 0.014,-0.619 h -0.49 l 0.052,-0.6706 -0.5288,0.065 0.064,-1.8442 -0.5287,0.017 0.1031,-1.2896 -0.5674,0.065 v -0.6061 h -0.4772 v -0.6835 l -0.4771,0.077 v -0.6061 l -0.4643,-0.017 -0.09,-0.6706 -0.8511,0.077 v -0.619 h -0.1935 -0.2837 l -0.026,-1.2252 h -0.4385 v -0.6061 h -0.4642 l -0.026,-0.5416 -0.1548,-0.065 h -0.2579 -0.5159 v -1.2251 h -0.4642 v -0.877 -0.3353 h -0.1806 -0.2837 l -0.064,-0.4771 -0.1547,-0.129 h -0.7351 v -0.6061 h -0.4643 l 0.1677,-1.2768 -0.6448,0.052 -0.09,-0.619 h -0.3869 v -0.6061 h -0.9285 l -0.026,-0.6062 h -0.4514 v -1.2251 h -0.4772 l -0.09,-0.6061 h -0.374 l -0.1032,-0.619 h -0.3611 v -0.3096 -0.2837 h -0.503 l 0.026,-0.619 h -0.2321 -0.245 l -0.1032,-0.6061 h -0.3611 l -0.1676,-0.6061 h -0.2967 l 0.09,-0.6707 -1.0446,0.052 -0.052,-0.619 -0.8769,0.017 -0.014,-0.6061 h -0.1547 -0.3095 l -0.014,-1.2252 h -0.4643 v -0.6061 h -0.4642 l -0.09,-0.6577 -0.3869,0.038 0.077,-1.7926 -0.5417,-0.026 -0.077,-1.3025 -0.3869,0.077 -0.026,-1.8313 h -0.4514 v -1.2767 -0.5545 h -0.1934 -0.2837 l -0.1032,-1.2381 -0.3611,0.026 0.039,-1.7797 -0.5159,-0.052 -0.09,-1.2767 -0.374,0.064 0.012,-1.238 -0.4901,0.017 v -1.3799 -0.4514 l -0.1934,-0.091 -0.2708,0.091 0.012,-1.2251 -0.4772,0.017 0.012,-1.97312 -0.4901,0.12902 0.09,-1.26389 -0.5674,0.0516 v -1.22515 h -0.4643 v -3.4691 -0.19345 h 0.4772 l -0.014,-0.18054 -0.064,-7.73778 h -0.3998 v -1.22514 h -0.4771 l -0.052,-1.09619 -0.1032,-0.12896 h -0.3224 l -0.064,-0.50296 -0.3998,-0.0911 -0.077,-0.51585 -0.3869,-0.10317 v -0.39979 -0.20634 h -0.9801 -1.3928 v 0.60613 h -0.4514 v 1.21225 h -0.4772 v 1.84417 0.43847 l -0.014,0.16679 h -0.4643 v 0.82537 4.92638 0.64481 l -0.039,0.29662 -0.4256,0.0172 v 1.83127 h -0.4771 v 0.60613 h -0.2966 -0.1677 v 0.3353 l -0.077,0.24503 -0.3869,0.0395 0.039,0.72219 -0.5158,-0.1152 v 0.39978 l -0.064,0.16851 -0.4127,0.0395 v 0.60613 h -0.4642 v 0.88984 0.3353 h -0.258 -0.2192 v 0.27083 0.3482 h -0.2579 -0.2064 v 0.27082 0.32239 h -0.2579 -0.2192 v 0.2837 0.3353 h -0.2451 -0.2192 v 0.2708 0.3353 h -0.2579 l -0.1806,0.1032 -0.039,0.5159 -0.5545,-0.052 0.09,0.6577 h -0.3095 -0.1677 v 0.6061 l -0.4901,-0.091 0.026,1.3025 -0.4384,0.026 -0.129,0.5545 -0.374,0.04 v 0.6061 h -0.4772 v 0.5159 l -0.4642,0.1031 v 0.5933 h -0.4772 v 0.619 h -0.4643 v 0.6061 h -0.1418 -0.3353 v 0.619 h -0.4643 v 0.6062 l -0.9672,-0.052 0.026,0.6577 -0.5545,-0.04 0.077,0.6449 h -0.2966 l -0.1161,0.1031 -0.052,0.5159 h -0.5933 -0.3482 v 0.2837 l -0.09,0.2837 -0.3869,0.04 0.052,0.7221 -0.5159,-0.1152 v 0.4127 l -0.065,0.1668 -0.4127,0.04 v 0.6061 h -0.4642 v 0.5029 l -0.4772,0.141 v 0.5804 l -1.0188,-0.052 0.077,0.6577 -0.3869,0.026 -0.129,0.5545 -0.4255,0.026 v 0.619 h -0.4643 v 0.5933 l -0.9414,-0.04 -0.012,0.6577 -1.4315,-0.026 0.026,0.632 h -0.3095 l -0.1418,0.077 -0.026,0.5417 h -1.0059 -0.3998 v 0.1934 0.4127 l -0.5159,-0.1289 0.039,0.735 -1.3928,-0.017 -0.026,0.6191 h -1.4057 v 0.619 h -0.1934 l -0.2579,0.065 -0.026,0.5417 -1.4057,-0.1032 v 0.7093 h -0.6449 l -0.245,0.141 -0.052,0.4772 -0.9027,0.077 -0.039,0.5159 h -0.5674 -0.374 v 0.245 0.374 h -1.3154 l -0.09,0.6061 h -0.8383 l -0.1031,0.6191 -0.9673,-0.077 0.026,0.6835 h -0.9543 v 0.6061 h -0.5674 -0.374 v 0.2837 0.3224 h -1.0833 l -0.3095,0.1032 -0.014,0.5159 -1.4444,-0.052 0.026,0.6577 -1.4186,-0.017 0.012,0.6319 h -0.9415 v 0.6061 l -1.4057,-0.141 -0.014,0.748 h -1.2252 -0.1934 v 0.6061 l -1.2638,-0.017 -0.1161,0.077 -0.026,0.5417 h -0.9672 -0.4514 v 0.1934 0.4256 l -1.8442,-0.026 -0.026,0.6319 -1.3283,-0.1032 -0.09,0.7093 h -1.4444 -0.2193 l -0.1676,0.1152 -0.052,0.4901 h -0.6835 l -0.245,0.091 -0.014,0.5288 h -1.5218 -0.8382 v 0.2579 0.3482 l -1.4057,-0.026 v 0.6448 l -1.8055,-0.077 -0.077,0.6706 -0.9672,-0.04 0.026,0.6577 h -0.9414 v 0.6062 l -0.9157,0.077 -0.039,0.5288 h -0.4643 v -0.3482 -0.2579 h -1.4057 v 0.2579 0.3482 h -0.7867 -1.1091 v 0.5158 l -0.1418,0.04 -0.3095,0.1152 -0.014,0.5545 h -1.2767 -0.6061 v 0.1935 0.4127 l -3.7787,-0.052 0.014,0.6577 h -1.4186 l -0.064,-0.6448 -1.6507,0.04 h -0.1677 v 0.6061 l -1.8957,-0.1169 0.014,0.7351 h -2.1794 -0.1677 v 0.6061 h -2.8372 v -0.6061 l -1.4057,0.077 v 0.5287 h -0.4771 v -0.5545 l -0.7222,-0.052 h -0.2064 v 0.6061 h -0.9543 l 0.014,-0.5287 -0.9543,-0.077 0.039,-0.7351 -3.7915,0.1169 0.064,-0.6448 -0.5545,0.04 v -0.6062 h -0.4643 l -0.052,-1.2251 h -0.4127 l -0.026,-0.5674 -0.1419,-0.1935 -0.3095,0.1548 v -0.6577 -0.5546 l -0.3869,-0.091 -0.1032,-0.1806 -0.039,-0.3353 h -0.4126 l 0.014,-0.6706 -0.9543,0.052 v -0.3869 -0.2192 h -0.9414 v 0.2192 0.3869 l -3.7013,0.017 -0.064,-0.1805 v -0.4385 h -0.1676 -0.3095 v -0.3095 -0.3095 l -0.4901,0.026 0.026,-0.632 h -0.245 -0.2322 l -0.09,-0.6061 h -0.374 l -0.1161,-0.6319 -0.3611,0.026 0.052,-5.6615 -0.5158,0.1685 v -1.2122 h -0.4772 l -0.052,-0.6835 -0.4127,0.064 v -1.2251 h -0.9414 l 0.014,-0.5933 h -0.9544 l -0.1031,-0.619 h -0.374 l 0.09,-1.122 -0.5674,-0.091 -0.052,-4.3203 -0.4127,0.04 v -1.3799 l -0.4642,0.1668 v -1.2123 h -0.9415 l 0.052,-0.6964 -0.993,0.077 v -0.6061 h 0.4643 l -0.09,-1.2252 h -0.374 v -0.6964 -0.5158 l -0.3482,-0.117 -0.129,0.117 v -0.3224 -0.2966 h -0.1934 -0.2837 v -0.4385 l -0.014,-0.1685 h -0.4513 v -1.8313 l 0.4513,-0.141 0.014,-1.0833 -0.374,-0.039 -0.09,-0.258 v -0.2966 h -0.3482 -0.5932 l -0.1032,-0.619 h -0.374 l -0.026,-0.6964 -0.1547,0.091 h -0.2837 v 0.1806 0.4256 h -1.8829 l 0.012,-0.3869 v -0.2322 l -0.49,0.017 -0.064,-1.9215 -0.3998,0.091 v -4.26863 h 0.3998 v -0.65772 h 1.0317 l -0.026,-1.17356 h 0.2966 0.1806 v -0.94143 -0.88984 h -0.4772 l -0.026,-0.60613 h -0.4385 v -0.61902 h -0.9414 l -0.026,-0.60612 h -0.4513 v -0.60613 h -0.4643 v -0.60612 h -0.4772 v -0.61903 h -0.4642 v -0.60612 h -0.4772 l -0.039,-0.63192 -0.4256,-0.11521 v -0.46426 h -0.9414 -0.9672 l 0.026,-0.61902 h -0.2064 -0.2708 l 0.1032,-0.54165 -0.5675,-0.0636 v -0.60613 h -0.9414 v -0.69639 -0.52875 l -2.83713,0.15475 0.012,-0.76088 -0.39978,-0.0516 -0.0774,-0.16851 V 802.607 h -0.45137 -0.49006 v -0.42558 -0.19344 h -0.21923 -0.7222 l -0.0387,-0.6964 -1.84416,0.0911 -0.0138,-0.50296 -1.12198,-0.1152 h -4.5137 l -0.0516,-0.46427 -0.21924,-0.12896 h -0.67061 v -0.41268 -0.20634 h -0.36109 -0.58034 v 0.61902 h -4.24287 l 0.0645,-0.61902 h -1.48308 v -0.41268 -0.19345 h -2.12788 -3.53359 l 0.0138,1.00591 v 0.21924 h -2.86298 -2.78559 v 0.24503 0.3482 h -0.87695 -0.30951 -0.21924 v 0.61902 l -1.44438,-0.0911 0.0258,0.69639 h -8.47286 v -0.60612 h -0.94143 l 0.0258,-0.72219 -0.96722,0.10317 -0.0258,-0.47717 -0.3482,-0.11692 h -1.98603 v -0.64482 l -2.82429,0.0258 v -0.39979 -0.20634 h -0.47716 -1.40569 v -0.61902 h -0.47717 v -0.60613 h -0.18054 -0.28372 l -0.0774,-0.54164 -0.39979,-0.0636 v -0.60613 h -0.46426 l -0.0516,-0.61902 h -0.88984 l -0.0645,-0.60612 h -0.87695 l 0.0258,-0.68351 -0.96722,0.0774 v -0.61902 h -0.47716 l 0.0387,-0.67061 -0.98012,0.0636 v -0.60612 h -0.46427 l 0.0138,-0.63192 -0.95433,0.0258 v -0.61902 h -0.47716 l -0.0258,-0.60613 h -0.91564 l 0.0516,-0.70929 -0.99302,0.0911 v -0.54164 l -0.88984,-0.0774 -0.0516,-0.59323 h -0.14186 -0.32241 v -0.41268 -0.19344 h -0.25793 -0.6835 l -0.0387,-0.49006 -0.30951,-0.12897 h -1.07039 v -0.42557 -0.18055 h -0.46427 -1.41859 l -0.0645,-0.60613 h -1.34121 v -0.60612 h -0.47717 l 0.0258,-0.68351 -0.96722,0.0636 v -0.63192 l -0.94143,0.0258 v -0.39978 -0.21924 h -0.69639 -1.66363 l -0.0645,-0.52875 -0.87694,-0.0774 v -0.3482 -0.25792 h -0.30952 -0.63191 l -0.0138,-0.58033 -0.11607,-0.10317 -3.17248,0.0774 -0.012,-0.54164 -0.18055,-0.0774 h -0.73509 v -0.25792 -0.3482 h -3.30145 v 0.3482 0.25792 l -2.97904,-0.0258 -2.20526,-0.0258 v -0.55454 h -0.18055 -0.28372 l -0.0645,-0.52875 -0.41268,-0.0774 v -0.38689 -0.21924 h -0.33531 -1.07039 l 0.0387,-0.72219 -0.51585,0.10317 v -0.60612 h -0.46427 v -0.60613 h -0.47716 l 0.0138,-0.64481 -0.47717,0.0258 -0.11606,-0.60613 h -0.82536 v -0.63191 l -0.95433,0.0258 0.0903,-0.54164 -0.24502,-0.0774 h -3.1338 v -0.60613 h -2.82429 l 0.10317,-0.65771 -1.0446,0.0516 -0.0516,-0.50296 -0.16766,-0.11693 h -1.19935 v -0.60612 h -0.94143 l -0.0258,-0.60613 h -0.43848 l -0.10317,-1.14777 -0.0645,-0.15475 -0.30951,0.0774 0.0387,-1.23805 -0.50295,0.0172 0.0516,-1.93444 -0.52875,0.11692 0.0258,-1.84417 -0.49006,0.0172 v -0.60613 h -0.47717 v -0.95432 -0.27083 h -0.19344 -0.27082 v -5.49381 h 0.46426 v -0.60613 h -0.50295 l -0.0258,-0.39978 -0.012,-0.21924 h -0.39978 l 0.0903,-1.25094 -0.55454,0.0378 -0.0645,-1.14777 -0.41268,-0.0774 v -0.36109 -0.24503 l -0.39979,-0.11693 -0.15475,-0.50296 h -0.38689 l 0.0774,-0.65771 -0.54164,0.0516 -0.0258,-0.51585 -0.20634,-0.0911 h -1.65073 l -0.0903,-0.6835 -0.38689,0.0774 -0.0903,-0.61902 h -0.38689 v -0.374 -0.23213 h -0.24503 -0.6964 v -0.60612 h -0.94143 l -0.0387,-0.3611 -0.15475,-0.25793 h -0.73509 l -0.0516,-0.70929 -0.42558,0.10317 -0.0258,-0.60613 h -0.45137 l -0.0516,-0.49006 -0.14186,-0.12896 h -0.27082 v -0.21924 l 0.0258,-2.95325 -0.50296,0.12897 0.0903,-1.99893 -0.55454,0.16851 v -2.43739 h -0.47717 l 0.10317,-3.76572 -0.56743,0.10317 -0.0387,-1.22515 h -0.43847 v -11.61955 l -0.46427,0.0258 0.0903,-2.46319 -0.56743,0.0258 -0.0258,-1.83127 h -0.43847 l 0.0645,-1.92155 -0.54164,0.0911 -0.0645,-1.22515 h -0.39979 l 0.10317,-1.25094 -0.58033,0.0395 v -1.22515 h -0.46427 l -0.12896,-1.25094 -0.3482,0.0258 0.10317,-1.84416 -0.56744,0.0258 v -0.61902 h -0.47716 l -0.0516,-1.21225 h -0.41269 l 0.10317,-2.55347 -0.58033,0.10317 v -1.93444 -0.50296 h -0.15475 -0.32241 l 0.0258,-1.14777 -0.49006,-0.0774 v -3.04343 h 0.49006 v -0.50295 l -0.49006,-0.11693 v -2.4374 l 0.49006,0.0172 v -1.34122 l 0.92853,0.11521 0.012,-0.52875 -0.49006,-0.0911 0.0258,-0.63192 -0.50295,0.0258 0.0258,-1.98603 -0.49006,0.141 v -3.04352 h 0.46427 v -0.18055 -2.25685 h 0.3482 0.12896 v -1.09618 -5.00376 l 0.58033,0.0395 -0.10317,-0.65771 h 0.25793 0.20634 l -0.0516,-0.68351 -0.41269,0.0774 v -2.45029 h -0.47716 v -2.03762 -0.39978 l -0.14186,-0.0172 -0.3353,0.0172 0.0258,-3.09511 -0.49006,0.0516 0.0774,-3.13379 -0.54164,0.0774 -0.0903,-3.17248 -0.38689,0.11692 v -3.05642 l 0.47717,-0.141 v -0.27082 -2.02471 h 0.54164 v -2.52768 l -0.54164,0.0911 v -1.22515 h 0.54164 v -0.61902 h -0.54164 l -0.0903,-3.08221 -0.38689,0.0378 0.11607,-2.46319 -0.58033,0.0258 0.0258,-1.25094 -0.50296,0.0258 v -0.60613 h -0.46426 l -0.0903,-1.22514 h -0.38688 l -0.0258,-0.60613 h -0.45137 l 0.0645,-0.51585 -0.52874,-0.10317 0.11606,-1.23804 -0.58033,0.0258 -0.0774,-0.41268 -0.0258,-0.20634 h -0.37399 v -0.60613 h -0.47716 v -0.61902 h -0.46427 v -0.60613 H 588.212 l 0.012,-0.63191 -0.47716,0.0258 -0.0645,-0.45137 -0.0258,-0.15476 h -0.38689 l 0.10317,-1.18646 -0.56744,-0.0395 v -1.83128 h -0.47716 v -0.61902 h -0.46427 l -0.0774,-1.21225 h -0.39978 v -0.61902 h -0.46427 l 0.0774,-0.51585 -0.55454,-0.0911 v -0.60612 h -0.47716 v -0.61902 l 0.30951,-0.0258 0.16765,0.0258 v -1.22515 h -0.16765 -0.30951 v -0.60613 h -0.46427 v -1.83127 h 0.50296 l -0.0387,-0.24503 v -2.81139 h 0.47716 v -0.60613 h -0.47716 v -0.61902 h -0.46427 l -0.0903,-0.60612 h -0.37399 v -0.38689 -0.21924 h -0.23214 -0.24503 v -0.21923 -0.38689 h -0.19344 -0.27082 l -0.0774,-0.49006 -0.12896,-0.12897 h -0.27083 v -0.23213 -0.99301 h -0.29661 -0.16765 l -0.0516,-0.59323 h -0.42557 l 0.012,-0.65771 -0.47716,0.0395 -0.0516,-0.33531 -0.0387,-0.27082 h -0.38689 l -0.11607,-1.22515 h -0.3611 l -0.0516,-0.49006 -0.16765,-0.12896 h -0.24503 v -0.18055 -2.86297 l 0.3482,-0.0258 0.0516,-0.60613 -0.39978,0.0258 v -1.84417 h -0.47717 l -0.0516,-1.81837 h -0.41268 v -1.99893 l -0.46427,0.15476 v -1.21225 h -0.94143 v -0.61902 h -0.47716 v -0.41269 -0.19344 h -0.49006 v -1.34121 l -0.45137,0.11692 v -3.66254 h 0.46427 v -0.33531 -0.16851 -1.93444 h 0.27082 0.20634 v -0.94143 -1.50887 l 0.38689,-0.0395 0.15475,-0.64482 -0.54164,0.0774 v -1.83127 h 0.54164 v -0.52875 l -0.54164,-0.0911 v -0.90274 -0.30951 l -0.18055,-0.0395 -0.29661,0.0395 -0.012,-1.25094 -0.45137,0.0258 v -2.74691 -1.53466 h -0.24503 -0.23213 l -0.0903,-0.60613 h -0.37399 l 0.0387,-0.50295 -0.51585,-0.11693 v -3.66254 h 0.51585 v -0.64482 l -0.51585,0.0378 v -0.90274 -0.30951 l -0.20634,-0.0395 -0.25793,0.0395 -0.012,-1.22515 -0.0387,-0.15475 -0.42558,0.15475 v -2.74691 -1.53465 h -0.25792 -0.20635 v -2.19237 -1.47018 l -0.14185,-0.12896 -0.33531,0.12896 0.0774,-1.25094 -0.54164,0.0258 v -1.83127 h -0.47717 l -0.0774,-1.90865 -0.38689,0.0774 v -3.05642 l 0.38689,-0.10317 0.0774,-0.18055 v -1.54755 h 0.47717 v -2.4503 h 0.43847 l 0.0258,-0.25793 v -1.56045 h 0.29662 0.18054 v -1.22514 h 0.46427 v -0.63192 -0.59323 l 0.47716,-0.0911 v -1.13507 h 0.25793 0.20634 v -0.60612 h 0.47716 l 0.0387,-0.73509 -0.51585,0.11693 v -0.60613 l 0.99301,0.0774 -0.0516,-0.68351 h 0.47716 v -1.22514 l 0.42558,-0.10317 0.0387,-1.72811 h 0.25792 0.21924 v -0.51585 -0.70929 l 0.50296,0.0516 -0.0258,-0.65771 h 0.46427 v -1.22515 l 0.56744,0.0774 -0.0903,-1.30252 0.54165,0.0258 -0.0774,-1.85707 0.46426,-0.15475 v -1.0575 h 0.47717 l 0.0387,-1.67651 v -0.18055 l -0.51586,0.0172 v -1.93444 -0.50296 l -0.14185,-0.0774 -0.32241,0.0774 v -3.05642 h 0.32241 0.14185 v -0.49005 -1.35411 l 0.56744,-0.0172 -0.0903,-0.58033 h 0.46426 v -0.61902 h 0.47717 v -3.66263 h -0.47717 v -3.05642 h 0.47717 v -0.61902 h 0.3353 0.14186 l 0.0258,-0.72219 -0.50295,0.11692 v -1.28963 -0.54164 h -0.23214 -0.24503 v -0.3611 -0.24503 h -0.19344 -0.27082 v -0.36109 -0.25793 h -0.47717 v -0.60612 h -0.46426 v -0.61902 h -1.4057 v 0.61902 h -0.95432 v -0.61902 h -0.94143 v -0.60613 h -0.46427 v -0.46427 h -0.99301 l 0.0516,-0.76088 -0.41268,-0.0516 -0.0645,-0.55454 -0.49006,0.0258 0.0258,-0.64481 h -0.29661 -0.18055 l 0.0258,-0.6964 -0.49005,0.0911 v -1.83127 l 0.49005,-0.0172 v -2.4374 h -0.96722 l 0.0516,-0.74798 -0.51585,0.141 -0.0387,-0.43848 -0.19345,-0.16679 h -0.70929 v -0.37399 -0.24503 h -0.76088 -2.54057 v -0.60612 h -0.94143 l 0.0387,-0.6964 -0.98012,0.0911 0.10317,-0.6964 -1.0446,0.0774 0.0258,-0.68351 -0.96722,0.0774 -0.012,-0.56743 -1.3928,-0.0516 -0.0774,-0.60612 h -1.34121 l -0.0516,-0.374 -0.14186,-0.23213 h -0.74798 l -0.0516,-0.72219 -0.42558,0.10317 -0.0774,-1.22515 h -0.38689 l 0.0516,-0.65771 -0.52875,0.0516 v -0.61903 l 0.39979,-0.0258 0.0774,-0.3353 v -0.85116 h 0.19344 0.27082 v -0.76088 -0.46426 h 0.20634 0.27083 l -0.0645,-0.45137 -0.0258,-0.16852 h -0.38689 l -0.0516,-1.21225 h -0.41268 v -0.61902 h -0.47717 v -1.22515 h -1.40569 v -0.27082 -0.32241 -1.84416 l 0.15475,-0.0396 0.24503,-0.0774 v -0.50296 h 0.54165 l -0.0387,-0.6835 0.98012,0.0774 v -0.63192 h 0.59323 l -0.12897,-1.19935 0.47717,-0.15476 v -0.16679 -0.90274 h 0.20634 0.25792 v -1.21225 h -0.19344 -0.27082 v -1.22515 h -0.47717 v -3.8173 -1.08329 h 0.49006 l -0.012,-0.3353 v -0.27073 l 0.46426,-0.0911 v -1.13487 l 0.42558,-0.0172 0.0516,-0.21923 v -0.374 h 0.20634 0.25792 v -0.61902 h 0.28372 2.54057 v -0.3224 -0.28372 h 2.83718 v 0.25792 0.3482 h 0.91564 0.96722 v 0.37399 0.24503 h 0.25792 0.20635 v 0.91564 l 0.0645,0.27082 0.38689,0.141 0.0258,0.50296 h 0.46426 v 0.60612 l 1.3928,0.0911 0.0258,0.52874 h 0.38688 l 0.0774,0.60613 h 0.42558 l 0.0516,0.61902 0.49005,-0.0172 -0.0258,0.61902 h 0.94143 v 1.22515 l 0.42558,-0.10317 v 1.35411 l -0.42558,-0.0258 v 5.49382 h 0.47716 v 1.22515 l 0.25793,-0.11521 0.20634,0.11521 v 1.22515 h -0.20634 -0.25793 v 1.13487 l -0.47716,0.0774 v 0.61902 l 0.51585,-0.0172 -0.0387,1.23805 h 0.25793 0.20634 v 0.41268 0.79957 h 0.43847 l 0.012,0.16851 0.0258,0.45137 1.08329,-0.0516 -0.14186,1.27674 0.49006,-0.0172 -0.0258,1.84417 0.29661,-0.0258 0.18055,0.0258 v 1.10908 3.17249 l 0.54164,0.12896 -0.0645,0.47716 h 0.46427 v 1.83128 l -0.0645,0.59323 -0.39979,0.0258 v 2.4374 l 0.37399,-0.12897 0.0903,0.11521 v 0.61902 h 0.47716 v 0.61902 l 0.95433,-0.0636 -0.0258,0.67061 h 1.92155 l -0.0258,1.53466 v 0.29661 h 0.59323 0.3482 v 0.23213 0.38689 h 2.34712 v -0.61902 l 0.38689,-0.0516 0.0774,-0.27083 v -0.28371 h 0.21923 0.25793 v -0.3611 -0.24503 h 0.19344 0.28372 l -0.0137,-0.61902 h 0.95432 v -0.60613 h 0.16765 1.71521 v -0.36109 -0.25793 l 1.4057,-0.141 v -0.46426 h 0.47716 v -0.60613 l 0.37399,-0.0378 0.10317,-0.3353 0.0774,-0.141 0.38689,-0.10317 0.11606,-0.64482 0.3482,0.0396 0.0516,-0.46426 0.90274,-0.141 v -0.29662 -0.32241 h 0.41268 0.52875 l 0.0387,-0.52874 1.85706,-0.0396 v -1.34122 l 0.92853,0.0774 0.10317,-0.47716 0.3611,-0.12896 -0.0516,-0.81247 0.52874,0.10317 0.46427,0.0911 v -0.60612 h 0.94143 v -0.3482 -0.25793 h 0.3482 0.59323 v -0.61902 h 0.12896 0.3482 l -0.0645,-0.65771 0.52875,0.0516 -0.012,-0.64482 0.95433,0.0258 v -0.21923 -2.83719 h -0.33531 -0.12896 l 0.0516,-0.65771 -0.52874,0.0516 v -1.83127 l 0.52874,0.0396 v -1.35411 l -0.52874,0.0911 0.0903,-3.68834 -0.55454,0.0172 v -0.60613 h 0.49006 l -0.0387,-0.24503 -0.0774,-1.741 -0.37399,0.15476 v -1.83128 h 0.46427 v -0.30951 -1.52176 l 0.52874,0.0258 -0.0516,-1.25094 0.46427,-0.10317 v -0.50295 h -0.15476 -0.78667 v -1.22515 h 0.52874 v -0.61902 h -0.52874 v -1.83127 h -0.46427 v -1.22515 h 0.43847 l 0.0258,-0.23213 -0.0903,-4.04944 h -0.37399 v -1.21225 l 0.46427,-0.10317 v -0.50295 h 0.27082 0.20634 v -0.3096 -0.30952 h 0.3482 0.59323 v -0.60612 h 0.15475 0.30951 v -0.56744 -0.65771 l 0.47717,-0.141 v -1.08329 l 0.46426,-0.12896 v -0.36109 -0.73509 h -0.16765 -0.29661 v -0.28372 -0.32241 h -1.81838 -1.00591 v 0.60613 h -7.06717 v -0.60613 h -0.46426 v -0.42558 -0.18054 h -0.3611 -0.59323 l -0.0387,-0.3482 -0.15475,-0.27083 h -0.73509 l -0.0387,-0.69639 -0.43847,0.0911 v -1.22515 h -0.47716 l -0.012,-1.22515 h -0.45137 v -3.66254 l 0.3482,-0.15476 0.11606,0.15476 v -0.3611 -0.86405 l 0.50296,0.0258 v -0.16679 l -0.0258,-1.08329 0.39978,-0.0258 0.0774,-0.24503 v -0.3353 l 0.58033,-0.0516 -0.0903,-0.83826 -0.0258,-0.3353 0.3353,-0.0258 h 0.0903 l 0.0387,-0.141 v -0.45137 l 0.25793,0.0378 0.24503,0.0258 -0.012,-0.37399 -0.012,-0.29662 h 0.18055 l 0.32241,0.0258 v -0.64482 l 0.43847,-0.0774 v -0.52874 h 0.61903 l -0.14186,-0.60613 0.39978,-0.0396 0.0645,-0.16679 v -0.41268 h 0.68351 0.25792 v -0.18055 -0.42558 l 0.49006,0.0774 v -1.34121 h 2.81139 v -0.56744 l 0.47716,0.0172 v -0.12897 l -0.012,-0.50295 h 0.39978 0.54165 l -0.0645,-0.6835 0.54165,0.0774 v -0.60612 l -0.50296,0.0172 0.0258,-0.63192 -0.49006,-0.0774 0.0258,-0.52875 h -0.16765 -0.77378 v -1.22515 h 0.46427 v -0.61902 h 0.14186 l 1.27673,-0.0516 0.012,-0.43847 0.45137,-0.11521 v 0.60613 h 1.41859 V 444.771 l 0.56743,0.0258 -0.10317,0.58033 h 1.88284 V 444.771 h 0.11607 0.83826 v -0.1152 l -0.012,-0.51585 3.77861,0.0258 v -0.61902 h 0.46427 l 0.0645,-0.61903 0.41268,0.0172 0.0516,-0.52875 0.41268,-0.0911 0.012,-2.03762 0.0137,-1.7152 -1.43149,0.0911 v -0.38689 -0.21923 h -0.47716 v 0.60612 l -0.47716,-0.0172 v 0.61902 h -1.88286 l 0.0516,-0.64482 -1.93445,0.0378 v -0.59323 l -0.15475,-0.0172 h -4.07523 v -0.41268 -0.20634 h -0.3353 -1.08329 l 0.14186,-0.55454 -0.60613,-0.0516 v -0.61902 h -0.94143 v -0.60612 l 0.50296,-0.0645 v -1.14777 h -0.50296 l 0.0645,-1.27673 -0.54165,0.0387 0.012,-0.74798 -3.30145,0.14186 v -0.67061 l -1.89575,0.0516 v -0.42557 -0.18055 h -2.82429 l 0.0903,0.18055 -0.0903,0.42557 -0.83826,-0.0258 -0.10317,0.64482 -1.23804,-0.10317 h -0.16766 v 0.70929 h -3.30145 l 0.0516,-0.70929 -0.51585,-0.0387 v -0.47717 h -6.57711 l -0.3482,-0.0258 -0.14186,0.0258 0.0258,0.92854 0.012,0.3224 -0.51585,-0.0258 v 1.12198 l -0.94143,0.11606 v 0.28372 0.32241 h -0.82536 l -0.11607,0.60613 h -5.17141 v -0.65772 l -1.41859,0.0516 v -0.37399 -0.23214 h -0.28372 -0.65771 v -0.61902 h -0.46427 l -0.0645,-1.32831 -0.41268,0.10317 v -1.26384 -0.56744 l -0.20634,-0.012 -0.25792,0.012 -0.10317,-1.17356 -0.0516,-0.18055 -0.32241,0.12897 v -2.4503 h -1.41859 v 0.61902 h -0.46426 v 0.61902 h -1.4186 v 0.59323 l -0.41268,0.0774 -0.12896,0.50296 -0.39979,0.0387 v 0.6706 l -0.46426,-0.0645 v 0.61902 l -1.3799,-0.012 v -1.34122 l -0.50296,0.12897 v -1.21226 l 0.46427,-0.012 v -0.25793 -4.02364 h 0.3482 0.12896 v -0.60613 h 1.40569 l 0.0138,-0.56743 0.21924,-0.0516 h 1.18646 l 0.0258,-0.51585 0.21924,-0.0903 h 0.6964 v -0.60613 h 0.23213 0.23213 l 0.0258,-1.21225 -1.43148,-0.012 v -0.6706 -0.55454 h -3.58517 l -0.16765,0.0516 -0.012,0.55454 -1.43149,-0.0774 0.012,0.69639 h -0.46427 v 0.60613 h -0.27082 l -0.16765,0.10317 -0.0387,0.51585 -0.55454,-0.11606 0.0903,3.17248 0.32241,-0.0903 0.14186,0.0903 v 0.56744 0.6835 l -3.28855,-0.12896 v -0.51585 h -0.18055 -0.29662 v -0.3611 -0.24503 h -0.60612 l -0.21924,-0.0903 -0.12896,0.0387 0.012,0.65771 h -2.17948 -0.39978 -0.24503 v 0.36109 0.24503 h -0.16765 -0.29662 v 0.43848 l -0.0645,0.14186 -0.41268,0.0387 v 0.63192 l -2.54057,-0.0258 h -0.19344 -2.91456 V 426.65 426.43076 h -0.23214 -0.70929 l 0.0387,-0.6835 -0.98012,0.0645 v -0.60612 h -0.95433 v -0.60613 h -0.46426 l -0.10317,-0.61902 h -0.3611 l 0.0516,-1.21225 -0.52875,-0.012 v -0.60612 h -0.46427 l -0.0387,-0.7222 -0.90274,0.11607 v -0.61902 h -0.16765 -0.30951 l 0.0903,-0.65771 -0.56743,0.0516 v -1.96023 -0.49006 h -0.12897 -0.3353 v -0.60613 h -0.47716 v -1.22514 h -0.46427 v -0.61902 h -0.94143 v -0.60613 h -0.47716 l 0.0645,-0.72219 -0.99301,0.11606 0.012,-0.74798 -2.37291,0.12896 -0.012,-0.56743 -0.12896,-0.0387 h -1.26384 v -0.42558 -0.19344 h -1.41859 v 0.19344 0.42558 h -2.36002 v 0.60612 h -0.94143 v 0.61902 h -0.94143 v -0.70929 h -0.90274 l -0.0387,0.70929 h -4.24288 v -0.61902 h -0.94142 v -0.49006 l -0.86406,-0.15475 -0.0774,-0.58033 h -0.18055 -0.28372 v -0.32241 -0.28372 h -0.49006 -0.92853 l -0.0258,-0.54164 -0.15476,-0.0645 h -1.70231 v -0.73508 h -1.25094 -0.15475 v 0.73508 H 505.343 l -0.012,-0.73508 -1.40569,0.11606 0.0645,-0.52875 -0.23213,-0.0774 h -1.23805 l -0.0387,-0.50296 -0.20634,-0.11606 h -1.17356 l 0.0903,-0.64482 -1.49597,0.0387 v -0.41268 -0.19345 h -0.20634 -0.27082 l -0.012,-1.22514 h -0.46427 v -0.61902 h -2.36002 l 0.0387,-0.68351 -1.90865,0.0774 v -0.61902 h -0.94143 v -0.60613 h -0.47716 l 0.0645,-0.70929 -1.00591,0.10317 v -0.61902 h -0.46427 l 0.0903,-0.7093 -1.0317,0.10317 -0.0387,-0.61902 h -0.43847 v -0.60613 h -0.46427 v -0.60612 l 0.51585,-0.0258 -0.0516,-0.23213 v -0.96722 l -0.25793,-0.14186 -0.20634,0.14186 v -0.27082 -0.3482 l -0.47716,-0.14186 v -1.07039 l -0.3353,-0.10317 -0.14186,-0.0387 v -0.47716 h -0.49006 v -2.52768 l -0.43848,0.0903 v -1.22515 h -0.47716 v -7.95701 h 0.47716 v -3.05642 h 0.43848 l 0.0258,-0.21924 v -0.23213 -1.3799 h 0.18055 0.28372 v -0.61902 h -0.21924 -0.7093 v -1.86997 -0.56743 h -0.23213 -0.24503 v -0.29662 -0.3224 h -0.46426 l -0.012,-1.84417 h -0.46427 l 0.10317,-1.19936 -1.50886,-0.012 -0.0903,-0.61903 h -0.38689 v -0.3353 -0.27082 h -0.29661 -0.64481 v -1.22515 h -1.4186 v -0.61902 h -0.46426 v -0.60613 h -0.94143 v 0.61903 h -0.47716 v 0.18054 0.42558 h -0.46427 v 1.83127 h 0.43847 l 0.0258,1.23805 0.56743,-0.0387 -0.0903,1.28963 0.3611,-0.10317 0.11606,0.6835 -1.53466,-0.0645 0.11607,0.67061 h -0.3353 l -0.11607,0.0645 -0.012,0.55454 h -0.39978 -0.55454 v 0.59323 h -0.67061 -0.25792 v 0.24503 0.37399 l -0.38689,-0.0387 v 1.35411 l -0.56744,-0.0903 v 2.45029 h 0.56744 l -0.0258,0.18055 -0.0774,0.42558 h 0.86405 1.0317 v -0.41269 -0.19344 h 1.52176 1.30253 v 1.22515 l 0.46426,-0.0903 v 1.34122 l -3.108,-0.0387 -0.14186,0.0903 -0.0387,0.52875 h -0.79957 -0.60612 v 0.27082 0.33531 h -2.20527 -0.96722 -0.12896 v -0.60613 l 0.41268,-0.0387 0.0516,-0.58033 0.96722,0.0903 -0.012,-0.6964 h 0.30951 0.15475 v -0.60612 -0.0903 l -0.46426,0.0903 v -0.61902 h -0.49006 l 0.0387,-1.32832 -0.50296,0.10317 v -0.39979 -0.20634 h -2.82428 l -0.0645,0.50296 -0.41268,0.10317 v 0.3482 0.27082 h -0.19344 -0.27082 v 0.3353 0.27083 h -0.29662 -0.16765 v 0.61902 l -1.79258,-0.0903 -0.10317,2.52768 h 0.38688 l 0.0903,1.22514 h 0.46427 v 0.61902 l 0.50295,0.0516 -0.0258,0.55454 h 0.47716 v 0.60613 h 0.46427 v 0.61902 h 0.46426 v 0.76088 l 0.86405,-0.15476 0.0258,0.19345 0.0645,0.42557 h -2.36002 l -0.0645,-0.52874 -0.87695,-0.0903 0.0516,-0.73509 -0.52874,0.12897 0.012,-0.42558 v -0.19344 h -0.47716 v -0.60613 h -0.47716 l -0.012,-0.60613 h -0.45137 v -1.22514 h -0.47716 v -1.22515 h -0.46427 v -1.22515 h -0.94143 v -0.29661 l -0.0258,-1.53466 h -0.45137 l 0.12896,-2.36002 -0.59323,-0.0903 -0.0645,-1.84417 h -0.39978 l -0.0645,-0.32241 -0.012,-0.16765 -0.10317,-0.10317 h -0.77378 v -0.61902 h -0.46426 l 0.0387,-0.6964 -0.51585,0.0903 -0.0258,-0.58033 -0.11607,-0.10317 -1.26383,0.0645 -0.0774,-0.61902 h -0.38689 l -0.11606,-0.59323 h -0.3611 l -0.0645,-0.52875 -0.41268,-0.0903 v -0.38689 l -0.0138,-0.23214 h -0.45137 v -1.22514 h 0.46427 v -0.33531 -1.49597 h 0.29661 0.18055 v -2.43739 l -0.18055,-0.0516 -0.29661,0.0516 0.0258,-2.46319 -1.44438,0.012 0.0645,-0.6964 -0.52875,0.0774 v -0.60613 h -1.48307 -0.39979 v -1.22514 h 0.94143 v -0.60613 l 0.37399,-0.0645 0.0903,-0.25793 -0.0258,-1.52176 h 0.96723 v -0.60612 l 0.47716,-0.0903 v -0.52874 h 0.47716 v -1.22515 l 0.39979,-0.0138 0.0645,-0.32241 -0.0138,-0.94142 0.49006,0.0645 v -0.32241 -0.29661 h 0.24503 5.40354 v 0.61902 h 0.46427 v 2.4374 h 0.23213 0.7093 v 0.50295 l 0.23213,0.0516 0.24503,0.0645 v 0.27082 0.95432 l 0.54165,-0.0258 -0.0774,1.25094 h 0.30951 0.16765 l -0.0903,1.0317 -0.012,0.23214 -0.37399,-0.0387 v 0.60612 h 0.50295 l -0.0258,0.60613 0.14186,-0.0774 h 0.79957 v 0.6964 h 1.75389 0.0903 0.50295 v 0.24503 0.3611 h 0.95433 v -0.3611 -0.24503 h 0.39978 1.00591 l -0.012,-0.6964 h 0.49006 v -0.52875 l 0.46426,-0.10317 v -1.12197 h 0.38689 v -1.83128 h -0.38689 v -1.34121 -2.94035 l 0.38689,-0.0645 0.0774,-0.374 v -0.78667 h 0.18055 0.77377 l -0.0516,-0.7093 0.51585,0.0903 0.0387,-0.51585 0.11607,-0.0903 h 0.79957 v -0.60612 h 0.92853 l -0.0516,-0.72219 0.52875,0.10317 -0.0138,-0.61903 0.95433,0.012 v -0.61902 h 0.58033 l -0.11606,-1.21225 0.52874,-0.12897 v -1.10908 h 0.42558 v -0.39978 -0.20634 l 0.49006,-0.0258 0.11607,-0.012 h 0.3224 v 0.64481 h 2.36002 l 0.012,-0.64481 3.28855,0.0387 v 0.3482 0.25792 h 0.24503 0.21924 v 0.49006 0.74799 l 0.28372,-0.12897 0.20634,0.0645 -0.0258,0.6706 h 1.41859 v -0.19344 -0.24503 -0.78667 h -0.18055 -0.28372 l -0.0516,-0.51586 -0.11607,-0.10317 h -0.30951 v -0.23213 -0.19344 -0.79957 h -0.27082 -0.20634 l -0.11607,-0.59323 h -0.3482 l -0.0387,-0.61902 h -0.42558 v -2.4503 h -0.47716 v -1.22515 h -1.41859 v -1.83127 h -0.46427 l 0.10317,-0.63192 -0.56743,0.0258 v -0.61903 h -2.83719 l 0.012,-0.6964 -0.3353,-0.0516 -0.14186,0.14186 h -0.46427 l -0.0774,0.47716 -0.39978,0.12896 v 0.19345 0.42558 l -1.89576,-0.0516 0.0138,0.65771 h -0.24503 -0.23213 l 0.0387,1.12198 -0.50296,0.10317 v 0.82536 0.39979 h -0.21923 l -0.23214,0.0903 -0.012,0.51585 h -0.95433 v 0.60613 h -3.76572 v -0.60613 h -0.46426 l 0.012,-0.6964 -0.96722,0.0903 -0.0387,-0.38689 -0.0387,-0.23214 h -0.38689 v -1.22514 h -0.46427 l -0.0645,-1.13488 -0.41268,-0.0774 0.11606,-1.26384 -0.59322,0.0387 v -0.61902 h -0.46427 l -0.0645,-1.26384 -0.41268,0.0387 v -0.60613 h -0.46427 v -0.61902 l 0.46427,-0.012 v -0.59323 h -0.46427 l -0.11607,-2.4503 h -0.36109 l 0.0516,-1.23804 -1.93444,0.0138 v -0.60612 h -1.4057 v -0.61902 h -0.46426 v -0.60613 h -0.47716 v -0.60612 h -0.47717 v -1.23805 h -0.46426 l -0.012,-0.54164 -1.4057,-0.0645 v -0.60613 h -3.76571 v -0.6835 l -1.88286,-0.0774 v -0.46427 h -0.18055 -0.28372 l -0.0903,-0.61902 h -0.38689 l -0.0903,-0.60612 h -0.37399 l -0.0903,-0.61902 h -0.38689 v -0.3482 -0.25793 l -0.46426,-0.0903 v -0.51586 h -0.47717 v -1.22514 h 0.52875 l -0.0645,-2.4503 0.32241,-0.10317 0.15475,0.10317 v -0.45137 -0.77377 l 0.38689,-0.0645 0.0903,-0.16765 v -2.21816 l 0.39978,-0.0645 0.0645,-0.21924 v -2.15368 h 0.47716 v -1.23804 l 0.374,-0.0138 0.11606,-0.6835 0.45137,0.0903 v -1.96023 -0.85116 -0.24503 h 0.28372 0.12896 l 0.0516,-0.0645 v -1.43149 -0.95432 h 0.12896 l 0.81247,0.0387 v -1.26384 h 0.46427 v -0.61902 h 0.37399 v -1.00591 -0.19344 l 0.58033,-0.012 v -0.30951 -0.30951 h 0.41268 0.52875 v -0.41268 -0.19345 h 0.24503 4.46211 v 0.60613 h 0.94143 v -0.18055 -2.87587 h -0.3224 -0.61903 v -1.22515 h -1.41859 v -0.60613 h -0.46426 v -0.60612 h -0.27083 -0.20634 v -0.24503 -0.37399 l -0.39978,-0.10317 -0.10317,-0.12897 -0.0645,-0.38688 h -0.374 l -0.012,-0.60613 h -2.33423 l -0.0387,-0.61902 h -0.43847 l -0.0258,-0.60613 h -0.91563 v -0.60612 h -0.47716 l -0.0258,-0.6964 -0.43847,0.0774 -0.0645,-0.50296 -0.11607,-0.10317 h -0.28372 l -0.0903,-0.61902 h -0.38689 l 0.0258,-0.59323 -0.49006,-0.0138 v -0.60612 h -2.36002 v -0.68351 -0.55454 h -0.27082 -0.20634 v -1.14777 -2.51477 l -0.43847,-0.012 -0.0387,-0.24503 -0.0387,-0.36108 h -0.42558 l 0.0387,-0.6964 -0.50295,0.0903 -0.0516,-0.37399 -0.0387,-0.23214 h -0.38689 l 0.0387,-1.25094 -0.50295,0.0138 v -1.22515 h -0.47717 v -1.83127 h 0.47717 v -1.22515 l 0.52874,0.0645 -0.0645,-0.6706 0.47717,-0.10317 v -0.96723 -0.15475 l 0.0903,0.012 0.47716,0.0774 -0.10317,-0.70929 0.0645,-0.012 0.49006,-0.12896 -0.0258,-0.63192 -0.0516,-1.0575 0.33531,-0.0516 0.0516,-0.012 0.0774,-0.37399 v -0.16765 -0.61902 h 0.18055 0.10317 0.19344 v -0.32241 -0.42558 -1.08329 h 0.46427 v -0.61902 h 0.47716 v -1.22514 h 0.56744 l -0.0903,-0.60613 h 0.46426 l -0.012,-0.64481 0.49005,0.0258 0.0516,-0.47716 0.15475,-0.12897 h 0.25793 v -0.71359 -1.13488 l 0.39979,-0.0258 0.0774,-0.21923 v -0.96723 h 0.29662 0.16765 v -0.76088 l 0.12896,-0.54164 h 0.81247 v -1.14777 l 0.43847,-0.012 0.0258,-0.18055 v -1.0317 h 0.28372 0.19345 l 0.0645,-0.52875 0.41268,-0.0774 0.0645,-0.52875 0.28372,-0.0903 h 0.59323 v -0.30951 -0.30951 h 0.60612 1.27674 l 0.0137,-0.61902 2.34713,0.012 v -0.42558 -0.18055 h 2.02471 3.61096 v -0.3353 -0.28372 h 2.83719 v 0.25793 0.36109 l 0.46426,0.012 v -0.63106 l 0.52875,0.0387 -0.0137,-0.16765 -0.0516,-0.47717 h 0.55454 0.39979 l 0.0516,-0.52874 0.74799,-0.0903 h 2.50187 v -0.52875 l 0.41269,-0.0774 0.0516,0.60612 h 0.46427 l -0.012,-0.70929 1.89576,0.10317 0.0645,-0.51585 0.12896,-0.10317 h 0.27082 v -0.61903 l 1.89576,0.012 v -0.61902 h 0.14185 0.14186 1.59914 v -0.3611 -0.24503 h 0.61903 1.74099 l 0.0387,-0.6964 0.90274,0.0774 0.012,-0.52875 0.15476,-0.0774 h 0.29661 l -0.0774,-0.65771 2.4374,0.0516 v -0.61902 h 0.94143 v -0.39979 -0.20634 h 0.21924 0.24503 v -0.37399 -0.24503 l 0.24502,-0.11607 0.28372,0.0516 0.41268,0.0645 v -0.50209 -0.11607 l 0.0903,0.012 0.37399,0.0645 0.012,-0.46427 v -0.21838 l 0.24503,-0.0258 0.15475,-0.012 0.0645,-0.19344 v -0.37399 h 0.19345 0.11606 0.16766 l -0.0258,-0.19345 -0.0258,-0.24503 0.0516,-0.18054 h 0.27082 0.20634 v -0.20634 -1.01881 l 0.39978,-0.0258 0.0774,-0.32241 0.0387,-2.68243 1.35411,-0.0258 v -0.39979 -0.21923 h 0.24503 0.23213 v -0.19345 -0.41268 h 0.46427 v -0.60612 l 1.00591,0.10317 -0.0645,-1.94734 0.41268,-0.012 0.0645,-0.32241 v -0.28371 h 0.19345 0.28371 l 0.0774,-0.50296 0.20634,-0.10317 h 1.12198 v -0.60613 h 0.46427 v -0.25792 -0.3611 h 0.27082 0.20634 v -0.27082 -0.3353 h 0.23213 0.7093 l -0.0645,-0.73509 0.54164,0.11607 v -0.60785 h 0.12896 0.33531 l 0.0645,-1.30252 0.87694,0.0774 0.0516,-0.47716 0.42558,-0.14186 -0.012,-0.79957 0.95433,0.19345 v -0.61903 h 3.28855 v -0.38688 -0.21924 h 0.41268 1.00591 l 0.0258,-0.72219 1.37991,0.11606 v -0.61902 h 0.47716 v -0.61902 h 0.94143 v -0.60613 h 0.46426 v -0.36109 -0.25793 h 0.25793 0.21924 l 0.0774,-0.52875 0.38689,-0.0774 v -0.60613 h 1.88286 v -0.61902 h 1.41859 l -0.0516,-0.65771 h 1.0317 l -0.0387,-0.56744 0.38689,-0.0903 0.0774,-0.16765 v -0.3482 h 1.58624 0.77378 v 0.60612 h 1.40569 v -0.60612 h 0.49006 v -0.61903 l 0.46427,0.012 v 0.60613 h 0.94143 l 0.0137,-0.58034 1.3928,-0.0387 -0.0387,-0.3611 0.0387,-0.24503 h 2.36002 v 0.20634 0.39979 h 0.47717 v -0.41269 -0.19344 h 0.42557 1.44439 v -0.6964 l 2.83718,0.0774 v -0.49006 l 3.28855,-0.11607 v 0.60613 l 1.90865,-0.12897 -0.0258,0.74799 h 3.28855 v -0.6964 h 1.4186 v 0.6964 h 1.41859 v -0.6964 h 0.15475 l 2.66953,0.0774 0.0258,-0.49006 4.68135,-0.11607 v -0.61902 h 0.94143 v 0.61902 h 6.6029 v -0.61902 h 0.92853 v -0.60527 h 0.47716 v -0.61902 l 0.51585,0.0516 -0.0516,-1.27673 h 0.3482 0.60612 v -0.60613 h 1.4057 v -0.60613 h 0.94143 l -0.0387,-0.72219 0.98012,0.10317 -0.0258,-0.76088 2.85008,0.15476 v -0.61902 l 0.24503,0.0137 1.66362,0.0516 -0.0258,-0.68351 h 0.24503 0.23213 v -0.30951 -0.29661 h 1.10909 2.17947 v -0.60613 h 1.41859 l -0.0516,-0.76088 0.99302,0.14186 v -0.63192 l 1.88286,0.0258 v -0.3482 -0.27083 h 0.86405 1.96023 l 0.0516,-0.70929 h 0.42558 v -0.50296 l 0.46426,-0.012 v -0.60613 h 0.42558 0.51585 v -0.61902 h 0.14186 0.79957 v -0.60613 l 0.47716,-0.11606 v -0.50296 h 0.16765 0.29662 l -0.0903,-0.67061 1.50887,0.0516 v -0.59323 h 0.94143 v -0.65771 h 2.82429 v -1.1863 h 0.20634 0.73509 l -0.0387,-0.6964 0.51585,0.0774 v -0.60613 h 0.94143 l 0.0387,-0.49005 0.19344,-0.11607 h 3.05642 l 0.0387,-0.49006 0.15475,-0.12896 h 0.74799 l -0.0258,-0.65771 h 0.16765 l 2.21816,0.0387 v -0.60785 h 0.3353 0.12897 v -0.3353 -0.99302 l 0.99301,0.0516 0.88984,0.0516 v -0.60612 h 0.23214 1.18644 v -0.61902 h 0.94143 l 0.10317,-0.63192 h 0.83826 l -0.11607,-1.34122 -0.3611,0.14186 -0.0903,-0.61902 h -0.37399 v -0.37399 -0.23213 l -0.92854,-0.12897 v -0.14186 l -0.012,-1.57334 0.42558,-0.012 0.0516,-0.18055 v -0.41268 l 0.56744,0.0387 -0.10317,-0.65771 0.41268,-0.0387 0.0516,-0.56744 0.51585,0.0516 -0.0387,-0.67061 h 0.3353 0.12896 l 0.0516,-0.6835 0.42557,0.0774 -0.0387,-0.60613 -0.0258,-0.65771 h 0.0903 l 1.3928,0.0258 1.88285,0.0138 v 0.20634 0.41268 l 0.95433,-0.14186 -0.0138,0.74799 h 0.46427 l 0.0387,-0.60613 h 0.43847 v -0.29661 -0.32241 h 0.3482 0.59323 l -0.0387,-0.73509 h 0.50296 l 0.11606,-2.32133 h -1.05749 l 0.0258,-0.77378 -0.49006,0.15476 -0.0516,-0.47717 -0.24503,-0.14185 h -0.64482 l 0.0516,-0.3482 0.0387,-0.25793 h -0.56744 v -0.76088 -5.36486 h 0.56744 0.37399 v -0.61902 h 0.47716 v -0.60784 h 0.18055 0.14186 1.08329 v -0.60613 l 0.52875,-0.11607 -0.0516,0.7222 h 0.46427 v -0.7222 h 0.52874 l -0.0516,0.7222 h 0.94143 v 0.60612 l 0.45137,-0.11606 0.0138,0.73508 h 0.79957 l 0.11607,0.21924 0.0258,0.39979 0.96722,-0.0645 -0.0258,0.67061 h 0.37399 l 0.0645,0.3353 0.10317,0.20635 0.39978,0.0645 -0.0387,0.52874 h 1.96024 l -0.0387,-0.52874 h 0.30951 0.16765 v -0.32241 -0.28372 h 0.18055 0.28372 l 0.12896,-0.61902 h 0.81247 v -1.22515 l 0.52874,-0.11606 -0.0516,-0.49006 h 0.21924 0.25792 v -0.7222 -0.50295 h -0.15475 -0.32241 l 0.11607,-0.67061 -1.53466,0.0645 0.12896,-0.64481 -1.00591,0.0258 h -0.0645 l 0.0258,-0.3482 -0.0258,-0.21923 -0.46427,-0.0516 v -0.74798 h -0.83436 l -0.10317,-1.08329 0.38689,-0.0258 0.0774,-0.29662 v -0.28372 h 0.30951 0.63192 l 0.0387,-0.60612 h 0.49006 l 0.41268,-0.012 v -0.25793 -0.36109 h 0.43847 v -1.21225 h 0.50296 V 168.183 h 0.21923 0.25793 v -0.55454 -0.67061 l 0.39978,-0.0645 0.0774,-0.14186 v -0.41268 l 0.49006,0.0774 -0.0258,-1.28962 h -0.46427 v -0.67061 l -0.47716,0.0516 -0.0258,-0.60612 h -0.45137 v -0.37399 -0.24503 l -0.50296,-0.0387 v -1.18646 h -0.43847 v -1.34121 -0.49006 h -0.18055 -0.28372 v -1.50887 -0.3353 h 0.28372 0.0774 l 0.10317,-0.0387 v -2.14078 -1.49597 h 0.12896 0.18055 1.10908 v -0.33531 -0.27082 h 0.32241 0.61902 v -0.61902 h 0.15475 0.14186 0.64482 v -0.3353 -0.27083 h 0.24503 2.11499 v 0.60613 h 0.78667 0.15476 v 0.56744 l 1.18645,0.0516 0.19345,0.0903 0.0258,0.51586 h 0.47716 v -0.42558 -0.18055 h 0.374 1.0317 l 0.0645,-0.54164 0.41268,-0.0774 -0.10317,-1.83127 h -0.37399 l 0.0645,-0.78668 -1.00591,0.16765 -0.0258,-0.16765 v -1.05749 h 0.50295 l -0.0516,-0.6964 0.51585,0.0903 0.0645,-0.61902 h 0.41268 l 0.0645,-0.51585 0.39979,-0.0903 v -2.45029 h -0.18055 -0.28372 l -0.10317,-1.25094 -0.37399,0.0258 0.0645,-1.367 -0.52875,0.14186 v -1.03171 -0.81246 -0.60613 l 0.52875,0.14186 -0.0258,-0.83826 -0.0387,-1.13487 0.42558,-0.0258 0.0516,-0.28372 v -0.81247 l 0.46427,-0.11607 v -0.29661 -0.30951 h 0.3482 0.59323 v -0.61902 h 0.94143 l -0.0258,-0.6964 1.44439,0.0903 -0.0138,-0.36109 -0.0258,-0.374 0.98012,0.11607 v -0.60613 l 0.46426,0.0774 v -0.6964 h 0.43848 0.50295 v -0.70929 -0.11607 -0.38689 h 0.30951 0.16766 v -1.23804 h -0.18055 -0.29662 v -1.18646 -0.65771 h -0.15475 -0.30951 l 0.0516,-0.78667 -0.99301,0.19344 -0.0645,-0.61902 h -0.87695 l -0.0387,-0.61902 H 635.787 v -1.22515 l 0.43847,0.11607 v -0.7222 h 2.10209 l 1.22515,0.12897 0.012,0.47716 h 0.46426 v 0.61902 l 0.85116,-0.10317 0.0903,0.7093 0.50296,-0.0516 -0.0387,0.67061 h 1.10908 0.67061 l 0.11606,0.61902 h 2.82429 v -0.61902 h 0.21924 0.24503 v -3.06932 l -0.24503,-0.012 -0.21924,0.012 v -0.32241 -0.28371 h -0.19344 -0.28372 v -0.38689 -0.23214 h 0.20634 0.27082 v -0.29661 -0.32241 h 0.27082 0.19345 v -0.24503 -0.36109 h 0.28372 0.19344 v -0.25793 -0.96722 l 0.54164,0.0645 -0.0774,-0.67061 0.42557,-0.0516 0.0387,-1.18646 h -0.92853 l -0.11607,-0.6835 h -1.32831 v -1.14777 h -0.43848 v -1.84417 l 0.46427,-0.11607 v -0.49006 l 1.00591,0.10317 -0.0645,-1.94734 h 0.47716 v -0.60612 l 0.46427,-0.11607 v -1.10908 l 0.47716,0.0138 v -1.23805 l 0.54164,0.0516 -0.0774,-0.67061 0.41269,-0.0516 0.0645,-1.16067 0.50295,0.0258 -0.0387,-1.26383 0.54165,0.0516 -0.0645,-0.65771 0.37399,-0.0645 0.0903,-0.21924 v -0.94142 h -0.21923 -0.24503 v -0.43848 -0.16765 l -0.55454,-0.12896 0.0774,0.73509 h -1.88285 v -0.60613 h -0.94143 l 0.0645,-0.52875 -0.20634,-0.0903 h -0.79957 v -0.32241 -0.29661 h -0.59323 -0.3482 v -0.16766 -2.23105 h 1.94734 l -0.0645,-1.27674 0.36109,-0.0645 v -1.147765 h -2.70822 v -0.61902 h -1.63783 -0.24503 l -0.0138,-0.32241 v -0.29661 h -0.21924 -0.24503 v -0.30951 -0.29662 l -5.68726,-0.10317 0.0387,-0.51585 h -0.30951 -0.16765 v -0.29661 -0.30951 h 0.16765 0.30951 l -0.0387,-0.63192 0.51585,0.0138 0.15476,-0.60613 h 0.30951 v -1.22515 h 0.46426 v -0.39978 -0.82536 h 0.52875 v -1.22515 h -0.99301 l -0.0516,-0.61902 h -0.41268 v -0.61903 h -1.41859 l -0.0516,-1.21225 h -0.42557 l -0.0645,-4.32025 h -2.38582 l 0.10317,0.64481 h -3.30145 l -0.11606,-0.64481 -0.3482,0.0258 v -1.22515 l 0.46426,-0.14186 v -0.30951 -1.3928 h 0.51585 0.42558 v -1.83127 h -0.73509 -0.20634 v 0.60613 h -1.88285 v -0.18055 l 0.0138,-2.26975 h -1.89575 l -0.0258,-0.74798 -0.55454,0.14186 h -1.30252 v 0.3224 l -0.0774,0.24503 -0.39978,0.0387 0.0138,0.64482 -0.47716,-0.0258 v 0.29662 l -0.0903,0.27082 -0.38689,0.0516 v 1.04459 0.78668 h -0.18055 -0.28372 v 2.45029 l 0.28372,-0.14186 0.0774,0.20634 0.012,0.25793 0.0903,1.52176 0.49006,-0.0138 -0.012,1.84416 0.51585,-0.0387 -0.0516,1.26383 h 0.91563 l 0.0387,0.61902 h 0.46427 v 0.60613 l 0.46426,-0.0774 v 0.6835 l 0.50296,-0.0258 -0.0258,0.64482 h 0.79957 0.0903 0.0516 v 1.22514 h -0.47717 v 0.16766 0.45137 h -0.12896 -0.3353 v 1.08328 l -0.47717,0.14186 v 0.60613 l 0.58034,-0.0516 -0.10317,1.27674 0.55454,-0.0138 -0.0903,0.63192 h -0.20634 -0.25792 l -0.0645,0.58033 -0.41269,0.0258 v 0.61902 l -0.92853,-0.10317 v 0.7093 h -0.55454 -0.39978 v 0.23213 0.18055 0.20634 h -0.3611 -0.10317 v 0.50296 0.11606 h -4.24288 v -0.60612 h -0.86405 l -0.0774,-1.85707 0.42558,-0.0137 0.0516,-0.28372 v -1.35411 -0.18055 h -0.50296 -0.91564 v -0.3482 -0.27082 h -0.3224 -0.61902 l -0.0645,-0.60613 h -0.87694 v -0.61902 h -0.94143 l 0.11606,-0.65771 -0.58033,0.0516 -0.0774,-0.51586 -0.39978,-0.10317 -0.0774,-0.51585 -0.38689,-0.0903 v -0.30951 -0.30951 l -0.47716,-0.0258 v -0.59322 h -0.30951 -0.15476 v -0.28372 -0.32241 l -7.06716,-0.11607 v -0.49006 h -0.19345 -0.28371 l -0.0387,-0.61902 h -0.42556 l 0.0258,-0.60612 -0.50296,-0.012 0.0903,-1.32832 -0.55454,0.10317 v -0.60612 h -0.94143 v -0.60613 h -1.88286 v -0.24503 -2.82428 l 0.42558,-0.012 0.0387,-0.25793 v -0.95432 h 0.47716 v -1.22515 h 0.46427 v -2.45029 h -1.4057 l 0.0645,-0.61902 h -1.00591 v 0.61902 h -0.94143 v -0.61902 h -0.43847 v -0.61903 h -0.50296 v -0.60612 l 0.50296,-0.11607 v -1.10908 h -0.50296 v -1.83127 h -0.94143 l 0.10317,-0.56744 -0.29661,-0.0516 h -2.16658 l 0.0258,-0.3611 0.012,-0.25793 -0.50295,0.0138 v -2.85008 -0.83826 l -0.16765,-0.0903 -0.30951,0.0903 -0.0138,-1.84417 -0.45137,0.0138 v 0.60612 h -0.95433 v 0.61903 h -2.34712 l -0.0387,-0.82537 -0.012,-0.39978 h -0.42557 l 0.0903,-1.36701 h -1.0317 v -0.47716 l -0.39979,-0.0903 -0.0645,-0.52875 h -0.47716 v 0.61902 h -0.46427 v 1.01881 0.20634 h -0.94143 v 1.00591 0.21923 h 0.28372 l 0.14186,0.10317 0.0387,0.51586 h 0.38689 l 0.0645,0.51585 -2.17947,0.0516 h -0.16765 l 0.012,0.65771 h -1.40569 l -0.0774,1.10908 -0.39979,0.11607 v 0.30951 0.29662 h -0.27082 -0.19344 v 0.21923 0.39979 h -0.29662 -0.18054 v 0.61902 l -0.43848,-0.15476 v 0.81247 l -0.50295,-0.0516 v 1.83127 l 0.50295,-0.0258 -0.0258,0.64481 h 0.73509 l 0.12896,0.12896 0.0387,0.24503 0.0387,0.24503 h 0.23213 0.23213 l -0.0387,0.49006 h 1.0317 l -0.0516,0.72219 1.45728,-0.0258 -0.0516,0.64481 h 0.30951 0.16765 v 0.61903 h -0.47716 v 0.3224 0.28372 h -0.25793 -0.20634 v 0.23213 0.38689 l -0.27082,-0.0516 -0.19344,-0.0387 v 0.7093 h -0.94143 l 0.10317,-0.7093 h -2.69533 l -0.24503,0.0903 v 0.61903 h -0.56743 -0.37399 v 0.12896 0.10317 0.37399 h -3.76572 l -0.0387,-0.60612 h -0.90274 v -0.7093 h -0.82536 l -1.52176,0.0903 v -0.64481 l -0.94143,0.0258 v -0.82536 -1.01881 l 0.41268,-0.0258 0.0516,-0.16765 v -0.19345 -1.44438 l 0.54165,0.0387 v -0.27082 l -0.0645,-2.21816 h -0.47717 v -0.60613 h 0.47717 v -0.61902 h -0.47717 v -0.61902 h -0.46426 v -0.60613 h -0.76088 -1.59914 v 0.3482 l -0.0645,0.23213 -0.39979,0.0258 v 0.51585 l -2.36002,0.10317 -0.012,-0.50296 -0.77377,-0.11606 h -2.03762 l -0.0774,-2.54057 -0.39978,0.0903 v -0.60612 h -1.88286 v -0.61903 h -0.46426 v -0.60612 h -0.47717 v -0.61902 h -0.94143 l 0.012,-0.65771 -0.19344,-0.0903 -0.28372,0.14186 -0.0645,-0.51585 -0.41268,-0.10317 v -0.3482 -0.27082 h -0.46427 -1.41859 v -0.6835 l -2.34713,0.0774 v -0.42557 -0.18055 h -0.47716 v 0.3224 0.28372 h -0.49006 -0.91563 l 0.0387,0.49006 -0.51585,0.11607 v 0.61902 h -0.46426 v 0.61902 l -0.3611,-0.14186 v 1.7539 l -0.11607,0.21923 h -0.94142 v 0.61903 h -1.4057 v -0.61903 h -0.94143 l -0.012,-0.61902 -0.46426,0.0138 v -0.61902 h -1.41859 v -0.74799 h -0.81247 l -0.11607,0.14186 v -1.23804 h -0.49006 l -0.012,-0.54165 -1.3928,-0.0645 -0.0516,-0.47716 -0.18054,-0.12896 h -0.7093 l 0.012,-0.64482 -0.15476,0.0138 -0.79957,0.0137 v -0.60612 h -0.18055 -0.28371 v -0.29662 -0.3224 l -0.41269,-0.10317 -0.0645,-0.51585 h -2.7598 -2.88877 l -0.0645,-0.47717 -0.21924,-0.12896 h -1.59914 v -0.60613 h -0.47716 l -0.0903,-0.61902 h -0.37399 v -0.61902 h -1.41859 v -1.22515 h -0.46427 v -0.64481 l -0.11606,-0.0645 -0.82536,0.10317 -0.10317,-0.63192 -0.374,0.0138 v -0.38689 -0.21924 h -0.21923 -0.24503 v -0.25792 -0.3611 l -1.96024,-0.14186 0.0774,-0.46427 h -0.29662 -0.16765 v -0.37399 -0.24503 l -0.95432,-0.12896 v -1.09619 h -0.46427 v -1.97313 -0.47716 l -0.15475,-0.0903 -0.32241,0.0903 v -0.60613 -0.61902 l -0.47716,-0.14186 v -0.47716 h -0.50296 -0.42558 v -0.39978 -0.20634 h -0.24503 -0.70929 l -0.012,-0.73509 h -1.44438 v -0.49006 h -0.42558 v -0.61902 l 0.42558,-0.10317 0.0516,-0.14186 v -0.98012 l 0.39979,-0.0516 0.0774,-0.18054 v -1.27674 -2.16657 h -0.47716 l -0.0645,-0.60613 h -0.41268 l -0.0645,-0.61902 h -0.39979 l 0.0774,-1.25094 -0.55454,0.0258 v -0.61902 l 0.42558,-0.0774 0.0516,-0.46426 v -1.90865 h 0.19345 0.27082 v -0.61902 l -0.19344,-0.11607 -0.27083,0.11607 0.0903,-1.23805 0.37399,0.0258 v -0.61902 h -0.45137 l -0.10317,-0.60612 h -0.38689 l -0.0645,-0.51585 -0.23213,-0.10317 h -0.16766 v -0.32241 -0.29662 l -0.41268,-0.10317 -0.0645,-1.10908 h -0.24503 -0.21923 l 0.0774,-0.60612 -0.55454,-0.012 0.10317,-1.28963 -0.56743,0.0645 v -0.61902 h -0.47717 l -0.0516,-1.83127 h -0.41268 l 0.0645,-1.26384 -0.54165,0.0258 0.10317,-1.86997 -0.56743,0.0387 0.012,-1.27673 -0.95432,0.0516 -0.0645,-0.61903 h -0.41268 l -0.0516,-0.60612 h -0.88984 v -0.50296 l -4.56529,-0.11606 h -0.14186 v 0.61902 h -3.76571 l 0.0516,-0.67061 -0.52875,0.0516 0.0387,-0.68351 h -0.50295 v 0.68351 h -1.4057 v -0.7093 l -2.83718,0.10317 v -0.61902 h -1.86996 v 0.61902 l -0.38689,0.0774 -0.0516,0.27082 -0.0903,0.21924 -0.42558,0.0387 0.11607,0.65771 -2.46319,-0.0387 v -0.61902 h -0.47716 v 0.19344 0.42558 h -1.08329 -0.32241 v 0.60612 h -2.36002 v -0.60698 h -0.12896 -0.33531 v -3.19828 -2.94035 h -0.3224 -0.15476 l 0.10317,-0.55454 -0.58033,-0.0516 v -0.61902 h -1.88286 l 0.0258,-0.50296 -0.49006,-0.10317 v 0.24503 0.3611 h -1.25093 -1.09619 v 0.58033 l -0.47716,0.0387 0.0516,0.59323 h -0.52874 v 0.63192 h -1.4057 v -0.79957 -0.42558 l -0.43847,0.0516 V 9.4747647 h -0.50296 l 0.012,-1.26384 -0.96722,0.0387 -0.0387,-0.47716 -0.23214,-0.12896 h -1.12197 v -0.64482 l -1.41859,0.0258 v -0.60613 h -0.95433 l 0.0258,-0.73509 -1.90865,0.11607 v -0.61902 l -1.3799,0.12896 -0.0258,-0.73509 h -0.14186 z"
     id="path830"
     style="fill:#000000;fill-opacity:1;stroke:#000000;stroke-width:1.26384" />
</svg>
