<?xml version="1.0" encoding="UTF-8" standalone="no"?>
<svg
   xmlns:dc="http://purl.org/dc/elements/1.1/"
   xmlns:cc="http://creativecommons.org/ns#"
   xmlns:rdf="http://www.w3.org/1999/02/22-rdf-syntax-ns#"
   xmlns:svg="http://www.w3.org/2000/svg"
   xmlns="http://www.w3.org/2000/svg"
   xmlns:sodipodi="http://sodipodi.sourceforge.net/DTD/sodipodi-0.dtd"
   xmlns:inkscape="http://www.inkscape.org/namespaces/inkscape"
   version="1.1"
   width="1360"
   height="1360"
   viewBox="0 0 1360 1360"
   id="svg224"
   sodipodi:docname="Corsica.svg"
   inkscape:version="1.0.1 (3bc2e813f5, 2020-09-07)">
  <metadata
     id="metadata230">
    <rdf:RDF>
      <cc:Work
         rdf:about="">
        <dc:format>image/svg+xml</dc:format>
        <dc:type
           rdf:resource="http://purl.org/dc/dcmitype/StillImage" />
        <dc:title></dc:title>
      </cc:Work>
    </rdf:RDF>
  </metadata>
  <defs
     id="defs228" />
  <sodipodi:namedview
     pagecolor="#ffffff"
     bordercolor="#666666"
     borderopacity="1"
     objecttolerance="10"
     gridtolerance="10"
     guidetolerance="10"
     inkscape:pageopacity="0"
     inkscape:pageshadow="2"
     inkscape:window-width="1920"
     inkscape:window-height="974"
     id="namedview226"
     showgrid="false"
     inkscape:zoom="0.45192403"
     inkscape:cx="256.95752"
     inkscape:cy="465.99285"
     inkscape:window-x="-11"
     inkscape:window-y="-11"
     inkscape:window-maximized="1"
     inkscape:current-layer="svg224"
     inkscape:document-rotation="0" />
  <path
     d="m 383.59885,670.59397 7.34029,3.42089 2.42385,8.13105 -2.52699,7.92477 -7.23715,2.93956 v 5.58688 h 17.05287 v 6.11978 l -9.661,6.82458 -5.0196,2.61294 -6.13697,1.30647 5.79316,-0.80795 5.50093,0.63605 4.96802,2.26914 4.55546,4.0225 -1.63309,3.0084 -2.92237,7.7184 12.42865,-0.2062 13.94141,3.0083 11.05342,6.6183 4.50388,10.4345 3.52403,3.1631 17.0013,-4.6758 6.36044,1.5127 4.26322,7.2372 10.50333,23.3274 9.52348,7.0996 3.55841,5.6212 -0.92828,10.2111 -3.28337,0.1719 -16.31368,8.7328 -3.16303,2.3035 -13.2366,4.0053 -12.05047,9.1109 -5.15711,9.5063 7.73567,5.3806 -8.37172,14.4399 -11.91294,4.9681 -29.98004,2.9911 17.13882,20.405 2.57856,11.1222 -6.92773,13.7007 4.26322,10.6237 9.50628,-6.4292 10.81276,-2.5958 25.0464,-1.5987 13.13346,-4.0913 20.76599,-11.5004 12.20518,-1.2033 6.48077,1.5987 3.86784,2.9052 2.78484,4.8649 3.52403,7.4262 6.89335,5.1571 1.4268,0.4298 -1.23771,5.2431 -5.34621,6.8589 -1.73623,4.1257 -1.04861,0.1375 -7.28873,11.5864 2.23476,-0.7392 2.47541,4.6586 2.13161,5.4665 1.49556,1.7878 -4.91645,4.5383 -20.0268,6.5839 7.04806,1.1346 6.03382,3.0599 4.71017,5.2774 2.97394,7.7873 -19.87209,11.9473 -12.39427,4.24597 -13.88984,0.069 v 6.0854 l 6.75582,4.4007 1.083,7.581 -2.73327,8.4748 -5.10555,6.9106 -7.82163,4.3835 -17.10443,2.7161 -7.99354,4.0569 7.83882,1.9597 6.10259,2.8021 6.54954,1.8909 8.66396,-0.6017 -2.97394,7.7013 -1.52995,2.9568 14.3196,-1.0314 24.99483,-9.7642 15.11035,0.1375 -5.34621,16.4169 7.73567,8.0279 14.3196,2.6645 14.68059,0.2922 38.21424,10.9847 14.33678,0.6704 -7.34029,8.8359 -8.32015,4.8133 -6.84178,5.7416 -2.83641,11.2081 -5.20869,4.9336 -32.61017,15.0416 -10.52052,-5.243 -5.94787,11.3456 -4.00536,16.6747 -4.46951,10.6409 9.23124,3.5068 1.92533,5.5009 -2.81923,15.7464 3.31775,3.3693 7.73567,3.5756 8.52644,2.2176 5.74159,-0.6189 4.41793,2.8193 7.73567,2.7676 v 5.0368 l -8.33733,5.5697 5.3634,3.8334 4.81331,0.6361 h 4.84769 l 5.75878,1.5815 3.31774,3.2834 1.18614,3.6787 1.54713,2.974 14.16489,3.1458 5.99944,4.607 4.91645,5.4494 6.63549,4.6758 9.33439,-2.1832 14.97283,2.2863 15.45416,4.8821 6.39482,5.6384 4.17727,6.0167 3.50684,-2.7505 2.44103,-1.3924 6.48078,-1.8738 -1.27209,2.6817 -0.75638,0.9799 -0.73918,0.6017 -1.34085,1.7534 4.1085,5.5525 17.94677,-14.2852 7.09963,-2.3551 v 5.0711 l -8.07949,11.5692 8.71553,7.0824 14.78374,6.2573 9.86728,8.8187 -5.60407,1.6846 -2.97393,2.6817 -6.60111,20.9207 15.71201,6.945 18.94381,2.9395 9.62662,4.1945 15.05878,13.8382 7.83882,2.613 10.022,-5.3462 4.26322,-6.8418 5.24307,-12.1536 4.76173,-13.8211 2.28633,-12.102 -7.54659,4.5039 -9.71257,9.1796 -6.89334,2.974 v -5.054 l 5.65564,-4.9508 2.02846,-6.2573 -1.97689,-6.2745 -5.70721,-4.7274 v -5.9822 l 10.57209,-1.4612 16.55434,-11.0535 9.52348,-4.16 -3.78189,-6.0167 6.15416,-5.4665 2.6817,-7.1512 -1.7878,-6.3089 -7.04806,-2.8192 2.49261,-5.7588 0.68762,-5.5697 -0.68762,-5.6556 -2.49261,-5.7588 10.57209,-1.9941 6.18854,-7.8388 4.57265,-8.4577 5.74159,-3.971 10.70961,-2.3894 8.7671,-6.6527 5.81035,-9.7126 2.18318,-11.5691 -5.55249,-7.3919 -12.20518,2.0629 -20.02681,8.4233 -8.26857,-5.501 3.55841,-7.5637 5.81035,-8.1311 -1.10019,-7.1512 7.04806,-1.1689 8.81867,0.5672 9.17967,2.1832 8.16544,3.9882 -2.76765,-12.3083 1.89094,-4.6071 4.84769,-0.3953 6.34325,0.6188 5.75883,-4.1772 2.9739,-9.1797 1.6846,-14.5087 h -8.3373 l 3.1802,-7.8904 5.4494,-7.1684 6.051,-5.1915 4.5555,-1.9941 1.8393,-4.0397 0.8424,-59.8398 -5.2947,-55.76557 5.1915,-56.8314 0.2063,-29.1033 3.3693,-7.5982 9.2141,-9.2656 41.807,-60.854 9.3688,-20.0612 6.5323,-10.5893 16.4684,-15.5057 4.3664,-7.4091 1.3408,-6.412 1.1861,-14.3196 1.6331,-6.8074 -4.4695,-19.40791 4.4695,-102.36877 -2.527,-16.22773 -11.2597,-32.06008 -2.8708,-16.93254 0.2923,-15.50573 1.6331,-12.92717 2.7332,-11.4488 3.6616,-10.77838 -7.6325,-17.43105 -2.0285,-24.84012 1.3408,-47.97837 -2.5269,-15.84954 -5.8104,-14.42274 -17.6373,-26.19816 9.214,21.52237 2.6817,5.48374 1.6847,11.99889 -16.4684,-7.40906 -4.8477,-3.90222 -3.7647,-6.66987 -1.6503,-6.39482 -2.08,-5.53531 -4.8993,-3.97098 2.974,-6.73863 0.1547,-4.33198 -1.4956,-4.6586 -1.6331,-7.44344 -1.1861,-0.13752 -2.8364,-0.94547 -2.8193,-1.7878 -1.4955,-2.21756 0.3094,-3.86784 1.6331,-2.76765 1.8222,-2.06285 0.8079,-2.11442 -0.6016,-24.01497 1.2377,-11.68947 -0.6361,-10.09076 19.7174,-77.51147 0.997,-25.01201 -11.5003,-75.740859 2.7848,-15.59169 -6.8933,-8.37172 -2.974,-9.55786 1.0315,-8.939 5.1571,-6.70425 v -6.20593 l -11.8958,-6.60111 -5.4493,-4.77893 -8.0279,-11.3972302 -11.0191,4.77893 -25.13234,0.10314 -9.97042,6.5151602 -2.97394,10.86433 0.99704,14.64621 3.97098,13.20222 6.24012,6.75582 -1.9769,7.03087 -0.73919,3.45527 0.63605,2.47542 2.08004,4.09131 -14.18208,15.16192 -4.05693,5.69002 -2.47541,8.131059 0.086,7.03087 3.97098,7.90758 0.10314,7.21996 -16.65749,23.15546 9.81571,12.73808 8.32015,13.54602 3.38651,14.54307 -4.86488,15.90111 5.79316,18.13587 -8.92181,24.08373 -21.76304,37.54382 h -4.16007 l -5.60407,-16.09021 -3.2146,-6.66987 -3.78189,-5.53531 -4.16007,-4.17726 -12.78965,-7.1512 -31.52718,-8.99058 -5.50092,0.48133 -6.60111,-1.9597 -14.47431,0.13752 -14.37117,2.49261 -6.54953,5.07116 -32.97117,36.73587 -1.83938,16.07301 -19.27042,9.97043 -68.12552,14.62902 -38.66119,20.2159 -22.91479,1.34085 4.52108,5.65564 -3.28337,11.99889 -5.24307,11.03623 -7.25434,8.07948 -9.55786,3.26618 -7.09963,-3.05989 -5.44935,-5.82754 -6.49797,-2.92237 -10.05638,5.65564 -1.58152,-7.1512 -0.7048,-1.54714 -1.68466,-0.086 -4.76174,-2.52699 v 6.15416 l 4.36636,8.0451 -3.36932,18.10149 3.52403,7.77005 -11.55194,3.05989 -10.46895,4.91645 -7.87319,9.38596 -4.96803,20.93789 -1.37523,3.55841 1.58152,2.42385 7.52939,0.80795 2.88798,3.0255 -2.6817,6.65269 -6.68706,10.34861 0.13752,10.00481 -1.28928,8.16543 -5.26025,5.44936 -19.63143,3.0427 -2.81922,2.76765 -1.18614,3.64436 -2.92237,3.79908 -2.28632,5.67283 -0.68762,6.94491 -2.28632,3.55841 -7.52939,-4.41793 -4.07412,5.79317 -5.5525,3.42088 -5.8963,0.10315 -5.31183,-4.16008 -1.82218,7.92477 0.34381,9.33438 2.3207,8.99058 3.73031,6.99649 -4.57264,6.13697 24.04935,-10.05638 12.94437,-1.06581 13.37412,11.12219 -18.29057,11.00185 -2.97394,3.0255 0.94547,5.89631 2.37227,3.55841 3.52403,0.32662 8.57801,-7.5122 2.73327,3.2146 1.63309,5.43216 1.47837,3.16303 22.70851,11.25971 1.20333,1.37523 8.97338,7.03087 -0.60166,6.60111 -1.52995,0.84233 -2.6817,-0.70481 -3.52403,1.73623 -6.29168,4.76174 -8.28577,3.67874 -24.53069,4.76174 -5.81035,3.24899 -4.60702,3.60998 -4.55546,2.40665 -16.07301,-0.79076 -6.34326,1.70185 -2.57856,7.73568 4.36636,3.18022 8.13106,2.6817 5.05397,4.77893 z"
     id="path976"
     style="fill:#000000;fill-opacity:1;stroke:#000000;stroke-width:1.68466" />
</svg>
