<?xml version="1.0" encoding="UTF-8" standalone="no"?>
<svg
   xmlns:dc="http://purl.org/dc/elements/1.1/"
   xmlns:cc="http://creativecommons.org/ns#"
   xmlns:rdf="http://www.w3.org/1999/02/22-rdf-syntax-ns#"
   xmlns:svg="http://www.w3.org/2000/svg"
   xmlns="http://www.w3.org/2000/svg"
   xmlns:sodipodi="http://sodipodi.sourceforge.net/DTD/sodipodi-0.dtd"
   xmlns:inkscape="http://www.inkscape.org/namespaces/inkscape"
   version="1.0"
   width="1024.000000pt"
   height="1024.000000pt"
   viewBox="0 0 1024.000000 1024.000000"
   preserveAspectRatio="xMidYMid meet"
   id="svg126"
   sodipodi:docname="Crete.svg"
   inkscape:version="1.0.1 (3bc2e813f5, 2020-09-07)">
  <defs
     id="defs130" />
  <sodipodi:namedview
     pagecolor="#ffffff"
     bordercolor="#666666"
     borderopacity="1"
     objecttolerance="10"
     gridtolerance="10"
     guidetolerance="10"
     inkscape:pageopacity="0"
     inkscape:pageshadow="2"
     inkscape:window-width="1920"
     inkscape:window-height="974"
     id="namedview128"
     showgrid="false"
     inkscape:zoom="0.39093281"
     inkscape:cx="557.47563"
     inkscape:cy="958.17139"
     inkscape:window-x="-11"
     inkscape:window-y="-11"
     inkscape:window-maximized="1"
     inkscape:current-layer="g1103" />
  <metadata
     id="metadata2">
Created by potrace 1.10, written by Peter Selinger 2001-2011
<rdf:RDF>
  <cc:Work
     rdf:about="">
    <dc:format>image/svg+xml</dc:format>
    <dc:type
       rdf:resource="http://purl.org/dc/dcmitype/StillImage" />
  </cc:Work>
</rdf:RDF>
</metadata>
  <g
     stroke="#000000"
     stroke-width="0.98"
     fill="#ffffff"
     id="g1103"
     transform="matrix(1.2902075,0,0,1.2902075,-353.12606,-59.414171)"
     style="fill:#000000;fill-opacity:1">
    <path
       d="m 1063.5556,441.09486 h -7.6305 l 0.5966,1.22465 0.6908,2.5121 0.628,1.16185 -1.0048,0.1256 -3.0145,-0.1256 2.1039,4.49038 -9.6402,1.16185 -6.0919,5.40102 -5.4324,7.4421 -7.7247,7.3165 0.471,1.28745 v 0.37681 l 1.4445,0.65943 -5.1184,4.08217 -6.8455,3.17153 -7.0967,0.69082 -6.0291,-3.26573 3.203,-3.39134 -10.73927,-2.85751 -3.9251,-3.32854 h -1.9155 l -1.5387,2.13529 -1.57,0.1256 -1.8841,-0.34541 -2.6691,0.65943 -2.0725,1.35025 -2.5749,2.5121 -8.761,5.71504 -1.9154,0.84783 -10.4881,2.16669 -9.1377,0.59662 -3.3286,0.84784 -0.3454,0.94204 -3.4855,6.06044 -2.7319,1.97828 -1.6329,0.43962 -2.3237,0.15701 -3.2343,2.19809 -4.8672,9.67159 -3.5484,2.19809 -6.2802,0.28261 -3.4542,-0.97344 -3.6739,-2.95172 -4.6788,-2.22949 -4.0194,0.72223 -2.8889,-0.81643 -1.0362,-6.93969 -1.1305,-3.67394 -1.8527,-3.32854 -0.4082,-3.04592 3.3914,-2.82612 -1.4759,-6.93968 2.0411,-5.11841 2.3237,-3.86236 -0.8164,-3.01452 2.198,-2.76331 1.2875,-0.97344 1.0048,0.37681 1.4131,1.19325 1.6015,-2.5435 -1.4759,-1.41306 v -1.16185 l 1.4759,-2.32369 -2.2295,-3.39134 -2.2923,-0.40821 -1.4131,2.73191 0.3454,5.96624 -2.7319,-1.57006 -1.1618,-2.13529 0.2512,-2.73191 1.7271,-3.14013 -2.0725,-2.13529 6.4372,-5.65223 3.1716,-3.95656 2.041,-4.67879 h -16.4228 l -4.2706,-0.72223 -5.9348,-3.23433 -3.203,-0.72223 -5.9348,1.16185 -43.9618,16.67408 -7.9445,1.13044 -7.9445,-1.85267 -4.8358,-4.52179 -3.8938,-5.52662 -5.1184,-4.9614 -2.0725,2.5749 -1.9155,-2.5749 -4.3019,2.4493 -4.1136,-0.28261 -6.9397,-2.16669 -15.4494,2.5749 h -8.5412 l -2.6063,-0.72223 -1.8841,-1.53866 -1.3502,-1.60147 -0.9735,-0.81643 -4.3333,-0.25121 -7.976,1.82128 -13.0001,0.78503 -8.3527,-0.69083 -6.0919,-3.70535 -2.3237,-8.66675 0.4711,-2.13529 1.0048,-1.82127 0.628,-1.88408 -0.3454,-2.26089 -1.6643,-0.50242 -4.9614,0.75363 -3.0773,-4.05077 -13.3141,-3.26573 -0.4396,3.01452 -0.6909,1.13045 -1.0676,0.78503 -1.6329,2.13529 -17.3963,-7.06529 -7.9445,2.76331 -4.7102,2.3237 -2.6691,1.97828 -5.8093,-3.10873 -27.7901,-4.8672 -6.3116,0.12561 -6.0291,1.16184 -5.9034,1.97828 -17.4905,9.13778 -7.5363,2.38649 -22.7974,4.14497 -5.9662,3.32854 -10.1112,-2.4807 -24.65003,7.3479 -10.39382,-3.79956 -2.66911,-1.50726 -5.71503,-0.40822 -2.13529,-1.69567 -0.59662,-2.95172 0.59662,-12.3093 -0.40821,-6.53146 -3.26574,-15.79484 -3.73675,3.10872 -4.64739,3.07733 -5.087,2.32369 -4.96141,0.87924 -4.61598,-1.44446 -9.26338,-6.46866 -8.25854,-2.48071 -5.24401,-2.4807 -4.77299,-3.14012 -1.41306,-2.98313 3.98796,-2.73191 6.28026,0.31402 10.92764,2.41789 5.93484,-0.25121 2.76331,-0.62802 2.63771,-1.25605 1.35026,-1.66427 2.26089,-4.64739 1.31885,-0.97344 0.75363,-2.5749 -5.68363,-15.07262 -6.31165,-3.95656 -12.68612,-1.47586 -9.35758,3.92516 3.42274,12.3093 -7.19089,-0.43962 -3.01453,0.87924 -1.22465,2.85752 -0.65942,3.54834 -1.75848,2.29229 -2.4807,1.47586 -2.92032,0.94204 -6.97108,0.25121 -15.79484,-1.72707 -4.23917,1.47586 -7.75612,-2.22949 -23.61376,-2.63771 -4.9614,-3.39133 -5.74644,-10.77064 -0.37681,-2.70051 0.37681,-8.85516 -3.07732,-10.92765 -0.0628,-4.39617 3.14012,-3.51695 v -2.6063 l -5.40101,-2.70051 -2.73192,-2.4807 -2.38649,-0.12561 -4.05077,4.14497 -3.14013,4.61599 -1.31885,4.39618 0.75363,4.83579 2.76331,6.18605 -3.07732,3.42274 0.94204,5.18121 2.4807,6.31166 1.57006,6.68847 -0.75363,8.38414 -2.63771,5.87204 -4.33337,3.42274 -5.49523,1.13045 -6.71987,-0.53382 -2.5121,-0.81644 -2.4179,-1.19325 -0.65943,-1.22465 0.25121,-1.57006 -0.25121,-1.31885 -2.16668,-0.59663 -2.2609,-0.28261 -1.06764,-0.87923 -1.53866,-3.54835 -1.72707,-5.96624 -0.15701,-14.06777 -0.81643,-6.93969 -1.22465,3.26574 -5.62083,9.38898 1.16185,3.92516 -0.91064,4.08216 -4.23917,8.66676 1.38165,1.66426 0.43962,0.78504 -0.43962,0.78503 -1.38165,1.69567 v 2.13528 l 3.45414,2.2295 -0.21981,2.6377 -1.88408,3.17153 -2.82611,8.69816 -0.28261,2.26089 0.59662,0.0314 1.31885,1.47586 1.35026,2.19809 0.56522,2.16669 -2.32369,5.40102 -4.45898,7.63051 -3.01453,7.85032 2.13529,6.15465 -1.50726,3.76815 0.28261,3.04592 1.38166,2.60631 1.75847,2.5121 h -1.35026 l -0.28261,0.40822 0.0628,0.72223 -0.34541,1.00484 -2.04108,0.0314 -1.69567,0.37681 -4.08217,2.16669 v 1.57007 l 0.28261,0.50242 h 0.65943 l 1.13045,0.25121 -2.07249,2.35509 3.57975,1.94688 2.10388,2.4179 1.78988,2.60631 2.26089,2.38649 1.78987,0.78504 3.83096,0.40821 2.04108,1.16185 1.16185,1.97828 -0.62803,3.10873 1.38166,1.94688 6.56286,1.57006 16.42287,-0.81643 3.98796,3.95656 7.94453,-3.73675 19.72,0.69082 4.8986,-3.98796 1.94688,0.59663 1.63286,-0.0628 1.69567,-0.87923 2.3551,-1.82128 9.38898,5.58943 11.68128,1.75847 24.05337,-0.72223 4.36478,2.26089 7.91312,9.95421 5.14981,2.26089 7.47351,-1.47586 1.16184,0.31401 1.13045,-3.42274 2.63771,-0.0628 4.83579,2.3237 h 20.09682 l 1.25605,-0.50242 1.25605,-1.06765 1.50727,-0.91063 1.85267,-0.0942 0.28261,0.69083 1.00484,1.57006 1.38166,1.69567 1.22465,0.94204 21.13306,3.04593 30.55344,-3.04593 v 2.13529 l 0.47102,3.39134 16.8939,8.54114 4.8044,-1.97828 5.4638,1.19325 5.1498,2.73191 3.7368,2.73191 5.872,7.50491 3.1715,2.88892 2.6063,-1.03625 h 1.7585 l 4.0822,2.63771 6.7827,1.41306 24.8384,0.40822 2.9517,0.75363 1.8841,1.60146 1.3816,1.57007 1.5073,0.75363 2.1667,1.82127 2.0725,4.14497 1.57,4.67879 0.8793,3.39134 0.2826,4.86719 -1.6957,6.59427 -0.5024,4.14497 0.8792,13.00013 -1.0048,3.92516 -3.674,2.95172 v 2.13529 l 68.7374,-2.4179 5.4638,0.59662 4.4276,1.82128 7.2537,-3.10873 4.1764,-1.00484 4.93,-0.37682 2.2295,0.50242 1.6014,1.00485 1.7899,0.84783 h 2.8889 l 1.9155,-0.78503 2.2923,-2.76331 1.7271,-1.13045 6.186,-1.44446 15.9205,1.44446 4.3333,-0.91064 15.8891,-6.31165 4.1764,-2.82612 2.5749,-1.31885 6.8768,-0.84784 5.4011,-1.47586 18.9349,-0.75363 25.4979,3.14013 4.6474,-1.66427 4.3019,-2.6063 17.7104,-5.65223 57.9981,2.66911 20.5679,-7.2851 11.9324,-2.4179 10.1741,1.75847 2.1666,-0.59662 2.4493,-2.13529 2.2609,-0.75363 2.3237,0.72223 2.5435,2.16669 5.0556,3.35993 4.9928,0.0314 5.5895,-0.72223 6.657,1.06764 2.0725,1.47586 4.08217,4.55318 0.4396,0.97344 h 7.7875 l 3.988,-1.00484 16.203,-7.25369 2.4807,-1.63287 2.7948,-1.41306 3.2343,-0.59662 1.5701,-1.69567 2.7947,-8.22713 1.4444,-2.92032 3.0145,-4.20777 2.9832,-5.52663 2.6377,-6.24885 1.9783,-6.24886 -2.5121,-4.86719 2.9203,-5.36962 4.5846,-5.49523 2.6377,-5.33821 -6.0919,4.23917 -4.3648,-7.78752 -5.0242,-17.77312 4.2078,-4.8986 4.7416,-3.64255 4.0508,-4.14497 z"
       id="path961"
       style="fill:#000000;fill-opacity:1;stroke-width:3.07733" />
  </g>
</svg>
