<?xml version="1.0" encoding="UTF-8" standalone="no"?>
<svg
   xmlns:dc="http://purl.org/dc/elements/1.1/"
   xmlns:cc="http://creativecommons.org/ns#"
   xmlns:rdf="http://www.w3.org/1999/02/22-rdf-syntax-ns#"
   xmlns:svg="http://www.w3.org/2000/svg"
   xmlns="http://www.w3.org/2000/svg"
   xmlns:sodipodi="http://sodipodi.sourceforge.net/DTD/sodipodi-0.dtd"
   xmlns:inkscape="http://www.inkscape.org/namespaces/inkscape"
   version="1.0"
   width="1360"
   height="1360"
   viewBox="0 0 1020 1020"
   preserveAspectRatio="xMidYMid meet"
   id="svg74"
   sodipodi:docname="Devon_Island.svg"
   inkscape:version="1.0.1 (3bc2e813f5, 2020-09-07)">
  <defs
     id="defs78" />
  <sodipodi:namedview
     pagecolor="#ffffff"
     bordercolor="#666666"
     borderopacity="1"
     objecttolerance="10"
     gridtolerance="10"
     guidetolerance="10"
     inkscape:pageopacity="0"
     inkscape:pageshadow="2"
     inkscape:window-width="1920"
     inkscape:window-height="974"
     id="namedview76"
     showgrid="false"
     inkscape:zoom="0.35872474"
     inkscape:cx="126.55538"
     inkscape:cy="422.07579"
     inkscape:window-x="-11"
     inkscape:window-y="-11"
     inkscape:window-maximized="1"
     inkscape:current-layer="g72"
     inkscape:document-rotation="0"
     scale-x="0.75"
     units="px" />
  <metadata
     id="metadata2">
Created by potrace 1.10, written by Peter Selinger 2001-2011
<rdf:RDF>
  <cc:Work
     rdf:about="">
    <dc:format>image/svg+xml</dc:format>
    <dc:type
       rdf:resource="http://purl.org/dc/dcmitype/StillImage" />
    <dc:title></dc:title>
  </cc:Work>
</rdf:RDF>
</metadata>
  <g
     transform="matrix(0.1,0,0,-0.1,0,1024)"
     fill="#000000"
     stroke="none"
     id="g72">
    <path
       d="m 10064.578,3223.7804 7.534,11.3879 7.963,5.6511 16.354,-0.4281 -50.346,48.2915 -28.941,-3.853 -58.9085,30.7387 -20.7208,-0.3425 -142.049,-105.4022 h 3.9387 l -7.1923,-27.0569 -7.1924,-20.8921 -8.9048,-6.3361 -12.501,17.039 -14.7272,11.3879 -18.409,-6.8499 -33.9924,-28.0844 -30.1394,-10.0179 -14.7272,6.6786 -0.8562,26.8857 10.5316,19.0084 47.0072,18.2377 -20.2071,19.9502 -43.7535,-0.8562 -19.4364,19.094 -16.6966,26.4576 -54.1138,57.5388 h 57.025 l 12.2441,9.4185 20.6352,42.041 184.4325,77.5747 3.168,13.871 0.3425,19.6077 2.9969,22.7758 6.5073,24.2313 6.1649,18.0665 7.7917,12.0729 11.131,7.1067 22.0908,4.11 9.4186,7.706 7.8773,18.9228 -1.37,13.5284 1.9694,8.4767 4.7949,5.2231 6.8498,3.7674 7.8774,-0.685 27.9988,-14.8984 70.982,22.6045 13.1,39.7292 51.374,71.1529 2.997,52.0589 8.22,16.7822 25.515,29.1975 0.771,6.593 4.966,26.5432 -85.281,6.6786 -13.785,31.3381 8.477,34.3349 39.129,19.5221 11.988,48.2059 -3.083,3.168 -6.079,9.1617 -2.997,3.1681 7.963,9.3329 8.563,6.1649 6.25,13.9566 1.199,32.9649 -5.566,21.5771 -11.388,8.6479 -22.775,2.4831 -21.064,11.816 -16.782,20.9777 -33.2217,61.2206 13.4427,28.2557 16.611,8.2198 33.051,-4.8805 -11.988,17.8096 -31.937,24.317 -209.777,-5.3943 -209.6913,-5.4798 19.6077,41.0135 200.1015,95.5555 26.2863,36.9893 -16.5253,22.262 -43.4109,-14.6416 -19.6078,9.5898 2.055,19.9502 3.5105,14.7272 4.7949,9.2473 5.7368,3.5962 -10.8741,41.5273 -18.9228,19.2652 -37.6742,16.8678 -25.9438,39.5579 -66.4437,44.781 -46.8359,-3.425 -14.984,15.926 -3.7675,6.9354 -5.8224,17.8097 -2.5686,5.5655 -22.519,12.4154 -147.8712,-29.4544 -147.8714,-29.4544 -49.4046,17.8096 -22.4332,21.4058 -20.9777,10.4461 -44.096,-8.3911 -19.779,22.6901 25.687,72.5229 42.3835,86.3082 9.5042,11.9017 9.076,4.9661 5.908,6.9355 11.4736,32.3656 6.5073,10.2748 -3.7674,31.5949 -6.6786,13.5285 -234.6077,50.5177 -234.6076,50.689 -234.6077,50.6889 -50.3465,-31.6806 -50.3464,-2.6543 -20.5496,-18.0665 -48.3771,-1.5412 -268.4288,-189.1417 -17.6384,-0.5994 -30.3963,34.078 -14.8984,0.8563 -39.7292,-25.4301 -74.6634,10.5316 -20.2071,16.9534 -51.8021,100.7786 -93.5005,-16.0972 -41.6129,35.8761 24.5738,22.6046 7.3636,11.131 -21.4914,12.3297 -59.5081,-28.5125 -93.3294,33.7356 9.4186,-17.9809 38.2736,-15.7547 -8.7336,-26.8001 -49.6615,-72.7797 -91.7881,-22.0052 -19.3508,-23.1183 -45.1235,-93.158 -216.798,-51.9733 13.2716,-48.1203 0.7706,-24.4882 -10.1035,-23.1183 22.5189,-13.6997 46.3221,-1.5412 21.9196,-17.9809 -43.4966,-26.9713 -130.8323,74.5778 -140.0796,-0.9419 8.7336,-4.1955 8.6479,-9.2473 v -15.9259 l -11.816,-5.6512 -23.2895,-22.5189 -12.501,-5.0517 -37.1605,8.2198 -10.2748,-8.2198 -5.908,-18.7515 -2.8256,-20.8921 -3.3393,-16.8678 -7.7061,-7.1067 h -47.6921 v -15.9259 l 2.4831,-2.6544 5.8224,-11.7303 -6.1649,0.2568 -6.0793,-3.2536 -9.1617,-15.7547 0.3425,-4.0243 -2.6543,-10.2748 13.6997,1.37 41.5273,-15.6691 v -17.3815 l -92.3875,29.7969 -41.5272,-28.6838 -50.2609,16.2684 -12.8435,9.5898 2.8256,22.8614 19.9502,45.2091 -36.5611,-10.5317 -72.0091,-92.3018 -169.7909,-49.6615 -49.6615,-43.3253 -24.5738,-9.8467 -7.4493,-9.5042 5.0518,-20.9777 10.1892,-22.0052 8.3054,-11.9872 117.3038,-40.7567 43.3254,-63.2755 23.7176,-21.5771 121.9275,-24.5739 14.7272,-22.5189 3.3393,9.8467 4.3668,1.37 11.7304,-11.2167 v -15.669 l -170.1334,12.3297 -102.0629,31.6806 -117.6463,-15.7547 -118.5882,-89.4762 -125.0955,-16.9534 114.8207,83.2257 15.1554,20.8065 16.354,36.9036 -17.4671,2.2262 -70.2967,85.1095 -36.4755,21.4058 -114.3927,-3.6818 -163.1978,173.6439 -9.9323,22.0052 -5.223,23.9745 -2.9969,21.1489 -3.6818,18.409 -7.7917,15.5835 -89.1338,65.673 -57.71,-16.5253 -8.5623,-9.9323 -6.2505,-21.9195 -4.2812,-21.6627 -2.4831,-10.0179 -7.5348,-6.593 -17.6384,-30.91 -8.3911,-9.8467 -22.7758,-3.5962 -4.1099,-12.4153 -1.1131,-40.2429 11.0454,-35.5337 22.0052,-26.7144 16.5253,-37.4174 -5.3943,-67.8992 -19.6077,-35.3624 -28.7694,-12.9291 -51.374,2.5687 v 15.7547 l 16.2685,2.3974 20.0358,11.9016 17.724,24.317 9.5042,39.8148 -18.1521,10.2748 -51.2884,63.875 -7.706,28.5125 -2.4831,42.3835 -20.8065,31.4237 -47.0071,28.3413 -121.6706,-76.9753 h 4.3667 l -8.4767,-0.8562 -7.706,-7.4492 -6.6787,-11.7304 -5.1374,-13.0147 h 3.9387 l -107.2859,-94.785 -6.8499,-15.7546 -5.3086,-17.9809 -5.9936,-8.9905 -9.0761,11.3023 v -17.039 l -9.9323,16.2684 -33.8212,32.1943 v 15.7547 l 9.5042,3.4249 26.0295,28.1701 17.9809,0.8562 6.4217,11.816 -0.685,34.7631 -12.3297,26.8 -62.6762,36.3899 -87.1645,112.3377 -56.5969,115.1632 -19.3509,12.3298 -41.0991,44.3528 -21.9196,7.7061 -19.6077,-19.0084 -0.086,-75.0059 -26.6289,-41.1848 -56.5113,-44.3528 49.0621,-135.2847 14.4703,-54.6276 21.6627,-104.546 1.7981,-25.8582 -9.3329,-52.059 1.2843,-23.7176 -88.7913,-16.9534 -13.1003,3.4249 -16.1828,13.2716 -10.6173,26.5432 4.3668,43.8391 -8.3055,9.5898 -48.3771,19.6078 -14.6416,17.9808 -2.7399,23.9745 -0.2569,23.1183 -2.3118,17.6384 -15.1553,11.7304 -4.0243,12.2441 -15.6691,82.2839 -8.9904,34.6774 -12.2441,19.5221 -119.0163,5.9937 -19.779,-12.501 -35.0199,-55.4839 -18.409,-12.501 -77.6602,-9.8466 -19.0084,25.6013 22.5189,21.4914 50.8602,-14.5559 21.3202,24.7451 -31.1669,45.2091 -65.3305,-48.3772 -29.7969,19.094 17.724,6.3361 20.9777,19.779 18.2378,30.91 10.0179,38.6161 140.9358,-11.7304 56.1689,44.1816 18.8371,-9.5042 9.5042,8.3911 0.5993,7.7061 11.9017,57.3675 16.2684,110.1115 7.4492,35.0199 15.4978,58.1382 2.9968,34.3349 -4.8805,43.0685 -15.4978,30.1394 -69.8686,25.3444 -71.0673,96.8399 -42.2978,26.5432 -43.1541,7.1924 -4.7949,0.7706 -4.4525,-1.4556 -4.1099,-5.0518 -4.1099,-10.3604 h 39.4723 l -5.6511,-30.3106 -10.1892,-5.4799 -11.9872,3.1681 -10.7886,-4.3668 -28.855,-38.7874 -7.7061,-4.9661 -14.1278,-49.7471 -5.8224,-14.5559 -8.0486,-8.0486 -10.1891,-2.74 -9.8467,2.74 -7.3636,8.0486 8.4767,24.2313 3.3393,6.3361 -11.6448,27.1426 -4.1099,6.593 8.0486,52.6583 34.6774,88.7057 12.8435,52.4014 -50.6889,53.0864 -11.8161,17.6384 -7.1923,16.6109 -5.3943,20.892 -6.3361,30.5675 -10.9598,14.8129 -54.2851,10.446 -10.1035,11.4735 0.5137,26.2007 7.3636,27.5707 10.1035,16.1828 -20.5495,23.1183 -25.0876,4.6236 -23.9745,-17.3815 -17.5528,-43.0685 -0.9419,-31.2525 -17.1246,-58.5663 -2.055,-41.7841 -36.3042,4.0243 -11.0454,12.2441 -19.2652,44.096 -9.333,16.0971 -40.2429,11.4736 -12.8435,-10.8742 -5.4799,-35.7905 -7.1067,-14.6416 -44.3528,-30.7387 -32.3656,-70.2111 -15.5834,-17.3815 -7.1068,42.9829 6.7643,55.7407 17.039,30.4819 19.9502,20.3783 15.4122,25.002 -22.8614,24.6595 -24.0601,11.2166 -24.4027,-2.9968 -63.1899,-61.9912 -22.6045,-7.7917 -20.7209,20.6352 7.6205,22.8614 8.7336,8.5623 19.0939,-0.4281 -13.1859,28.6838 -20.9777,20.4639 -21.5771,8.2199 -15.2409,-8.5624 -6.6786,-19.2652 -15.4122,-60.2788 -9.8467,-25.6013 -45.5515,-74.5778 -63.4469,-45.5516 -14.0422,-18.409 2.1406,-7.1923 5.7368,-25.2589 -9.333,-17.9809 -10.6172,-60.9637 -11.5592,-17.8953 v 14.7272 l -12.7578,-28.2556 -1.37,21.2345 6.1649,58.3951 -3.425,27.1425 -7.9629,28.4269 -4.3668,23.7177 24.317,37.9311 54.2851,39.1298 26.4576,4.1099 10.8741,12.9291 0.5138,28.3413 -6.9355,28.5982 -11.5591,13.0147 -13.4429,4.1099 -28.2556,26.4576 -12.501,18.1521 18.1521,17.3815 38.9586,-6.6786 17.5527,22.0052 -26.8001,34.8486 -70.211,-20.1214 -29.2831,19.5221 32.8793,33.393 234.9501,-3.4249 235.0358,-3.3393 35.5336,25.5157 24.0602,60.7069 -210.2051,67.043 -39.5579,-18.3234 -21.8339,-23.2895 -15.7547,-32.8793 -19.6077,-19.8646 -85.1095,27.3138 v 17.9809 l 36.6467,-1.1987 17.8097,8.8191 16.5252,23.6321 1.7125,8.9048 0.5137,12.9291 1.4556,14.2134 4.2812,13.1004 8.5623,7.3636 18.2378,-2.3118 8.9904,11.6447 -13.1003,18.5803 -29.1976,1.7981 -27.3994,20.2927 -262.9489,76.0334 -71.3242,-46.3222 -23.8889,11.816 v 17.9809 l 31.0813,32.5368 0.4281,17.0391 48.4627,27.8275 7.1924,29.9681 -9.2473,24.6595 -112.2521,73.2935 -17.8953,23.0327 -17.1246,3.2537 -32.8793,8.391 -16.1828,26.372 217.3974,-101.1211 43.7535,-66.1011 267.2301,-66.1867 267.2301,-65.9299 54.1139,-37.8455 28.5125,-6.8499 24.5739,26.7145 -26.9714,33.8212 -190.0835,30.8243 -17.1247,35.8762 207.2939,5.4798 207.3794,5.4799 207.2939,5.4799 38.9586,29.7113 12.7578,19.9502 3.8531,11.0454 7.2779,28.4269 4.6237,10.1035 7.3636,1.9694 17.3815,-8.2198 6.7642,6.2504 8.3055,55.3127 -13.5285,43.4966 -38.1879,50.6033 -2.9112,8.9048 -1.7125,20.464 -3.2537,4.0242 -221.5929,90.2469 -221.5929,90.4182 -221.5073,90.7606 -36.133,-10.7885 -27.8276,-33.5643 -10.9598,-4.1956 -36.5611,63.0187 -50.9458,8.8192 -44.1816,33.4787 -85.1095,8.1342 -4.4524,4.538 -17.2959,29.1976 -237.4332,18.3233 -10.1036,13.0148 -19.2652,39.6435 -10.446,14.8985 -27.3995,23.8032 -27.8275,9.8467 v 16.9534 l 124.8387,25.6013 118.0744,-89.9044 h 41.356 l 36.3899,29.0263 -5.6511,14.8985 -2.6544,3.4249 11.8161,50.4321 16.0971,-17.8953 16.5253,-42.3835 13.3572,-23.8032 156.9474,-72.5229 92.8156,28.5125 13.5285,44.0104 -19.4365,12.4153 -8.9048,10.8742 -7.1924,27.3138 5.0518,8.3054 5.1374,11.5592 4.7949,14.3847 4.3668,16.5253 -20.3783,58.2238 -22.519,33.5643 -135.6272,58.3094 -21.0633,45.9797 -19.1796,55.5695 -26.1151,37.8454 -51.7164,35.3624 -46.9215,7.0211 -27.6563,27.742 -174.1577,56.1688 -162.7698,-36.9036 -162.7697,-36.9036 -4.2812,-17.1247 -82.5408,-95.5555 -46.6646,9.761 -57.0251,-52.2301 -20.2071,-7.7061 -17.5528,6.3361 -36.818,36.9036 -35.1055,14.4703 -97.7817,-65.4161 -17.6384,6.0792 -51.8021,44.8666 -60.3643,14.0422 -18.9228,20.0359 -74.4922,-6.0793 -20.5496,-27.9988 8.9905,-42.1266 3.2537,-8.8192 -34.2493,-70.2111 -18.409,-23.0326 -19.094,-8.8192 -4.0243,-9.7611 -6.8499,-48.8052 -4.8805,-19.2652 -10.8741,-19.1796 -32.1944,-40.0717 -6.7642,-15.2409 -11.4735,-38.873 -6.1649,-14.8128 -11.2166,-12.0729 -71.6667,-30.9956 -43.411,-58.1382 11.2167,-40.1573 20.2071,-9.5898 39.6435,-0.5993 -28.7694,-48.2059 -30.91,10.7885 -29.8825,50.8602 -25.2588,72.0948 14.0422,28.5125 75.3484,60.45 9.5898,12.3298 3.9387,8.6479 7.963,25.002 23.1182,38.8729 50.2609,54.7133 22.0051,43.4966 -7.7917,36.818 6.2505,23.632 11.816,18.8371 9.4186,22.7758 1.6268,18.4946 -0.1712,44.6097 0.5993,12.7579 42.726,101.5491 6.5074,35.2768 -1.5412,97.6105 -3.5106,50.5177 -6.7642,33.05 -4.7093,1.1987 -21.2345,-17.0384 -9.9323,4.1099 -8.0486,11.216 -15.241,36.3043 v 15.7547 l 7.8774,17.2102 -29.0263,38.0171 -30.4819,15.412 -3.2536,6.507 -8.1343,32.366 -4.7949,13.015 -7.7917,6.164 -19.2652,5.652 -24.9164,58.908 -45.5515,28.513 -19.0084,48.12 -14.6415,56.426 -15.4122,31.937 -17.8097,16.269 -69.6973,3.51 -56.1688,42.641 -26.1151,-6.422 -12.4154,-10.018 -11.7304,-17.553 -18.6658,-52.658 -43.6679,-44.182 -69.6117,7.193 -5.5655,4.795 -5.3942,11.302 -2.1406,12.758 -1.5412,12.672 -3.5106,11.217 -24.1457,26.543 -76.8897,-8.991 -8.7336,7.45 -9.761,18.237 -8.7336,22.348 -6.2505,20.036 -0.7706,11.473 1.6269,12.244 1.1987,14.214 -2.055,16.097 -5.6511,13.529 -244.0262,19.95 -14.1279,9.675 -27.7419,36.561 -109.1696,18.238 -27.2282,24.66 -41.69853,61.991 -26.2863,15.84 -26.1151,34.934 -12.8435,10.446 -140.7646,2.826 -59.765,36.561 -70.0398,-17.981 -63.19,-50.089 -224.761,-41.528 12.9291,-15.326 26.5432,-10.275 11.9017,-27.399 h -3.9387 v -18.923 h 35.5336 l -11.7303,-49.234 -22.6046,-1.455 -25.2588,14.984 -16.9534,-7.621 -10.9598,-21.748 -31.3381,-20.892 -4.4524,-11.217 -3.2537,-13.614 -4.1955,-10.018 -7.4493,-0.171 3.5962,35.02 -169.9621,33.308 h 3.8531 l -20.3784,2.996 -9.332901,-9.161 -5.7368,-27.143 50.260901,-5.223 25.1732,-15.412 23.2039,-31.938 -31.595,-34.934 -33.1362,11.302 -47.092701,-34.335 -8.648,-31.509 9.2473,-67.557 17.6384,-47.863 19.864601,-14.556 42.2979,7.107 15.8403,-5.908 39.6435,-44.61 9.7611,-21.32 164.5678,-82.455 -16.5253,-24.403 -59.1656,-11.902 -6.4218,5.566 -12.9291,24.659 -8.3054,6.08 -10.5317,-0.6 -4.2811,-5.223 -4.5381,-11.473 11.4735,-19.009 v -17.1242 l -32.6224,-7.1067 -10.7885,-10.1892 v -17.2102 l 9.8466,-1.2844 29.6257,18.4946 10.7885,-0.5993 40.4998,-21.5771 18.6659,-23.0326 9.6754,-6.5074 29.54,9.2473 9.5898,-9.2473 -24.4882,-34.6768 -32.1944,1.6268 -58.1382,51.8015 v -18.7515 l -16.6109,25.687 -21.3201,-7.0211 -41.0136,-35.7049 -11.3022,2.6543 -10.9598,7.7917 -4.6237,15.4978 7.1924,25.6014 -36.2186,51.6303 -6.6787,2.312 -13.8709,-4.195 -6.7643,1.883 -5.3942,8.22 -11.131001,23.204 -29.7113,18.495 -13.2716,-3.083 -7.8773,-27.827 2.1405,-38.1881 10.3605,-21.149 13.0147,-9.5041 10.0179,-1.7981 -14.6416,-39.0442 -19.094,-28.4264 -20.0358,-16.354 -17.2959,-2.2262 23.3752,-58.5663 30.9956,-32.5368 60.364401,-11.9873 49.2333,33.4787 105.3166,-40.1573 13.7853,-13.186 6.0793,-23.7176 2.7399,-29.6256 6.9355,-22.1765 17.039,-29.3687 26.8857,-27.5707 84.8526,-1.7125 -7.8773,-27.3138 -4.2812,-8.3054 30.1394,-19.5221 7.7917,-22.4333 4.3668,-18.7515 4.7949,-14.1278 13.2716,-23.0327 21.6627,-9.761 44.0103,23.9745 20.9777,-18.4947 -6.7642,-8.6479 -5.908,-13.186 -4.6237,-18.8371 -2.7399,-25.8582 h 63.4468 l 51.1171,33.6499 15.9259,-1.1987 v -16.9534 l 9.9323,-16.354 18.409,11.9872 60.0219,106.0016 15.8403,13.9566 18.8371,4.8805 -9.0761,-36.9036 -68.0704,-141.5352 -20.8065,-26.2864 -21.2345,-15.4978 -151.8957,7.278 -14.2134,-15.7547 -15.6691,-44.3528 39.2155,-91.8737 38.9585,-65.6731 45.7228,-32.9649 28.2557,-45.2091 12.9291,-12.501 155.5774,-39.2154 77.2322,43.7535 25.7726,-10.4461 -10.2748,-10.5316 -16.4397,-9.333 -14.1278,-16.1827 -2.9968,-30.8244 11.2166,-23.0327 19.2653,-5.3942 33.0505,13.186 16.3541,26.9713 7.2779,6.5073 18.6659,2.1406 9.3329,-5.3942 8.81923,-10.1892 23.0327,-43.0685 12.1585,-10.5316 11.3022,15.2409 17.8953,28.7694 164.4822,-66.7005 23.4608,-28.9407 -5.9936,-31.8518 -8.5623,-15.3266 -10.1892,-4.4524 -10.7885,1.7125 4.7092,18.5802 2.9112,9.0761 4.2812,7.1067 -22.6902,28.6838 -86.9932,0.5138 -25.5157,-17.8953 0.2569,-9.5042 1.2843,-10.9598 -1.1987,-8.9048 -13.871,-18.6658 -110.53963,-46.7503 -39.0442,41.6985 -9.6754,-16.6109 -5.3086,-36.133 -3.8531,-40.1573 2.5687,-22.4333 0.8563,-11.7304 -0.9419,-11.6447 -2.4831,-22.1765 h 130.83233 l 44.6097,-32.3655 15.0697,-0.7707 10.7029,11.2167 13.2716,36.3899 11.5592,20.2927 87.25,38.616 27.6563,34.7631 23.3752,66.358 6.2505,10.1035 h 49.4902 l -3.5962,-16.6965 4.4524,-6.7642 11.3023,-26.6289 -3.168,-3.4249 -8.9905,-14.8128 34.5062,-31.9375 241.2006,25.1733 68.5842,-60.0219 34.2493,13.7853 37.8455,-9.5898 57.9669,21.4914 80.229,-44.8665 39.8148,19.6077 -17.039,25.8582 -40.5854,7.7061 -18.1522,32.7937 7.3636,10.3604 20.7209,57.9669 11.5591,20.1215 11.6448,9.6754 24.4882,3.4249 7.8773,-33.2218 -6.8498,-10.1035 -14.1279,-11.7304 -7.0211,-13.1004 45.466,-2.0549 173.9864,170.0477 47.0928,15.3266 46.3221,-12.9291 39.3867,-51.8877 h -3.5962 l 2.1406,-5.8224 1.9694,-6.593 1.8837,-8.9048 1.8837,-12.3297 -11.5592,-26.0295 -4.538,-5.8224 7.0211,-38.8729 11.5592,-26.7145 25.1732,-37.4173 44.7809,-104.6316 53.0864,-32.0231 20.0359,-23.0326 8.7335,-30.9957 4.2812,-48.8052 10.6173,-39.9861 13.6997,-26.7144 26.8857,-19.6077 13.6997,-25.6014 11.2167,-36.4755 6.3361,-41.9553 -0.5994,-12.6723 -5.5655,-26.4576 -1.37,-11.3879 1.1131,-13.4428 4.8806,-36.3899 1.5412,-15.8403 3.4249,-80.9996 5.8224,-13.6997 14.8128,-3.5105 11.2167,-7.7061 11.7303,-19.9502 7.3636,-26.8857 -2.3118,-28.3413 8.9048,-21.7483 9.7611,-8.9048 20.8064,-0.3425 9.333,-5.3087 4.9661,-13.0147 7.3636,-40.1573 15.5834,-34.2493 84.5102,-67.8136 47.4352,-7.0211 20.8921,-21.3202 12.4154,-28.5981 6.0792,-27.2282 9.5042,-79.2871 -2.74,-33.7356 -3.853,-27.9132 -5.5655,-23.8032 -28.4269,-78.3453 -3.1681,-15.8403 13.0148,-54.1995 55.1413,-84.4245 7.1924,-35.9618 8.9048,-19.3508 10.446,-13.871 -33.4787,-56.2544 -5.6511,-24.7451 4.6237,-23.8889 27.1425,-21.5771 11.6448,-18.1521 -22.6902,-46.4934 -24.6595,-25.3445 -63.2755,-32.4512 -8.8192,-14.6416 -15.4122,-39.301 -11.0454,-18.9228 -25.002,-29.3687 -46.579,-129.9761 -47.6066,-184.6893 17.6384,-8.9048 42.2123,17.8096 19.094,-8.9048 -14.9841,-23.4608 -30.9956,-28.17 -13.2716,-26.372 -6.8499,-25.4301 -17.1246,-84.8526 4.8805,-36.133 2.9112,-29.1119 0.086,-27.9132 -5.3942,-23.4608 -16.7822,-28.0844 -5.0518,-26.0294 18.409,-6.0793 34.5062,-48.2059 18.0665,-7.3636 -2.5687,-22.0908 -1.7125,-8.6479 12.501,-9.2473 14.0422,-2.8256 9.6755,-12.5866 -0.3425,-37.0749 25.5157,-20.207 25.3445,-0.5994 95.0418,43.2397 10.446,-14.6416 -2.055,-15.2409 -31.6806,-23.2895 12.8435,-32.7937 46.4078,-45.4659 -24.317,-30.3963 -58.3094,19.6934 -27.1426,-33.1362 -6.7642,0.8562 -6.1649,-2.6543 -3.5962,-15.7547 1.8838,-12.3297 5.5655,-3.1681 8.7335,0.3425 0.8563,-25.8582 -1.2844,-20.2927 -4.1955,-12.5866 -7.963,-2.4831 v -16.7822 l 16.6109,-17.8096 77.5747,-137.5965 7.1923,-32.6225 -17.8096,-25.0876 21.2346,-19.1796 9.8466,-14.3847 8.0486,-27.057 -0.9418,-10.2747 -0.3425,-7.1924 1.3699,-10.1035 4.1956,-17.9809 -3.425,-23.8033 -0.6849,-11.3022 -0.1713,-17.0391 -1.1131,-23.2895 -2.7399,-5.908 -3.7675,-0.8562 -3.853,-8.4767 -14.3847,-43.2397 -5.4799,-27.4851 1.8837,-27.9988 25.6014,-57.1107 63.0187,-40.7567 28.3413,-30.4818 v 16.2684 l 31.5093,-31.2525 -33.9068,-31.7662 -9.4185,-26.7145 15.2409,-14.8984 19.2652,-6.7642 11.816,11.5591 -6.9355,40.0717 56.6826,13.4428 28.0844,-10.1891 26.1151,-33.2219 -7.0211,-25.1732 -23.4607,-22.0052 -8.9905,-14.0422 31.2525,-40.8423 70.211,-44.2672 67.2143,-4.1099 16.6109,12.5866 12.6722,31.7663 4.5381,29.6256 -0.4282,26.4576 -6.4217,20.892 -13.4428,12.5867 25.0876,36.9892 20.2927,-34.4206 7.6204,-58.1381 -13.1859,-33.9924 15.4121,-44.6954 -4.2811,-14.8128 107.6284,-14.8984 -11.3879,42.9828 -36.0474,84.082 -0.3425,36.9037 -7.8773,17.6383 -10.2748,11.816 -8.2198,16.0116 -1.5413,29.54 5.3943,14.1278 22.0908,26.2864 7.278,4.538 10.7885,-5.4799 8.7336,-10.7029 9.2473,-5.908 12.1585,8.3911 114.3926,194.4503 22.9471,65.8443 11.816,25.7726 17.2959,15.4122 h -3.9387 l 18.1521,1.1987 8.9048,-3.7674 8.3911,-11.2167 -1.1987,-20.0358 4.1955,-23.0326 2.5687,-28.2557 -5.5655,-35.8761 -7.4492,-12.8435 -19.1796,-12.2441 -6.8499,-12.5867 -20.1214,-75.8621 -25.7726,-48.5484 -56.6826,-49.4902 -18.9228,-75.1772 45.466,-34.2493 23.632,-3.2537 18.0665,22.7758 3.3393,13.3572 2.9968,16.9534 3.9387,17.039 5.908,13.871 13.3572,9.4185 28.855,3.425 9.4186,15.669 8.9048,-4.9661 4.7093,0.8562 5.7368,4.1099 -2.3119,-23.0326 -5.8224,-10.7886 -15.1553,-11.2166 7.8774,-26.2863 3.7674,-32.0231 2.7399,-32.6225 5.0518,-28.5981 16.6109,-37.0749 79.4584,-81.9414 52.487,-7.963 93.1581,52.5727 -7.278,-23.2896 -28.2556,-36.133 151.7243,-102.3197 13.0148,5.9936 13.5284,20.6352 20.1215,42.726 12.3297,8.7336 14.8985,-13.6141 5.0517,-20.5496 7.963,-66.8718 6.7642,-24.5738 17.3816,-11.9016 63.7893,25.4301 61.8199,-6.593 19.3509,10.7885 28.0844,31.1668 13.5285,5.8224 14.1278,-10.1891 -3.9387,-14.8129 82.969,14.8129 7.3636,5.3086 4.1099,12.9291 6.1648,35.0199 6.0793,15.8403 6.6786,5.6511 77.3178,-9.1616 30.1394,11.5591 28.0844,41.5273 7.8773,28.5981 9.2473,47.8634 7.6205,52.5727 3.2537,43.7534 -8.4767,22.3477 -55.0558,53.0864 -24.9163,64.6456 -10.5317,17.1246 14.9841,-4.538 50.004,-52.2302 28.6837,-14.9841 14.0422,-13.9566 13.6141,5.5656 12.1585,40.4141 16.7822,99.9223 -15.0697,9.5898 -15.1553,26.4576 -12.8435,38.4448 -8.2198,46.0653 12.4153,-9.2473 34.9343,-49.9183 44.2672,-41.2704 11.3023,-20.1215 5.8224,-23.9745 0.5137,-20.2071 -1.6268,-24.4882 -0.7706,-36.4755 -0.7706,-6.593 -1.2844,-7.3636 -0.3425,-11.3879 2.3975,-19.6933 4.6236,-16.3541 11.3879,-25.4301 4.1099,-17.8952 -5.3086,-13.6997 -1.2844,-20.2071 3.425,-18.0665 8.9048,-7.8773 12.501,4.0242 8.9904,11.6448 7.6205,18.6659 8.1342,25.5157 23.2895,54.7989 9.9323,42.8116 -3.2537,45.209 -2.0549,20.3784 2.3118,23.632 4.6237,22.6901 5.0517,16.6966 5.7368,10.2748 11.9016,8.5623 5.9936,11.3023 3.6818,13.1859 1.6269,11.5592 1.1131,10.5316 13.0147,62.6762 8.3911,16.7822 11.9872,-9.2473 4.6237,-14.6416 2.1406,-19.1796 -0.3425,-20.9777 -2.4831,-20.7208 23.632,21.7483 13.5285,22.6901 6.2505,31.0813 -13.4429,55.3126 -6.5929,35.7049 2.3118,16.2684 20.3783,0.8562 6.4217,-10.7885 39.558,-114.1358 6.9355,-28.5981 -8.7336,-11.3879 -6.9355,-21.0633 -4.8805,-27.3139 -3.0824,-30.4818 7.7917,-0.5138 14.4703,-12.6722 7.278,-3.1681 67.4711,-0.8562 13.7853,-12.8435 v -15.0697 l -79.2871,-16.354 13.0147,-14.556 2.3975,-13.6997 -3.5106,-16.7821 1.1131,-18.3234 -2.2262,-12.2441 -4.7092,-7.7917 -6.0793,-5.1374 3.2537,-25.1733 -3.3393,-27.8275 -7.278,-25.8582 -16.1828,-42.041 -17.4671,-61.9913 -6.5074,-12.6722 -9.2473,-12.9291 -6.7642,-30.3106 -11.6448,-92.73 -1.4556,-19.5221 1.1987,-20.7208 4.1099,-34.4205 5.9081,-37.5886 7.4492,-26.9714 9.6754,-17.2959 159.3448,-42.8116 18.6659,10.7886 23.1183,40.4141 11.9016,14.7272 1.4556,-5.6511 -3.6818,-8.0486 23.2039,-44.6097 30.3106,-16.354 105.8303,9.761 20.9777,17.8953 40.0717,62.3337 9.1617,2.0549 4.0243,-23.7176 -1.2844,-43.7535 1.5412,-10.0179 5.8224,-20.0358 22.6046,-32.4512 32.1087,-3.1681 58.3094,28.17 h -4.3668 l 49.6615,28.0845 5.8224,9.8466 4.6236,22.2621 3.9387,25.6013 3.7674,18.8371 17.5528,37.5886 19.6077,16.7822 41.6985,3.5105 -8.9904,-23.1182 -11.4735,-12.6723 -23.6321,-8.5623 22.0052,-92.8156 43.5822,-32.2799 85.452,6.9354 h -3.9386 l 26.6288,4.5381 12.8435,8.3911 11.7304,15.1553 -5.1374,11.9872 -2.055,13.186 1.7125,13.6997 5.4799,14.2991 8.9904,10.8741 3.5105,-7.9629 1.1988,-14.9841 2.1405,-11.5591 37.9311,-65.5874 14.8129,-6.7643 177.5825,14.7272 v 14.8129 l -26.8,15.2409 -49.8327,93.9287 -24.9164,22.3477 -12.501,22.5189 1.7125,51.2027 3.5961,55.9119 -6.4217,36.3899 v 14.8128 l 8.0486,1.4556 7.9629,-2.3118 7.7918,-5.3943 7.3636,-8.5623 -7.0212,-35.6193 2.4831,-25.1732 8.7336,-13.4428 11.9872,-0.086 5.908,-49.2333 28.5126,-45.6372 127.493,-103.3473 35.1911,-4.9661 36.7324,22.7758 15.3266,21.6627 22.262,44.0103 15.8403,57.9669 -4.1099,63.5325 -3.9387,36.9892 8.0486,27.3138 13.5285,15.5834 12.3297,2.4831 11.131,-12.5866 3.5962,-18.5802 -3.853,-18.1522 -10.8742,-11.6447 13.4429,-28.4269 30.3106,-34.5062 13.4428,-33.3931 -1.3699,-26.9713 -24.2314,-114.8207 150.44,14.7272 150.44,14.8128 28.6838,20.3783 13.871,17.8096 23.8032,46.836 3.9387,17.4671 -1.5412,18.4946 -21.7483,102.8335 -3.5106,30.91 -1.0275,35.7049 v 32.0231 l -3.3393,24.317 -11.131,12.0729 2.9112,3.5961 5.5655,9.5042 2.9968,3.2537 -5.8223,31.4237 6.9354,11.131 12.2442,-2.9968 10.3604,-11.0454 8.2198,-20.5496 6.0792,-25.0019 25.1733,-164.2254 7.8773,-20.8921 21.0633,-38.0167 7.278,-30.1394 1.1131,-28.5981 -2.4831,-17.8097 -0.9418,-16.9534 5.908,-25.2588 14.2134,-20.6352 85.452,-6.2505 34.0781,12.7579 31.5093,30.4818 20.8921,56.0833 -3.2537,10.6172 -5.4799,25.687 -3.0824,10.7885 5.3942,10.6173 2.1406,2.9112 -4.6236,27.9988 -2.5687,8.4767 -4.3668,8.1342 5.7368,42.9829 2.1405,28.17 -3.853,22.6045 -11.9016,26.4576 14.7272,34.3349 17.2958,24.4883 11.1311,28.3413 -3.6818,47.0928 19.1796,-15.5835 10.1891,-34.6774 -2.5687,-39.8148 -18.9227,-30.6531 10.5317,-58.1382 1.2843,-23.0326 -1.6268,-21.7483 -6.3362,-37.7599 0.1713,-21.4914 5.908,-18.6659 9.4186,-9.4185 8.8191,-12.6723 5.5656,-43.4966 4.1099,-21.9195 4.538,-19.779 3.5962,-8.5623 41.0991,-16.354 58.0526,40.1573 26.8857,7.1923 11.7304,-6.3361 11.0454,-13.2716 11.131,-18.7515 14.5559,-13.1004 64.9881,21.4915 139.9083,-13.6997 64.7312,24.9163 59.1656,54.4564 207.037,24.4882 25.8582,-19.2652 h 11.9017 l 11.4735,8.5623 23.0326,32.965 26.5432,13.9566 12.2442,14.5559 13.1003,36.6468 4.3668,37.6742 3.5962,43.411 10.8741,53.2576 -4.2811,14.8985 9.4185,23.2895 19.2652,22.6901 7.1068,28.8551 -4.2812,14.7272 34.6774,94.6136 5.1374,32.8793 -5.6511,43.4966 -13.6997,21.2346 -32.28,17.9809 -34.2493,38.3592 -18.0665,28.4269 -12.5866,31.8519 -17.1247,81.6845 -3.853,11.7304 -1.37,12.5866 4.6237,16.2684 36.3042,21.834 38.7017,-49.5759 38.1024,-68.1561 97.953,-70.8104 35.2767,17.2103 17.039,-8.9049 11.7304,-27.0569 -1.9693,-49.1477 23.632,-11.9873 2.055,-26.3719 -12.8435,-26.2864 -20.7208,-11.9016 -6.2505,-13.9566 -6.593,-32.7081 -5.1374,-37.2461 -2.2262,-27.8275 7.6204,-84.1677 18.6659,-67.3854 77.6603,-162.3417 17.724,-26.9713 103.6897,-63.9606 23.5464,10.1892 11.7304,-5.0518 21.2345,-18.2377 21.149,-7.7061 18.4946,6.4217 54.7989,51.2884 4.8805,9.4185 3.853,9.1617 3.5106,12.4154 -5.7368,12.6722 -2.1406,3.4249 12.0729,23.1183 16.9534,2.9112 15.3266,-17.8096 6.9355,-39.1299 -3.0825,-27.9131 -8.3054,-17.9809 -10.8742,-9.8467 -0.086,-5.223 113.0227,-17.8953 17.5527,-21.1489 73.8073,-50.0896 56.3401,-0.685 49.7471,-28.2556 21.6626,4.3667 33.65,-15.8403 29.1119,16.8678 67.2142,74.9204 35.1055,1.0274 29.6257,35.6193 41.7841,17.724 67.8992,77.6603 118.417,37.1605 165.6809,-16.6966 165.7666,-16.6965 16.1827,11.6448 25.4301,29.3687 12.9292,8.0486 14.299,2.9112 91.1032,-20.8921 27.485,20.8921 -8.3054,31.0812 22.0908,17.6384 18.4089,30.3106 3.1681,28.5126 -23.5464,12.6722 8.2198,34.5918 3.5962,10.1036 -5.1374,5.0517 -14.5559,24.9164 3.4249,44.8666 13.1004,13.1003 16.6965,6.5074 14.1278,25.0876 -14.1278,33.1362 -53.3433,56.8538 17.3815,35.8761 46.2366,17.2959 19.9502,23.3752 -3.3393,10.0179 -5.8224,24.8307 -3.3393,10.1892 5.6511,10.6173 2.74,3.5961 4.1099,0.8563 v 15.1553 l -147.1863,94.2712 -19.1796,27.9131 -12.5867,41.9554 6.4218,27.6563 49.8327,60.6213 7.5348,-17.2959 4.5381,-38.4448 7.3636,-45.5516 h -3.9387 l 14.0422,-36.6467 13.6997,-3.3393 27.8276,39.986 -6.593,45.8084 -2.2262,39.9005 5.1374,19.7789 15.4978,-14.4703 13.7853,-37.0749 -0.5993,-33.393 -7.1924,-32.3656 -5.9936,-33.6499 -0.4281,-15.926 2.2262,-10.7885 5.223,-8.6479 121.4137,-92.6444 22.2621,-7.8773 19.6077,7.4492 34.2493,39.8148 243.0845,90.5894 22.434,20.5496 12.757,39.4723 -60.706,43.6678 -28.599,73.5504 -29.112,45.7228 z"
       id="path900"
       style="fill:#000000;fill-opacity:1;stroke:#000000;stroke-width:8.39108" />
  </g>
</svg>
