<?xml version="1.0" encoding="UTF-8" standalone="no"?>
<svg
   xmlns:dc="http://purl.org/dc/elements/1.1/"
   xmlns:cc="http://creativecommons.org/ns#"
   xmlns:rdf="http://www.w3.org/1999/02/22-rdf-syntax-ns#"
   xmlns:svg="http://www.w3.org/2000/svg"
   xmlns="http://www.w3.org/2000/svg"
   xmlns:sodipodi="http://sodipodi.sourceforge.net/DTD/sodipodi-0.dtd"
   xmlns:inkscape="http://www.inkscape.org/namespaces/inkscape"
   version="1.1"
   width="500"
   height="500"
   viewBox="0 0 500 500"
   id="svg8"
   sodipodi:docname="Elba.svg"
   inkscape:version="1.0.1 (3bc2e813f5, 2020-09-07)">
  <metadata
     id="metadata14">
    <rdf:RDF>
      <cc:Work
         rdf:about="">
        <dc:format>image/svg+xml</dc:format>
        <dc:type
           rdf:resource="http://purl.org/dc/dcmitype/StillImage" />
        <dc:title></dc:title>
      </cc:Work>
    </rdf:RDF>
  </metadata>
  <defs
     id="defs12" />
  <sodipodi:namedview
     pagecolor="#ffffff"
     bordercolor="#666666"
     borderopacity="1"
     objecttolerance="10"
     gridtolerance="10"
     guidetolerance="10"
     inkscape:pageopacity="0"
     inkscape:pageshadow="2"
     inkscape:window-width="1920"
     inkscape:window-height="974"
     id="namedview10"
     showgrid="false"
     inkscape:zoom="0.47177599"
     inkscape:cx="574.82306"
     inkscape:cy="488.96361"
     inkscape:window-x="-11"
     inkscape:window-y="-11"
     inkscape:window-maximized="1"
     inkscape:current-layer="svg8" />
  <g
     id="g6"
     transform="matrix(0.41982233,0,0,0.41982233,-1.893398,82.071068)">
    <g
       stroke="#000000"
       stroke-width="0.98"
       fill="#000000"
       id="g4">
      <path
         d="m 1106.06,492.47 v -2.64 h 0.97 v -1.92 -5.97 h 0.97 v -1.32 h 2.9 v 1.32 l 0.97,-0.02 v 0 1.32 h 1.93 l -0.01,1.32 h 4.84 v -1.32 h 2.89 l 0.01,-1.3 h 1.93 v -1.32 h 3.87 v -1.32 h 6.76 v -1.32 h 5.8 v -1.32 h 5.81 v -1.32 h 3.86 v 1.32 h 5.81 v -1.32 l 2.9,-0.02 -0.01,-1.28 h 0.97 v -1.32 h 0.97 v -3.97 l 0.96,-0.01 v -1.07 -1.54 h 0.97 l -0.01,-2.64 h -0.96 v -2.64 h 0.96 l 0.01,-2.64 h 0.97 v -3.94 h -0.97 l -0.01,-19.75 -0.96,-0.02 v -1.3 h -0.96 v -1.32 h -0.96 v -2.65 h -0.97 l -0.01,-5.24 h -0.96 v -3.96 h -0.97 v -5.27 h -0.96 v -9.22 l 1.55,-0.02 h 0.37 v -1.32 l 2.91,0.02 v -1.32 l 0.96,-0.02 v -1.29 h 0.97 v -5.28 l -0.97,0.02 v -1.32 h -0.96 v 1.3 h -1.93 v 1.32 h -3.87 v 1.3 h -4.84 v -3.92 h -0.96 v -3.96 l -0.97,0.02 -0.01,-3.96 h -0.95 v -3.97 h 0.95 l 0.01,-1.32 h 3.87 v -1.3 h 0.83 2.07 v -1.32 h 6.76 v -1.32 h 0.97 v -1.32 h 1.94 v -1.32 l 0.95,-0.02 v -2.61 h 0.97 v -1.32 h 0.97 v -1.34 l 1.94,0.02 0.01,-1.32 0.95,-0.02 v -2.6 h 0.96 v -11.87 h -0.96 v -1.32 h -0.95 l -0.01,-9.21 h -0.97 l 0.01,-1.32 h -1.95 v -1.32 h -1.92 v -1.32 h -2.91 v -1.33 h -5.79 v 1.33 l -1.94,-0.02 -0.01,-1.31 -0.96,-0.01 v -1.29 h -0.96 v -5.28 h -0.96 v -2.63 h -0.98 v -2.64 h -0.96 v -1.32 l -0.97,0.02 -0.01,-1.34 h -0.4 -1.52 v -1.3 l -0.97,-0.02 v -3.95 h 0.97 v -1.32 h 0.97 v -3.94 h 0.95 l 0.01,-2.64 h -0.96 v -1.34 l -0.67,0.02 h -0.3 v -4.47 -7.39 h 0.97 v -7.91 h 1.92 v -1.31 h 0.97 v -1.33 h 1.94 v -1.3 h 0.96 v -1.32 h 0.96 v -1.32 h 0.98 v -1.32 h 0.97 v -3.95 h -0.97 v -1.32 h -4.84 v 1.32 h -0.97 v 3.95 h -1.92 v 1.32 h -1.94 v 1.32 h -0.44 -1.48 l -0.01,-1.32 h -0.97 v -1.32 h -0.96 v -3.95 h 0.96 v -2.64 h 0.97 v -2.62 h 0.95 l 0.01,-1.29 v -2.7 l 0.97,-0.16 v -2.46 h 0.97 v -0.4 -2.23 h 0.97 v -0.34 -0.97 h 0.53 3.34 v -2.65 h 0.96 v -2.62 h -0.96 v -2.64 l -0.98,0.01 v -4.63 -3.29 h 0.56 0.42 v -2.45 -1.5 h 0.25 0.71 V 238 l 0.01,-3.75 0.95,-0.02 v -0.65 -1.99 h 0.66 0.3 v -0.92 -1.71 l 0.57,0.02 h 0.41 v -1.23 -2.73 l 0.97,-0.18 v -2.47 l 0.95,-0.16 v -1.16 h 0.46 l 1.49,0.02 v -1.32 h 0.96 v -1.32 h 0.97 v -1.32 h 0.96 v -1.32 h 0.97 v -1.31 h 0.97 v -1.32 h 0.97 v -3.96 l 0.95,-0.02 0.01,-2.61 h 0.96 v -8.51 -2.04 h 0.97 v -0.38 -2.27 l 0.97,-0.07 v -1.23 h 0.46 0.51 v -1.25 -2.71 h 0.96 v -1.32 h 0.65 0.32 v -0.8 -1.83 h 0.97 v -0.6 -2.04 l 0.97,-0.17 v -1.15 h 0.55 0.4 v -0.84 -0.5 h 0.97 v -1.29 h 1.94 v -1.32 h 0.97 v -1.32 h 0.96 l 0.01,-1.32 0.95,-0.02 v -2.61 h 0.98 v -3.96 h 0.96 v -3.95 h 2.9 v -2.64 h 0.97 v -4.66 -1.93 h 1.11 0.83 v 1.32 h 3.86 v -1.32 h 0.97 l -0.01,-5.25 -0.96,-0.02 0.06,-1.33 h 0.9 v -1.32 h 0.98 v -1.32 h 0.96 v -4.36 -2.23 h 0.56 0.41 v -1.63 -6.28 h -0.97 v -1.33 l -0.96,0.02 v -1.32 h -1.94 l -0.01,-1.32 h -1.92 v -1.32 l -0.97,0.02 v -2.66 h -0.97 l 0.01,-1.33 h -0.97 v -1.28 l -3.86,-0.02 v -1.32 l -2.92,0.02 0.01,-1.34 h -1.92 l -0.01,-1.33 h -2.91 v -2.62 l -0.97,0.02 V 109 h -0.95 l 0.01,-1.32 -0.98,-0.01 v -1.31 l -0.97,-0.02 -0.01,-2.6 h -1.92 v -1.33 h -0.97 v 1.33 h -3.86 v -1.33 h -0.97 v -1.32 l -0.97,-0.02 V 95.8 h 0.97 v -2.62 h 0.97 v -1.74 -0.89 h -0.97 v -2.64 l -0.97,0.02 v -1.35 h -1.93 v -1.32 h -2.9 v -1.3 h -6.76 v -1.32 h -4.51 l -6.14,0.01 0.01,-1.34 h -1.94 v -1.32 h -1.93 v 1.32 h -7.74 v -1.32 h -1.93 l -0.01,-1.32 h -0.95 v -1.32 h -0.97 v -1.31 h -1.93 v -1.32 h -0.98 l 0.01,-1.32 h -0.96 v -1.34 l -0.98,0.02 v -1.32 h -3.86 v -1.31 h -0.97 v -3.96 l -0.96,-0.02 -0.01,-2.63 h -0.98 v -5.27 h 0.98 v -1.32 h -0.98 l 0.01,-4.48 0.01,-0.79 h 1.93 v -1.32 h 1.95 l -0.01,1.32 h 0.96 v -5.27 h -0.96 v -2.64 l 1.93,-0.02 v -1.33 h 1.94 v 1.33 l 0.96,0.02 v -1.33 h 2.9 v -1.3 h 0.97 v -2.65 h -0.97 v -3.96 l -0.97,0.02 v -1.33 h -7.73 v 1.31 h -3.87 v 1.32 h -5.58 -1.18 v -1.32 h -1.94 l 0.01,-1.31 -2.9,-0.01 -0.02,-1.31 h -0.95 v -1.32 h -0.97 v -1.3 l -0.97,-0.02 v -1.33 h -0.96 l -0.02,-1.3 h -1.91 v -1.32 h -0.97 v -1.32 l -0.97,0.01 V 11.42 h 0.97 V 10.1 h -1.95 l 0.02,-1.33 h -1.94 l 0.01,-1.32 h -2.91 V 6.13 h -5.8 v 1.32 l -1.94,-0.01 v 1.33 h -0.97 v 2.65 h -0.96 V 10.1 h -3.87 v 1.32 h -0.96 v 1.31 h -0.97 v 1.32 h -1.93 l -0.01,1.32 h -1.67 -0.25 v 0.36 0.96 h -0.65 -0.32 v 0.48 3.47 h -0.97 l -0.01,1.32 h -0.96 v 1.33 h -0.96 v 1.32 h -0.97 v 1.32 l -0.97,-0.02 v 2.65 h -0.96 v 1.32 h -0.97 v 1.3 h -2.59 -0.32 v 0.51 0.83 h -0.52 -0.44 v 0.71 0.6 h -0.37 -0.59 v 0.92 1.72 h -0.97 l 0.01,3.97 h -0.98 v 1.28 l -0.97,0.02 v 5.29 h -0.96 v 5.27 h 0.97 v 2.65 h -0.97 v 3.95 h 0.97 v 1.3 l 0.96,0.02 v 2.62 H 1050 v 1.33 h -0.97 v 1.32 h -5.81 l 0.01,1.32 h -2.91 v 1.3 l -1.91,0.02 -0.02,2.63 h -1.93 v 3.96 h -3.87 v 1.32 h -2.89 v 1.31 h -1.58 -0.36 v 0.58 0.72 l -0.46,0.02 h -0.51 v 0.82 1.82 h -0.96 l -0.01,1.33 h -0.96 l 0.01,1.34 -0.98,-0.02 v 1.3 h -0.69 -1.24 v 2.01 0.64 h -0.39 -1.54 v 1.32 h -0.97 v 2.73 1.22 h 0.97 v 3.96 h -0.97 v 1.31 l -0.97,0.02 v 1.3 h -3.83 -1 v 1.32 h -0.96 v 1.87 2.1 h -0.97 v 2.62 h -1.66 -0.28 v 0.58 0.73 h -0.32 l -0.64,0.01 0.11,0.75 -0.05,0.63 -0.06,0.62 -0.03,0.37 -0.11,1.13 v 0 l 0.11,-1.13 0.03,-0.37 0.05,-0.62 -1.99,-0.06 v 1.33 h -1.93 v 1.32 l 1.93,0.02 v 1.28 h -0.96 v 1.32 h -0.97 v 3.99 l 0.97,-0.02 v 5.27 l 0.96,0.02 v 2.62 l 0.98,-0.01 v 1.31 h 0.96 v 3.95 l 0.96,0.02 v 2.63 h -0.96 v 5.29 h -0.96 v 1.32 h -2.91 v -1.32 h -1.93 v 1.32 h -3.87 v 1.3 h -0.96 v 5.29 l 0.97,0.02 -0.01,5.25 h -0.96 v 7.91 h -0.97 v 2.62 h -0.97 v 1.33 h -0.96 v 1.3 l -1.94,0.02 v 2.64 h -1.93 l -0.01,1.32 h -0.95 v 1.3 h -0.97 v 2.65 h -0.97 v 1.32 h -0.97 l -0.01,1.32 h -2.89 v 1.29 l -2.89,0.02 -0.01,2.64 h 0.96 v 3.94 l 0.97,0.02 v 1.31 h 2.91 l -0.01,1.32 h 0.97 l -0.01,1.34 1.95,-0.02 v 2.64 l 0.97,-0.02 v 3.99 l -1.94,-0.02 v 1.32 h -0.97 v -1.32 h -3.83 -6.81 v -1.32 h -1.93 v 1.32 h -0.96 v 1.32 h -1.94 v 7.91 h -0.96 v 3.93 l -0.98,0.02 v 2.64 h -0.96 v 5.27 h -0.97 v 1.32 h -0.96 v 1.32 h -0.96 v 1.32 l 0.96,-0.02 v 2.4 l 0.96,0.25 v 2.64 l 0.99,-0.02 -0.02,1.32 -0.96,0.02 -0.01,2.62 h -4.83 v -1.3 l -0.96,-0.02 v -0.81 -4.45 h -0.97 v -1.33 h -0.95 l -0.02,-1.3 h -0.97 l 0.01,-1.3 -0.97,-0.02 v -1.32 h -0.97 v 1.32 h -0.96 v 1.32 h -2.9 v 1.3 h -2.9 v 1.33 h -1.94 v 2.62 l -0.96,0.02 v 1.32 h -0.97 v 2.62 h -0.97 v 2.65 h -0.97 v 2.64 h -0.95 l -0.02,7.91 h -1.92 v 4.42 2.17 h -0.97 v 2.62 h -0.97 l -0.01,1.33 h -0.96 v 1.32 h -2.89 l -0.01,-1.32 h -0.97 v 1.32 h -0.96 v 1.32 h -0.96 v 1.32 h -0.97 v 3.95 l 0.98,-0.02 -0.01,1.32 -0.97,0.01 v 3.95 h -1.94 v 1.32 h -0.96 v 1.32 h -3.87 v 1.32 h -4.82 l -0.01,-1.33 h -5.8 v -1.31 h -11.83 l -2.4,5.64 2.4,-5.64 h -2.68 v 1.3 l -0.94,0.02 -0.02,3.95 h -0.97 v 1.32 h -0.96 v 2.64 h -0.97 v 2.61 h -0.97 v 6.6 l -0.95,0.02 -0.01,5.27 h 0.96 v 1.3 l 3.87,0.02 0.02,1.3 h 2.89 v 1.32 h 1.93 v 1.31 h 2.9 v 1.32 l 0.96,0.01 0.02,1.33 h 1.92 l -0.01,1.3 h -0.96 v 2.64 h -0.97 v 2.64 h -0.96 v 1.32 h -3.88 l 0.01,-1.32 h -10.64 v 1.32 h -0.96 v 2.63 h 0.96 V 312 h 0.97 v 1.32 h 0.97 v 2.62 l 0.96,0.02 v 1.3 h 0.97 v 1.33 h 0.97 v 3.94 l -0.97,0.02 v 3.94 l 0.97,0.02 v 1.3 h 1.93 v 1.32 h 1.93 v 1.31 l 0.98,0.02 v 1.3 h 1.93 v 2.64 h -0.98 v 3.94 h -0.95 v 1.33 h -0.98 v 3.96 h -0.97 v 1.28 l -0.94,0.02 -0.02,1.32 h -0.97 v 1.32 h -3.86 v 1.32 h -1.94 v 4.56 3.33 l -0.97,0.02 0.01,1.3 h -4.84 l 0.01,-1.3 h -0.97 v 1.32 h -5.06 -3.64 v 1.3 h -0.97 v 0.42 0.92 l -0.97,-0.02 v 1.33 h -2.89 v 1.32 h -1.94 v 1.3 l -9.66,0.02 -0.01,1.32 h -4.84 v 1.3 h -1.92 v 1.32 h -3.87 v 1.32 l -1.94,-0.02 -0.01,-1.3 h -3.85 v 1.3 l -4.84,0.02 v 1.32 h -0.96 v -1.32 h -5.79 v -1.32 h -2.91 v -1.32 h -0.96 v -1.3 h -0.97 v -1.32 h -2.9 v -1.34 h -2.9 l -0.02,-1.3 h -3.85 v -1.33 h -1.93 v -2.62 h -0.97 v -3.96 h -0.97 v -1.32 h -0.97 v -1.3 h -1.93 v -1.33 l -1.94,0.02 v -1.34 h -0.96 l 0.01,-1.32 h -0.97 v -2.66 l -0.97,0.02 -0.14,-1.3 h -0.83 v -0.82 -0.5 h -0.51 -4.33 v 1.32 h -2.89 v 1.3 h -2.9 v 1.32 h -3.87 l -0.01,-1.32 h -2.89 v 1.32 h -0.97 v -1.32 h -0.96 v -1.3 h -1.93 v 1.28 l -0.97,0.02 -0.01,-1.3 h -0.96 v -2.64 h -0.95 v -1.34 l -3.87,0.02 -0.01,1.32 h -1.93 l -0.01,-1.32 h -5.79 l -0.02,-1.33 h -0.95 v -1.3 h -2.91 v -1.32 h -2.89 v 1.32 h -0.97 v 1.29 l -0.98,0.01 0.01,1.31 -1.92,0.02 v 1.32 h -2.91 l -0.02,-1.32 -1.91,-0.02 v -1.31 l -0.97,-0.01 v -1.29 h -0.97 v -1.32 h -0.96 l 0.01,-1.32 0.95,-0.02 v -1.32 l 0.97,0.02 v -6.59 l -0.97,0.02 V 314.06 312 h 1.94 v -1.32 h 0.96 v -2.63 h 0.96 v -1.32 h 5.81 v 1.32 h 8.7 v -1.32 h 0.97 v 1.32 h 2.89 v -1.32 h 0.97 l 0.01,-1.32 h 0.97 v -1.32 h 0.96 l 0.01,-2.62 0.95,-0.02 v -5.27 h -0.95 l -0.01,-3.94 h -0.96 v -1.32 h 0.96 v -1.32 l 2.9,0.01 v 1.31 h 3.87 v 1.32 h 1.93 v 1.32 l 3.88,-0.02 v 1.32 h 0.95 v 1.34 l 0.97,-0.02 v -1.32 h 1.93 v -1.3 h 0.97 v -5.29 h 0.96 v -1.32 l 2.91,0.02 v -1.32 h 1.92 l 0.01,1.32 0.96,-0.02 v 2.54 l -0.96,0.11 v 0.81 l -0.01,0.51 h -0.53 -1.39 v 2.64 h -0.97 v 2.62 h -0.97 v 1.32 h -0.97 l 0.01,1.31 h 4.82 v -1.32 l 3.88,0.01 v -1.32 h 1.93 v -1.32 h 0.96 v -2.62 h 0.98 v -1.32 h 0.96 v -1.32 h 0.97 v -1.33 h 0.96 v -1.3 h 0.97 v -1.32 h 1.93 v -4.43 -6.12 h -0.97 l -0.01,-1.32 -1.91,-0.02 -0.01,-1.28 -0.96,-0.04 v -1.29 h -1.94 l -0.02,-1.32 h -0.95 l 0.01,-1.32 h -0.97 v -1.32 h -1.93 l -0.01,1.32 h -6.76 v -1.32 h -2.9 v -1.32 h -0.97 l 0.01,-1.3 h -0.98 v 1.3 h -4.83 v 1.32 h -2.9 v 1.32 h -5.8 v 1.3 h -14.5 l -0.01,-1.3 h -4.83 v -1.32 h -0.95 v -1.32 l -0.98,0.02 v -1.32 h -0.97 v -1.33 l -0.96,-0.01 -0.01,-1.31 h -1.92 v -1.32 h -0.97 v -1.32 h -1.92 l -0.01,-1.3 h -0.97 v -3.97 h -0.78 l -1.16,0.02 0.01,-1.34 h -1.94 v 1.32 h -1.92 v 0.67 0.66 h -5.01 -7.57 v 0.99 l -2.49,0.33 h -1.38 v 1.32 h -6.76 l -0.01,1.3 h -2.89 v 1.32 h -11.6 v 1.32 h -5.8 v -1.32 h -14.5 v 1.32 l -3.87,-0.01 v 1.33 l -8.7,-0.01 -0.01,-1.31 h -1.92 v -1.3 l -0.96,-0.02 v -1.32 l -0.98,0.02 0.01,-1.32 h -1.93 v -1.32 h -1.94 v -1.32 l -0.68,0.01 -0.3,-0.09 0.02,-1.25 h -1.94 v -1.32 h -0.96 l -0.01,-1.32 h -1.93 v -1.3 h -0.97 v -1.32 h -0.97 l 0.01,-1.32 h -0.98 v -1.33 h -0.97 v -1.32 h -2.89 v -1.3 h -2.9 v -1.32 h -4.83 v 1.32 h -7.72 l -0.01,-1.32 h -10.64 v 1.32 h -0.28 -2.62 l 0.01,1.29 -9.88,0.01 h -0.76 v -1.3 l -0.98,0.02 0.01,-1.34 h -0.96 l -0.01,-2.64 -1.93,-0.02 v -1.3 h -2.9 v -1.33 l -0.97,-0.01 v -1.29 h -0.96 l -0.01,-1.32 h -11.59 v -1.32 l -4.84,-0.02 v -1.3 h -0.96 v -1.32 l -0.98,0.01 v -1.32 h -0.96 v -1.32 l -1.92,-0.02 v -1.3 h -0.97 v -1.3 l -0.97,-0.02 -0.02,-1.32 h 0.98 l 0.01,-1.32 h 0.97 v -1.31 h -0.97 l -0.01,-1.3 -0.96,-0.02 v -2.64 h -0.97 v -1.32 h -1.93 v 1.32 h -0.98 l 0.01,-1.32 h -1.93 v -1.31 h -0.97 v -1.32 h -2.9 l 0.01,-1.32 h -1.95 v -1.32 h -4.83 v -1.32 h -4.83 v 1.32 h -0.97 v 3.96 h -0.96 v 5.27 h -0.97 v 1.32 h -2.9 v 1.31 h -0.97 v 2.64 h 0.97 v 1.32 l 2.9,-0.02 v 1.32 h 0.97 v 1.32 l 0.96,0.02 v 2.63 h 0.97 v 1.3 l 0.96,0.02 0.01,3.93 -0.97,0.01 v 1.31 l 0.96,0.02 v 1.3 h 4.84 v 1.34 h 3.86 v 1.32 h 2.89 l 0.02,-1.32 h 3.86 l 0.01,-1.32 1.93,-0.02 v -1.32 l 1.93,0.02 0.01,-1.33 3.86,-0.01 v 1.32 l 0.96,0.02 0.01,1.3 0.96,0.02 v 1.32 h 1.93 v 2.64 h 1.94 v 1.29 l 0.96,0.01 v 1.32 h 0.97 v 1.33 h 1.95 l -0.02,1.32 h 0.97 v 1.32 l 0.97,0.02 v 1.28 h 0.97 v 1.32 h 1.92 l 0.01,1.32 1.94,0.02 v 2.63 l 0.96,-0.02 v 3.96 h 0.96 v 2.64 h 0.96 v 5.25 l 0.98,0.02 v 1.3 l -0.98,0.02 v 2.61 l -0.94,0.04 -0.02,2.62 h -0.96 v 1.32 h -1.94 v 1.32 h -0.96 v 2.63 h -0.97 v 1.32 h -0.96 v 1.32 h -1.94 l -0.01,1.32 h -0.96 v 1.32 h -1.93 v 1.3 l -1.93,0.02 -0.01,1.3 h -5.8 v 1.33 h -13.53 v 1.32 h -2.9 l 0.01,1.3 -1.67,0.02 h -0.27 v 0.58 0.72 h -0.33 l -1.6,0.02 -0.01,1.3 h -0.96 v 1.32 h -1.93 v 1.32 h -0.97 v 2.65 h 0.96 v 1.3 l 0.96,0.02 0.02,2.6 h 0.97 v 1.34 h 0.96 v 2.64 h 0.96 v -1.32 h 0.97 v 3.95 h 0.97 V 312 h 1.94 l -0.01,2.66 0.96,-0.02 v 1.3 l 1.95,0.04 -0.01,1.28 h 5.8 v 1.33 h 0.97 v 1.32 l 0.97,0.01 v 5.25 h -0.97 v 2.64 l 0.97,-0.01 v 1.32 h 0.97 v 1.32 h 0.96 v 1.32 l 1.94,0.02 v 1.3 l 0.96,-0.02 v 1.32 l 0.96,0.02 0.01,2.64 h -0.98 v 3.17 0.78 h -0.49 -0.46 v 0.72 1.92 h -0.97 v 1.28 l -0.97,0.02 -0.01,1.32 h -1.24 -0.68 v 0.92 0.4 h -0.31 -1.63 l -0.01,1.81 v 0.83 h -1.04 -0.88 v 0.51 0.82 h -0.97 v 1.3 h -2.75 -2.09 v -1.3 h -2.89 v 1.3 h -0.97 v -1.3 l -5.8,-0.02 v 1.32 h -0.97 v 2.64 h -1.15 -0.78 v 1.32 h -9.67 l -0.01,-1.3 -0.95,-0.02 v -1.32 h -0.97 v -1.32 h -0.97 v -2.63 l -0.97,0.02 v -1.34 h -0.96 l -0.01,-1.32 h -2.89 v 1.32 h -0.97 v 1.32 h -3.86 v 1.33 h -0.97 v 1.3 h -11.6 v 1.32 h -0.97 v -1.32 h -6.77 v 1.32 h -1.93 v 1.32 h -0.49 -1.44 v 1.3 l -0.97,0.02 v 1.32 h -0.96 v 1.3 h -0.97 l -0.01,1.32 h -0.96 v 1.31 l -0.95,0.02 -0.02,3.96 h -0.96 v 9.19 l -0.97,0.02 v 5.28 h -0.96 v 1.3 h 0.96 v 1.32 h 0.97 v 1.32 h 0.96 v -1.32 h 1.93 v -1.32 h 2.92 l -0.01,1.32 h 1.93 v 1.32 l 0.97,0.02 v 1.3 l 0.97,0.02 -0.01,6.57 h -0.96 v 2.62 l -0.97,0.02 v 2.33 l -0.32,0.29 h -0.64 l -0.01,0.58 v 0.74 h -0.96 v 1.32 h -0.97 v 1.32 h -0.96 v 1.29 h -0.98 v 1.34 h -0.96 v 1.32 l -3.87,-0.02 v 1.34 h -1.93 v 1.32 h -2.9 v 2.62 h -1.94 v 1.32 h -2.89 v 1.32 h -3.86 v -1.32 h -0.98 l 0.01,-1.32 h -1.93 v -1.3 l -0.99,0.02 0.02,-1.34 h -0.96 v -0.56 l -0.01,-0.76 h -1.94 v -1.32 l -0.96,-0.02 -0.01,-1.3 h -0.96 v -1.32 h -0.96 v -1.31 h -5.81 v 2.61 l -0.97,0.02 v 0.87 7.03 h -0.95 v 1.32 h -0.97 v -1.32 h -1.94 l -0.01,-1.34 0.98,0.02 v -1.3 h 0.97 v -2.64 h -0.97 v -1.32 l -0.97,-0.02 -0.06,-1.3 h -7.67 v 1.3 l -0.98,0.02 v 1.32 h -1.92 v 1.32 h -1.94 v -1.32 h -2.89 v -3.96 h -1.94 v 1.3 h -2.9 v -1.3 l -4.83,-0.02 v -1.29 h -0.43 -1.52 v -1.32 h -0.96 l 0.01,-1.32 h -0.96 v -1.32 h -0.97 v -1.32 h -2.9 v -1.3 h -4.84 v -1.32 l -1.93,-0.02 -0.02,-1.3 h -0.95 v -1.3 l -1.94,-0.02 v -2.64 h -0.96 l 0.01,-1.31 h -7.75 v 1.31 h -1.94 l 0.01,-2.63 h -0.96 v -1.32 h -0.97 v -1.32 h -0.97 v -1.32 h -0.97 v -1.3 h -0.96 v -1.32 h -0.97 l 0.01,-1.32 h -0.98 v -1.32 h -0.97 v -1.32 l -0.96,-0.02 -0.01,-1.3 h -0.95 v -1.31 h -0.97 v -1.32 h -0.97 v -1.32 h -1.92 l -0.01,-1.32 h -0.96 v -1.3 l -0.97,-0.02 v -1.3 h -1.95 v -1.32 h -1.92 v -1.32 l -0.97,-0.02 v -1.3 h -1.93 v -1.33 h -0.97 l 0.01,-1.32 h -1.95 v -2.62 l -0.96,-0.02 v -2.62 h -0.96 v -6.59 h 0.95 v -2.64 h -0.95 v -2.62 h -0.97 l 0.01,-1.32 h -1.95 v -1.32 h -1.92 v -1.33 l -0.97,-0.01 -0.01,-1.29 h -1.93 v -1.32 h -1.93 v -1.32 l -0.97,-0.02 v -1.3 h -1.93 v -1.32 h -1.93 v -1.32 l -0.98,0.02 v -1.33 l -0.96,-0.01 v -2.63 h -0.97 v -1.32 h -0.96 v -1.32 h -0.97 v -1.3 h -0.96 l -0.02,-1.3 -0.95,-0.02 v -1.32 l -1.93,0.01 v -1.33 h -6.77 v 1.32 h -8.7 v 1.32 h -2.9 v 1.32 h -2.9 v 1.3 h -0.98 v 1.32 l -3.86,0.02 v -1.34 h -1.94 v -1.3 h -1.92 v -1.32 h -0.96 v -1.32 l -0.98,0.01 0.01,-1.33 h -0.96 l -0.01,-2.63 0.97,-0.02 v -1.3 h 5.79 V 312 h -0.97 v -1.32 h -1.92 v -1.32 l -1.93,-0.02 v -1.29 h -0.98 v -1.32 h -2.9 v -1.32 h -4.83 v -1.32 h -3.86 v 1.32 h -0.98 v 1.32 h -0.96 l -0.01,1.32 h -4.82 v -1.32 h -1.94 v -1.32 h -2.89 v -1.34 h -1.94 v -1.3 h -1.93 v -1.3 l -1.93,-0.02 v -1.3 h -2.9 v -1.33 l -2.91,-0.01 -0.01,-1.31 -4.82,-0.01 v -2.63 h -0.96 v 1.32 h -1.94 v 1.32 h -2.9 v 1.32 h -3.87 v 1.33 h -3.86 v 1.3 h -3.87 v 1.32 h -1.94 v -1.32 h -5.79 v 1.32 h -0.97 v 2.64 h 0.96 l 0.01,2.64 h 0.96 v 5.27 2.62 h -3.87 v 1.32 h -1.93 v 1.33 h -7.73 v 1.32 h -2.9 v 1.32 h -2.89 v -1.32 h -0.98 v 1.32 h -4.83 v 1.32 h -0.97 v 1.3 h -3.86 v -1.3 h -0.97 v -1.32 h -0.97 v -1.32 h -0.95 l -0.02,-2.65 h -0.96 v -2.62 l -1.94,0.02 v -1.34 h -7.72 v 1.32 h -6.78 l 0.02,1.3 h -11.61 v -1.3 h -2.9 v 1.3 h -0.97 v -1.3 h -1.92 l -0.02,-1.32 h -15.46 l -0.01,1.32 h -0.96 v 1.3 h -5.8 v 1.32 h -4.83 v 1.33 h -0.97 v -1.33 h -0.96 v -1.32 h -1.94 v -1.3 h -11.6 v 1.3 h -1.93 v 1.32 h -3.87 v 1.33 h -5.8 v 1.33 l -6.76,-0.01 -0.01,-1.32 h -1.93 v -3.95 l -0.97,0.02 V 312 l -1.93,-0.15 v -1.17 h -3.87 V 312 h -1.93 v 1.32 h -3.87 v 1.32 h -0.96 v 1.3 h -2.9 v 1.32 h -0.97 v 1.33 h -1.93 l -0.01,1.32 h -1.92 v 1.32 h -1.94 v 1.32 h -1.94 v 1.3 h -1.93 v 1.32 h -2.9 v 1.32 h -4.83 v 1.32 h -2.9 v 1.32 h -2.9 v 1.31 h -1.93 v 1.32 h -1.94 v 1.32 H 93.17 92 v 1.18 l -3.86,0.14 v 1.32 h -0.97 v 1.32 h -14.5 v 1.3 h -1.93 v 1.31 l -0.97,0.02 v 1.32 h -0.96 l -0.01,1.32 h -0.96 v 3.94 h 0.97 v 1.32 h 0.96 v 1.32 h 0.97 v 1.32 l 0.97,0.02 v 4.6 0.65 h -0.65 -0.32 v 1.32 h -0.99 -0.94 v 0.67 0.65 h -0.97 v 1.3 h -0.96 v 3.95 h -1.95 l 0.01,-1.3 h -0.97 l -0.01,-1.33 h -0.95 v -1.32 h -1.94 v 1.32 h -2.9 v 1.33 h -1.94 v 1.3 l -0.95,0.02 -0.01,2.64 H 54.3 v 1.25 l -0.96,0.05 v 0.62 0.7 H 52.28 51.4 v 0.6 0.72 H 50.02 48.5 v 0.63 0.69 h -1.59 -0.34 v 2.63 H 45.6 v 1.32 H 34.01 L 34,376.56 h -1.22 -0.71 v 0.96 0.36 h -0.26 -1.67 l -0.01,1.32 h -0.96 l 0.01,2.33 -0.21,0.29 H 28.2 v 1.05 l 0.97,0.27 v 1.32 h 0.97 v 2.64 h -0.97 v 1.31 H 28.2 v 1.32 h -0.96 v 1.34 l -4.96,-0.02 h -1.8 v 1.32 H 19.5 v 1.32 h -0.96 v 2.62 h -1.93 v 1.32 h -0.97 v 1.32 h -0.97 v 2.64 h -0.96 v 1.29 l -0.97,0.02 -0.01,1.32 h -0.96 v 1.32 h -0.96 v 2.64 H 9.84 v 5.26 H 8.86 v 2.64 H 7.9 v 7.91 h 0.96 v 1.3 H 7.9 v 2.64 H 6.93 v 5.27 H 5.97 v 3.96 h 0.96 v 2.62 H 5.97 v 1.32 h 0.96 v 5.26 H 7.9 v 7.91 h 0.96 v 14.47 l -0.96,0.02 v 1.3 l 0.96,0.02 v 1.32 H 6.93 v 2.64 H 7.9 v 2.62 h 0.96 v 1.32 h 0.98 v 1.32 h 0.97 v 1.32 h 0.96 v 2.62 h -0.96 v 1.32 h 0.96 v 2.64 h -0.96 v 5.27 H 9.84 v 6.58 H 8.86 v 1.3 l -0.96,0.02 v 6.58 H 6.93 v 1.32 H 5.97 v 2.64 H 5 v 3.94 h 0.98 l -0.01,1.32 h 0.96 v 1.32 H 7.9 v 1.31 h 5.81 v 1.32 h 0.97 l -0.01,5.28 h -0.96 v 2.6 h 0.97 v 1.32 h 0.97 v 5.26 l 0.95,0.02 0.01,2.64 h 0.96 v 1.32 h 1.94 l -0.01,1.32 h 1.94 v 3.94 h 2.91 l -0.01,1.32 h 0.97 v 1.32 h 4.82 l 0.01,1.3 h 6.77 l -0.01,2.64 h 0.97 v 5.26 h 4.84 v 6.59 l 0.96,0.01 v 3.94 l 0.97,-0.01 v 2.65 h 0.97 l -0.01,18.43 h 0.97 v 1.32 h 0.96 v 1.3 h 2.91 l 0.01,1.32 h 0.94 l 0.01,-1.3 2.91,-0.02 v 1.32 h 1.93 l -0.01,1.34 1.94,-0.02 v 2.64 l 0.98,-0.02 v 5.26 l 0.95,0.02 v 7.9 h 0.97 v 1.32 h 0.97 v 1.32 h 0.97 v 1.3 l 0.96,0.02 v 1.3 h 1.93 v 1.32 h 1.94 v 1.32 h 1.93 v 1.32 l 0.97,0.02 v 1.3 l 0.97,-0.02 v 2.64 h 0.96 v 3.96 h -0.96 v 2.62 h 0.96 v 2.64 h 0.96 v 1.32 h 0.98 v 1.32 h 0.96 v -1.32 h 1.93 v 1.32 h 2.91 v 1.3 h 0.96 l 0.02,2.64 h 1.91 v 1.32 h 1.94 v 1.32 h 0.97 v 1.28 h 2.91 l -0.01,1.34 h 1.93 l -0.01,1.32 h 4.84 v 1.32 h 0.97 v 1.32 l 2.9,0.01 v 1.3 h 0.96 v 1.31 h 2.9 l 0.01,1.32 h 2.9 v 1.32 h 0.96 v 2.63 h -0.96 v 1.31 h 0.96 v 1.31 h 0.97 v 1.32 h 0.97 v 1.31 h 0.97 l -0.01,1.32 h 0.98 l 0.01,1.33 h 0.95 l -0.01,1.3 3.88,0.02 v 1.3 h 1.93 v 1.3 h 0.97 v 1.34 h 0.96 v 1.32 h 0.97 v 3.94 h 0.96 v 2.64 l 0.97,0.02 v 1.3 l 0.97,0.02 v 1.28 h 0.96 v 1.32 h 5.79 l 0.01,-1.32 h 1.93 v -2.62 h 4.84 v 1.32 h 0.97 v 1.3 h 0.96 v 1.32 h 4.83 v -1.32 h 2.9 v 1.32 h 9.67 l -0.01,1.32 4.85,0.02 v 1.3 h 7.73 v 1.3 h 2.91 v 1.32 h 0.96 v 1.32 h 1.93 v 1.32 h 2.91 v 1.3 l 0.95,0.02 v 1.3 l 2.9,0.02 0.01,1.3 0.96,0.02 v 1.3 l 0.97,0.02 v 1.3 h 2.9 v 1.3 l 0.96,0.02 0.01,1.3 h 0.96 v 2.62 h 0.98 v 1.32 l 0.95,0.01 0.01,1.31 0.96,0.01 v 1.32 h 1.94 v 1.32 h 1.94 l -0.01,1.32 0.97,0.02 v 1.28 h 2.89 l 0.01,1.32 h 2.9 v -1.32 h 0.96 v -1.3 h -0.96 v -2.64 h -0.97 v -6.58 l -0.97,-0.01 v -1.3 h -1.93 l 0.01,-1.32 -1.94,-0.02 v -2.6 h -0.96 v -1.32 h -0.96 v -1.34 l -1.95,0.02 v -1.32 l -0.97,0.02 v -1.34 h -0.97 l 0.01,-1.32 h -0.96 v -1.32 l -0.98,0.02 v -1.32 h -0.96 v -1.32 l -0.98,0.02 v -1.34 h -2.89 v -1.32 h -0.97 v -0.47 -0.81 l -0.96,-0.02 -0.02,-3.96 h 1.95 v -1.32 h 2.9 v 1.32 h 0.96 v -1.34 l 2.9,0.02 0.01,1.32 h 3.88 l -0.01,2.64 h 0.97 v 1.32 l 5.79,0.02 v 1.28 h 22.24 v -1.3 h 2.89 l 0.01,-1.32 h 1.93 v -1.32 h 3.87 v -1.32 h 1.92 v -1.34 l 1.94,0.02 v 1.32 h 2.9 v -1.34 h 1.94 v -1.3 l 3.86,-0.02 v -1.28 h 4.84 v -1.32 h 0.96 l 0.01,-1.32 6.76,-0.02 v -1.31 l 2.9,0.01 v -1.32 h 0.96 l 0.01,-1.3 h 0.97 v -0.72 -0.61 l 0.96,0.01 0.01,-2.64 0.96,-0.01 v -1.31 l 1.93,0.02 0.01,1.3 0.96,-0.01 v 1.32 h 3.14 1.7 v 1.32 h 0.97 v 1.33 h 0.95 v 2.61 h 2.91 v 1.31 l 3.86,0.02 v -1.32 h 3.87 v -1.32 h 1.92 v -1.3 h 0.97 v -1.33 h 0.98 v -1.31 l 1.92,-0.01 v -2.63 h 0.96 l 0.02,-2.62 0.58,-0.01 0.38,-0.09 v -1.23 l 0.97,0.01 v -1.31 h 5.8 v 0.88 0.43 h 1.93 v 1.31 h 0.98 v 11.83 l 2.88,0.02 v 1.32 h 0.98 v -1.32 h 4.83 v -1.32 l 0.97,-0.01 v 1.31 l 0.96,0.02 v -1.32 h 0.97 v -1.32 h 0.96 v -1.3 h 2.9 v -1.33 h 2.58 4.2 v 0.99 0.34 l 0.96,-0.12 v -1.2 h 4.83 v 1.32 h 2.9 v 1.3 h 5.79 l 0.01,-1.3 h 3.87 v -1.32 h 12.57 v -1.32 h 6.76 v 1.31 h 0.97 v 1.33 h 1.93 v 1.3 l 1.94,0.02 v 1.3 h 1.93 l 0.01,2.64 h 0.96 l -0.01,1.32 h 0.97 v 1.28 l 3.86,0.02 0.01,1.3 0.97,0.02 v 1.32 h 1.94 l -0.01,1.32 h 0.96 v 0.54 0.78 l 0.97,0.02 v 1.3 h 1.94 l -0.01,1.3 h 2.91 v 1.32 h 2.89 v 1.34 l 4.84,-0.02 v 1.32 l 0.97,0.02 v 1.3 l 1.94,-0.02 v 1.32 h 1.92 v 1.32 h 1.94 v 1.32 h 1.93 v -1.32 h 3.86 v 1.32 l 0.97,0.02 v 1.3 l 5.81,-0.02 v 1.32 l 5.79,0.02 v 1.3 h 2.91 v 1.32 h 2.89 v 1.32 h 2.89 l 0.01,1.3 h 1.93 v -1.3 h 2.9 l 0.01,1.3 8.69,0.02 v 1.3 h 5.81 v 1.33 h 0.96 v -1.32 h 1.94 l -0.01,1.32 h 3.87 v 1.29 h 0.97 v -1.29 h 1.94 v 1.31 h 2.89 v 1.3 h 0.98 v 1.32 l 6.75,0.01 v 1.32 h 1.94 v 1.32 h 1.93 v 1.32 h 10.64 v -1.32 h 1.93 v -1.32 h 1.93 v -1.33 l 1.94,0.01 0.01,-1.32 0.94,-0.01 v -1.32 h 0.98 v -2.62 h 0.97 v -3.64 -1.62 l 0.96,0.02 v -1.9 -9.96 h 0.42 0.56 v -5.26 h -0.34 -0.64 l 0.01,-7.9 -0.97,-0.02 v -1.3 h -1.93 v -1.32 h -0.97 l 0.01,-2.62 h -1.95 v 1.32 h -2.89 v 1.3 l -1.95,0.02 v -1.32 h -3.86 v -1.32 l -0.97,-0.01 v -1.31 l -2.89,-0.01 v -1.31 l -1.94,-0.01 v -1.31 h -0.95 v -2.63 h -0.98 v -1.31 h 0.97 v -1.31 h 0.96 v -2.3 -2.96 h 0.96 l 0.01,-1.32 h 0.97 v -1.32 h 0.97 v -1.32 h 0.97 v -1.32 h 2.89 v -1.3 h 0.97 v -1.32 h 0.96 v -2.66 h 0.96 v -1.32 h 0.98 v -1.28 h 0.97 v -3.96 l 0.96,-0.02 v -1.3 h 0.97 v -6.58 h -0.95 l -0.02,-1.32 h -0.96 v 1.32 l -1.95,0.02 v -1.34 h -3.86 v 1.32 h -4.25 -1.55 v -1.32 h -0.96 v -2.6 l -0.97,-0.02 v -3.96 h 0.97 l 0.01,-1.3 0.95,-0.02 v -1.3 h 0.96 l 0.01,-2.64 h 0.97 v -1.32 h 0.93 2.93 v -1.32 h -0.97 v -1.3 h 0.97 v -1.32 h 1.94 v -1.32 h 0.96 l 0.01,-1.32 1.93,-0.02 v -2.6 l 1.93,-0.02 0.02,-2.62 1.91,-0.02 v -1.32 l 3.88,0.02 v -1.32 h 1.92 v -1.32 h 2.91 v -1.32 l 2.9,0.02 -0.01,-1.34 h 2.91 v 1.32 l 0.96,0.02 0.02,1.3 h 0.95 v 2.64 h 0.96 v 1.3 h 0.97 v 2.64 l 0.98,0.02 -0.01,1.3 h 1.93 v 1.3 h 1.94 v 1.34 h 4.83 v 1.32 h 2.9 v 1.32 h 0.97 l -0.01,1.3 h 0.97 l 0.02,1.32 h 1.92 l -0.01,1.32 h 0.97 v 1.32 h 2.9 l -0.01,1.32 1.95,0.02 -0.01,1.28 2.91,0.02 v 1.3 h 4.83 v -1.3 h 0.97 v 1.3 h 0.96 v 1.32 h 2.9 l 0.01,2.64 h 1.93 v 1.3 h 1.93 v 1.32 h 0.97 v 1.32 h 6.75 l 0.01,-1.32 h 1.94 v 1.32 H 556 l 0.01,-1.32 h 0.97 v -1.32 h 2.9 v -1.3 h 3.87 v -1.32 h 5.81 v 1.32 l 2.9,0.02 -0.01,1.3 h 1.93 v 14.48 h 0.97 v 1.28 h 0.97 v 1.32 l 2.9,0.02 v 1.32 h 0.97 v 2.64 h 0.97 l -0.01,1.3 h 1.93 l 0.01,2.64 h 2.9 l -0.01,1.32 h 0.97 v 6.59 l 0.97,-0.01 v 1.31 l 0.96,-0.01 v 1.32 h 2.9 v -1.32 l 1.94,0.01 v -1.31 h 2.9 v -1.32 h 0.97 v 1.32 l 2.89,0.01 v 1.3 h 2.9 v 1.32 h 1.94 v -2.63 h 1.93 v -1.32 h 1.93 v -1.32 h 4.69 1.12 v 0.39 0.93 h 1.93 v 1.32 l 0.96,0.01 v 1.3 h 0.97 v 1.31 h 0.98 v 1.32 h 3.86 v -1.31 l 1.92,-0.01 v -1.32 l 4.84,0.01 v 1.31 l 0.97,0.01 v 0.94 0.37 h 0.96 l 0.01,2.62 h 0.97 v 2.64 l 0.95,0.01 0.01,1.32 h 2.9 v -1.32 h 2.89 v 1.32 h 1.95 l -0.01,1.3 h 1.93 v 1.31 l 1.94,0.01 v -1.32 h 0.97 v -1.3 h 0.95 v -1.33 h 0.98 v -1.32 l 1.93,0.01 0.01,-1.32 0.95,-0.01 0.01,-3.93 h 1.93 v -2.63 h 0.97 v -0.87 -1.77 h 0.97 v -1.31 h 1.2 0.72 v -1.31 h 1.94 v -1.32 h 0.96 l 0.01,-4 v -14.44 h 0.96 v -9.18 l -0.96,-0.02 v -1.32 h -0.96 l -0.01,-1.32 h -0.97 l 0.01,-1.32 h -1.94 l -0.01,-7.9 h -0.95 v -1.3 h 0.95 v -5.3 h 0.97 v -5.26 l 0.97,0.02 v -3.94 h 0.97 v -3.96 h 0.96 v -2.64 h 0.52 0.45 v -2.1 -1.84 h 0.58 0.39 v -1.21 -1.45 h 0.45 l 1.48,0.02 v -1.3 h 0.96 l 0.01,-2.64 h 1.94 v -1.32 h 0.97 v -2.63 h 0.94 v -1.32 h 1.96 v -1.32 h 0.96 v -1.31 h 1.93 v -2.64 h 1.94 v -1.31 h 0.96 v -1.32 h 1.94 l -0.01,1.32 h 1.94 v 1.31 h 0.97 v 2.64 h 1.93 v 1.3 l 2.9,0.01 v -1.31 l 0.96,-0.02 -0.01,-3.93 h -0.96 v -2.64 h -0.95 v -1.32 h 0.96 v -1.32 h 0.96 v -2.64 l 0.97,0.02 v -1.32 h 1.93 v -1.32 h 0.95 l 0.01,-1.32 h 0.98 v -1.32 h 4.84 v -1.3 h 6.75 l 0.01,-1.32 10.63,0.02 v 1.3 h 0.97 v -1.32 h 6.77 v 1.32 l 4.83,0.02 v 1.28 h 2.89 l 0.01,1.32 h 0.97 v 1.32 l 1.93,0.02 v 1.3 h 0.97 v 3.94 h 0.97 v 1.32 l 0.96,0.02 v 1.3 h -0.97 v 1.31 l -1.92,0.01 -0.01,1.32 h -0.97 v 1.31 h -0.96 v 5.27 h 0.96 v 1.32 h 0.98 l -0.01,2.63 h 0.97 l 0.02,1.32 h 1.91 v 1.32 h 1.94 l -0.01,1.32 h 0.97 v 1.28 l 0.96,0.02 v 2.64 h 0.98 v 9.2 l -0.98,0.02 v 1.3 l 0.98,0.02 v 5.24 l -0.98,0.02 v 1.32 h 0.98 v 2.6 h 0.97 l -0.01,2.66 h 0.97 v 2.64 h -0.97 v 7.88 h -0.96 v 3.96 l 0.96,0.02 v 7.88 h 0.97 v 1.32 h 0.96 v 1.3 l 0.97,0.02 0.01,1.3 0.95,0.02 v 6.56 l 0.98,-0.02 0.01,3.98 h 0.95 v 2.6 l 0.97,0.02 v 2.64 h 0.96 v 2.64 l 0.97,0.01 v 1.3 h 1.93 v 2.63 h 0.97 v 2.62 h 1.94 v 3.95 h 0.96 v 1.32 h 5.8 v -1.32 h 2.89 l 0.01,-1.31 h 2.9 l 0.01,-1.31 1.93,-0.01 v -1.32 l 0.96,0.01 v -1.31 h 0.97 v -2.64 h 0.97 v -2.32 -5.58 l 0.96,-0.02 v -1.28 h 0.96 v -1.32 h 0.97 v -1.32 h 0.98 v -1.32 h 0.96 l 0.01,-1.32 1.46,-0.02 h 0.46 v -0.89 -0.39 h 0.97 v -1.32 h 1.92 v -1.34 h 0.97 v -1.32 l 0.98,0.02 v -1.32 h 0.96 l -0.07,-6.58 -0.89,0.02 -0.01,-2.64 h -0.96 v -7.9 l -0.98,0.02 0.01,-2.66 h -0.95 l -0.01,-1.32 h -0.97 v -1.32 l -0.97,-0.02 -0.01,-6.56 h -0.96 v -1.32 h -0.95 l -0.01,-1.3 h -0.96 v -1.32 l -1.95,-0.02 v -1.3 h -0.95 v -1.32 h -0.97 v -7.9 h -0.97 v -3.94 l -0.97,0.01 v -1.33 h -1.93 v -1.32 h -0.97 v -2.62 h -0.96 v -9.84 -3.34 l -0.98,0.01 v -3.96 h -0.96 v -1.32 h -0.96 v -1.3 l -0.71,-0.02 h -0.26 v -0.74 l -0.21,-0.56 -0.76,-0.02 v -1.3 h -0.97 v -1.32 h -0.97 v -4.79 l -0.16,-0.47 -1.77,0.02 v -2.66 h 0.98 v -1.32 h 0.95 v -2.62 h 1.94 v -1.32 h 0.97 v -1.32 h 4.83 v -1.32 h 4.84 v -1.32 h 5.79 v 1.3 l 3.86,0.02 0.01,1.32 h 2.91 l -0.01,1.32 h 0.97 v 1.32 h 0.96 v 1.28 h 1.94 v 1.34 h 1.93 v 1.32 h 1.93 v -3.94 h 0.97 v -1.32 h 1.94 l -0.01,1.34 0.96,-0.02 v -1.32 h 4.84 v 2.6 h 1.95 v 1.34 h 0.96 v 1.32 h 0.96 v 2.64 h 1.93 v -1.32 h 0.96 l 0.01,-2.64 h 0.96 v -1.32 l -0.96,-0.02 v -9.18 h 0.96 v -2.66 l 2.91,0.02 0.01,-1.32 6.76,-0.02 v 1.32 h 1.94 l -0.01,1.34 h 2.9 v -1.32 h 4.84 v -1.32 h 1.93 v -1.32 h 1.93 l 0.01,-1.3 h 11.59 v 1.3 h 3.87 l -0.01,1.3 0.97,0.02 v 2.62 l 6.76,0.02 0.02,1.32 h 0.96 v 1.28 h 2.91 v 1.32 l 1.92,0.02 v 1.3 h 1.94 v 1.34 h 3.86 v 1.32 h 1.94 v 1.32 l 2.9,0.02 v 1.28 h 0.96 l 0.01,1.32 h 0.96 v 1.32 h 2.9 v -1.32 h 0.95 v -1.34 l 5.82,0.02 v 1.32 h 2.89 l 0.01,1.32 h 1.92 v 1.32 h 1.94 l 0.02,1.32 h 0.95 v 2.62 h 0.96 v 2.64 l 0.97,0.02 v 2.62 l 0.98,-0.02 V 557 l -0.98,-0.02 v 2.64 h -0.97 v 2.63 h -0.96 v 10.54 h -0.97 v 2.64 h -0.97 v 6.58 h 0.97 v 1.32 h 5.79 l 0.01,6.56 -1.92,0.02 -0.01,5.26 h 0.96 v 1.32 h 0.97 v 1.3 h -0.97 v 1.32 h -0.96 v 1.32 h 0.95 l 0.01,1.32 h 2.9 v -1.32 h 4.83 l 0.02,3.96 h -0.97 v 1.28 l -0.98,0.02 v 1.32 h -0.97 v 1.32 h 0.97 v 1.32 h 0.98 v 1.32 h 1.93 v 1.3 l 0.96,0.02 v 1.3 h 0.97 v 1.32 h 0.97 v 1.32 h 0.96 v 1.32 h 1.94 v 1.32 l 0.97,-0.02 v 1.32 h 1.93 l -0.02,1.32 0.98,0.02 v 1.3 l 0.97,0.02 v 1.3 l 0.97,-0.02 v 1.32 l 1.91,0.02 0.01,2.64 1.95,-0.02 v 2.64 l 0.97,-0.02 v 1.34 h 2.89 v 1.32 h 0.96 v 1.3 l 0.98,-0.02 -0.01,6.58 -0.96,0.02 -0.01,9.22 h 0.97 v 1.32 h 0.97 v 1.3 l 0.96,0.01 v 1.31 h 1.95 v 2.63 h 0.95 v 3.96 h -0.96 v 3.94 h -0.97 v 1.32 h -0.97 v 1.32 h -0.96 l -0.01,1.32 h -0.96 v 1.3 h -0.97 v 2.64 h -0.96 v 1.32 h -0.97 l -0.01,2.64 0.98,0.02 v 1.28 h 0.97 l -0.01,1.32 h 1.94 l -0.01,1.34 8.7,-0.02 0.01,-1.32 h 6.77 v -1.32 h 0.96 v 1.32 h 0.96 v -1.32 h 0.97 v -1.3 h 0.97 v 1.3 h 0.97 v 1.32 h 1.94 l -0.01,6.58 h 1.95 l -0.01,1.32 h 0.97 v 1.32 h 1.93 v 7.88 h -0.98 v 1.33 h -1.92 v 1.31 h -0.97 v 1.31 h -0.97 v 1.31 l -4.83,0.01 -0.01,1.32 h -0.96 v 1.32 h 0.97 v 2.6 l 0.96,0.02 v 1.32 h 0.98 l -0.01,1.32 h 0.97 v 1.32 h 1.94 v 1.32 l 1.93,0.02 v 1.28 h 1.93 v 1.32 h 4.83 v 1.32 l 1.94,0.02 -0.01,3.94 h 0.97 l 0.02,1.3 h 0.95 v 2.64 h -0.97 v 1.31 h -1.17 -3.66 v 2.62 h -0.97 v 1.32 l 0.98,-0.01 v 3.97 h 0.96 v 2.6 l 0.96,0.02 v 1.32 h 1.94 l -0.01,1.32 h 0.97 v 1.32 h 0.97 v 1.32 l 0.97,0.02 v 1.28 h 2.89 l 0.01,1.32 h 1.93 v 1.32 h 0.97 v 1.32 h 0.96 v 1.31 h 0.97 v 1.31 l 0.97,0.01 v 1.3 h 0.96 v 1.32 l 0.97,0.02 v 1.3 h 1.93 v 1.32 h 0.97 v -1.32 h 0.96 v 1.32 l 0.98,-0.02 v 1.32 l 0.95,0.02 v 1.3 l 0.98,0.02 v 1.3 l 1.93,0.02 v 1.3 h 0.96 v 1.3 h 1.94 v 1.34 h 0.98 l -0.02,1.32 h 0.97 v -1.32 h 1.94 v 1.32 h 2.88 v -1.32 h 1.95 v -1.34 l 0.97,0.02 v -1.32 h 1.93 v -1.32 h 0.97 v 1.32 l 0.97,-0.02 v 1.32 l 3.86,0.02 v 1.32 h 3.87 v 1.32 h 4.83 v 1.28 l 3.86,0.02 v 1.3 h 1.95 v 6.59 h 0.96 v 2.64 h 2.9 v 1.32 h 2.9 v 1.32 l 1.94,-0.02 v 1.32 h 3.86 v 1.32 h 0.97 v -1.32 h 0.96 v -1.32 l 0.96,0.02 v -1.32 h 0.97 v -1.32 h 1.93 l 0.01,-2.64 h 0.96 v -1.33 h 0.97 v -1.29 h 0.97 v -1.32 h 1.92 v -2.65 h 0.98 v -1.32 h 2.89 l 0.01,-1.28 h 5.8 v -1.32 h 1.93 l 0.01,-1.32 0.96,-0.02 v -1.32 l 4.83,0.02 v -1.32 h 0.97 v 1.32 l 1.94,-0.02 v 0.4 0.92 h 5.78 v -0.61 -0.71 l 0.98,0.02 v -1.32 h 2.89 l 0.01,-2.62 0.96,-0.02 v -1.32 l 0.97,0.02 v -1.32 h 1.93 v -1.32 h 1.93 l 0.01,-1.32 h 1.93 v 1.32 h 1.94 l -0.01,1.34 0.97,-0.02 v 2.64 h 1.93 l 0.02,1.3 h 0.94 v -1.32 l 1.95,0.02 v -1.32 h 1.93 v 1.3 l 0.96,0.02 v 2.62 l 0.97,0.02 v 1.3 l 0.98,-0.02 v 1.95 5.97 h 1.93 l -0.01,1.31 h 1.94 v 2.62 l 0.97,-0.01 v 2.65 h 1.92 v 1.32 h 0.97 v 1.32 l 0.97,0.02 v 1.3 l 0.98,-0.02 v 1.32 h 0.95 v 1.32 h 1.94 l -0.01,2.64 h 1.94 v 1.3 h 1.93 v 1.32 h 0.97 v 2.63 h 0.97 v 2.64 h 0.96 l 0.01,1.32 h 5.79 v 1.3 h 7.74 v -1.3 h 1.93 v -1.32 l 2.9,-0.02 v -1.32 l 0.97,0.02 v -1.32 h 0.96 v -2.63 h 1.93 v -1.32 l 0.98,0.01 v -1.31 h 1.92 v -1.32 h 0.96 l 0.01,-1.32 h 0.97 v -1.32 h 1.93 v -1.3 h 1.94 v -1.32 h 0.97 v -1.32 h 0.96 v -1.32 h 2.9 v -1.32 h 4.83 v -1.33 l 1.93,0.01 v -1.3 h 0.97 v -1.32 h 0.96 v -2.65 h 0.98 v -2.6 h 0.96 l 0.01,-2.41 v -1.55 l 0.68,-0.02 h 0.27 v -0.63 -3.31 l 0.98,0.02 v -3.96 h 0.96 l 0.01,-1.32 h 0.96 v -1.3 l 0.97,-0.01 v -1.31 h 0.76 1.17 v -1.31 h 0.97 v -1.32 h 0.97 v -4.86 -6.98 h 0.96 v -5.28 h -0.96 v -2.62 h -0.97 v -1.31 h -0.97 v -2.64 l -0.97,0.02 v -2.64 h -0.96 v -3.96 h 0.96 v -6.58 h 0.97 l -0.01,-1.34 0.98,0.02 v -1.3 h 0.97 v -1.32 l -0.97,-0.05 v -1.27 h -0.97 v -1.32 h -0.97 v -2.63 h -0.96 v -2.63 h -0.97 v -1.31 h -2.9 l -0.01,-1.32 h -0.96 l 0.01,-2.64 h -0.97 v -1.3 l -1.94,-0.02 v -1.3 h -0.97 v -2.64 h 0.97 v -1.32 h 0.96 v -1.32 l 0.98,0.02 v -2.64 h 0.96 v -1.32 h 0.96 v -1.32 h 0.98 v -2.62 h 0.96 l 0.01,-1.32 h 0.96 v -1.32 h -0.96 l -0.01,-2.66 0.97,0.02 v -1.3 h 0.6 0.37 v -7.9 h -1.45 l -4.35,-0.01 v -1.31 h -3.86 v -1.32 h -0.98 v -1.32 l -0.97,0.02 v -1.33 h -0.97 l -0.01,-1.31 h -0.94 v -1.32 h -1.94 v -1.31 l -5.81,0.01 0.01,-1.33 h -0.97 v -1.32 H 1137 v -1.31 h -0.97 v -1.31 h -1.92 l -0.02,-1.32 h -0.96 v -2.64 h -0.96 v -1.32 l -0.98,-0.02 v -4.72 -0.52 l -0.69,-0.02 -0.27,-0.2 -0.02,-1.1 -1.42,-0.02 h -2.43 l -0.01,-1.28 h -3.85 l -0.01,-2.97 v -0.99 l -0.96,-0.02 v -3.92 h -0.96 v -1.34 l -0.98,0.02 v -1.32 h -3.86 v 1.32 h -0.97 v 1.3 h -2.9 l 0.01,-1.3 h -0.97 v -2.64 l -0.97,0.02 v -1.34 h -0.98 v -1.3 h -7.72 v 1.3 h -0.69 -1.24 v 1.32 h -0.97 v 1.32 h -0.97 v 1.32 h -1.93 v 1.32 h -1.93 v -1.32 h -0.97 v -1.32 h -0.96 v -1.32 h -2.91 v 1.32 h -3.86 v -1.32 h -3.87 l 0.01,-1.32 h -1.95 l -0.01,-1.3 -0.96,-0.02 v -5.26 h 0.96 v -1.32 h -0.96 v -1.56 -1.06 h -1.07 -0.85 v 1.32 h -0.97 v 1.3 h -0.97 l -0.01,1.32 h -0.95 l -0.01,-1.32 h -2.9 v -1.28 l -0.96,-0.02 v -1.32 h -0.97 v -1.32 h -0.97 v -2.64 l -0.96,-0.02 v -1.28 h -0.98 l 0.01,-1.32 h -0.97 v -1.32 h -0.97 l 0.01,-2.64 h -0.97 v -1.3 l 0.96,-0.02 v -1.3 h 0.97 l 0.01,-1.32 1.52,-0.02 h 0.41 v -1.32 l 0.96,0.02 v -1.32 h 0.97 v -1.32 h 3.87 v -1.3 l 1.92,-0.02 v -1.32 l 0.98,0.02 v -1.32 h 0.97 v -2.64 h -0.97 v -1.3 l -3.36,-0.02 h -0.51 v -1.29 l -1.93,-0.01 -0.01,-3.96 h 0.97 v -1.34 l 1.94,0.02 v -1.3 h 2.89 l 0.01,-1.32 h 1.93 v -1.32 h 0.96 l -0.04,-3.95 -0.92,-0.01 v -1.31 h -1.93 l -0.01,-1.32 h -5.79 l -0.01,1.32 h -1.93 v 1.31 l -2.8,0.01 -0.1,1.31 h -1.93 v 1.3 h -0.97 v 1.34 h -0.96 l -0.01,1.32 h -1.92 v -1.32 h -0.98 v -1.32 l -0.96,-0.02 v -1.3 h -0.97 l 0.01,-1.31 -0.97,-0.01 v -1.31 h -0.96 l -0.01,-1.32 -0.97,-0.01 v -1.3 l -0.96,-0.02 v -1.3 h -0.97 l 0.01,-3.95 H 1050 v -2.64 h -0.97 v -1.32 h -6.77 l 0.01,-1.3 h -12.57 v -1.32 h -4.84 v -1.32 h -2.9 v -1.32 l -3.87,0.02 v -1.34 h -1.4 -7.3 v 1.32 h -1.92 v 1.32 h -11.61 l -0.01,-1.3 -0.96,-0.02 v 1.32 h -0.96 v -2.64 h 0.96 v -5.26 h -0.96 v -1.32 h 0.96 v -1.32 h 1.94 v -1.3 h 1.85 l 0.08,-1.32 h 0.96 l 0.01,-1.32 h 5.8 l -0.01,-1.34 h 4.84 v -1.32 l 1.93,0.02 0.01,-1.32 2.9,-0.02 v -1.28 h 8.69 v -1.32 h 0.97 v -5.26 h 0.97 l -0.01,-1.34 h 2.92 l -0.01,1.32 2.89,0.02 v 2.6 h 0.97 v 1.32 l 1.93,0.02 0.01,1.3 h 5.8 v -1.32 h 0.97 l -0.01,1.32 10.64,0.02 v -1.34 h 4.82 V 528 l 5.81,0.02 v -1.32 h 0.96 v -4.29 -10.2 h 0.97 v -1.3 h 0.96 v -10.56 l 3.87,0.02 0.01,1.32 h 2.9 v 1.32 h 0.96 v 1.3 h 0.96 l 0.01,1.3 0.96,0.02 0.01,3.96 h 2.89 v 1.32 h 4.18 2.6 v -1.32 h 6.76 v -1.32 h 0.97 v -1.32 h 0.97 v -1.32 h 0.97 v -2.62 h 0.95 v -1.07 -5.51 h 0.97 v -3.96 h 0.97 v -1.32 h 1.94 v 1.32 h 4.03 z"
         id="path2" />
    </g>
  </g>
</svg>
