<?xml version="1.0" encoding="utf-8"?><svg xmlns="http://www.w3.org/2000/svg" version="1.1" baseProfile="tiny" width="1200" height="800" viewBox="0 0 1200 800"><g><g stroke="#000000" stroke-width=".98" fill="#000000"><path d="m1106.06 492.47l0-2.64.97 0 0-1.92 0-5.97.97 0 0-1.32 2.9 0 0 1.32.97-.02 0 0 0 1.32 1.93 0-.01 1.32 4.84 0 0-1.32 2.89 0 .01-1.3 1.93 0 0-1.32 3.87 0 0-1.32 6.76 0 0-1.32 5.8 0 0-1.32 5.81 0 0-1.32 3.86 0 0 1.32 5.81 0 0-1.32 2.9-.02-.01-1.28.97 0 0-1.32.97 0 0-3.97.96-.01 0-1.07 0-1.54.97 0-.01-2.64-.96 0 0-2.64.96 0 .01-2.64.97 0 0-3.94-.97 0-.01-19.75-.96-.02 0-1.3-.96 0 0-1.32-.96 0 0-2.65-.97 0-.01-5.24-.96 0 0-3.96-.97 0 0-5.27-.96 0 0-9.22 1.55-.02.37 0 0-1.32 2.91.02 0-1.32.96-.02 0-1.29.97 0 0-5.28-.97.02 0-1.32-.96 0 0 1.3-1.93 0 0 1.32-3.87 0 0 1.3-4.84 0 0-3.92-.96 0 0-3.96-.97.02-.01-3.96-.95 0 0-3.97.95 0 .01-1.32 3.87 0 0-1.3.83 0 2.07 0 0-1.32 6.76 0 0-1.32.97 0 0-1.32 1.94 0 0-1.32.95-.02 0-2.61.97 0 0-1.32.97 0 0-1.34 1.94.02.01-1.32.95-.02 0-2.6.96 0 0-11.87-.96 0 0-1.32-.95 0-.01-9.21-.97 0 .01-1.32-1.95 0 0-1.32-1.92 0 0-1.32-2.91 0 0-1.33-5.79 0 0 1.33-1.94-.02-.01-1.31-.96-.01 0-1.29-.96 0 0-5.28-.96 0 0-2.63-.98 0 0-2.64-.96 0 0-1.32-.97.02-.01-1.34-.4 0-1.52 0 0-1.3-.97-.02 0-3.95.97 0 0-1.32.97 0 0-3.94.95 0 .01-2.64-.96 0 0-1.34-.67.02-.3 0 0-4.47 0-7.39.97 0 0-7.91 1.92 0 0-1.31.97 0 0-1.33 1.94 0 0-1.3.96 0 0-1.32.96 0 0-1.32.98 0 0-1.32.97 0 0-3.95-.97 0 0-1.32-4.84 0 0 1.32-.97 0 0 3.95-1.92 0 0 1.32-1.94 0 0 1.32-.44 0-1.48 0-.01-1.32-.97 0 0-1.32-.96 0 0-3.95.96 0 0-2.64.97 0 0-2.62.95 0 .01-1.29 0-2.7.97-.16 0-2.46.97 0 0-.4 0-2.23.97 0 0-.34 0-.97.53 0 3.34 0 0-2.65.96 0 0-2.62-.96 0 0-2.64-.98.01 0-4.63 0-3.29.56 0 .42 0 0-2.45 0-1.5.25 0 .71 0 0-4.16.01-3.75.95-.02 0-.65 0-1.99.66 0 .3 0 0-.92 0-1.71.57.02.41 0 0-1.23 0-2.73.97-.18 0-2.47.95-.16 0-1.16.46 0 1.49.02 0-1.32.96 0 0-1.32.97 0 0-1.32.96 0 0-1.32.97 0 0-1.31.97 0 0-1.32.97 0 0-3.96.95-.02.01-2.61.96 0 0-8.51 0-2.04.97 0 0-.38 0-2.27.97-.07 0-1.23.46 0 .51 0 0-1.25 0-2.71.96 0 0-1.32.65 0 .32 0 0-.8 0-1.83.97 0 0-.6 0-2.04.97-.17 0-1.15.55 0 .4 0 0-.84 0-.5.97 0 0-1.29 1.94 0 0-1.32.97 0 0-1.32.96 0 .01-1.32.95-.02 0-2.61.98 0 0-3.96.96 0 0-3.95 2.9 0 0-2.64.97 0 0-4.66 0-1.93 1.11 0 .83 0 0 1.32 3.86 0 0-1.32.97 0-.01-5.25-.96-.02.06-1.33.9 0 0-1.32.98 0 0-1.32.96 0 0-4.36 0-2.23.56 0 .41 0 0-1.63 0-6.28-.97 0 0-1.33-.96.02 0-1.32-1.94 0-.01-1.32-1.92 0 0-1.32-.97.02 0-2.66-.97 0 .01-1.33-.97 0 0-1.28-3.86-.02 0-1.32-2.92.02.01-1.34-1.92 0-.01-1.33-2.91 0 0-2.62-.97.02 0-3.99-.95 0 .01-1.32-.98-.01 0-1.31-.97-.02-.01-2.6-1.92 0 0-1.33-.97 0 0 1.33-3.86 0 0-1.33-.97 0 0-1.32-.97-.02 0-5.27.97 0 0-2.62.97 0 0-1.74 0-.89-.97 0 0-2.64-.97.02 0-1.35-1.93 0 0-1.32-2.9 0 0-1.3-6.76 0 0-1.32-4.51 0-6.14.01.01-1.34-1.94 0 0-1.32-1.93 0 0 1.32-7.74 0 0-1.32-1.93 0-.01-1.32-.95 0 0-1.32-.97 0 0-1.31-1.93 0 0-1.32-.98 0 .01-1.32-.96 0 0-1.34-.98.02 0-1.32-3.86 0 0-1.31-.97 0 0-3.96-.96-.02-.01-2.63-.98 0 0-5.27.98 0 0-1.32-.98 0 .01-4.48.01-.79 1.93 0 0-1.32 1.95 0-.01 1.32.96 0 0-5.27-.96 0 0-2.64 1.93-.02 0-1.33 1.94 0 0 1.33.96.02 0-1.33 2.9 0 0-1.3.97 0 0-2.65-.97 0 0-3.96-.97.02 0-1.33-7.73 0 0 1.31-3.87 0 0 1.32-5.58 0-1.18 0 0-1.32-1.94 0 .01-1.31-2.9-.01-.02-1.31-.95 0 0-1.32-.97 0 0-1.3-.97-.02 0-1.33-.96 0-.02-1.3-1.91 0 0-1.32-.97 0 0-1.32-.97.01 0-11.88.97 0 0-1.32-1.95 0 .02-1.33-1.94 0 .01-1.32-2.91 0 0-1.32-5.8 0 0 1.32-1.94-.01 0 1.33-.97 0 0 2.65-.96 0 0-1.32-3.87 0 0 1.32-.96 0 0 1.31-.97 0 0 1.32-1.93 0-.01 1.32-1.67 0-.25 0 0 .36 0 .96-.65 0-.32 0 0 .48 0 3.47-.97 0-.01 1.32-.96 0 0 1.33-.96 0 0 1.32-.97 0 0 1.32-.97-.02 0 2.65-.96 0 0 1.32-.97 0 0 1.3-2.59 0-.32 0 0 .51 0 .83-.52 0-.44 0 0 .71 0 .6-.37 0-.59 0 0 .92 0 1.72-.97 0 .01 3.97-.98 0 0 1.28-.97.02 0 5.29-.96 0 0 5.27.97 0 0 2.65-.97 0 0 3.95.97 0 0 1.3.96.02 0 2.62-2.89 0 0 1.33-.97 0 0 1.32-5.81 0 .01 1.32-2.91 0 0 1.3-1.91.02-.02 2.63-1.93 0 0 3.96-3.87 0 0 1.32-2.89 0 0 1.31-1.58 0-.36 0 0 .58 0 .72-.46.02-.51 0 0 .82 0 1.82-.96 0-.01 1.33-.96 0 .01 1.34-.98-.02 0 1.3-.69 0-1.24 0 0 2.01 0 .64-.39 0-1.54 0 0 1.32-.97 0 0 2.73 0 1.22.97 0 0 3.96-.97 0 0 1.31-.97.02 0 1.3-3.83 0-1 0 0 1.32-.96 0 0 1.87 0 2.1-.97 0 0 2.62-1.66 0-.28 0 0 .58 0 .73-.32 0-.64.01.11.75-.05.63-.06.62-.03.37-.11 1.13 0 0 .11-1.13.03-.37.05-.62-1.99-.06 0 1.33-1.93 0 0 1.32 1.93.02 0 1.28-.96 0 0 1.32-.97 0 0 3.99.97-.02 0 5.27.96.02 0 2.62.98-.01 0 1.31.96 0 0 3.95.96.02 0 2.63-.96 0 0 5.29-.96 0 0 1.32-2.91 0 0-1.32-1.93 0 0 1.32-3.87 0 0 1.3-.96 0 0 5.29.97.02-.01 5.25-.96 0 0 7.91-.97 0 0 2.62-.97 0 0 1.33-.96 0 0 1.3-1.94.02 0 2.64-1.93 0-.01 1.32-.95 0 0 1.3-.97 0 0 2.65-.97 0 0 1.32-.97 0-.01 1.32-2.89 0 0 1.29-2.89.02-.01 2.64.96 0 0 3.94.97.02 0 1.31 2.91 0-.01 1.32.97 0-.01 1.34 1.95-.02 0 2.64.97-.02 0 3.99-1.94-.02 0 1.32-.97 0 0-1.32-3.83 0-6.81 0 0-1.32-1.93 0 0 1.32-.96 0 0 1.32-1.94 0 0 7.91-.96 0 0 3.93-.98.02 0 2.64-.96 0 0 5.27-.97 0 0 1.32-.96 0 0 1.32-.96 0 0 1.32.96-.02 0 2.4.96.25 0 2.64.99-.02-.02 1.32-.96.02-.01 2.62-4.83 0 0-1.3-.96-.02 0-.81 0-4.45-.97 0 0-1.33-.95 0-.02-1.3-.97 0 .01-1.3-.97-.02 0-1.32-.97 0 0 1.32-.96 0 0 1.32-2.9 0 0 1.3-2.9 0 0 1.33-1.94 0 0 2.62-.96.02 0 1.32-.97 0 0 2.62-.97 0 0 2.65-.97 0 0 2.64-.95 0-.02 7.91-1.92 0 0 4.42 0 2.17-.97 0 0 2.62-.97 0-.01 1.33-.96 0 0 1.32-2.89 0-.01-1.32-.97 0 0 1.32-.96 0 0 1.32-.96 0 0 1.32-.97 0 0 3.95.98-.02-.01 1.32-.97.01 0 3.95-1.94 0 0 1.32-.96 0 0 1.32-3.87 0 0 1.32-4.82 0-.01-1.33-5.8 0 0-1.31-11.83 0-2.4 5.64 2.4-5.64-2.68 0 0 1.3-.94.02-.02 3.95-.97 0 0 1.32-.96 0 0 2.64-.97 0 0 2.61-.97 0 0 6.6-.95.02-.01 5.27.96 0 0 1.3 3.87.02.02 1.3 2.89 0 0 1.32 1.93 0 0 1.31 2.9 0 0 1.32.96.01.02 1.33 1.92 0-.01 1.3-.96 0 0 2.64-.97 0 0 2.64-.96 0 0 1.32-3.88 0 .01-1.32-10.64 0 0 1.32-.96 0 0 2.63.96 0 0 1.32.97 0 0 1.32.97 0 0 2.62.96.02 0 1.3.97 0 0 1.33.97 0 0 3.94-.97.02 0 3.94.97.02 0 1.3 1.93 0 0 1.32 1.93 0 0 1.31.98.02 0 1.3 1.93 0 0 2.64-.98 0 0 3.94-.95 0 0 1.33-.98 0 0 3.96-.97 0 0 1.28-.94.02-.02 1.32-.97 0 0 1.32-3.86 0 0 1.32-1.94 0 0 4.56 0 3.33-.97.02.01 1.3-4.84 0 .01-1.3-.97 0 0 1.32-5.06 0-3.64 0 0 1.3-.97 0 0 .42 0 .92-.97-.02 0 1.33-2.89 0 0 1.32-1.94 0 0 1.3-9.66.02-.01 1.32-4.84 0 0 1.3-1.92 0 0 1.32-3.87 0 0 1.32-1.94-.02-.01-1.3-3.85 0 0 1.3-4.84.02 0 1.32-.96 0 0-1.32-5.79 0 0-1.32-2.91 0 0-1.32-.96 0 0-1.3-.97 0 0-1.32-2.9 0 0-1.34-2.9 0-.02-1.3-3.85 0 0-1.33-1.93 0 0-2.62-.97 0 0-3.96-.97 0 0-1.32-.97 0 0-1.3-1.93 0 0-1.33-1.94.02 0-1.34-.96 0 .01-1.32-.97 0 0-2.66-.97.02-.14-1.3-.83 0 0-.82 0-.5-.51 0-4.33 0 0 1.32-2.89 0 0 1.3-2.9 0 0 1.32-3.87 0-.01-1.32-2.89 0 0 1.32-.97 0 0-1.32-.96 0 0-1.3-1.93 0 0 1.28-.97.02-.01-1.3-.96 0 0-2.64-.95 0 0-1.34-3.87.02-.01 1.32-1.93 0-.01-1.32-5.79 0-.02-1.33-.95 0 0-1.3-2.91 0 0-1.32-2.89 0 0 1.32-.97 0 0 1.29-.98.01.01 1.31-1.92.02 0 1.32-2.91 0-.02-1.32-1.91-.02 0-1.31-.97-.01 0-1.29-.97 0 0-1.32-.96 0 .01-1.32.95-.02 0-1.32.97.02 0-6.59-.97.02 0-12.45 0-2.06 1.94 0 0-1.32.96 0 0-2.63.96 0 0-1.32 5.81 0 0 1.32 8.7 0 0-1.32.97 0 0 1.32 2.89 0 0-1.32.97 0 .01-1.32.97 0 0-1.32.96 0 .01-2.62.95-.02 0-5.27-.95 0-.01-3.94-.96 0 0-1.32.96 0 0-1.32 2.9.01 0 1.31 3.87 0 0 1.32 1.93 0 0 1.32 3.88-.02 0 1.32.95 0 0 1.34.97-.02 0-1.32 1.93 0 0-1.3.97 0 0-5.29.96 0 0-1.32 2.91.02 0-1.32 1.92 0 .01 1.32.96-.02 0 2.54-.96.11 0 .81-.01.51-.53 0-1.39 0 0 2.64-.97 0 0 2.62-.97 0 0 1.32-.97 0 .01 1.31 4.82 0 0-1.32 3.88.01 0-1.32 1.93 0 0-1.32.96 0 0-2.62.98 0 0-1.32.96 0 0-1.32.97 0 0-1.33.96 0 0-1.3.97 0 0-1.32 1.93 0 0-4.43 0-6.12-.97 0-.01-1.32-1.91-.02-.01-1.28-.96-.04 0-1.29-1.94 0-.02-1.32-.95 0 .01-1.32-.97 0 0-1.32-1.93 0-.01 1.32-6.76 0 0-1.32-2.9 0 0-1.32-.97 0 .01-1.3-.98 0 0 1.3-4.83 0 0 1.32-2.9 0 0 1.32-5.8 0 0 1.3-14.5 0-.01-1.3-4.83 0 0-1.32-.95 0 0-1.32-.98.02 0-1.32-.97 0 0-1.33-.96-.01-.01-1.31-1.92 0 0-1.32-.97 0 0-1.32-1.92 0-.01-1.3-.97 0 0-3.97-.78 0-1.16.02.01-1.34-1.94 0 0 1.32-1.92 0 0 .67 0 .66-5.01 0-7.57 0 0 .99-2.49.33-1.38 0 0 1.32-6.76 0-.01 1.3-2.89 0 0 1.32-11.6 0 0 1.32-5.8 0 0-1.32-14.5 0 0 1.32-3.87-.01 0 1.33-8.7-.01-.01-1.31-1.92 0 0-1.3-.96-.02 0-1.32-.98.02.01-1.32-1.93 0 0-1.32-1.94 0 0-1.32-.68.01-.3-.09.02-1.25-1.94 0 0-1.32-.96 0-.01-1.32-1.93 0 0-1.3-.97 0 0-1.32-.97 0 .01-1.32-.98 0 0-1.33-.97 0 0-1.32-2.89 0 0-1.3-2.9 0 0-1.32-4.83 0 0 1.32-7.72 0-.01-1.32-10.64 0 0 1.32-.28 0-2.62 0 .01 1.29-9.88.01-.76 0 0-1.3-.98.02.01-1.34-.96 0-.01-2.64-1.93-.02 0-1.3-2.9 0 0-1.33-.97-.01 0-1.29-.96 0-.01-1.32-11.59 0 0-1.32-4.84-.02 0-1.3-.96 0 0-1.32-.98.01 0-1.32-.96 0 0-1.32-1.92-.02 0-1.3-.97 0 0-1.3-.97-.02-.02-1.32.98 0 .01-1.32.97 0 0-1.31-.97 0-.01-1.3-.96-.02 0-2.64-.97 0 0-1.32-1.93 0 0 1.32-.98 0 .01-1.32-1.93 0 0-1.31-.97 0 0-1.32-2.9 0 .01-1.32-1.95 0 0-1.32-4.83 0 0-1.32-4.83 0 0 1.32-.97 0 0 3.96-.96 0 0 5.27-.97 0 0 1.32-2.9 0 0 1.31-.97 0 0 2.64.97 0 0 1.32 2.9-.02 0 1.32.97 0 0 1.32.96.02 0 2.63.97 0 0 1.3.96.02.01 3.93-.97.01 0 1.31.96.02 0 1.3 4.84 0 0 1.34 3.86 0 0 1.32 2.89 0 .02-1.32 3.86 0 .01-1.32 1.93-.02 0-1.32 1.93.02.01-1.33 3.86-.01 0 1.32.96.02.01 1.3.96.02 0 1.32 1.93 0 0 2.64 1.94 0 0 1.29.96.01 0 1.32.97 0 0 1.33 1.95 0-.02 1.32.97 0 0 1.32.97.02 0 1.28.97 0 0 1.32 1.92 0 .01 1.32 1.94.02 0 2.63.96-.02 0 3.96.96 0 0 2.64.96 0 0 5.25.98.02 0 1.3-.98.02 0 2.61-.94.04-.02 2.62-.96 0 0 1.32-1.94 0 0 1.32-.96 0 0 2.63-.97 0 0 1.32-.96 0 0 1.32-1.94 0-.01 1.32-.96 0 0 1.32-1.93 0 0 1.3-1.93.02-.01 1.3-5.8 0 0 1.33-13.53 0 0 1.32-2.9 0 .01 1.3-1.67.02-.27 0 0 .58 0 .72-.33 0-1.6.02-.01 1.3-.96 0 0 1.32-1.93 0 0 1.32-.97 0 0 2.65.96 0 0 1.3.96.02.02 2.6.97 0 0 1.34.96 0 0 2.64.96 0 0-1.32.97 0 0 3.95.97 0 0 1.32 1.94 0-.01 2.66.96-.02 0 1.3 1.95.04-.01 1.28 5.8 0 0 1.33.97 0 0 1.32.97.01 0 5.25-.97 0 0 2.64.97-.01 0 1.32.97 0 0 1.32.96 0 0 1.32 1.94.02 0 1.3.96-.02 0 1.32.96.02.01 2.64-.98 0 0 3.17 0 .78-.49 0-.46 0 0 .72 0 1.92-.97 0 0 1.28-.97.02-.01 1.32-1.24 0-.68 0 0 .92 0 .4-.31 0-1.63 0-.01 1.81 0 .83-1.04 0-.88 0 0 .51 0 .82-.97 0 0 1.3-2.75 0-2.09 0 0-1.3-2.89 0 0 1.3-.97 0 0-1.3-5.8-.02 0 1.32-.97 0 0 2.64-1.15 0-.78 0 0 1.32-9.67 0-.01-1.3-.95-.02 0-1.32-.97 0 0-1.32-.97 0 0-2.63-.97.02 0-1.34-.96 0-.01-1.32-2.89 0 0 1.32-.97 0 0 1.32-3.86 0 0 1.33-.97 0 0 1.3-11.6 0 0 1.32-.97 0 0-1.32-6.77 0 0 1.32-1.93 0 0 1.32-.49 0-1.44 0 0 1.3-.97.02 0 1.32-.96 0 0 1.3-.97 0-.01 1.32-.96 0 0 1.31-.95.02-.02 3.96-.96 0 0 9.19-.97.02 0 5.28-.96 0 0 1.3.96 0 0 1.32.97 0 0 1.32.96 0 0-1.32 1.93 0 0-1.32 2.92 0-.01 1.32 1.93 0 0 1.32.97.02 0 1.3.97.02-.01 6.57-.96 0 0 2.62-.97.02 0 2.33-.32.29-.64 0-.01.58 0 .74-.96 0 0 1.32-.97 0 0 1.32-.96 0 0 1.29-.98 0 0 1.34-.96 0 0 1.32-3.87-.02 0 1.34-1.93 0 0 1.32-2.9 0 0 2.62-1.94 0 0 1.32-2.89 0 0 1.32-3.86 0 0-1.32-.98 0 .01-1.32-1.93 0 0-1.3-.99.02.02-1.34-.96 0 0-.56-.01-.76-1.94 0 0-1.32-.96-.02-.01-1.3-.96 0 0-1.32-.96 0 0-1.31-5.81 0 0 2.61-.97.02 0 .87 0 7.03-.95 0 0 1.32-.97 0 0-1.32-1.94 0-.01-1.34.98.02 0-1.3.97 0 0-2.64-.97 0 0-1.32-.97-.02-.06-1.3-7.67 0 0 1.3-.98.02 0 1.32-1.92 0 0 1.32-1.94 0 0-1.32-2.89 0 0-3.96-1.94 0 0 1.3-2.9 0 0-1.3-4.83-.02 0-1.29-.43 0-1.52 0 0-1.32-.96 0 .01-1.32-.96 0 0-1.32-.97 0 0-1.32-2.9 0 0-1.3-4.84 0 0-1.32-1.93-.02-.02-1.3-.95 0 0-1.3-1.94-.02 0-2.64-.96 0 .01-1.31-7.75 0 0 1.31-1.94 0 .01-2.63-.96 0 0-1.32-.97 0 0-1.32-.97 0 0-1.32-.97 0 0-1.3-.96 0 0-1.32-.97 0 .01-1.32-.98 0 0-1.32-.97 0 0-1.32-.96-.02-.01-1.3-.95 0 0-1.31-.97 0 0-1.32-.97 0 0-1.32-1.92 0-.01-1.32-.96 0 0-1.3-.97-.02 0-1.3-1.95 0 0-1.32-1.92 0 0-1.32-.97-.02 0-1.3-1.93 0 0-1.33-.97 0 .01-1.32-1.95 0 0-2.62-.96-.02 0-2.62-.96 0 0-6.59.95 0 0-2.64-.95 0 0-2.62-.97 0 .01-1.32-1.95 0 0-1.32-1.92 0 0-1.33-.97-.01-.01-1.29-1.93 0 0-1.32-1.93 0 0-1.32-.97-.02 0-1.3-1.93 0 0-1.32-1.93 0 0-1.32-.98.02 0-1.33-.96-.01 0-2.63-.97 0 0-1.32-.96 0 0-1.32-.97 0 0-1.3-.96 0-.02-1.3-.95-.02 0-1.32-1.93.01 0-1.33-6.77 0 0 1.32-8.7 0 0 1.32-2.9 0 0 1.32-2.9 0 0 1.3-.98 0 0 1.32-3.86.02 0-1.34-1.94 0 0-1.3-1.92 0 0-1.32-.96 0 0-1.32-.98.01.01-1.33-.96 0-.01-2.63.97-.02 0-1.3 5.79 0 0-2.64-.97 0 0-1.32-1.92 0 0-1.32-1.93-.02 0-1.29-.98 0 0-1.32-2.9 0 0-1.32-4.83 0 0-1.32-3.86 0 0 1.32-.98 0 0 1.32-.96 0-.01 1.32-4.82 0 0-1.32-1.94 0 0-1.32-2.89 0 0-1.34-1.94 0 0-1.3-1.93 0 0-1.3-1.93-.02 0-1.3-2.9 0 0-1.33-2.91-.01-.01-1.31-4.82-.01 0-2.63-.96 0 0 1.32-1.94 0 0 1.32-2.9 0 0 1.32-3.87 0 0 1.33-3.86 0 0 1.3-3.87 0 0 1.32-1.94 0 0-1.32-5.79 0 0 1.32-.97 0 0 2.64.96 0 .01 2.64.96 0 0 5.27 0 2.62-3.87 0 0 1.32-1.93 0 0 1.33-7.73 0 0 1.32-2.9 0 0 1.32-2.89 0 0-1.32-.98 0 0 1.32-4.83 0 0 1.32-.97 0 0 1.3-3.86 0 0-1.3-.97 0 0-1.32-.97 0 0-1.32-.95 0-.02-2.65-.96 0 0-2.62-1.94.02 0-1.34-7.72 0 0 1.32-6.78 0 .02 1.3-11.61 0 0-1.3-2.9 0 0 1.3-.97 0 0-1.3-1.92 0-.02-1.32-15.46 0-.01 1.32-.96 0 0 1.3-5.8 0 0 1.32-4.83 0 0 1.33-.97 0 0-1.33-.96 0 0-1.32-1.94 0 0-1.3-11.6 0 0 1.3-1.93 0 0 1.32-3.87 0 0 1.33-5.8 0 0 1.33-6.76-.01-.01-1.32-1.93 0 0-3.95-.97.02 0-2.66-1.93-.15 0-1.17-3.87 0 0 1.32-1.93 0 0 1.32-3.87 0 0 1.32-.96 0 0 1.3-2.9 0 0 1.32-.97 0 0 1.33-1.93 0-.01 1.32-1.92 0 0 1.32-1.94 0 0 1.32-1.94 0 0 1.3-1.93 0 0 1.32-2.9 0 0 1.32-4.83 0 0 1.32-2.9 0 0 1.32-2.9 0 0 1.31-1.93 0 0 1.32-1.94 0 0 1.32-2.7 0-1.17 0 0 1.18-3.86.14 0 1.32-.97 0 0 1.32-14.5 0 0 1.3-1.93 0 0 1.31-.97.02 0 1.32-.96 0-.01 1.32-.96 0 0 3.94.97 0 0 1.32.96 0 0 1.32.97 0 0 1.32.97.02 0 4.6 0 .65-.65 0-.32 0 0 1.32-.99 0-.94 0 0 .67 0 .65-.97 0 0 1.3-.96 0 0 3.95-1.95 0 .01-1.3-.97 0-.01-1.33-.95 0 0-1.32-1.94 0 0 1.32-2.9 0 0 1.33-1.94 0 0 1.3-.95.02-.01 2.64-.97 0 0 1.25-.96.05 0 .62 0 .7-1.06 0-.88 0 0 .6 0 .72-1.38 0-1.52 0 0 .63 0 .69-1.59 0-.34 0 0 2.63-.97 0 0 1.32-11.59 0-.01 1.32-1.22 0-.71 0 0 .96 0 .36-.26 0-1.67 0-.01 1.32-.96 0 .01 2.33-.21.29-.77 0 0 1.05.97.27 0 1.32.97 0 0 2.64-.97 0 0 1.31-.97 0 0 1.32-.96 0 0 1.34-4.96-.02-1.8 0 0 1.32-.98 0 0 1.32-.96 0 0 2.62-1.93 0 0 1.32-.97 0 0 1.32-.97 0 0 2.64-.96 0 0 1.29-.97.02-.01 1.32-.96 0 0 1.32-.96 0 0 2.64-.97 0 0 5.26-.98 0 0 2.64-.96 0 0 7.91.96 0 0 1.3-.96 0 0 2.64-.97 0 0 5.27-.96 0 0 3.96.96 0 0 2.62-.96 0 0 1.32.96 0 0 5.26.97 0 0 7.91.96 0 0 14.47-.96.02 0 1.3.96.02 0 1.32-1.93 0 0 2.64.97 0 0 2.62.96 0 0 1.32.98 0 0 1.32.97 0 0 1.32.96 0 0 2.62-.96 0 0 1.32.96 0 0 2.64-.96 0 0 5.27-.97 0 0 6.58-.98 0 0 1.3-.96.02 0 6.58-.97 0 0 1.32-.96 0 0 2.64-.97 0 0 3.94.98 0-.01 1.32.96 0 0 1.32.97 0 0 1.31 5.81 0 0 1.32.97 0-.01 5.28-.96 0 0 2.6.97 0 0 1.32.97 0 0 5.26.95.02.01 2.64.96 0 0 1.32 1.94 0-.01 1.32 1.94 0 0 3.94 2.91 0-.01 1.32.97 0 0 1.32 4.82 0 .01 1.3 6.77 0-.01 2.64.97 0 0 5.26 4.84 0 0 6.59.96.01 0 3.94.97-.01 0 2.65.97 0-.01 18.43.97 0 0 1.32.96 0 0 1.3 2.91 0 .01 1.32.94 0 .01-1.3 2.91-.02 0 1.32 1.93 0-.01 1.34 1.94-.02 0 2.64.98-.02 0 5.26.95.02 0 7.9.97 0 0 1.32.97 0 0 1.32.97 0 0 1.3.96.02 0 1.3 1.93 0 0 1.32 1.94 0 0 1.32 1.93 0 0 1.32.97.02 0 1.3.97-.02 0 2.64.96 0 0 3.96-.96 0 0 2.62.96 0 0 2.64.96 0 0 1.32.98 0 0 1.32.96 0 0-1.32 1.93 0 0 1.32 2.91 0 0 1.3.96 0 .02 2.64 1.91 0 0 1.32 1.94 0 0 1.32.97 0 0 1.28 2.91 0-.01 1.34 1.93 0-.01 1.32 4.84 0 0 1.32.97 0 0 1.32 2.9.01 0 1.3.96 0 0 1.31 2.9 0 .01 1.32 2.9 0 0 1.32.96 0 0 2.63-.96 0 0 1.31.96 0 0 1.31.97 0 0 1.32.97 0 0 1.31.97 0-.01 1.32.98 0 .01 1.33.95 0-.01 1.3 3.88.02 0 1.3 1.93 0 0 1.3.97 0 0 1.34.96 0 0 1.32.97 0 0 3.94.96 0 0 2.64.97.02 0 1.3.97.02 0 1.28.96 0 0 1.32 5.79 0 .01-1.32 1.93 0 0-2.62 4.84 0 0 1.32.97 0 0 1.3.96 0 0 1.32 4.83 0 0-1.32 2.9 0 0 1.32 9.67 0-.01 1.32 4.85.02 0 1.3 7.73 0 0 1.3 2.91 0 0 1.32.96 0 0 1.32 1.93 0 0 1.32 2.91 0 0 1.3.95.02 0 1.3 2.9.02.01 1.3.96.02 0 1.3.97.02 0 1.3 2.9 0 0 1.3.96.02.01 1.3.96 0 0 2.62.98 0 0 1.32.95.01.01 1.31.96.01 0 1.32 1.94 0 0 1.32 1.94 0-.01 1.32.97.02 0 1.28 2.89 0 .01 1.32 2.9 0 0-1.32.96 0 0-1.3-.96 0 0-2.64-.97 0 0-6.58-.97-.01 0-1.3-1.93 0 .01-1.32-1.94-.02 0-2.6-.96 0 0-1.32-.96 0 0-1.34-1.95.02 0-1.32-.97.02 0-1.34-.97 0 .01-1.32-.96 0 0-1.32-.98.02 0-1.32-.96 0 0-1.32-.98.02 0-1.34-2.89 0 0-1.32-.97 0 0-.47 0-.81-.96-.02-.02-3.96 1.95 0 0-1.32 2.9 0 0 1.32.96 0 0-1.34 2.9.02.01 1.32 3.88 0-.01 2.64.97 0 0 1.32 5.79.02 0 1.28 22.24 0 0-1.3 2.89 0 .01-1.32 1.93 0 0-1.32 3.87 0 0-1.32 1.92 0 0-1.34 1.94.02 0 1.32 2.9 0 0-1.34 1.94 0 0-1.3 3.86-.02 0-1.28 4.84 0 0-1.32.96 0 .01-1.32 6.76-.02 0-1.31 2.9.01 0-1.32.96 0 .01-1.3.97 0 0-.72 0-.61.96.01.01-2.64.96-.01 0-1.31 1.93.02.01 1.3.96-.01 0 1.32 3.14 0 1.7 0 0 1.32.97 0 0 1.33.95 0 0 2.61 2.91 0 0 1.31 3.86.02 0-1.32 3.87 0 0-1.32 1.92 0 0-1.3.97 0 0-1.33.98 0 0-1.31 1.92-.01 0-2.63.96 0 .02-2.62.58-.01.38-.09 0-1.23.97.01 0-1.31 5.8 0 0 .88 0 .43 1.93 0 0 1.31.98 0 0 11.83 2.88.02 0 1.32.98 0 0-1.32 4.83 0 0-1.32.97-.01 0 1.31.96.02 0-1.32.97 0 0-1.32.96 0 0-1.3 2.9 0 0-1.33 2.58 0 4.2 0 0 .99 0 .34.96-.12 0-1.2 4.83 0 0 1.32 2.9 0 0 1.3 5.79 0 .01-1.3 3.87 0 0-1.32 12.57 0 0-1.32 6.76 0 0 1.31.97 0 0 1.33 1.93 0 0 1.3 1.94.02 0 1.3 1.93 0 .01 2.64.96 0-.01 1.32.97 0 0 1.28 3.86.02.01 1.3.97.02 0 1.32 1.94 0-.01 1.32.96 0 0 .54 0 .78.97.02 0 1.3 1.94 0-.01 1.3 2.91 0 0 1.32 2.89 0 0 1.34 4.84-.02 0 1.32.97.02 0 1.3 1.94-.02 0 1.32 1.92 0 0 1.32 1.94 0 0 1.32 1.93 0 0-1.32 3.86 0 0 1.32.97.02 0 1.3 5.81-.02 0 1.32 5.79.02 0 1.3 2.91 0 0 1.32 2.89 0 0 1.32 2.89 0 .01 1.3 1.93 0 0-1.3 2.9 0 .01 1.3 8.69.02 0 1.3 5.81 0 0 1.33.96 0 0-1.32 1.94 0-.01 1.32 3.87 0 0 1.29.97 0 0-1.29 1.94 0 0 1.31 2.89 0 0 1.3.98 0 0 1.32 6.75.01 0 1.32 1.94 0 0 1.32 1.93 0 0 1.32 10.64 0 0-1.32 1.93 0 0-1.32 1.93 0 0-1.33 1.94.01.01-1.32.94-.01 0-1.32.98 0 0-2.62.97 0 0-3.64 0-1.62.96.02 0-1.9 0-9.96.42 0 .56 0 0-5.26-.34 0-.64 0 .01-7.9-.97-.02 0-1.3-1.93 0 0-1.32-.97 0 .01-2.62-1.95 0 0 1.32-2.89 0 0 1.3-1.95.02 0-1.32-3.86 0 0-1.32-.97-.01 0-1.31-2.89-.01 0-1.31-1.94-.01 0-1.31-.95 0 0-2.63-.98 0 0-1.31.97 0 0-1.31.96 0 0-2.3 0-2.96.96 0 .01-1.32.97 0 0-1.32.97 0 0-1.32.97 0 0-1.32 2.89 0 0-1.3.97 0 0-1.32.96 0 0-2.66.96 0 0-1.32.98 0 0-1.28.97 0 0-3.96.96-.02 0-1.3.97 0 0-6.58-.95 0-.02-1.32-.96 0 0 1.32-1.95.02 0-1.34-3.86 0 0 1.32-4.25 0-1.55 0 0-1.32-.96 0 0-2.6-.97-.02 0-3.96.97 0 .01-1.3.95-.02 0-1.3.96 0 .01-2.64.97 0 0-1.32.93 0 2.93 0 0-1.32-.97 0 0-1.3.97 0 0-1.32 1.94 0 0-1.32.96 0 .01-1.32 1.93-.02 0-2.6 1.93-.02.02-2.62 1.91-.02 0-1.32 3.88.02 0-1.32 1.92 0 0-1.32 2.91 0 0-1.32 2.9.02-.01-1.34 2.91 0 0 1.32.96.02.02 1.3.95 0 0 2.64.96 0 0 1.3.97 0 0 2.64.98.02-.01 1.3 1.93 0 0 1.3 1.94 0 0 1.34 4.83 0 0 1.32 2.9 0 0 1.32.97 0-.01 1.3.97 0 .02 1.32 1.92 0-.01 1.32.97 0 0 1.32 2.9 0-.01 1.32 1.95.02-.01 1.28 2.91.02 0 1.3 4.83 0 0-1.3.97 0 0 1.3.96 0 0 1.32 2.9 0 .01 2.64 1.93 0 0 1.3 1.93 0 0 1.32.97 0 0 1.32 6.75 0 .01-1.32 1.94 0 0 1.32 5.78 0 .01-1.32.97 0 0-1.32 2.9 0 0-1.3 3.87 0 0-1.32 5.81 0 0 1.32 2.9.02-.01 1.3 1.93 0 0 14.48.97 0 0 1.28.97 0 0 1.32 2.9.02 0 1.32.97 0 0 2.64.97 0-.01 1.3 1.93 0 .01 2.64 2.9 0-.01 1.32.97 0 0 6.59.97-.01 0 1.31.96-.01 0 1.32 2.9 0 0-1.32 1.94.01 0-1.31 2.9 0 0-1.32.97 0 0 1.32 2.89.01 0 1.3 2.9 0 0 1.32 1.94 0 0-2.63 1.93 0 0-1.32 1.93 0 0-1.32 4.69 0 1.12 0 0 .39 0 .93 1.93 0 0 1.32.96.01 0 1.3.97 0 0 1.31.98 0 0 1.32 3.86 0 0-1.31 1.92-.01 0-1.32 4.84.01 0 1.31.97.01 0 .94 0 .37.96 0 .01 2.62.97 0 0 2.64.95.01.01 1.32 2.9 0 0-1.32 2.89 0 0 1.32 1.95 0-.01 1.3 1.93 0 0 1.31 1.94.01 0-1.32.97 0 0-1.3.95 0 0-1.33.98 0 0-1.32 1.93.01.01-1.32.95-.01.01-3.93 1.93 0 0-2.63.97 0 0-.87 0-1.77.97 0 0-1.31 1.2 0 .72 0 0-1.31 1.94 0 0-1.32.96 0 .01-4 0-14.44.96 0 0-9.18-.96-.02 0-1.32-.96 0-.01-1.32-.97 0 .01-1.32-1.94 0-.01-7.9-.95 0 0-1.3.95 0 0-5.3.97 0 0-5.26.97.02 0-3.94.97 0 0-3.96.96 0 0-2.64.52 0 .45 0 0-2.1 0-1.84.58 0 .39 0 0-1.21 0-1.45.45 0 1.48.02 0-1.3.96 0 .01-2.64 1.94 0 0-1.32.97 0 0-2.63.94 0 0-1.32 1.96 0 0-1.32.96 0 0-1.31 1.93 0 0-2.64 1.94 0 0-1.31.96 0 0-1.32 1.94 0-.01 1.32 1.94 0 0 1.31.97 0 0 2.64 1.93 0 0 1.3 2.9.01 0-1.31.96-.02-.01-3.93-.96 0 0-2.64-.95 0 0-1.32.96 0 0-1.32.96 0 0-2.64.97.02 0-1.32 1.93 0 0-1.32.95 0 .01-1.32.98 0 0-1.32 4.84 0 0-1.3 6.75 0 .01-1.32 10.63.02 0 1.3.97 0 0-1.32 6.77 0 0 1.32 4.83.02 0 1.28 2.89 0 .01 1.32.97 0 0 1.32 1.93.02 0 1.3.97 0 0 3.94.97 0 0 1.32.96.02 0 1.3-.97 0 0 1.31-1.92.01-.01 1.32-.97 0 0 1.31-.96 0 0 5.27.96 0 0 1.32.98 0-.01 2.63.97 0 .02 1.32 1.91 0 0 1.32 1.94 0-.01 1.32.97 0 0 1.28.96.02 0 2.64.98 0 0 9.2-.98.02 0 1.3.98.02 0 5.24-.98.02 0 1.32.98 0 0 2.6.97 0-.01 2.66.97 0 0 2.64-.97 0 0 7.88-.96 0 0 3.96.96.02 0 7.88.97 0 0 1.32.96 0 0 1.3.97.02.01 1.3.95.02 0 6.56.98-.02.01 3.98.95 0 0 2.6.97.02 0 2.64.96 0 0 2.64.97.01 0 1.3 1.93 0 0 2.63.97 0 0 2.62 1.94 0 0 3.95.96 0 0 1.32 5.8 0 0-1.32 2.89 0 .01-1.31 2.9 0 .01-1.31 1.93-.01 0-1.32.96.01 0-1.31.97 0 0-2.64.97 0 0-2.32 0-5.58.96-.02 0-1.28.96 0 0-1.32.97 0 0-1.32.98 0 0-1.32.96 0 .01-1.32 1.46-.02.46 0 0-.89 0-.39.97 0 0-1.32 1.92 0 0-1.34.97 0 0-1.32.98.02 0-1.32.96 0-.07-6.58-.89.02-.01-2.64-.96 0 0-7.9-.98.02.01-2.66-.95 0-.01-1.32-.97 0 0-1.32-.97-.02-.01-6.56-.96 0 0-1.32-.95 0-.01-1.3-.96 0 0-1.32-1.95-.02 0-1.3-.95 0 0-1.32-.97 0 0-7.9-.97 0 0-3.94-.97.01 0-1.33-1.93 0 0-1.32-.97 0 0-2.62-.96 0 0-9.84 0-3.34-.98.01 0-3.96-.96 0 0-1.32-.96 0 0-1.3-.71-.02-.26 0 0-.74-.21-.56-.76-.02 0-1.3-.97 0 0-1.32-.97 0 0-4.79-.16-.47-1.77.02 0-2.66.98 0 0-1.32.95 0 0-2.62 1.94 0 0-1.32.97 0 0-1.32 4.83 0 0-1.32 4.84 0 0-1.32 5.79 0 0 1.3 3.86.02.01 1.32 2.91 0-.01 1.32.97 0 0 1.32.96 0 0 1.28 1.94 0 0 1.34 1.93 0 0 1.32 1.93 0 0-3.94.97 0 0-1.32 1.94 0-.01 1.34.96-.02 0-1.32 4.84 0 0 2.6 1.95 0 0 1.34.96 0 0 1.32.96 0 0 2.64 1.93 0 0-1.32.96 0 .01-2.64.96 0 0-1.32-.96-.02 0-9.18.96 0 0-2.66 2.91.02.01-1.32 6.76-.02 0 1.32 1.94 0-.01 1.34 2.9 0 0-1.32 4.84 0 0-1.32 1.93 0 0-1.32 1.93 0 .01-1.3 11.59 0 0 1.3 3.87 0-.01 1.3.97.02 0 2.62 6.76.02.02 1.32.96 0 0 1.28 2.91 0 0 1.32 1.92.02 0 1.3 1.94 0 0 1.34 3.86 0 0 1.32 1.94 0 0 1.32 2.9.02 0 1.28.96 0 .01 1.32.96 0 0 1.32 2.9 0 0-1.32.95 0 0-1.34 5.82.02 0 1.32 2.89 0 .01 1.32 1.92 0 0 1.32 1.94 0 .02 1.32.95 0 0 2.62.96 0 0 2.64.97.02 0 2.62.98-.02 0 2.66-.98-.02 0 2.64-.97 0 0 2.63-.96 0 0 10.54-.97 0 0 2.64-.97 0 0 6.58.97 0 0 1.32 5.79 0 .01 6.56-1.92.02-.01 5.26.96 0 0 1.32.97 0 0 1.3-.97 0 0 1.32-.96 0 0 1.32.95 0 .01 1.32 2.9 0 0-1.32 4.83 0 .02 3.96-.97 0 0 1.28-.98.02 0 1.32-.97 0 0 1.32.97 0 0 1.32.98 0 0 1.32 1.93 0 0 1.3.96.02 0 1.3.97 0 0 1.32.97 0 0 1.32.96 0 0 1.32 1.94 0 0 1.32.97-.02 0 1.32 1.93 0-.02 1.32.98.02 0 1.3.97.02 0 1.3.97-.02 0 1.32 1.91.02.01 2.64 1.95-.02 0 2.64.97-.02 0 1.34 2.89 0 0 1.32.96 0 0 1.3.98-.02-.01 6.58-.96.02-.01 9.22.97 0 0 1.32.97 0 0 1.3.96.01 0 1.31 1.95 0 0 2.63.95 0 0 3.96-.96 0 0 3.94-.97 0 0 1.32-.97 0 0 1.32-.96 0-.01 1.32-.96 0 0 1.3-.97 0 0 2.64-.96 0 0 1.32-.97 0-.01 2.64.98.02 0 1.28.97 0-.01 1.32 1.94 0-.01 1.34 8.7-.02.01-1.32 6.77 0 0-1.32.96 0 0 1.32.96 0 0-1.32.97 0 0-1.3.97 0 0 1.3.97 0 0 1.32 1.94 0-.01 6.58 1.95 0-.01 1.32.97 0 0 1.32 1.93 0 0 7.88-.98 0 0 1.33-1.92 0 0 1.31-.97 0 0 1.31-.97 0 0 1.31-4.83.01-.01 1.32-.96 0 0 1.32.97 0 0 2.6.96.02 0 1.32.98 0-.01 1.32.97 0 0 1.32 1.94 0 0 1.32 1.93.02 0 1.28 1.93 0 0 1.32 4.83 0 0 1.32 1.94.02-.01 3.94.97 0 .02 1.3.95 0 0 2.64-.97 0 0 1.31-1.17 0-3.66 0 0 2.62-.97 0 0 1.32.98-.01 0 3.97.96 0 0 2.6.96.02 0 1.32 1.94 0-.01 1.32.97 0 0 1.32.97 0 0 1.32.97.02 0 1.28 2.89 0 .01 1.32 1.93 0 0 1.32.97 0 0 1.32.96 0 0 1.31.97 0 0 1.31.97.01 0 1.3.96 0 0 1.32.97.02 0 1.3 1.93 0 0 1.32.97 0 0-1.32.96 0 0 1.32.98-.02 0 1.32.95.02 0 1.3.98.02 0 1.3 1.93.02 0 1.3.96 0 0 1.3 1.94 0 0 1.34.98 0-.02 1.32.97 0 0-1.32 1.94 0 0 1.32 2.88 0 0-1.32 1.95 0 0-1.34.97.02 0-1.32 1.93 0 0-1.32.97 0 0 1.32.97-.02 0 1.32 3.86.02 0 1.32 3.87 0 0 1.32 4.83 0 0 1.28 3.86.02 0 1.3 1.95 0 0 6.59.96 0 0 2.64 2.9 0 0 1.32 2.9 0 0 1.32 1.94-.02 0 1.32 3.86 0 0 1.32.97 0 0-1.32.96 0 0-1.32.96.02 0-1.32.97 0 0-1.32 1.93 0 .01-2.64.96 0 0-1.33.97 0 0-1.29.97 0 0-1.32 1.92 0 0-2.65.98 0 0-1.32 2.89 0 .01-1.28 5.8 0 0-1.32 1.93 0 .01-1.32.96-.02 0-1.32 4.83.02 0-1.32.97 0 0 1.32 1.94-.02 0 .4 0 .92 5.78 0 0-.61 0-.71.98.02 0-1.32 2.89 0 .01-2.62.96-.02 0-1.32.97.02 0-1.32 1.93 0 0-1.32 1.93 0 .01-1.32 1.93 0 0 1.32 1.94 0-.01 1.34.97-.02 0 2.64 1.93 0 .02 1.3.94 0 0-1.32 1.95.02 0-1.32 1.93 0 0 1.3.96.02 0 2.62.97.02 0 1.3.98-.02 0 1.95 0 5.97 1.93 0-.01 1.31 1.94 0 0 2.62.97-.01 0 2.65 1.92 0 0 1.32.97 0 0 1.32.97.02 0 1.3.98-.02 0 1.32.95 0 0 1.32 1.94 0-.01 2.64 1.94 0 0 1.3 1.93 0 0 1.32.97 0 0 2.63.97 0 0 2.64.96 0 .01 1.32 5.79 0 0 1.3 7.74 0 0-1.3 1.93 0 0-1.32 2.9-.02 0-1.32.97.02 0-1.32.96 0 0-2.63 1.93 0 0-1.32.98.01 0-1.31 1.92 0 0-1.32.96 0 .01-1.32.97 0 0-1.32 1.93 0 0-1.3 1.94 0 0-1.32.97 0 0-1.32.96 0 0-1.32 2.9 0 0-1.32 4.83 0 0-1.33 1.93.01 0-1.3.97 0 0-1.32.96 0 0-2.65.98 0 0-2.6.96 0 .01-2.41 0-1.55.68-.02.27 0 0-.63 0-3.31.98.02 0-3.96.96 0 .01-1.32.96 0 0-1.3.97-.01 0-1.31.76 0 1.17 0 0-1.31.97 0 0-1.32.97 0 0-4.86 0-6.98.96 0 0-5.28-.96 0 0-2.62-.97 0 0-1.31-.97 0 0-2.64-.97.02 0-2.64-.96 0 0-3.96.96 0 0-6.58.97 0-.01-1.34.98.02 0-1.3.97 0 0-1.32-.97-.05 0-1.27-.97 0 0-1.32-.97 0 0-2.63-.96 0 0-2.63-.97 0 0-1.31-2.9 0-.01-1.32-.96 0 .01-2.64-.97 0 0-1.3-1.94-.02 0-1.3-.97 0 0-2.64.97 0 0-1.32.96 0 0-1.32.98.02 0-2.64.96 0 0-1.32.96 0 0-1.32.98 0 0-2.62.96 0 .01-1.32.96 0 0-1.32-.96 0-.01-2.66.97.02 0-1.3.6 0 .37 0 0-7.9-1.45 0-4.35-.01 0-1.31-3.86 0 0-1.32-.98 0 0-1.32-.97.02 0-1.33-.97 0-.01-1.31-.94 0 0-1.32-1.94 0 0-1.31-5.81.01.01-1.33-.97 0 0-1.32-.96 0 0-1.31-.97 0 0-1.31-1.92 0-.02-1.32-.96 0 0-2.64-.96 0 0-1.32-.98-.02 0-4.72 0-.52-.69-.02-.27-.2-.02-1.1-1.42-.02-2.43 0-.01-1.28-3.85 0-.01-2.97 0-.99-.96-.02 0-3.92-.96 0 0-1.34-.98.02 0-1.32-3.86 0 0 1.32-.97 0 0 1.3-2.9 0 .01-1.3-.97 0 0-2.64-.97.02 0-1.34-.98 0 0-1.3-7.72 0 0 1.3-.69 0-1.24 0 0 1.32-.97 0 0 1.32-.97 0 0 1.32-1.93 0 0 1.32-1.93 0 0-1.32-.97 0 0-1.32-.96 0 0-1.32-2.91 0 0 1.32-3.86 0 0-1.32-3.87 0 .01-1.32-1.95 0-.01-1.3-.96-.02 0-5.26.96 0 0-1.32-.96 0 0-1.56 0-1.06-1.07 0-.85 0 0 1.32-.97 0 0 1.3-.97 0-.01 1.32-.95 0-.01-1.32-2.9 0 0-1.28-.96-.02 0-1.32-.97 0 0-1.32-.97 0 0-2.64-.96-.02 0-1.28-.98 0 .01-1.32-.97 0 0-1.32-.97 0 .01-2.64-.97 0 0-1.3.96-.02 0-1.3.97 0 .01-1.32 1.52-.02.41 0 0-1.32.96.02 0-1.32.97 0 0-1.32 3.87 0 0-1.3 1.92-.02 0-1.32.98.02 0-1.32.97 0 0-2.64-.97 0 0-1.3-3.36-.02-.51 0 0-1.29-1.93-.01-.01-3.96.97 0 0-1.34 1.94.02 0-1.3 2.89 0 .01-1.32 1.93 0 0-1.32.96 0-.04-3.95-.92-.01 0-1.31-1.93 0-.01-1.32-5.79 0-.01 1.32-1.93 0 0 1.31-2.8.01-.1 1.31-1.93 0 0 1.3-.97 0 0 1.34-.96 0-.01 1.32-1.92 0 0-1.32-.98 0 0-1.32-.96-.02 0-1.3-.97 0 .01-1.31-.97-.01 0-1.31-.96 0-.01-1.32-.97-.01 0-1.3-.96-.02 0-1.3-.97 0 .01-3.95-.97 0 0-2.64-.97 0 0-1.32-6.77 0 .01-1.3-12.57 0 0-1.32-4.84 0 0-1.32-2.9 0 0-1.32-3.87.02 0-1.34-1.4 0-7.3 0 0 1.32-1.92 0 0 1.32-11.61 0-.01-1.3-.96-.02 0 1.32-.96 0 0-2.64.96 0 0-5.26-.96 0 0-1.32.96 0 0-1.32 1.94 0 0-1.3 1.85 0 .08-1.32.96 0 .01-1.32 5.8 0-.01-1.34 4.84 0 0-1.32 1.93.02.01-1.32 2.9-.02 0-1.28 8.69 0 0-1.32.97 0 0-5.26.97 0-.01-1.34 2.92 0-.01 1.32 2.89.02 0 2.6.97 0 0 1.32 1.93.02.01 1.3 5.8 0 0-1.32.97 0-.01 1.32 10.64.02 0-1.34 4.82 0 0-1.32 5.81.02 0-1.32.96 0 0-4.29 0-10.2.97 0 0-1.3.96 0 0-10.56 3.87.02.01 1.32 2.9 0 0 1.32.96 0 0 1.3.96 0 .01 1.3.96.02.01 3.96 2.89 0 0 1.32 4.18 0 2.6 0 0-1.32 6.76 0 0-1.32.97 0 0-1.32.97 0 0-1.32.97 0 0-2.62.95 0 0-1.07 0-5.51.97 0 0-3.96.97 0 0-1.32 1.94 0 0 1.32 4.03 0 2.73 0z" /></g></g></svg>