<?xml version="1.0" encoding="UTF-8" standalone="no"?>
<svg
   xmlns:dc="http://purl.org/dc/elements/1.1/"
   xmlns:cc="http://creativecommons.org/ns#"
   xmlns:rdf="http://www.w3.org/1999/02/22-rdf-syntax-ns#"
   xmlns:svg="http://www.w3.org/2000/svg"
   xmlns="http://www.w3.org/2000/svg"
   xmlns:sodipodi="http://sodipodi.sourceforge.net/DTD/sodipodi-0.dtd"
   xmlns:inkscape="http://www.inkscape.org/namespaces/inkscape"
   version="1.1"
   width="1360"
   height="1360"
   viewBox="0 0 1360 1360"
   id="svg8"
   sodipodi:docname="Ellesmere_Island.svg"
   inkscape:version="1.0.1 (3bc2e813f5, 2020-09-07)">
  <metadata
     id="metadata14">
    <rdf:RDF>
      <cc:Work
         rdf:about="">
        <dc:format>image/svg+xml</dc:format>
        <dc:type
           rdf:resource="http://purl.org/dc/dcmitype/StillImage" />
        <dc:title></dc:title>
      </cc:Work>
    </rdf:RDF>
  </metadata>
  <defs
     id="defs12" />
  <sodipodi:namedview
     pagecolor="#ffffff"
     bordercolor="#666666"
     borderopacity="1"
     objecttolerance="10"
     gridtolerance="10"
     guidetolerance="10"
     inkscape:pageopacity="0"
     inkscape:pageshadow="2"
     inkscape:window-width="1920"
     inkscape:window-height="974"
     id="namedview10"
     showgrid="false"
     inkscape:zoom="0.47177599"
     inkscape:cx="180.59529"
     inkscape:cy="545.54435"
     inkscape:window-x="-11"
     inkscape:window-y="-11"
     inkscape:window-maximized="1"
     inkscape:current-layer="svg8" />
  <g
     id="g6"
     style="fill:#000000;fill-opacity:1"
     transform="matrix(1.7188632,0,0,1.7188632,-351.09045,-7.7265073)">
    <g
       stroke="#000000"
       stroke-width="0.98"
       fill="#ffffff"
       id="g4"
       style="fill:#000000;fill-opacity:1">
      <path
         d="m 902.16,126.5 -0.4,-4.45 -0.61,-3.08 -4,-10.06 -4.48,-5.22 -0.17,-0.56 -5.16,-0.56 -5.16,-0.56 0.08,-1.47 0.05,-0.57 h -3.09 l 0.27,0.89 0.13,0.22 -0.41,1.93 -1.85,1.14 0.2,-1.72 0.14,-0.71 0.18,-0.64 -0.12,-1.11 0.6,-1.7 2.47,-0.36 v -0.93 l -5.52,0.48 -5.53,0.48 -0.49,2.03 0.22,0.4 0.18,0.64 0.16,0.89 0.13,1.23 -1.34,-0.19 -0.43,-0.93 -0.09,-0.66 -0.07,-1.79 -0.1,-0.62 -0.16,-0.21 -0.57,0.21 -0.61,0.8 -1.73,6.45 -0.89,1.74 -6.62,2.34 0.52,-2.1 0.73,-0.86 4.23,-1.12 v -1.11 h -0.53 v -0.93 l 0.4,-0.13 0.2,-0.91 0.14,-1.3 0.41,-2.69 -0.02,-1.15 -0.08,-1.04 0.03,-1.08 0.5,-2.3 0.76,-1.67 0.8,-0.94 0.62,-0.15 -0.67,-3.44 -7.99,-2.78 -0.2,-2.07 1.55,0.26 0.77,-0.87 0.64,-2.62 -1.8,-2.41 -2.16,-1.06 -0.63,-1.47 -0.37,-0.29 -1.1,0.75 -0.38,-0.75 0.1,-0.73 0.19,-1.71 0.11,-0.72 -0.75,-0.2 -1.47,-2.36 -3.94,-0.59 7.11,-3.01 1.09,-1.61 1.04,-2.88 -0.16,-1.33 -0.07,-1.39 0.06,-1.32 0.17,-1.2 -0.53,-2.29 -0.76,-1.33 -6.75,-0.84 -6.74,-0.83 -3.77,7.28 -1.26,-0.22 -0.57,1.34 0.11,0.44 0.18,1.2 0.1,0.49 -0.8,1.48 -0.9,-1.11 -1.72,-4.15 -2.61,-3.21 -0.8,-2.62 0.63,-2.87 0.17,-1.41 -3.45,-0.21 -0.99,-1.95 0.66,-1.65 3.68,0.53 0.68,-0.9 0.49,-2.4 -0.81,-1.49 -8.52,1.65 -1.36,2.9 -1.46,0.37 -0.59,0.99 0.95,1.45 2.21,-0.56 0.87,2.33 -1.25,0.15 -0.59,0.64 -2.48,6.02 -0.65,0.78 0.92,2.4 2.04,0.8 0.94,2.04 -5.67,-1.16 -0.94,-1.23 -0.65,-2.85 1.03,-2.98 0.32,-1.39 -0.69,-1.82 -7.03,0.12 -7.62,6.58 -7.61,6.55 -0.6,1.59 -0.33,2.93 0.21,-0.17 0.21,0.13 0.2,0.43 0.19,0.77 -0.63,1.5 -3.77,-1.9 -4.74,2.07 -0.86,1.99 -2.27,0.73 -3.52,5.33 -7.67,1.43 -7.67,1.42 -7.67,1.43 -1.05,-1.42 0.67,-2.08 2.97,-2.6 1.12,-2.23 5.48,-2.79 5.48,-2.79 1.57,-2.52 2.12,-0.2 1.57,-2.12 1.16,0.32 1.02,-1.41 4.73,-1.7 1.88,-3.5 5.96,-3.03 0.9,-1.97 -0.13,-1.07 8.69,-9.87 0.42,-2.07 -0.48,-0.68 -0.24,-0.62 -0.22,-0.87 1.4,-0.95 0.35,-1.22 -0.42,-0.45 -0.81,0.58 -0.78,-1.51 -4.96,0.29 -1.64,-2.33 -0.89,-0.38 -1.31,5.16 -0.84,0.09 -1.64,-1.45 0.19,-0.99 0.62,-2.17 -3.14,-1.47 -0.39,0.58 0.05,1.88 -1.27,2.37 -8.16,-6.05 -7.88,2.75 -1.3,2.26 -1.29,1.06 -1.16,-2.39 0.46,-3.62 0.48,-3.03 -0.56,-1.51 -7.09,-1.68 -2,3.19 h 0.12 l -0.97,1.06 h -5.37 l -0.63,-2.06 0.19,-4.91 -0.46,-2.56 -0.77,-0.55 -3.43,5.2 -7.88,3.79 -0.8,-2.07 1.02,-0.51 2.01,-4.33 1,-0.66 -0.62,-1.4 -3.77,0.1 -0.5,-0.63 0.06,-0.37 h -1.48 l 0.33,-1.99 1.27,-1.12 0.54,-1.21 -0.35,-0.79 -0.67,-0.5 -0.32,-1.04 0.73,-1.76 0.36,-0.38 0.39,0.02 -0.58,-1.85 -7.37,0.3 -7.38,0.29 -7.37,0.3 -1.45,1.87 0.26,-0.04 0.55,0.66 0.26,0.59 -0.66,1.37 -0.74,0.32 -0.73,-0.59 -1.32,-2.63 -2.18,0.32 0.09,1.38 0.16,1.03 0.2,0.69 0.22,0.44 -0.42,1.22 -3.08,1.59 -4.14,6.16 -0.41,2.06 0.91,1.6 2.86,1.59 8.65,13.5 0.59,3 -7.31,-4.92 -7.3,-4.93 0.12,-0.58 0.06,-0.56 0.04,-0.54 0.05,-0.51 -3.83,-6.37 -0.61,-2.97 0.58,-3.61 2.71,-6.8 0.88,-1.26 -0.87,-1.82 -6.32,-0.44 -6.33,-0.44 -4.46,5.03 -0.41,-0.43 -0.94,-3.11 -0.41,-0.45 -2.16,0.95 -1.68,2.31 -3.61,1.52 -0.72,2.42 h 2.41 l -0.92,2.19 -6.17,3.84 -3.68,7.84 -2.69,2.03 -0.91,2.06 -0.65,3.05 1.6,2.5 2.32,1.38 0.66,1.8 1.19,5.14 -0.29,1.69 0.93,0.65 4.14,8.2 5.99,4.86 6,4.83 v 1.16 l -2.15,0.95 v 1.06 l 0.12,0.24 0.28,0.9 -8.07,-8.48 -8.08,-8.55 -8.07,-8.61 -0.73,-3.22 -0.48,-3.09 -0.24,-1.24 -1.08,-2.95 -0.37,-0.46 -0.38,0.06 -0.15,-0.84 -0.24,-0.43 -0.1,-1.14 0.09,-1.95 -0.72,-0.29 -2.88,-6.16 -8.38,-3.22 -8.39,-3.22 -2.03,1.83 h 0.14 l -0.66,1.23 -2.02,-0.03 -0.01,-0.99 -0.22,-0.32 -1.62,-0.04 -0.91,-1.36 -6.89,-1.1 -6.89,-1.09 -1.98,3.02 -8.75,1.97 -8.75,1.96 -0.87,-2.05 0.23,0.11 0.21,-0.34 0.19,-0.77 0.17,-1.2 -3.93,3.82 -0.56,1.43 -0.47,2.35 7.05,8.78 7.04,8.71 2.51,8.94 3.25,5.08 h 7.78 l -1.57,3.16 -3.42,-0.61 -1.58,2.76 0.77,4.64 1.18,2.79 1.28,1.23 1.06,-0.12 -0.1,0.98 -0.06,0.5 -0.11,0.53 6.52,4.43 6.52,4.4 0.78,1.72 -1.2,2.8 -4.04,1.08 -4.95,10.41 -4.95,10.31 -0.87,0.58 -0.63,-2.43 h -0.26 l 0.64,-3.81 0.74,-3.31 0.82,-2.33 1.39,-1.55 1.64,-4.4 1.05,-1.33 0.5,-1.11 0.46,-1.8 -1.32,-0.25 -4.02,-4.94 -2.24,-0.35 -0.93,-1.81 -0.69,0.17 -0.33,-0.63 -0.31,-0.96 -0.7,-1.31 -2.44,-1.64 -3.41,-10.5 -1.13,-2.3 -2.74,-1.48 -0.67,-1.29 0.18,-0.42 0.49,-1.81 -0.42,-2.45 -3.69,-9.53 -6.98,-4.67 -6.99,-4.68 -4.49,3.39 -0.63,1.85 1.25,1.67 0.36,0.97 0.25,1.59 -0.1,0.82 -0.68,0.35 -2.8,-3.1 -0.82,1.91 0.5,2.19 0.76,1.47 0.8,0.74 h 0.62 v 1.07 h -1.35 l -1.61,-2.94 -1.41,-0.29 -0.7,-0.77 -0.18,-2.44 -0.89,0.02 -0.98,2.6 -0.94,1.53 -0.79,-3.18 0.91,-4.96 0.15,-1.51 -0.08,-2.25 -0.31,-0.96 -1.59,-2.57 -1.86,-0.8 -1.8,0.78 -3.86,10.43 -0.37,0.51 -1.27,-0.81 -0.11,-3.94 -0.86,-2.77 -1.08,-1.59 -0.77,-0.37 0.07,-1.29 0.12,-0.92 0.16,-0.59 0.18,-0.31 -1.6,-0.05 -0.33,-0.6 -0.67,-2.08 -0.33,-0.7 -8,2.89 -8.01,2.9 -0.92,2.67 -0.34,0.44 -0.67,0.11 -1.07,1.8 -1.56,0.28 -0.76,0.87 0.57,3.29 0.95,2.39 6.62,2.59 6.61,2.59 v 1.07 l -4.83,0.38 -1.47,2.92 1.47,0.88 -0.15,2.9 0.7,2.2 9.08,3.99 9.07,3.97 9.07,3.96 -0.85,1.86 -7.69,0.83 -1.9,-1.65 -1.73,1.88 -7.58,-3.75 -7.58,-3.76 -0.99,1.02 -0.65,2.62 0.83,2.32 2.8,3.97 -0.41,1.18 -0.53,0.28 -0.53,-0.37 -0.95,-1.55 -3.5,-2.11 -0.99,-1.64 -0.61,-3.14 0.22,-0.46 0.2,-0.72 0.38,-1.97 -0.68,-2.24 -2.26,-3.15 0.07,-0.48 0.12,-1.15 0.07,-0.48 -0.71,-2.56 -7.56,-2.29 -7.55,-2.28 -7.56,-2.29 -1.31,1.03 -0.53,1.4 -0.33,2.23 0.16,1.45 1.92,3.95 2.19,1.56 1.91,4.35 2.13,1.64 0.73,3.52 -0.14,0.95 0.64,2.37 4.86,8.7 4.86,8.64 0.39,2.33 -5.99,1.27 -5.19,-7.28 -5.18,-7.32 -6.39,-3.29 -6.4,-3.3 -5.05,2.33 -0.84,2 -0.51,4.1 2.01,5.28 7.25,8.26 0.2,0.78 6.57,3.32 1.44,-1.08 0.5,1.08 -0.41,0.72 -9.77,-0.87 -9.76,-0.88 -3.59,10.48 -0.96,4.27 -0.03,0.84 0.11,1.81 0.28,1.65 9.26,10.71 9.27,10.61 9.26,10.51 8.27,0.42 -0.34,0.97 -1.56,2.23 -0.15,0.43 0.01,0.73 0.17,1.41 0.61,2.23 6.98,3.65 6.99,3.64 6.98,3.63 0.57,1.56 -0.42,1.08 -0.91,1.43 -0.41,1.33 1.05,1.85 2.21,0.27 1.04,1.71 -0.15,0.96 0.6,2.6 8.81,16.34 -5.84,-0.85 -0.78,-1.06 -0.91,-3.78 -7.95,-15.09 -8.2,-5.68 -1.52,1.67 -0.98,0.01 -0.8,-0.86 -0.12,-1.93 -9.52,-7.33 -9.53,-7.38 h 0.14 l -5.37,-5.05 -5.37,-5.07 -5.31,-8.24 h -3.34 l -7.8,-7.47 -0.59,0.46 -0.38,0.79 -0.11,0.68 0.09,3.25 v 2.57 l 0.04,1.31 0.19,0.82 3.36,6.27 4.11,11.94 0.84,1.27 9.25,-0.64 3.27,4 0.97,3.31 0.36,0.57 -0.61,1.3 -0.77,-0.09 -3.03,-3.44 -6.71,-0.55 -6.71,-0.55 -6.71,-0.55 v -0.88 l 1.99,-1.06 0.97,-2.06 0.54,-3.78 -0.34,-0.96 -0.91,-4.48 -0.36,-1.12 -5.92,-8.17 -0.38,-1.15 -0.27,-1.9 -0.06,-1.79 0.06,-0.79 -0.01,-0.72 -0.27,-1.57 -0.84,-2.95 -4.86,-6.74 -5.12,-1.76 -5.13,-1.75 -2.91,2.88 -0.86,-1.87 0.15,-1.01 -2.68,-3.99 -8.33,-4.1 0.89,-1.62 4.96,-0.71 0.46,-1.4 -0.71,-3.19 -0.95,-1.37 -6.87,0.78 -6.88,0.77 -6.87,0.78 -1.86,2.72 -0.45,0.17 -0.42,0.51 -0.35,1.65 0.46,1.02 2.12,0.07 1.59,1.84 3.09,-0.29 0.93,2.32 -0.67,5.08 0.38,2.02 1.89,0.05 -0.37,1.24 -0.77,1.68 -0.34,1.18 0.69,1.76 2.13,3.14 -0.99,1.92 -2.15,-0.44 -1.01,0.79 -2.15,4.31 -6.71,1.03 -6.71,1.03 -3.92,-1.52 -5.67,3 -0.6,1.77 0.37,2.61 2.57,7.58 9.67,5.22 9.67,5.19 9.67,5.18 9.67,5.14 0.77,3.24 0.16,1.57 0.25,3.57 0.13,1.02 1.24,2.85 0.37,1.47 -2.29,-1.52 -1.06,-2.05 -1.08,-3 0.12,-4.02 -0.28,-2.35 -0.55,-1.1 -3.25,-0.78 -0.74,1.47 2.55,8.08 2.81,6.3 -2.25,-1.33 -2.16,-3.49 -3.5,-10.79 -1.33,-1.5 -8.14,0.03 -0.99,2.7 1.84,5.6 4.58,8.53 0.69,3.08 -0.55,1.14 -0.59,-0.44 -5.38,-10.86 -5.38,-10.97 -2.6,-2.25 -0.99,-1.9 -1.87,-0.1 -7.26,-1.72 -6.58,1.02 -0.45,1.09 -0.27,1.66 0.18,1.07 2.39,3.86 0.52,0.23 v 0.96 l -5.63,1.83 0.81,2.73 5.4,3.4 1.13,2.3 0.56,3.09 -5.5,-4.97 -5.5,-5 -0.55,-1.55 2.82,-5.67 -0.39,-2.08 -3.51,-6.62 -4.21,-2.02 -4.02,2.02 -4.03,-3.97 -1.39,-0.28 -0.42,0.28 -0.17,0.45 -0.34,1.25 -0.22,0.25 -0.77,-0.04 -1.33,1.58 -8.7,3.17 -6.39,7.29 -0.99,2.56 1.34,5.74 -0.13,0.63 -0.13,0.41 0.26,1.74 -1.76,1.89 -3.38,-4.82 -1.81,0.31 -0.87,1.27 -0.48,1.09 -0.15,1.3 0.3,1.3 0.52,0.56 3.97,0.89 0.56,2.07 -0.61,1.01 -1.76,4.91 -1.41,1.69 -0.22,1.31 0.02,0.33 0.31,1.31 -0.68,-1.46 -1.61,-0.8 -0.6,0.19 0.3,-1.45 0.11,-0.43 -0.31,-0.9 -0.36,-0.24 -0.74,0.2 -2.17,-2.68 -1.24,-3.58 -0.69,-1.39 0.3,-0.65 0.63,-0.39 0.29,-0.86 -0.8,-1.37 -0.84,0.19 -2.5,2.9 -1.77,-0.23 0.54,0.79 0.4,1.6 -6.03,-1.98 -7.24,3.21 -0.89,1.54 -0.38,0.01 -0.15,0.48 -0.07,0.59 -0.01,0.44 -0.03,0.42 -0.1,0.49 -0.71,1.2 -5.51,-0.41 -1.52,1.63 -1.23,3.68 0.57,1.78 1.84,2.91 -0.38,0.61 -1.3,-0.61 -1.75,0.92 -3.75,-1.94 -1.69,0.7 -1.7,2.48 -0.92,2.32 -1.77,0.31 -0.43,0.8 0.26,1.03 -0.11,0.99 -0.55,1.77 0.26,0.84 -0.37,0.6 -0.75,0.46 -0.35,0.87 0.81,1.76 -0.94,0.59 -1.82,-1 -0.87,1.34 0.92,0.31 0.48,0.59 0.35,1.02 -0.91,-0.22 -0.44,0.49 -0.25,1.57 1.34,1.84 1.34,-0.28 1.19,2.13 5.28,1.16 0.78,1.47 0.54,4.2 0.11,0.45 -0.16,0.85 -1.04,1.87 6.38,-4.01 0.87,1.29 -0.21,1.03 0.18,0.38 0.36,-0.21 0.78,-1.84 0.54,-0.76 0.56,-0.38 0.48,0.03 -0.83,-4.64 -0.06,-1.37 0.31,-1.4 0.41,-0.94 0.83,-0.87 1.93,-0.21 0.97,-1.07 1.26,-4.38 0.65,-0.38 3.82,2.55 1.84,-0.27 1.49,1.8 0.51,0.12 -0.83,-2.57 -0.4,-1.77 -0.04,-1.7 0.47,-1.51 0.66,-0.31 1.22,1.1 2.01,4.84 0.53,0.67 1.12,0.18 0.5,1.07 -0.37,0.56 -0.38,0.21 -0.34,0.49 -0.25,1.42 4.96,-0.84 h 4.96 l -1.1,4.11 -5.35,0.71 -0.27,0.78 -0.34,1.94 -0.18,0.69 -0.4,0.44 -2.23,-0.31 -7.28,7.03 -7.28,6.98 -0.52,2.24 7.38,6.36 -1.35,1.79 1.17,1.88 1.39,0.3 1.39,-0.97 1.8,-2.86 9.26,-6.36 5.3,-5.44 4.04,-2.34 6.45,-4.69 7.16,-1.76 2.11,-1.36 1.99,-3.02 1.19,-0.53 1.18,0.6 0.93,2.02 -0.27,0.99 2.2,0.83 1.73,-1.74 7.19,3.49 7.18,3.48 0.47,1.22 0.18,0.79 0.2,0.58 0.2,0.33 0.22,0.11 -0.69,1.19 -4.74,-4.08 -3.83,0.09 -1.28,-0.99 -2.07,1.71 -0.9,-0.33 -0.72,-1.22 0.17,-0.6 0.14,-0.36 0.17,-0.13 0.21,0.1 v -0.83 l -7.18,1.84 -3.68,-0.07 -7.7,2.97 -0.48,0.68 -0.4,1.82 0.56,0.45 1.12,2 0.59,0.26 -0.63,0.86 -0.71,-0.09 -2.05,-1.87 -4.94,7.68 -4.12,0.6 -3.03,5.55 -6.19,2.82 -0.6,1.51 2.43,3.49 5.03,2.32 3.66,4.38 7.68,-1.84 1.2,2.24 -6.12,2.58 -6.11,2.57 -0.9,-0.25 -3.7,-4.65 -0.96,-0.25 -1.45,1.09 -0.88,-1.07 -0.43,-0.17 -6.16,7.23 -0.8,2.09 -0.27,0.45 0.25,2.29 0.41,1.78 1.38,3.75 0.86,3.84 0.44,1.48 1.96,2.98 1.64,0.92 1.06,1.64 2.31,1.62 9.62,-2.09 9.63,-2.09 9.62,-2.1 9.62,-2.1 9.23,1.29 8.87,-5.25 8.21,-1.8 h -0.12 l 4.47,-3.43 1.83,-4.7 6.36,-6.56 6.17,-3.79 6.17,-3.8 4.61,-0.57 1.37,-0.87 1.78,2.55 0.48,-0.14 0.43,-0.73 0.54,-0.31 0.5,0.47 0.3,1.61 -0.68,0.56 -1.43,2.31 -6.75,3.47 -6.79,5.78 -1.37,2.39 -1.42,1.09 -1.48,2.39 -2.08,1.27 -0.7,1.07 -0.51,1.67 0.34,1.44 0.47,0.91 0.93,1.11 -0.55,1.03 -3.08,-0.98 -5.2,1.81 -3.46,5.19 -4.72,2.85 -6.46,-0.05 -2.13,2.02 -9.41,1.04 -4.14,-2.17 h -5.76 -5.65 l -8.76,2.21 -3.23,2.96 -4.82,0.52 -1.46,2.08 -1.72,1 -0.46,0.89 -0.09,0.8 0.22,0.97 1.27,3.47 3.95,3.37 4.95,6.51 6,3.61 4.84,5.72 5.42,5 4.03,0.7 3.69,3.56 4.73,1.42 3.7,0.22 2.18,-3.91 1.28,-3.29 0.29,-3.6 0.4,-1.51 8.73,-12.67 -0.15,-0.91 1.22,-3.69 1.99,-1.73 0.41,-0.82 1.44,-3.97 5,-8.18 6.47,-5.15 5.68,-2.14 1.92,-1.16 2.21,1.13 2.01,-2.23 9,-1.96 9.01,-1.97 1.05,0.56 8.9,-2.84 8.9,-2.85 8.9,-2.85 8.9,-2.87 0.43,0.71 -1.88,2.46 -4.7,1.49 -1.05,1.67 -9.06,2.68 -9.07,2.67 -9.06,2.66 -1.52,1.82 -6.5,1.88 -6.51,1.89 -0.55,-0.36 -0.87,-1.69 -0.4,-0.09 -0.4,0.35 -0.34,0.74 0.28,0.93 -3.83,0.78 -0.26,0.29 -0.47,1.22 -2.55,1.91 -1.72,0.09 -1.09,1.21 -2.25,0.6 -3.45,4.24 -7.37,14.22 -7.37,14.05 -2.68,7.88 -1.19,5.59 6.18,4.05 6.18,4.04 1.32,-0.12 5.19,-7.64 4.35,-2.79 -1.4,2.89 -3.15,3.15 -1.35,3.77 1.32,1.5 2.86,-1.29 1.96,1.87 8.41,2.54 3.8,-3.08 4.62,-0.19 5.76,2.57 6.21,-3.1 3.54,-0.17 1.03,-0.78 0.87,-1.87 0.43,-2.08 0.73,-4.88 0.45,-1.67 -0.22,-2.28 -0.38,-2.09 -0.46,-1.72 -0.45,-1.17 -0.59,-2.04 -0.05,-2.11 0.38,-1.54 0.69,-0.34 -1.34,-1.56 -0.39,-0.92 3.07,1.63 0.94,-0.8 1.12,-2.95 0.43,-0.39 0.92,-0.23 2.9,-3.11 0.33,-0.69 0.87,-2.67 0.95,-1.14 2.94,1.91 -0.51,1.63 -4.04,5.9 -3.33,1.4 -0.83,1.99 0.62,1.75 0.18,0.74 -0.4,0.84 0.44,1.08 0.52,0.5 3.87,0.34 5.87,-2.98 8.28,-2.27 0.43,-0.42 0.32,-1 0.29,-1.19 0.34,-0.99 0.54,-0.41 1.14,0.21 0.95,-1.56 4.8,-2.85 2.05,-2.83 1.05,-0.65 2.11,1.61 1.6,-0.14 0.41,1.05 -3.57,6.76 -1.67,0.85 -2.39,3.36 -6.71,2.57 -6.7,2.56 -1.09,3.13 -1.1,0.79 -2.02,-0.09 -0.73,0.68 -0.63,1.8 -0.53,2.51 -0.43,2.83 0.05,3.19 0.89,1.57 4.05,1.01 3.69,-1.68 6.56,-0.55 0.26,0.25 0.73,-1.31 5.16,-1.87 5.16,-1.87 5.07,-2.83 6.57,-0.7 6.69,-4.25 4.73,-4.99 5.41,-4.29 3.23,-1.43 2.65,-1.44 2.54,-4.22 6.13,-3.68 2.57,-4.74 0.79,-2.29 0.1,-2.65 0.51,-2.09 0.66,-0.69 1.33,0.25 0.6,-0.37 1.65,-3.72 0.46,-1.78 0.06,-1.73 -0.28,-1.02 -1.21,1 -0.7,0.04 -0.69,-0.6 -0.61,-1.19 0.28,-2.12 0.16,-0.91 1.28,-4.76 0.91,-0.97 2.06,0.06 0.8,-2.54 -0.56,-1.01 -1.15,-0.49 -6.06,-9.2 -0.82,-3.19 5.49,5.93 5.49,5.9 4.06,-0.79 0.91,-1.47 -0.34,0.06 -0.34,-0.38 -0.64,-1.42 0.48,-3 0.46,-2.15 0.52,-1.59 1.75,-2.63 2.17,-1.7 5.7,-10.26 6.2,-3.97 1.85,-2.86 9.07,-6.37 9.06,-6.41 1.22,0.44 0.93,1.51 -0.29,0.97 -4.06,3.53 -2.06,4.01 -2.43,-0.13 -3.33,4.74 -5.05,2.47 -0.82,1.88 -3.45,2.88 -2.91,4.6 -1.31,3.79 -2,3.36 -2.05,1.67 -2.26,0.17 -1.26,1.02 -0.63,2.37 1.61,0.72 -0.59,3.08 -0.89,2.24 -8.14,11.65 -0.46,1.27 -0.34,1.96 0.15,1 0.39,0.9 0.4,1.65 0.33,4 -0.37,1.92 -0.62,1.41 -0.47,2.45 0.82,1.8 0.41,0.57 0.5,0.23 7.17,-1.89 7.16,-1.89 2.32,-2.2 5.95,0.1 5.95,0.1 7.15,2.18 4.85,-1.98 3.67,0.05 2.07,2.93 -0.63,2.8 -1.05,1.2 -5.55,0.86 -5.55,0.86 -7.27,-0.19 -4.38,2.01 -8.97,1.4 -0.86,1.59 -2.06,1.24 -3.78,0.27 -2.08,3.26 -4.15,1.04 -4.48,4.12 -6.12,1.6 -3.46,4.12 -6.72,3.98 -1.03,1.65 v 0.75 l 6.75,0.07 6.76,0.08 9.57,-0.71 7.51,1.13 7.51,1.14 v 0.67 l -0.1,0.02 -0.05,0.21 -0.05,0.32 -0.07,0.34 h -0.14 l 0.05,0.61 0.09,0.21 -0.41,0.96 -1.11,0.64 -5.78,-0.39 -5.78,-0.4 -2.22,1.77 -2.24,-1.07 -2.21,1.75 -7.62,-0.36 -1.56,1.76 -5.3,0.62 -5.3,0.63 -6.08,2.29 0.31,1.25 0.7,0.46 0.34,0.65 -1.17,1.86 -8.22,2.43 -8.22,2.42 -8.22,2.42 -7.37,0.82 -5.36,1.73 -5.36,1.72 -6.1,2.29 -6.09,2.28 -0.91,1.43 v 0.71 l 3.99,4.35 1.16,4.08 8.3,14.8 6.85,11.02 1.92,0.93 1.39,2.15 5.31,2.07 5.3,2.07 1.05,1.63 -0.75,1.45 -2.46,0.08 -1.61,1.6 -0.23,0.46 -0.05,1.02 0.1,1.02 0.68,1.25 0.4,1.86 0.64,3.85 0.11,2.22 -0.41,1.89 -0.83,2.33 1.22,0.35 1.19,1.16 -0.1,1.09 -0.44,2.59 0.2,0.35 0.39,0.35 3.55,-0.64 8.63,7.3 8.55,-2.3 0.87,-1.61 6.34,-0.94 6.34,-0.95 -3.28,6.38 -0.65,0.32 -2.58,-0.61 -5.24,2.57 -5.24,2.56 -0.44,1.44 0.28,0.5 0.29,0.33 0.27,0.49 0.24,1.02 -7.74,-3.99 -7.74,-4.01 -1.47,0.13 -2.62,4.39 -1.26,0.77 -2.66,-1.87 0.27,-1.39 0.45,-0.23 0.49,0.51 0.41,0.78 0.41,0.45 0.48,-0.21 0.47,-0.6 0.38,-0.72 -1.21,-2.61 -0.18,-1.87 0.32,-3.03 -3.15,-0.02 -1.57,-1.04 -1.46,-2.68 0.17,-1.39 0.1,-0.46 0.15,-0.34 -0.31,-1.15 -0.67,-1.88 -1.17,-5.39 -0.59,-2.07 -1.3,-2.96 -4.96,-6.86 -4.96,-6.9 -8.53,-9.32 -4.51,-8.18 -8.69,-12.07 -4.89,-2.03 -5.77,-0.59 -5.76,-0.59 -6.74,0.59 -6.75,0.59 -8.05,-5.42 -3.26,-2.7 -5.32,1.07 -5.33,1.07 -0.7,1.12 -0.6,0.15 -0.23,0.73 -0.02,0.56 0.04,0.67 0.06,0.43 0.06,-0.15 -0.14,2.51 -0.09,1.13 -0.17,1.18 0.14,0.79 -0.19,0.45 -0.17,0.86 -0.13,1.1 -0.06,1.17 -0.13,0.62 -0.65,1.7 -1.04,4.24 -0.21,1.85 0.16,2.96 0.24,1.49 0.61,2.15 0.28,1.44 0.05,0.65 0.01,0.62 0.02,0.53 0.09,0.36 0.87,1.86 1.83,2.63 9.57,1.8 1.56,1.57 6.88,1.38 1.89,3.53 3.34,0.89 -0.65,2.13 -0.89,0.76 -1.69,-0.61 -2.26,-3.34 -6.74,-0.67 -1.7,-1.6 -6.78,-2.03 -1.65,1.21 -0.72,1.47 -0.32,1.42 -0.15,1.62 -0.12,1.71 -0.22,1.67 0.13,1.14 0.15,2.45 0.13,1.11 0.34,1.34 0.77,0.92 0.36,0.7 -1.77,-0.01 -0.26,0.23 -0.15,0.91 -0.13,3.05 0.01,0.91 0.12,0.86 0.3,0.97 0.48,0.74 5.72,2.37 5.77,3.79 4.6,-1.2 6,3.22 2.88,3.21 3,3.56 -0.3,1.46 -0.25,1.44 0.89,1.4 0.41,0.99 0.32,1.36 -0.1,0.56 -0.06,0.48 0.01,0.43 0.11,0.44 0.74,1.55 0.61,0.47 0.29,0.55 -0.22,1.79 0.32,1.12 3.73,4.26 1.94,0.82 1.64,2 0.38,0.91 0.02,0.42 -0.02,2.18 0.08,0.96 0.19,0.22 0.22,0.09 0.18,0.56 0.07,0.97 0.06,3.36 0.08,0.9 0.09,0.3 0.07,0.35 0.08,1.94 0.11,0.4 0.15,0.28 0.5,1.62 0.45,0.56 0.41,0.74 0.21,1.61 h -0.28 l 0.29,1.43 0.26,1.63 0.09,1.55 -0.23,1.17 3.65,1.01 1.15,-1.21 1.64,-3 0.74,0.27 0.6,2.93 -0.99,1.25 -0.52,0.98 -0.37,1.26 0.22,0.48 0.24,0.28 0.24,0.1 0.24,-0.08 -0.07,0.4 -0.04,0.33 -0.06,0.3 -0.11,0.32 0.65,1.12 1.59,0.47 2.98,2.74 0.68,1.4 -0.12,0.09 -0.28,0.55 0.41,0.71 2.96,2.37 0.86,0.04 1.77,-1.97 0.85,1.09 -0.71,1.91 -0.94,0.79 -5.23,-1.14 -5.24,-1.14 -0.23,-0.42 -0.07,-0.36 -0.02,-0.45 -0.01,-0.42 -0.03,-0.24 -0.25,-0.56 -0.33,-0.52 -0.38,-0.33 h -0.37 l 0.22,-1.56 0.18,-0.49 -0.05,-0.18 -2.22,-2.72 -3.45,-0.14 -2.2,-1.67 -1.03,0.16 -2.94,3.54 -0.87,1.64 -1.29,1.01 -0.31,1.05 -0.02,2.49 0.6,1.43 4.75,2.42 4.51,6.15 6.23,-0.68 5.72,2.89 6.61,0.2 7.11,-0.92 6.98,3.95 0.99,1.38 0.51,0.33 8.07,-3.19 0.4,-0.57 1.34,-3.2 1.18,-1.67 0.29,-1.05 h -0.27 l 0.62,-2.45 1.16,-1.53 6.25,-4.34 0.3,-0.87 0.22,0.68 0.77,0.55 0.34,0.88 -3.16,4.63 -0.33,0.98 -0.19,-0.07 -0.32,0.58 -0.3,1.12 -0.27,2.97 -0.67,2.01 -0.26,1.13 1.57,1.65 0.44,1.19 -0.43,1.6 -0.25,0.43 -0.26,-0.01 -0.1,2.2 -0.85,0.62 -1.05,-0.46 1.34,-0.97 -0.64,-0.89 -4.82,-0.11 -6,1.98 -0.62,1.08 -0.89,0.82 -4.83,-0.69 -6.57,-1.99 -4.41,0.4 -1,1.46 0.2,0.68 0.3,1.81 0.14,0.5 0.33,0.35 2.2,0.05 0.38,0.41 0.84,1.94 0.7,0.6 1.45,0.07 0.7,0.54 1.67,3.05 0.62,0.37 8.49,-2.55 1.51,0.79 0.85,2.45 -0.55,0.7 -4.54,-1.39 0.14,0.69 -0.5,0.95 -1.93,1.1 1.59,3.75 5.26,6.44 0.11,0.62 0.03,0.33 v 0.47 l -0.5,0.25 -1.53,1.77 -0.67,-0.21 -1.28,-1.46 -1.27,-0.6 -1.41,-1.47 -0.58,-0.99 -0.22,-0.7 -0.08,-0.69 -0.1,-0.63 -0.28,-0.53 -0.92,-0.72 -0.29,-0.8 0.28,-0.74 -0.25,-0.5 -1.04,-1.13 -0.6,-1.1 -7.32,-3.17 -1.93,-2.29 -1.21,-2.47 -4.45,-2.06 -3.84,-4.69 -9.4,-1.62 -9.41,-1.62 -6.36,-5.18 -2.63,1.01 -1.07,-0.8 -0.51,0.29 -2.69,3.36 -2.13,0.8 -5.18,4.49 -5.06,-0.63 -9.6,3.6 -0.9,-0.9 -0.57,-0.09 -0.56,0.28 -6.47,9.55 -0.4,1.83 -0.15,2.81 -0.4,1.94 -2.54,5.43 -0.07,1.05 0.4,0.75 0.91,0.6 2.97,-1.36 0.89,1.36 -0.01,0.12 -0.01,1.21 0.02,0.69 -5.86,-0.06 -6.36,9.56 -0.57,1.62 -0.35,2.38 0.57,1.7 0.03,1.85 -0.21,2.15 -0.13,2.56 0.06,1.04 0.28,2.18 0.06,1.39 -0.1,1.1 -0.39,2.14 -0.05,1.07 0.68,1.38 1.35,0.27 1.42,-0.48 1.34,-1.37 1.53,1.56 2.14,0.6 v 0.59 l -6.74,1.88 -1.12,1.61 -0.86,2.45 0.39,1.05 0.56,0.61 7.03,0.32 7.03,0.32 0.87,-0.79 3.06,-4.96 0.78,-2.49 0.45,-0.81 0.41,-0.03 0.88,0.84 1.66,-0.26 1.33,1.36 1,-0.94 1.81,-3.25 1.19,-1.24 0.27,-0.91 0.09,-0.99 0.05,-2.07 0.11,-0.89 0.21,-0.46 0.87,-0.8 0.12,-0.31 0.13,-0.44 0.18,-0.39 0.62,-0.35 0.77,-1.11 0.32,-0.76 -0.08,-0.82 -0.01,-0.57 0.07,-0.54 0.16,-0.72 h -0.14 l 0.3,-0.55 0.32,-0.24 0.32,0.15 0.27,0.64 -0.27,0.57 -0.12,0.15 0.27,2.74 -0.27,1.26 -0.53,0.91 -0.55,1.64 0.23,0.49 0.13,0.18 0.17,-0.01 -0.24,1.22 -0.31,0.65 -0.27,0.8 -0.11,1.67 -0.26,1.26 -1.63,2.34 -1.46,3.4 -0.41,0.52 -2.08,0.53 -0.62,0.77 0.11,0.3 0.17,0.67 0.14,0.34 v 0.7 l -0.36,0.32 -0.26,0.93 -0.39,2.29 -0.07,1.58 0.36,1.09 0.5,0.67 0.35,0.25 7.24,-2.58 7.24,-2.59 -0.39,0.54 -0.2,0.14 -0.21,0.02 v 0.59 l 0.73,-0.29 1.96,-2.96 0.13,-0.97 0.46,-1.18 2.42,-3.96 0.77,-2.53 2.22,-4.89 0.51,-0.64 0.59,-0.34 v -0.66 l -0.17,-0.17 -0.11,-0.29 -0.07,-0.53 -0.05,-0.93 0.4,-0.38 1.03,-1.89 0.32,-1.09 -0.26,-0.99 0.01,-1.41 0.17,-1.38 0.22,-0.93 -0.25,-0.83 -0.11,-0.23 -0.18,-0.15 0.15,-1.09 0.23,-0.6 0.57,-0.58 0.27,-0.59 0.36,-1.55 0.23,-0.31 0.29,-0.64 0.18,-1.45 0.1,-1.58 0.03,-1.02 0.47,-1.45 1.81,-3.62 1.19,-3.2 0.64,-0.82 0.59,0.96 -0.4,0.6 -0.42,1.08 -1.15,3.93 -1.38,2.52 0.39,1.92 -0.24,1.03 -0.46,0.98 -0.24,1.76 -0.06,1.76 -0.16,1.9 -0.22,1.67 -0.24,0.99 v 0.22 l -0.14,0.27 -0.13,0.39 -0.12,0.51 0.55,0.45 1.06,1.65 0.54,0.49 0.64,0.03 0.6,-0.38 0.58,-0.78 0.59,-1.16 0.32,-0.44 0.41,-0.07 0.34,0.51 0.14,1.3 -0.24,0.95 -4.32,1.66 -0.82,1.74 -0.44,2.21 -0.22,0.72 -0.97,2.25 -0.3,1.04 -0.37,2.87 0.39,1.23 1.52,0.19 2.31,-1.81 6.41,0.5 3.96,2.61 h 3.82 v 0.65 l -3.54,1.85 -3.61,-3 -4.51,-1.18 -4.28,3.28 -3.78,-0.95 v 0.66 l 0.32,-0.1 0.26,0.23 0.17,0.48 0.05,0.69 -0.92,2.99 -1.09,2.27 4.8,4.3 2.23,-0.08 2.91,-2.08 5.89,-0.2 -0.97,1.14 -3.93,-0.37 -1.13,0.88 -1.81,2.61 -0.35,0.27 -4.28,-0.65 -1.78,-1.72 -0.91,-0.27 -5.85,5.31 -5.85,5.29 -0.37,1.4 0.53,1.51 3.22,0.72 -0.26,0.19 -0.16,0.54 -0.05,0.84 0.07,1.04 0.29,0.95 0.41,0.11 2.36,-1.17 2.27,-2.37 6.72,-0.85 6.71,-0.84 4.59,2.84 -0.81,0.87 -6.26,-1.81 -4.2,6.51 -0.31,-0.27 0.38,-1.76 0.87,-2.9 h 0.13 l -0.6,-0.71 -0.61,0.17 -1.2,1.23 -1.49,0.46 -2.81,-0.93 -1.39,0.28 -1.37,1.25 -1.26,2.42 -0.33,1.34 0.08,0.99 0.35,0.71 1.07,0.87 h 1.27 l 2.25,-1.67 1.03,0.08 0.88,-1.39 0.76,-0.76 0.73,0.04 0.5,1.4 -0.46,0.92 -1.69,1.61 -2.12,-0.44 -0.5,0.73 -0.16,1.29 -0.08,1.33 -0.17,1.03 -2.74,1.74 0.24,0.89 1.37,1.56 -0.26,1.42 -0.37,1.29 -0.13,1.17 0.48,1.05 5.52,3.33 0.73,1.4 0.4,0.47 4.45,-3.37 1.87,-2.72 1.48,-1.06 0.52,-1.32 0.16,-0.66 0.34,-1.02 0.11,-0.54 0.26,-1.89 -0.11,-0.28 -0.26,-0.88 -0.02,-0.02 -0.05,-0.05 -0.24,-0.09 0.06,-0.05 0.07,-0.02 0.05,0.03 0.06,0.04 0.03,0.03 h 0.01 l 0.29,0.17 0.28,0.31 0.25,0.47 0.18,0.65 0.15,0.74 0.03,0.31 -0.76,3.07 -0.67,1.34 -1.69,2.14 -0.75,2.17 -0.44,0.63 -3.55,2.95 -0.42,0.71 -0.23,0.88 0.22,1 -0.15,0.68 0.38,1.07 1.18,1.68 0.47,0.4 8.36,-1.12 4.89,2.09 3.52,-0.35 -0.17,0.3 -0.18,0.61 -0.08,0.61 0.16,0.28 4.69,-3.72 5.01,-6.61 0.62,-1.46 1.26,-4.43 1.7,-2.13 0.74,-1.35 0.33,-1.26 1.2,-5.96 0.3,-0.8 0.73,-1.32 1.38,-1.43 0.28,-0.93 h -0.12 l 0.25,-0.97 0.29,-0.8 0.18,-0.72 -0.07,-0.69 0.46,-1.08 3.46,-3.2 0.45,-1.14 -0.05,-1.8 -0.57,-1.8 -0.5,-2.09 0.18,-2.7 0.38,-0.95 2.1,-3.21 2.9,-1.76 3.68,-0.22 -0.26,1.19 -0.41,0.68 -0.32,0.71 0.03,1.3 -2.26,-0.24 -1.15,0.51 -1.01,1.66 0.21,0.87 0.74,1.76 -0.07,0.34 -0.06,0.14 -0.15,0.1 0.18,0.7 0.49,1.32 0.28,0.55 -0.32,0.59 -0.68,0.26 -0.34,0.43 0.8,1.98 -1.53,1.76 -0.42,1.11 -0.09,0.75 0.02,1.58 -0.13,1.17 -0.66,2.17 -1.67,1.67 -0.76,1.29 0.4,0.51 0.15,0.06 -1.97,6.21 -1.04,1.17 -0.35,0.18 -0.13,0.5 -0.12,1.1 -0.16,1.1 -0.26,0.5 -0.74,0.61 -4.6,9.5 -0.83,0.49 -0.3,0.37 -0.77,2.78 -0.34,0.77 -0.3,0.46 -0.7,0.63 -1.56,0.42 -1.38,1.91 -0.96,0.81 -3.52,-0.03 -0.64,1.26 0.72,2.68 6.18,3.38 -0.07,0.58 0.3,2.05 0.12,1.17 -5.84,-2.47 -5.83,-2.47 -5.76,1.22 -2.75,-1.47 -1.5,0.02 -0.85,2.07 0.38,0.27 0.41,0.62 0.22,0.94 -0.21,1.27 0.55,1.05 1.24,1.49 0.36,1.67 -5.77,-1.77 -3.47,-4.68 -1.22,-0.86 -7.86,-1.54 -0.63,-0.8 -0.73,-1.73 -0.24,-0.23 -0.29,-0.12 -0.3,-0.36 -0.26,-0.6 -0.16,-0.82 0.28,0.07 0.28,-0.2 0.27,-0.44 0.25,-0.66 -0.17,-0.56 -0.18,-0.38 -0.19,-0.22 -0.21,-0.08 -0.21,0.16 v 0.36 l 0.05,0.42 -0.04,0.3 -0.43,0.36 -0.86,0.12 -3.08,3.15 -0.85,0.06 1.17,-2.86 0.34,-1.57 -0.47,-1.56 -0.77,-1.15 -0.28,-0.77 -0.26,-1.34 -0.68,-4.33 0.11,-0.69 -0.14,-0.5 -0.24,-0.45 -0.2,-0.57 -0.12,-0.95 -0.05,-0.99 -0.09,-0.97 -0.21,-0.83 -0.46,-1.46 -0.81,-3.17 -0.34,-2.04 -1.93,-1.89 -2.79,-5.49 -4.63,-4 -4.15,-1.65 -3.58,-3.29 -6.76,-1.4 -8.32,3.81 -8.32,3.8 -0.76,-0.34 -0.69,-0.78 -0.59,-1.39 0.15,-0.16 0.06,-0.15 0.06,-0.33 -1.33,-0.03 -0.42,-0.55 v 0.58 l 2.09,3.39 0.2,0.48 -0.36,0.52 -1.13,0.74 0.25,1.67 -0.3,0.72 -1,0.14 0.2,1.16 h 0.36 l 0.41,-0.26 0.35,0.36 0.18,0.82 0.1,0.85 -0.02,0.79 -0.12,0.63 0.14,0.69 -0.83,2.18 -0.37,1.4 -0.15,1.49 0.21,1.27 0.45,0.91 3.48,2.36 2.06,2.77 0.45,0.17 0.74,-0.13 0.36,0.17 0.31,0.59 -0.2,0.34 -0.2,0.22 -0.21,0.09 -0.21,-0.04 0.29,0.95 0.35,0.51 0.71,0.4 1.27,0.06 0.35,0.62 0.08,0.53 0.07,1.27 0.1,0.68 0.45,0.9 0.26,0.7 0.1,0.81 -0.46,1.69 -1.73,0.89 -0.49,1.78 0.14,1.56 0.48,1.13 0.57,0.7 0.43,0.3 -0.4,2.44 0.78,1.5 6.51,1.73 4.41,-3.11 5.34,0.44 0.38,0.67 -2,1.22 -2.13,-0.56 -1.04,0.59 -1.98,2.55 -1.03,0.52 0.62,2.28 0.91,0.69 3.47,-0.62 0.81,0.43 0.77,0.86 -0.45,0.58 -1.43,-0.03 -2.28,1.47 -0.36,0.48 -1.14,2.21 -0.25,0.13 0.33,0.73 0.32,0.35 0.7,0.13 -0.27,-0.6 0.53,-0.72 3.98,1.38 0.56,0.66 1.41,0.92 2.97,-1.17 1.43,1.34 -5.65,0.66 v 0.54 l 0.51,0.2 1.49,2.2 -0.65,0.7 -0.93,-0.14 -0.95,-0.72 -0.68,-1.04 -0.07,-1.24 -0.44,-0.29 -0.56,0.04 -0.41,-0.25 0.14,-0.66 -1.19,-0.95 -5.45,1.1 -0.58,0.65 -1.36,2.8 v 0.66 l 2.42,1.2 -0.84,0.92 -1.85,-0.5 -2.17,1.2 -0.59,-0.27 -0.06,-1.35 -0.52,-1.44 -0.63,-0.42 -1.88,0.83 -1.79,-0.83 -5.17,2.49 -0.75,-0.63 0.33,-0.55 0.16,-0.11 h 0.19 v -0.54 l -3.15,-0.57 -1.95,1.49 -1.99,0.46 -0.96,1.02 2.21,0.32 0.74,-0.32 -0.52,2.08 -0.76,0.43 -0.82,-0.18 -0.68,0.2 -2.08,2.54 -1.53,2.66 -5.3,2.81 -0.09,0.36 0.38,0.42 -0.44,1.54 -9.3,6.39 -1.25,2.1 0.5,1.59 0.18,1 -0.02,1.04 0.21,0.61 0.17,0.69 0.3,1.63 -0.04,1.48 0.39,1.09 0.55,0.7 0.43,0.23 h -0.14 l 0.22,0.18 0.1,0.15 0.1,0.25 -0.35,0.01 -0.66,0.57 -0.34,0.06 0.23,1.52 0.3,0.86 0.18,0.82 -0.16,1.39 -0.4,1.02 -2.98,2.55 -0.39,1.06 -0.02,0.47 0.08,0.54 0.04,0.63 -0.1,0.72 -0.27,0.55 -0.64,0.21 -0.29,0.39 0.48,0.8 1.13,0.45 1.08,1.45 0.44,-0.44 0.75,-1.97 0.42,-0.34 0.38,0.52 0.34,0.99 0.27,1.13 0.11,1.28 -0.21,0.83 -0.27,0.7 -0.1,0.92 0.36,0.64 3.05,2.79 0.16,0.25 0.33,1.51 0.57,0.71 0.71,0.42 0.71,0.04 0.58,-0.43 0.75,-1.57 0.38,-0.22 0.31,1.05 -0.1,0.99 0.32,0.72 0.48,0.42 1.65,0.15 0.23,-0.21 0.07,-0.48 0.04,-0.57 0.13,-0.45 1.54,-1.37 0.34,-0.96 0.07,-1.28 -0.2,-0.87 -0.67,-1.28 0.84,-1.91 0.2,-1.1 -0.37,-1.63 0.94,-0.76 0.14,-0.63 v -1.14 l 0.03,-0.54 0.09,-0.39 0.5,-0.4 0.53,0.61 0.49,1.24 0.36,1.48 -0.26,0.4 -0.26,0.64 -0.2,0.92 -0.08,1.2 1.07,2.41 0.26,0.74 -0.55,0.23 -0.33,0.7 -0.22,1.26 -0.23,1.86 -0.24,1.13 -0.05,0.75 0.15,0.66 0.39,0.4 0.49,0.08 0.48,-0.24 0.39,-0.5 -0.45,-2.31 0.76,-2.48 1.84,-3.26 -0.29,-0.81 -0.19,-0.98 0.02,-0.94 0.31,-0.7 -0.68,-2.85 -0.88,-0.57 -0.9,-0.02 -0.75,-1.17 1.27,-1.97 0.08,-0.97 h 0.12 l -1.73,-5.4 -0.68,-0.98 0.37,-1.83 1.17,-1.82 0.54,-1.33 0.61,-2.35 0.31,-0.92 0.32,-0.67 0.62,-0.63 0.33,0.51 0.14,1.41 0.02,2.09 -0.12,0.69 -1.24,2.43 0.02,1.57 0.21,1.21 0.92,2.12 0.21,1.87 -0.13,0.89 -0.56,0.97 -0.12,0.45 0.08,1.03 0.2,0.53 0.81,1.25 0.28,0.25 0.26,0.4 0.25,0.93 0.05,0.64 0.03,1.67 0.04,0.57 0.43,0.9 0.55,0.62 0.33,0.87 -0.23,1.62 0.14,0.82 -0.48,0.81 -1.13,1.23 0.54,0.2 0.28,0.25 0.19,0.43 0.23,1.13 0.15,0.3 0.23,0.02 -0.4,0.69 -0.4,0.38 -0.37,0.56 -0.31,1.17 0.6,0.88 9.5,2.45 0.36,-0.44 0.15,-0.5 0.29,-1.31 0.23,-0.46 -0.1,-0.27 -0.17,-0.87 0.83,-0.63 0.39,0.15 0.26,1 h -0.28 l 0.8,3.49 1.38,1.88 1.5,0.33 1.16,-1.12 -0.08,-0.44 -0.1,-0.83 -0.08,-0.42 0.46,-0.17 0.41,0.06 1.74,1.62 0.46,0.16 0.41,-0.54 -0.89,-1.45 -0.51,-0.54 -0.47,-0.28 1.04,-1.17 0.3,-0.58 -0.14,-0.52 0.11,-0.47 0.03,-0.26 v -0.36 l -1.51,-1.07 -0.72,-1.06 0.01,-1.65 0.86,-2.18 0.14,-0.71 -0.21,-0.87 -1.37,-1.27 -0.37,-0.74 0.01,-0.67 0.19,-0.8 0.14,-1.1 0.14,-1.73 -0.04,-0.37 -0.11,-0.38 -0.1,-0.46 -0.01,-0.57 0.41,-0.89 0.73,0.47 0.77,1.12 0.5,1.08 -0.16,0.96 -0.11,1.25 -0.17,1.01 -0.36,0.24 0.34,1.22 1.24,0.9 0.49,1 0.08,1.15 -0.22,1.01 -0.59,1.59 0.63,0.83 4.89,0.59 0.58,1.2 -0.01,1.2 -0.41,0.67 -0.25,0.65 0.48,1.17 0.76,0.71 4.78,1 1.1,1.03 0.77,0.19 0.6,0.53 0.08,-0.2 0.02,-0.47 0.07,-0.57 0.58,-3.77 0.95,-3.39 0.02,-0.98 -0.48,-0.39 0.32,-0.96 0.47,-0.27 0.52,-0.04 5.32,-3.36 0.34,-0.57 -0.11,-0.64 -6.33,-8.58 1.05,-0.4 1.2,1.25 2.2,3.66 3.37,2.94 0.49,1.81 -0.59,1.62 -3.3,2.13 -0.23,0.91 -0.03,0.98 0.13,1.85 v 0.76 l -0.04,0.5 -0.03,0.44 0.07,0.58 0.14,0.31 0.67,0.83 h -0.14 l 0.61,0.68 1.27,0.17 1.27,0.96 2.82,0.36 1.46,-0.5 2.68,1.65 2.71,0.17 2.73,1.54 0.68,0.07 0.58,0.31 1.13,1.47 0.57,0.48 3.6,-0.67 0.22,0.39 0.06,0.5 0.01,0.43 0.02,0.39 0.11,0.4 0.47,0.52 7.76,-1.03 7.77,-1.03 0.43,-0.49 0.09,-1.1 -0.32,-0.9 -5.31,-3.45 -5.3,-3.45 -0.37,-0.49 -0.32,-1.11 -0.23,-0.65 -0.29,-0.31 -0.27,-0.47 -0.22,-1.11 0.22,-1.21 -0.08,-1.13 -0.29,-0.96 -0.38,-0.76 0.17,-1.17 0.12,-2.48 0.11,-0.95 0.44,-1.05 0.5,0.12 1.69,1.93 1.11,2.33 0.88,2.69 0.07,2.06 1.55,2.06 1.63,1.26 1.65,0.47 6.15,-1.11 0.37,-0.34 0.33,-0.67 0.07,-0.52 0.04,-0.69 0.09,-0.66 0.2,-0.42 -0.22,-1.22 -0.85,-2 -0.35,-1.05 0.07,-0.68 0.86,-4.07 0.14,-1.14 -0.01,-0.94 -0.31,-0.4 -1.17,-0.72 -0.62,-0.76 -0.49,-0.88 0.71,-1.11 1.07,0.24 2.68,2.21 0.44,1.23 0.6,3.83 -0.04,1.82 0.95,1.81 2.04,2.11 0.48,1.72 1.87,0.87 0.86,1.42 0.04,0.27 0.05,0.48 0.07,0.54 0.12,0.47 0.13,0.23 0.36,0.3 8.12,2.1 1.09,-0.43 0.76,-1.63 -0.57,-1.38 -0.22,-0.32 -0.15,-0.09 -0.14,-0.2 -0.12,-0.34 0.26,-0.86 0.78,-1.77 0.16,-0.49 -0.19,-0.92 -0.41,-0.39 -0.41,-0.58 -0.19,-1.55 0.01,-2.51 -0.11,-0.87 -0.3,-0.96 -0.51,-0.95 -1.1,-1.32 -0.54,-0.93 -0.17,-0.56 -0.24,-1.32 -0.13,-0.46 -1.89,-2.3 -0.37,-0.93 -0.16,-1.41 0.22,-1.16 1.39,-1.78 0.47,-1.01 0.39,-0.56 0.4,0.02 0.49,0.7 -0.53,1.22 -0.27,0.85 -0.15,0.85 0.05,0.99 0.29,1.88 -0.07,0.61 0.36,0.72 2.94,3.14 0.45,0.82 0.01,0.21 -0.02,0.71 0.01,0.19 0.18,0.26 1.23,1.01 0.22,0.51 0.22,0.95 0.58,3.7 -0.22,0.7 0.03,0.77 0.2,0.74 0.26,0.61 -0.48,1.1 -0.2,0.75 -0.12,1.01 1.98,2.46 2.9,1.88 0.68,1.46 0.34,0.51 5.08,-0.43 5.08,-0.44 2.13,-2.01 0.68,-1.18 0.1,-1.37 -1.53,-3.86 -0.28,-1.6 0.32,-1.84 2.49,-2.18 -4.18,-3.93 -1.69,-0.42 -2.54,-3.62 -0.97,-2.57 0.13,-2.77 -0.46,-0.86 -0.95,-0.74 -0.47,-0.79 0.27,-0.58 -0.46,-1.68 -0.75,-1.46 -0.81,-1.05 -0.65,-0.49 0.85,-0.55 0.81,0.91 0.79,1.31 1.15,1 0.25,0.74 0.21,0.88 0.22,0.69 0.93,1.39 0.28,0.64 0.66,2.65 0.29,0.84 2.33,4.04 0.96,0.78 1.93,0.4 5.62,-3.29 1.8,-1.92 h 0.17 l 0.13,0.26 0.06,0.63 -0.08,0.56 -0.18,0.22 -0.2,0.1 -0.15,0.25 -0.39,1.01 -0.47,0.35 -0.94,0.09 -2.29,2.65 -0.81,0.24 1.35,1.73 0.12,0.99 -0.11,0.34 -0.22,0.13 -0.19,0.32 -0.61,2.28 -0.74,1.74 0.52,0.9 2.35,1.8 7.78,1.84 2.66,-0.84 1.07,-1.61 0.52,-0.37 0.62,-1.31 0.81,-2.38 0.8,-1.09 0.59,2.54 -0.62,1.96 -0.19,0.86 2.38,-0.19 1.34,1.17 0.6,0.17 0.57,0.49 0.54,1.5 0.91,1.3 1.36,0.87 1.03,1.36 -0.08,2.79 -0.4,1.21 -0.56,1.21 -0.58,0.94 -0.47,0.37 -0.28,0.5 -1.12,4.46 -0.18,0.49 -1.31,0.9 -0.26,0.43 -0.11,0.72 0.03,0.66 0.02,0.58 -0.18,0.47 -0.84,0.94 0.59,0.88 1.44,0.31 0.65,0.49 v 0.61 l -1.65,1.21 -0.48,0.98 -0.26,1.09 -0.05,1.09 0.2,0.67 2.61,-1.4 1.01,-2.19 0.66,0.02 1.25,0.72 h 2.41 l 0.35,-0.36 0.49,-1.76 0.31,-0.68 0.41,-0.22 2.82,0.25 0.39,-0.31 0.87,-1.41 2.74,-2.09 0.96,-0.21 1.83,1.55 5.35,-3.67 5.34,-3.68 0.96,-0.06 3.01,1.72 1.06,-0.45 0.82,-1.65 -0.31,-1.59 0.44,-1.7 0.74,-1.31 0.61,-0.45 v -0.57 l -0.39,0.06 0.02,-0.52 0.24,-0.7 0.26,-0.54 0.39,-0.42 2.75,-0.75 0.76,-0.87 0.66,-1.38 0.35,-1.18 0.85,-4.07 0.37,-1.29 0.84,-1.93 0.41,-1.32 h -0.15 l 0.5,-0.78 0.61,0.04 1.18,0.74 h 2.28 v 0.57 l -0.94,0.53 0.11,0.89 0.14,0.83 0.15,0.7 0.15,0.5 -0.16,0.6 -0.17,0.46 -0.36,0.66 1.12,2.46 1.27,0.93 2.59,-0.53 -0.26,-1.72 0.49,-1.02 4.19,-2.42 -0.11,-1.18 -0.24,-0.74 -0.59,-0.95 0.42,-1.18 0.89,-1.34 0.37,-1.24 0.3,-0.73 1.1,-1.6 0.38,-0.3 2.44,0.27 1.18,-0.61 1.12,-1.98 -0.62,-1.16 -0.21,-0.86 0.01,-1.46 0.1,-0.51 0.17,-0.55 0.19,-0.45 0.14,-0.18 0.3,-0.24 v -0.54 l -0.23,-1.08 -0.09,-1.13 -0.1,-0.72 -0.04,-0.66 0.1,-0.94 0.25,-1.08 0.36,-0.81 0.73,-1.09 -1.61,-2.34 -1.44,-0.91 -0.44,-0.8 1.2,-1.88 -0.37,-0.74 -0.86,-1.09 -0.12,-0.53 0.07,-0.79 0.19,-0.87 v -1.07 l -0.52,-1.4 -3.43,-4.95 -0.8,-0.21 -3.94,1.09 -0.28,0.55 -0.39,0.02 -0.34,0.18 -0.31,0.53 -0.3,1.06 0.13,0.21 0.28,0.7 0.13,0.22 -0.82,0.96 -2.04,0.67 -0.63,1.92 -0.07,1.66 0.1,0.81 -0.04,0.52 -0.52,0.72 -0.63,0.48 h -1.93 l 0.24,1.82 0.31,1.71 -0.47,1.27 -4.78,-1.27 0.17,-1.27 0.28,-0.85 0.63,-1.41 0.04,-0.43 -0.01,-0.6 0.02,-0.52 0.32,-0.4 0.17,-0.46 0.15,-0.57 0.13,-0.57 -0.7,-0.84 -1.52,-0.55 -0.75,0.16 -1.23,1.16 -0.37,-0.09 -0.39,-0.34 -4.99,0.4 -0.27,-0.41 -0.11,-0.99 0.04,-0.96 0.11,-0.3 0.15,-0.11 0.65,-1.88 4.94,-8.37 1.31,-1.35 0.41,-1.23 -0.23,-1.18 -0.94,-1.69 0.19,-0.19 0.17,-0.37 0.16,-0.52 0.14,-0.66 -0.45,-0.95 -0.96,-0.61 -1.92,-2.87 -0.9,-0.76 -1.86,-0.26 -1.74,-1.75 -5.59,-0.42 -6.04,4.81 -5.77,9.47 -1,0.58 -0.74,-0.71 0.68,-1.57 1.89,-2.08 0.77,-3.81 1.83,-1.86 0.6,-1.48 -0.59,-0.5 -3.39,-0.61 -0.17,-0.1 -0.94,-1 -7.12,-2.53 -7.12,-2.53 -7.35,5.73 -0.93,1.26 -1.85,0.61 -2.59,3.11 -1.3,0.09 -0.76,-0.44 -0.66,-1.08 -0.36,-2.01 0.18,-0.11 0.11,-0.23 0.24,-0.87 -0.25,-0.57 -0.21,-1.62 -0.22,-0.84 -0.46,-0.7 -1.54,-0.51 -3.49,-3.09 0.9,-1.26 5.94,2.31 6.35,-1.49 6.35,-1.48 0.57,-0.82 -0.2,-2.77 -0.51,-0.95 -5.34,-0.16 -1.95,-1.53 -1.85,-2.57 -0.82,-0.57 -0.42,-0.62 -0.18,-1.29 0.09,-0.98 0.21,-0.84 0.52,-1.26 0.59,-1.97 0.03,-1.68 -0.39,-1.44 -0.98,-1.83 -0.59,-1.58 -0.21,-0.79 -0.4,-1.05 -1.42,-0.56 -0.33,-0.51 -0.34,-0.81 -0.3,-1.1 -0.34,-2.15 -0.05,-0.08 0.03,-0.91 0.05,-0.65 0.09,-0.25 0.06,-0.28 -0.06,-0.76 0.41,-0.47 0.6,0.45 0.6,1.09 0.41,1.44 -0.25,1.98 0.44,1.04 3.61,2.43 0.61,1.46 -0.28,0.52 -0.3,0.16 -0.62,-0.05 v 0.61 l 1.6,1.3 0.41,1.24 -0.23,0.57 -0.12,0.83 0.07,0.76 0.34,0.32 0.45,0.19 0.87,0.85 1.16,0.43 0.76,0.7 0.74,1.16 0.65,1.6 0.4,1.46 0.21,0.55 1.59,1.56 3.58,1.35 h -0.14 l 0.2,0.4 0.23,1.18 0.1,0.26 0.75,0.28 3.81,3.99 2.77,0.89 1.7,1.44 1.71,0.29 1.43,1.01 1.79,-0.59 2.01,1.27 4.42,0.61 0.49,-0.22 2,-2.51 3.89,-0.92 5.01,1.35 5.02,1.35 1.53,-1.85 1.03,-0.43 0.49,-0.75 0.94,-2.44 0.7,-0.68 0.97,-1.61 0.47,-0.48 0.96,-0.12 0.47,0.22 0.44,0.5 -0.54,1.59 -1.74,3.9 1.47,0.41 1.49,-0.73 3.69,-4.12 4.15,-1.11 0.72,-0.85 0.42,-1.53 -0.93,-2.46 1.59,-1.89 3.5,-1.76 1.49,-3.74 -0.71,-2.59 -0.11,-0.57 0.15,-1.09 0.41,-0.48 0.92,-0.29 3.36,-2.92 0.4,-0.81 -0.4,-1.05 -0.38,-0.56 -1.48,-0.2 -0.3,-0.27 -0.13,-0.75 -0.01,-1.04 -0.03,-0.28 -0.08,-0.27 -1.03,-1.56 -2.23,0.61 -1.04,-0.93 0.42,-0.97 0.98,-0.21 0.4,-1.02 -0.04,-1 -0.39,-0.91 -0.48,-0.66 -0.35,-0.25 0.86,-1.22 0.89,-0.73 h -0.14 l 0.13,-0.06 0.41,-0.51 -0.31,-2.37 -0.09,-0.85 h 0.26 l -0.61,-1.99 -3.15,-2.38 0.06,-1.51 -0.36,-0.52 -2.44,0.01 -0.48,-0.58 h 0.14 l -0.41,-0.01 -0.28,-0.49 -0.23,-0.72 -0.3,-0.69 -1.01,-0.98 -0.34,-0.94 0.43,-1.43 0.57,-0.92 3.84,-2.76 -0.37,-1.09 -0.45,-0.36 -0.92,0.11 v -0.65 l 1.08,-1.46 6.58,5.62 7.11,-0.27 7.11,-0.28 1.78,3.16 3.57,0.92 2.63,-2.72 4.06,-1.08 0.75,-1.6 0.46,-2.06 0.26,-0.59 4.53,-2.84 1.05,0.26 1.02,1.02 0.56,1.05 2.13,1.11 0.33,0.53 0.08,1.22 0.67,0.69 0.64,-0.88 1.22,-3.08 3.08,-4.51 -0.13,-0.7 1.96,-3.73 0.12,-1.69 -0.69,-1.7 -1,-0.61 -5.11,0.21 -5.12,0.2 -2.03,-1.88 -6.21,-1.12 -0.71,-0.77 -0.8,0.06 -0.17,-0.28 -0.32,-0.85 -0.18,-0.18 -1.96,-0.01 -1.02,-0.57 -0.78,-1.44 0.53,-1.59 3.9,-1.83 1.07,-1.1 0.58,-0.13 4.8,2.25 3.25,-1.47 5.55,2.27 5.56,2.27 1.08,-0.63 1.05,-1.23 1.35,-2.71 0.74,-1.97 0.79,-3.8 1.09,-0.35 1.91,0.83 1.9,-0.25 0.96,-0.97 0.8,-2.07 -0.51,-0.38 -0.32,-1.03 -0.29,-1.26 -0.4,-1.12 -9.51,-4.42 -9.5,-4.43 -0.37,-0.39 -0.19,-0.94 -0.14,-1.12 -0.24,-0.96 -0.46,-0.59 -2.58,-1.23 -7.71,1.06 -0.29,-0.43 0.06,-0.65 0.51,-0.84 0.5,-0.36 1.03,-0.12 1.62,-1.42 7.2,1.05 7.19,1.05 7.19,1.04 4.18,-2.55 3.01,0.63 0.43,-0.27 4.04,-5.01 3.33,-0.1 -1.04,-2.72 -0.6,-1.05 -0.49,-0.19 -0.64,0.38 -0.68,-0.09 -0.66,-0.6 -0.6,-1.15 0.22,-0.11 0.2,-0.27 0.2,-0.42 0.19,-0.56 -0.41,-0.94 -0.27,-0.97 0.01,-1.04 0.41,-1.14 0.6,-0.39 1.24,0.26 0.57,-1.24 -0.49,-0.27 -1.25,-1.95 -0.41,-1.25 0.36,-0.28 0.98,-1.78 -0.45,-1.49 -1.68,-0.06 -0.67,-0.51 0.57,-0.65 1.95,-1.08 0.42,-1.4 -0.35,-1.56 -0.79,0.06 -1.41,1.18 0.09,-1.03 0.05,-0.41 -0.7,-1.78 -3.13,-0.84 -4.5,-2.23 -4.84,-0.26 -3.76,-1.01 -2,1.69 -8.03,0.08 -2.69,2.97 -0.8,0.32 -0.48,-0.21 -0.01,-1.11 0.36,-1.11 3.39,-3.39 8.62,-2.19 0.58,-0.57 1.08,-3.13 0.41,-0.48 -1.15,-1.53 -9.32,-2.8 -9.32,-2.82 -9.64,3.45 -9.64,3.43 -2.03,2.44 -4.72,8.96 -1.24,3.69 -0.51,2.23 -0.58,1.63 -0.88,1.08 -0.87,-0.2 -0.54,-2.17 0.34,-1.1 1.27,-2.35 1.47,-4.83 3.22,-6.48 0.4,-1.86 4.3,-4.68 0.66,-0.29 -0.57,-1.71 -0.66,-1.21 -2.92,-2 -5,-0.17 -5,-0.16 -8.62,-0.28 -0.57,-0.79 5.52,-0.79 5.52,-0.8 h 4.61 l 5.95,1.59 0.45,0.48 0.95,2.3 0.47,0.73 1.61,0.12 1.57,1.07 7.34,-4.88 3.79,-0.13 5.07,-1.88 6.23,1.51 4.3,-0.14 1.05,-0.78 0.57,-1.93 -0.27,0.06 -0.81,-0.77 0.04,-0.37 0.01,-0.32 0.04,-0.32 0.06,-0.41 -7.07,-1.08 -4.84,-1.57 -5.09,0.06 -6.9,-1.05 -6.9,-1.05 -6.9,-1.05 -1.98,1.72 -1.02,0.3 -0.88,-1.25 0.64,-1.68 0.83,-0.77 9.55,-0.23 9.54,-0.22 4.38,0.93 7.5,-1.22 5,-0.11 5.01,-0.12 3.82,3.66 0.67,1.9 0.06,-0.33 0.03,0.17 0.04,0.8 -0.18,0.15 -0.18,0.3 -0.16,0.45 -0.14,0.59 0.14,0.3 0.25,0.78 0.14,0.27 -0.67,1.48 2.08,0.03 0.22,0.19 0.18,0.53 0.07,1.01 0.12,0.24 4.94,0.98 8.18,4.42 5.76,-1.65 5.88,1.15 0.49,-0.48 0.4,-0.87 0.12,-1.32 -0.26,-1.46 -0.48,-0.89 -0.9,-1 -0.34,-0.91 -0.21,-0.99 -0.23,-0.79 -1.31,-0.71 -0.45,-0.67 -0.25,-1.13 0.55,0.02 0.27,-0.22 0.26,-0.44 -0.94,-1.47 -2.34,0.58 -0.89,-2.02 0.82,-1.45 3.71,-0.14 1.98,-1.82 0.46,-1.59 -6.45,-1.75 -4.96,1.34 -5.65,-0.2 -5.95,-0.22 -5.95,-0.22 -4.01,-3.98 -1.02,-0.22 -1.93,1.44 -4.08,0.29 -5.3,-1.94 -5.99,1.24 -7.99,2.08 0.8,-1.29 1.76,-0.03 0.8,-0.77 -0.77,-1.46 -5.25,-4.18 -3.92,0.35 -4.42,-3.42 v -0.73 l 1.34,-1.15 1.32,-0.34 0.8,0.07 1.88,1.71 5.49,1.56 5.5,1.55 0.81,-0.58 0.43,0.01 -0.32,-1.27 -0.84,-0.82 -0.37,-1.13 -0.48,-2.08 -0.29,-0.86 -0.7,-1.13 -1.29,-4.01 -0.41,-1.77 0.96,-1.19 2.15,1.54 1.03,-0.53 0.8,-1.37 0.49,-0.14 0.21,1.33 0.04,2.12 0.06,1.28 0.1,0.91 0.32,1.07 2.71,4.2 0.72,0.45 0.5,1 0.25,0.3 0.23,-0.06 0.53,-0.53 5.86,0.38 5.86,0.38 1.59,1.21 4.71,-1.06 0.67,-1.05 -0.59,-0.96 -1.97,-0.54 -2.77,-2.54 -0.25,-0.87 -0.22,-1.03 -0.34,-0.89 -0.27,-0.93 0.34,-0.69 0.96,-1.13 -1.03,-2.5 -4.99,-1.35 -2.51,0.78 -3.54,-1.98 -1.89,1.23 -1.78,-1.23 h -3.56 l -0.8,-0.72 -0.41,-0.82 -0.07,-1.06 0.25,-1.4 0.28,-1.02 0.3,-0.63 0.32,-0.22 0.47,0.44 0.83,1.99 0.43,0.44 8.32,1.53 8.32,1.53 3.64,6.18 0.94,0.9 0.9,-0.36 1.42,-2.47 0.47,0.08 0.21,0.38 0.14,0.45 0.04,0.6 -0.11,0.76 0.34,1.37 0.61,0.61 1.2,0.14 -0.15,-0.73 0.53,-1.53 0.52,0.43 0.51,1.17 2.15,2.42 9.49,2.44 1.3,-0.78 1.08,-2.62 0.35,-1.11 -0.05,-0.49 -0.31,-0.96 -0.31,-0.69 -0.91,-1.2 -0.49,-1.22 -0.3,-0.36 -0.01,-0.45 v -0.55 l -0.1,-0.48 -0.76,-1.09 -0.21,-0.9 0.59,-1.2 0.75,-0.88 0.74,-0.2 0.59,0.82 -0.26,0.55 -0.13,0.11 0.68,1.37 2.4,1.42 1.85,2.73 5.95,-0.18 2.16,1.26 4.93,-1.08 0.74,-0.93 0.64,-1.37 0.17,-1.71 -0.4,-3.41 -0.25,-1.32 -0.36,-1.19 0.72,-2.28 1.2,0.99 2.11,4.67 1.23,1.61 2.71,-1.27 2.59,0.87 2.86,-1 2.22,-2.7 0.32,-0.15 0.26,-0.34 0.5,-1.53 0.25,-0.34 0.15,-0.33 0.05,-0.78 -0.03,-0.86 -0.11,-0.61 -0.26,-0.62 -0.81,-1.23 0.35,-1.26 0.15,-1.9 -0.04,-2.01 -0.19,-1.52 -0.53,-1.32 -1.3,-1.3 -0.57,-1.17 0.12,-0.81 -0.97,-1.05 -0.4,-0.75 0.03,-1.13 -0.13,-0.8 -0.31,-1.34 -0.11,-0.86 0.19,-0.23 0.5,-1.28 -0.63,-0.79 -1.93,1.61 h -2 l -7.52,-2.66 -7.51,-2.68 -6.23,1.51 -0.52,-0.3 -1.44,-2.79 0.04,-1.55 -0.46,-0.73 -1.04,-0.68 5.08,-1.34 5.08,-1.35 1.92,-2.36 8.99,3.42 0.52,1.63 h -1.23 l -0.63,0.41 -0.56,1.04 1.03,1.65 8.38,-1.8 3.8,1.7 5.09,-0.04 0.49,0.83 -0.73,0.85 -2.36,-0.1 v 0.83 l 0.33,0.38 0.2,0.94 0.17,1.21 0.24,1.16 0.33,0.73 0.73,1.02 0.27,1.19 -0.05,2.21 0.59,1.32 5.71,3.34 4.63,-0.81 3.14,2.6 2.04,-1.97 2.12,-0.44 1.54,-1.9 8.96,-3.92 1.96,-2.77 4.7,-2.93 1.02,-1.36 0.04,-1.52 1.36,-0.81 0.35,-1.97 0.22,-1.67 1.1,-2.7 0.43,-1.4 -5.23,-2.66 -4.9,3.19 -0.6,-1.22 0.21,-1.94 0.67,-1.71 0.76,-1.23 6.56,-2.76 6.56,-2.77 0.66,-1.92 -0.14,-0.77 0.85,-2.81 2.08,-0.41 0.83,-2.12 -0.2,-1.15 -0.12,-2.92 -0.22,-0.58 -0.43,-0.21 -0.53,-0.58 -0.5,-0.89 -0.35,-1.16 -0.81,-1.65 -7.01,2.32 -6.22,3.5 -3.92,2.68 -3.69,-0.66 -2.53,1.33 -6.38,0.67 -3.4,-0.7 -0.3,-0.85 0.2,-0.15 0.15,-0.3 0.31,-1.09 h -1.34 v -0.78 l 5.57,0.52 4.09,-2.86 V 412 l -0.61,-0.43 -1.84,-3.34 -7.76,-7.18 0.79,-1.65 0.92,-0.24 3.29,4.07 3.26,0.33 1.23,1.17 0.58,1.03 1.02,3.38 0.25,0.53 2.08,2.33 4.57,-0.39 2.88,-3.54 4.96,-3.87 6.9,-2.43 5.26,1.09 5.26,1.1 1.01,-0.5 1.5,-4.39 1.66,-1.53 0.74,-2.08 -1.1,-2.63 -8.55,-6.89 h 0.13 l -0.36,-0.58 -0.13,-1.18 0.05,-1.53 0.18,-1.57 0.38,-1.43 1.36,-1.78 -1.14,-2.16 -0.34,-0.24 -0.17,-0.39 -0.5,-2.84 -0.6,-1.54 -1.33,-1.63 -2.04,-4.57 -0.76,-0.96 -1.04,-0.55 -0.86,-1.26 -0.21,-0.83 0.1,-1.31 0.33,-0.47 0.38,0.05 8.89,11.17 1.27,2.72 0.97,4.01 -0.36,1.91 -1.11,3.36 -0.29,1.94 6.3,0.16 6.3,0.16 5.71,-4.94 0.83,-1.35 0.67,-2.48 0.13,-1.17 0.1,-1.31 0.13,-1.28 0.24,-1.08 0.99,-2.14 0.95,-3.91 0.68,-1.69 4.05,-5.62 0.7,-2.53 -0.84,0.06 -0.4,-0.43 -0.37,-1.19 3.9,-2.61 2.35,-4.45 1.35,-0.82 2.12,-3.37 1.43,-1.27 2.42,-4.71 5.77,-4.47 1.1,-2.06 1.46,-1.17 0.21,-0.8 -0.38,-0.97 0.59,-2.05 1.01,-0.61 1.9,0.15 1.53,-1.67 0.76,-1.53 0.66,-1.86 -1.14,-3.01 -0.34,-1.3 0.9,-1.57 6.42,0.69 7.11,-9.13 3.91,-3.29 2.78,-5.37 0.35,-1.09 0.62,-2.74 0.32,-1.12 3.27,-3.95 0.48,-1.28 0.48,-1.97 2.77,-2.47 2.3,-3.94 2.3,-0.18 3.92,-3.53 1.85,0.68 3.46,-2.28 5.55,-8.2 8.3,-7.55 4.39,-9.27 0.37,-1.21 0.26,-1.45 -0.22,-2 -0.29,-1.23 -0.7,-1.78 -0.26,-1.19 -0.19,-1.34 -0.2,-1.13 -0.3,-0.46 -7.61,2.11 -6.11,3.13 -9.56,2.34 -4.39,3.89 -5.07,2.33 -6.05,3.25 -6.06,3.24 -7.14,2.77 -5.65,3.53 -5.65,3.51 -0.15,0.57 -8.3,4.28 -8.29,4.26 -8.3,4.24 -8.29,4.23 -1.02,1.31 -1.92,4.57 -7.6,4.15 0.41,-1.29 3.56,-3.18 1.52,-2.54 1.54,-1.35 0.47,-1.04 -8.49,2.27 -2.78,-2.27 0.94,-1.77 4.72,0.71 4.38,-3.05 2.35,0.02 4.18,-3.67 1.01,-0.19 -0.72,-1.27 -1.65,0.01 -0.73,-1.29 0.95,-1.93 7.92,1.93 1.66,-0.78 1.1,-1.42 1.23,0.34 1.62,-2.04 2.19,-0.26 1.04,-1.21 h -0.13 l 2.64,-1.04 3.63,-4.31 2.15,-0.8 1.96,-2.95 7.45,-4.52 7.44,-4.54 3.34,-2.81 3.23,-1.56 5.77,-3.2 0.89,-2.17 -0.99,-2 -5.97,-2.67 -5.97,-2.68 -8.55,2.46 -8.56,2.46 -8.56,2.44 -5.39,-3.57 v -0.98 l 9.78,0.98 -0.65,-3.15 -8.44,-8.96 -8.43,-9.02 -1.12,-2.91 7.15,7.16 7.14,7.12 7.15,7.06 5.28,-2.01 5.29,-2.02 5.88,-1.18 5.88,-1.18 8.76,-1.59 4.6,0.34 4.68,-1.01 2.96,-3.57 1.05,0.06 0.31,1.91 1.41,1.68 9.48,-7.19 0.65,-1.87 -7.18,1.93 -3.16,-1.93 -2.68,1.54 -0.8,-1.54 6.71,-2.72 6.71,-2.71 0.4,-0.98 -0.14,-1.04 -0.16,-0.84 -0.18,-0.61 -0.19,-0.4 6.43,1.87 2.43,-1.22 0.8,0.59 1.97,3.08 7.99,0.83 1.39,-1.84 2.25,-0.89 0.79,-1.13 0.5,-2.21 -3.67,-6.87 -0.35,-1.57 0.78,-0.03 3.2,3.85 3.96,0.61 7.87,-7.75 7.86,-7.81 1.54,-0.3 h -0.13 l 5.19,-5.13 5.19,-5.15 0.48,-2.23 -0.43,-0.42 v -0.96 l 0.28,-0.98 0.43,-0.44 1.67,0.97 2.6,-1.08 3.36,-5.1 1.64,-3.84 1.74,-1.59 0.79,-2.12 -0.74,-1.65 -1.61,-0.73 -0.75,-1.43 7.04,-4.15 7.03,-4.16 2.98,-7.05 0.39,-0.48 0.43,-1.32 0.38,-3.18 0.25,-3.93 z"
         id="path2"
         style="fill:#000000;fill-opacity:1" />
    </g>
  </g>
</svg>
