<?xml version="1.0" encoding="utf-8"?><svg xmlns="http://www.w3.org/2000/svg" version="1.1" baseProfile="tiny" width="1200" height="800" viewBox="0 0 1200 800"><g><g stroke="#000000" stroke-width=".98" fill="#FFFFFF"><path d="m902.16 126.5l-.4-4.45-.61-3.08-4-10.06-4.48-5.22-.17-.56-5.16-.56-5.16-.56.08-1.47.05-.57-3.09 0 .27.89.13.22-.41 1.93-1.85 1.14.2-1.72.14-.71.18-.64-.12-1.11.6-1.7 2.47-.36 0-.93-5.52.48-5.53.48-.49 2.03.22.4.18.64.16.89.13 1.23-1.34-.19-.43-.93-.09-.66-.07-1.79-.1-.62-.16-.21-.57.21-.61.8-1.73 6.45-.89 1.74-6.62 2.34.52-2.1.73-.86 4.23-1.12 0-1.11-.53 0 0-.93.4-.13.2-.91.14-1.3.41-2.69-.02-1.15-.08-1.04.03-1.08.5-2.3.76-1.67.8-.94.62-.15-.67-3.44-7.99-2.78-.2-2.07 1.55.26.77-.87.64-2.62-1.8-2.41-2.16-1.06-.63-1.47-.37-.29-1.1.75-.38-.75.1-.73.19-1.71.11-.72-.75-.2-1.47-2.36-3.94-.59 7.11-3.01 1.09-1.61 1.04-2.88-.16-1.33-.07-1.39.06-1.32.17-1.2-.53-2.29-.76-1.33-6.75-.84-6.74-.83-3.77 7.28-1.26-.22-.57 1.34.11.44.18 1.2.1.49-.8 1.48-.9-1.11-1.72-4.15-2.61-3.21-.8-2.62.63-2.87.17-1.41-3.45-.21-.99-1.95.66-1.65 3.68.53.68-.9.49-2.4-.81-1.49-8.52 1.65-1.36 2.9-1.46.37-.59.99.95 1.45 2.21-.56.87 2.33-1.25.15-.59.64-2.48 6.02-.65.78.92 2.4 2.04.8.94 2.04-5.67-1.16-.94-1.23-.65-2.85 1.03-2.98.32-1.39-.69-1.82-7.03.12-7.62 6.58-7.61 6.55-.6 1.59-.33 2.93.21-.17.21.13.2.43.19.77-.63 1.5-3.77-1.9-4.74 2.07-.86 1.99-2.27.73-3.52 5.33-7.67 1.43-7.67 1.42-7.67 1.43-1.05-1.42.67-2.08 2.97-2.6 1.12-2.23 5.48-2.79 5.48-2.79 1.57-2.52 2.12-.2 1.57-2.12 1.16.32 1.02-1.41 4.73-1.7 1.88-3.5 5.96-3.03.9-1.97-.13-1.07 8.69-9.87.42-2.07-.48-.68-.24-.62-.22-.87 1.4-.95.35-1.22-.42-.45-.81.58-.78-1.51-4.96.29-1.64-2.33-.89-.38-1.31 5.16-.84.09-1.64-1.45.19-.99.62-2.17-3.14-1.47-.39.58.05 1.88-1.27 2.37-8.16-6.05-7.88 2.75-1.3 2.26-1.29 1.06-1.16-2.39.46-3.62.48-3.03-.56-1.51-7.09-1.68-2 3.19.12 0-.97 1.06-5.37 0-.63-2.06.19-4.91-.46-2.56-.77-.55-3.43 5.2-7.88 3.79-.8-2.07 1.02-.51 2.01-4.33 1-.66-.62-1.4-3.77.1-.5-.63.06-.37-1.48 0 .33-1.99 1.27-1.12.54-1.21-.35-.79-.67-.5-.32-1.04.73-1.76.36-.38.39.02-.58-1.85-7.37.3-7.38.29-7.37.3-1.45 1.87.26-.04.55.66.26.59-.66 1.37-.74.32-.73-.59-1.32-2.63-2.18.32.09 1.38.16 1.03.2.69.22.44-.42 1.22-3.08 1.59-4.14 6.16-.41 2.06.91 1.6 2.86 1.59 8.65 13.5.59 3-7.31-4.92-7.3-4.93.12-.58.06-.56.04-.54.05-.51-3.83-6.37-.61-2.97.58-3.61 2.71-6.8.88-1.26-.87-1.82-6.32-.44-6.33-.44-4.46 5.03-.41-.43-.94-3.11-.41-.45-2.16.95-1.68 2.31-3.61 1.52-.72 2.42 2.41 0-.92 2.19-6.17 3.84-3.68 7.84-2.69 2.03-.91 2.06-.65 3.05 1.6 2.5 2.32 1.38.66 1.8 1.19 5.14-.29 1.69.93.65 4.14 8.2 5.99 4.86 6 4.83 0 1.16-2.15.95 0 1.06.12.24.28.9-8.07-8.48-8.08-8.55-8.07-8.61-.73-3.22-.48-3.09-.24-1.24-1.08-2.95-.37-.46-.38.06-.15-.84-.24-.43-.1-1.14.09-1.95-.72-.29-2.88-6.16-8.38-3.22-8.39-3.22-2.03 1.83.14 0-.66 1.23-2.02-.03-.01-.99-.22-.32-1.62-.04-.91-1.36-6.89-1.1-6.89-1.09-1.98 3.02-8.75 1.97-8.75 1.96-.87-2.05.23.11.21-.34.19-.77.17-1.2-3.93 3.82-.56 1.43-.47 2.35 7.05 8.78 7.04 8.71 2.51 8.94 3.25 5.08 7.78 0-1.57 3.16-3.42-.61-1.58 2.76.77 4.64 1.18 2.79 1.28 1.23 1.06-.12-.1.98-.06.5-.11.53 6.52 4.43 6.52 4.4.78 1.72-1.2 2.8-4.04 1.08-4.95 10.41-4.95 10.31-.87.58-.63-2.43-.26 0 .64-3.81.74-3.31.82-2.33 1.39-1.55 1.64-4.4 1.05-1.33.5-1.11.46-1.8-1.32-.25-4.02-4.94-2.24-.35-.93-1.81-.69.17-.33-.63-.31-.96-.7-1.31-2.44-1.64-3.41-10.5-1.13-2.3-2.74-1.48-.67-1.29.18-.42.49-1.81-.42-2.45-3.69-9.53-6.98-4.67-6.99-4.68-4.49 3.39-.63 1.85 1.25 1.67.36.97.25 1.59-.1.82-.68.35-2.8-3.1-.82 1.91.5 2.19.76 1.47.8.74.62 0 0 1.07-1.35 0-1.61-2.94-1.41-.29-.7-.77-.18-2.44-.89.02-.98 2.6-.94 1.53-.79-3.18.91-4.96.15-1.51-.08-2.25-.31-.96-1.59-2.57-1.86-.8-1.8.78-3.86 10.43-.37.51-1.27-.81-.11-3.94-.86-2.77-1.08-1.59-.77-.37.07-1.29.12-.92.16-.59.18-.31-1.6-.05-.33-.6-.67-2.08-.33-.7-8 2.89-8.01 2.9-.92 2.67-.34.44-.67.11-1.07 1.8-1.56.28-.76.87.57 3.29.95 2.39 6.62 2.59 6.61 2.59 0 1.07-4.83.38-1.47 2.92 1.47.88-.15 2.9.7 2.2 9.08 3.99 9.07 3.97 9.07 3.96-.85 1.86-7.69.83-1.9-1.65-1.73 1.88-7.58-3.75-7.58-3.76-.99 1.02-.65 2.62.83 2.32 2.8 3.97-.41 1.18-.53.28-.53-.37-.95-1.55-3.5-2.11-.99-1.64-.61-3.14.22-.46.2-.72.38-1.97-.68-2.24-2.26-3.15.07-.48.12-1.15.07-.48-.71-2.56-7.56-2.29-7.55-2.28-7.56-2.29-1.31 1.03-.53 1.4-.33 2.23.16 1.45 1.92 3.95 2.19 1.56 1.91 4.35 2.13 1.64.73 3.52-.14.95.64 2.37 4.86 8.7 4.86 8.64.39 2.33-5.99 1.27-5.19-7.28-5.18-7.32-6.39-3.29-6.4-3.3-5.05 2.33-.84 2-.51 4.1 2.01 5.28 7.25 8.26.2.78 6.57 3.32 1.44-1.08.5 1.08-.41.72-9.77-.87-9.76-.88-3.59 10.48-.96 4.27-.03.84.11 1.81.28 1.65 9.26 10.71 9.27 10.61 9.26 10.51 8.27.42-.34.97-1.56 2.23-.15.43.01.73.17 1.41.61 2.23 6.98 3.65 6.99 3.64 6.98 3.63.57 1.56-.42 1.08-.91 1.43-.41 1.33 1.05 1.85 2.21.27 1.04 1.71-.15.96.6 2.6 8.81 16.34-5.84-.85-.78-1.06-.91-3.78-7.95-15.09-8.2-5.68-1.52 1.67-.98.01-.8-.86-.12-1.93-9.52-7.33-9.53-7.38.14 0-5.37-5.05-5.37-5.07-5.31-8.24-3.34 0-7.8-7.47-.59.46-.38.79-.11.68.09 3.25 0 2.57.04 1.31.19.82 3.36 6.27 4.11 11.94.84 1.27 9.25-.64 3.27 4 .97 3.31.36.57-.61 1.3-.77-.09-3.03-3.44-6.71-.55-6.71-.55-6.71-.55 0-.88 1.99-1.06.97-2.06.54-3.78-.34-.96-.91-4.48-.36-1.12-5.92-8.17-.38-1.15-.27-1.9-.06-1.79.06-.79-.01-.72-.27-1.57-.84-2.95-4.86-6.74-5.12-1.76-5.13-1.75-2.91 2.88-.86-1.87.15-1.01-2.68-3.99-8.33-4.1.89-1.62 4.96-.71.46-1.4-.71-3.19-.95-1.37-6.87.78-6.88.77-6.87.78-1.86 2.72-.45.17-.42.51-.35 1.65.46 1.02 2.12.07 1.59 1.84 3.09-.29.93 2.32-.67 5.08.38 2.02 1.89.05-.37 1.24-.77 1.68-.34 1.18.69 1.76 2.13 3.14-.99 1.92-2.15-.44-1.01.79-2.15 4.31-6.71 1.03-6.71 1.03-3.92-1.52-5.67 3-.6 1.77.37 2.61 2.57 7.58 9.67 5.22 9.67 5.19 9.67 5.18 9.67 5.14.77 3.24.16 1.57.25 3.57.13 1.02 1.24 2.85.37 1.47-2.29-1.52-1.06-2.05-1.08-3 .12-4.02-.28-2.35-.55-1.1-3.25-.78-.74 1.47 2.55 8.08 2.81 6.3-2.25-1.33-2.16-3.49-3.5-10.79-1.33-1.5-8.14.03-.99 2.7 1.84 5.6 4.58 8.53.69 3.08-.55 1.14-.59-.44-5.38-10.86-5.38-10.97-2.6-2.25-.99-1.9-1.87-.1-7.26-1.72-6.58 1.02-.45 1.09-.27 1.66.18 1.07 2.39 3.86.52.23 0 .96-5.63 1.83.81 2.73 5.4 3.4 1.13 2.3.56 3.09-5.5-4.97-5.5-5-.55-1.55 2.82-5.67-.39-2.08-3.51-6.62-4.21-2.02-4.02 2.02-4.03-3.97-1.39-.28-.42.28-.17.45-.34 1.25-.22.25-.77-.04-1.33 1.58-8.7 3.17-6.39 7.29-.99 2.56 1.34 5.74-.13.63-.13.41.26 1.74-1.76 1.89-3.38-4.82-1.81.31-.87 1.27-.48 1.09-.15 1.3.3 1.3.52.56 3.97.89.56 2.07-.61 1.01-1.76 4.91-1.41 1.69-.22 1.31.02.33.31 1.31-.68-1.46-1.61-.8-.6.19.3-1.45.11-.43-.31-.9-.36-.24-.74.2-2.17-2.68-1.24-3.58-.69-1.39.3-.65.63-.39.29-.86-.8-1.37-.84.19-2.5 2.9-1.77-.23.54.79.4 1.6-6.03-1.98-7.24 3.21-.89 1.54-.38.01-.15.48-.07.59-.01.44-.03.42-.1.49-.71 1.2-5.51-.41-1.52 1.63-1.23 3.68.57 1.78 1.84 2.91-.38.61-1.3-.61-1.75.92-3.75-1.94-1.69.7-1.7 2.48-.92 2.32-1.77.31-.43.8.26 1.03-.11.99-.55 1.77.26.84-.37.6-.75.46-.35.87.81 1.76-.94.59-1.82-1-.87 1.34.92.31.48.59.35 1.02-.91-.22-.44.49-.25 1.57 1.34 1.84 1.34-.28 1.19 2.13 5.28 1.16.78 1.47.54 4.2.11.45-.16.85-1.04 1.87 6.38-4.01.87 1.29-.21 1.03.18.38.36-.21.78-1.84.54-.76.56-.38.48.03-.83-4.64-.06-1.37.31-1.4.41-.94.83-.87 1.93-.21.97-1.07 1.26-4.38.65-.38 3.82 2.55 1.84-.27 1.49 1.8.51.12-.83-2.57-.4-1.77-.04-1.7.47-1.51.66-.31 1.22 1.1 2.01 4.84.53.67 1.12.18.5 1.07-.37.56-.38.21-.34.49-.25 1.42 4.96-.84 4.96 0-1.1 4.11-5.35.71-.27.78-.34 1.94-.18.69-.4.44-2.23-.31-7.28 7.03-7.28 6.98-.52 2.24 7.38 6.36-1.35 1.79 1.17 1.88 1.39.3 1.39-.97 1.8-2.86 9.26-6.36 5.3-5.44 4.04-2.34 6.45-4.69 7.16-1.76 2.11-1.36 1.99-3.02 1.19-.53 1.18.6.93 2.02-.27.99 2.2.83 1.73-1.74 7.19 3.49 7.18 3.48.47 1.22.18.79.2.58.2.33.22.11-.69 1.19-4.74-4.08-3.83.09-1.28-.99-2.07 1.71-.9-.33-.72-1.22.17-.6.14-.36.17-.13.21.1 0-.83-7.18 1.84-3.68-.07-7.7 2.97-.48.68-.4 1.82.56.45 1.12 2 .59.26-.63.86-.71-.09-2.05-1.87-4.94 7.68-4.12.6-3.03 5.55-6.19 2.82-.6 1.51 2.43 3.49 5.03 2.32 3.66 4.38 7.68-1.84 1.2 2.24-6.12 2.58-6.11 2.57-.9-.25-3.7-4.65-.96-.25-1.45 1.09-.88-1.07-.43-.17-6.16 7.23-.8 2.09-.27.45.25 2.29.41 1.78 1.38 3.75.86 3.84.44 1.48 1.96 2.98 1.64.92 1.06 1.64 2.31 1.62 9.62-2.09 9.63-2.09 9.62-2.1 9.62-2.1 9.23 1.29 8.87-5.25 8.21-1.8-.12 0 4.47-3.43 1.83-4.7 6.36-6.56 6.17-3.79 6.17-3.8 4.61-.57 1.37-.87 1.78 2.55.48-.14.43-.73.54-.31.5.47.3 1.61-.68.56-1.43 2.31-6.75 3.47-6.79 5.78-1.37 2.39-1.42 1.09-1.48 2.39-2.08 1.27-.7 1.07-.51 1.67.34 1.44.47.91.93 1.11-.55 1.03-3.08-.98-5.2 1.81-3.46 5.19-4.72 2.85-6.46-.05-2.13 2.02-9.41 1.04-4.14-2.17-5.76 0-5.65 0-8.76 2.21-3.23 2.96-4.82.52-1.46 2.08-1.72 1-.46.89-.09.8.22.97 1.27 3.47 3.95 3.37 4.95 6.51 6 3.61 4.84 5.72 5.42 5 4.03.7 3.69 3.56 4.73 1.42 3.7.22 2.18-3.91 1.28-3.29.29-3.6.4-1.51 8.73-12.67-.15-.91 1.22-3.69 1.99-1.73.41-.82 1.44-3.97 5-8.18 6.47-5.15 5.68-2.14 1.92-1.16 2.21 1.13 2.01-2.23 9-1.96 9.01-1.97 1.05.56 8.9-2.84 8.9-2.85 8.9-2.85 8.9-2.87.43.71-1.88 2.46-4.7 1.49-1.05 1.67-9.06 2.68-9.07 2.67-9.06 2.66-1.52 1.82-6.5 1.88-6.51 1.89-.55-.36-.87-1.69-.4-.09-.4.35-.34.74.28.93-3.83.78-.26.29-.47 1.22-2.55 1.91-1.72.09-1.09 1.21-2.25.6-3.45 4.24-7.37 14.22-7.37 14.05-2.68 7.88-1.19 5.59 6.18 4.05 6.18 4.04 1.32-.12 5.19-7.64 4.35-2.79-1.4 2.89-3.15 3.15-1.35 3.77 1.32 1.5 2.86-1.29 1.96 1.87 8.41 2.54 3.8-3.08 4.62-.19 5.76 2.57 6.21-3.1 3.54-.17 1.03-.78.87-1.87.43-2.08.73-4.88.45-1.67-.22-2.28-.38-2.09-.46-1.72-.45-1.17-.59-2.04-.05-2.11.38-1.54.69-.34-1.34-1.56-.39-.92 3.07 1.63.94-.8 1.12-2.95.43-.39.92-.23 2.9-3.11.33-.69.87-2.67.95-1.14 2.94 1.91-.51 1.63-4.04 5.9-3.33 1.4-.83 1.99.62 1.75.18.74-.4.84.44 1.08.52.5 3.87.34 5.87-2.98 8.28-2.27.43-.42.32-1 .29-1.19.34-.99.54-.41 1.14.21.95-1.56 4.8-2.85 2.05-2.83 1.05-.65 2.11 1.61 1.6-.14.41 1.05-3.57 6.76-1.67.85-2.39 3.36-6.71 2.57-6.7 2.56-1.09 3.13-1.1.79-2.02-.09-.73.68-.63 1.8-.53 2.51-.43 2.83.05 3.19.89 1.57 4.05 1.01 3.69-1.68 6.56-.55.26.25.73-1.31 5.16-1.87 5.16-1.87 5.07-2.83 6.57-.7 6.69-4.25 4.73-4.99 5.41-4.29 3.23-1.43 2.65-1.44 2.54-4.22 6.13-3.68 2.57-4.74.79-2.29.1-2.65.51-2.09.66-.69 1.33.25.6-.37 1.65-3.72.46-1.78.06-1.73-.28-1.02-1.21 1-.7.04-.69-.6-.61-1.19.28-2.12.16-.91 1.28-4.76.91-.97 2.06.06.8-2.54-.56-1.01-1.15-.49-6.06-9.2-.82-3.19 5.49 5.93 5.49 5.9 4.06-.79.91-1.47-.34.06-.34-.38-.64-1.42.48-3 .46-2.15.52-1.59 1.75-2.63 2.17-1.7 5.7-10.26 6.2-3.97 1.85-2.86 9.07-6.37 9.06-6.41 1.22.44.93 1.51-.29.97-4.06 3.53-2.06 4.01-2.43-.13-3.33 4.74-5.05 2.47-.82 1.88-3.45 2.88-2.91 4.6-1.31 3.79-2 3.36-2.05 1.67-2.26.17-1.26 1.02-.63 2.37 1.61.72-.59 3.08-.89 2.24-8.14 11.65-.46 1.27-.34 1.96.15 1 .39.9.4 1.65.33 4-.37 1.92-.62 1.41-.47 2.45.82 1.8.41.57.5.23 7.17-1.89 7.16-1.89 2.32-2.2 5.95.1 5.95.1 7.15 2.18 4.85-1.98 3.67.05 2.07 2.93-.63 2.8-1.05 1.2-5.55.86-5.55.86-7.27-.19-4.38 2.01-8.97 1.4-.86 1.59-2.06 1.24-3.78.27-2.08 3.26-4.15 1.04-4.48 4.12-6.12 1.6-3.46 4.12-6.72 3.98-1.03 1.65 0 .75 6.75.07 6.76.08 9.57-.71 7.51 1.13 7.51 1.14 0 .67-.1.02-.05.21-.05.32-.07.34-.14 0 .05.61.09.21-.41.96-1.11.64-5.78-.39-5.78-.4-2.22 1.77-2.24-1.07-2.21 1.75-7.62-.36-1.56 1.76-5.3.62-5.3.63-6.08 2.29.31 1.25.7.46.34.65-1.17 1.86-8.22 2.43-8.22 2.42-8.22 2.42-7.37.82-5.36 1.73-5.36 1.72-6.1 2.29-6.09 2.28-.91 1.43 0 .71 3.99 4.35 1.16 4.08 8.3 14.8 6.85 11.02 1.92.93 1.39 2.15 5.31 2.07 5.3 2.07 1.05 1.63-.75 1.45-2.46.08-1.61 1.6-.23.46-.05 1.02.1 1.02.68 1.25.4 1.86.64 3.85.11 2.22-.41 1.89-.83 2.33 1.22.35 1.19 1.16-.1 1.09-.44 2.59.2.35.39.35 3.55-.64 8.63 7.3 8.55-2.3.87-1.61 6.34-.94 6.34-.95-3.28 6.38-.65.32-2.58-.61-5.24 2.57-5.24 2.56-.44 1.44.28.5.29.33.27.49.24 1.02-7.74-3.99-7.74-4.01-1.47.13-2.62 4.39-1.26.77-2.66-1.87.27-1.39.45-.23.49.51.41.78.41.45.48-.21.47-.6.38-.72-1.21-2.61-.18-1.87.32-3.03-3.15-.02-1.57-1.04-1.46-2.68.17-1.39.1-.46.15-.34-.31-1.15-.67-1.88-1.17-5.39-.59-2.07-1.3-2.96-4.96-6.86-4.96-6.9-8.53-9.32-4.51-8.18-8.69-12.07-4.89-2.03-5.77-.59-5.76-.59-6.74.59-6.75.59-8.05-5.42-3.26-2.7-5.32 1.07-5.33 1.07-.7 1.12-.6.15-.23.73-.02.56.04.67.06.43.06-.15-.14 2.51-.09 1.13-.17 1.18.14.79-.19.45-.17.86-.13 1.1-.06 1.17-.13.62-.65 1.7-1.04 4.24-.21 1.85.16 2.96.24 1.49.61 2.15.28 1.44.05.65.01.62.02.53.09.36.87 1.86 1.83 2.63 9.57 1.8 1.56 1.57 6.88 1.38 1.89 3.53 3.34.89-.65 2.13-.89.76-1.69-.61-2.26-3.34-6.74-.67-1.7-1.6-6.78-2.03-1.65 1.21-.72 1.47-.32 1.42-.15 1.62-.12 1.71-.22 1.67.13 1.14.15 2.45.13 1.11.34 1.34.77.92.36.7-1.77-.01-.26.23-.15.91-.13 3.05.01.91.12.86.3.97.48.74 5.72 2.37 5.77 3.79 4.6-1.2 6 3.22 2.88 3.21 3 3.56-.3 1.46-.25 1.44.89 1.4.41.99.32 1.36-.1.56-.06.48.01.43.11.44.74 1.55.61.47.29.55-.22 1.79.32 1.12 3.73 4.26 1.94.82 1.64 2 .38.91.02.42-.02 2.18.08.96.19.22.22.09.18.56.07.97.06 3.36.08.9.09.3.07.35.08 1.94.11.4.15.28.5 1.62.45.56.41.74.21 1.61-.28 0 .29 1.43.26 1.63.09 1.55-.23 1.17 3.65 1.01 1.15-1.21 1.64-3 .74.27.6 2.93-.99 1.25-.52.98-.37 1.26.22.48.24.28.24.1.24-.08-.07.4-.04.33-.06.3-.11.32.65 1.12 1.59.47 2.98 2.74.68 1.4-.12.09-.28.55.41.71 2.96 2.37.86.04 1.77-1.97.85 1.09-.71 1.91-.94.79-5.23-1.14-5.24-1.14-.23-.42-.07-.36-.02-.45-.01-.42-.03-.24-.25-.56-.33-.52-.38-.33-.37 0 .22-1.56.18-.49-.05-.18-2.22-2.72-3.45-.14-2.2-1.67-1.03.16-2.94 3.54-.87 1.64-1.29 1.01-.31 1.05-.02 2.49.6 1.43 4.75 2.42 4.51 6.15 6.23-.68 5.72 2.89 6.61.2 7.11-.92 6.98 3.95.99 1.38.51.33 8.07-3.19.4-.57 1.34-3.2 1.18-1.67.29-1.05-.27 0 .62-2.45 1.16-1.53 6.25-4.34.3-.87.22.68.77.55.34.88-3.16 4.63-.33.98-.19-.07-.32.58-.3 1.12-.27 2.97-.67 2.01-.26 1.13 1.57 1.65.44 1.19-.43 1.6-.25.43-.26-.01-.1 2.2-.85.62-1.05-.46 1.34-.97-.64-.89-4.82-.11-6 1.98-.62 1.08-.89.82-4.83-.69-6.57-1.99-4.41.4-1 1.46.2.68.3 1.81.14.5.33.35 2.2.05.38.41.84 1.94.7.6 1.45.07.7.54 1.67 3.05.62.37 8.49-2.55 1.51.79.85 2.45-.55.7-4.54-1.39.14.69-.5.95-1.93 1.1 1.59 3.75 5.26 6.44.11.62.03.33 0 .47-.5.25-1.53 1.77-.67-.21-1.28-1.46-1.27-.6-1.41-1.47-.58-.99-.22-.7-.08-.69-.1-.63-.28-.53-.92-.72-.29-.8.28-.74-.25-.5-1.04-1.13-.6-1.1-7.32-3.17-1.93-2.29-1.21-2.47-4.45-2.06-3.84-4.69-9.4-1.62-9.41-1.62-6.36-5.18-2.63 1.01-1.07-.8-.51.29-2.69 3.36-2.13.8-5.18 4.49-5.06-.63-9.6 3.6-.9-.9-.57-.09-.56.28-6.47 9.55-.4 1.83-.15 2.81-.4 1.94-2.54 5.43-.07 1.05.4.75.91.6 2.97-1.36.89 1.36-.01.12-.01 1.21.02.69-5.86-.06-6.36 9.56-.57 1.62-.35 2.38.57 1.7.03 1.85-.21 2.15-.13 2.56.06 1.04.28 2.18.06 1.39-.1 1.1-.39 2.14-.05 1.07.68 1.38 1.35.27 1.42-.48 1.34-1.37 1.53 1.56 2.14.6 0 .59-6.74 1.88-1.12 1.61-.86 2.45.39 1.05.56.61 7.03.32 7.03.32.87-.79 3.06-4.96.78-2.49.45-.81.41-.03.88.84 1.66-.26 1.33 1.36 1-.94 1.81-3.25 1.19-1.24.27-.91.09-.99.05-2.07.11-.89.21-.46.87-.8.12-.31.13-.44.18-.39.62-.35.77-1.11.32-.76-.08-.82-.01-.57.07-.54.16-.72-.14 0 .3-.55.32-.24.32.15.27.64-.27.57-.12.15.27 2.74-.27 1.26-.53.91-.55 1.64.23.49.13.18.17-.01-.24 1.22-.31.65-.27.8-.11 1.67-.26 1.26-1.63 2.34-1.46 3.4-.41.52-2.08.53-.62.77.11.3.17.67.14.34 0 .7-.36.32-.26.93-.39 2.29-.07 1.58.36 1.09.5.67.35.25 7.24-2.58 7.24-2.59-.39.54-.2.14-.21.02 0 .59.73-.29 1.96-2.96.13-.97.46-1.18 2.42-3.96.77-2.53 2.22-4.89.51-.64.59-.34 0-.66-.17-.17-.11-.29-.07-.53-.05-.93.4-.38 1.03-1.89.32-1.09-.26-.99.01-1.41.17-1.38.22-.93-.25-.83-.11-.23-.18-.15.15-1.09.23-.6.57-.58.27-.59.36-1.55.23-.31.29-.64.18-1.45.1-1.58.03-1.02.47-1.45 1.81-3.62 1.19-3.2.64-.82.59.96-.4.6-.42 1.08-1.15 3.93-1.38 2.52.39 1.92-.24 1.03-.46.98-.24 1.76-.06 1.76-.16 1.9-.22 1.67-.24.99 0 .22-.14.27-.13.39-.12.51.55.45 1.06 1.65.54.49.64.03.6-.38.58-.78.59-1.16.32-.44.41-.07.34.51.14 1.3-.24.95-4.32 1.66-.82 1.74-.44 2.21-.22.72-.97 2.25-.3 1.04-.37 2.87.39 1.23 1.52.19 2.31-1.81 6.41.5 3.96 2.61 3.82 0 0 .65-3.54 1.85-3.61-3-4.51-1.18-4.28 3.28-3.78-.95 0 .66.32-.1.26.23.17.48.05.69-.92 2.99-1.09 2.27 4.8 4.3 2.23-.08 2.91-2.08 5.89-.2-.97 1.14-3.93-.37-1.13.88-1.81 2.61-.35.27-4.28-.65-1.78-1.72-.91-.27-5.85 5.31-5.85 5.29-.37 1.4.53 1.51 3.22.72-.26.19-.16.54-.05.84.07 1.04.29.95.41.11 2.36-1.17 2.27-2.37 6.72-.85 6.71-.84 4.59 2.84-.81.87-6.26-1.81-4.2 6.51-.31-.27.38-1.76.87-2.9.13 0-.6-.71-.61.17-1.2 1.23-1.49.46-2.81-.93-1.39.28-1.37 1.25-1.26 2.42-.33 1.34.08.99.35.71 1.07.87 1.27 0 2.25-1.67 1.03.08.88-1.39.76-.76.73.04.5 1.4-.46.92-1.69 1.61-2.12-.44-.5.73-.16 1.29-.08 1.33-.17 1.03-2.74 1.74.24.89 1.37 1.56-.26 1.42-.37 1.29-.13 1.17.48 1.05 5.52 3.33.73 1.4.4.47 4.45-3.37 1.87-2.72 1.48-1.06.52-1.32.16-.66.34-1.02.11-.54.26-1.89-.11-.28-.26-.88-.02-.02-.05-.05-.24-.09.06-.05.07-.02.05.03.06.04.03.03.01 0 .29.17.28.31.25.47.18.65.15.74.03.31-.76 3.07-.67 1.34-1.69 2.14-.75 2.17-.44.63-3.55 2.95-.42.71-.23.88.22 1-.15.68.38 1.07 1.18 1.68.47.4 8.36-1.12 4.89 2.09 3.52-.35-.17.3-.18.61-.08.61.16.28 4.69-3.72 5.01-6.61.62-1.46 1.26-4.43 1.7-2.13.74-1.35.33-1.26 1.2-5.96.3-.8.73-1.32 1.38-1.43.28-.93-.12 0 .25-.97.29-.8.18-.72-.07-.69.46-1.08 3.46-3.2.45-1.14-.05-1.8-.57-1.8-.5-2.09.18-2.7.38-.95 2.1-3.21 2.9-1.76 3.68-.22-.26 1.19-.41.68-.32.71.03 1.3-2.26-.24-1.15.51-1.01 1.66.21.87.74 1.76-.07.34-.06.14-.15.1.18.7.49 1.32.28.55-.32.59-.68.26-.34.43.8 1.98-1.53 1.76-.42 1.11-.09.75.02 1.58-.13 1.17-.66 2.17-1.67 1.67-.76 1.29.4.51.15.06-1.97 6.21-1.04 1.17-.35.18-.13.5-.12 1.1-.16 1.1-.26.5-.74.61-4.6 9.5-.83.49-.3.37-.77 2.78-.34.77-.3.46-.7.63-1.56.42-1.38 1.91-.96.81-3.52-.03-.64 1.26.72 2.68 6.18 3.38-.07.58.3 2.05.12 1.17-5.84-2.47-5.83-2.47-5.76 1.22-2.75-1.47-1.5.02-.85 2.07.38.27.41.62.22.94-.21 1.27.55 1.05 1.24 1.49.36 1.67-5.77-1.77-3.47-4.68-1.22-.86-7.86-1.54-.63-.8-.73-1.73-.24-.23-.29-.12-.3-.36-.26-.6-.16-.82.28.07.28-.2.27-.44.25-.66-.17-.56-.18-.38-.19-.22-.21-.08-.21.16 0 .36.05.42-.04.3-.43.36-.86.12-3.08 3.15-.85.06 1.17-2.86.34-1.57-.47-1.56-.77-1.15-.28-.77-.26-1.34-.68-4.33.11-.69-.14-.5-.24-.45-.2-.57-.12-.95-.05-.99-.09-.97-.21-.83-.46-1.46-.81-3.17-.34-2.04-1.93-1.89-2.79-5.49-4.63-4-4.15-1.65-3.58-3.29-6.76-1.4-8.32 3.81-8.32 3.8-.76-.34-.69-.78-.59-1.39.15-.16.06-.15.06-.33-1.33-.03-.42-.55 0 .58 2.09 3.39.2.48-.36.52-1.13.74.25 1.67-.3.72-1 .14.2 1.16.36 0 .41-.26.35.36.18.82.1.85-.02.79-.12.63.14.69-.83 2.18-.37 1.4-.15 1.49.21 1.27.45.91 3.48 2.36 2.06 2.77.45.17.74-.13.36.17.31.59-.2.34-.2.22-.21.09-.21-.04.29.95.35.51.71.4 1.27.06.35.62.08.53.07 1.27.1.68.45.9.26.7.1.81-.46 1.69-1.73.89-.49 1.78.14 1.56.48 1.13.57.7.43.3-.4 2.44.78 1.5 6.51 1.73 4.41-3.11 5.34.44.38.67-2 1.22-2.13-.56-1.04.59-1.98 2.55-1.03.52.62 2.28.91.69 3.47-.62.81.43.77.86-.45.58-1.43-.03-2.28 1.47-.36.48-1.14 2.21-.25.13.33.73.32.35.7.13-.27-.6.53-.72 3.98 1.38.56.66 1.41.92 2.97-1.17 1.43 1.34-5.65.66 0 .54.51.2 1.49 2.2-.65.7-.93-.14-.95-.72-.68-1.04-.07-1.24-.44-.29-.56.04-.41-.25.14-.66-1.19-.95-5.45 1.1-.58.65-1.36 2.8 0 .66 2.42 1.2-.84.92-1.85-.5-2.17 1.2-.59-.27-.06-1.35-.52-1.44-.63-.42-1.88.83-1.79-.83-5.17 2.49-.75-.63.33-.55.16-.11.19 0 0-.54-3.15-.57-1.95 1.49-1.99.46-.96 1.02 2.21.32.74-.32-.52 2.08-.76.43-.82-.18-.68.2-2.08 2.54-1.53 2.66-5.3 2.81-.09.36.38.42-.44 1.54-9.3 6.39-1.25 2.1.5 1.59.18 1-.02 1.04.21.61.17.69.3 1.63-.04 1.48.39 1.09.55.7.43.23-.14 0 .22.18.1.15.1.25-.35.01-.66.57-.34.06.23 1.52.3.86.18.82-.16 1.39-.4 1.02-2.98 2.55-.39 1.06-.02.47.08.54.04.63-.1.72-.27.55-.64.21-.29.39.48.8 1.13.45 1.08 1.45.44-.44.75-1.97.42-.34.38.52.34.99.27 1.13.11 1.28-.21.83-.27.7-.1.92.36.64 3.05 2.79.16.25.33 1.51.57.71.71.42.71.04.58-.43.75-1.57.38-.22.31 1.05-.1.99.32.72.48.42 1.65.15.23-.21.07-.48.04-.57.13-.45 1.54-1.37.34-.96.07-1.28-.2-.87-.67-1.28.84-1.91.2-1.1-.37-1.63.94-.76.14-.63 0-1.14.03-.54.09-.39.5-.4.53.61.49 1.24.36 1.48-.26.4-.26.64-.2.92-.08 1.2 1.07 2.41.26.74-.55.23-.33.7-.22 1.26-.23 1.86-.24 1.13-.05.75.15.66.39.4.49.08.48-.24.39-.5-.45-2.31.76-2.48 1.84-3.26-.29-.81-.19-.98.02-.94.31-.7-.68-2.85-.88-.57-.9-.02-.75-1.17 1.27-1.97.08-.97.12 0-1.73-5.4-.68-.98.37-1.83 1.17-1.82.54-1.33.61-2.35.31-.92.32-.67.62-.63.33.51.14 1.41.02 2.09-.12.69-1.24 2.43.02 1.57.21 1.21.92 2.12.21 1.87-.13.89-.56.97-.12.45.08 1.03.2.53.81 1.25.28.25.26.4.25.93.05.64.03 1.67.04.57.43.9.55.62.33.87-.23 1.62.14.82-.48.81-1.13 1.23.54.2.28.25.19.43.23 1.13.15.3.23.02-.4.69-.4.38-.37.56-.31 1.17.6.88 9.5 2.45.36-.44.15-.5.29-1.31.23-.46-.1-.27-.17-.87.83-.63.39.15.26 1-.28 0 .8 3.49 1.38 1.88 1.5.33 1.16-1.12-.08-.44-.1-.83-.08-.42.46-.17.41.06 1.74 1.62.46.16.41-.54-.89-1.45-.51-.54-.47-.28 1.04-1.17.3-.58-.14-.52.11-.47.03-.26 0-.36-1.51-1.07-.72-1.06.01-1.65.86-2.18.14-.71-.21-.87-1.37-1.27-.37-.74.01-.67.19-.8.14-1.1.14-1.73-.04-.37-.11-.38-.1-.46-.01-.57.41-.89.73.47.77 1.12.5 1.08-.16.96-.11 1.25-.17 1.01-.36.24.34 1.22 1.24.9.49 1 .08 1.15-.22 1.01-.59 1.59.63.83 4.89.59.58 1.2-.01 1.2-.41.67-.25.65.48 1.17.76.71 4.78 1 1.1 1.03.77.19.6.53.08-.2.02-.47.07-.57.58-3.77.95-3.39.02-.98-.48-.39.32-.96.47-.27.52-.04 5.32-3.36.34-.57-.11-.64-6.33-8.58 1.05-.4 1.2 1.25 2.2 3.66 3.37 2.94.49 1.81-.59 1.62-3.3 2.13-.23.91-.03.98.13 1.85 0 .76-.04.5-.03.44.07.58.14.31.67.83-.14 0 .61.68 1.27.17 1.27.96 2.82.36 1.46-.5 2.68 1.65 2.71.17 2.73 1.54.68.07.58.31 1.13 1.47.57.48 3.6-.67.22.39.06.5.01.43.02.39.11.4.47.52 7.76-1.03 7.77-1.03.43-.49.09-1.1-.32-.9-5.31-3.45-5.3-3.45-.37-.49-.32-1.11-.23-.65-.29-.31-.27-.47-.22-1.11.22-1.21-.08-1.13-.29-.96-.38-.76.17-1.17.12-2.48.11-.95.44-1.05.5.12 1.69 1.93 1.11 2.33.88 2.69.07 2.06 1.55 2.06 1.63 1.26 1.65.47 6.15-1.11.37-.34.33-.67.07-.52.04-.69.09-.66.2-.42-.22-1.22-.85-2-.35-1.05.07-.68.86-4.07.14-1.14-.01-.94-.31-.4-1.17-.72-.62-.76-.49-.88.71-1.11 1.07.24 2.68 2.21.44 1.23.6 3.83-.04 1.82.95 1.81 2.04 2.11.48 1.72 1.87.87.86 1.42.04.27.05.48.07.54.12.47.13.23.36.3 8.12 2.1 1.09-.43.76-1.63-.57-1.38-.22-.32-.15-.09-.14-.2-.12-.34.26-.86.78-1.77.16-.49-.19-.92-.41-.39-.41-.58-.19-1.55.01-2.51-.11-.87-.3-.96-.51-.95-1.1-1.32-.54-.93-.17-.56-.24-1.32-.13-.46-1.89-2.3-.37-.93-.16-1.41.22-1.16 1.39-1.78.47-1.01.39-.56.4.02.49.7-.53 1.22-.27.85-.15.85.05.99.29 1.88-.07.61.36.72 2.94 3.14.45.82.01.21-.02.71.01.19.18.26 1.23 1.01.22.51.22.95.58 3.7-.22.7.03.77.2.74.26.61-.48 1.1-.2.75-.12 1.01 1.98 2.46 2.9 1.88.68 1.46.34.51 5.08-.43 5.08-.44 2.13-2.01.68-1.18.1-1.37-1.53-3.86-.28-1.6.32-1.84 2.49-2.18-4.18-3.93-1.69-.42-2.54-3.62-.97-2.57.13-2.77-.46-.86-.95-.74-.47-.79.27-.58-.46-1.68-.75-1.46-.81-1.05-.65-.49.85-.55.81.91.79 1.31 1.15 1 .25.74.21.88.22.69.93 1.39.28.64.66 2.65.29.84 2.33 4.04.96.78 1.93.4 5.62-3.29 1.8-1.92.17 0 .13.26.06.63-.08.56-.18.22-.2.1-.15.25-.39 1.01-.47.35-.94.09-2.29 2.65-.81.24 1.35 1.73.12.99-.11.34-.22.13-.19.32-.61 2.28-.74 1.74.52.9 2.35 1.8 7.78 1.84 2.66-.84 1.07-1.61.52-.37.62-1.31.81-2.38.8-1.09.59 2.54-.62 1.96-.19.86 2.38-.19 1.34 1.17.6.17.57.49.54 1.5.91 1.3 1.36.87 1.03 1.36-.08 2.79-.4 1.21-.56 1.21-.58.94-.47.37-.28.5-1.12 4.46-.18.49-1.31.9-.26.43-.11.72.03.66.02.58-.18.47-.84.94.59.88 1.44.31.65.49 0 .61-1.65 1.21-.48.98-.26 1.09-.05 1.09.2.67 2.61-1.4 1.01-2.19.66.02 1.25.72 2.41 0 .35-.36.49-1.76.31-.68.41-.22 2.82.25.39-.31.87-1.41 2.74-2.09.96-.21 1.83 1.55 5.35-3.67 5.34-3.68.96-.06 3.01 1.72 1.06-.45.82-1.65-.31-1.59.44-1.7.74-1.31.61-.45 0-.57-.39.06.02-.52.24-.7.26-.54.39-.42 2.75-.75.76-.87.66-1.38.35-1.18.85-4.07.37-1.29.84-1.93.41-1.32-.15 0 .5-.78.61.04 1.18.74 2.28 0 0 .57-.94.53.11.89.14.83.15.7.15.5-.16.6-.17.46-.36.66 1.12 2.46 1.27.93 2.59-.53-.26-1.72.49-1.02 4.19-2.42-.11-1.18-.24-.74-.59-.95.42-1.18.89-1.34.37-1.24.3-.73 1.1-1.6.38-.3 2.44.27 1.18-.61 1.12-1.98-.62-1.16-.21-.86.01-1.46.1-.51.17-.55.19-.45.14-.18.3-.24 0-.54-.23-1.08-.09-1.13-.1-.72-.04-.66.1-.94.25-1.08.36-.81.73-1.09-1.61-2.34-1.44-.91-.44-.8 1.2-1.88-.37-.74-.86-1.09-.12-.53.07-.79.19-.87 0-1.07-.52-1.4-3.43-4.95-.8-.21-3.94 1.09-.28.55-.39.02-.34.18-.31.53-.3 1.06.13.21.28.7.13.22-.82.96-2.04.67-.63 1.92-.07 1.66.1.81-.04.52-.52.72-.63.48-1.93 0 .24 1.82.31 1.71-.47 1.27-4.78-1.27.17-1.27.28-.85.63-1.41.04-.43-.01-.6.02-.52.32-.4.17-.46.15-.57.13-.57-.7-.84-1.52-.55-.75.16-1.23 1.16-.37-.09-.39-.34-4.99.4-.27-.41-.11-.99.04-.96.11-.3.15-.11.65-1.88 4.94-8.37 1.31-1.35.41-1.23-.23-1.18-.94-1.69.19-.19.17-.37.16-.52.14-.66-.45-.95-.96-.61-1.92-2.87-.9-.76-1.86-.26-1.74-1.75-5.59-.42-6.04 4.81-5.77 9.47-1 .58-.74-.71.68-1.57 1.89-2.08.77-3.81 1.83-1.86.6-1.48-.59-.5-3.39-.61-.17-.1-.94-1-7.12-2.53-7.12-2.53-7.35 5.73-.93 1.26-1.85.61-2.59 3.11-1.3.09-.76-.44-.66-1.08-.36-2.01.18-.11.11-.23.24-.87-.25-.57-.21-1.62-.22-.84-.46-.7-1.54-.51-3.49-3.09.9-1.26 5.94 2.31 6.35-1.49 6.35-1.48.57-.82-.2-2.77-.51-.95-5.34-.16-1.95-1.53-1.85-2.57-.82-.57-.42-.62-.18-1.29.09-.98.21-.84.52-1.26.59-1.97.03-1.68-.39-1.44-.98-1.83-.59-1.58-.21-.79-.4-1.05-1.42-.56-.33-.51-.34-.81-.3-1.1-.34-2.15-.05-.08.03-.91.05-.65.09-.25.06-.28-.06-.76.41-.47.6.45.6 1.09.41 1.44-.25 1.98.44 1.04 3.61 2.43.61 1.46-.28.52-.3.16-.62-.05 0 .61 1.6 1.3.41 1.24-.23.57-.12.83.07.76.34.32.45.19.87.85 1.16.43.76.7.74 1.16.65 1.6.4 1.46.21.55 1.59 1.56 3.58 1.35-.14 0 .2.4.23 1.18.1.26.75.28 3.81 3.99 2.77.89 1.7 1.44 1.71.29 1.43 1.01 1.79-.59 2.01 1.27 4.42.61.49-.22 2-2.51 3.89-.92 5.01 1.35 5.02 1.35 1.53-1.85 1.03-.43.49-.75.94-2.44.7-.68.97-1.61.47-.48.96-.12.47.22.44.5-.54 1.59-1.74 3.9 1.47.41 1.49-.73 3.69-4.12 4.15-1.11.72-.85.42-1.53-.93-2.46 1.59-1.89 3.5-1.76 1.49-3.74-.71-2.59-.11-.57.15-1.09.41-.48.92-.29 3.36-2.92.4-.81-.4-1.05-.38-.56-1.48-.2-.3-.27-.13-.75-.01-1.04-.03-.28-.08-.27-1.03-1.56-2.23.61-1.04-.93.42-.97.98-.21.4-1.02-.04-1-.39-.91-.48-.66-.35-.25.86-1.22.89-.73-.14 0 .13-.06.41-.51-.31-2.37-.09-.85.26 0-.61-1.99-3.15-2.38.06-1.51-.36-.52-2.44.01-.48-.58.14 0-.41-.01-.28-.49-.23-.72-.3-.69-1.01-.98-.34-.94.43-1.43.57-.92 3.84-2.76-.37-1.09-.45-.36-.92.11 0-.65 1.08-1.46 6.58 5.62 7.11-.27 7.11-.28 1.78 3.16 3.57.92 2.63-2.72 4.06-1.08.75-1.6.46-2.06.26-.59 4.53-2.84 1.05.26 1.02 1.02.56 1.05 2.13 1.11.33.53.08 1.22.67.69.64-.88 1.22-3.08 3.08-4.51-.13-.7 1.96-3.73.12-1.69-.69-1.7-1-.61-5.11.21-5.12.2-2.03-1.88-6.21-1.12-.71-.77-.8.06-.17-.28-.32-.85-.18-.18-1.96-.01-1.02-.57-.78-1.44.53-1.59 3.9-1.83 1.07-1.1.58-.13 4.8 2.25 3.25-1.47 5.55 2.27 5.56 2.27 1.08-.63 1.05-1.23 1.35-2.71.74-1.97.79-3.8 1.09-.35 1.91.83 1.9-.25.96-.97.8-2.07-.51-.38-.32-1.03-.29-1.26-.4-1.12-9.51-4.42-9.5-4.43-.37-.39-.19-.94-.14-1.12-.24-.96-.46-.59-2.58-1.23-7.71 1.06-.29-.43.06-.65.51-.84.5-.36 1.03-.12 1.62-1.42 7.2 1.05 7.19 1.05 7.19 1.04 4.18-2.55 3.01.63.43-.27 4.04-5.01 3.33-.1-1.04-2.72-.6-1.05-.49-.19-.64.38-.68-.09-.66-.6-.6-1.15.22-.11.2-.27.2-.42.19-.56-.41-.94-.27-.97.01-1.04.41-1.14.6-.39 1.24.26.57-1.24-.49-.27-1.25-1.95-.41-1.25.36-.28.98-1.78-.45-1.49-1.68-.06-.67-.51.57-.65 1.95-1.08.42-1.4-.35-1.56-.79.06-1.41 1.18.09-1.03.05-.41-.7-1.78-3.13-.84-4.5-2.23-4.84-.26-3.76-1.01-2 1.69-8.03.08-2.69 2.97-.8.32-.48-.21-.01-1.11.36-1.11 3.39-3.39 8.62-2.19.58-.57 1.08-3.13.41-.48-1.15-1.53-9.32-2.8-9.32-2.82-9.64 3.45-9.64 3.43-2.03 2.44-4.72 8.96-1.24 3.69-.51 2.23-.58 1.63-.88 1.08-.87-.2-.54-2.17.34-1.1 1.27-2.35 1.47-4.83 3.22-6.48.4-1.86 4.3-4.68.66-.29-.57-1.71-.66-1.21-2.92-2-5-.17-5-.16-8.62-.28-.57-.79 5.52-.79 5.52-.8 4.61 0 5.95 1.59.45.48.95 2.3.47.73 1.61.12 1.57 1.07 7.34-4.88 3.79-.13 5.07-1.88 6.23 1.51 4.3-.14 1.05-.78.57-1.93-.27.06-.81-.77.04-.37.01-.32.04-.32.06-.41-7.07-1.08-4.84-1.57-5.09.06-6.9-1.05-6.9-1.05-6.9-1.05-1.98 1.72-1.02.3-.88-1.25.64-1.68.83-.77 9.55-.23 9.54-.22 4.38.93 7.5-1.22 5-.11 5.01-.12 3.82 3.66.67 1.9.06-.33.03.17.04.8-.18.15-.18.3-.16.45-.14.59.14.3.25.78.14.27-.67 1.48 2.08.03.22.19.18.53.07 1.01.12.24 4.94.98 8.18 4.42 5.76-1.65 5.88 1.15.49-.48.4-.87.12-1.32-.26-1.46-.48-.89-.9-1-.34-.91-.21-.99-.23-.79-1.31-.71-.45-.67-.25-1.13.55.02.27-.22.26-.44-.94-1.47-2.34.58-.89-2.02.82-1.45 3.71-.14 1.98-1.82.46-1.59-6.45-1.75-4.96 1.34-5.65-.2-5.95-.22-5.95-.22-4.01-3.98-1.02-.22-1.93 1.44-4.08.29-5.3-1.94-5.99 1.24-7.99 2.08.8-1.29 1.76-.03.8-.77-.77-1.46-5.25-4.18-3.92.35-4.42-3.42 0-.73 1.34-1.15 1.32-.34.8.07 1.88 1.71 5.49 1.56 5.5 1.55.81-.58.43.01-.32-1.27-.84-.82-.37-1.13-.48-2.08-.29-.86-.7-1.13-1.29-4.01-.41-1.77.96-1.19 2.15 1.54 1.03-.53.8-1.37.49-.14.21 1.33.04 2.12.06 1.28.1.91.32 1.07 2.71 4.2.72.45.5 1 .25.3.23-.06.53-.53 5.86.38 5.86.38 1.59 1.21 4.71-1.06.67-1.05-.59-.96-1.97-.54-2.77-2.54-.25-.87-.22-1.03-.34-.89-.27-.93.34-.69.96-1.13-1.03-2.5-4.99-1.35-2.51.78-3.54-1.98-1.89 1.23-1.78-1.23-3.56 0-.8-.72-.41-.82-.07-1.06.25-1.4.28-1.02.3-.63.32-.22.47.44.83 1.99.43.44 8.32 1.53 8.32 1.53 3.64 6.18.94.9.9-.36 1.42-2.47.47.08.21.38.14.45.04.6-.11.76.34 1.37.61.61 1.2.14-.15-.73.53-1.53.52.43.51 1.17 2.15 2.42 9.49 2.44 1.3-.78 1.08-2.62.35-1.11-.05-.49-.31-.96-.31-.69-.91-1.2-.49-1.22-.3-.36-.01-.45 0-.55-.1-.48-.76-1.09-.21-.9.59-1.2.75-.88.74-.2.59.82-.26.55-.13.11.68 1.37 2.4 1.42 1.85 2.73 5.95-.18 2.16 1.26 4.93-1.08.74-.93.64-1.37.17-1.71-.4-3.41-.25-1.32-.36-1.19.72-2.28 1.2.99 2.11 4.67 1.23 1.61 2.71-1.27 2.59.87 2.86-1 2.22-2.7.32-.15.26-.34.5-1.53.25-.34.15-.33.05-.78-.03-.86-.11-.61-.26-.62-.81-1.23.35-1.26.15-1.9-.04-2.01-.19-1.52-.53-1.32-1.3-1.3-.57-1.17.12-.81-.97-1.05-.4-.75.03-1.13-.13-.8-.31-1.34-.11-.86.19-.23.5-1.28-.63-.79-1.93 1.61-2 0-7.52-2.66-7.51-2.68-6.23 1.51-.52-.3-1.44-2.79.04-1.55-.46-.73-1.04-.68 5.08-1.34 5.08-1.35 1.92-2.36 8.99 3.42.52 1.63-1.23 0-.63.41-.56 1.04 1.03 1.65 8.38-1.8 3.8 1.7 5.09-.04.49.83-.73.85-2.36-.1 0 .83.33.38.2.94.17 1.21.24 1.16.33.73.73 1.02.27 1.19-.05 2.21.59 1.32 5.71 3.34 4.63-.81 3.14 2.6 2.04-1.97 2.12-.44 1.54-1.9 8.96-3.92 1.96-2.77 4.7-2.93 1.02-1.36.04-1.52 1.36-.81.35-1.97.22-1.67 1.1-2.7.43-1.4-5.23-2.66-4.9 3.19-.6-1.22.21-1.94.67-1.71.76-1.23 6.56-2.76 6.56-2.77.66-1.92-.14-.77.85-2.81 2.08-.41.83-2.12-.2-1.15-.12-2.92-.22-.58-.43-.21-.53-.58-.5-.89-.35-1.16-.81-1.65-7.01 2.32-6.22 3.5-3.92 2.68-3.69-.66-2.53 1.33-6.38.67-3.4-.7-.3-.85.2-.15.15-.3.31-1.09-1.34 0 0-.78 5.57.52 4.09-2.86 0-.78-.61-.43-1.84-3.34-7.76-7.18.79-1.65.92-.24 3.29 4.07 3.26.33 1.23 1.17.58 1.03 1.02 3.38.25.53 2.08 2.33 4.57-.39 2.88-3.54 4.96-3.87 6.9-2.43 5.26 1.09 5.26 1.1 1.01-.5 1.5-4.39 1.66-1.53.74-2.08-1.1-2.63-8.55-6.89.13 0-.36-.58-.13-1.18.05-1.53.18-1.57.38-1.43 1.36-1.78-1.14-2.16-.34-.24-.17-.39-.5-2.84-.6-1.54-1.33-1.63-2.04-4.57-.76-.96-1.04-.55-.86-1.26-.21-.83.1-1.31.33-.47.38.05 8.89 11.17 1.27 2.72.97 4.01-.36 1.91-1.11 3.36-.29 1.94 6.3.16 6.3.16 5.71-4.94.83-1.35.67-2.48.13-1.17.1-1.31.13-1.28.24-1.08.99-2.14.95-3.91.68-1.69 4.05-5.62.7-2.53-.84.06-.4-.43-.37-1.19 3.9-2.61 2.35-4.45 1.35-.82 2.12-3.37 1.43-1.27 2.42-4.71 5.77-4.47 1.1-2.06 1.46-1.17.21-.8-.38-.97.59-2.05 1.01-.61 1.9.15 1.53-1.67.76-1.53.66-1.86-1.14-3.01-.34-1.3.9-1.57 6.42.69 7.11-9.13 3.91-3.29 2.78-5.37.35-1.09.62-2.74.32-1.12 3.27-3.95.48-1.28.48-1.97 2.77-2.47 2.3-3.94 2.3-.18 3.92-3.53 1.85.68 3.46-2.28 5.55-8.2 8.3-7.55 4.39-9.27.37-1.21.26-1.45-.22-2-.29-1.23-.7-1.78-.26-1.19-.19-1.34-.2-1.13-.3-.46-7.61 2.11-6.11 3.13-9.56 2.34-4.39 3.89-5.07 2.33-6.05 3.25-6.06 3.24-7.14 2.77-5.65 3.53-5.65 3.51-.15.57-8.3 4.28-8.29 4.26-8.3 4.24-8.29 4.23-1.02 1.31-1.92 4.57-7.6 4.15.41-1.29 3.56-3.18 1.52-2.54 1.54-1.35.47-1.04-8.49 2.27-2.78-2.27.94-1.77 4.72.71 4.38-3.05 2.35.02 4.18-3.67 1.01-.19-.72-1.27-1.65.01-.73-1.29.95-1.93 7.92 1.93 1.66-.78 1.1-1.42 1.23.34 1.62-2.04 2.19-.26 1.04-1.21-.13 0 2.64-1.04 3.63-4.31 2.15-.8 1.96-2.95 7.45-4.52 7.44-4.54 3.34-2.81 3.23-1.56 5.77-3.2.89-2.17-.99-2-5.97-2.67-5.97-2.68-8.55 2.46-8.56 2.46-8.56 2.44-5.39-3.57 0-.98 9.78.98-.65-3.15-8.44-8.96-8.43-9.02-1.12-2.91 7.15 7.16 7.14 7.12 7.15 7.06 5.28-2.01 5.29-2.02 5.88-1.18 5.88-1.18 8.76-1.59 4.6.34 4.68-1.01 2.96-3.57 1.05.06.31 1.91 1.41 1.68 9.48-7.19.65-1.87-7.18 1.93-3.16-1.93-2.68 1.54-.8-1.54 6.71-2.72 6.71-2.71.4-.98-.14-1.04-.16-.84-.18-.61-.19-.4 6.43 1.87 2.43-1.22.8.59 1.97 3.08 7.99.83 1.39-1.84 2.25-.89.79-1.13.5-2.21-3.67-6.87-.35-1.57.78-.03 3.2 3.85 3.96.61 7.87-7.75 7.86-7.81 1.54-.3-.13 0 5.19-5.13 5.19-5.15.48-2.23-.43-.42 0-.96.28-.98.43-.44 1.67.97 2.6-1.08 3.36-5.1 1.64-3.84 1.74-1.59.79-2.12-.74-1.65-1.61-.73-.75-1.43 7.04-4.15 7.03-4.16 2.98-7.05.39-.48.43-1.32.38-3.18.25-3.93.02-3.52z" /></g></g></svg>