<?xml version="1.0" encoding="UTF-8" standalone="no"?>
<svg
   xmlns:dc="http://purl.org/dc/elements/1.1/"
   xmlns:cc="http://creativecommons.org/ns#"
   xmlns:rdf="http://www.w3.org/1999/02/22-rdf-syntax-ns#"
   xmlns:svg="http://www.w3.org/2000/svg"
   xmlns="http://www.w3.org/2000/svg"
   xmlns:sodipodi="http://sodipodi.sourceforge.net/DTD/sodipodi-0.dtd"
   xmlns:inkscape="http://www.inkscape.org/namespaces/inkscape"
   version="1.0"
   width="1024.000000pt"
   height="1024.000000pt"
   viewBox="0 0 1024.000000 1024.000000"
   preserveAspectRatio="xMidYMid meet"
   id="svg74"
   sodipodi:docname="Euboea.svg"
   inkscape:version="1.0.1 (3bc2e813f5, 2020-09-07)">
  <defs
     id="defs78" />
  <sodipodi:namedview
     pagecolor="#ffffff"
     bordercolor="#666666"
     borderopacity="1"
     objecttolerance="10"
     gridtolerance="10"
     guidetolerance="10"
     inkscape:pageopacity="0"
     inkscape:pageshadow="2"
     inkscape:window-width="1920"
     inkscape:window-height="974"
     id="namedview76"
     showgrid="false"
     inkscape:zoom="0.34362989"
     inkscape:cx="126.55538"
     inkscape:cy="422.07579"
     inkscape:window-x="-11"
     inkscape:window-y="-11"
     inkscape:window-maximized="1"
     inkscape:current-layer="g72"
     inkscape:document-rotation="0" />
  <metadata
     id="metadata2">
Created by potrace 1.10, written by Peter Selinger 2001-2011
<rdf:RDF>
  <cc:Work
     rdf:about="">
    <dc:format>image/svg+xml</dc:format>
    <dc:type
       rdf:resource="http://purl.org/dc/dcmitype/StillImage" />
    <dc:title />
  </cc:Work>
</rdf:RDF>
</metadata>
  <g
     transform="translate(0.000000,1024.000000) scale(0.100000,-0.100000)"
     fill="#000000"
     stroke="none"
     id="g72">
    <path
       d="m 10148.482,2773.7982 -514.8814,-113.4108 -107.1423,-58.9234 -99.6202,34.6211 -229.136,15.6229 -164.9085,114.568 -80.0433,0.2894 -193.8399,-44.7471 -40.0216,24.4951 -26.7133,57.9591 -19.5768,64.7097 -20.1555,42.3362 -202.1335,95.9555 -157.8685,111.0963 -76.3787,81.9721 -45.1329,93.9303 13.6942,34.9105 54.198,96.5341 -31.3423,46.6759 -7.0399,65.4812 -0.7715,128.455 -13.212,18.9983 -28.5456,20.2519 -29.7028,37.225 -14.5621,71.171 -139.4489,163.3655 -13.212,98.3665 -5.3041,113.7965 -15.0443,85.5403 -134.1448,148.7069 -19.8662,62.9739 106.2744,39.0573 -1.543,44.7471 -116.8826,147.7426 13.1156,250.063 96.3413,240.3228 137.6166,117.4611 -91.7123,121.1258 -523.7533,409.571 -32.7888,67.8922 -1.3501,120.5472 23.7237,76.4751 47.2544,64.4204 57.6698,46.1936 57.4769,21.4092 -110.807,62.5881 -363.8595,114.9538 -121.1258,1.543 -129.6123,-20.5413 -131.0589,-3.3753 -123.826,55.1624 -96.3413,-119.8721 -106.4672,-8.3901 -115.9182,40.2146 -123.6331,24.3023 -274.8476,14.0799 -255.3669,72.8105 -226.0501,97.9807 -116.3039,76.3787 -52.4621,85.3474 -39.9252,130.7694 -92.098,88.0472 -114.0859,19.2876 -107.1423,-75.6068 -61.5272,37.0317 -57.8627,-40.5999 -79.6575,41.95 -162.2083,26.8097 -72.1354,70.6889 -41.3718,-37.9965 -34.5247,-2.9896 -16.0087,28.0634 13.5978,55.2588 -1.543,54.3909 -148.8035,29.1242 -250.5452,205.4125 -252.9561,100.874 -106.6601,125.851 -68.953,133.663 -6.2685,78.5 -46.2901,92.098 -102.6097,329.913 -2.0252,72.714 -119.6792,22.085 -114.4716,67.12 -60.7558,106.853 37.3214,138.774 -58.1519,62.106 -79.2718,44.554 -84.383,26.328 -74.1607,7.233 -33.5603,19.769 -85.6367,95.088 -58.1519,29.124 -146.6818,-30.474 -290.5669,-181.303 -117.4611,-44.361 -348.2361,-8.294 -59.1164,-24.399 -101.4525,-103.96 -82.0687,-30.185 18.131,-49.569 1.06,-64.227 -18.709,-69.05 -38.092,-60.659 -49.087,-28.835 -115.726,-6.75 -64.806,-23.821 -11.765,-27.677 -22.567,-99.427 -20.251,-21.988 -134.145,-52.173 -160.85796,-90.073 -169.249,-47.544 -253.342,-144.946 -129.13,-33.849 -54.294,-23.531 -130.577,-101.26 -44.167998,-23.627 -33.946,-27.195 -19.384,-66.06 -6.655,-83.4188 5.787,-80.622 127.393998,76.4752 619.516,70.9786 91.423,31.438 49.762,41.758 4.629,101.645 -46.869,62.974 -76.668,28.353 -79.658,0.578 -1.157,53.909 73.1,28.063 80.525,-20.927 86.891,-35.489 92.96596,-18.323 76.475,-2.7 44.168,-20.156 113.218,-142.438 76.379,-55.066 81.586,-4.918 172.3346,40.214 93.7374,8.294 72.9069,-4.436 140.0276,-41.469 195.961,-100.777 563.582,-404.0741 131.734,-66.4452 28.8348,-30.4743 58.4413,-137.8094 35.3927,-30.9565 55.0659,-21.6021 164.5228,-170.4054 142.9207,-62.781 173.9736,-102.6097 53.9087,-45.7115 24.013,-52.3657 20.1555,-81.9721 41.0825,-29.7992 40.4074,-9.5474 18.6124,-23.3379 22.8558,-23.2415 135.3986,-102.7062 18.7089,-60.1771 9.0651,-127.0085 20.8306,-54.7766 79.3682,-60.9486 121.8973,-43.1077 249.1951,-31.3423 93.1588,-38.0929 83.2258,-94.7983 127.6835,-209.0769 1.2537,-44.7472 -42.1433,-1.2536 1.6395,-54.1016 46.2901,-99.7166 -70.2067,-118.7149 -103.5741,-121.7044 -53.8122,-109.939 47.4473,-6.2684 28.8349,11.0903 19.7697,23.2415 18.6125,29.1242 146.3925,-324.3201 62.7809,-69.4351 80.9113,-8.2937 179.6635,55.8375 83.9972,11.9582 395.7805,-86.8903 85.3473,-0.097 172.4307,45.9044 109.4567,14.5621 82.0685,-13.1156 197.2151,-61.913 114.3752,-11.3796 388.1618,61.913 331.6494,-14.2728 17.5516,44.8435 40.5039,-49.3761 62.9738,-119.8721 -6.9435,-15.6229 -3.954,-47.8331 13.212,-64.1311 46.6759,-63.8417 -38.4787,-72.039 -56.3196,-36.3571 -136.7487,-47.8331 168.1874,-3.2788 140.9919,-23.6273 124.9833,-43.8792 119.1006,-63.1667 -109.4568,-251.2202 78.8861,2.6038 1.8323,-54.1016 -13.4049,-17.5517 -18.3231,-34.814 3.8575,-32.0173 50.6298,-13.3084 42.7219,15.0443 6.8471,31.728 -3.4718,33.4639 9.0652,20.059 52.3657,45.7115 41.9504,52.3657 45.3257,4.5326 58.1519,-95.8591 -79.8504,-84.0937 -94.7018,-153.5289 -23.4344,-133.6627 129.7087,-26.6168 -38.6715,98.3665 81.5863,21.602 90.3622,-18.7089 74.1606,-59.5985 56.1267,-185.2569 87.4691,-94.7982 14.8514,-90.9408 -25.6525,-66.8314 -103.2848,-110.3247 -22.3735,-52.655 19.5768,-54.3908 95.0876,22.7593 47.0616,-39.0572 6.6542,-192.8755 -23.145,-4.0504 -11.0903,-4.1468 -3.1825,-14.2728 0.1929,-32.9817 47.9295,41.9504 29.51,8.1008 79.8504,-44.6507 97.0164,50.8227 118.0397,-6.4613 99.6202,-62.781 38.1894,-117.1718 76.2822,16.298 53.9087,-47.9296 75.6072,-159.1222 -72.6177,-56.5125 0.5787,-42.4326 39.8288,-42.4326 39.2501,-55.8375 42.3362,-87.469 29.1242,-44.3614 110.5176,-113.9893 85.6367,-58.7306 87.0833,-8.1008 84.4794,76.1858 -1.9287,54.198 -92.1945,58.827 91.423,114.7609 149.8642,72.7141 82.6471,-66.7349 23.6273,-6.2685 140.8955,-212.8381 14.3692,-86.7939 24.4952,-42.1433 64.5168,-15.2372 121.0294,22.8558 126.8156,52.8479 113.9894,69.5316 80.718,73.7748 46.194,121.5116 48.797,319.691 43.59,103.767 -89.398,154.5897 -12.633,181.3993 z"
       id="path831"
       style="fill:#000000;fill-opacity:1;stroke:#000000;stroke-width:9.4509" />
  </g>
</svg>
