<?xml version="1.0" encoding="UTF-8" standalone="no"?>
<svg
   xmlns:dc="http://purl.org/dc/elements/1.1/"
   xmlns:cc="http://creativecommons.org/ns#"
   xmlns:rdf="http://www.w3.org/1999/02/22-rdf-syntax-ns#"
   xmlns:svg="http://www.w3.org/2000/svg"
   xmlns="http://www.w3.org/2000/svg"
   xmlns:sodipodi="http://sodipodi.sourceforge.net/DTD/sodipodi-0.dtd"
   xmlns:inkscape="http://www.inkscape.org/namespaces/inkscape"
   version="1.0"
   width="1024.000000pt"
   height="1024.000000pt"
   viewBox="0 0 1024.000000 1024.000000"
   preserveAspectRatio="xMidYMid meet"
   id="svg126"
   sodipodi:docname="Fuerteventura.svg"
   inkscape:version="1.0.1 (3bc2e813f5, 2020-09-07)">
  <defs
     id="defs130" />
  <sodipodi:namedview
     pagecolor="#ffffff"
     bordercolor="#666666"
     borderopacity="1"
     objecttolerance="10"
     gridtolerance="10"
     guidetolerance="10"
     inkscape:pageopacity="0"
     inkscape:pageshadow="2"
     inkscape:window-width="1920"
     inkscape:window-height="974"
     id="namedview128"
     showgrid="false"
     inkscape:zoom="0.37448267"
     inkscape:cx="557.47563"
     inkscape:cy="958.17139"
     inkscape:window-x="-11"
     inkscape:window-y="-11"
     inkscape:window-maximized="1"
     inkscape:current-layer="g1103"
     inkscape:document-rotation="0" />
  <metadata
     id="metadata2">
Created by potrace 1.10, written by Peter Selinger 2001-2011
<rdf:RDF>
  <cc:Work
     rdf:about="">
    <dc:format>image/svg+xml</dc:format>
    <dc:type
       rdf:resource="http://purl.org/dc/dcmitype/StillImage" />
  </cc:Work>
</rdf:RDF>
</metadata>
  <g
     stroke="#000000"
     stroke-width="0.98"
     fill="#ffffff"
     id="g1103"
     transform="matrix(1.2902075,0,0,1.2902075,-353.12606,-59.414171)"
     style="fill:#000000;fill-opacity:1">
    <path
       d="m 909.04795,610.64726 h 0.2699 v 0.60969 h 0.2698 v 0.30983 h 0.2699 v -0.30983 h 0.3398 0.1999 v -0.30985 h 0.2699 v -0.29984 h 1.0894 v -0.30984 h 1.0794 v -0.29984 h 0.2699 v -0.31984 h 0.2699 v -0.29984 h 0.2698 v -0.30983 h 0.2799 v -0.30985 h 0.2698 v -0.30984 h -0.5497 v -0.29984 h -0.2698 v -0.61968 h -0.2699 v -0.91951 h 0.2699 v -0.30985 h 0.2698 v -0.30983 h 0.2799 v -0.29985 h 0.5397 v -0.30985 h 0.5397 v -0.30983 h 0.5397 v -0.61968 h 0.2699 v -1.22936 h 0.2699 v -0.60967 h 0.2698 v -0.30985 h 0.2799 v -0.61967 h 0.2698 v -0.29984 h 0.2699 v -0.30985 h -0.2699 v -1.53919 h -0.2698 v -0.30985 h -0.2799 v -0.29985 h -0.2698 v -0.61966 h 0.2698 v -0.61968 h 0.2799 v -0.60968 h 0.2698 v -0.61968 h 0.2699 v -0.60969 h -0.2699 v -0.61967 h -0.2698 v -0.30985 h 0.5397 v -0.29984 h 0.2698 v -0.30984 h 1.0795 v -0.61968 h 0.2698 v -0.91952 h 0.2799 v -0.91951 h 0.2599 v -0.61968 h 0.2798 v -1.22936 h 0.2699 v -0.91953 h 0.8096 v -0.30983 h 0.5397 v -0.30985 h 0.2698 v -0.91951 h 0.2799 v -0.30985 h -0.2799 v -0.60967 h -0.2698 v -0.30985 h -0.5397 v -0.30984 h 0.2698 v -0.91952 h 0.5397 v -0.30983 h 1.0895 v -0.30984 h 0.5397 v -0.30985 h 1.3493 v 0.30985 h 0.2798 v 0.30984 h 0.5398 v 0.30983 h 0.2698 v -0.30983 h 0.2699 v -0.61969 h 0.5397 v -0.29984 h 0.2699 v -0.30983 h 1.0894 v 0.60967 h 0.2698 v 0.30985 h 0.2699 v 0.30984 h 0.8096 v -0.30984 h 0.5397 v -0.30985 h 0.2799 v -0.60967 h 0.2698 v -0.61969 h 0.2699 v -0.60967 h -0.2699 v -0.61968 h -0.2698 v -0.29985 h -0.2799 v -0.30983 h -0.2699 v -0.30985 h -0.2698 v -0.61966 h 0.2698 v -0.91953 h 1.0895 v -0.60969 h 0.2698 v -0.61967 h 0.2699 v -0.61968 h 0.2699 v -0.91953 h 0.2698 v -0.91952 h 0.2699 v -0.61967 h 0.2698 v -0.60969 h 0.2799 v -1.53919 h 0.5397 v -1.22936 h 0.2699 v -0.30985 h 0.2698 v -0.60967 h 0.2699 v -0.30984 h 0.2698 v -0.61968 h -0.2698 v -0.61968 h -0.2699 v -0.29984 h -0.2698 v -0.61969 h -0.2699 v -0.60967 h 0.2699 v -1.84904 h -0.2699 v -1.84904 h -0.2798 v -0.60968 h -0.2599 v -0.92951 h -0.2799 v -0.91953 h -1.3493 v -0.61968 h -0.2698 v -0.28984 -0.31984 h -0.5397 v -0.30983 h -0.5498 v -0.30985 h -0.2698 v -0.29984 h -0.8096 v -0.30984 h -0.5397 v -0.92951 h 0.2698 v -1.21937 h 0.2699 v -0.92952 h -0.2699 v -0.30984 h -0.2698 v -0.91951 h 0.2698 v -0.92952 h -0.5397 v -0.29984 h 0.5397 v -0.92952 h 0.2699 v -0.29986 h 0.5397 v 0.29986 h 0.2699 v -0.29986 h 0.2798 0.5398 v -0.30983 h 0.5397 v -0.61968 h 0.2698 v -1.22936 h 0.2699 v -0.91953 h 0.2699 v -0.61966 h 0.2698 v -0.60969 h 0.2699 v -2.15888 h 0.2698 v -1.22936 h 0.2799 v -0.30983 h 0.2599 v -0.30985 h -0.2599 v -0.91951 h 0.2599 v -0.30985 h 0.2798 v -0.29984 h 0.2699 v -0.30983 h 0.5397 v -0.30985 h 0.5397 v -0.30983 h 0.5397 v -0.30984 h 1.3593 v -0.29984 h 0.2699 v -0.30985 h 0.2698 v -0.30983 h 0.2699 v -0.30983 h -0.2699 v -1.22938 h 0.5398 v -0.30983 h 0.2698 v -0.29985 h -0.2698 v -0.92951 h 0.5397 v -0.30983 h -0.2699 v -0.6097 h -0.5397 v 0.30985 h -0.5397 v -0.61968 h 0.2698 v -0.61968 h -0.8095 v -1.22936 h -1.0895 v -0.60968 h 0.8196 v -1.84904 h -0.2799 v -0.61968 h -0.2598 v -1.22936 h 0.2598 v -0.30983 h 0.2799 v -0.29984 h 0.2699 v -0.30985 h 2.1688 v 0.30985 h 2.4388 v 0.29984 h 1.889 v -0.29984 h 0.8195 v -0.30985 h 1.0795 v -0.61968 h 0.2698 v -1.22936 h 0.2699 v -1.22936 h -0.2699 v -0.91953 h 0.2699 v -0.30983 h 0.5397 v -0.30983 h 0.2799 v -0.29984 h 0.2698 v -0.31984 h 0.5398 v -0.29985 h 0.2698 v -0.30983 h 0.2699 v -0.91952 h -0.2699 v -0.61969 h -0.2698 v -0.30983 h -1.8991 V 520.814 h 0.2699 v -0.29984 h 0.2699 v -0.30984 h 0.2698 v -0.30983 h 0.2799 v -0.61968 h 0.2698 v -0.29984 h 0.2699 v -0.30984 h 0.2699 v -0.30985 h 0.2698 v -0.30983 h 0.2699 v -0.60969 h 0.2698 v -0.61967 h 0.2699 v -0.30985 h 0.5397 v -0.29984 h 0.2699 v -0.30983 h 0.5497 v -0.30984 h 0.5397 v -0.30984 h 0.2699 v -0.30984 h 0.5397 v -0.29984 h 0.2699 v -0.30985 h 0.5397 v -0.92952 h 0.2798 v -0.9195 h 0.2699 v -0.91953 h 0.2698 v -0.92951 h 0.2699 v -1.22936 h -0.8096 v -0.30985 h -0.2798 v -0.61967 h 0.2798 v -0.60969 h 0.2699 v -1.22936 h 0.2698 v -0.92951 h 0.2699 v -0.29985 h 0.2699 v -0.30983 h 0.2698 v -0.30985 h 0.2699 v -0.30983 h 0.5397 v -0.29985 h 0.2798 v -2.46872 h -0.2798 v -1.22936 h -0.2699 v -0.61968 h -0.2698 v -0.60967 h 0.2698 v -1.22936 h 0.2699 v -1.23937 h -0.2699 v -0.91951 h -0.5397 v -0.30985 h -0.5397 v -0.60967 h 1.0794 v -0.30983 h 0.8196 v -1.53921 h 0.2699 v -0.30983 h 0.2698 v -0.30985 h 0.2699 v -0.30984 h 0.2699 v -0.60967 h 0.2698 v -0.30985 h 0.2699 v -0.29985 h 0.2698 v -0.31983 h 0.2699 v -0.91951 h 0.2798 v -0.91953 h 0.2699 v -0.30983 h 0.2699 v -0.30985 h 0.5397 v -0.30983 h 0.5397 v -0.6097 h 0.2699 v -1.54918 h 0.8195 v 0.61967 h 0.2699 v 0.30985 h 0.8096 v -0.30985 h 0.2698 v -0.61967 h 0.2699 v -0.60969 h 0.2699 v -0.60968 h 0.2698 v -0.92951 h -0.2698 v -1.53921 h 0.2698 v -1.84904 h -0.2698 v -1.22936 h 0.2698 v -0.30983 h 0.2699 v -0.29984 h 0.2798 v -0.31984 h 0.5397 v -0.29985 h 0.2699 v -0.30983 h 0.2699 v -0.30983 h 0.2698 v -0.60969 h 0.2699 v -1.23935 h 0.2698 v -1.22936 h 0.2799 v -3.0784 h 0.2599 v -0.91952 h 0.2698 v -0.61969 h 0.2799 v -0.91952 h 0.2698 v -0.92952 h 0.2699 v -0.91951 h 0.2699 v -0.91952 h 0.2698 v -0.92952 h 0.2699 v -1.22935 h 0.2698 v -0.92954 h 0.5497 v -0.29984 h 0.5398 v -0.30983 h 0.5397 v -0.30983 h 0.2698 v -0.30985 h 0.2699 v -0.30984 h 0.2699 v -0.60967 h 0.2698 v -0.30985 h 0.2699 v -0.61967 h 0.2798 v -0.91952 h 0.2699 v -0.91953 h 0.2699 v -0.61968 h 0.2698 v -0.30983 h 0.2699 v -0.30984 h 0.2698 v -0.60969 h 0.2699 v -0.30983 h 0.2699 v -0.30985 h 0.2698 v -0.30983 h -0.2698 v -0.29985 h -0.5398 v -0.30983 h -0.2698 v -0.30985 h -0.5397 v -0.30983 h -0.2699 v -0.30984 h 0.2699 v -0.29984 l 0.2698,-0.0103 v -0.60968 h 0.2699 v -0.30985 h 0.5397 v -0.30983 h 0.5397 v -0.29985 h 0.8196 v -0.30983 h 0.2698 v -0.30985 h 0.5398 v 0.61968 h -0.2699 v 0.29985 h -0.2699 v 0.30983 h 0.2699 v 2.76857 h -0.2699 v 0.30983 h 0.5398 v -0.30983 h 0.5397 v -0.29985 h 1.6291 v 0.29985 h 0.8096 v -0.91953 h 0.2699 v -3.0784 h 0.2698 v -1.22936 h -0.2698 v -0.30983 h -0.2699 v -0.30985 h -0.2698 v -0.30983 h -0.2699 v -0.61968 h 0.2699 V 447.242 h 0.8095 v -0.61968 h 0.2699 v -1.53921 h 2.4387 v -1.53919 h -0.5397 v -0.30984 h -0.8096 v -0.29984 h -0.5397 v -0.30985 h -0.5497 v -0.30983 h -0.2699 v -1.84904 h 0.5397 v -0.29985 h 0.2799 v -0.30983 h 0.5397 v -0.30985 h 0.2699 v -0.61966 h 0.2698 v -0.30985 h 0.2699 v -0.60968 h 0.2699 v -0.30985 h 0.2698 v -0.61966 h 0.2699 v -0.6097 h 0.2798 v -0.61966 h 0.2699 v -4.61761 h -0.2699 v -1.53919 h -0.2798 v -0.92951 h -0.2699 v -0.6097 h -0.2698 v -0.92951 h -0.2699 v -0.60968 h -0.2699 v -0.30985 h -0.2698 v -0.30983 h -0.2699 v -0.30983 h -0.2698 v -1.22938 h 0.2698 v -1.22936 h 0.2699 v -0.30983 h 0.2698 v -0.61937 h 0.2699 v -0.30984 h 0.2699 v -0.29984 h -0.2699 v -0.30983 h -0.2699 v -0.61968 h -0.5397 v -0.6097 h -0.2698 v -0.31982 h -0.2699 v -1.21937 h -0.2799 v -0.30983 h -0.8095 v -0.30985 h -0.8096 v -0.30984 h -0.8096 v -0.30985 h -0.5497 V 417.058 h -0.5397 v -0.29985 h -1.5392 -0.6297 v -0.30983 h -0.2698 v -0.30985 h -0.2699 v -0.30983 h -0.2699 v -0.61969 h 0.2699 v -1.22935 h 0.2699 v -1.53919 h -0.2699 v -0.61969 h -0.5397 v -0.13995 -0.15991 h -0.8196 l 0.01,-0.30983 h -0.2699 v -0.30985 h -0.5497 v -0.30983 h -0.2698 v -1.02946 -1.42926 h -0.2699 v -0.92951 h -0.2699 v -0.6097 h -0.2698 v -0.30983 h -0.2699 v -0.61968 h -0.2698 v -2.45872 h 0.2698 v -1.23936 h 0.8096 v -0.30984 h 0.2699 v -0.29984 h 0.2698 v -0.30983 h 0.2699 v -0.30985 h 0.2798 v -0.61967 h 0.2699 v -0.61968 h 0.2699 v -0.29984 h 0.5397 v -0.30985 h 1.3493 v -0.30983 h 0.5497 v -0.60968 h 0.2699 v -1.23936 h 0.2698 v -1.84905 h -0.2698 v -1.53919 h -0.2699 v -0.30983 h -0.2699 v -0.30985 h -0.2798 v -0.91952 h -0.2699 v -1.53919 h -0.2698 v -0.30984 h -0.2699 v -1.22937 h -0.2699 v -0.61967 h -0.2698 v -0.61968 h 0.2698 v -0.29984 l -0.2698,-0.0103 v -0.60969 h 0.2698 v -0.61967 h 0.2699 v -0.30985 h 0.5397 v -0.29984 h 0.2699 v -0.30983 h 0.2798 v -0.92952 h 0.2699 v -0.60969 h 0.2699 v -0.92952 h 0.2698 v -1.84904 h -0.2698 v -2.45871 h -0.2699 v -1.84904 h -0.2699 v -0.30984 h -0.5497 v -0.61968 h -0.2698 v -0.30983 h -0.5398 v -0.30983 h -0.2698 v -0.29986 h -0.2699 v -0.61967 h 0.2699 v -0.30985 h 0.2698 v -1.22936 h -0.2698 v -1.53919 h -0.2699 v -1.23936 h -0.2698 v -0.29985 h -0.5398 v -0.30983 h -0.5497 v -0.30983 h -0.5397 v -0.61968 h -0.2699 v -0.29985 h -0.2698 v -0.92951 h -0.2699 v -0.61968 h -0.2698 v -0.60968 h -0.2699 v -0.30985 h -0.2698 v -0.92952 h -0.2799 v -0.30983 h -0.5397 v -0.29984 h -0.2699 v -0.30985 h -0.2698 v -0.92952 h -0.2699 v -0.30983 h -0.5397 v -0.29984 h -0.8096 v -1.23935 h 0.2599 v -0.60969 h -0.2599 v -0.30983 h -0.2799 v -0.30985 h -0.2698 v -0.30984 h -0.2699 v -0.61968 h -0.2698 v -0.91951 h -0.13 -0.4098 v -1.53921 h 0.2699 v -0.30983 h 0.2698 v -0.91952 h 0.2699 v -0.61969 h 0.2698 v -0.92951 h 0.2699 v -0.30983 h 0.2799 v -0.29985 h -0.2799 v -1.23936 h 0.2799 v -0.30984 h 0.2598 v -0.60967 h 0.2699 v -1.23937 h -0.2699 v -0.91952 h 0.2699 v -0.61967 h 0.5497 v -1.22935 h 0.2699 v -0.30985 h 0.2698 v -0.30984 h 0.2699 v -0.30985 h 0.2698 v -0.60967 h 0.2799 0.5397 v -1.84904 -0.30984 h -0.2799 v -1.23936 h 0.2799 v -0.29984 h 0.2699 v -0.30984 h 0.3498 0.1899 v -0.30983 h 0.5397 v -0.30985 h 0.5397 v -0.30983 h 0.5397 v -0.29984 h 0.5498 v -0.30984 h 0.2698 v -0.30985 h 0.5397 v -0.92951 h 0.2699 v -0.60968 h 0.2698 v -0.61968 h 0.5398 v -0.61968 h 0.8195 v 0.30985 h 0.2699 v 1.53919 h -0.2699 v 2.15887 h 0.2699 v 0.61968 h 0.2699 v 0.30984 h 0.5397 v -0.61967 h 0.2698 v -0.30985 h 0.5398 v -0.60967 h 0.2798 v -1.23937 h 0.2699 v -2.46871 h 0.5397 v 0.30984 h 0.5397 v -0.30984 h 0.5397 V 335.72 h 0.5397 v -0.30983 h 2.4388 v -0.30985 h 1.6291 v -0.30983 h 0.8096 v -0.61969 h 0.2699 v -1.22935 h 1.6291 v -0.30984 h 0.5397 v -0.30985 h 0.2699 v -0.29984 h 0.5497 v -0.30983 h 0.2699 v -0.30985 h 0.2698 v -0.30983 h 0.5398 v -0.30984 h 0.2698 v -2.46872 h -0.2698 v -0.60968 h -0.2699 v -0.92951 h -0.5397 v -1.22936 h 0.2698 v -0.30985 h 0.5398 v -0.30983 h 0.8095 v -0.60969 h 0.2699 v -0.92952 h -0.5397 v -0.30983 h -0.8096 v -0.30984 h -0.2699 v -0.60969 h 0.2699 v -0.30983 h -0.2699 v -0.92954 h 0.2699 v -0.30983 h 0.2699 v -1.53921 h 0.5397 v -0.60967 h 0.2698 v -0.61968 h 0.8196 v -0.61969 h 0.5397 v -0.61968 h 0.2699 v -0.60968 h 0.2698 v -1.22935 h 0.5398 v -0.30984 h -0.2699 v -0.61968 h 0.2699 v -2.77855 h 0.2698 v -0.30984 h 0.2699 v -0.30985 h -0.2699 v -0.29984 h 0.2699 v -0.30983 h 0.5497 v -0.61968 h 0.5397 v -0.30984 h 0.5397 v -0.30985 h 0.2699 v -0.30983 h 0.5397 v -0.29984 h 0.5397 v -0.61969 h 0.2799 v -0.61966 h 0.5397 v -0.30985 h 0.2699 v -0.91953 h -0.2699 v -0.30983 h 0.5397 v -2.15887 h -0.2698 v -2.77856 h -0.5397 v -0.91952 h 0.2698 v -0.30984 h 0.2699 v -0.30983 h 0.2698 v -0.61968 h 0.2699 v -0.91953 h 0.2698 v -0.30983 h 0.5398 v -0.91952 h 0.2798 v -1.23937 h 0.2699 v -0.30983 h -0.5497 v -0.29985 h -0.2699 v -0.30983 h -0.5397 v -0.30985 h -1.6292 v 0.30985 h -0.2698 v 0.30983 h -0.2699 v 0.29985 h -1.6191 v 0.30983 h -0.5498 v -0.60968 h 0.2799 v -0.30983 h 0.2699 v -0.30985 h -0.2699 v -0.30983 h -0.2799 v -0.30983 h 0.2799 v -0.30985 h -0.2799 v -0.91951 h 0.5498 v -0.30985 h 0.2698 v -0.30983 h 0.2699 v -0.30985 h 0.2698 v -0.61967 h 0.2699 v -0.60969 h -0.2699 v -0.61967 h -0.2698 v -0.61968 h 0.2698 v -0.29984 h 0.2699 v -0.92952 h 1.3593 v 0.30984 h 0.8096 v -0.30984 h 0.2698 v -0.30985 h 0.5397 v -0.30983 h 0.5398 v -0.30983 h 0.2798 v -0.30985 h 0.2699 v -0.29985 h 0.2698 v -0.30983 h 0.5398 v -0.30983 h 0.2698 v -0.61968 h 0.2699 v -0.29985 h 0.5397 v -1.23936 h 0.5497 v -0.30983 h 0.2699 v -0.61969 h 0.2698 v -0.29984 l 0.2699,-0.0103 v -1.22935 h 0.2698 v -0.6097 h 0.26985 v -0.61966 h 0.2699 v -0.61968 h 0.2698 v -1.22936 h 1.6292 V 277.44 h 0.8096 v -0.60968 h 0.2698 v -0.30984 h 0.8096 v -0.30984 h 0.2799 v -0.30985 h 0.2698 v -0.61966 h -0.2698 v -1.84904 h -0.2799 v -1.53921 h -0.8096 v -0.60968 h -0.2698 v -0.61968 h -0.2699 v -0.30983 h -0.2699 v -0.30983 h -1.6291 v -0.30985 h -0.2699 v -0.30984 h -0.2698 v -0.29984 h -0.2699 v -0.61968 h -0.26985 v -0.61969 h 0.26985 v -1.22935 h -0.26985 v -1.23935 h 0.26985 v -0.91953 h 0.2699 v -1.23934 h 0.2698 v -0.61971 h 0.2699 v -0.29984 h 0.2698 v -0.30985 h 0.2799 v -0.61966 h 0.2699 v -1.22936 h 0.2698 v -0.92952 h 0.2699 v -0.61968 h 0.2698 v -0.61968 h 0.2699 v -0.29985 h -0.2699 v -0.61968 h -0.5397 v -0.30983 h -0.2698 v -0.30983 h -0.5498 v -0.30985 h -0.2698 v -0.29985 h -0.5397 v -0.30983 h -0.2699 v -1.23936 h -0.26985 v 0.30985 h -0.5397 v -3.69809 h -0.2698 v -0.61968 h 0.5397 v -0.30983 h 0.2698 v -0.30983 h 0.26985 v -0.91953 h 0.2699 v -0.92951 h -0.2699 v -0.61969 h -0.26985 v -0.60967 h 0.26985 v -0.61968 h 0.2699 v -1.22936 h 0.2698 v -1.85903 h 0.2699 v -0.30985 h 0.2698 v -0.29985 h 0.2799 v -0.61966 h 0.2699 v -0.30985 h 0.2698 v -0.30983 h -0.2698 v -0.30984 h 0.2698 v -1.22937 h 0.2699 v -0.30983 h 0.5397 v -0.61969 h 0.2699 v -0.61966 h 0.2698 v -0.60969 h 0.2699 V 237.041 h 0.2798 v -0.30983 h 0.2599 v -0.30985 h 0.2799 v -0.30983 h 0.2698 v -0.30985 h 0.2699 v -0.29985 h 0.2698 v -0.30983 h 0.2699 v -0.61968 h 0.2698 v -0.61967 h 0.2699 v -0.61968 h 0.2699 v -2.26883 l -17.24105,-0.39979 17.24105,0.39979 v -0.80957 h -0.2699 v -0.61968 h -0.2699 v -1.53919 h 0.2699 v -1.23937 h -0.5397 v -0.30983 h -0.5397 v -0.29984 h -0.5397 v -0.61968 h -0.2799 v -1.23935 h -0.2599 v -1.22936 h -0.2798 v -0.61968 h -0.2699 v -0.61968 h -0.2698 v -0.60968 h -0.2699 v -0.61968 h -0.2699 v -0.61968 h -0.2698 v -0.61967 h -0.2699 v -0.91953 h 0.2699 v -0.61968 h 0.2698 v -0.61966 h -0.5397 v -0.29986 h -0.2698 v -1.23935 h 0.2698 v -0.61968 h 0.2699 v -0.30984 h 0.8096 v 0.61969 h 0.2698 v 0.61966 h 0.2699 v 0.30985 h 0.5397 v -0.92951 h 0.2799 v -1.53921 h 0.2698 v -0.61968 h 0.2699 v -0.61967 h 0.2698 V 212.054 l 0.2699,-0.0103 v -0.91952 h -0.2699 v -1.23935 h -0.2698 v -0.6097 h -0.2699 v -0.61966 h -0.2698 v -0.61968 h -0.2799 v -0.61969 h -0.2599 v -1.84904 h -0.2798 v -1.84902 h 0.2798 v -0.30985 h 0.2599 v -0.30983 h 0.2799 v -0.30983 h 0.2698 v -1.22938 h 0.2699 v -1.23935 h -2.1689 v -0.30983 h -0.2699 v -0.60969 h 0.8096 v -0.61967 h -0.2698 v -4.31776 h -0.2699 v -0.30983 h -0.2699 v -0.92952 h -0.5397 v -0.30985 h -0.8196 v -0.60968 h -0.2698 v -0.30983 h -0.2699 v -0.61968 h -0.2698 v -0.61968 h -0.2699 v -0.61969 h 0.2699 v -0.60967 h 0.2698 v -0.92952 h 0.2699 v -0.61968 h 0.2698 v -0.60967 h -0.2698 v -0.61969 h -0.2699 v -0.61968 h -0.2698 v -0.30983 h -0.2699 v -0.60968 h -0.26985 v -0.61968 h -0.2698 v -3.39824 h -0.2699 v -1.53919 h -0.2698 v -2.77855 h 0.5397 v -1.85903 h -0.2699 v -0.91953 h -0.2698 v -0.30983 h -0.2699 v -6.48663 h -0.2799 v -0.30985 h -0.2698 v -0.30983 h -0.2699 v -1.22936 h 0.5397 v -0.30983 h 0.2799 v -0.61969 h -0.2799 v -1.23936 h -0.2698 v -0.60968 h 0.2698 v -0.61968 h 0.2799 v -1.23935 h -0.1599 -0.12 v -0.91952 h -0.2699 v -0.61968 h -0.2698 v -0.91951 h -0.2699 v -1.23837 h 0.2699 v -1.22936 h -0.2699 v -0.61968 h -0.2698 v -0.61967 h -0.2699 v -0.30985 h 0.8096 v -0.61966 h 0.2698 v -0.29984 h 0.2699 v -0.61969 h 0.2799 v -0.61968 h -0.2799 v -1.22936 h -0.2699 v -0.92951 h -0.2698 v -0.62967 h -0.5397 v -0.29985 h -0.2699 v -0.60969 h 0.2699 v -0.62967 h 0.2698 v -0.60968 h -0.2698 v -0.30983 h -0.2699 v -0.30985 h -0.2699 v -0.30983 h -0.2698 v -3.39824 h -0.2699 v -0.92952 h -0.5497 v -1.22935 h -0.2699 v -1.23935 h 0.2699 v -0.6097 h 0.2699 v -0.61966 h 0.2798 v -1.23937 h 0.2699 v -0.30983 h 0.2698 v -0.61968 h 0.2699 v -0.60969 h 0.2699 v -1.23935 h 0.2698 v -2.77856 h -0.2698 v -0.61968 h -0.2699 v -0.60968 h -0.2699 v -0.61968 h 0.2699 v -0.92951 h 0.2699 v -0.61969 h 0.2698 v -0.61966 h 0.2699 v -0.29984 h 0.2698 v -0.30985 h 0.5498 v -0.92952 h -0.2799 v -0.61966 h -0.2699 v -0.6097 h -0.2698 v -0.61968 h -0.2699 v -0.61966 h -0.2698 v -0.30985 h 0.2698 v -0.61967 h 0.2699 v -0.61968 h 0.2698 v -0.60968 h 0.2699 v -0.61968 h 0.2799 v -0.61968 h -0.2799 v -1.23935 h 0.2799 v -0.60969 h -1.0895 v -1.23935 h -0.2698 v -2.15887 h -0.2699 v -1.23937 h -0.2699 v -0.30983 h -0.5397 v -0.30985 h -0.2798 v -0.29984 h -0.2699 v -0.30984 h -0.5397 v -0.92951 h -0.2699 v -0.92952 h -0.2698 v -0.30983 h -0.5397 v -0.30985 h -0.2699 v -1.84904 h -0.2699 v -0.61967 h -0.2798 v -0.61968 h -0.2599 v -0.60967 h -0.2798 v -0.61969 h -0.2699 v -0.30985 h -0.2699 v -0.30983 h -0.2698 v -0.61968 h -0.2699 v -0.29984 h -0.2698 v -0.31983 h -0.2699 v -0.29984 h -0.2699 v -0.30985 h -0.2798 v -0.61966 h -0.2699 v -0.61969 h -0.2698 v -0.30985 h 0.5397 v -0.30983 h 0.5497 v -1.239354 h 1.6192 v -0.91952 h 0.2798 v -1.23935 h -0.2798 v -0.60969 h -0.2699 v -0.30984 h -0.5397 v -0.30985 h -0.2699 v -0.30983 h -0.2698 v -0.92951 h -0.2699 v -0.92952 h -0.2699 v -0.60969 h -0.2798 v -0.61967 h -0.2699 v -0.61968 h -0.2698 v -0.61968 h -0.2699 v -1.84903 h -0.2698 v -0.30985 h -0.2701 v -0.30983 h -0.2699 v -0.61968 h -0.2698 v -0.30983 h -0.5398 v -0.30985 h -0.2798 v -0.61967 h -0.2699 v -0.60969 h 0.2699 v -0.61967 h 0.2798 v -0.61968 h 0.2599 v -1.23936 h -0.2599 v -0.91951 h 0.2599 v -0.92952 h 0.2799 v -0.61968 h -0.2799 v -0.61968 h -0.5397 v -0.30983 h -0.2699 v -0.29985 h -0.5397 v -0.30985 h -1.6191 v -0.30983 h -0.2799 v -0.30983 h -1.889 v -0.30985 h -0.2699 v 0.30985 h -1.0894 v 0.30983 h -0.5397 v 0.30983 h -0.2699 v 0.30985 h -0.5397 v 0.29985 h -1.899 v -0.29985 h -0.8096 v -0.30985 h -0.5497 v -0.30983 h -0.5397 v -0.30983 h -1.3493 v -0.30985 h -0.2799 v -1.22936 h -0.2598 v -2.16886 h 0.2598 v -1.23937 h -0.2598 v -0.29984 h -0.8196 v 0.60969 h -0.5397 v -0.30985 h -0.8096 v -0.29984 h -0.2699 v -0.92952 h -0.5497 v -0.30983 h -0.5397 v 0.30983 h -0.2699 v 0.30984 h -0.8095 v 0.29986 h -0.5398 v 0.61966 h -0.2798 v 0.92952 h -0.2699 v 0.61968 h -0.5397 v 0.30983 h -0.2699 v 0.30985 h -1.3493 v -0.30985 h -0.2798 v -0.30983 h -0.2699 v -0.30983 h -0.2698 v -0.30985 h -0.2699 v -0.92952 h -0.2698 v -0.29984 h 0.2698 v -0.31982 h -0.5397 v -0.29986 h -0.2699 v -0.30984 h -0.5397 v 0.30984 h -0.2798 v 0.29986 h -0.5398 v -0.91953 h 0.2799 v -0.30985 h -0.2799 v -0.92951 h 0.5398 v -0.30984 h 0.5497 v -0.30983 h 0.2698 v -0.30985 h -0.2698 v -0.61966 h -1.3593 v -0.91953 h -0.5397 v -0.92952 h 0.2698 v -0.30985 h 0.2699 v -0.30983 h 0.2698 v -0.30983 h 0.2799 v -0.29984 h 0.8096 v -0.30985 h 0.5397 v 0.60969 h 0.2699 v 0.30983 h 1.3592 v 0.30983 h 1.0795 v -0.30983 h 0.5397 v -0.30983 h 0.2699 v -1.53921 h -1.8891 v -0.30983 h -0.8195 v -2.77856 h -0.2699 v -0.61968 h -0.2698 v -0.61968 h -0.2699 v -0.61967 h -0.2699 v -0.60969 h -0.2698 v -0.31982 h -0.5497 v -0.29985 h -0.8096 v -0.30984 h -1.0795 v 0.30984 h -0.8195 v 0.29985 h -0.8096 v 0.31982 h -0.2699 v 0.60969 h -0.2698 v 0.30984 h -1.0795 v -0.30984 h -0.5497 v 0.61967 h -1.6191 v -4.32774 h -0.5398 v -0.30985 h -0.2798 v -0.30983 h -0.2699 v -0.30983 h -0.5397 v -0.29985 h -0.2698 v -0.30985 h -0.2699 v -0.30983 h -0.8096 v -0.30983 h -0.2699 v -0.30985 h -0.2798 v -0.30983 h -0.2699 v -0.30984 h -0.2698 v -0.61968 h -0.2699 v -0.30985 h -0.2698 v -0.29984 h -0.2699 v -0.30983 h -0.5397 v 0.30983 h -0.2699 v 0.29984 h -0.8195 v -0.29984 h -0.2699 v -0.30983 h -0.2699 v -0.30984 h -0.2698 v -0.30985 h -0.2699 v -0.30983 h -0.2699 v -0.30983 h -0.2698 v -0.30985 h -2.009 -0.6996 v -0.30983 h -0.2699 v -0.61969 h -0.2698 v -0.30983 h -1.0895 v -0.29984 h -0.2698 v -0.61968 h -0.2699 v -0.61969 h -0.1198 -0.4198 v -0.30983 h -0.2699 v -0.30983 h -0.5497 v 0.30983 h -1.7491 -0.1399 v -0.30983 h -1.1394 -0.2199 -0.3498 -0.7297 v 0.61966 h -1.6291 v 0.30985 h -0.2699 v 0.92952 h -0.2698 v 0.60967 h -0.2699 v 0.61969 h -0.2699 v 0.30983 h -0.2798 v 0.30985 h -0.2599 v 0.30983 h -0.2798 v 0.30983 h -0.2699 v 0.30985 h -0.2698 v 0.30984 h -1.8891 v -0.30984 h -0.2798 v -0.61968 h -0.2699 v -0.30983 h -1.0794 v 0.30983 h -1.0894 v 0.30983 h -1.3493 v 0.61969 h -0.2699 v 0.60967 h -0.2699 v 0.92953 h -0.2698 v 0.61967 h -0.2699 v 0.61968 h -0.2798 v 0.30983 h -0.2699 v 0.30985 h -0.2699 v 0.29985 h -0.2698 v 0.30983 h -0.7396 -0.8896 v 0.30983 h -0.8095 v 0.30985 h -0.8096 v 0.30983 h -1.3593 v -0.61968 h -0.2699 v -0.61966 h -0.2698 v -0.29985 h -0.2699 v 0.29985 h -0.8096 v 0.30983 h -0.5497 v 0.30983 h -0.8096 v -0.30983 h -0.2698 v -0.30983 h -0.2699 v -0.29985 h -0.2698 v -0.30985 h -0.2699 v 0.30985 h -0.8096 v 0.29985 h -0.8196 v 0.61966 h -0.5397 v -0.61966 h -0.5397 v 1.54918 h 0.2699 v 0.92953 h -0.8096 v -0.30985 h -0.2699 v -0.30983 h -1.0894 v -0.30987 h -0.2699 v 0.30985 h -0.1399 -0.13 v 0.30983 h -0.8096 v -0.61968 h -0.5497 l -0.04,-0.61967 h -0.2299 v -0.13996 -0.47975 h -0.2698 v -0.60968 h -0.2699 v -0.30985 h -1.0794 v -0.30983 h 0.2698 v -0.61969 h 0.2699 v -0.61966 h -0.5397 v -0.30985 h -0.2799 v -0.30983 h -0.5397 v -0.30985 h -1.889 v -0.29985 h -0.5497 v 0.29985 h -1.0795 v 0.26987 l -0.2698,0.0401 v 0.30984 h -1.0795 v 0.30983 h -0.2798 v 0.30985 h -0.5398 v 0.61966 h -0.2698 v 0.61969 h -0.8096 v -0.30984 h -0.2699 v 0.30984 h -0.5397 v 0.30983 h -0.5497 v -0.30983 h -0.5397 v -0.61969 h -0.2699 v 0.30985 h -0.2698 v 0.61967 h -0.2699 v 0.60969 h -0.2698 v 0.30983 h -0.2699 v 0.61969 h -0.5497 v 0.30983 h -0.2699 v 0.30985 h -0.2698 v 0.30983 h -0.2699 v 0.30983 h -0.8096 v 0.92952 h -0.2698 v 1.22937 h -0.2799 v 0.61967 h -0.2698 v 2.77856 h -0.5897 -0.2199 v 0.30985 h -2.1689 v -1.22936 h -0.2699 v -0.30985 h -0.2698 v -0.30984 h -0.2699 v -0.30983 h -0.2698 v -0.30985 h 0.2698 v -0.30983 h 0.2699 v -0.61968 h 0.2698 v -0.91953 h -1.3493 v -0.92951 h -0.2798 v -0.30984 h -0.5397 v 0.30984 h -0.8096 v 0.30985 h -0.2699 v 0.61966 h -0.2698 v 0.60969 h -0.2699 v 0.61967 h -0.2698 v 0.61968 h -0.2699 v 0.30985 h -2.9884 v -0.30985 h -0.2699 v -0.61968 h -0.5397 v -0.30983 h -0.5397 v 0.30983 h -0.2699 v 0.61968 h -0.2699 v 0.30985 h -0.5497 v 1.22936 h -0.2698 v 0.31982 h -0.2699 v 0.29985 h -0.2699 v 0.30985 h -0.2698 v 0.30983 h -0.8096 v -0.30983 h -0.2699 v -0.30985 h -0.8195 v 0.30985 h -0.2699 v 0.30983 h -0.5397 v 0.92951 h 0.2699 v 0.30985 h 0.2698 v 0.30984 h 0.5397 v 0.91952 h -1.0794 v 0.30983 h -1.3493 v 0.30984 h -0.5497 v 0.61968 h 0.2798 v 0.30983 h 0.2699 v 0.30985 h -0.2699 v 0.30983 h -0.2798 v 0.30984 h -0.2699 v 0.61968 h -0.2698 v 0.60969 h -0.2699 v 0.30983 h -0.8096 v -0.30983 h -0.2798 v -0.60969 h -0.2599 v -0.61968 h -0.2699 v -0.61967 h -0.8195 v -0.30985 h -0.8096 v -0.30983 h -0.2699 v 0.61968 h -0.2698 v 0.30983 h -0.2699 v 0.30984 h -0.5497 v -0.61967 h -0.2699 v 0.30983 h -0.5397 v 0.30984 h -0.2698 v 0.61968 h -0.2699 v 0.91952 h -0.2699 v 0.61969 h -0.2698 v 0.61966 h -0.2799 v 0.61968 h -0.5397 v 0.30984 h -0.2699 v 0.29986 h -1.6191 v -0.29986 h -0.8196 v -0.30984 h -0.5397 v -0.30983 h -0.8096 v -0.30985 h -0.8196 v -1.54918 h -0.5397 v 0.61967 h -0.2698 v 0.61968 h -0.2699 v 0.30983 h -0.8096 v 0.30985 h -1.0894 v 0.91953 h 0.2798 v 1.23935 h 0.2699 v 0.92951 h -1.6291 v -0.61968 h -0.2699 v -0.61967 h -0.2699 v -0.30985 h -0.2698 v -0.61966 h -0.2799 v -0.6097 h -0.2698 v -0.61968 h -0.8096 v -0.30983 h -0.2699 v -0.30983 h -1.6291 v -0.30985 h -0.2699 v -0.30984 h -0.5397 v 0.30984 h -0.2699 v 0.61968 h -0.2698 v 0.61968 h -0.2699 v 0.61967 h -0.2698 v 0.61968 h -0.2699 v 0.29984 h 0.2699 v 0.92952 h -0.5498 v -0.30983 h -1.3493 v 0.61968 h -0.2698 v 0.61966 h -0.2699 v 0.30985 h -0.2698 v 0.29985 h -0.2799 v 0.31982 h -0.2698 v 0.29986 h -0.2699 v 0.31982 h -1.0794 v 0.29984 h -0.5398 v 0.30985 h -0.5397 v 0.30984 h -0.5497 v 0.30983 h -0.5397 v 0.30985 h -0.5397 v 0.30983 h -0.5398 v 0.30983 h -0.5497 v 0.6097 h -0.2698 v 0.61966 h -0.2699 v 0.61968 h -0.2698 v 0.61969 h -0.8096 v 0.30983 h -0.8096 v 1.53921 h -0.5497 v -1.22936 h -0.2699 v -0.30985 h -1.889 v 1.22936 h -0.2798 v 0.30985 h -0.5398 v 0.30983 h -0.2698 v 0.30983 h -2.7086 v -0.30983 h -0.5397 v -0.30983 h -0.5398 v -0.30985 h -0.5497 v -0.60968 h -0.2598 v -0.30983 h -0.8196 v 0.30983 h -0.2699 v 0.60968 h -0.2698 -0.5398 v 3.39824 h -0.2698 v 0.30983 h -0.2799 v 0.30985 h -0.5397 v 0.30983 h -0.8096 v 2.47871 h -0.2698 v 0.29985 h -0.5397 v 2.16886 h -0.2699 v 0.30985 h -1.899 v 0.29984 h -0.2699 v 0.30984 h -0.5397 v 0.30985 h -0.2798 v 0.30983 h -0.2699 v 0.30983 h -0.8096 v 0.30985 h -0.2698 v 0.30983 h -0.13 -0.6797 v 0.30984 h -0.2798 v 0.30985 h 0.5497 v 0.30983 h 0.4298 1.1893 v 0.29984 h 0.5497 v 0.30985 h 0.2699 v 0.30983 h -0.2699 v 0.30984 h -0.5497 v -0.30984 h -1.1793 -0.4398 v -0.30983 h -0.8196 v -0.30985 h -0.2698 v -0.29984 h -0.2699 v -0.61968 h -0.2699 v -0.30984 h -1.0794 v -0.30983 h -0.2799 v -0.30985 h -0.2698 v -0.92951 h -0.2599 v -0.30984 h -0.2798 v -0.60969 h 0.2798 v -1.23935 h -1.3593 v 0.30983 h -0.8096 v 0.30985 h -1.0894 v 0.61967 h -0.2698 v 0.30985 h -0.2699 v 0.29984 h -0.2699 v 0.30984 h -0.5397 v 0.30985 h -0.5497 v 0.30983 h -0.2699 v 0.92951 h -0.2698 v 0.30984 h -0.2699 v 0.30985 h 0.5397 v 0.30983 h 0.2699 v 0.60969 h -0.2699 v 0.30983 h -0.2698 v 0.61969 h 0.2698 v 0.61966 h -0.2698 v 0.30985 h -0.8096 v 0.29984 h -0.2699 v 0.619674 h -0.2698 v 0.30985 h -0.5397 v 0.92951 h 0.5397 v 0.30984 h 0.8096 v 0.30985 h 0.5397 v 0.30983 h 0.5397 v 0.30983 h 1.0894 v -0.30983 h 0.5398 v -0.30983 h 0.2698 v -0.30985 h 0.2699 v 0.30985 h 0.2698 v 0.61966 h -0.2698 v 0.30985 h -0.2699 v 0.29985 h -0.2698 v 0.31982 h -0.2699 v 0.29984 h -0.8096 v -0.29984 h -0.5497 v -0.31982 h -0.5397 v -0.29985 h -0.8096 v -0.30985 h -0.5397 v 0.30985 h -0.2699 v -0.30985 h -1.0894 v 0.6097 0.31982 h -0.2699 v 0.60969 h 0.8096 v 0.30983 h 0.2799 v 0.92952 h 0.2698 v 0.61968 h -0.2698 v 1.84904 h -0.2799 v 0.30983 h -0.2698 v 0.91953 l -0.2699,0.0103 v 0.60967 h -0.2699 v 0.30985 h 0.2699 v 0.30983 h 0.2699 v 0.30984 h 0.2698 v -0.30984 h 0.2799 v -0.30983 h 1.0794 v 0.30983 h 0.2699 v 0.30984 h 0.2698 v 0.61968 h -0.2698 v 0.30983 h -0.5398 v 0.30985 h -0.2698 v 0.30983 h -0.2699 v 0.29985 h 0.2699 v 0.61968 h 0.2698 v 0.61968 h -0.2698 v 0.30983 h 0.2698 v 0.30984 h 0.2699 v 0.61968 h 0.2699 v 0.29984 h -0.2699 v 0.30984 h -0.5397 v -0.30984 h -0.2699 v -0.29984 h -0.5497 v 0.29984 h -0.5397 v 0.61969 h -0.2699 v 0.30983 h 0.2699 v 0.30985 h 0.5397 v 0.30983 h 0.2799 v 0.92952 h 0.2698 v 0.30983 h -0.2698 v 0.61968 h -0.2799 v 0.29984 l 0.2799,0.0401 v 0.26986 h 0.2698 v 0.30985 h 0.2699 v 0.30983 h -0.2699 v 0.61969 h 1.6192 v 0.30983 h 0.2698 v 0.30983 h 1.0895 v 0.29985 h 0.5397 v 0.30985 h 0.2699 v 0.30983 h 0.2698 v 0.92951 h -0.2698 v 3.08839 h -0.2699 v 0.30985 h 0.2699 v 1.01947 0.20989 h 0.2698 v 0.30983 h 0.2699 v 0.61968 h 1.0894 v -0.30983 h 0.5397 v 0.30983 h 0.2699 v 0.61969 h -0.2699 v 0.30983 h -0.2698 v 0.30983 h -0.2799 -0.2599 v 0.91953 h 0.2699 v 1.5492 h 0.5397 v 0.60967 h 0.2699 v 0.61968 h 0.5397 v 0.30984 h 0.2699 v 0.92953 h 0.2798 v -0.30985 h 0.2599 v 0.30985 h 0.2698 v 0.30983 h 0.2799 v 0.30983 h 0.2698 v 0.29986 h 0.8096 v 0.31984 h 0.2699 v 0.91951 h 0.2699 v 0.61962 h 0.2698 v 0.30985 h -0.2698 v 0.30984 h -0.5398 v 0.30983 h -0.2698 v 0.60969 h 1.0794 v 0.30983 h 0.2699 v 0.30984 h 0.2798 v 0.61968 h 0.2699 v 0.61968 h -0.2699 v 0.30983 h -0.2798 v 0.29985 h -0.2699 v 0.30985 h -0.2698 v 0.61966 h -0.2699 v 0.30985 h -0.2699 v 0.30984 h -0.5397 v 0.30983 h -0.1599 -0.3798 v 0.30985 h 0.2698 v 0.61966 h -0.2698 v 0.11004 0.18991 h -0.2799 v 0.55969 l -0.2698,0.06 v 0.30985 h -0.2599 v 0.61966 h -0.2798 v 1.21937 0.31984 h -0.1099 -0.1599 v 0.31982 h -0.2699 v 0.29985 h -0.2698 v 0.30985 h -0.5398 v 0.61968 h -0.2698 v 1.23935 h -0.2699 v 0.91952 h -0.2798 v 0.92952 h -0.2699 v 1.22936 h -0.2699 v 0.30983 h -0.2698 v 0.61968 h -0.2699 v 0.30983 h -0.2698 v 0.91953 h -0.2699 v 0.30983 h -0.2698 v 0.30985 h -0.2699 v 0.30983 h -0.2699 v 0.30985 h -0.2798 v 0.92952 h -0.2699 v 0.30983 h -0.5397 v 0.60968 h -0.2699 v 0.30985 h -0.2698 v 0.30983 h -0.2699 v 0.30983 h -0.2698 v 0.30985 h -0.2699 v 0.29985 h -0.2698 v 1.23934 h 0.2698 v 0.30985 h 0.2699 v 0.61967 h -0.2699 v 0.91952 h 0.2699 v 1.5492 h -0.2699 v 0.29984 0.61969 h -0.2698 v 0.92951 h -0.2799 v 0.30983 h -0.2699 v 0.30984 h -0.2698 v 0.30985 h -0.2699 v 0.61968 h -0.2698 v 0.30983 h -0.2699 v 0.60968 h -0.2699 v 0.30985 h -0.2698 v 0.30983 h -0.2699 v 0.61968 h -0.2798 v 0.30984 h -2.9785 v 0.30983 h -0.2699 v 2.77855 h 0.2699 v 0.91953 h -0.2699 v 0.30983 h -0.2698 v 0.30985 h -0.1699 -0.3698 v 0.30983 h -0.2698 v 0.61969 h -0.2699 v 1.53919 h -0.2699 v 4.09787 0.22988 h -0.2798 v 0.29984 h -0.2699 v 0.30985 h -0.2698 v 0.92952 h -0.2699 v 0.30983 h -0.2699 v 0.30983 h -0.5397 v -0.30983 h -0.5397 v -0.30983 h -0.8196 v 0.61966 h -0.2698 v 0.30985 h -0.2699 v 0.60968 h -0.2698 v 0.61968 h -0.2699 v 0.30984 h -0.3998 -0.14 v 0.30983 h -0.5397 v 0.30985 h -0.2698 v 0.60967 h -0.2799 v 0.30985 h -0.2699 v 0.61967 h 1.3593 v 0.30985 h 0.2699 v 0.30983 h 0.2099 l 0.06,0.60968 h 0.5397 v 0.61968 h -0.2698 v 0.30985 h -0.5398 v -0.30985 h -0.5397 v 0.61968 h -0.2698 v 0.61968 h -0.2699 v 0.60968 h 0.2699 v 0.61968 h 0.2698 v 0.61967 h 0.2699 v 2.46872 h 0.2698 v 0.61968 h -0.2698 v 0.30984 h -1.899 v 0.61968 h -0.2699 v 0.60967 h 0.2699 v 0.92952 h -0.2699 v 0.30985 h -0.8096 v 0.29984 h -0.2698 v 0.30983 h -0.5497 v 0.92952 h -0.2699 v 0.30983 h -0.5397 v 1.22938 h -0.2699 v 1.85903 h -0.2698 v 0.60967 h -0.2699 v 0.30984 h -0.2699 v 0.30985 h -0.2798 v 0.30983 h -0.2699 v 0.30985 h -0.2698 l 0.05,0.91951 h 0.2199 v 0.3898 1.15939 h 0.2699 v 1.22936 h -0.2699 v 2.46873 h 0.2699 v 0.30983 h 0.2798 v 0.61968 h 0.2699 v 0.30983 h 0.2698 v 0.61969 h 0.2699 v 1.22935 h 0.2699 v 0.92952 h 0.2698 v 1.53921 h -0.2698 v 0.61966 h 0.2698 v 0.60969 h 0.2699 v 0.30984 h 0.2698 v 0.30983 h 1.0895 v 0.61968 h 0.2698 v 0.30984 h 0.2699 v 0.60969 h 0.2698 v 0.92951 h 0.2699 v 2.46873 h 0.2699 v 4.62758 h 0.2698 v 1.5392 h -0.2698 v 0.61967 h -0.2699 v 0.30985 h -0.2699 v 0.30983 h -0.2698 v 0.30985 h -0.2699 v 0.30983 h -0.2698 v 0.29985 h -0.5398 v 0.30983 h -0.2798 v 0.30985 h -0.2699 v 0.30983 h -0.2698 v 0.30983 h -0.2699 v 0.30985 h -0.5397 v 0.30984 h -0.2699 v 0.30983 h -0.2698 v 0.29984 h -0.2699 v 0.30985 h -0.5497 v 0.30984 h -0.5397 v 0.30984 h -0.2699 v 2.15888 h 0.2699 v 0.61966 h 0.2698 v 0.91953 h -0.2698 v 0.92951 h -0.2699 v 0.30985 h -0.2698 v 0.61967 h -0.2699 v 0.29984 h -0.5397 v 0.92953 h -0.2699 v 0.30984 h -0.81955 v 0.30983 h -0.53971 v 0.30985 h -0.26988 v 0.30983 h -0.53971 v 0.60968 h -0.26986 v 0.61968 h -0.26985 v 0.61968 h -0.26986 v 0.60968 h -0.27986 v 0.30985 h -0.26986 v 0.30983 h -0.26986 v 0.30983 h -0.26986 v 0.30985 h -0.26985 v 0.30984 h -0.26986 v 0.60967 h -0.26987 v 0.30985 h -0.26986 v 0.61967 h -0.26986 v 0.61968 h -0.26986 v 0.30985 h -0.27986 v 0.29984 h -0.26986 v 0.61967 h -0.53971 v 0.30985 h -0.26986 v 0.30983 h -0.26985 v 0.30983 h -0.26986 v 0.61969 h -0.26988 v 0.30983 h -0.26985 v 0.29984 h -0.27985 v 0.30985 h -0.53971 v 0.30983 h -0.26988 v 0.61969 h -0.26985 v 0.30983 h -0.26986 v 0.29984 h -0.26986 v 0.30985 h -0.26985 v 0.30983 h -0.26986 v 0.30984 h -0.27987 v 0.30985 h -0.26985 v 0.30983 h -0.53972 v 0.29984 h -0.26985 v 0.61968 h -0.26988 v 0.30984 h -0.26986 v 0.30985 H 779.835 v 0.92951 h -0.26986 v 0.29985 h -0.26986 v 0.30983 h -0.54972 v 0.30983 h -1.07942 v 0.30985 h -0.26988 v 1.22936 h -0.26986 v 0.92951 h -0.26985 v 0.30984 h -0.27985 v 0.91952 h -0.25987 v 0.92952 h -0.27986 v 0.92951 h -0.26986 v 0.60969 h -0.26985 v 0.30984 h -0.26986 v 3.08839 h 0.26986 v 0.30985 h 0.26985 v 0.7396 0.1799 h -0.26985 v 0.30985 h -0.26986 v 0.30984 h -0.26986 v 0.30983 h -0.26986 v 0.29986 h -0.26985 v 0.30983 h -0.53973 v 0.30983 h -1.62915 v -0.30983 h -0.41979 -0.65966 v -0.30983 h -0.27984 v 0.61966 h -0.26986 v 0.30985 h -0.26986 v 0.30984 h -0.26986 v 0.30983 h -0.26987 v 0.30985 h -0.26986 v 0.29984 h -0.26985 v 0.30984 h -0.53972 v 0.30983 h -0.27986 v 0.30985 h -0.26986 v 0.30983 h -0.26986 v 0.30985 h -0.26985 v 0.91951 h -0.26986 v 0.30985 h -0.26986 v 0.61966 h 0.26986 v 0.30985 h 0.26986 v 0.30984 h 0.26985 v 2.15887 h -0.26985 v 0.29984 h 0.26985 v 0.61968 h 0.26986 v 0.61969 h 0.26986 v 0.92951 h 0.27986 v 1.22936 h 0.26986 v 0.30983 h 0.26986 v 0.6097 h -0.26986 v 0.30983 h -0.26986 v 0.30983 h -0.81958 v -0.30983 h -0.26985 v 0.30983 h -0.80959 v 0.30985 h -0.53972 v 0.61967 h -0.26985 v 0.30985 h -0.27985 v 0.29984 h -0.53973 v 0.30983 h -0.26986 v 0.30985 h -0.26985 v 1.53919 h -0.26986 v 1.23937 h -0.26986 v 5.23727 h -0.26986 v 0.61966 h -0.26987 v 0.6097 h -0.27985 v 0.61968 h -0.25986 v 0.61967 h -0.27985 v 1.84904 h -0.26987 v 0.30983 h -0.26986 v 0.30985 h -0.53972 v 0.30983 h -0.80957 v 0.30983 h -0.53973 v 0.29986 h -0.27984 v 4.31775 h -0.26986 v 0.92952 h -0.26986 v 0.29984 h -0.26987 v 0.61968 h -0.26986 v 0.30983 h -0.26986 v 0.61969 h -0.26985 v 0.30983 h -0.26986 v 0.29984 h -0.26986 v 0.61968 h -0.27986 v 0.61969 h -0.26986 v 0.30983 h -1.07944 v 0.30983 h -0.26986 v 0.60969 h -0.26986 v 0.61969 h -0.26985 v 0.30983 h -0.27985 v 0.61968 h -0.26988 v 1.53919 h -0.26985 v 0.60968 h -0.26986 v 0.30985 h -0.26986 v 0.30983 h -0.26985 v 0.30985 h -0.26986 v 0.30983 h -0.26987 v 0.30984 h -0.53972 v 0.30985 h -0.27984 v 0.9195 h -0.26986 v 0.92952 h -0.26988 v 0.29986 h -0.26985 v 0.30983 h -0.26986 v 0.61969 h -0.26986 v 3.38823 h -0.26985 v 0.61968 h -0.26986 v 0.29984 h -0.26986 v 0.31982 h -0.26987 v 0.29985 h -1.08944 v 0.30985 h -0.53971 v 0.30983 h -0.26986 v -0.30983 h -0.26986 v 0.30983 h -0.26985 v 0.30983 h -0.26986 v 0.91953 h -0.27986 v 0.61968 h -0.26986 v 1.22936 h -0.26986 v 0.30983 h -0.26985 v 2.46872 h -0.26986 v 0.92952 h -0.26988 v 1.22936 h -0.26985 v 0.30985 h -0.26986 v 0.91951 h -0.26986 v 0.61968 h -0.26985 v 1.53919 h -0.27987 v 0.28985 1.24936 h -0.80957 v 0.30983 h -0.26986 v 0.61968 h -0.26985 v 0.30983 h -0.26988 v 2.77856 h -0.53971 v 0.29984 h -0.27985 v 0.30985 h -0.26985 v 0.30984 h -0.26988 v 0.60967 h -0.26946 v 1.5492 h -0.53971 v 0.30985 h -0.26986 v 0.60967 h -0.26985 v 0.61969 h -0.26988 v 0.30983 h -0.26985 v 2.14888 h -0.27985 v 0.30984 h -0.26986 v 0.92951 h -0.26986 v 0.30985 h -0.53973 v 0.29984 h -0.26985 v 1.23935 h -0.26986 v 0.61968 h -0.26986 v 0.29985 h -0.26985 v 1.22936 h -0.26986 v 0.31983 h -0.27987 v 0.60968 h 0.27987 v 0.30985 h -0.27987 v 0.30983 h -0.26985 v 0.30984 h -0.53972 v 0.29984 h -0.26985 v 0.30985 h -0.26988 v 0.92951 h -0.26985 v 0.30984 h -0.53972 v 0.30983 h -0.26986 v 0.29986 h -0.27986 v 0.30983 h -0.53971 v 0.61968 h -0.26986 v 0.30984 h -0.26986 v 0.29984 h -0.80959 v 0.92951 h -0.26985 v 0.30984 h -0.26986 v 0.30985 h -0.27985 v 0.29984 h -0.53973 v -0.29984 h -0.53971 v 0.29984 h -0.26986 v 0.30983 h -0.26986 v 0.30985 h -0.26987 v 0.30984 h -0.5497 v 0.30983 h -0.26986 v 0.30985 h -0.26986 v 0.30983 h -0.26987 v 0.29984 h -0.26986 v 0.30984 h -0.26986 v 0.30985 h -0.26985 v 0.30983 h -0.53972 v 0.30983 h -0.27986 v 0.30985 h -0.26986 v 0.29984 h -0.27006 v 0.30984 h -0.26986 v 0.30985 h -0.26985 v 0.30983 h -0.26988 v 0.30983 h -0.26986 v 0.91953 h -0.26985 v 0.61968 h -0.26986 v 0.60968 h -0.26986 v 0.30985 h -0.27986 v 0.30983 h -0.53971 v 0.30983 h -0.26986 v 0.30985 h -0.53972 v 0.30983 h -0.26985 v 0.29985 h -0.26988 v 0.30983 h -0.53971 v 0.30985 h -0.54972 v 0.30983 h -0.26986 v 0.91953 h -0.26986 v 0.30983 h -1.07942 v -0.30983 h -0.80959 v 0.30983 h -0.27985 v 0.30985 h -0.53973 v -0.30985 h -0.26986 v 0.30985 h -0.26985 v 0.61966 h -0.26986 v 0.30985 h -0.53971 v 0.29985 h -0.81958 v 0.30983 h -0.26986 v 0.30983 h -0.26986 v 0.30985 h -0.26987 v 0.30984 h -0.26986 v 0.30985 h -0.26985 v 0.29984 h -0.26986 v 0.30983 h -0.26986 v 0.30983 h -0.27986 v 0.30985 h -0.26986 v 0.30984 h -0.53971 v 0.30983 h -0.53972 v 0.29984 h -1.61916 v 0.30985 h -0.54972 v 0.61967 h -0.26985 v 0.30985 h -0.26986 v 0.29984 h -0.26986 v 0.30983 h -0.53973 v 0.61968 h -0.26986 v 0.30984 h -0.27984 v 0.30985 h -0.53973 v 0.29984 h -0.26986 v 0.30983 h -0.53972 v 0.30984 h -0.26985 v 0.30985 h -0.26986 v 0.60967 h -0.26986 v 0.30985 h -0.26987 v 0.92952 h -1.89901 v 0.60967 h -0.26985 v 0.61968 h -0.26986 v 0.61967 h -0.26986 v 0.60969 h -0.27986 v 0.31984 h -0.26986 v 0.29984 h -0.26986 v 0.60968 l -0.53971,0.0103 v 0.30985 h -0.26987 v 0.29984 h -0.26986 v 0.30983 h -0.53972 v 0.92952 h -0.27984 v 0.29984 h -2.42875 v 0.30985 h -0.27985 v 0.30983 h -0.26985 v 0.30984 h -0.26988 v 0.30985 h -0.26985 v 0.30983 h -0.26986 v 0.60967 h -0.26986 v 0.92952 h -0.26986 v 0.30985 h -0.26985 v 0.29984 h -0.26986 v 0.61968 h 0.26986 v 0.92952 h -1.89903 v 1.22936 h -0.26985 v 0.29984 h -1.07943 v 0.30983 h -0.26987 v 0.30985 h -0.27985 v 0.30984 h -0.26986 v 0.30983 h -1.07944 v 0.61968 h -0.80957 v 0.60968 h -0.27987 v 2.15889 h 0.27987 v 1.53919 h 0.26985 v 0.30983 h 0.26986 v 0.61968 h -0.26986 v 0.91953 h -1.08943 v 0.30983 h -0.26986 v 0.30985 h 0.26986 v 0.30983 h -0.53972 v 0.29985 h -0.53973 v -0.29985 h -0.26985 v 0.29985 h -0.26986 v 0.30983 h -0.26986 v 0.30985 h -0.27984 v 0.30983 h -0.26988 v 0.30983 h -0.53971 v 0.29986 h -0.26986 v 0.61967 h -0.26986 v 0.91952 h -0.26985 v 0.30984 h 0.26985 v 0.30985 h 0.26986 v 5.5471 h -0.26986 v 0.91953 h 0.26986 v 0.61968 h 0.26986 v 0.29984 h 0.26985 v 0.30984 l 1.08944,0.0103 v 0.91953 h -0.26986 v 0.30985 h -0.27984 v 0.30983 h -0.80959 v 0.29984 h -0.26986 v 0.30984 h -0.53971 v 0.30985 h -0.26986 v 0.9195 l -0.26988,0.0103 v 0.29984 h -0.27984 v 0.30984 h -0.26986 v 0.30983 h -0.26986 v 0.61968 h -0.26987 v 0.29984 h -0.26986 v 0.30985 h -0.26985 v 0.30984 h -0.26986 v 0.30983 h -0.26986 v 0.30985 h -0.26986 v 0.29984 h -0.27986 v 0.30983 h -0.25987 v 0.61969 h -0.27984 v 0.91952 h -0.26986 v 0.61967 h -0.26986 v 0.60969 h -0.26985 v 0.61967 h -0.26988 v 0.30985 h -0.26986 v 0.30983 h -0.80957 v 0.30983 h -0.26985 v 0.30985 h -0.27987 v 0.29984 h -0.26985 v 0.61969 h -0.26986 v 0.61966 h 0.26986 v 0.29984 h 0.26985 v -0.29984 h 0.54972 v 0.29984 h 0.26986 v 0.61969 h -0.26986 v 0.92951 h -0.26985 v -0.31982 h -0.27987 v 0.31982 h -0.26985 v 0.29985 h -0.26986 v 0.92951 h 0.26986 v 1.22936 h 0.26985 v 0.61968 h 0.27987 v 0.29984 h 0.26985 v 0.30985 h 0.80957 v 0.30984 h 0.26986 v 0.30983 h 1.07945 v 0.30985 h 0.27984 v -0.12999 -0.17991 h 0.25987 v 0.17991 h 0.0103 v 1.3593 h -0.81958 v 0.30983 h -0.26986 v 0.30983 h -0.26985 v 0.29986 h -0.26988 v 0.30983 h -0.26986 v 0.61969 h -0.26985 v 0.29984 h -0.26986 v 0.92951 h -0.27986 v 0.30984 h 0.27986 v 0.92951 h 0.53971 v 0.29984 h 0.53974 v -0.29984 h 0.53971 v 0.29984 h 0.26986 v 0.61969 h -0.26986 v 0.29984 h -0.26986 v 0.30983 h -0.26985 v 0.30985 h -0.53974 v 0.61967 h 0.26986 v 0.60969 h 0.53973 v 0.30983 h 0.26986 v 0.30984 h 0.26986 v 0.30985 h 0.27984 v 0.91952 h -0.27984 v 0.30983 h -0.26986 v 0.61969 h -0.26986 v 0.30983 h -0.53973 v 0.29984 h -0.26986 v 0.30984 h -0.26985 v 0.30984 h -0.26986 v 0.30984 h -0.27986 v 0.30985 h -0.25985 v 0.29984 h -1.3593 v -0.29984 h -0.53973 v -0.30985 h -0.53971 V 452.481 h -0.81958 v 0.61969 h -0.26986 v 0.60967 h -0.26985 v 1.84904 h -0.26986 v 0.91953 h -0.26986 v 3.38823 h -0.26985 v 4.31775 h 0.26985 v 1.5392 h 0.26986 v 1.22936 h -0.26986 v 2.76855 h -0.26985 v 0.30985 h -0.26988 v 1.22936 h -0.27984 v 1.22936 h -0.26986 v 0.30983 h 0.26986 v 0.61968 h 0.27984 v 0.6097 h 0.26988 v 0.30983 h 0.26985 v 0.30983 h 0.26986 v 0.30985 h 0.26986 v 0.60968 h 0.26985 v 1.84904 h -0.26985 v 0.30983 h -0.53972 v 1.22936 h -0.26985 v 0.61968 h -0.26988 v 0.29984 h -0.27984 v 0.61969 h -0.26986 v 0.91952 h -0.26986 v 0.30983 h -0.80959 v 0.30984 h -0.53971 v 0.30985 h -0.26986 v 0.30983 h -0.26985 v 0.61968 h -0.27987 v 0.29985 h -0.26986 v 0.30983 h -0.26985 v 0.30985 h -0.26986 v 0.30983 h -0.53973 v 0.29984 h -0.26986 v -0.29984 h -0.26985 v 0.29984 h -0.26986 v 0.30984 h -0.26986 v 0.60969 h -0.27986 v 0.31982 h -2.15888 v 0.29984 h -0.27984 v 0.30985 h -0.25987 v 0.30984 h -0.27986 v 0.30983 h 0.27986 v 2.45873 h -0.27986 v 0.30984 h 0.27986 v 2.14888 h -0.27986 v 1.23935 h -0.26984 v 0.29984 h -1.07943 v 0.30985 h -0.26987 v 0.30983 h -0.27985 v 0.30985 h -0.25987 v 0.61967 h 0.25987 v 0.29984 h 0.27985 v 0.30985 h 0.26987 v 0.91951 h -0.26987 v 0.30985 h -0.81956 v 0.61966 h -0.26986 v 0.30985 h -0.26987 v 0.29985 h -0.26986 v 0.61968 h -0.26986 v 0.30983 h -0.53971 v 0.30983 h -0.26986 v 0.29985 h -0.26986 v 0.30985 h -0.54972 v 1.22936 h -0.26985 v 0.61968 h -0.26986 v 0.91951 h 0.26986 v 0.30985 h 0.26985 v 0.9195 h -0.26985 v 0.30985 h -0.53974 v 0.30984 h -0.80957 v -0.30984 h -0.26985 v -0.30985 h -0.26986 v 0.30985 h -1.62915 v 0.30984 h 0.26986 v 0.61968 h -0.26986 v 0.61968 h -0.26987 v 1.5292 h -0.26986 v 0.30984 h -0.26986 v 0.30985 h -0.26986 v 0.29984 h -0.54972 v 0.31982 h -0.26985 v 0.29984 h -0.53972 v 0.30985 h -0.26985 v 0.30984 h -0.80959 v 0.30983 h -0.26986 v 0.30985 h -0.27985 v -0.30985 h -0.80958 v -0.30983 h -0.80957 v 0.61968 h -0.26986 v 0.60967 h -0.27987 v 0.30984 h -0.25986 v 0.60969 h -0.27985 v 0.30983 h -0.53971 v 0.30985 H 648.184 v 0.30983 h 0.26988 v 0.60968 H 648.184 v 0.30985 h -0.53971 v -0.30985 h -0.26986 v -0.30983 h -0.26986 v 0.30983 h -0.54972 v 0.30985 H 646.285 v 0.30983 h -0.26986 v 0.30984 h -0.26986 v 0.60969 h -0.26985 v 0.30983 h -0.26986 v 0.30985 h -0.26988 v 0.30983 h -0.80957 v 0.29985 h -1.08943 v 0.30983 h -1.3493 v 0.30985 h -0.26986 v 0.30983 h -0.81958 v 0.30983 h -0.26986 v 0.29985 h -0.80957 v -0.29985 h -0.26985 v 0.29985 h -0.54972 v 0.30985 h -0.80958 v 0.30983 h -0.26987 v 0.30985 h -0.26986 v 0.30983 h -0.26985 v 0.29985 h -0.26986 v 0.30983 h -0.26986 v 1.22936 h -0.27986 v 0.61968 h -0.25985 v 0.30983 h -0.27987 v 0.30985 h -0.26985 v 0.29984 h -0.26986 v 0.30984 h -0.26986 v 0.30985 h -0.26987 v 0.30983 h -0.80957 v 0.29984 h -0.26986 v 0.31984 h -0.27986 v 0.60968 h -0.26986 v 0.30983 h -0.26986 v 0.30985 h 0.26986 v 0.91953 h -0.26986 v 0.60967 h -0.26985 v 0.30983 h -0.26986 v 0.61969 h -0.26986 v 2.14888 h 0.26986 v 0.61968 h 0.26986 v 4.30776 h -0.26986 v 0.60967 h -0.26986 v 0.61969 h -0.26986 v 0.61968 h -0.26987 v 0.29984 h -0.26986 v 0.30984 h -0.26985 v 0.61968 h -0.27985 v 0.29984 h -0.26987 v 0.30983 h -0.26986 v 0.30984 h -0.26986 v 0.30985 h -0.26986 v 0.60967 h -0.27016 v 0.30985 h -0.26986 v 1.22936 h -0.26986 v 0.30983 h -0.26987 v 2.15888 h -0.26986 v 1.5392 h -0.27984 v 0.29985 h 0.27984 v 2.15887 h 0.26986 v 0.60968 h 0.26987 v 0.92951 h 0.26986 v 0.29986 h 0.26986 v 0.61967 h 0.22988 v 0.12998 l 0.0401,0.78959 h 0.25987 l 0.0103,0.92952 h 0.26985 v 1.53921 h 0.26986 v 1.22935 h -0.26988 v 0.30984 h -0.26985 v 0.29984 h -0.26986 v 0.30983 h -0.53972 v 0.30985 h -0.26985 v 0.30983 h -0.53973 v 0.30985 h -0.81956 v 0.30984 h -0.26988 v 0.29984 h -0.26986 v 0.30983 h -0.26985 v 0.30985 h 0.26985 v 0.91951 h 0.26986 v 0.30985 h 0.26988 v 1.22936 h -0.26988 v 0.30983 h -0.26986 v 0.29984 h -0.80957 v 0.30985 h -0.26985 v 0.30984 h -0.27987 v 0.30983 h 0.27987 v 0.60969 h 0.26985 v 0.61969 h -0.26985 v 0.9195 h -0.27987 v 0.61969 h -0.25987 v 0.60967 h 0.25987 v 0.30985 h 0.27987 v 1.53919 h 0.26985 v 0.91953 h -0.26985 v 0.30983 h -0.27987 V 567.891 h -0.25987 v -0.60968 h -0.27984 v 0.30983 h -0.53972 v 0.29985 h -0.26987 v 0.30983 h -0.53971 v 0.61968 h -0.26986 v 0.29985 h -0.54972 v 0.61968 h 0.27986 v 0.30983 h 0.26986 v 0.30985 h 0.26986 v 0.30983 h 1.07944 v 0.29985 h 0.5497 v 0.30983 h 0.25987 v 0.30985 h 0.27987 v 0.60967 h 0.26985 v 0.84957 2.0989 0.43977 h -0.26985 v 0.30985 h 0.26985 v 0.29984 h 0.26986 v 0.30983 h 0.08 0.18991 v 0.69964 0.21989 h 0.26985 v 0.80957 0.72962 h 0.26986 v 0.30985 h 0.26988 v 1.02946 1.73909 h 0.26985 v 0.61968 h 0.26986 v 0.29984 h 0.1599 0.11984 v 0.30985 h 0.26986 v 0.30983 h 0.26987 v 1.87903 0.27985 h -0.26987 v 3.98793 h -0.26986 v 0.61967 h -0.27984 v 0.60969 h -0.26986 v 0.30983 h -1.07945 v 0.30984 h -0.26985 v 0.30985 h -0.26986 v 1.83903 h -0.26986 v 0.30985 h -0.27986 v 0.61966 h -0.25987 v 0.29985 l -0.27985,0.0103 v 0.29985 h 0.27985 v 0.30983 h 0.53973 v 0.30983 h 0.53972 v 0.30985 h 0.53971 v 0.60968 h 0.26986 v 0.6192 h 0.26987 v 0.29984 h 0.26986 v 0.30983 h 0.26986 v 0.30985 h 0.27984 v 0.30984 h 0.26986 v 0.30983 h 0.26987 v 0.29984 h 0.25985 l 0.0103,1.22938 h -0.53973 v 0.30983 h -0.0999 -0.16987 v 0.42978 0.1899 h 0.26986 v 0.29985 h 0.26987 v 0.30983 h -0.26987 v 0.30983 h -0.26986 v 0.34983 0.26985 h -0.27985 v 0.6097 h -0.26986 v 0.91951 h 0.26986 v 0.61968 h 0.27985 v 0.30983 h -0.54971 v 0.30985 h -0.26985 v 0.60968 h -0.26988 v 0.61968 h -0.26985 v 0.29984 h -0.26986 v 0.30983 h -0.26986 v 0.91953 H 625.976 v 0.30983 h 0.26985 v 0.30985 H 625.976 v 0.30983 h -0.26986 v 0.29985 h -0.27987 v 0.61968 h -0.25986 v 0.30983 h -0.81956 v 1.5292 h -0.26988 v 1.84904 h -0.53971 v 0.30985 h -0.26986 v 0.30984 h 0.26986 v 0.30983 h 0.26986 v 0.91953 h 0.26985 v 1.5392 h 0.26988 v 0.60968 h 0.53971 v 0.30983 h 0.27985 v 0.30985 h -0.27985 v 0.29984 h -0.53971 v -0.29984 h -0.26988 v 0.29984 h -0.26985 v 0.61967 h -0.26986 v 1.22937 h 0.26986 v 1.5392 h 0.26985 v 1.5392 h -0.26985 v 2.14887 h 0.26985 v 0.61968 h -0.26985 v 2.14889 h -0.26986 v 0.91952 h -0.26986 v 0.30983 h -0.26986 v 3.0784 h -0.27986 v 0.29985 h -0.26986 v 0.92951 h 0.26986 v 0.29984 h 0.27986 v 1.22936 h -0.27986 v 0.30985 h -0.26986 v 0.30983 h 0.26986 v 1.53921 h -0.26986 v 0.29985 h -0.26985 v 0.30983 h -0.53972 v 0.30983 h -0.26985 v 0.30985 h -0.26988 v 0.60968 h -0.26986 v 0.30985 h -0.53971 v -0.30985 h -0.54972 v 1.84904 h -0.26986 v 0.30983 h -0.26985 v 0.91953 h -0.26986 v 0.91952 h -0.26986 v 0.30983 h -0.53971 v 0.30985 h -0.53973 v -0.30985 h -0.27985 v 0.30985 h -0.53971 v 0.29985 h -0.53974 v 0.30983 h -0.26985 v 0.30983 h -0.26986 v 0.30985 h 0.26986 v 0.29984 h 0.26985 v 0.30984 h 0.26986 v 0.30985 h 0.26988 v 0.30983 h -0.26988 v 0.30983 h -0.26986 v 0.29985 h -0.26985 v 0.30985 h -0.53972 v 0.30983 h -0.26985 v 0.30983 h -0.27987 v 0.29984 h 0.27987 v 0.30985 h 0.26985 v 0.91953 h -0.26985 v 0.61966 h -0.27987 v 0.30985 h -0.26985 v 0.29985 h -0.26986 v 0.30983 h -0.26986 v 0.30983 h -0.53973 v 0.30985 h -0.26986 v 0.29985 h -0.26985 v 0.30983 h -0.26986 v 0.30983 h -0.26986 v 0.30985 h -0.54972 v 0.29984 h -0.26986 v 0.30984 h -0.26985 v 0.30985 h -0.26986 v 0.30983 h -0.26986 v 0.29984 h -0.26987 v 0.30983 h -0.26986 v 0.30985 h -2.43872 v -0.30985 h -0.53973 v 0.30985 h -0.26986 v 0.30984 h -0.5497 v 0.29984 h -0.26987 v 0.30985 h -0.26986 v 0.61966 h -0.26986 v 0.30985 h -0.26985 v 1.21943 h -0.27057 v 0.30985 h -0.26985 v 0.30983 h -0.26986 v 0.30983 h -0.26988 v 0.30985 h -0.27984 v 0.29984 h -0.26986 v 0.30984 h -0.53971 v 0.30985 h -0.53973 v 0.30983 h -0.26986 v 0.29984 h -0.26986 v 0.30983 h -0.26985 v 0.30985 h -1.08944 v 0.30984 h -0.26986 v 0.29984 h -0.80958 v 0.30983 h -0.53972 v 0.30985 h -0.54972 v 0.30984 h -0.26986 v 0.29984 h -0.26985 v 0.30985 h -0.26986 v 0.61966 h -0.26986 v 0.29985 h -0.80959 v 0.30985 h -0.27984 V 665.68 h -0.25987 v 0.30983 h 0.25987 v 0.60969 h -0.53972 v 0.30984 h -0.26987 v 0.30985 h -0.53971 v 0.29984 h -0.26986 v 0.61967 h -0.26986 v 0.30984 h -0.26986 v 0.60968 h -0.26985 v 0.61968 h -0.27987 v 0.29985 h -0.26985 v 0.30983 h -0.26986 v 1.53921 h -0.26986 v 0.30983 h -0.26987 v 0.29984 h -0.53972 v 0.92952 h -0.26985 v 0.29984 h -0.53972 v 0.30985 h -0.26985 v 0.30983 h -0.27987 v 0.30984 h -0.26985 v 0.29984 h -0.26986 v 0.30985 h -1.07945 v 0.30983 h -0.26985 v 0.30983 h -0.26986 v 0.29986 h -0.27985 v 0.30984 h -0.26987 v 0.30983 h -0.26986 v 0.30985 h -0.26986 v 0.29984 h -0.53971 v 0.30983 h -0.26986 v 0.30984 h -0.26987 v 0.30985 h -0.53972 v 0.29984 h -0.5497 v 0.30983 h -0.26987 v 0.30984 h -0.26986 v 0.30985 H 584.257 v 0.29984 h -0.53972 v 0.30983 h -0.26985 v 0.30985 h -0.54973 v 0.30983 h -0.53971 v 0.29985 h -0.53973 v 0.30983 h -0.26986 v 0.30985 h -0.53971 v 0.30983 h -0.81958 v 0.29984 h -0.26986 v 0.30984 h -0.53971 v 0.30985 h -0.26986 v 0.29984 h -0.53973 v 0.30983 h -0.26986 v 0.30985 h -0.26985 v 0.30984 h -0.26986 v 0.29984 h -0.27986 v 0.30983 h -0.53972 v 0.30985 h -0.53971 v 0.30983 h -0.26986 v 0.29985 h -0.53973 v 0.31984 h -0.26986 v 0.29984 h -0.27984 v 0.61968 h -0.26986 v 0.30983 h -0.26988 v 0.29985 h -0.26985 v 0.30983 h -0.26986 v 0.29984 h -0.26986 v 0.31984 h -0.26985 v 0.29985 h -0.26986 v 0.30983 h -0.26987 v 0.60969 h -0.26986 v 0.30983 h -0.5497 v 0.30985 h -0.26986 v 0.29985 h -1.07945 v 0.31982 h -0.53971 v 0.29984 h -0.54972 v 0.30985 h -0.53972 v 0.30983 h -0.53973 v 0.29985 h -0.26985 v 0.92951 h -0.26986 v 0.30985 h -0.5497 v 0.60968 h -0.25987 v 0.30983 h -0.27987 v 0.29984 h -0.53971 v 0.30985 h -0.53971 v 0.30984 h -0.26986 v 0.29984 h -0.26988 v 0.30985 H 565.027 v 0.30983 h -0.53972 v 0.30983 h -0.54972 v 0.30985 h -0.53971 v 0.29985 h -0.26986 v 0.30983 h -0.53971 v 0.30983 h -0.53973 v 0.29985 h -0.54971 v 0.30984 h -0.53973 v 0.30984 h -0.53971 v 0.30983 h -0.26986 v 0.29986 h -0.26986 v 0.30983 h -0.26985 v 0.30984 h -0.26986 v 0.30985 h -0.27986 v 0.29984 l -0.53972,0.0103 v 0.29985 h -0.53973 v 0.61968 h -0.26986 v 0.29984 h -0.53971 v 0.30984 h -0.54972 v 0.30983 h -0.26986 v 0.30985 h -0.26986 v 0.29984 h -0.53971 v 0.30983 h -0.53971 v 0.30985 h -0.81958 v 0.29985 h -0.53973 v 0.30983 h -0.26986 v 0.30983 h -0.53971 v 0.45977 0.14993 h -0.26986 v 0.30983 h -0.49974 -0.5897 v 0.30985 h -0.25986 v 0.30983 h -0.27985 v 0.30983 h -0.41979 -0.12001 v -0.30983 h -1.34928 v 0.30983 h -0.26988 v 0.6097 h -0.27984 v 0.58967 l -0.26986,0.0199 v 0.13996 0.16987 h -0.26986 v 0.30985 h -0.26986 v 0.30983 h -0.76961 -1.39927 v 0.29985 h -1.3493 v 0.92951 h -0.26986 v 0.29985 h -0.81957 v 0.30985 h -0.26986 v 0.30983 h -1.61916 v 0.30983 h -0.27985 v 0.91953 h -0.26985 v 0.35981 0.24988 h -0.26986 v 0.30983 h -0.26987 v 0.60968 h -0.26986 v 0.30985 h -0.26986 v 0.61966 h -0.26986 v 0.29985 h -0.26985 v 0.61968 h -0.26986 v 0.30985 h -0.26986 v 0.60967 h -0.26987 v 0.91953 h -0.27985 v 0.61966 h -0.26985 v 0.30985 h -0.26986 v 0.29985 h -0.26986 v 0.61968 h -0.26987 v 0.30983 h -0.26986 v 0.29985 h -0.26986 v 0.30983 h -0.26985 v 0.30985 h -0.26986 v 0.30983 h -0.26986 v 0.29984 h -0.54975 v 0.30984 h -0.26986 v 0.30985 h -0.53971 v 0.29984 h -0.26987 v 0.30983 h -0.53972 v 0.30985 h -0.26985 v 0.30983 h -0.26979 v 0.30984 h -0.27987 v 0.29984 h -0.26985 v 0.30985 h -0.53972 v 0.30983 h -0.26985 v 0.29985 h -0.53972 v 0.30983 h -0.26987 v 0.30985 h -0.26986 v 0.30983 h -0.5497 v 0.29984 h -0.53973 v 0.30985 h -0.53972 v 0.30984 H 528.456 v 0.30983 h -0.53971 v 0.29984 h -0.27986 v 0.30985 h -0.26986 v 0.30983 h -0.53971 v 0.29985 H 526.557 v 0.30983 h -0.53973 v 0.30985 h -0.53972 v 0.30983 h -0.26985 v 0.29985 h -0.27987 v 0.31984 h -0.53971 v 0.29984 h -0.26986 v 0.30983 h -0.53971 v 0.29984 h -0.26988 v 0.30985 h -0.26985 v 0.30984 h -1.3593 v 0.30983 h -0.26985 v 0.29984 h -0.53972 v 0.30985 h -0.53973 v 0.30983 h -0.80957 v 0.30985 h -0.54972 v 0.29985 h -0.26986 v 0.30983 h -0.53971 v 0.30983 h -1.07945 v 0.29985 l -1.08943,0.0103 v 0.29984 h -0.26986 v 0.30984 h -0.26985 v 0.60967 h -0.26986 v 0.30985 h -0.26986 v 0.30984 h -0.81958 v 0.30985 h -0.26985 v 0.30983 h -0.26986 v 0.29984 h -0.26986 v 0.30983 h -0.53973 v 0.30985 h -0.53971 v 0.29985 h -0.81958 v 0.30983 h -0.53971 v 0.30983 h -0.80958 v 0.29986 h -0.26987 v 0.30983 h -0.26986 v 0.30984 h -0.5497 v 0.30985 h -0.53973 v 0.30983 h -0.53972 v 0.29984 h -0.26985 v 0.30984 H 507.327 v 0.30985 h -0.54972 v 0.29984 h -0.80957 v 0.30983 h -0.53973 v 0.30983 h -0.80957 v 0.29986 h -0.53972 v 0.30984 h -0.54972 v 0.30983 h -0.53971 v 0.30985 h -0.53972 v 0.29984 h -0.53973 v 0.30983 h -0.26985 v 0.30984 h -0.81958 v 0.30985 h -0.26986 v 0.29984 h -0.53971 v 0.31982 h -0.80959 v 0.29985 h -0.53972 v 0.30985 h -0.5497 v 0.29984 h -0.26987 v 0.30983 h -0.26986 v 0.30985 h -0.53971 v 0.30983 h -0.26986 v 0.29985 h -1.62915 v 0.30983 h -0.53973 v 0.30985 h -0.80957 v 0.30983 h -2.43874 v 0.29984 h -0.26986 v 0.30985 h -0.26985 v 0.30984 h -0.26986 v 0.30983 h -0.54972 v 0.29984 h -1.3493 v 0.30985 h -1.08944 v 0.30984 h -0.80957 v 0.29984 h -0.26986 v 0.30983 H 486.198 v 0.30985 h -1.62915 v 0.30983 h -0.26988 v 0.29985 h -0.26985 v 0.61968 h -0.26986 v 0.30983 h -0.26986 v 0.29984 h -0.26985 v 0.30985 h -0.26986 v 0.30984 h -0.26988 v 0.29984 h -0.5497 v 0.30983 h -0.53971 v 0.30985 h -0.80959 v 0.30984 h -0.54971 v 0.29984 h -0.26987 v 0.30985 h -0.25985 v 0.30983 h -0.54972 v 0.30983 h -0.80959 v 0.29985 h -0.26986 v 0.30985 h -0.80957 v 0.30983 h -0.54972 v 0.29984 h -1.07943 v 0.30983 h -0.26985 v 0.30985 h -0.53973 v 0.30984 h -0.54971 v 0.29984 h -0.53973 v 0.30985 h -0.53971 v 0.30983 h -0.53972 v 0.30984 h -0.81957 v 0.29984 h -1.07945 v 0.30985 h -1.07943 v 0.30983 h -0.53971 v 0.29984 h -0.81958 v 0.30984 h -0.53973 v 0.30985 h -0.81956 v 0.30983 h -0.80959 v 0.29984 h -0.53971 v 0.30985 h -0.26986 v 0.30983 h -0.80959 v 0.30984 h -1.35929 v 0.29984 h -0.53971 v 0.30985 h -0.80958 v 0.30983 h -1.35929 v 0.29985 h -1.3493 v 0.30983 h -0.81958 v 0.30985 h -1.07944 v 0.30983 h -0.53972 v 0.30985 h -0.5497 v 0.29984 h -1.3493 v 0.30984 h -0.80959 v 0.30983 h -0.5497 v 0.29984 h -1.61916 v 0.30985 h -1.3593 v 0.30983 h -1.07944 v 0.29985 h -1.07943 v 0.30983 h -0.81958 v 0.30985 h -2.43873 v 0.30983 h -0.80958 v 0.29985 h -0.53973 v 0.30985 h -0.81956 v 0.30983 h -1.61916 v 0.30983 h -1.35929 v 0.29984 h -5.41719 v 0.30985 h -2.15887 v 0.30984 h -2.16888 v 0.29984 h -0.81956 v 0.30985 h -0.53973 v 0.30983 h -0.53972 v -0.30983 h -0.51973 -0.28984 v -0.30985 h -0.27986 v -0.60968 h -0.26986 v 0.30984 h -0.53971 v 0.29984 h -1.89902 v 0.30985 h -0.26986 v 0.30983 h -1.34929 v -0.30983 h -0.53973 v 0.61966 h -0.27984 v 0.29985 h -0.80959 v 0.92951 h -0.26986 v 0.29985 h -0.69963 -0.64967 v -0.29985 h -1.35929 v 0.29985 h -0.53972 v 0.30985 h -2.97845 v 0.30983 h -1.62915 v 0.29984 h -0.26985 v 0.30985 h -0.53972 v 0.30983 h -2.70859 v 0.29985 h -1.89903 v 0.31984 h -0.26985 v 0.24986 l -0.53972,0.05 v 0.30983 h -2.99844 -5.66705 v 0.29985 h -0.81958 v 0.30983 h -2.70858 v 0.30985 h -0.53973 v 0.30983 h -0.80957 v -0.14993 -0.1599 h -0.26986 v -0.30985 h -0.53973 v -0.30983 h -0.27984 v -0.60968 h -0.26986 v -0.29984 h -0.26986 v -0.31984 h -0.26986 v -0.60968 h -0.26987 v -0.91952 h -0.53971 v -0.30985 h -0.26986 v -0.60968 h -0.54972 v -0.30983 h -0.26986 v -0.30985 h -0.26986 v -0.29984 h -0.26985 v -0.30984 h -1.07945 v 0.60968 h -0.26985 v 0.30985 h -0.27985 v 0.30983 h -0.26986 v 0.30983 h -0.1899 -0.61969 v 0.29985 h -0.80957 v 0.30985 h -0.26985 v 0.30983 h -0.26988 v 0.29984 h -0.27985 v 0.30985 h -0.53971 v 0.30983 h -0.80959 v 0.29985 h -0.26985 v 0.31984 h -0.26986 v 0.29984 h -0.73961 -1.42927 v 0.30983 h -1.89901 v -0.30983 h -0.26985 v -0.29984 h -0.26986 v -0.28986 -0.32983 h 0.26986 v -0.61958 h -0.26986 v -0.60967 h -1.08944 v -0.30985 h -1.07944 v -0.29985 h -0.80957 v 0.29985 h -0.53972 v 0.30985 h -0.26987 v 0.14993 0.1599 h -1.08944 v -0.30983 h -0.26985 v -0.12999 -0.17991 h -0.53972 v -0.29985 h -0.26985 v -0.30983 h -0.26986 v -0.30983 h -0.54972 v -0.30985 h -1.88902 v 0.30985 h -0.26985 v 0.30983 h -0.47976 -0.33982 v 0.30983 h -0.42978 -0.10987 v 0.29985 h -0.26985 v 0.30985 h -0.26986 v -0.12002 -0.1899 h -0.53973 v 0.5997 0.9395 h -0.26986 v 0.29985 h -0.26986 v 0.31984 h -0.27984 v 0.29984 h -0.26988 v 0.30983 h -0.26985 v 0.29985 h -1.34931 v -0.29985 h -0.1599 -0.10987 v -0.30983 h -0.26986 v -0.61968 h -0.27984 v -0.29985 h -0.26986 v -0.61968 h -0.26987 v -0.29984 h -0.80957 v -0.30983 h -0.80958 v -0.30985 h -1.35929 v -0.29985 h -0.26987 v -0.30983 h -0.26986 v -0.30983 h -0.26986 v -0.30985 h -0.26985 v -2.44873 h -0.26986 v -1.84904 h -0.27986 v -0.30983 h -0.53972 v -0.29984 h -0.53971 v -0.30984 h -0.26986 v -0.30985 h -0.53973 v -0.29984 h -0.5497 v -0.30983 h -2.15889 v 0.30983 h -0.26986 v 0.60969 h -0.27985 v 0.30984 h 0.27985 v 0.29984 h -0.27985 v 0.61968 h -0.25986 v 0.30983 h -0.27985 v 0.29985 h -0.26988 v 0.61968 h -0.26985 v 0.60967 h -0.26986 v 0.30985 h -0.26986 v 0.30984 h -0.26985 v 0.29984 h -0.53972 v 2.76857 h -0.26987 v 0.30983 h -1.08944 v -0.30983 h -0.11984 -0.68964 v 0.30983 h -0.27985 v 0.29984 h -0.25987 v 0.30985 h -0.27986 v 0.30983 h -0.26986 v 0.29985 h -0.26985 v 0.31984 h -0.53972 v -0.31984 h -0.26985 v 0.61968 h -0.26988 v 0.30983 h -0.26986 v 0.60968 h -0.26985 v 0.42978 1.10943 h 0.53971 v 0.30983 h 0.53973 v 0.29984 h 0.26986 v 0.30985 h 0.26986 v 0.61967 h 0.26985 v 0.26987 l 0.54972,0.0299 v 0.30985 h 0.25987 v 0.29984 h 0.13996 0.13996 v 0.30983 h 0.26985 v 0.30985 h 0.47976 0.32983 v 0.22987 l 0.11984,0.0401 0.14993,0.0401 v 0.29984 h 0.28986 0.79958 v 0.30984 h 0.26986 v 0.30985 h 0.26985 v 0.30983 h 0.26986 v 1.5292 h -0.26986 v 2.14888 h -0.26985 v 5.22729 h 0.26985 v 0.29984 h 0.26986 v 0.30983 h 0.78959 l 0.0103,0.14993 0.0103,0.14993 h 0.27985 v 0.61968 h -0.1799 -0.0999 v 0.30984 h -0.53974 v -0.30984 h -0.80957 v 0.92952 h 0.26986 v 0.29984 h 0.26986 v 0.30985 h 0.26985 v 0.34981 0.87955 h -0.26985 v 0.60968 h -0.26986 v 0.30985 h -0.53971 v -0.30985 h -0.26986 v 0.30985 h -1.08944 l -0.0401,-0.30985 h -1.57916 v -0.30984 h -1.62915 v 0.30984 h -0.26988 v 0.30985 h -0.53971 v 0.30983 h -0.26986 v 0.60967 h -0.27986 v 0.30985 h -0.26978 v 0.29985 h -0.53971 v 0.30983 h -0.26986 v 0.30983 h -0.26986 v 0.30985 h -0.26985 v 0.91953 h -0.26988 v 0.91951 h -0.26985 v 0.91952 h -0.27985 v 1.22936 h -0.26986 v 0.91953 h -0.26986 v 1.83905 h -0.26987 v 0.30983 h -0.26986 v 0.30983 h -0.26985 v 0.30985 h -0.80957 v 0.29984 h -0.54973 v 0.30984 h -0.26985 v 0.30983 h -0.53972 v 2.14888 h 0.26986 v 0.29985 h -0.26986 v 0.27986 l -0.80958,0.0299 v -0.30985 h -0.26986 v 0.61968 h -0.26986 v 0.30983 h -0.81958 v 0.29985 h -0.53971 v 0.30985 h -0.26986 v 0.30983 h -0.26987 v 0.30983 h 0.26987 v 0.60969 h -0.26987 v 0.91953 h -0.26986 v 0.30979 h -0.53971 v 0.91953 h 1.3493 v 0.30983 h 0.26986 v 0.29984 h 0.26985 v 0.30985 h 0.81958 v 0.30984 h 0.26986 v 0.29984 h 1.07944 v -0.29984 h 0.26986 v -0.30984 h 0.26986 v -0.30985 h 0.26985 v -0.29984 h 0.10987 0.16988 v -0.30983 h 0.26987 v -0.0999 -0.2099 h 0.11984 0.14993 v -0.23987 -0.67964 h 0.26986 v -0.30985 h 0.26986 v -0.29984 l 0.26985,-0.0401 v -1.80907 h 0.26986 v -1.5292 h 0.26988 v -0.30983 h 0.26985 v 0.30983 h 0.26986 v -0.30983 h 0.27985 v -0.30983 h 0.26985 v -0.29986 h 0.26988 v 0.29986 h 0.51972 1.919 v -0.29986 h 0.26985 v -0.30984 h 0.26988 v -0.30983 h 0.26986 v -0.29984 h 0.26985 v -0.30985 h 0.80957 v -0.30984 h 1.62915 v -0.30983 h 1.07945 l 0.0103,-0.29984 h 1.07945 v -0.30985 h 1.07944 v 0.30985 h 1.89901 v 0.29984 h 0.53971 v -0.29984 h 0.53974 v -0.30985 h 1.62914 v -0.30983 h 0.26986 v -0.30984 h 0.26986 v -0.29986 h 0.81958 v -0.30983 h 0.80957 v -0.30983 h 0.80959 v -0.29984 h 2.16886 v -0.30985 h 0.26986 v -0.30984 h 1.62914 v -0.30983 h 0.26988 v -0.29984 h 0.80957 v 0.29984 h 0.53971 v -0.29984 h 2.7086 v 0.29984 h 0.81958 v 0.30983 h 2.97845 v 0.30984 h 0.26985 v 0.30985 h 0.26986 v 0.29984 h 2.97845 v 0.30983 h 0.26986 v 0.30983 h 1.35929 v -0.30983 h 1.07945 v -0.30983 h 1.35929 v 0.30983 h 0.53971 v 0.30983 h 1.07945 v 0.29986 h 0.53971 v 0.30984 h 0.54972 v 0.30983 h 0.80957 v 0.30985 h 0.53973 v 0.29984 h 1.3593 v 0.30983 h 1.07942 v 0.30984 H 388.14 v 0.30985 h 2.70857 v 0.29984 h 1.89903 v 0.30983 h 1.07942 v 0.30984 h 0.26986 v 0.29986 h 0.53973 v 0.30983 h 0.80957 v 0.30983 h 1.89901 v 0.29984 h 1.08943 v 0.30985 h 0.80959 v 0.30984 h 0.53972 v 0.30983 h 0.26985 v 0.29984 h 0.53973 v 0.30985 h 0.54971 v -0.30985 h 0.53971 v 0.30985 h 0.26988 v 0.30983 h 1.35929 v -0.30983 h 0.29984 1.04944 v 0.30983 h 0.26988 v 0.14993 0.45977 h 0.26985 v 0.30983 h 0.26986 v 1.83903 h 0.27985 v -0.30983 h 0.25987 v -0.29984 h 1.62914 v -0.30983 h 2.1189 l 0.05,0.30983 h 0.53971 v 0.29984 h 0.26986 v 0.30983 h 0.54972 v 0.30985 h 0.53971 v 0.30984 h 0.53973 v 0.29984 h 0.26986 v 0.30985 h 0.26986 v 0.30983 h 0.26985 v 0.29984 h 0.53972 v 0.30984 h 1.62915 v 0.30985 h 2.43873 v 0.30983 h 0.53972 v 0.29984 h 0.26987 v 0.30984 h 1.62915 v 0.30985 h 0.26986 v 0.29984 h 0.53971 v 0.30983 h 0.26986 v 0.30985 h 1.35929 v 0.60968 h 0.26988 v 0.30983 h 0.26985 v 0.30985 h 2.43872 v 0.29984 h 0.53973 v 0.30983 h 0.26986 v 0.30984 h 1.08944 v 0.30985 h 1.34928 v 0.29984 h 0.53973 v 0.30983 h 0.81956 v 0.29985 h 0.80959 v 0.31984 h 1.35929 v 0.29984 h 0.53972 v 0.0899 0.21988 h 0.53973 v 0.30985 h 0.26985 v 0.29984 h 0.53972 v 0.30983 h 0.26986 v -0.30983 h 1.62914 v 0.30983 h 4.06789 v 0.30983 h 0.53973 v -0.30983 h 0.80957 v -0.30983 h 0.53972 v 0.30983 h 0.53973 v -0.30983 h 1.08942 v 0.30983 h 0.53973 v 0.30983 h 0.80957 v 0.6097 h 0.54972 v 0.30983 h 0.53971 v -0.30983 h 0.26986 v 0.30983 h 0.53973 v 0.30985 h 1.07943 v 0.29984 h 2.71858 v 0.30984 h 0.53973 v 0.30983 h 0.26986 v 0.29984 h 0.26986 v 0.30985 h 1.88901 v 0.30983 h 3.2583 v 0.30984 h 0.80959 v 0.29986 h 0.26986 v 0.61966 h 0.53971 v 0.29984 h 0.27986 v 0.30985 h 0.26986 v 0.30984 h 1.07943 v 0.29984 h 0.26987 v 0.30983 h 0.26986 v 0.30985 h 1.89901 v 0.30984 h 1.899 v 0.29984 h 0.26988 v -0.29984 h 0.53971 v -0.30984 h 0.53971 v -0.30985 h 0.80959 v -0.30983 h 0.54971 v -0.29984 h 1.61916 v -0.30984 h 1.62914 v -0.30985 h 0.26986 v -0.29984 h 0.26988 v -0.30983 h 0.26985 v -0.30983 h 0.53972 v -0.29986 h 1.35929 v 0.29986 h 0.53971 v 0.30983 h 0.80959 v 0.30983 h 0.27985 v 0.29984 h 0.53973 v 0.30985 h 0.53971 v 0.30984 h 0.80957 v 0.29984 h 0.26986 v 0.30983 h 0.27986 v 0.30985 h 0.26986 v 1.83904 h 1.61916 v 0.30985 h 0.54972 v 0.29984 h 0.25985 v 0.30983 h 0.81958 v -0.30983 h 0.53971 v 0.30983 h 0.26988 v 0.30983 h -0.26983 v 0.6097 h 0.26988 v 0.30983 h -0.26988 v 0.30985 h -0.53971 v -0.30985 h -0.26986 v -0.30983 h -0.54972 v -0.29985 h -1.61916 v -0.30985 h -0.26985 v -0.30983 h -0.80958 v 0.61968 h 0.26986 v 0.29985 h 0.53972 v 0.30983 h 0.26985 v 0.30985 h 0.26988 v 0.30983 h 0.53971 v 0.29985 h 0.26986 v 0.30983 h 1.35929 v 0.30985 h 1.07944 v -0.61968 h 0.26986 v -0.29985 h 1.08944 v -0.30983 h 0.26985 v -0.30985 h 1.07945 v -0.30983 h 2.43872 v 0.30983 h 0.80959 v -0.30983 h 0.81956 v -0.29985 h 3.01844 1.03945 v 0.29985 h 0.26986 v 0.16987 0.13996 h 0.40978 0.94951 v 0.30985 h 0.80959 v 0.30983 h 1.62915 v 0.29985 h 2.70859 v 0.30983 h 0.26986 v 0.30985 h 0.53972 v 0.30983 h 0.26985 v 0.29984 h 0.26986 v 0.30984 h 0.81958 v 0.29986 h 2.16888 v 0.30983 h 2.15887 v 0.30983 h 1.35929 v -0.30983 h 1.07943 v 0.30983 h 0.53973 v -0.30983 h 1.08944 v -0.30983 h 0.53971 v -0.29986 h 0.73961 0.33982 v -0.30984 h 0.17991 0.36981 v -0.29984 h 0.1599 0.3798 v -0.30983 h 0.13995 1.20937 v -0.30985 h 0.26985 v -0.30983 h 0.81958 v -0.60968 h 0.26986 v -0.30985 h 0.26985 v -0.11984 -0.18991 h 0.26986 v -0.29984 h 0.26988 v 0.16988 0.12998 h 0.26985 v -0.29984 h 0.26986 v -0.13996 -0.16987 h 0.27985 v -0.30984 h 0.26987 v -0.60967 h 0.26986 v -0.30985 h 0.26985 v -0.29985 l 0.26986,-0.0103 v -0.29985 h 0.26986 v -0.30983 h 0.26986 v -0.30985 h 0.26985 v -0.29984 h 0.26988 v -0.61968 h 0.27984 v -0.30984 h 0.26986 v -0.29984 h 0.25987 l 0.0103,-0.30983 h 0.26986 v -0.30985 h 0.26987 v -0.29984 h 0.26986 v -0.30984 h 0.26986 v -0.30983 h 0.53971 V 827.556 h 0.54972 v -0.30983 h 0.9495 0.12998 v -0.1799 -0.12999 h 0.26988 v -0.30985 h 0.53971 v -0.29984 h 0.26986 v -0.30983 h 0.26986 v -0.30983 h 0.26985 v -0.6097 h 0.27987 v -0.30983 h 0.26985 v -0.30983 h 0.26986 v -0.6097 h 0.26986 v -0.60967 h 0.26985 v -0.30985 h 0.26988 v -0.21988 -0.0899 h 0.26986 v -0.29984 h 0.53971 v -0.31984 h 0.26986 v -0.60968 h 0.27986 v -1.02946 -0.1999 h 0.12999 0.13995 v -0.19989 -0.4098 h 0.26986 v -0.30983 h 0.21987 0.31984 v -0.29984 h 0.26986 v -0.30981 h 0.26986 v -0.30985 h 0.26987 V 818.031 h 0.54971 v -0.60969 h 0.26985 v -0.60968 h 0.26988 v -0.30983 h 0.53971 v -0.30985 h 0.26986 v -0.30983 h 0.26986 v -0.60968 h 0.26985 v -0.30985 h 0.80959 l 0.0103,-0.29984 h 0.26985 v -0.30983 h 0.26986 v -0.30985 h 0.26986 v -0.30984 h 0.26987 v -0.29984 h 0.53972 v -0.30983 h 0.26985 v -2.75858 h 0.26986 v -0.30983 h 0.27986 v -0.30983 h 0.26986 v -0.30985 h 0.26986 v -0.29985 h 0.26986 v -0.30983 h 0.26985 v -0.30983 h 0.26986 v -0.29986 h 0.26987 v -0.30984 h 0.26986 v -0.30983 h 0.26986 v -0.29984 h 0.5497 v -0.30985 h 0.26988 v -0.30983 h 0.26985 v -0.30984 h 0.26986 v -0.29984 h 0.53971 v -0.30985 h 0.26986 v -0.30983 h 0.26986 v -0.30983 h 0.26987 v -0.29986 h 0.26986 v -0.30984 h 0.5497 v -0.30983 h 0.26988 v -0.29984 h 0.53971 v -0.30985 h 0.26986 v -0.30984 h 0.26985 v -0.60967 h 0.26986 v -0.30985 h 0.26986 v -0.30983 h 0.81958 v -0.30985 h 0.53971 v -0.29985 h 0.26987 v -0.30983 h 0.53972 v -0.30983 h 0.26986 v -0.60969 h 0.26985 v -0.30984 h 0.27987 v -0.29984 h 0.26985 v -0.30983 h 0.80957 v -0.30985 h 0.26986 v -0.30984 h 0.26988 v -0.29984 h 0.53971 v -0.30985 h 0.26986 v -0.30983 h 0.27984 v -0.30983 h 0.53973 v -0.6097 h 0.26986 v -0.30983 h 0.26986 v -0.29984 h 0.53971 v -0.30983 h 0.81958 v -0.30985 h 0.80959 v -0.30984 h 1.88901 v -0.29984 h 0.26986 v -0.61968 h 0.27985 v -0.30984 h 0.26986 v -0.29984 h 0.26987 v -1.22937 h 0.26986 v -0.30984 h 0.26985 v -1.22935 h 0.26986 v -0.60968 h 0.26986 v -0.30985 h 0.26985 v -1.3393 -0.1899 h 0.15991 0.10987 v -0.14993 -0.1599 h 0.13995 0.13996 v -0.16988 -0.13996 h 0.0999 0.43976 v -0.30983 h 0.26986 v -0.29984 h 0.26986 v -0.30983 h 0.53973 v -0.30985 h 0.26986 v -0.30984 h 0.26985 v -0.29984 h 0.27987 v -0.30985 h 0.26985 v -0.30983 h 0.26986 v -0.29985 h 0.26986 v -0.30983 h 0.53971 v -0.30985 h 1.07945 v -0.60967 h 0.26985 l 0.0103,-0.30984 h 0.26986 v -0.30985 h 0.26987 v 0.30985 h 0.26986 v -0.60969 h 0.26986 v -0.30983 h 0.53971 v -0.30985 h 0.26986 v -0.30983 h 0.54972 v -0.29985 h 0.25986 v -0.61968 h -0.25986 v -0.30983 h 0.25986 v -0.29985 h 0.54971 v -0.30983 h 0.80959 v -0.61968 h 0.26985 v -0.29984 h 0.26986 v -1.83905 h 0.26986 v -1.22936 h 0.27986 v -0.30984 h 0.25987 v -0.30985 h 0.27985 v -0.30983 h 0.26985 v -0.29984 h 0.26986 v -0.30983 h 0.26986 v -0.29985 h 0.26987 v -0.31984 h 0.26986 v -0.60967 h 0.26985 v -0.60969 h 0.26986 v -0.61969 h 0.26986 v -0.31982 -0.28985 l 0.27986,-0.05 v -0.5697 h 0.26986 v -0.60967 h 0.26986 v -0.91953 h 0.26985 v -0.30983 h 0.26986 v -0.30985 h 0.26986 v -0.29988 h 0.26987 v -0.30984 h 0.26986 v -0.61968 h 0.26986 v -0.29984 h 0.5497 v -0.30983 h 0.53973 v -0.30985 h 0.26986 v -0.30984 h 0.26985 v -0.29984 h 0.26986 v -0.30983 h 0.26986 v -0.30985 h 0.26987 v -0.91951 h 0.26986 v -0.29984 h 0.5497 v 0.29984 h 0.23989 l 0.0299,0.30983 h 0.26987 v -0.67965 -0.23987 h 0.26986 v -0.0899 -0.21987 h 0.16987 0.36981 v -0.30985 h 0.26986 v -0.30983 h 0.26985 v 0.30983 h 0.27987 v -0.30983 h 0.53971 v -0.60968 h 0.26986 v -0.30985 h 0.26986 v -1.22936 h 0.26987 v -0.91952 h 0.26986 v -0.91954 h 0.26985 v -0.60969 h 0.26986 v -0.92952 h 0.26986 v -0.60968 h 0.26985 v -0.30984 h 0.27987 v -1.83904 h 0.26986 v -0.30983 h 0.53971 v -0.30985 h 0.26986 v -0.29984 h 0.26985 v -0.30984 h 0.26988 v -0.30985 h 0.26985 v -0.30983 h 0.26986 v -0.29984 h 0.54972 v -0.30984 h 1.61914 v -0.30984 h 0.53974 v -0.60968 h 0.27984 v -0.30983 h 0.26986 v -0.30985 h 0.26986 v -0.29985 h 0.26987 v -0.61968 h 0.26986 v -0.30983 h 0.80957 v -0.29984 h 0.53973 v -0.61969 h 0.27985 v -1.5292 h 0.26985 v -1.22936 h 0.26986 v -0.30983 h 0.26986 v -0.61968 h 0.26987 v -1.83905 h 0.26986 v -0.30983 h 0.26986 v -0.30984 h 0.26985 v -0.60969 h 0.26986 v -0.61967 h 0.27986 v -0.60969 h 0.26986 v -1.22936 h 0.26986 v -0.29984 h 0.26985 v -0.30983 h 2.16888 v -0.30985 h 0.26986 v -0.30983 h 0.26986 v -0.30984 h 0.53971 v -0.29986 h 0.53972 v -0.61966 h 0.26987 v -0.29985 h 0.27985 v -0.30985 h 0.80957 v -0.30983 h 0.26987 v -0.29984 h 0.26986 v -0.30983 h 0.26986 v -0.30985 h 1.07944 v -0.30984 h 0.54971 v -0.30985 h 0.26985 v -0.29984 h 0.53973 v -0.30983 h 0.26986 v -0.30983 h 0.26986 v -0.30985 h 0.26985 v -0.71962 -2.65863 h 0.26986 v -0.29984 h 0.26788 v -0.30983 h 0.54972 v -0.29984 h 0.53972 v -0.61969 h 0.26985 v -0.30983 h 0.26988 v -0.30985 h 1.08941 v -0.30983 h 0.26988 v -0.29985 h -0.26988 v -0.30983 h 0.26988 v -0.30985 h 0.26986 v -0.29984 h 0.26985 v -0.30983 h 0.26986 v -0.30984 h 0.53971 v -0.30985 h 0.26986 v -0.29984 h 0.26988 v -0.30983 h 0.26985 v -0.30985 h 0.26986 l 0.0103,-0.30983 h 0.26985 v -0.60968 h 0.26988 v -0.30985 h 0.26985 v -0.29984 h 0.26986 v -0.61967 h 0.26986 v -0.30985 h 0.26985 v -0.30983 h -0.26985 v -0.60969 h 0.26985 v -0.60968 h 0.26986 v -0.30983 h 0.26986 v -0.61968 h 0.26987 v -0.29985 h 0.26986 v -0.61968 h 0.27985 v -0.60968 h 0.26985 v -0.92951 h 0.26986 v -1.22936 h 0.26988 v -0.29984 h 0.26985 v -0.92953 h 0.26986 V 714.235 h 0.26986 v -0.30983 h 0.26985 v -0.30983 h 0.26986 v -0.30985 h 0.27986 v -1.5292 h 0.26986 v -0.91953 h 0.26986 v -0.30983 h 0.26985 v -0.30983 h 0.26986 v -0.30985 h 0.26988 v -0.29985 h 0.26985 v -0.30983 h 0.26986 v -0.61968 h 0.26986 v -0.29985 h 0.26985 v -0.30983 h 1.89903 v -0.30985 h 0.26985 v -0.60967 h 0.26986 v -0.30984 h 0.27985 V 706.549 h 0.26985 v -0.29984 h 0.53974 v -0.30983 h 0.53971 v -0.61968 h 0.26986 v -0.30984 h 2.43873 v 0.30984 h 0.26986 v 0.30985 h 0.53972 v 0.30983 h 0.54972 v 0.30983 h 0.26985 v 0.29984 h 0.26986 v 0.30985 h 1.3493 V 706.549 h 0.27985 v -0.29984 h 0.53973 v -0.61966 h 1.07943 v -0.30985 h 1.35929 v -0.30984 h 0.26986 v -0.29984 h 0.53973 v -0.30985 h 0.53971 v -0.30983 h 0.26986 v -0.30983 h 1.08943 v -0.29985 h 0.26986 v -0.30985 h 0.26986 v -0.30983 h 0.53973 v 0.30983 h 0.53971 v -0.60967 h 0.26986 v -0.30985 h 0.26986 v -0.30984 h 0.26985 v -0.91952 h 0.27987 v -0.30983 h 0.26986 v -0.60968 h 0.26985 v -0.30985 h 0.26986 v -0.30983 h 0.26986 v -0.30983 h 0.26987 V 698.873 h 0.26986 v -0.30984 h 0.26985 v -0.30983 h 0.54973 v -0.91953 h 0.25985 v -0.30983 h 0.81957 v -0.29984 h 0.80959 v -0.30985 h 0.53972 v -0.30983 h 1.08943 v -0.30984 h 2.16886 v -0.30985 h 0.26986 v -0.29984 h 1.07945 v 0.29984 h 3.51816 v 0.30985 h 0.54972 v 0.30984 h 0.80957 v 0.30983 h 0.26986 v 0.30985 h 0.53973 v 0.29984 h 1.35929 v -0.60969 h 0.26986 v -0.30983 h 0.26986 v -0.30984 h 0.26985 v 0.30984 h 0.53973 v -0.30984 h 0.26986 v -0.30985 h 0.27985 v -0.29984 h 0.26986 v -0.30983 h 0.53973 v -0.30985 h 1.899 v 0.30985 h 0.80957 v 0.30983 H 655.77 v 0.91953 h 1.899 v -0.30984 h 1.88902 v 0.30984 h 0.26986 v -0.30984 h 1.08943 v -0.30985 h 0.53972 v -0.29984 h 0.26985 v -0.30983 h 1.35929 v -0.30985 h 2.43874 v -0.29984 h 0.53972 v 0.29984 h 0.26987 v 0.30985 h 0.26986 v 0.30983 h 2.70859 v 0.29984 h 0.53971 v -0.29984 h 0.26986 v -0.30983 h 0.26986 v -0.30985 h 0.27986 v -0.29984 h 0.26986 v -0.30984 h 0.53971 v -0.30983 h 0.53972 v -0.60969 h 0.26985 v -0.30984 h 0.26988 v -0.30985 h 1.62915 v -0.30983 h 0.80957 v 0.30983 h 0.26986 v 0.30985 h 1.08943 v 0.30984 h 2.15887 v -0.30984 h 0.54972 v -0.30985 h 0.26986 v -0.30983 h 0.26986 v -0.60967 h 0.26987 v -0.6097 h 0.26986 v -1.53919 h 0.26986 v -0.30985 h 0.26985 v -0.30983 h 0.54972 v -0.29984 h 0.53972 v -0.31984 h 0.26986 v -0.29985 h 0.53971 v -0.30983 h 0.80959 v -0.29984 h 0.26985 v -0.30983 h 0.27985 v -0.30985 h 0.26988 v -0.30984 h 0.26985 v -0.29984 h 0.26986 v -0.31984 h 0.26986 v 0.31984 h 1.07944 v -0.31984 h 0.54971 v 0.31984 h 0.26985 v 0.29984 h 0.26986 v 0.30984 h 0.26987 v 0.30985 h 0.26986 v 0.30983 h 0.53971 v 0.29984 h 0.26986 v 0.10987 0.1999 h 0.81958 v -0.30984 h 0.80957 v -0.29984 h 0.26987 v -0.30983 h 2.43872 v -0.61968 h 0.26986 v -0.29985 h 0.53973 v -0.31984 h 1.62915 v -0.29984 h 1.07943 v 0.29984 h 0.26987 v -0.29984 h 0.26986 v -0.61968 h 0.27985 v -0.60968 h 0.26985 v -0.61968 h 0.26988 v -0.30983 h 0.53971 v -0.6097 h 0.26986 v -0.60967 h 0.26986 v -0.30983 h 0.26985 v -0.30985 h 0.26986 v -0.30984 h 3.52817 v -0.29984 h 0.26986 v -0.30983 h 0.53971 v -0.30985 h 1.3593 v 0.30985 h 0.53973 v 0.30983 h 0.26985 v 0.29984 h 0.53972 v 0.30984 h 1.07944 v -0.30984 h 0.54971 v -0.29984 h 0.26987 v -0.84956 -0.3798 h 0.26986 v -0.61968 h 0.26985 v -0.30983 h 0.26986 v -0.29985 h 0.53972 v -0.30985 h 0.27986 v -0.30983 h 0.53971 v -0.30983 h 0.13996 l -0.31982,-4.06789 -9.96482,-7.85591 -0.84956,-6.67653 0.84956,6.67653 9.96482,7.85591 0.31982,4.06789 h 0.12999 v -0.29984 h 0.53971 v -0.30985 h 0.80959 v -0.30984 h 1.899 v -0.30983 h 1.34931 v 0.30983 h 1.70911 1.54918 v -0.30983 h 0.80959 v 0.30983 h 0.26986 v 0.30984 h 0.26986 v 0.30985 h 0.26985 v 0.29984 h 0.26986 v 0.61966 h 0.26988 v 0.30985 h 0.27984 v 0.60968 h 0.26986 v 0.30983 h 1.07944 v 0.30985 h 0.53972 v 0.29984 h 0.81958 v -0.29984 h 1.3493 v -0.30985 h 0.26986 v -0.30983 h 0.26985 v -0.60968 h 0.26986 v -0.30985 h 0.54972 v -0.30983 h 0.87953 0.1999 v -0.30983 h 0.53973 v -0.29984 h 0.26986 v -0.61969 h 0.26985 v -0.60969 h 0.27985 v -0.30983 h 0.26986 v -0.30984 h 0.26987 v -0.30985 h 3.51817 v -0.08 -0.21989 h 0.26985 v -0.30983 h 0.26986 v -0.30983 l 1.08943,-0.0299 v -0.57971 h 0.26986 v -0.30983 h 1.38928 2.39876 v 0.30983 h 0.53972 v 0.29985 h 0.27984 v 0.30985 h 0.26986 v 0.30983 h 0.26987 v 0.60967 h 1.34929 v -0.29984 h 0.26987 v -0.30983 h 0.26986 v -0.30983 h 0.5497 v -0.30985 h 0.26986 v -0.29985 h 0.53973 v -0.30983 h 1.61916 l 0.0103,-0.30985 h 0.53971 v -0.30983 h 1.07945 v -0.29985 h 1.08943 v -0.30983 h 0.26986 v -0.30985 h 0.80957 v -0.30983 h 0.26986 v -0.29984 h 0.53973 v -0.30984 h 1.62915 v -0.30985 h 1.07944 v -0.30983 h 0.5497 v -0.29984 h 0.53972 v -0.30985 h 1.07944 v 0.30985 h 0.53972 v -0.30985 h 1.62916 v 0.30985 h 1.3593 v -0.92949 h 0.26985 v -0.91952 h 0.26986 v -0.69964 -0.83955 h 0.26986 v -0.29986 h 0.53971 v -0.30984 h 0.26988 v -0.30983 h 1.44923 1.79907 v 0.30983 h 0.27985 v 0.30984 h 0.25987 v 0.29986 h 0.27984 v 0.30983 h 0.26988 v 0.30983 h 0.26985 v 0.30985 h 0.26986 v 0.29984 h 0.26986 v 0.30984 h 1.62915 v -0.30984 h 0.80959 v -0.29984 h 1.07942 v -0.30985 h 0.26986 v -0.30983 h 0.27986 v -0.30983 h 0.26986 v -0.29986 h 0.26986 v -0.30984 h 0.53971 v -0.30983 h 2.7086 v 0.30983 h 0.26985 v -0.30983 h 0.53974 v -0.60969 h 0.27984 v -0.30983 h 0.80959 v 0.30983 h 1.89901 v 0.29984 h 0.53971 v -0.29984 h 0.26986 v 0.29984 h 0.26985 v -0.29984 h 2.43874 v -0.30983 h 1.61916 v -0.30984 h 0.26986 v -0.30985 h 0.27986 v -0.29984 h 0.53972 v -0.30983 h 2.16886 v 0.30983 h 0.26987 v 0.60969 h 0.26986 v 0.61967 h 1.899 v -0.61967 h 1.61916 v -0.30985 h 0.81958 v 0.30985 h 0.25987 l 0.0103,-0.30985 h 0.26985 v 0.30985 h 0.26986 v 0.30984 h 0.80959 v -0.30984 h 0.26985 v -0.30985 h 0.80958 v -0.29984 h 0.5497 v -0.30983 h 0.5398 v -0.30985 h 0.2698 v -0.30983 h 1.0795 v -0.29985 h 0.2698 v -0.30983 h 0.2799 v -0.30985 h 0.2698 v -0.30983 h 0.5398 v -0.30984 h 0.5397 v -0.29984 h 0.5397 v -0.30985 h 0.8196 v -0.30983 h 0.8095 v -0.29984 h 0.5398 v -0.30985 h 1.0894 v -0.30984 h 3.2483 v 0.30984 h 0.2699 v 0.30985 h 0.2698 v 0.29984 h 0.2699 v 0.30983 h 0.2699 v 0.30985 h 0.5397 v 0.29984 h 1.3593 v -0.29984 h 1.0794 v -0.30985 h 0.5397 v -0.30983 h 0.2799 v -0.29984 h -0.2799 v -0.30985 h 0.2799 v -0.61967 h 0.2698 v -0.30985 h 1.3493 v 0.30985 h 0.8196 v -1.22936 h 0.2699 v -2.45873 h 0.2698 v -0.30983 h 0.2699 v -0.29985 h 0.5397 v -0.30983 h 0.2699 v -0.30985 h 1.6291 v 0.30985 h 2.1689 v 0.30983 h 0.2698 v 0.29985 h 0.2699 v 0.30983 h 0.2699 v 0.30985 h 0.2698 v 0.30983 h 0.2699 v 0.29984 h 0.5397 v 0.30985 h 0.2799 v 0.61967 h 0.2698 v 0.60969 h 0.2699 v 0.61967 h 0.2698 v 0.29984 h 0.2699 v 0.30985 h 1.3493 v -0.30985 h 0.5397 v -0.60967 h 0.2799 v -0.30984 h 0.8095 v -0.29984 h 0.5398 v -0.30985 h 0.5397 v -0.30983 h 0.8196 v -0.30984 h 0.8095 v -0.30985 h 0.2699 v -0.29984 h 0.2699 v -0.30983 h 0.2698 v -0.61968 h 0.2699 v -0.29985 h 0.2698 v -0.30983 h 0.2799 v -0.61968 h 0.5397 v -0.60969 h 0.2699 v -0.30984 h 0.2698 v -0.60967 h 0.2699 v -0.30985 h 0.2698 v -0.30984 h 0.2699 v -0.30983 h 0.2699 v -0.29984 h 0.5497 v -0.30985 h 0.2698 v -0.30983 h 0.2699 v -0.30984 h 0.2699 v -0.29986 h 0.5397 v -0.30983 h 0.5397 v -0.30983 h 0.2798 v -0.30985 h 0.8096 v 0.30985 h 0.2399 1.929 v -0.30985 h 0.8096 v -0.29984 h 0.5397 v -0.30984 h 0.5397 v -0.30983 h 0.2799 v -0.30985 h 0.5397 v -0.29984 h 0.2698 v -0.30984 h 0.2699 v -0.61968 h 0.2699 v -0.60967 h 0.2698 v -0.30985 h 0.5397 v -0.61967 h 0.2699 v -0.29984 h 1.3593 v -0.61968 h 0.5397 v -0.30984 h 0.2699 v -1.12942 -1.01946 h 0.2698 v -0.60969 h 0.2699 v -0.92952 h 0.2699 v -0.60967 h 1.3593 v -1.22936 h 0.2698 v -0.30985 h 0.2699 v -0.60968 h 0.2698 v -0.30983 h 0.2699 v -0.30985 h 1.0894 v -0.30983 h 1.899 v 0.61968 h 0.2699 v 0.13996 0.16987 h 0.8096 v 0.29985 h 0.8096 v -0.29985 h 0.2698 v -0.30983 h 0.2699 v -0.30985 h 0.2798 v -0.30983 h 0.2699 v -0.30985 h 1.6191 v -0.29985 h 1.6292 v -0.30983 h 2.7086 v 0.30983 h 3.788 v -0.30983 h 0.2799 v -0.30983 h 1.6191 v 0.30983 h 0.2699 v -0.30983 h 2.7086 v 0.30983 h 0.8095 v 0.30983 h 1.6292 v 0.29985 h 0.5397 v 0.30985 h 0.8196 v 0.30983 h 1.889 v 0.30985 h 2.1689 v 0.30983 h 2.4387 v -0.30983 h 3.2483 v -0.30985 h 4.0679 v 0.30985 h 0.2699 v -0.30985 h 0.5397 v -0.30983 h 0.5397 v -0.30985 h 0.5397 v -0.29985 h 0.5497 v -0.28983 -0.32983 h 0.2699 v -0.30985 h 0.2699 v -0.29984 h 0.2698 v -0.30984 h 0.2699 v 0.30984 h 0.2698 v -0.30984 h 0.2699 v -0.30983 h 0.5497 v -0.30985 h 0.2699 v -0.60967 h 0.2698 v -0.30985 h 0.5398 v 0.30985 h -0.2699 v 0.91952 h -0.2699 v 0.30983 h 0.5398 v -0.30983 h 0.5397 v -0.60969 h 0.2698 v -0.92952 h 0.2699 v -0.29984 h 0.5397 v -0.30983 h 0.2799 v -0.30985 h 0.5397 v 0.30985 h 0.5397 v 0.30983 h 0.5397 v 0.29984 h 0.5497 v -0.29984 h 0.2699 v -0.30983 h 0.2699 v -0.30985 h -0.2699 v -0.61967 h 1.6191 v -0.29984 h 1.0895 v -0.30985 h 0.2698 v -0.61968 h 0.2699 v -0.29985 h 0.2699 v -0.61966 h 0.2698 v -0.91953 h 0.8096 v -0.30983 h 0.2699 v -0.30985 h 0.2798 v -0.29984 h 0.2699 v -0.61968 h 0.2698 v -0.30984 h 0.2699 v -0.60967 h 0.2699 v -0.30985 h -0.2699 v -0.30984 h 0.2699 v -0.60967 h 0.2698 v -0.30985 h 0.2699 v -0.30983 h 1.0894 v -0.91953 h 0.5397 V 622.023 h 0.2699 v -0.30985 h 0.4198 0.3898 v -0.60968 h 0.5397 v -0.30983 h 0.5397 v -0.30985 h 0.5497 v -0.29984 h 0.2699 v -0.61969 h 0.2698 v -0.30983 h -0.2698 v -0.30983 h 0.2698 v -0.29984 h 0.2699 v -0.30985 h 0.2698 v -0.91951 h 0.2699 v -0.61968 h 0.5497 v -1.22936 h 0.5397 v -0.30985 h 0.2699 v -0.29985 h 0.2699 v -0.30983 h 0.2698 V 614.337 h 0.2699 v 0.91951 h 0.2698 v -0.29985 h 0.2699 v -0.30983 h 0.2699 V 614.337 h 0.2698 v -0.30985 h 0.2799 v -0.91953 h 0.2698 v -0.60967 h -0.2698 v -0.31984 h -0.2799 v 0.31984 h -0.2698 v -0.61968 h -0.2699 v -0.30984 h 0.2699 v -0.10987 -0.19989 h 0.13 0.1399 v -0.30985 h 0.2799 z"
       id="path831"
       style="fill:#000000;fill-opacity:1;stroke:#000000;stroke-width:0.979491" />
  </g>
</svg>
