<?xml version="1.0" encoding="UTF-8" standalone="no"?>
<svg
   xmlns:dc="http://purl.org/dc/elements/1.1/"
   xmlns:cc="http://creativecommons.org/ns#"
   xmlns:rdf="http://www.w3.org/1999/02/22-rdf-syntax-ns#"
   xmlns:svg="http://www.w3.org/2000/svg"
   xmlns="http://www.w3.org/2000/svg"
   xmlns:sodipodi="http://sodipodi.sourceforge.net/DTD/sodipodi-0.dtd"
   xmlns:inkscape="http://www.inkscape.org/namespaces/inkscape"
   version="1.0"
   width="1024.000000pt"
   height="1024.000000pt"
   viewBox="0 0 1024.000000 1024.000000"
   preserveAspectRatio="xMidYMid meet"
   id="svg28"
   sodipodi:docname="Grande_Terre.svg"
   inkscape:version="1.0.1 (3bc2e813f5, 2020-09-07)">
  <defs
     id="defs32" />
  <sodipodi:namedview
     pagecolor="#ffffff"
     bordercolor="#666666"
     borderopacity="1"
     objecttolerance="10"
     gridtolerance="10"
     guidetolerance="10"
     inkscape:pageopacity="0"
     inkscape:pageshadow="2"
     inkscape:window-width="1920"
     inkscape:window-height="974"
     id="namedview30"
     showgrid="false"
     inkscape:zoom="0.55286249"
     inkscape:cx="682.66667"
     inkscape:cy="682.66667"
     inkscape:window-x="-11"
     inkscape:window-y="-11"
     inkscape:window-maximized="1"
     inkscape:current-layer="g26" />
  <metadata
     id="metadata2">
Created by potrace 1.10, written by Peter Selinger 2001-2011
<rdf:RDF>
  <cc:Work
     rdf:about="">
    <dc:format>image/svg+xml</dc:format>
    <dc:type
       rdf:resource="http://purl.org/dc/dcmitype/StillImage" />
  </cc:Work>
</rdf:RDF>
</metadata>
  <g
     transform="translate(0.000000,1024.000000) scale(0.100000,-0.100000)"
     fill="#000000"
     stroke="none"
     id="g26">
    <path
       d="m 19.999837,8999.1063 c 0,-32.0497 7.691923,-42.3056 42.305572,-57.6895 32.049676,-12.8198 41.023591,-24.3577 41.023591,-51.2794 0,-42.3056 39.74159,-74.3553 56.40743,-47.4336 7.69192,12.8199 12.81987,7.692 17.94781,-19.2298 3.84597,-19.2298 1.28199,-41.0236 -5.12794,-47.4335 -19.22981,-20.5118 -14.10186,-71.7913 7.69192,-71.7913 10.25589,0 19.2298,11.5379 19.2298,25.6398 0,14.1018 7.69193,25.6397 16.66584,25.6397 32.04967,0 94.86704,-49.9975 111.53287,-88.4571 15.38384,-39.7416 14.10185,-43.5875 -25.63974,-84.6111 -42.30558,-43.5876 -42.30558,-44.8696 -19.22981,-70.5093 12.81987,-14.1019 30.76769,-25.6398 41.02359,-25.6398 10.25589,0 16.66583,-15.3838 16.66583,-38.4596 v -39.7416 l -73.07326,3.846 c -76.91923,2.564 -132.04467,-16.6658 -132.04467,-46.1515 0,-8.9739 23.07577,-43.5876 51.27948,-75.6373 29.48571,-33.3316 48.71551,-65.3813 43.58756,-76.9192 -8.97391,-24.3577 23.07577,-35.8956 71.79128,-25.6397 47.43352,8.9739 55.12544,19.2298 56.40743,79.4832 1.28198,32.0496 7.69192,47.4335 23.07576,49.9975 29.4857,5.1279 43.58756,-52.5615 24.35776,-94.8671 -11.53789,-25.6397 -10.2559,-33.3316 5.12794,-38.4596 30.76769,-12.8199 21.79378,-37.1776 -19.2298,-52.5615 -47.43352,-17.9478 -49.9975,-37.1776 -2.56398,-44.8695 19.22981,-3.846 44.86955,-11.5379 57.68942,-16.6658 19.22981,-7.692 21.79378,-1.282 21.79378,49.9975 v 58.9714 h 62.81736 c 58.97141,0 64.09936,-2.564 108.9689,-60.2534 25.63974,-32.0497 46.15153,-71.7913 46.15153,-88.4571 0,-16.6659 14.10186,-39.7416 34.61365,-53.8435 l 33.33167,-24.3577 -37.17763,-47.4336 c -43.58756,-53.8434 -73.07326,-57.6894 -146.14652,-20.5118 -61.53538,32.0497 -62.81736,32.0497 -55.12544,0 3.84596,-14.1018 24.35775,-39.7416 44.86955,-55.1254 102.55896,-78.2012 124.35274,-102.559 143.58254,-158.9664 11.53789,-33.3317 20.5118,-74.3552 20.5118,-93.585 0,-23.0758 17.94781,-51.2795 58.9714,-89.7391 32.04967,-32.0497 69.2273,-76.9193 84.61114,-99.995 29.4857,-47.4335 111.53287,-105.123 151.27445,-105.123 15.3838,0 25.6397,-8.9739 25.6397,-21.7937 0,-12.8199 5.128,-32.0497 12.8199,-42.3056 10.2559,-15.3839 14.1018,-15.3839 34.6136,2.564 26.9218,23.0757 55.1255,16.6658 55.1255,-14.1019 0,-11.5379 16.6658,-41.0236 38.4596,-65.3813 20.5118,-24.3578 37.1776,-56.4075 38.4596,-70.5093 0,-14.1019 23.0758,-53.8435 51.2795,-89.7391 28.2037,-34.6137 61.5354,-80.7652 74.3552,-101.277 39.7416,-66.6633 73.0733,-96.149 123.0708,-112.8148 62.8174,-20.5118 82.0472,-48.7156 64.0993,-96.1491 -11.5378,-33.3316 -17.9478,-35.8956 -79.4832,-35.8956 -37.1776,0 -66.6633,-3.846 -66.6633,-7.6919 0,-17.9478 49.9975,-49.9975 79.4832,-49.9975 30.7677,0 74.3553,-34.6137 74.3553,-58.9714 0,-6.41 29.4857,-41.0236 64.0993,-75.6373 37.1776,-35.8956 64.0994,-74.3552 64.0994,-89.7391 0,-23.0757 15.3838,-30.7676 98.713,-52.5614 97.431,-24.3578 97.431,-24.3578 111.5328,-75.6373 12.8199,-46.1515 19.2298,-51.2794 58.9714,-55.1254 24.3578,-2.564 52.5615,-10.2559 61.5354,-17.9478 11.5379,-10.2559 20.5118,-7.6919 33.3317,8.9739 15.3838,21.7938 17.9478,21.7938 37.1776,-6.4099 14.1019,-20.5118 16.6658,-34.6137 8.9739,-44.8696 -15.3838,-17.9478 -2.564,-29.4857 65.3814,-60.2534 51.2794,-23.0757 62.8173,-19.2298 62.8173,17.9478 0,34.6137 30.7677,21.7938 35.8957,-14.1018 3.8459,-25.6398 10.2558,-28.2037 44.8695,-23.0758 51.2795,6.4099 132.0447,-49.9975 108.9689,-76.9192 -7.6919,-8.9739 -21.7938,-16.6658 -30.7677,-16.6658 -11.5379,0 -17.9478,-14.1019 -17.9478,-39.7416 0,-39.7416 1.282,-41.0236 51.2795,-33.3317 38.4596,5.1279 51.2795,2.564 51.2795,-10.2559 0,-26.9217 24.3577,-35.8956 47.4335,-16.6658 17.9478,14.1018 20.5118,14.1018 14.1018,-2.564 -2.5639,-10.2559 -24.3577,-20.5118 -46.1515,-23.0758 -51.2795,-5.1279 -55.1254,-41.0236 -8.9739,-71.7912 17.9478,-11.5379 32.0497,-29.4857 32.0497,-39.7416 0,-10.2559 7.6919,-19.2298 17.9478,-19.2298 10.2559,0 29.4857,-17.9479 42.3056,-39.7416 23.0757,-38.4597 29.4857,-39.7416 92.303,-23.0758 11.5379,2.564 21.7938,-6.4099 24.3578,-20.5118 7.6919,-38.4596 28.2037,-57.6894 60.2534,-57.6894 23.0757,0 33.3316,11.5379 47.4335,53.8434 10.2559,33.3317 25.6397,56.4075 39.7416,58.9714 28.2037,5.128 29.4857,-38.4596 2.564,-61.5353 -15.3839,-12.8199 -16.6659,-20.5118 -5.128,-33.3317 7.6919,-10.2559 23.0758,-17.9478 32.0497,-17.9478 12.8199,0 15.3838,-10.2559 10.2559,-38.4596 -8.9739,-39.7416 3.8459,-49.9975 29.4857,-24.3578 19.2298,19.2298 55.1254,5.128 55.1254,-21.7938 0,-12.8198 8.9739,-33.3316 21.7938,-46.1515 11.5379,-14.1019 14.1019,-23.0758 6.4099,-23.0758 -10.2559,0 -15.3838,-30.7676 -15.3838,-91.021 0,-87.1752 2.564,-93.5851 44.8695,-135.8907 24.3578,-24.3577 44.8696,-48.7155 44.8696,-53.8434 0,-3.846 30.7677,-34.6137 69.2273,-67.9453 38.4596,-33.3317 82.0472,-87.1751 97.431,-119.2248 24.3578,-51.2795 33.3317,-57.6894 70.5093,-57.6894 53.8434,0 82.0472,-30.7677 60.2534,-65.3814 -17.9478,-26.9217 -20.5118,-75.6372 -5.128,-75.6372 5.128,0 10.2559,-20.5118 10.2559,-44.8696 0,-62.8173 16.6659,-75.6372 66.6633,-51.2794 51.2795,26.9217 58.9715,38.4596 41.0236,70.5092 -16.6658,32.0497 -3.8459,106.405 16.6659,98.713 8.9739,-2.5639 15.3838,-19.2298 16.6658,-35.8956 2.564,-56.4074 5.1279,-62.8174 24.3577,-62.8174 11.5379,0 25.6398,14.1019 32.0497,32.0497 14.1019,38.4596 26.9218,41.0236 47.4335,8.9739 11.5379,-19.2298 8.974,-26.9217 -10.2559,-38.4596 -12.8198,-8.9739 -24.3577,-24.3577 -24.3577,-34.6136 0,-24.3578 11.5379,-24.3578 43.5876,0 14.1018,10.2559 29.4857,19.2298 35.8956,19.2298 11.5379,0 74.3552,-66.6634 74.3552,-79.4832 0,-5.128 -21.7937,-20.5118 -47.4335,-33.3317 l -47.4335,-24.3577 35.8956,-23.0758 c 17.9479,-12.8199 35.8957,-20.5118 38.4596,-17.9478 2.564,2.564 8.974,15.3838 16.6659,28.2037 11.5379,21.7938 12.8198,21.7938 42.3055,-1.282 l 30.7677,-25.6397 53.8435,43.5875 c 52.5615,43.5876 53.8434,43.5876 61.5354,15.3839 3.8459,-16.6659 7.6919,-42.3056 7.6919,-57.6894 0,-16.6659 6.4099,-29.4857 12.8199,-29.4857 7.6919,0 12.8198,-7.692 12.8198,-17.9479 0,-8.9739 14.1019,-32.0496 32.0497,-51.2794 17.9478,-19.2299 32.0497,-42.3056 32.0497,-52.5615 0,-33.3317 69.2273,-134.6087 92.3031,-134.6087 29.4857,0 116.6608,-41.0235 129.4806,-60.2533 5.128,-8.974 24.3578,-16.6659 42.3056,-16.6659 21.7938,0 35.8956,-8.9739 39.7416,-25.6397 7.6919,-29.4857 42.3056,-33.3317 66.6633,-8.9739 23.0758,23.0757 53.8435,-21.7938 44.8696,-67.9453 -10.2559,-44.8696 24.3577,-110.2509 69.2273,-133.3267 19.2298,-10.2559 78.2012,-30.7677 130.7627,-46.1515 52.5614,-16.6659 110.2508,-35.8957 128.1987,-44.8696 38.4596,-19.2298 130.7626,-44.8695 193.58,-53.8434 30.7677,-3.846 49.9975,0 61.5354,14.1018 10.2559,11.5379 30.7677,20.5118 47.4335,20.5118 26.9217,0 29.4857,-2.5639 16.6658,-24.3577 -8.9739,-12.8199 -11.5379,-33.3317 -7.6919,-44.8696 8.9739,-23.0757 53.8435,-28.2037 66.6633,-7.6919 10.2559,15.3838 32.0497,16.6658 32.0497,1.282 0,-6.4099 -11.5379,-14.1019 -25.6397,-17.9478 -43.5876,-11.5379 -28.2037,-43.5876 58.9714,-120.5068 88.4571,-79.4832 137.1726,-99.995 264.0893,-114.0969 65.3813,-7.6919 85.8931,-16.6658 142.3006,-64.0993 69.2273,-60.2534 98.713,-70.5093 98.713,-33.3317 0,38.4596 20.5118,57.6894 49.9975,47.4336 26.9217,-7.692 38.4596,-57.6895 14.1018,-57.6895 -21.7938,0 -14.1018,-30.7677 10.2559,-47.4335 32.0497,-19.2298 111.5329,-11.5379 112.8149,10.2559 1.282,28.2037 48.7155,101.277 62.8173,97.431 7.692,-2.5639 14.1019,-23.0757 16.6659,-46.1515 3.8459,-33.3317 15.3838,-48.7155 61.5353,-78.2012 49.9975,-30.7677 55.1255,-38.4596 35.8957,-48.7155 -20.5118,-11.5379 -19.2298,-16.6659 8.9739,-66.6633 38.4596,-69.2273 62.8174,-79.4832 62.8174,-28.2038 0,44.8696 34.6136,82.0472 51.2794,53.8435 6.41,-8.9739 3.846,-26.9217 -3.8459,-41.0236 -12.8199,-20.5118 -10.2559,-28.2037 10.2559,-42.3056 14.1018,-10.2559 39.7416,-30.7677 56.4074,-47.4335 l 29.4857,-29.4857 -7.6919,42.3056 c -3.846,23.0758 -1.282,41.0236 5.1279,41.0236 7.6919,0 12.8199,-12.8199 12.8199,-28.2037 0,-16.6659 8.9739,-41.0236 19.2298,-53.8435 29.4857,-38.4596 23.0758,-46.1515 -32.0497,-46.1515 -42.3055,0 -51.2795,-3.846 -51.2795,-25.6398 0,-42.3055 44.8696,-56.4074 103.841,-33.3316 66.6633,26.9217 89.7391,25.6397 169.2223,-6.41 80.7652,-33.3316 153.8384,-108.9689 135.8906,-141.0185 -10.2559,-19.2298 -2.564,-23.0758 58.9714,-30.7677 48.7155,-6.41 71.7913,-15.3839 76.9192,-30.7677 8.9739,-28.2037 78.2012,-103.841 94.8671,-103.841 7.6919,0 14.1018,23.0758 14.1018,49.9975 0,57.6894 15.3839,74.3553 38.4596,46.1516 8.9739,-10.2559 24.3578,-19.2298 35.8957,-19.2298 15.3838,0 17.9478,11.5378 11.5379,55.1254 -7.692,51.2795 -5.128,58.9714 29.4857,83.3292 43.5875,33.3316 64.0993,35.8956 64.0993,8.9739 0,-10.2559 11.5379,-29.4857 25.6398,-41.0236 14.1018,-12.8199 25.6397,-32.0497 25.6397,-43.5876 0,-30.7677 56.4074,-62.8173 110.2509,-62.8173 64.0993,0 93.585,-38.4597 94.867,-124.3528 0,-80.7652 8.9739,-106.4049 37.1776,-106.4049 12.8199,0 35.8957,-17.9478 52.5615,-41.0236 l 29.4857,-39.7416 -56.4074,8.9739 c -30.7677,3.846 -76.9192,11.5379 -101.277,15.3839 l -44.8695,7.6919 26.9217,-28.2037 c 15.3838,-15.3839 49.9975,-30.7677 79.4832,-34.6137 48.7155,-6.4099 51.2795,-8.9739 49.9975,-49.9975 -1.282,-35.8956 -6.41,-43.5875 -28.2037,-43.5875 -15.3839,0 -38.4596,8.9739 -52.5615,19.2298 -12.8199,10.2559 -34.6137,19.2298 -48.7155,19.2298 -17.9478,0 -21.7938,-6.41 -15.3839,-28.2037 3.846,-16.6659 7.692,-44.8696 7.692,-64.0994 0,-47.4335 43.5875,-60.2534 82.0471,-24.3577 39.7416,37.1776 64.0994,33.3316 85.8932,-12.8199 14.1018,-29.4857 34.6136,-44.8696 82.0471,-61.5354 52.5615,-17.9478 66.6634,-29.4857 76.9193,-62.8174 10.2559,-29.4857 30.7676,-48.7155 75.6372,-71.7912 66.6633,-33.3317 174.3502,-55.1255 174.3502,-34.6137 0,12.8199 78.2012,56.4074 85.8932,47.4335 3.8459,-2.5639 -1.282,-17.9478 -10.2559,-34.6136 -12.8199,-25.6398 -11.5379,-32.0497 12.8198,-51.2795 14.1019,-11.5379 26.9218,-28.2037 26.9218,-35.8956 0,-19.2298 34.6136,-17.9478 42.3055,2.5639 3.846,10.2559 8.9739,7.692 15.3839,-7.6919 5.1279,-12.8198 1.282,-34.6136 -11.5379,-53.8434 -28.2037,-42.3056 -25.6397,-57.6895 8.9739,-57.6895 21.7938,0 32.0497,10.2559 41.0236,41.0236 8.9739,28.2038 21.7938,43.5876 41.0236,46.1516 16.6658,2.5639 32.0496,17.9478 41.0236,42.3055 15.3838,46.1516 55.1254,48.7155 130.7626,11.5379 37.1777,-19.2298 52.5615,-37.1776 58.9714,-64.0993 3.846,-21.7938 15.3839,-38.4596 24.3578,-38.4596 10.2559,0 17.9478,-10.2559 17.9478,-24.3578 0,-20.5118 -14.1018,-24.3578 -89.7391,-32.0497 -49.9975,-5.1279 -89.7391,-14.1018 -89.7391,-20.5118 0,-23.0757 42.3056,-51.2795 78.2012,-51.2795 20.5118,0 37.1777,-5.1279 37.1777,-11.5378 0,-16.6659 -49.9975,-26.9218 -92.3031,-17.9479 -35.8956,6.41 -60.2534,-7.6919 -61.5354,-37.1776 0,-11.5379 74.3553,-35.8956 110.2509,-35.8956 24.3578,0 29.4857,-7.6919 33.3317,-47.4335 3.8459,-43.5876 7.6919,-48.7155 43.5875,-52.5615 35.8957,-3.846 41.0236,0 49.9975,38.4596 5.128,23.0758 11.5379,34.6137 15.3839,26.9217 14.1018,-35.8956 29.4857,-12.8198 29.4857,41.0236 0,33.3317 11.5378,80.7652 25.6397,107.6869 20.5118,42.3056 32.0497,49.9975 73.0733,56.4075 32.0496,3.8459 56.4074,-1.282 70.5092,-12.8199 15.3839,-14.1019 35.8957,-16.6658 75.6373,-10.2559 52.5614,8.9739 53.8434,8.9739 44.8695,-20.5118 -23.0757,-71.7913 -24.3577,-92.3031 -8.9739,-82.0472 10.2559,5.128 33.3317,-6.4099 58.9714,-32.0496 38.4596,-37.1777 48.7155,-41.0236 89.7391,-33.3317 30.7677,6.4099 49.9975,17.9478 56.4074,35.8956 8.974,25.6398 10.2559,25.6398 48.7155,-11.5379 21.7938,-21.7937 62.8174,-49.9974 92.3031,-62.8173 30.7677,-15.3839 52.5615,-33.3317 52.5615,-46.1516 0,-12.8198 7.6919,-23.0757 17.9478,-23.0757 10.2559,0 35.8956,-14.1019 57.6894,-32.0497 29.4857,-25.6397 49.9975,-32.0497 85.8931,-29.4857 29.4858,2.564 49.9975,-2.564 52.5615,-11.5379 3.846,-8.9739 -3.8459,-16.6658 -14.1018,-16.6658 -30.7677,0 -52.5615,-53.8435 -34.6137,-85.8931 20.5118,-39.7416 219.2198,-60.2534 219.2198,-23.0758 0,25.6397 43.5876,24.3577 84.6111,-1.282 16.6659,-11.5379 35.8957,-17.9478 39.7416,-12.8199 15.3839,14.1019 -30.7677,78.2012 -58.9714,82.0472 -32.0496,5.128 -35.8956,43.5876 -7.6919,66.6633 10.2559,8.9739 19.2298,23.0758 19.2298,30.7677 0,7.6919 6.4099,35.8957 14.1019,62.8174 8.9739,33.3316 19.2298,47.4335 37.1776,47.4335 21.7938,0 23.0758,-3.846 11.5379,-30.7677 -11.5379,-23.0758 -8.9739,-39.7416 12.8198,-83.3291 30.7677,-58.9714 56.4075,-60.2534 39.7416,-2.564 -7.6919,29.4857 -6.4099,39.7416 8.974,44.8695 23.0757,8.9739 42.3055,-1.282 42.3055,-23.0757 0,-8.9739 14.1019,-34.6137 32.0497,-58.9714 21.7938,-29.4857 28.2037,-47.4336 19.2298,-56.4075 -6.4099,-6.4099 -12.8199,-17.9478 -12.8199,-23.0757 0,-15.3839 57.6895,-11.5379 74.3553,5.1279 11.5379,11.5379 15.3838,11.5379 15.3838,-3.8459 0,-10.2559 -11.5379,-25.6398 -25.6397,-34.6137 -33.3317,-20.5118 -21.7938,-41.0236 23.0758,-41.0236 41.0235,0 169.2225,119.2248 144.8645,133.3267 -7.6919,5.1279 -14.1019,19.2298 -14.1019,30.7677 0,15.3838 3.846,16.6658 15.3839,5.1279 24.358,-24.3578 62.818,-19.2298 58.972,7.6919 -2.564,17.9478 3.846,20.5118 37.177,17.9478 35.896,-3.8459 42.306,0 48.716,32.0497 5.128,19.2298 21.793,78.2012 38.459,129.4807 24.358,78.2012 26.922,94.867 11.538,101.277 -28.204,10.2559 -20.512,39.7416 10.256,44.8695 51.28,7.692 38.46,41.0236 -30.768,80.7652 -44.869,26.9218 -69.227,49.9975 -75.637,73.0733 -5.128,19.2298 -26.922,49.9975 -48.715,69.2273 -21.794,17.9478 -49.998,49.9975 -61.5359,70.5093 -19.2298,30.7677 -28.2037,37.1776 -56.4074,30.7677 -46.1516,-10.2559 -57.6895,11.5378 -17.9479,29.4857 28.2038,12.8198 32.0497,23.0757 32.0497,85.8931 0,67.9453 -2.564,73.0733 -76.9192,155.1204 -82.0472,91.0211 -201.272,171.7863 -251.2695,171.7863 -16.6658,0 -60.2533,11.5379 -97.431,25.6397 -37.1776,14.1019 -94.867,25.6398 -128.1987,25.6398 -61.5354,0 -61.5354,0 -61.5354,43.5875 0,38.4596 -5.1279,44.8696 -41.0235,52.5615 -43.5876,8.9739 -99.995,10.2559 -175.6323,3.846 -26.9217,-2.564 -46.1515,2.5639 -48.7155,12.8198 -3.8459,8.9739 6.41,15.3839 26.9218,15.3839 20.5118,0 33.3316,7.6919 33.3316,19.2298 0,12.8198 12.8199,19.2298 38.4596,19.2298 60.2534,0 46.1516,30.7677 -39.7416,88.4571 -79.4832,53.8434 -108.9689,57.6894 -94.867,12.8199 11.5379,-35.8957 -33.3317,-32.0497 -79.4832,6.4099 -19.2298,16.6658 -47.4335,32.0497 -61.5354,35.8956 -16.6658,2.564 -24.3577,12.8199 -21.7938,30.7677 2.564,20.5118 -14.1018,34.6137 -85.8931,69.2273 -74.3552,35.8957 -92.3031,51.2795 -115.3788,98.713 -17.9478,37.1776 -51.2795,73.0733 -102.559,110.2509 -42.3056,29.4857 -74.3552,60.2534 -71.7913,67.9453 2.564,7.6919 -20.5117,38.4596 -51.2794,69.2273 -37.1777,37.1776 -52.5615,61.5354 -48.7155,78.2012 5.1279,17.9478 -8.974,39.7416 -48.7155,75.6373 -30.7677,26.9217 -62.8174,49.9975 -70.5093,51.2794 -7.692,0 -37.1777,20.5118 -64.0994,46.1516 l -49.9975,47.4335 60.2534,-7.6919 c 33.3317,-5.128 62.8174,-3.846 66.6633,1.282 3.846,6.4099 -6.4099,26.9217 -21.7937,46.1515 -28.2038,34.6136 -29.4857,34.6136 -69.2273,14.1018 -23.0758,-11.5378 -42.3056,-29.4857 -42.3056,-39.7416 0,-28.2037 -73.0733,-21.7937 -119.2248,10.2559 -51.2795,34.6137 -111.5329,89.7391 -111.5329,99.995 0,5.128 14.1019,6.41 32.0497,2.564 25.6397,-3.846 32.0497,0 32.0497,21.7938 0,16.6658 -8.9739,26.9217 -21.7938,28.2037 -12.8199,1.282 -53.8435,2.564 -89.7391,5.128 -52.5615,1.2819 -82.0472,12.8198 -137.1726,48.7155 -38.4596,25.6397 -84.6112,49.9975 -102.559,55.1254 -19.2298,3.846 -43.5875,24.3578 -55.1254,43.5876 -11.5379,20.5118 -44.8696,48.7155 -73.0733,65.3813 -80.7652,44.8695 -179.4782,120.5068 -219.2198,167.9403 -32.0496,38.4596 -76.9192,58.9714 -141.0185,65.3813 -17.9479,2.564 -24.3578,-5.1279 -25.6398,-29.4857 0,-26.9217 -6.4099,-33.3316 -42.3055,-35.8956 -38.4597,-3.846 -42.3056,-1.282 -34.6137,21.7938 3.846,14.1018 1.282,48.7155 -6.4099,78.2012 -11.5379,42.3056 -19.2298,51.2795 -44.8696,51.2795 -35.8956,0 -41.0236,15.3838 -12.8198,38.4596 29.4857,24.3577 23.0757,42.3055 -12.8199,33.3316 -23.0758,-6.4099 -32.0497,-2.5639 -32.0497,10.2559 0,10.2559 -20.5118,25.6398 -44.8695,34.6137 -24.3578,8.9739 -44.8696,24.3577 -44.8696,32.0497 0,8.9739 -11.5379,20.5118 -25.6397,24.3577 -14.1019,3.846 -25.6398,16.6658 -25.6398,26.9217 0,10.2559 -7.6919,17.9479 -16.6658,17.9479 -10.2559,0 -30.7677,14.1018 -47.4335,32.0496 -42.3056,44.8696 -55.1255,39.7416 -47.4335,-15.3838 14.1018,-97.431 29.4857,-138.4546 57.6894,-151.2745 29.4857,-12.8198 38.4596,-32.0497 12.8198,-32.0497 -7.6919,0 -5.1279,-8.9739 6.41,-23.0757 12.8199,-12.8199 21.7938,-42.3056 21.7938,-64.0994 0,-38.4596 -2.564,-41.0236 -46.1516,-41.0236 -26.9217,0 -42.3055,5.128 -37.1776,12.8199 3.846,7.6919 16.6658,12.8199 26.9217,12.8199 10.2559,0 17.9479,3.8459 17.9479,10.2559 0,14.1018 -98.713,66.6633 -125.6348,66.6633 -14.1018,0 -32.0497,8.9739 -41.0236,19.2298 -16.6658,20.5118 -8.9739,25.6398 44.8696,34.6137 34.6136,5.1279 41.0236,61.5353 10.2559,91.021 -12.8199,11.5379 -42.3056,37.1777 -64.0994,55.1255 -23.0757,17.9478 -42.3055,44.8695 -42.3055,60.2534 0,34.6136 -58.9714,133.3266 -89.7391,149.9925 -23.0758,12.8198 -24.3578,10.2559 -19.2298,-25.6398 3.8459,-20.5118 8.9739,-55.1254 12.8198,-76.9192 8.9739,-55.1254 -26.9217,-49.9975 -49.9975,6.4099 -23.0757,53.8435 -61.5353,60.2534 -82.0471,11.5379 -14.1019,-28.2037 -11.5379,-38.4596 17.9478,-76.9192 l 33.3316,-43.5876 h -33.3316 c -24.3578,0 -37.1776,8.9739 -46.1515,33.3317 -7.692,17.9478 -17.9479,28.2037 -25.6398,24.3577 -21.7938,-12.8198 -15.3838,91.0211 6.4099,108.9689 32.0497,26.9218 21.7938,38.4597 -34.6136,38.4597 -48.7155,0 -58.9714,5.1279 -83.3292,44.8695 -16.6658,24.3578 -29.4857,48.7155 -29.4857,55.1254 0,5.128 -19.2298,28.2038 -42.3055,51.2795 -46.1516,44.8696 -97.431,52.5615 -156.4025,25.6398 -30.7676,-14.1019 -37.1776,-11.5379 -56.4074,14.1018 -16.6658,21.7938 -39.7416,32.0497 -84.6111,35.8957 -38.4596,5.1279 -85.8932,23.0757 -126.9167,48.7155 -80.7652,52.5614 -97.4311,67.9453 -125.6348,120.5067 -12.8198,21.7938 -41.0236,49.9975 -62.8173,62.8174 -62.8174,34.6137 -114.0969,79.4832 -114.0969,101.277 0,17.9478 2.564,17.9478 23.0758,0 12.8199,-12.8199 28.2037,-21.7938 34.6136,-21.7938 6.41,0 20.5118,-7.6919 30.7677,-17.9478 33.3317,-28.2037 102.559,-38.4596 111.5329,-16.6658 11.5379,32.0496 -29.4857,94.867 -67.9453,105.1229 -19.2298,3.846 -53.8435,25.6397 -75.6372,47.4335 -34.6137,32.0497 -44.8696,35.8957 -67.9454,24.3578 -26.9217,-15.3839 -32.0496,-11.5379 -28.2037,26.9217 3.846,28.2037 -106.4049,47.4335 -143.5825,23.0758 -28.2037,-16.6659 -47.4335,-1.282 -47.4335,39.7416 0,26.9217 -30.7677,51.2794 -117.9428,93.585 -84.6112,39.7416 -138.4546,102.559 -162.8124,187.1701 -8.9739,32.0497 -23.0758,65.3814 -29.4857,74.3553 -10.2559,11.5378 -6.4099,15.3838 14.1019,15.3838 24.3577,0 26.9217,5.128 20.5117,43.5876 -6.4099,30.7677 -1.2819,57.6894 17.9479,94.867 53.8434,106.4049 41.0236,116.6608 -152.5565,129.4807 l -123.0707,7.6919 -70.5093,83.3292 c -38.4596,46.1515 -93.5851,96.149 -123.0708,110.2509 -29.4857,15.3838 -48.7155,32.0496 -43.5875,38.4596 6.4099,6.4099 6.4099,46.1515 1.2819,88.4571 -6.4099,56.4074 -3.8459,80.7652 8.974,93.585 23.0757,23.0758 23.0757,25.6398 -26.9218,79.4832 -28.2037,32.0497 -47.4335,44.8696 -56.4074,35.8957 -7.6919,-7.692 -34.6137,-1.282 -76.9192,20.5118 -73.0733,37.1776 -99.995,41.0235 -110.2509,17.9478 -3.846,-11.5379 -10.2559,-10.2559 -20.5118,6.4099 -11.5379,16.6658 -32.0497,21.7938 -94.867,21.7938 -51.2795,0 -101.277,8.9739 -137.1727,24.3577 -30.7676,14.1019 -89.739,30.7677 -129.4806,39.7416 -57.6895,11.5379 -101.277,34.6137 -205.118,107.687 -73.0732,51.2794 -138.4546,91.021 -147.4285,88.4571 -7.6919,-2.564 -17.9478,-20.5118 -23.0757,-38.4597 l -7.692,-33.3316 -25.6397,26.9217 c -12.8199,15.3839 -24.3578,38.4596 -24.3578,52.5615 0,46.1515 -134.6086,129.4807 -211.5278,129.4807 -38.4596,0 -44.8696,3.8459 -44.8696,29.4857 0,30.7677 -133.3266,217.9378 -160.2483,224.3477 -8.974,2.564 -23.0758,20.5118 -32.0497,41.0236 -8.9739,20.5118 -26.9217,41.0236 -39.7416,44.8695 -14.1019,5.128 -30.7677,19.2298 -38.4596,34.6137 -32.0497,60.2534 -105.123,125.6347 -139.7366,125.6347 -48.7155,0 -111.5329,24.3578 -120.5068,46.1515 -3.846,10.2559 -17.9478,17.9479 -30.7677,17.9479 -12.8199,0 -51.2795,29.4857 -85.8931,64.0993 -43.5876,44.8696 -73.0733,64.0994 -96.149,64.0994 -17.9479,0 -44.8696,8.9739 -58.9714,19.2298 -12.8199,10.2559 -34.6137,19.2298 -46.1516,19.2298 -28.2037,0 -37.1776,16.6658 -53.8434,91.0211 -10.2559,44.8695 -24.3578,69.2273 -55.1255,91.021 -23.0757,16.6659 -76.9192,57.6894 -121.7887,91.0211 -105.123,80.7652 -364.0844,191.0161 -484.5911,207.6819 -52.5615,7.6919 -67.9454,15.3839 -76.9193,38.4596 -14.1018,38.4596 -51.2794,58.9714 -87.1751,48.7155 -15.3838,-3.8459 -46.1515,0 -66.6633,8.9739 -44.8696,17.9479 -89.7391,7.692 -66.6633,-15.3838 8.9739,-8.9739 15.3838,-38.4596 15.3838,-66.6633 0,-32.0497 11.5379,-67.9453 30.7677,-96.1491 16.6658,-25.6397 33.3317,-65.3813 38.4596,-88.4571 l 7.6919,-42.3055 -32.0496,23.0757 c -16.6659,12.8199 -32.0497,26.9218 -32.0497,33.3317 0,5.1279 -11.5379,20.5118 -25.6398,34.6136 -26.9217,26.9218 -115.3788,37.1777 -115.3788,12.8199 0,-29.4857 -28.20366,-8.9739 -48.71546,35.8956 -17.94781,39.7416 -26.92172,47.4336 -56.40743,43.5876 -39.74159,-5.1279 -171.78626,58.9714 -210.24587,101.277 -15.38384,16.6658 -30.76769,46.1515 -35.89563,65.3813 -15.38385,69.2273 -125.63473,160.2484 -217.9378,184.6062 -28.20371,6.4099 -43.58756,25.6397 -73.07326,91.021 -25.63974,58.9714 -42.30557,80.7652 -55.12544,76.9193 -12.81987,-5.128 -21.79378,3.8459 -26.92173,29.4857 -7.69192,35.8956 -34.61365,52.5614 -111.53287,69.2273 -19.22981,5.1279 -55.12544,28.2037 -79.483199,52.5614 -55.125443,55.1255 -71.791274,56.4075 -71.791274,6.41 z"
       id="path6"
       style="stroke-width:1.28199" />
  </g>
</svg>
