<?xml version="1.0" encoding="UTF-8" standalone="no"?>
<svg
   xmlns:dc="http://purl.org/dc/elements/1.1/"
   xmlns:cc="http://creativecommons.org/ns#"
   xmlns:rdf="http://www.w3.org/1999/02/22-rdf-syntax-ns#"
   xmlns:svg="http://www.w3.org/2000/svg"
   xmlns="http://www.w3.org/2000/svg"
   xmlns:sodipodi="http://sodipodi.sourceforge.net/DTD/sodipodi-0.dtd"
   xmlns:inkscape="http://www.inkscape.org/namespaces/inkscape"
   version="1.1"
   width="1360"
   height="1360"
   viewBox="0 0 1360 1360"
   id="svg224"
   sodipodi:docname="Hainan.svg"
   inkscape:version="1.0.1 (3bc2e813f5, 2020-09-07)">
  <metadata
     id="metadata230">
    <rdf:RDF>
      <cc:Work
         rdf:about="">
        <dc:format>image/svg+xml</dc:format>
        <dc:type
           rdf:resource="http://purl.org/dc/dcmitype/StillImage" />
        <dc:title></dc:title>
      </cc:Work>
    </rdf:RDF>
  </metadata>
  <defs
     id="defs228" />
  <sodipodi:namedview
     pagecolor="#ffffff"
     bordercolor="#666666"
     borderopacity="1"
     objecttolerance="10"
     gridtolerance="10"
     guidetolerance="10"
     inkscape:pageopacity="0"
     inkscape:pageshadow="2"
     inkscape:window-width="1920"
     inkscape:window-height="974"
     id="namedview226"
     showgrid="false"
     inkscape:zoom="0.22596202"
     inkscape:cx="-222.69075"
     inkscape:cy="1569.9635"
     inkscape:window-x="-11"
     inkscape:window-y="-11"
     inkscape:window-maximized="1"
     inkscape:current-layer="g894"
     inkscape:document-rotation="0" />
  <g
     id="g222"
     style="fill:#000000;fill-opacity:1"
     transform="translate(79.9836,279.99941)">
    <g
       stroke="#000000"
       stroke-width="0.98"
       fill="#ffffff"
       id="g220"
       style="fill:#000000;fill-opacity:1">
      <g
         stroke="#000000"
         stroke-width="0.98"
         fill="#ffffff"
         id="g894"
         transform="matrix(1.5937507,0,0,1.5937507,-1795.3679,336.61977)"
         style="fill:#000000;fill-opacity:1">
        <path
           d="m 1873.8095,-130.2261 -4.3547,-1.45153 -0.7257,-2.17737 2.1771,-9.43507 -1.4514,-9.43508 -4.3546,-19.59593 -1.4514,-18.87013 -13.7901,-43.5465 -4.3547,-5.80622 -5.0803,4.35464 -2.9033,-2.17732 h -0.7256 v 1.45153 l -0.7257,0.72579 -6.5317,0.72579 -25.4022,-4.35464 -4.3546,-3.6289 -7.2579,-8.70928 -8.7093,-5.80622 -4.3546,-3.6289 -7.9836,-26.12789 -2.1776,-3.62885 -2.9028,2.90306 -5.8065,12.33818 -3.6284,2.90311 -10.8869,-0.72579 -3.6289,1.45158 -7.9836,9.43507 -0.7257,2.90311 2.1776,4.35464 v 2.17732 l -0.7262,3.6289 v 2.90311 l 2.9032,1.45153 6.5322,2.17732 1.4514,4.35464 1.4514,5.80622 4.3546,6.53196 -2.177,2.17731 0.7257,2.17738 0.7256,2.90305 0.7257,2.90312 -1.4513,2.90311 -2.1771,2.17732 -2.1776,0.72579 -0.7257,-1.45159 -1.4519,-5.80616 -5.806,-11.61245 -1.4513,-6.53195 -3.629,5.08043 -4.3546,-1.45153 -4.3547,-3.6289 -5.0803,-2.90311 v -1.45153 h 2.1771 v -2.90311 l -10.1607,-0.72579 -7.9836,-2.90306 -12.3382,-6.53201 -2.1771,1.45158 -13.0644,-11.61244 -1.4514,2.90311 -0.7257,2.90311 0.7257,6.53196 v 1.45158 l 2.1776,8.70928 -0.7262,0.72579 1.4519,3.62885 1.4513,2.90311 2.1776,2.17732 2.9028,0.72579 0.7262,1.45152 1.4514,7.25781 0.7256,2.17732 v 2.17732 h -1.4513 v 2.17732 l 0.7257,1.45152 v 0.7258 l 0.7256,2.90311 h -1.4513 l -1.4519,-4.35464 -1.4514,-9.43513 -1.4514,-5.08043 -7.2579,-5.80616 -2.1776,-3.6289 2.9033,-4.35464 v -2.17732 l -2.9033,-3.6289 -2.9027,-4.35464 -4.3546,-2.17732 -6.5323,-1.45153 -2.177,1.45153 -7.2579,5.80622 -4.3547,2.17732 h -6.5322 l -5.0803,-1.45158 -3.629,-2.17732 -3.6284,-0.72574 -3.6289,-0.72579 -12.3383,-4.35464 -4.3546,-2.17732 -2.1776,4.35464 -3.629,10.16086 -2.9027,4.35464 -4.3546,3.62885 -14.5159,5.80622 h 11.6126 2.9033 l 2.9027,-2.17732 4.3546,-4.35464 3.629,-1.45158 -4.3546,3.6289 -4.3547,7.25775 -3.6289,3.62884 -2.9028,-2.90305 -3.6289,-1.45158 -4.3547,-0.7258 h -2.1776 l -5.806,2.17738 -11.6125,5.08043 v 5.80617 l -4.3547,2.90311 -2.177,2.17732 4.3546,2.90311 v 2.17732 l -5.0808,1.45152 -5.0803,-0.72573 -4.3547,-2.90311 -2.9027,-5.08043 h 7.2574 l -0.7257,-5.80623 -5.0804,-5.80616 -3.6289,-4.3547 -0.7257,-1.45152 v -1.45153 -0.72579 l -2.9033,-0.72579 -0.7256,0.72579 -0.7257,1.45153 -0.7257,0.72579 -1.4519,-1.45153 -2.1771,-0.72579 -6.5322,1.45153 -3.6289,0.72579 -0.7257,5.08043 -2.9028,5.08043 -5.0808,4.35464 -6.5317,2.90311 1.4513,-3.62891 v -5.08037 l -1.4513,-5.08043 -2.1776,-3.6289 -3.6284,-2.17732 -1.4519,2.90311 v 5.08043 l -1.4514,5.08043 -13.7896,-7.98354 -7.9836,-0.72579 -3.629,6.53201 h -2.9032 l 1.4519,-2.90311 1.4513,-1.45158 v -2.90312 l -2.1775,-2.17731 2.9032,-4.35464 -0.7257,-2.90311 -2.1775,-0.72574 h -2.1771 l -2.1776,0.72574 h -5.806 -5.806 l -5.0808,2.17732 -2.9028,2.90311 h -2.1776 l -2.9027,-2.17732 h -5.0809 l -5.0803,2.17732 -4.3546,2.90311 -17.4186,10.88665 v 3.62885 l 1.4514,3.6289 2.1776,1.45153 0.7257,-0.7258 1.4513,-2.17732 2.1776,2.17732 2.1771,3.62891 -1.4514,2.17732 -8.7093,-0.7258 -3.6289,2.17732 1.4519,7.98354 2.9027,2.17732 16.6929,4.3547 v 2.17732 l -6.5317,-0.72579 -5.0809,1.45152 -3.6284,0.72579 -2.1776,-3.62884 -4.3546,2.90305 -5.806,1.45159 -4.3547,2.17732 -2.1776,2.90311 h -2.9032 l -0.7257,-5.08043 -2.1771,-5.08043 -3.6289,-2.90311 -5.0803,2.90311 -4.3547,1.45152 -5.8065,-2.90311 -7.9836,-6.53195 -10.1607,-0.7258 -5.0803,-0.72573 -2.1776,-2.17732 -0.7257,-6.53202 -2.9027,-0.72579 -7.2579,5.80622 -2.9033,1.45159 -2.9032,-0.72579 -2.1771,1.45152 -0.7257,3.62891 v 3.62884 l -1.4519,2.17732 -3.6284,3.62891 -2.1776,0.72579 h -1.4514 l -1.4519,0.72573 -2.9027,2.17732 -1.4519,1.45159 -1.4514,3.62884 -1.4513,1.45159 -3.629,2.90311 -2.9033,1.45152 -2.9032,2.90311 -1.4514,5.08043 1.4514,15.96703 -1.4514,6.53202 h 2.1776 l 1.4514,-2.17737 2.177,-1.45153 5.0809,-3.62885 4.3546,-1.45159 7.9836,-4.35464 7.9831,-5.08043 3.6289,-5.08043 2.9033,0.72579 2.177,1.45153 h 2.9033 2.9033 l -2.1776,3.6289 -1.4514,0.72574 h -2.9032 v 2.90311 h 2.1775 v 2.17732 l -5.8065,0.72579 2.1776,4.35464 5.0803,5.80623 2.9033,5.08043 h -2.1776 l -5.806,-4.35464 -2.9033,-1.45158 -4.3546,-0.72579 h -5.0804 l -7.9835,2.90311 -2.1771,-0.72574 -2.1776,2.17732 0.7257,6.53196 -4.3546,6.53196 -11.6121,9.43512 -7.2579,2.17732 v 0.72574 l -1.4513,0.72579 -2.9033,2.90311 -5.0803,1.45153 -7.2579,4.35469 -4.3547,1.45153 -15.9672,2.90311 -2.177,1.45153 -2.1776,2.903106 -2.9027,6.53196 -11.6126,10.88665 -4.3546,7.25775 0.7257,5.08043 v 2.17732 h -2.1776 l -4.3547,-4.35464 -6.5317,3.62884 -10.1611,12.33818 -13.7896,4.35464 -2.9028,1.45159 -5.8065,5.08043 -2.9028,0.72579 -5.8065,9.43507 -2.9033,2.17732 -2.9027,0.72579 -7.2579,2.90305 -5.0803,0.72579 -6.5323,-1.45152 -2.177,0.72573 -0.7257,3.6289 -1.4519,2.90312 -2.1771,2.17731 -0.7256,2.17732 2.177,3.62885 v 2.17738 l -2.9033,0.72573 -1.4513,1.4515896 0.7257,2.17731 -0.7257,1.45153 -4.3547,-0.72579 -1.4513,0.72579 0.7256,2.17732 0.7257,1.45158 -2.9032,1.45153005 -2.9028,2.90310995 -1.4519,3.62885 3.629,8.7093304 -2.1771,3.62885 -2.9032,3.6289 v 2.90311 l 3.6289,2.17732 h 5.0803 l 4.3547,0.72579 2.1776,5.08043 0.7256,7.25775 1.4514,3.62885 2.1776,2.17732 v 2.17732 l -1.4519,-0.72574 -5.0803,-1.45158 -2.1771,5.08043 -3.6289,5.08043 -5.0809,5.08043 -4.3546,2.90311 8.7092,27.57947 v 11.612394 l 0.7263,2.17732 1.4513,1.45153 1.4514,2.90311 0.7262,6.53201 -0.7262,7.98349 -2.1771,5.80622 -5.8065,11.61239 -1.4514,6.53201 0.7257,4.35464 3.629,3.62885 3.6289,3.6289 5.806,8.70928 5.0809,10.88665 2.9027,11.61239 1.4519,12.33818 -2.1775,26.12789 -1.4514,5.80622 -2.1776,5.08043 -1.4514,5.80622 0.7257,7.25775 2.1776,5.80616 3.6289,3.62891 5.0804,1.45152 13.7896,0.7258 6.5317,1.45152 5.8065,2.17738 11.6126,5.80617 11.612,8.70933 2.1776,3.62884 3.6289,2.17732 15.9667,5.80623 5.0808,2.17731 2.1771,2.90312 2.1776,2.90311 3.6284,2.90305 3.6289,2.17738 3.629,0.72573 28.3054,-0.72573 2.9033,0.72573 3.6284,2.17732 2.9033,0.72579 4.3546,-0.72579 -2.177,4.3547 3.6284,2.17732 0.7262,4.35463 0.7257,4.35464 1.4514,5.08043 4.3546,3.6289 h 3.629 l 5.0803,-3.6289 8.7093,-2.17732 36.289,0.72579 34.1114,5.08043 6.5317,2.90306 5.8065,5.08043 4.3547,6.53201 2.177,-5.08043 1.4519,2.17732 1.4514,5.08043 v 2.17732 l -5.8065,1.45153 -2.1771,2.17732 -2.1776,2.90311 -4.3546,2.90311 4.3546,3.6289 10.1612,-7.25775 7.2579,1.45153 -1.4519,-5.80622 2.9033,-2.90306 4.3546,-2.90311 2.9033,-4.35469 2.177,2.90311 -0.7257,2.17732 -0.7256,1.45158 -0.7257,2.17732 h -0.7262 l -1.4514,0.72579 -1.4514,1.45153 -0.7257,1.45153 0.7257,0.72579 h 1.4514 v 1.45158 l 0.7257,1.45153 1.4519,1.45153 1.4513,1.45158 0.7257,2.90311 -1.4513,5.08043 -0.7257,2.17732 h 2.177 l 2.9033,-2.17732 3.629,-1.45158 h 4.3546 l 4.3546,1.45158 -0.7256,-2.17737 -2.9033,-5.08038 -0.7257,-1.45158 1.4514,-2.17732 3.6289,-2.17732 1.4514,-1.45158 2.1776,-2.17732 10.8863,-3.62885 4.3546,-2.17732 2.1776,7.98349 1.4514,3.6289 3.629,2.17732 2.1775,-1.45153 3.6285,-2.17732 2.9032,-3.6289 0.7257,-2.90311 2.1776,-2.90311 1.4514,-2.90306 -0.7257,-2.17737 -1.4514,-0.72574 -5.8065,0.72574 h -1.4514 l -5.8065,-2.90306 -2.1771,-0.72579 -5.0803,0.72579 v -2.17732 l 7.9836,-5.80622 2.9027,-0.72579 2.1776,1.45158 v 2.90306 l 1.4514,2.17737 h 4.3546 l -1.4514,-10.16086 7.258,-23.22483 -0.7263,-7.25775 3.629,-1.45152 5.8065,-1.45159 h 5.806 l 5.8061,0.72579 2.1775,1.45153 v 2.17738 l 1.4514,1.45152 2.9033,1.45153 15.241,-8.70927 5.0808,-2.17732 5.0803,-0.7258 10.8864,0.7258 h 1.4519 1.4513 l 2.1776,-0.7258 2.1771,-2.17731 1.4513,-2.90312 1.4519,-0.72579 3.629,1.45159 v -0.7258 -2.17731 -1.45153 l 2.9027,2.90305 1.4519,1.45159 0.7257,-1.45159 2.1771,-3.62884 1.4519,-1.45159 0.7257,2.90311 v 3.62891 l -0.7257,4.35463 -2.1776,2.90312 -4.3547,1.45152 h -4.3546 l -3.6289,-0.72573 h -2.1771 v 5.80616 l 8.7093,2.17732 9.4349,0.72579 4.3547,-0.72579 4.3546,-2.90305 -0.7257,-2.90311 -2.1775,-3.62891 -1.4514,-5.08043 1.4514,-5.08043 h 2.9032 l 2.1776,3.62891 0.7257,7.25775 h 2.177 v -5.80623 l 3.629,-13.06391 0.7257,-4.3547 -2.9028,-3.62884 -8.7092,-2.17732 -3.629,-3.6289 v -1.45153 l 11.612,2.90311 5.0809,-0.72579 5.0803,-11.61239 5.806,-5.80622 10.8869,-7.98354 22.4989,-20.32172 13.7896,-8.70928 9.4349,1.45153 h 2.1776 l 5.806,-5.08038 16.6929,-3.6289 5.8065,-4.35464 h 1.4514 l 2.9033,1.45153 v 2.90311 l -13.7902,1.45153 -7.2573,1.45158 -2.9033,2.90311 2.9033,2.90306 13.7896,-3.62885 4.3546,3.62885 4.3546,-2.17732 2.9033,-3.62885 1.4514,-3.6289 -2.1771,-3.62885 8.7093,-18.1444 5.806,-6.53196 5.0803,1.45153 h 2.1776 l 2.1771,-2.90311 2.1776,-0.72574 h 4.3546 l 4.3546,-0.72579 -7.2579,-27.57947 -2.1776,-4.35464 -3.6284,2.17732 v 4.35464 l 2.1771,7.98354 0.7257,8.70933 v 2.90306 l -2.9028,3.6289 -3.6289,-2.90311 -5.0804,-1.45153 h -4.3546 l -2.1776,0.72574 -0.7257,-1.45153 -2.1776,-2.17732 -1.4513,-2.17732 1.4513,-3.6289 2.1776,-1.45153 3.629,-2.90311 1.4514,-1.45153 0.7256,-2.17737 0.7257,-6.53196 0.7262,-2.17732 1.4514,-0.72579 2.9033,-0.72574 1.4513,-0.72579 0.7257,-1.45158 1.4514,-0.72574 2.9033,-0.72579 h 2.9032 l 1.4514,-2.90311 v -2.90311 l -1.4514,-2.90306 -0.7256,-2.17737 1.4513,-11.61239 2.1776,-9.43507 4.3547,-8.709284 5.0803,-7.25775 5.0803,-5.08043 0.7257,-3.6289 1.4514,-11.61239 3.6289,-15.96708 h -2.177 l -4.3547,15.96708 -2.1776,4.35464 0.7257,-10.88665 -0.7257,-2.17732 -2.9027,-4.35464 -1.4519,0.72579 -1.4514,2.17732 -3.6289,1.45153 -5.806,-1.45153 -2.9033,-3.6289 -2.1776,-3.62885 -3.6284,-2.90311 v -2.17732 l 3.6284,0.72579 2.1776,2.17732 1.4514,2.17732 2.9032,1.45153 h 10.8869 l 1.4514,-0.72574 5.806,-3.6289 2.1776,1.45153 1.4513,0.72579 2.9033,-7.25775 5.0803,-7.25775 5.0803,-10.8866 3.629,-10.8866504 1.4514,-10.88665 1.4519,-5.08043 7.2573,-2.90305 4.3547,-4.3546996 -0.7257,-4.35464 -2.1771,-5.80616 v -5.80623 l 3.629,-2.17731 1.4514,-1.45159 2.9032,-6.53196 0.7257,-1.45152 2.9028,-0.72579 5.8065,0.72579 h 2.1771 l 4.3546,-2.17732 3.6289,-2.90311 2.1776,-2.90311 -1.4519,-3.62891 v -2.17732 l 4.3547,-1.45152 3.6289,-3.62891 3.629,-4.35463 1.4514,-2.90312 0.7262,-7.98348 1.4513,-4.35469 4.3547,-7.98349 -2.9033,-2.90311 -2.9027,-8.70933 -2.9033,-3.628846 3.629,-4.35464 6.5316,-2.90311 h 6.5323 l 5.0803,4.35464 -7.2579,0.72579 -4.3547,1.45153 -2.177,3.628896 0.7257,7.98349 2.9032,5.08043 3.629,4.35463 5.0803,1.45159 5.806,-1.45159 3.629,-3.62884 7.9836,-10.88665 16.6929,-17.418606 3.6289,-2.17732 5.0803,-0.72574 4.3547,0.72574 3.6289,2.17732 5.0803,-2.17732 -5.806,-12.33818 z"
           id="path880"
           style="fill:#000000;fill-opacity:1;stroke-width:71.1261" />
      </g>
    </g>
  </g>
</svg>
