<?xml version="1.0" encoding="UTF-8" standalone="no"?>
<svg
   xmlns:dc="http://purl.org/dc/elements/1.1/"
   xmlns:cc="http://creativecommons.org/ns#"
   xmlns:rdf="http://www.w3.org/1999/02/22-rdf-syntax-ns#"
   xmlns:svg="http://www.w3.org/2000/svg"
   xmlns="http://www.w3.org/2000/svg"
   xmlns:sodipodi="http://sodipodi.sourceforge.net/DTD/sodipodi-0.dtd"
   xmlns:inkscape="http://www.inkscape.org/namespaces/inkscape"
   version="1.1"
   width="1360"
   height="1360"
   viewBox="0 0 1360 1360"
   id="svg224"
   sodipodi:docname="Hawaii.svg"
   inkscape:version="1.0.1 (3bc2e813f5, 2020-09-07)">
  <metadata
     id="metadata230">
    <rdf:RDF>
      <cc:Work
         rdf:about="">
        <dc:format>image/svg+xml</dc:format>
        <dc:type
           rdf:resource="http://purl.org/dc/dcmitype/StillImage" />
        <dc:title></dc:title>
      </cc:Work>
    </rdf:RDF>
  </metadata>
  <defs
     id="defs228" />
  <sodipodi:namedview
     pagecolor="#ffffff"
     bordercolor="#666666"
     borderopacity="1"
     objecttolerance="10"
     gridtolerance="10"
     guidetolerance="10"
     inkscape:pageopacity="0"
     inkscape:pageshadow="2"
     inkscape:window-width="1920"
     inkscape:window-height="974"
     id="namedview226"
     showgrid="false"
     inkscape:zoom="0.45192403"
     inkscape:cx="256.95752"
     inkscape:cy="465.99285"
     inkscape:window-x="-11"
     inkscape:window-y="-11"
     inkscape:window-maximized="1"
     inkscape:current-layer="svg224"
     inkscape:document-rotation="0" />
  <path
     d="m 1186.6921,699.10204 -47.3964,-44.45669 -16.0911,-24.82424 -12.3261,-26.59493 3.1804,-42.99543 -12.4981,-20.97338 -26.9732,-19.1683 -36.7206,17.34602 -26.2683,1.11744 -2.5443,-41.31069 1.5644,-52.46783 -0.6876,-39.43683 L 982.85489,368.89163 933.6534,318.65866 889.29986,289.7601 778.8114,218.4506 695.468,174.83628 629.14398,151.9031 l -34.03876,-13.28887 -33.84966,-2.14892 -21.9361,5.48403 -18.99638,-15.07677 -22.76127,-10.29759 -16.46926,-19.873133 -23.77557,-13.718654 -36.11891,-14.543836 -15.4034,-25.597839 -1.11743,-9.764656 -3.23197,-7.529787 -5.05424,-4.985476 -26.47459,-5.398067 -61.33855,-14.32034921 -34.03876,0.29225201 -12.48088,11.1743422 -17.70704,35.500025 -0.086,32.76661 2.23487,35.362498 13.59831,44.07848 32.85257,50.61117 15.69565,15.19711 6.58427,19.34021 -4.00558,13.18572 -6.72179,31.35692 -14.56103,0.41259 -21.21406,24.03344 -21.16248,37.94118 -9.40364,11.4666 -19.03077,33.33392 -39.53998,14.59541 -13.27168,10.93366 -5.14019,18.99639 -8.75037,9.95376 -19.47774,13.37482 -20.1482,17.96491 -10.69299,23.6896 -9.438016,28.33126 22.537786,63.36711 20.25135,24.60075 14.38911,11.19153 16.33173,24.51479 10.21163,28.00462 5.39807,23.07072 11.00243,20.56079 -2.28644,21.85013 9.36925,20.62956 9.30049,12.29178 6.68742,19.49492 15.57531,47.48236 11.38064,31.54603 12.73875,23.15668 1.73632,25.39154 -21.54069,144.97423 -10.88209,50.2845 7.35787,42.3078 7.75327,26.6637 12.11987,3.7993 6.60146,18.3087 5.56998,18.1712 17.91333,5.2434 39.47121,10.5554 23.65522,16.1942 45.00681,27.5577 37.94119,20.1825 20.02786,16.1427 -0.5845,21.661 8.2862,5.0199 22.15958,-19.9248 17.22568,-14.0452 13.6327,-15.2831 15.50655,-41.7061 29.6206,-29.3111 17.32883,-18.7901 -1.3925,-36.2565 7.16877,-16.2114 40.84652,-39.368 14.16563,-4.8308 48.01529,-27.2826 13.4264,-10.246 21.16248,-13.5295 14.59541,-6.8422 19.3574,-3.0256 17.3804,-21.1969 29.44869,-20.8187 21.98767,-13.8562 20.59517,-6.63581 22.83004,0.63611 39.6947,9.9365 47.05258,-13.59828 56.57651,-16.985 28.6751,-21.57508 33.8841,-8.35497 1.4784,-11.39783 40.3308,-11.6385 59.7398,-58.03782 41.6717,-15.55812 42.2562,-51.16129 11.9651,-15.66128 2.9741,-26.8528 -10.607,-20.90461 -20.0967,-17.46636 z"
     id="path958"
     style="fill:#000000;fill-opacity:1;stroke:#000000;stroke-width:1.68475" />
</svg>
