<?xml version="1.0" encoding="UTF-8" standalone="no"?>
<svg
   xmlns:dc="http://purl.org/dc/elements/1.1/"
   xmlns:cc="http://creativecommons.org/ns#"
   xmlns:rdf="http://www.w3.org/1999/02/22-rdf-syntax-ns#"
   xmlns:svg="http://www.w3.org/2000/svg"
   xmlns="http://www.w3.org/2000/svg"
   xmlns:sodipodi="http://sodipodi.sourceforge.net/DTD/sodipodi-0.dtd"
   xmlns:inkscape="http://www.inkscape.org/namespaces/inkscape"
   version="1.0"
   width="1360"
   height="1360"
   viewBox="0 0 1020 1020"
   preserveAspectRatio="xMidYMid meet"
   id="svg126"
   sodipodi:docname="Hispaniola.svg"
   inkscape:version="1.0.1 (3bc2e813f5, 2020-09-07)">
  <defs
     id="defs130" />
  <sodipodi:namedview
     pagecolor="#ffffff"
     bordercolor="#666666"
     borderopacity="1"
     objecttolerance="10"
     gridtolerance="10"
     guidetolerance="10"
     inkscape:pageopacity="0"
     inkscape:pageshadow="2"
     inkscape:window-width="1920"
     inkscape:window-height="974"
     id="namedview128"
     showgrid="false"
     inkscape:zoom="0.35872474"
     inkscape:cx="1069.3197"
     inkscape:cy="848.06976"
     inkscape:window-x="-11"
     inkscape:window-y="-11"
     inkscape:window-maximized="1"
     inkscape:current-layer="g1103"
     inkscape:document-rotation="0"
     scale-x="0.75"
     units="px" />
  <metadata
     id="metadata2">
Created by potrace 1.10, written by Peter Selinger 2001-2011
<rdf:RDF>
  <cc:Work
     rdf:about="">
    <dc:format>image/svg+xml</dc:format>
    <dc:type
       rdf:resource="http://purl.org/dc/dcmitype/StillImage" />
    <dc:title></dc:title>
  </cc:Work>
</rdf:RDF>
</metadata>
  <g
     stroke="#000000"
     stroke-width="0.98"
     fill="#ffffff"
     id="g1103"
     transform="matrix(1.2902075,0,0,1.2902075,-353.12606,-59.414171)"
     style="fill:#000000;fill-opacity:1">
    <path
       d="m 624.32649,314.88732 -5.38279,-0.13939 -3.3186,-0.74336 -1.46682,-0.0996 -0.97568,0.84293 -0.21238,1.36728 0.45797,1.19469 0.90929,0.83629 2.82745,0.74337 0.27877,0.97567 -0.69027,1.86506 -0.63054,0.43142 -1.427,-0.89602 -2.31639,-1.95798 -1.90488,0.31194 -2.40931,0.677 -2.22347,-0.25885 -1.34072,-2.4956 3.57746,0.0531 1.51992,-0.25885 1.11506,-0.72346 0.77655,-1.71241 -0.91593,-0.69026 -3.44472,-0.47124 -6.27217,-1.85179 -3.6372,-0.0265 -2.43585,1.87834 -1.46683,0.40486 -0.82301,0.98895 -0.65045,1.01549 -0.98895,0.46461 -1.17478,-0.29204 -1.73895,-1.27435 -1.20135,-0.59071 -0.40487,-0.63717 -0.57079,-0.63718 -1.03542,-0.29203 h -4.42701 l -1.24116,-0.39823 -1.84515,-1.8717 -0.88939,-0.59735 -0.71681,-0.18585 -0.43806,-0.0332 -5.07084,0.89601 -2.09736,-0.21902 -2.177,-1.31417 1.0885,-3.27878 -1.71904,-1.46019 -2.52878,0.0663 -1.28762,1.34072 -1.02213,2.00443 -2.3363,0.76328 -2.6217,-0.23894 -1.90489,-1.04203 h -0.79646 l 0.49778,1.427 0.29868,0.41814 v 0.8562 l -0.18584,-0.2655 -0.31196,0.44471 -0.26548,0.57743 -0.0332,0.16593 0.41814,0.0398 0.82966,-0.0663 0.42478,0.0265 -1.67258,1.94471 0.47788,1.18143 -0.47788,0.17255 -2.26992,-0.50441 -0.56417,-0.604 -1.61948,-3.96905 2.01108,0.57744 0.61062,0.27876 v -0.8562 l -6.19252,-5.79429 -0.81638,-2.15046 -1.59957,0.47788 -3.6372,-0.93585 -3.88277,-1.50665 -2.33629,-1.25443 -1.95798,1.28098 -3.57084,-1.29426 -3.43144,-2.32966 -2.66816,-3.33852 -0.45797,-0.56417 -7.60625,-2.37611 -2.66152,-1.27435 -3.22568,-2.00444 -13.08196,-3.07967 -3.98898,-0.2323 -4.27436,0.54425 -4.08189,1.07523 -3.4248,1.41373 -2.47568,-0.92258 -2.9403,0.2854 -2.41595,1.32081 -0.92257,2.11064 -1.36062,-1.28099 -1.77877,-0.66372 -1.95798,-0.16593 -1.89825,0.24557 -2.55533,0.69028 -0.8562,0.1261 -1.52656,0.0332 -1.78541,-0.27212 -3.38498,-1.22789 -1.87171,-0.27877 -3.64382,0.41815 -1.46019,-0.4978 -1.53319,-1.8717 -2.56861,3.57747 -4.57304,3.34516 -15.61737,7.20801 -2.58189,0.16593 -2.61506,-0.21239 -2.44249,0.25886 -2.07081,1.56638 h 7.0819 v 1.01549 l -6.69694,3.13941 -1.26108,0.0332 -0.67699,1.53983 -4.57304,7.38059 0.37167,1.59293 0.23894,2.854 0.71019,2.71463 1.77877,1.20798 1.24117,0.57743 2.26992,2.55533 0.90266,0.59071 1.42037,0.13937 2.42258,0.63718 12.21913,0.61726 5.50888,-0.72346 2.58188,-2.52877 1.73231,1.52656 2.76772,1.53983 2.8341,1.18806 1.90488,0.46461 1.36727,-0.29868 0.84292,-0.67036 0.59735,-0.66372 0.64382,-0.30531 0.17257,0.0132 1.2876,0.13274 2.52878,0.63054 1.31418,0.15266 7.93811,2.94692 1.28098,-0.57743 0.85621,0.20575 4.52657,3.8695 2.09736,0.98231 2.43586,0.59071 6.80315,4.22791 8.16378,3.75002 2.40931,1.73896 1.69249,2.08408 1.12832,1.81197 1.67923,1.22788 6.62393,0.42478 1.29426,0.73009 2.47568,4.94474 -1.60621,-0.0332 -1.23452,-0.65044 -0.89602,-0.76992 -0.64381,-0.40488 -1.8385,-0.33186 -0.29204,-0.1128 0.32522,0.59071 0.2124,3.12613 0.45131,1.12168 -0.073,0.99558 -1.41371,1.02877 -1.26772,0.19912 -1.22788,-0.39159 -1.06859,-0.73674 -0.80974,-0.84292 -0.55754,1.69913 -0.19911,2.82081 0.50443,2.65489 1.51992,1.16815 2.56861,0.23231 1.32745,0.74336 1.83849,3.66375 -1.5,-0.25885 -2.06418,0.0929 -2.03761,0.39823 -1.40046,0.6969 -0.84957,1.25443 -1.40709,3.13277 -1.25444,1.18143 -0.1128,0.71681 0.13937,0.26549 -0.0996,0.24557 -0.87612,0.62391 0.81638,2.16373 3.07967,5.46244 1.354,1.72567 2.13055,1.25444 2.32302,0.89603 1.87168,1.32743 0.76329,2.54869 -1.1947,1.99117 -2.71462,0.91593 -4.91817,0.33186 -5.42925,2.19692 0.61726,3.4779 13.44036,14.56207 2.38941,1.22787 2.19027,0.70355 2.69472,1.71905 2.56861,2.11064 1.81195,1.8584 6.57748,10.25451 1.07523,2.57525 1.09514,1.21461 4.3872,2.68806 3.11286,-0.36505 2.47569,1.95134 2.30974,2.80755 2.60179,2.24338 1.50665,0.46461 3.11949,0.0929 1.57303,0.27876 5.85402,2.86065 1.15488,0.83629 0.69026,1.61284 -0.4646,1.00886 -0.99558,1.09514 -0.89602,1.83186 -0.21239,1.52657 0.21239,8.23015 -0.29204,3.15268 -1.04204,2.26329 -2.25666,0.61062 -1.22125,-0.69026 -2.66816,-3.00667 -0.40487,-0.15929 -0.25221,-0.3385 -0.37169,-0.34513 -0.80974,-0.16593 -0.43806,0.29203 -0.20575,0.63717 -0.33186,0.63718 -0.77656,0.2854 -21.37847,-1.91816 -4.06862,0.9093 -3.11949,3.86286 -2.15046,4.75224 -2.55533,4.16154 -3.48454,2.96021 -4.93809,1.12832 -9.10626,-1.54647 -1.87833,-0.79646 -2.26329,0.007 -3.43144,1.21461 -2.44249,0.47788 0.65708,-2.21019 -11.09744,-2.68808 -9.01997,1.61948 -3.23233,0.57744 -2.16374,-0.15266 -1.93806,-0.74336 -2.38275,-1.38054 -4.51996,-1.69914 -5.01773,-0.43805 -10.27441,0.37168 -2.84737,-0.57744 -5.10403,-2.60842 -2.59515,-0.58408 -20.27669,-1.56638 -5.50889,0.6969 -4.50004,2.71463 -2.01107,-1.00886 -4.07525,0.59071 -2.25665,-1.00885 -0.56417,-1.05532 0.0531,-1.03541 -0.14601,-0.78982 -2.11064,-0.5177 -2.13054,-1.1416 -0.84293,-0.57745 2.79427,-0.98894 2.48231,-0.2854 2.46241,0.3385 2.76771,0.93584 v -0.84292 l 3.39827,0.53098 2.60178,-1.75887 -0.073,-2.32302 -4.57304,-1.1416 -1.66595,0.2323 -5.81419,1.68585 -1.00886,0.0399 -1.05532,-0.0863 -1.01549,0.0399 -0.86285,0.43805 -1.62611,2.01772 -0.1593,0.32522 -0.53097,0.27212 -1.63939,1.21462 -0.7832,0.36505 -1.14823,-0.0199 -1.57966,-0.78319 -1.28098,-0.20576 -0.68363,0.24558 -0.42479,0.47788 -0.63717,0.38496 -1.32081,-0.0996 -0.81637,-0.47788 -2.76108,-2.38276 -1.50002,-0.65709 -1.36727,-0.26548 -5.76111,-0.21239 -1.65929,-0.59736 -3.72349,-1.95133 -0.8031,0.0863 -0.88939,0.4646 -0.71681,0.073 -0.29204,-1.04868 -0.17921,-0.27876 -0.82965,-0.94249 -0.26548,-0.20576 -7.38723,-0.33186 -16.77225,-7.4934 -5.10402,-1.10179 -7.20139,-0.4115 -1.50664,0.0996 -1.42037,0.41151 -0.63718,0.93586 -0.54424,1.10177 -1.30753,0.0399 -2.9602,-0.72344 -2.42922,0.43141 -5.69474,2.30974 -4.34738,2.54206 -0.98895,1.25444 0.33186,1.44027 0.4978,1.04868 0.50443,1.69249 0.21903,1.5863 -0.34514,0.70354 -1.91151,1.38718 -1.50665,6.26553 -2.34957,1.67258 0.56416,1.30754 0.38496,0.53761 -4.45357,6.53766 3.32524,4.22126 0.84293,1.86506 0.2854,2.64162 1.09514,2.48895 4.81861,2.44251 1.09515,1.51328 1.04868,1.12169 2.48896,1.38718 2.92701,1.18806 2.36285,0.49779 2.81418,-0.86947 2.70797,-1.67922 2.56861,-1.0885 2.41595,0.86947 0.86948,-1.00221 1.07523,0.63053 3.30533,1.29425 1.33408,0.35178 1.09514,0.073 0.72346,0.43804 0.27213,1.44029 0.59071,1.27433 1.40045,1.02213 1.64603,0.68363 3.90932,0.65709 2.2301,1.08851 12.41161,9.15936 2.38939,2.24338 0.34514,0.57745 0.0663,0.42478 0.0996,0.4115 0.45797,0.51106 0.45134,0.27212 0.96903,0.42479 0.41151,0.31195 8.19696,11.80762 0.49115,1.98452 0.93584,0.94249 1.2478,0.59734 1.24116,0.20575 8.48901,0.0332 1.69913,-0.41151 0.30532,-1.03539 -0.65046,-2.64825 -0.80974,-2.104 -5.39606,-5.76774 2.23675,-3.6903 2.32302,-2.30974 9.17263,-4.2611 5.60182,-4.48013 0.13938,-0.47124 -0.14602,-0.60399 -0.0531,-0.54425 0.45797,-0.22567 1.37391,0.29205 0.75664,0.29866 0.0996,0.33186 1.04868,-1.04203 1.44028,-1.91153 1.00886,-0.82301 -1.24117,3.09294 -0.42478,1.61949 -0.0863,1.8186 1.83851,-1.44692 1.59292,-3.531 1.8186,-0.54425 -0.63717,2.21683 0.56415,1.74559 1.26772,0.69027 1.51329,-0.9624 h 0.80309 l 1.73232,0.95577 0.94912,-1.9779 0.92922,-2.63498 1.71239,-1.04204 0.93586,0.75664 1.10841,2.48233 1.02214,0.5376 1.56638,-0.31858 4.12834,-2.44913 3.01994,-0.84293 10.3806,-0.0796 8.56202,0.92257 v 0.83629 l -4.62615,-0.0399 -1.70576,0.67036 -0.67036,1.75886 1.18143,0.33186 7.65271,-0.78983 17.02446,2.75445 1.12169,0.38496 3.73013,2.38277 1.06194,0.16592 3.39162,-0.16592 13.52664,1.51327 4.84518,1.28763 4.53322,1.77878 3.36507,1.95797 3.46463,-1.33409 7.07527,0.69691 3.55092,-2.29647 0.90266,0.65709 0.76327,0.21239 1.90489,0.13274 -0.25221,-0.61726 -0.37169,-1.51992 -0.25222,-0.62391 3.09295,0.19912 15.07976,-1.38718 1.95798,0.35178 3.49781,1.36063 1.50001,-0.0332 1.20797,-1.32745 -0.86283,-5.19031 0.69026,-0.53097 1.53984,0.58408 2.58187,1.36063 10.06203,-1.83188 18.68377,-0.24558 13.33416,0.12611 10.23459,-1.72568 4.9912,0.007 4.16817,1.60621 4.16818,2.18364 10.08855,3.46463 4.50004,2.8341 3.91596,3.54426 8.9536,11.68815 2.09737,1.43363 7.1682,2.71462 4.67924,3.90268 2.25665,2.61507 0.94912,2.34958 -0.87612,5.09739 0.0929,1.61947 0.27214,0.77655 1.38717,2.11727 1.9779,3.84296 0.53761,2.03763 0.18585,2.90046 -0.87612,1.71904 -4.08853,4.26108 -1.24114,0.95577 4.38718,1.08186 10.23461,-1.38054 4.31418,1.67258 2.15045,2.32966 8.81423,14.59525 1.2478,1.08186 0.0663,0.56417 1.10841,1.04868 1.28099,0.60399 5.2965,-7.44696 1.32744,-2.45577 4.32082,-12.65055 1.5664,-2.26328 0.49115,-0.97567 0.82965,-2.68807 0.47124,-0.55089 1.01549,-0.19912 0.82303,-0.56416 0.66372,-0.86284 0.51769,-1.13497 h -0.8761 l 0.48451,-0.43141 0.19911,-0.34514 0.19248,-0.97567 0.5177,0.43805 0.36505,0.22567 0.94912,0.3385 0.8031,-2.24338 0.87612,-1.62612 1.12832,-1.32081 1.57303,-1.32744 2.55533,-1.33409 1.2146,-0.84291 0.53099,-1.08851 1.06195,-3.04648 12.13284,-17.78111 2.13055,-5.4226 2.49559,-3.80313 -0.0199,-1.60621 -0.677,-1.25443 -2.09072,-7.34741 -0.9093,-1.48009 -0.84957,-0.86284 -0.62389,-0.94912 -0.24558,-1.73232 0.27213,-1.50665 1.13496,-1.97124 0.27213,-1.13497 0.80311,-2.06418 2.00443,-0.8031 2.57525,0.0465 5.56198,1.2146 1.36063,0.59735 1.34072,1.00886 0.83629,1.1947 0.67035,1.35399 0.80311,1.09514 1.22789,0.45797 3.03984,-0.37833 1.82524,-1.0885 3.41152,-4.06197 0.63717,-0.31858 1.71904,-0.57081 0.34514,-0.53762 0.15266,-0.58407 0.8031,-1.67257 0.35841,-0.50443 1.26771,-1.20135 0.5708,-0.35177 1.62612,0.2124 1.20134,-0.27877 1.77878,-1.26107 0.99558,-0.3916 1.17478,0.11281 2.66817,0.83629 1.5,0.0597 1.38054,-0.39824 1.04868,-0.67699 3.80977,-3.77659 0.31858,-1.12832 -0.43806,-2.82745 1.16152,-2.36285 2.73453,-0.73673 3.19915,0.24558 2.52878,0.5907 2.97346,1.15489 1.69249,1.21461 2.82082,3.54426 0.71019,1.61285 0.35177,2.50223 -0.0797,2.854 -0.59072,2.71463 -0.677,0.92921 -0.86947,0.46461 -0.75665,0.61726 -0.31194,1.34072 0.55752,1.25443 2.44914,1.59293 0.96904,1.32744 0.90266,0.51771 0.87611,0.8031 0.36504,1.46018 -0.59735,0.82302 -1.20133,0.78983 -0.92922,0.9093 0.17921,1.15488 2.06418,0.82301 8.88059,0.0265 2.99339,-0.65709 5.27659,-3.00002 2.75445,-0.86948 16.4072,-0.0663 2.40931,0.51107 2.26328,1.40045 1.5863,-0.88939 2.3894,-0.41151 3.10622,-0.0863 0.78319,0.37832 1.75887,-1.51327 3.11285,-3.59738 4.33409,-4.04206 0.51771,-1.49338 0.677,-0.9823 2.94693,-1.55975 0.67699,-1.10178 0.84956,-4.05534 2.16374,-3.4049 2.86064,-2.55532 1.61285,-0.82301 1.34735,-0.69028 3.41152,-1.11504 1.25443,-0.604 3.31862,-2.25664 4.0288,-1.95798 2.07081,-0.61063 0.54425,-0.0266 3.5841,-0.17256 19.75235,2.177 0.95576,0.30532 1.02214,0.99558 2.15709,3.68365 0.72346,0.47788 1.65267,0.32523 h 1.79869 l 1.14823,-0.37832 0.35841,-1.23452 -0.2323,-1.52657 -0.0663,-1.51329 0.80974,-1.2677 1.88497,0.21903 2.84072,1.51992 7.01554,4.87172 2.62835,-0.0663 4.97791,-1.84515 16.65942,-1.28098 2.68143,-2.49559 2.56861,1.5531 2.54204,-0.1792 2.51552,-0.8562 2.46904,-0.5177 2.8341,0.73009 3.71019,3.16596 2.2102,0.72345 2.54869,0.41815 5.61509,1.91151 2.42922,0.43141 9.33856,-0.43141 6.1859,-2.54868 5.36286,0.76327 5.32305,2.26993 4.02215,2.79427 3.77662,4.36728 4.2677,6.35846 3.1196,6.53766 0.292,4.94473 2.2168,0.78319 10.8386,-0.85621 1.4536,-0.53097 0.7168,-1.39382 1.9779,-7.85846 0.9956,-2.4425 1.573,-2.11064 1.0884,-2.63496 -0.6836,-2.57526 -0.3318,-2.17036 2.1172,-1.42037 1.8451,0.55089 5.0841,3.3518 2.3496,0.79647 h 3.0465 l 2.6482,-0.3186 2.1107,-1.08849 1.4601,-2.28984 0.2324,-1.34072 -0.2324,-4.69252 0.3916,-1.28761 0.843,-0.91594 0.8495,-0.73673 12.0532,-18.39837 0.6969,-5.30314 -3.5376,-5.41596 -7.3341,-4.47349 -5.7877,-5.60845 -0.8296,-0.53761 -1.5731,-0.70355 -5.542,-3.88278 -7.7324,-5.91375 -5.4756,-6.68369 -14.9006,-13.89169 -1.3141,-0.49779 -2.2832,-0.19248 -1.1748,-0.65709 -1.0488,-0.75 -0.219,-0.15929 -1.1549,-0.41815 -2.8673,-0.10618 -4.58628,-0.97567 -0.2323,0.0465 -2.6217,-0.92922 -0.52435,-0.4646 -0.10618,-0.51107 v -0.49115 l -0.24558,-0.37168 -2.14381,-1.18143 -2.40932,-0.86946 -2.68806,-0.54426 -4.59296,-0.25222 -0.50443,0.0399 -0.41151,0.55089 -1.34072,1.40708 -1.09513,0.38497 -1.15489,0.0332 -0.47123,0.26549 0.9823,1.08851 -1.47347,1.07523 -3.12613,1.44692 -1.5332,1.26107 -0.86946,-1.45355 -1.65931,-0.7301 -1.93807,-0.58408 -1.74558,-1.01549 -2.69472,-4.39383 -2.00444,-1.82524 -2.3031,0.65709 0.0199,1.31417 1.59294,0.96239 0.8031,0.98893 -2.41594,1.37392 -2.02436,0.13937 -4.93144,-1.33407 -11.90718,-3.23896 -4.40711,-0.54425 -2.19027,-0.58408 -2.16374,-1.65266 -1.7655,-4.16818 -2.26993,-1.67922 -1.9978,-0.36505 -6.84297,0.36505 v 0.92921 l 1.42036,0.1792 1.22789,0.45798 1.02213,0.62389 0.78318,0.677 -3.17921,0.35842 -6.03324,-2.34958 -3.04648,0.9823 -2.4425,-0.9093 -7.06864,1.08851 -1.59292,-1.15488 -1.22789,-0.88275 -0.39823,-2.06417 0.9624,-5.50889 0.41814,-6.45801 0.70355,-1.8186 1.8385,-0.51107 16.34747,2.03763 4.75224,2.37613 2.59516,0.75 11.02442,-0.84957 10.06202,1.85843 2.8009,-0.69691 2.24339,-1.61949 1.48674,-2.21683 0.55752,-2.46241 1.16151,-2.3363 2.30311,-2.1239 1.66594,-2.3363 -0.76327,-2.98011 -2.32304,1.20797 -2.80753,0.7301 -2.88719,0.0132 -2.56196,-0.94249 1.8916,-3.84958 0.98895,-3.23898 -0.88276,-1.56638 -3.75002,1.14824 -5.82085,3.22569 -2.3562,2.18365 -1.45355,2.94029 -2.19029,-1.5863 -7.44032,-3.05312 -1.40709,0.87611 -0.88275,0.25886 -0.41151,-0.66372 -0.20575,-0.78983 -0.50443,-0.41151 -0.69691,-0.16594 -0.74338,-0.0266 -1.34734,0.13938 -3.10622,0.78319 -1.68585,-0.29867 -2.71462,-1.34736 -1.32745,-0.2854 -1.46682,0.31859 -3.78322,2.5487 -2.62833,1.06858 -2.55533,0.55089 -5.76774,0.23231 -2.56861,0.43141 -4.97792,1.91817 -2.59515,0.43141 -4.38719,-1.79205 -0.48452,-0.47124 -3.83632,-3.75666 -8.53546,-12.82975 -0.82301,-2.15709 -0.31194,-2.69472 0.0332,-6.21244 -0.96903,-2.41594 -2.56861,-1.08186 2.104,-7.48015 0.073,-3.45135 -1.38054,-3.16596 -4.37392,-4.65269 -1.95135,-1.15487 -1.57302,-0.20576 -3.47789,0.33851 -7.10847,-0.10619 -2.42258,1.13497 -4.67924,5.02436 -1.14161,0.98895 -1.28761,0.48452 -1.91816,0.0332 -8.60847,-1.70577 -4.69916,-1.70576 -5.84738,-0.63053 -2.62833,-0.79646 -2.33631,-1.19471 -2.13054,-1.52656 -4.68588,-4.97127 -7.81864,-8.31643 -5.00447,-1.58631 -1.28762,0.40488 -1.75223,0.90266 -1.54645,1.07523 -0.66372,0.91592 -0.64382,0.3916 -7.739,-0.0597 -5.72129,-0.86282 -4.93807,-1.74559 -4.64607,-2.37612 -4.88499,-4.12836 -1.84515,-0.91594 -4.83188,-0.0332 0.68363,-1.26107 -0.47124,-1.30091 -5.64164,-6.76994 -1.57302,-1.0686 -1.47347,-0.0663 -3.78321,0.89603 -1.82523,0.18584 -6.2058,-1.01549 0.31195,0.76328 0.64381,2.10399 h -0.95576 l -2.46904,-1.00886 0.65707,-2.17701 -1.06858,-1.70576 -1.97126,-1.16815 -2.07081,-0.53762 -2.25002,0.29868 -4.15489,2.08409 -1.95134,0.49779 -1.56639,1.01549 -2.36949,4.48676 -1.3208,1.00885 -2.07082,0.26549 -1.7124,0.43142 -1.68586,0.0929 -2.01106,-0.78983 0.41151,0.92258 0.0265,0.35842 0.22566,0.16592 1.0885,0.34514 -0.33849,0.89603 -0.53098,0.76327 -0.75664,0.67036 -1.00222,0.61726 -1.42037,-3.59073 -1.08187,-1.26771 -1.50664,0.59071 -0.677,1.42036 -0.073,1.38719 -0.34514,1.04204 -1.50001,0.41814 -5.68147,-0.19911 -1.84515,-0.8562 -2.58186,-1.89161 -3.41153,1.33408 -3.59738,-0.7301 -12.23902,-6.38499 -3.30535,-1.20134 -3.34515,-0.47124 -13.16824,1.01549 -0.46461,0.2854 -0.89601,1.28098 -0.42479,0.2854 -0.9823,-0.15265 -1.53321,-0.70355 -0.98894,-0.15266 -1.65267,0.42479 -0.677,1.08186 0.13938,1.51992 0.87612,1.71241 -1.46683,1.36063 -1.12168,0.53097 -1.14161,0.27877 -1.52655,0.61726 -0.76329,0.68363 -1.427,1.75222 -0.86947,0.35842 -1.43364,-0.0399 -0.65709,0.13938 -0.57743,0.41815 -2.01772,2.21683 -1.38718,2.15046 0.43806,1.45355 3.44471,0.17921 v 1.02213 l -0.13938,1.34071 2.27658,5.26332 0.48451,2.68807 -2.30312,-1.18142 z"
       id="path831"
       style="fill:#000000;fill-opacity:1;stroke:#000000;stroke-width:0.650448" />
  </g>
</svg>
