<?xml version="1.0" encoding="UTF-8" standalone="no"?>
<svg
   xmlns:dc="http://purl.org/dc/elements/1.1/"
   xmlns:cc="http://creativecommons.org/ns#"
   xmlns:rdf="http://www.w3.org/1999/02/22-rdf-syntax-ns#"
   xmlns:svg="http://www.w3.org/2000/svg"
   xmlns="http://www.w3.org/2000/svg"
   xmlns:sodipodi="http://sodipodi.sourceforge.net/DTD/sodipodi-0.dtd"
   xmlns:inkscape="http://www.inkscape.org/namespaces/inkscape"
   version="1.1"
   width="1360"
   height="1360"
   viewBox="0 0 1360 1360"
   id="svg224"
   sodipodi:docname="Hokkaido.svg"
   inkscape:version="1.0.1 (3bc2e813f5, 2020-09-07)">
  <metadata
     id="metadata230">
    <rdf:RDF>
      <cc:Work
         rdf:about="">
        <dc:format>image/svg+xml</dc:format>
        <dc:type
           rdf:resource="http://purl.org/dc/dcmitype/StillImage" />
        <dc:title></dc:title>
      </cc:Work>
    </rdf:RDF>
  </metadata>
  <defs
     id="defs228" />
  <sodipodi:namedview
     pagecolor="#ffffff"
     bordercolor="#666666"
     borderopacity="1"
     objecttolerance="10"
     gridtolerance="10"
     guidetolerance="10"
     inkscape:pageopacity="0"
     inkscape:pageshadow="2"
     inkscape:window-width="1920"
     inkscape:window-height="974"
     id="namedview226"
     showgrid="false"
     inkscape:zoom="0.333596"
     inkscape:cx="336.99773"
     inkscape:cy="941.74005"
     inkscape:window-x="-11"
     inkscape:window-y="-11"
     inkscape:window-maximized="1"
     inkscape:current-layer="g220" />
  <g
     id="g222"
     style="fill:#000000;fill-opacity:1">
    <g
       stroke="#000000"
       stroke-width="0.98"
       fill="#FFFFFF"
       id="g220"
       style="fill:#000000;fill-opacity:1">
      <path
         d="m 763.42,62.77 -0.45,-0.35 -0.66,-0.26 -0.7,-0.13 -0.56,0.01 -0.12,0.3 2.49,0.95 1.32,0.28 1.07,-0.38 -0.56,-0.16 -1.37,-0.01 z"
         id="path16"
         style="fill:#000000;fill-opacity:1" />
      <path
         d="m 1342.3741,713.40237 -0.6678,-0.371 -0.6678,-0.7419 -0.9645,-0.742 -1.484,-0.2968 -1.3355,0.742 -2.8937,2.9679 -1.855,0.6678 -10.5361,-0.5936 -3.1905,0.5936 -2.8195,1.9291 -1.1871,2.0775 -0.742,2.1518 -1.484,2.0775 -2.8937,1.5582 -5.7874,1.5581 -2.8195,2.2259 -9.2005,10.4619 -8.4586,7.3456 -1.4097,2.1517 1.0387,4.1551 2.6712,2.5227 1.9291,2.3001 -1.113,3.7841 -5.5648,-4.8228 -5.268,-2.5228 -18.9204,-1.8549 -7.2714,-2.0033 -6.5294,-3.2647 -3.9325,-4.7487 3.7099,-1.3355 -1.2614,-2.1518 -3.784,-1.9291 -4.0067,-0.8904 -3.4873,-1.4097 -1.4098,-3.1163 0.5194,-3.5615 2.0775,-2.3744 6.5294,1.5582 13.9492,12.1684 7.123,-1.1872 -10.6845,-8.3843 -7.5681,-10.4619 -4.6745,-11.7974 -5.9358,-25.895 -2.6711,-7.6424 -1.1872,-4.9712 -3.2647,-2.8937 -0.742,-2.4485 -0.5935,-6.752 -1.7808,-6.0842 -2.4485,-5.3423 -2.8195,-4.2292 -14.3944,-15.73 -3.1905,-4.6744 -9.2005,-20.627 -0.5194,-2.4485 -0.2226,-4.0067 0.742,-3.5615 3.2647,-4.526 2.0775,-6.8262 2.5228,-5.9358 1.3355,-6.3068 -2.1517,-5.7133 3.5615,-11.2038 4.897,-11.1297 5.639,-10.0166 20.256,-26.1176 2.0034,-4.8971 2.2259,-15.1363 2.5227,-6.381 13.2072,-17.80746 4.9712,-11.57484 0.2226,-13.50398 -1.2613,-3.3389 -4.0067,-7.19718 -1.7807,-6.08421 -2.0776,-0.22259 -2.0775,1.33556 -0.9646,1.70654 -1.9291,6.23261 -4.4519,5.49063 -8.8295,8.45854 -10.8329,20.55276 -3.7841,3.1905 -4.0066,1.55815 -10.6103,11.20387 -15.8041,10.0167 -2.5227,3.6357 -19.9592,23.7432 -25.9692,28.4919 -9.6457,6.3068 -10.6103,2.226 -37.9892,-3.1163 -31.163,-5.5649 -7.865,-2.5227 -3.5615,-1.7807 -9.4973,-7.3456 -2.0033,-1.113 -2.0776,-2.3001 -3.6357,-10.1651 -1.8549,-2.3743 -3.4873,-1.5582 -2.2259,-3.9324 -2.7453,-9.3489 1.7065,-8.8296 -4.6002,-3.4873 -6.23257,2.3744 -3.1164,8.9779 -0.7419,4.7486 -2.0034,5.2681 -2.5227,4.6744 -2.3001,3.0421 -3.1905,1.7066 -3.2647,-0.2226 -7.2714,-3.4131 4.7487,-15.0621 3.0421,-4.0067 4.0808,-2.3743 2.8196,-0.5936 0.074,-1.0388 -4.1551,-3.4873 -7.5682,-3.7099 -26.7854,-1.4839 -3.5614,1.2613 -3.8583,3.0422 -6.3068,7.3455 -1.7808,-0.8162 -32.7212,-0.5193 -2.9679,-0.9646 -2.8195,-2.0033 -3.2647,-3.3389 -0.8903,0.9645 -2.3002,1.4098 -3.0421,-11.7974 -1.2613,-2.0034 -5.3423,-5.63901 -1.0387,-2.00334 3.3389,-2.37432 18.1784,2.37432 v -2.15173 l -50.0835,-19.66239 -32.7953,-20.25597 -1.9292,-1.70655 -6.1584,-7.27137 -0.1484,-1.63235 -3.7841,-9.27471 -2.5227,-1.70655 -9.6457,-2.52272 -4.0809,-3.56149 -8.4585,-9.42311 -3.5615,-1.92914 -4.526,-1.48395 -19.2173,-15.58152 -16.8428,-18.10424 -13.6524,-9.94249 -9.3489,-15.06213 -7.1972,-4.00668 -43.1831,-49.86085 -10.7586,-18.99461 -7.7908,-5.41643 -3.7099,-6.30681 -16.6944,-36.13428 -71.0072,-88.96303 -8.4586,-8.38434 -19.2914,-14.691147 -8.9037,-9.4973 -8.6811,-16.99128 -3.5615,-2.52272 -3.1905,-1.55815 -2.226,-3.93248 -3.8582,-9.34891 -3.4131,-3.2647 -5.7133,1.48396 -5.7132,4.82285 -3.4131,5.26803 -0.2968,3.2647 v 4.30347 l -0.4451,3.85828 -1.484,1.63235 -2.4485,0.81617 -7.6424,5.71323 -10.9812,3.0421 -10.3877,1.26136 -5.1939,2.15174 -2.6711,-0.0742 -1.2613,-3.1163 -0.074,-4.22927 -0.5936,-3.4131 -1.4098,-2.59692 -2.5969,-1.92914 -3.9325,4.22927 -1.9291,5.11964 -0.5194,5.26804 0.4452,4.89705 2.4485,10.09088 -0.2226,5.193837 -4.7486,8.45854 -0.6678,2.81951 -0.5194,2.96791 -1.0388,3.41309 -1.7807,2.96791 -4.5261,5.63903 -1.2613,2.22593 -2.0034,14.02336 2.597,13.42979 30.1984,66.11014 7.0488,21.96252 6.6778,37.76663 2.8195,38.8054 -0.9646,14.02336 -9.9425,54.09012 -18.1784,34.79872 -2.3001,11.12966 3.2647,65.44233 -0.6678,12.8362 -1.7807,12.8362 -4.0809,14.246 -5.5648,10.8329 -6.9004,8.5327 -12.6878,10.5361 -4.0067,2.6711 -4.3777,1.6323 -9.4973,1.484 -5.1196,2.4485 -5.1197,3.4131 -3.7841,3.7841 -6.01,10.9813 -3.2647,7.4939 -1.3355,5.7874 1.4097,6.9746 5.1939,13.5782 -0.6678,5.7874 1.9291,2.8195 4.1551,12.0943 -3.7841,5.7132 -2.6711,5.268 -0.5936,6.0842 2.4485,8.1618 12.5395,19.2172 2.8195,8.2359 0.1484,14.0976 -3.7841,13.504 -5.7874,11.649 -5.9359,8.9037 -14.9137,16.3977 -17.0655,13.0588 -5.9358,3.3389 -3.0421,0.6678 -4.0067,0.1484 -2.8195,-0.6678 -4.6744,-2.8195 -5.4907,-1.1872 -9.2005,-3.8582 -8.3101,-1.0388 -2.3743,-0.8904 -3.9325,-5.4906 1.7807,-5.3423 2.226,-4.0808 -2.4486,-1.5582 -5.1196,0.5936 -16.9171,6.9746 -22.8529,3.5615 -3.1163,-0.8904 -2.1517,-1.5581 -3.4131,-4.6003 -2.1517,-2.3743 -16.1009,-7.6424 -4.6003,-3.7099 -6.6778,-8.7553 -4.0067,-3.7841 -19.143,-14.2459 -3.784,-1.6324 -1.7066,-1.1872 -2.3743,-2.5227 -2.8195,-2.2259 -3.1163,-0.371 -1.7808,1.7065 -0.8904,2.8938 -0.6677,3.2647 -1.1872,2.8195 -4.2293,3.1905 -5.4164,1.1129 -11.0554,-0.1484 -6.8262,22.8529 1.9292,12.3168 6.6778,8.3844 8.4584,6.9746 7.4198,8.0133 10.7587,15.7299 1.5581,4.3035 1.7066,6.9746 3.2647,4.8228 2.3001,4.3777 -1.3356,5.8616 -4.0066,4.9713 -9.349,6.4552 -15.2104,15.3589 -3.5615,4.4518 -5.5648,12.4653 -3.2647,5.7132 -4.0809,2.3743 -1.6323,3.1163 -0.4452,6.9746 -1.484,7.123 -4.8228,3.7841 -4.6745,-1.113 -3.3389,-3.6357 -5.1196,-8.6069 -4.9713,-4.0067 -3.784104,1.2614 -3.0421,4.3776 -5.7132,11.7975 -1.8549,3.0421 -1.855,1.2613 -2.7453,0.2226 -2.3001,0.9646 -2.1517,1.5581 -9.2748,12.0201 -3.5614,2.5227 -5.3423,1.3355 -21.5915,1.3356 -8.9779,4.1551 -7.494,11.0554 -2.37433,11.5749 3.70993,22.6303 0.074,13.5781 -2.89376,13.72663 -2.30012,6.6036 -9.3489098,15.4331 -2.67112,6.1584 -1.11297,5.8617 2.22593,12.02 2.22593,7.3456 2.4485298,3.2647 10.01669,8.2359 6.9004,2.6711 2.0775,1.484 4.3777,8.8295 1.1129,1.4098 0.2968,1.2613 4.0067,5.3423 22.3335,10.0166 7.494,7.7166 11.278,20.7012 7.4198,8.5327 -1.4839,4.5261 0.2967,5.639 1.2614,5.7132 1.4098,4.7487 -0.8162,1.9291 -0.1484,4.8228 -0.5194,3.5615 -2.2259,1.2614 -1.6324,1.3356 -0.8161,1.4839 0.074,1.7066 1.4097,2.5969 0.1484,1.7807 -0.371,6.6778 -0.6678,2.7453 -2.0033,2.8937 -1.8549,0.2968 -4.8971,-0.5194 -0.9646,1.3356 -2.6711,12.0942 -11.5006,18.9204 -3.6357,18.6237 -4.2293,9.3489 -0.9645,6.4552 0.8161,6.3068 6.752,17.1396 3.1905,12.3911 2.2259,5.639 3.1164,2.3001 2.4485,1.0388 5.639,4.3034 2.6711,0.9646 2.0776,-0.371 3.784,-1.7065 2.4486,-0.1484 10.6102,5.1196 5.342304,0.8162 2.3001,-4.8228 1.4098,-6.1585 3.4872,-5.7132 4.0809,-4.6002 3.3389,-2.8937 28.1209,-9.1264 7.0487,-5.3422 2.4486,-9.7941 -2.226,-24.1884 4.3777,-10.8329 3.8583,-1.8549 11.8716,-3.4131 2.5227,-1.9292 2.226,-2.2259 13.2814,-7.0488 2.5969,-5.5648 3.4873,-12.6878 2.3001,-5.3423 4.1551,-3.6357 5.4164,-0.8161 5.4164,1.6323 4.0809,3.9325 1.4098,5.268 -2.4486,3.1163 -3.5615,2.7454 -1.7807,4.3034 2.0775,4.2293 4.8971,-1.3356 10.0909,-6.0842 10.907,-0.074 11.2039,3.7099 19.143,10.8329 10.3135,2.9679 8.2359,-3.4873 13.5782,-13.9492 3.9325,-2.6711 4.897,-1.9291 10.3135,-1.5582 2.3001,-2.5227 -3.8583,-5.639 -16.917,-16.0267 -5.2681,-3.2647 -5.3422,-1.3356 -5.7132,-0.4452 -4.9713,-1.5581 -4.3034,-2.5228 -4.0067,-3.4872 -14.6912,-19.514 -3.7098,-3.7841 -8.5328,-5.9358 -3.7099,-3.7099 -10.6102,-15.2847 -3.5615,-8.3102 -13.3556,-9.4231 -4.5261,2.2259 -4.3034,1.1872 -14.246,1.3356 -8.5327,2.9679 -5.1197,0.6677 -4.155,-1.8549 -16.4719,-18.4752 -7.2714,-5.7874 -22.8528,-12.5395 -6.6036,-7.7165 -2.3001,-13.6524 1.5581,-13.6524 3.4131,-12.9104 4.8229,-12.0942 12.3168,-21.81413 8.0875,-10.0167 9.0521,-7.9392 9.6457,-4.526 5.5648,-0.4452 16.0267,2.7453 14.6169,-2.4485 5.1939,0.1484 10.5361,4.6002 37.4698,43.33153 2.3743,12.1684 1.3356,2.4485 1.8549,2.226 4.6003,3.5615 6.1584,2.0033 2.7453,2.0775 -0.5936,3.2647 -2.0033,0.742 -8.7553,-1.8549 -0.9646,1.1871 1.1872,2.7453 1.9291,2.8196 1.4839,1.6323 2.7454,1.3356 2.8195,0.2226 2.7453,-0.5194 2.5227,-1.0388 3.5615,-3.4131 12.5394,-18.401 4.1551,-4.4519 17.2138,-12.5394 2.4486,-1.1872 2.5227,-0.8903 2.7453,-0.2968 2.5969,-0.9646 4.3777,-4.30353 6.1584,-2.8937 36.8763,-29.0855 27.2305,-11.1296 19.3656,-4.4519 20.0334,-0.4452 20.256,5.3423 15.8783,9.0521 4.7486,1.2614 3.7099,2.0775 12.2426,14.6911 18.1785,11.9459 23.5206,3.2647 12.0943,14.54273 13.1329,13.6524 39.9184,28.7887 19.2914,6.2326 47.1897,27.7499 45.038,15.9525 34.7246,23.2239 5.639,5.2681 5.0454,6.0842 2.3002,5.4906 2.0033,3.1163 4.6003,4.7487 5.1196,4.0808 3.4873,1.2614 2.5227,-4.1551 2.8195,-13.504 5.9358,-5.4906 2.5228,-6.2326 6.1584,-24.3368 1.1129,-6.9004 0.371,-6.1584 -0.2968,-6.8262 -2.5969,-17.0655 1.5582,-14.3944 3.8582,-12.6136 22.111,-41.03133 28.3435,-44.8896 14.1717,-17.5107 33.8342,-29.2338 21.4431,-26.4144 34.7246,-25.0788 31.4598,-15.2106 31.23717,-8.0133 4.8971,-0.2968 2.8937,1.2613 1.5581,3.0422 0.742,3.4872 1.0388,2.597 2.0775,2.4485 1.8549,1.5581 16.5461,5.9359 6.9004,1.1129 5.7874,-3.2647 17.2881,-1.5581 31.8308,7.5681 9.2747,-3.1905 -2.6711,-3.0421 -3.5615,-2.9679 -3.1163,-3.2647 -1.3356,-4.3776 0.8162,-3.5615 1.855,-4.5261 2.2259,-3.8583 2.0033,-1.6323 1.484,-0.8162 2.3743,-4.0067 1.5582,-1.4839 1.7807,-0.5936 1.113,0.074 1.4097,0.2968 2.597,0.2226 4.155,1.4097 0.6678,3.2647 -0.5936,3.7841 0.2968,3.0421 6.01,5.639 6.9004,2.7454 7.5682,0.3709 14.8395,-2.3743 3.1163,-1.0387 2.1518,-2.0776 0.8161,-3.9325 -1.1871,-3.4131 -4.2293,-7.4197 10.7587,3.5615 5.4164,-0.2968 5.268,-3.2647 1.5582,-2.5227 0.371,-1.9292 0.6677,-1.3355 8.5328,-0.8162 2.2259,-1.2614 2.0034,-2.7453 -3.5615,-1.5581 -3.7099,0.074 -2.8937,-1.1871 -0.742,-5.4906 1.4097,-4.2293 2.8938,-2.4485 3.4873,-1.2614 17.1396,-2.7453 6.0842,-2.5227 4.8971,-4.7487 4.9712,-2.5969 22.6303,-0.5194 7.0488,-2.1517 3.7841,-0.5194 5.7874,3.5615 4.5261,1.3355 4.526,0.4452 2.5969,-0.7419 -3.0421,-1.9292 6.381,-8.2359 1.4098,-2.3744 1.1872,-3.5615 2.0033,-7.5681 1.3356,-3.3389 1.7065,-2.4485 5.9358,-5.8617 2.0034,-3.1905 1.3355,-2.7453 1.7066,-1.9291 3.3389,-0.742 6.4552,1.3356 2.4485,-0.742 3.3389,-3.6357 2.1517,-1.2614 8.5327,-2.0033 2.968,-1.2614 3.9324,-5.9358 2.226,-1.3355 5.0454,-0.074 1.8549,-1.113 1.4098,-2.8195 -2.5969,-1.484 -7.4198,-2.3001 z"
         id="path18"
         style="fill:#000000;fill-opacity:1;stroke-width:7.27137" />
      <path
         d="m 805.97,86.34 -0.74,-0.32 -2.54,-0.54 3.9,2.01 -0.4,0.32 -0.93,0.43 -0.33,0.39 -0.11,0.65 0.31,0.19 0.42,-0.2 0.2,-0.5 0.24,-0.31 1.14,-0.31 0.38,-0.22 -0.07,-0.41 -0.48,-0.46 z"
         id="path102"
         style="fill:#000000;fill-opacity:1" />
      <path
         d="m 780.01,71.81 0.02,0.01 0.19,-0.01 z"
         id="path104"
         style="fill:#000000;fill-opacity:1" />
      <path
         d="m 1066.43,792.44 -0.03,0.16 0.18,0.08 0.17,-0.02 0.05,-0.26 -0.13,-0.15 z"
         id="path122"
         style="fill:#000000;fill-opacity:1" />
      <path
         d="m 1066.22,791.82 -0.37,-0.24 -0.4,0.14 0.39,0.63 z"
         id="path164"
         style="fill:#000000;fill-opacity:1" />
    </g>
  </g>
</svg>
