<?xml version="1.0" encoding="UTF-8" standalone="no"?>
<svg
   xmlns:dc="http://purl.org/dc/elements/1.1/"
   xmlns:cc="http://creativecommons.org/ns#"
   xmlns:rdf="http://www.w3.org/1999/02/22-rdf-syntax-ns#"
   xmlns:svg="http://www.w3.org/2000/svg"
   xmlns="http://www.w3.org/2000/svg"
   xmlns:sodipodi="http://sodipodi.sourceforge.net/DTD/sodipodi-0.dtd"
   xmlns:inkscape="http://www.inkscape.org/namespaces/inkscape"
   version="1.0"
   width="1024.000000pt"
   height="1024.000000pt"
   viewBox="0 0 1024.000000 1024.000000"
   preserveAspectRatio="xMidYMid meet"
   id="svg74"
   sodipodi:docname="Hokkaido.svg"
   inkscape:version="1.0.1 (3bc2e813f5, 2020-09-07)">
  <defs
     id="defs78" />
  <sodipodi:namedview
     pagecolor="#ffffff"
     bordercolor="#666666"
     borderopacity="1"
     objecttolerance="10"
     gridtolerance="10"
     guidetolerance="10"
     inkscape:pageopacity="0"
     inkscape:pageshadow="2"
     inkscape:window-width="1920"
     inkscape:window-height="974"
     id="namedview76"
     showgrid="false"
     inkscape:zoom="0.37448267"
     inkscape:cx="126.55538"
     inkscape:cy="422.07579"
     inkscape:window-x="-11"
     inkscape:window-y="-11"
     inkscape:window-maximized="1"
     inkscape:current-layer="g72"
     inkscape:document-rotation="0" />
  <metadata
     id="metadata2">
Created by potrace 1.10, written by Peter Selinger 2001-2011
<rdf:RDF>
  <cc:Work
     rdf:about="">
    <dc:format>image/svg+xml</dc:format>
    <dc:type
       rdf:resource="http://purl.org/dc/dcmitype/StillImage" />
    <dc:title></dc:title>
  </cc:Work>
</rdf:RDF>
</metadata>
  <g
     transform="translate(0.000000,1024.000000) scale(0.100000,-0.100000)"
     fill="#000000"
     stroke="none"
     id="g72">
    <path
       d="m 3132.0872,9925.2979 c -63.3898,-133.8228 -204.256,-193.691 -288.7757,-123.2579 -73.9547,59.8682 -112.6929,17.6083 -95.0846,-98.6063 7.0433,-56.3465 -10.565,-176.0827 -42.2599,-267.6458 l -56.3465,-165.5177 133.8229,-271.1674 c 73.9548,-147.9095 190.1694,-394.4253 253.5591,-545.8565 112.693,-260.6024 116.2146,-278.2107 73.9548,-443.7285 -31.6949,-126.7795 -35.2166,-193.691 -7.0433,-246.5158 56.3464,-102.128 49.3031,-186.6477 -31.6949,-359.2088 -56.3465,-130.3012 -70.4331,-232.4292 -70.4331,-640.9411 0,-485.9884 0,-485.9884 -95.0847,-570.5081 -56.3465,-45.7815 -140.8662,-102.128 -193.691,-123.2579 -49.3032,-24.6516 -112.6929,-88.0413 -137.3445,-144.3878 -59.8681,-151.4312 -17.6083,-605.7246 73.9547,-753.6341 140.8662,-228.9076 73.9548,-496.5534 -179.6044,-679.6794 -137.3445,-102.128 -154.9528,-105.6496 -242.9941,-59.8681 -49.3032,24.6516 -112.693,70.4331 -133.8229,98.6063 -49.3032,56.3465 -232.4292,38.7382 -288.7757,-28.1732 -49.3031,-56.3465 -260.6024,38.7382 -309.9056,144.3878 -42.2598,88.0414 -352.1655,169.0394 -419.0769,112.693 -24.6516,-21.13 -45.7815,-24.6516 -45.7815,-10.565 0,45.7815 -112.69296,-66.9114 -140.86616,-140.8662 -28.1732,-73.9547 45.7815,-264.1241 102.128,-264.1241 17.60826,0 88.04136,-80.998 158.47446,-176.0827 l 126.7795,-179.6044 -91.563,-84.5197 c -49.3032,-45.7815 -137.3445,-126.7796 -193.69096,-183.1261 -59.8681,-52.8248 -116.2146,-140.8661 -126.7796,-193.691 -17.6082,-84.5197 -35.2165,-98.6063 -137.3445,-98.6063 -91.563,0 -133.8229,-21.1299 -179.6044,-95.0847 -80.998,-126.7795 -116.2146,-151.4311 -221.8642,-151.4311 -126.7796,0 -271.167401,-218.3426 -221.8643,-327.5139 42.2599,-91.563 7.0433,-383.8603 -56.346401,-461.3367 -63.3898,-73.9548 -10.565,-225.3859 105.649601,-292.2974 56.3465,-35.2165 109.1713,-88.0413 119.7362,-119.7362 21.13,-63.3898 204.256,-214.8209 306.384,-253.5592 31.6949,-10.5649 77.4764,-88.0413 98.6063,-169.0394 35.2166,-130.3012 28.1733,-179.6044 -66.9114,-468.38 -59.8681,-179.60444 -109.1713,-383.86044 -109.1713,-454.29354 0,-179.6044 98.6063,-412.0336 176.0827,-412.0336 35.2166,0 105.6497,-10.5649 161.9961,-21.1299 88.0414,-17.6083 105.6497,-7.0433 144.3879,88.0414 24.65156,70.4331 63.38976,109.1713 105.64956,109.1713 137.3446,0 204.256,91.563 204.256,271.1674 0,147.9095 10.565,172.561 98.6063,214.8209 52.8248,24.6516 130.3012,91.563 169.0394,147.90954 63.3898,84.5197 88.0414,95.0847 161.9962,66.9114 45.7815,-17.6082 169.0394,-31.6949 267.6457,-31.6949 102.128,0 211.2993,-24.6515 246.5158,-52.8248 59.8682,-42.25984 80.9981,-35.21654 204.256,45.7815 73.9548,52.8248 133.8229,112.693 137.3445,133.8229 0,56.3465 -228.9075,225.3859 -306.3839,225.3859 -77.4764,0 -327.5139,228.9075 -327.5139,299.3406 0,28.1733 -21.1299,63.3898 -45.7815,77.4764 -24.6516,14.0867 -73.9548,73.9548 -109.1713,126.7796 -56.3465,95.0847 -66.9114,95.0847 -123.2579,45.7815 -130.3012,-116.2146 -309.9056,-52.8248 -591.638,204.256 -309.90556,281.7324 14.0866,792.3723 461.3368,725.4608 161.9961,-24.6515 404.9902,-190.1693 577.5513,-394.4253 102.128,-119.7362 137.3446,-123.2579 165.5178,-17.6082 38.7382,119.7362 161.9961,235.9508 250.0375,235.9508 45.7815,0 102.128,28.1732 126.7795,63.3898 24.6516,31.6949 158.4745,137.3445 292.2974,228.9075 221.8642,147.9095 267.6457,165.5178 443.7285,165.5178 137.3445,0 221.8642,-21.1299 281.7323,-63.3898 45.7815,-38.7382 161.9961,-95.0846 257.0808,-133.8228 98.6063,-35.2166 292.2973,-140.8662 436.6852,-232.4293 387.382,-257.0807 866.327,-485.9883 1007.1932,-485.9883 183.1261,0 443.7285,-126.7796 630.3762,-309.9056 l 165.5178,-161.9961 v 119.7362 c 0,66.9115 24.6515,204.256 56.3464,299.3407 31.6949,109.1713 45.7815,232.4292 31.6949,323.9922 -35.2165,242.9942 66.9111,514.1616 355.6871,950.8467 144.388,214.821 306.384,419.0769 359.209,454.2935 52.825,35.2165 190.169,151.4311 306.384,260.6024 172.561,165.5178 239.472,207.7776 373.295,225.3859 88.042,14.0866 200.734,7.0433 250.038,-10.5649 49.303,-17.6083 211.299,-24.6516 359.208,-14.0867 l 267.646,21.13 v 119.7362 c 0,95.0847 17.608,123.2579 91.563,151.4312 126.78,49.3031 161.996,42.2598 140.866,-24.6516 -10.565,-35.2166 -3.521,-84.5197 10.565,-112.693 49.304,-73.9547 267.646,84.5198 338.079,242.9942 45.782,98.6063 91.563,137.3445 239.473,190.1694 102.128,35.2165 235.951,73.9547 299.34,80.998 95.085,14.0866 130.302,45.7815 200.735,190.1694 63.389,123.2579 130.301,190.1694 228.9074,242.9942 144.388,73.9547 176.083,123.2579 98.607,147.9095 -95.085,31.6949 -214.8214,-21.13 -380.3394,-172.5611 -137.345,-123.2579 -190.17,-151.4312 -253.559,-133.8229 -119.737,38.7382 -204.256,123.2579 -204.256,207.7776 0,42.2599 -24.652,105.6497 -52.825,140.8662 -28.173,38.7382 -63.39,144.3879 -73.955,235.9509 -17.608,140.8662 -38.738,172.5611 -123.258,207.7776 -161.996,70.4331 -214.821,183.126 -186.647,415.5553 10.565,109.1712 59.868,292.2973 105.649,401.4686 45.782,112.6929 84.52,225.3859 84.52,250.0375 0,28.1732 31.695,91.563 70.433,140.8661 73.955,91.5631 91.563,288.7757 35.217,376.8171 -24.652,42.2599 -42.26,42.2599 -98.607,-14.0866 -38.738,-31.6949 -91.563,-112.693 -116.214,-172.5611 -24.652,-63.3898 -137.345,-211.2993 -250.038,-331.0355 -112.693,-119.7363 -204.256,-232.4292 -204.256,-253.5592 0,-17.6082 -66.911,-80.998 -147.909,-137.3445 -147.91,-102.128 -158.475,-102.128 -450.772,-77.4764 -362.731,31.6949 -408.512,49.3032 -478.945,179.6044 -63.39,123.2579 -102.128,130.3012 -137.345,24.6516 -28.173,-77.4764 -28.173,-77.4764 -42.26,14.0866 -17.608,102.128 -31.694,112.6929 -341.6,165.5178 -281.732,52.8248 -288.776,49.3031 -193.691,-31.6949 l 84.52,-66.9115 -126.78,-3.5216 c -119.736,0 -242.994,80.998 -242.994,161.9961 0,17.6083 -95.085,66.9114 -214.821,112.6929 -380.3387,147.9095 -964.9334,556.4215 -1376.967,964.9334 -211.2992,204.256 -380.3387,394.4253 -380.3387,422.5986 0,88.0413 -313.4272,510.6399 -433.1635,588.1163 -63.3898,38.7382 -197.2126,154.9528 -295.819,257.0808 -98.6063,102.128 -264.1241,260.6024 -369.7737,352.1654 l -193.691,165.5176 z"
       id="path4"
       style="stroke-width:3.52165" />
  </g>
</svg>
