<?xml version="1.0" encoding="UTF-8" standalone="no"?>
<svg
   xmlns:dc="http://purl.org/dc/elements/1.1/"
   xmlns:cc="http://creativecommons.org/ns#"
   xmlns:rdf="http://www.w3.org/1999/02/22-rdf-syntax-ns#"
   xmlns:svg="http://www.w3.org/2000/svg"
   xmlns="http://www.w3.org/2000/svg"
   xmlns:sodipodi="http://sodipodi.sourceforge.net/DTD/sodipodi-0.dtd"
   xmlns:inkscape="http://www.inkscape.org/namespaces/inkscape"
   version="1.1"
   width="1360"
   height="1360"
   viewBox="0 0 1360 1360"
   id="svg224"
   sodipodi:docname="Honshu.svg"
   inkscape:version="1.0.1 (3bc2e813f5, 2020-09-07)">
  <metadata
     id="metadata230">
    <rdf:RDF>
      <cc:Work
         rdf:about="">
        <dc:format>image/svg+xml</dc:format>
        <dc:type
           rdf:resource="http://purl.org/dc/dcmitype/StillImage" />
        <dc:title></dc:title>
      </cc:Work>
    </rdf:RDF>
  </metadata>
  <defs
     id="defs228" />
  <sodipodi:namedview
     pagecolor="#ffffff"
     bordercolor="#666666"
     borderopacity="1"
     objecttolerance="10"
     gridtolerance="10"
     guidetolerance="10"
     inkscape:pageopacity="0"
     inkscape:pageshadow="2"
     inkscape:window-width="1920"
     inkscape:window-height="974"
     id="namedview226"
     showgrid="false"
     inkscape:zoom="0.333596"
     inkscape:cx="905.75989"
     inkscape:cy="308.05015"
     inkscape:window-x="-11"
     inkscape:window-y="-11"
     inkscape:window-maximized="1"
     inkscape:current-layer="g220" />
  <g
     id="g222"
     style="fill:#000000;fill-opacity:1">
    <g
       stroke="#000000"
       stroke-width="0.98"
       fill="#FFFFFF"
       id="g220"
       style="fill:#000000;fill-opacity:1">
      <path
         d="m 311.79276,1151.9133 -0.92532,-0.9253 0.52301,-2.4541 1.36786,-0.7242 3.17826,0.08 1.44832,-0.6838 2.61503,-1.8507 1.32764,-0.3621 2.57479,1.3276 -1.60924,3.0576 -4.74728,5.5921 7.52322,-3.0575 0.72417,-0.5229 0.64369,-0.6841 0.84487,-0.5632 2.21272,-0.4425 0.96555,-0.4828 0.80462,-0.8045 0.36207,-1.0461 1.20695,-0.9656 5.35074,-2.8162 3.50012,-1.3276 1.89087,-1.3679 1.8104,-0.8851 2.01156,0.8851 0.80463,-1.1265 0.28162,1.6495 0.56323,1.3679 0.80463,0.6839 0.84486,-0.4827 3.01734,2.615 1.40808,3.6208 1.68972,2.9771 3.8622,0.8046 -0.56324,-3.6208 4.5059,-0.1207 9.33365,1.73 2.13224,-3.3392 1.52879,-4.7473 2.01156,-3.299 3.50012,1.2874 -0.40232,-1.2472 -0.12069,-0.2816 -0.32185,-0.5229 1.52879,-1.4081 1.93109,-1.3276 1.44833,-1.6496 0.0805,-2.615 -1.2874,-1.73 -1.97133,-0.5229 -2.25295,0.362 -2.01156,0.8047 -3.2185,3.6208 -1.81041,1.3678 -1.56901,-0.885 -0.52301,-2.4542 1.40809,-1.3678 2.05179,-0.8851 3.09781,-1.8908 1.8104,-0.4023 4.18404,-0.04 2.21272,0.6436 2.65527,2.7759 1.77017,0.6035 3.54034,-0.6035 4.22428,-1.6494 3.54035,-2.5749 1.48856,-3.2988 -1.20694,0.6838 -1.12647,0.2012 -1.00578,-0.2012 -0.80462,-0.6838 1.85063,-1.3277 0.92531,-0.4426 2.17249,-0.4425 1.9311,-1.3679 0.96555,-0.3218 0.52301,-0.6035 2.4541,-3.5 0.84486,-0.3622 2.33341,-0.3621 0.92531,-0.2816 -6.27607,-1.4483 -1.20693,-0.5633 -0.96555,-2.3735 1.44832,-0.081 3.25873,1.5288 3.45988,0.4424 6.07492,1.5691 3.29897,-0.1207 -0.20117,-1.6093 0.68393,-1.6494 1.28741,-1.2472 1.56897,-0.5633 1.00578,0.3622 1.00579,0.8448 1.28739,0.7644 1.68971,0.1207 1.04601,-0.7242 3.09781,-4.3047 0.68393,-0.3621 0.523,0.1609 0.36209,-0.1207 0.16092,-1.2069 0.24139,-1.0057 0.60347,-0.7243 0.76439,-0.5229 0.80462,-0.2415 -0.0805,2.1323 0.6437,1.1668 1.20694,0.5229 1.60924,0.2012 0.68393,-0.161 0.80463,-0.3621 0.7644,-0.4826 0.60347,-0.5231 0.76439,-0.4827 0.64369,0.2413 0.68393,0.4828 0.84487,0.2817 15.64993,-1.4081 5.7933,1.4081 2.17249,1.4081 4.62658,3.8218 3.98289,1.4081 6.63817,4.4256 2.3334,2.0114 3.58058,1.5288 2.81618,3.46 2.29318,0.4022 4.54613,-0.1609 3.50012,2.5347 4.06334,-0.4427 3.8622,-1.8506 8.77041,-1.569 0.24139,-3.5002 2.25295,-0.362 0.76439,3.2588 3.82197,0.6436 -2.69549,-5.8737 4.18404,-1.4885 -0.12069,3.5 4.06335,-0.4023 -0.0402,-3.7818 3.70128,-0.2011 2.85641,-0.2413 2.65527,2.8563 2.17248,1.1668 1.97134,-0.7242 1.89086,-0.885 -1.12647,4.9081 0.44254,3.6209 1.00578,3.6207 -0.0402,4.3451 -0.12069,3.2184 -0.72417,2.4944 -1.12647,1.2069 -0.96555,1.3679 -2.17249,0.6838 0.1207,1.6495 -0.20115,3.3794 -2.29318,2.5347 -4.10359,5.6725 -4.6266,4.5864 -3.01733,3.0173 -5.75307,5.0692 -12.55213,3.5404 -4.10359,4.7472 -1.20694,2.6955 3.82196,1.0862 3.25874,2.5748 1.89087,2.1323 1.60924,6.1554 2.09204,-0.1609 1.64948,3.0575 1.24715,2.3737 -0.36208,1.9713 -4.62659,-0.2816 -3.13804,0.1207 0.96555,2.1724 v 1.3277 l -0.24137,0.6839 -0.40232,0.3621 -0.96554,0.4023 -0.28162,0.2011 -2.49435,5.029 2.01156,0.2413 2.69549,1.0863 2.37365,1.4483 1.16671,1.2874 -0.1207,2.1323 -1.00578,2.2529 -3.05758,1.6093 -1.77017,0.7644 -2.5748,0.2011 -1.97133,2.1323 0.20117,2.6955 2.13224,0.04 0.72416,0.6035 -1.97133,1.7701 -1.85062,1.6897 1.046,1.7702 0.12069,1.8507 h -1.81039 l -0.84486,0.6839 1.12648,0.6839 -0.64371,0.9656 -0.28162,1.4483 0.80463,-0.8046 4.18404,-0.6437 2.25295,-0.4426 4.10359,2.4944 2.49433,5.4714 2.81619,3.4197 4.02312,2.3736 0.32185,2.4139 3.86219,0.08 3.58058,2.5748 2.17249,-0.2816 1.12647,1.8507 2.37365,1.0862 6.15538,4.6266 1.28739,1.8104 -2.81618,0.4425 -4.38521,0.6035 -1.85064,3.2989 1.72996,2.0519 2.01155,0.4425 1.32763,1.3276 0.68393,0.2816 0.68393,0.8449 1.40809,2.6553 -0.68393,1.6092 0.0805,2.0116 1.20694,1.6495 1.40809,1.2069 4.34497,3.4197 5.55191,1.3678 17.74196,6.7991 3.70128,0.6035 11.78775,1.2873 0.6437,1.9312 -2.0518,2.4138 0.72417,2.6151 1.44832,-1.6496 2.09202,0.5633 0.1207,-1.8105 -0.8851,-2.8162 1.85065,-3.2184 1.32762,-1.4483 2.29318,-1.2472 6.87951,-2.2128 1.1265,-1.8505 2.2127,-0.8852 4.0634,-4.3851 1.6495,-2.2127 -2.5346,-1.5691 -0.2011,-1.9713 2.4541,-1.1667 0.523,-2.4542 2.2931,-1.5287 1.207,-4.3047 0.3621,-0.523 2.8161,-6.9198 6.3163,-16.4948 4.3048,-6.437 2.5345,0.2414 1.3678,-0.1207 0.6841,-0.4425 1.2069,-1.8507 0.9655,-1.046 0.523,-0.4023 4.1036,-0.6839 0.8851,-0.8851 0.6035,-2.615 2.092,0.9253 0.7644,-1.4484 -0.8852,-1.9311 -2.7357,-0.523 v -0.885 l 1.73,-1.4484 1.5691,-1.7299 0.8045,1.5288 1.0461,1.6093 1.3679,0.8448 1.77,-0.8046 0.2415,-1.2472 -0.08,-3.9427 0.2413,-0.8046 0.3621,-0.7242 -1.0862,-1.569 -2.1725,-2.2529 -0.2817,-1.8909 -0.8046,-1.1265 -1.2873,-0.523 -1.7702,0.04 v -1.1265 l 1.4081,-1.0058 1.9713,-3.138 0.7644,-0.7242 0.9654,0.4828 1.4886,2.8162 1.2472,0.6839 0.9656,-0.2012 1.0863,-0.4425 1.0057,-0.6437 0.6035,-0.7242 0.6436,-2.0115 -0.3218,-0.8047 -0.9655,-0.523 -1.3679,-1.1264 0.2414,-4.1841 4.5462,-4.345 5.7932,-2.9771 h 3.8623 l 1.3276,-1.3678 5.3507,-3.7013 3.7818,1.4483 1.4483,-0.1207 -1.0862,-2.4138 0.7644,-0.8448 0.6839,-1.3277 0.6436,-1.73 1.1667,0.2013 3.3795,1.7701 0.1207,-1.2874 0.2816,-0.4827 0.5229,-0.4024 0.6841,-0.885 2.2529,2.615 1.8909,-0.2817 1.7701,-1.4886 3.8623,-1.6494 1.4884,-1.7702 0.1207,-1.6896 -2.2126,-0.6841 3.2185,-1.7701 3.661,-1.1667 2.0115,0.4425 -1.8103,2.9771 -0.684,2.2932 2.8161,0.6438 3.7014,-0.7645 2.0518,-1.7299 4.1036,3.0173 0.1207,-1.0862 0.1609,-0.4828 v -0.4426 l -0.2816,-1.0057 2.4138,-0.6437 2.2932,0.6839 1.207,1.9713 -0.9657,3.0978 -1.5689,-1.0861 0.3218,0.7643 0.2011,1.3276 0.2415,0.9656 -1.4484,-1.0058 -2.4943,-1.0863 -2.5748,-0.523 -1.7299,0.6437 0.2012,1.6496 2.293,1.2472 2.937,0.8045 2.0518,0.2012 1.8908,-0.4426 4.2243,-1.6092 1.1667,-0.9656 0.5633,-2.2932 -0.2816,-2.6955 -0.8046,-2.454 -0.9657,-1.5288 0.6438,-1.1667 0.6838,-0.9656 1.891,-1.8103 -1.5289,0.1608 -1.2068,-0.4425 -0.8851,-0.8449 -0.5632,-0.9655 0.9654,-1.3679 1.2069,-0.523 1.3679,0.1609 1.4886,0.7242 1.0863,-5.3508 -0.1609,-1.6495 -1.0059,-1.4483 -1.1265,-0.1207 -1.2874,0.2012 -1.569,-0.6035 -1.1667,-1.4081 -0.3621,-1.4483 -0.201,-1.5287 -0.8048,-1.73 -1.2069,-0.9253 -1.6092,-0.5633 -1.6898,-0.04 -1.2874,0.5231 -1.3276,-1.3679 -6.1955,-2.6552 -9.0923,-5.9946 -1.7299,-1.7299 -1.6897,-2.0115 -1.9312,-1.6898 -2.4943,-0.6839 -5.3508,-0.081 -2.0517,-0.8046 -1.3276,-2.0517 0.1207,-1.5288 0.5631,-2.0117 0.081,-1.7299 -1.207,-0.7242 -0.5231,-0.523 -1.2471,-2.3334 -0.2816,-0.7241 0.2816,-3.0575 0.684,-2.8565 0.9253,-6.5576 3.6207,-5.0693 6.1957,-7.8853 2.776,-5.2301 1.0861,-3.3391 -0.3218,-2.6553 1.9714,-1.6092 -2.0519,-0.2413 -0.2815,-0.845 0.1207,-0.7643 0.6437,-1.4081 0.1207,-0.9253 1.1264,-2.2128 2.6552,-2.4944 5.391,-3.9023 2.3335,0.5633 0.8449,-0.4024 3.2185,0.8448 2.3334,-0.5229 0.2011,-3.6209 1.1667,-0.04 0.4827,3.1784 3.1783,-0.7644 -1.1264,-6.8393 1.569,0.5229 0.1207,2.1324 0.6034,3.1379 0.9656,-3.2989 1.8103,-4.6669 1.6495,0.6036 -0.3218,2.6955 -0.362,4.0231 -1.6897,2.6955 -1.0863,2.615 -1.6092,2.7358 -1.2472,2.5345 -1.2069,2.5747 -0.1207,2.4139 -0.081,2.776 0.161,3.5404 0.5631,3.5 1.891,0.1207 1.569,2.1324 0.9655,2.977 0.04,2.1726 -0.9254,2.4943 -0.4827,2.5345 -1.207,2.7357 0.2012,2.4139 1.3678,1.8908 2.6955,1.6496 4.2243,2.615 3.9025,1.8103 3.1379,0.2817 0.04,-2.4944 -1.0862,-3.1782 -3.0977,-1.6092 -1.2875,-2.5749 -1.3277,-1.8505 1.2473,-7.6843 0.6436,-2.6955 0.8851,-2.1322 2.2128,-3.5001 1.5288,-3.9829 1.1265,-1.8506 0.4826,3.8219 -2.4541,5.9543 -0.5229,3.7817 2.2529,1.0057 2.2932,2.5748 0.8047,0.845 1.931,2.8162 1.2874,0.4424 2.5749,0.3621 2.7356,-1.0862 1.7702,1.3277 1.6897,-1.2472 2.4541,-0.5633 2.2932,0.08 2.0518,0.9656 1.6898,-0.4022 -0.081,2.9771 2.1724,-0.9254 0.2414,-2.7358 0.4426,-2.6954 1.6093,0.6437 1.8103,-2.0116 2.776,0.9655 2.4943,0.9657 1.6495,-0.7243 2.1726,1.6093 2.8563,3.5002 0.3218,0.9655 -0.4022,1.6898 -1.0461,2.7357 3.46,1.4884 -1.0059,0.9255 -2.8161,-0.8048 0.081,2.8162 -0.7645,2.5346 -0.9655,-0.2815 0.4827,-2.2933 -0.1608,-3.138 -1.9312,-0.4426 -2.7357,3.9829 -2.2529,1.0862 -5.2704,3.3796 -3.6208,2.5344 -1.7299,0.7644 -1.9713,0.845 -1.9312,1.1666 -0.2816,0.6035 -0.9655,1.207 -0.7643,-0.9657 -0.4024,-1.046 -3.4197,-3.7414 -2.4943,2.615 -1.1667,4.3048 -1.569,2.8564 -0.7241,1.0862 -0.9253,1.73 1.8907,-0.081 1.6093,-0.1609 6.1554,-1.8507 5.4312,0.5633 24.0985,-8.5693 10.621,-2.9772 14.4431,-1.408 5.7932,0.04 10.7016,0.9253 13.1556,4.6266 12.19,-4.1841 9.0521,0.2012 9.6152,1.73 17.2995,7.845 5.23,1.0058 0.8449,-1.2069 -1.8508,-2.0115 -2.9367,-0.7645 -0.8851,-2.9369 1.0057,-2.7357 1.73,-7.6841 4.0231,-3.9024 5.3105,-3.9426 2.6151,-4.8279 1.3276,-1.4081 1.8104,-2.7357 -1.2874,-2.776 -0.2414,-1.4483 1.0058,-2.7759 1.2472,-2.092 0.8046,-2.3334 1.6495,-1.9714 4.0231,-2.2126 3.5403,-1.8105 4.6669,-2.1322 5.5921,-3.0978 2.092,-5.4312 -1.2874,-0.3622 -1.6898,1.0863 v 3.0978 l -1.4884,-1.4484 0.362,-4.7069 3.6209,-2.6955 3.1781,-6.6785 3.9829,-2.6955 6.075,-0.2413 3.2185,-1.6494 3.9427,-1.7702 5.7932,0.6437 7.1611,1.8907 4.2647,3.2991 1.7701,3.1782 6.5577,7.0002 -1.6496,1.6093 -2.2528,-0.04 -2.4139,0.161 -3.4599,-0.6839 -4.9082,-0.4023 -1.1265,3.4196 -1.8104,3.4599 0.2414,3.5001 1.207,3.6209 0.5631,1.4081 1.3679,2.2529 -1.569,0.2816 -1.6897,1.6093 -1.0862,2.1321 0.8046,1.4887 -0.04,3.0173 0.2414,0.362 -0.5231,2.4945 -1.1666,2.4138 1.2874,4.5059 1.8506,4.6265 -1.4886,0.4427 -0.684,1.569 -1.4884,1.2874 0.2412,2.8966 0.081,2.6151 0.6438,1.3678 0.8851,0.5229 0.9252,0.3219 0.845,0.7645 0.4827,1.1264 -0.7644,2.3736 2.8162,3.0979 1.3679,1.8505 1.6897,1.6495 1.8505,0.9656 3.0979,-2.5748 4.2243,-2.2932 5.4312,-4.7071 2.8967,1.2473 0.9654,0.9655 1.1667,0.2012 1.3679,-0.7645 -0.7241,-2.2126 -0.2413,-2.7357 0.362,-2.6553 1.0058,-2.0117 0.684,-1.0057 -0.4828,-1.6495 1.4885,-1.9712 0.9655,-1.1266 0.8852,-1.4885 2.0115,-0.4828 1.0862,-1.4886 0.8852,-2.1724 1.8907,-2.4542 1.1265,-2.8564 0.5231,-2.0115 1.2874,-2.0519 2.45405,-1.6896 2.615,-0.4426 0.8852,-5.1093 -0.684,-5.4714 -1.4483,-3.3796 -3.62075,-1.4081 -1.7301,-3.3391 1.2874,-2.0921 0.5634,-2.8162 0.5229,-2.7759 -3.6611,-0.5632 0.1208,-3.2588 1.4081,-5.1495 3.90235,-5.9543 4.506,2.0519 -1.8909,-7.0405 0.4426,-7.6038 4.5461,-4.1437 6.0346,-3.2587 5.8739,-1.6093 5.8335,-1.2471 10.2589,-2.1323 6.2761,0.8449 2.4139,1.8908 2.4138,-0.5632 2.4139,0.3218 2.1323,-0.8449 0.5229,2.9369 1.4484,0.161 0.684,1.6092 0.4022,1.046 3.3794,4.5059 0.8047,2.1322 1.8908,0.6438 0.4829,1.2069 -2.6553,1.4484 1.4885,4.1035 0.2414,3.1783 -0.5632,1.5689 0.5632,1.207 1.1265,0.3218 1.9311,-1.1667 2.7759,0.7243 1.2874,-0.2414 1.2069,-0.6036 -0.5631,-1.3678 -1.1668,-1.5288 -1.2069,-2.6955 0.684,-2.3333 2.6954,-2.253 4.7473,0.3218 0.523,-2.2931 -0.1609,-0.4829 -0.2012,-0.5229 -0.4022,-0.6036 2.3736,-2.293 -1.3678,-2.4139 -4.8279,-0.523 -2.092,-3.3794 -1.5288,-1.0864 -0.8447,1.8105 -1.0864,-1.6496 0.2012,-1.8505 -0.04,-2.414 0.6036,-1.931 0.2816,-5.5519 -1.8105,-1.6897 -0.7643,-1.9713 1.7299,-1.3277 2.9771,1.4483 h 1.4885 l -0.6034,-2.6553 0.6437,-2.0115 -0.8046,-0.9253 -2.253,-1.1668 -2.3737,-1.1666 1.1265,-1.5289 1.8508,-0.5229 2.5747,1.046 3.0979,-0.5633 3.7011,-2.89656 4.1036,-2.6151 1.0058,-1.4483 0.1609,-0.2413 -0.1609,-2.0518 1.4886,-1.9311 -1.6898,-4.184 -0.04,-1.8104 -1.931,-3.0576 -1.2874,-4.5461 0.8448,-3.299 1.2471,1.8506 -0.08,3.5002 1.7299,2.1321 1.3679,-2.2931 0.7644,-2.8966 1.6495,0.04 0.4425,2.2127 1.6093,1.2874 0.7241,-2.1725 0.845,-1.2471 1.6896,0.8046 0.8047,0.1207 1.0459,0.9253 1.4081,0.2816 0.7242,1.2874 1.8104,-1.4483 3.299,-1.8909 -2.2932,-3.7415 3.6209,-1.569 4.023,0.5632 1.4484,1.8105 1.6092,-0.4828 2.8966,2.8162 1.7702,1.5287 1.9714,2.2932 1.931,1.73 0.4023,2.6955 0.3622,2.7758 1.931,-0.04 -0.5229,1.7702 -0.9254,2.1322 -2.2127,-0.2816 -3.661,4.3047 -2.5749,3.3392 -1.7299,2.65516 -2.8564,2.2128 -2.8565,0.362 -2.1723,2.0117 -3.3796,1.2069 -1.5287,1.6897 0.8448,4.5461 0.081,2.0518 -1.8104,2.1322 -5.8336,-1.7701 -0.724,2.4943 -1.6898,1.8105 -0.081,2.7759 -2.6553,1.6494 -2.5344,-0.1207 0.1207,0.6036 3.1379,1.2874 4.9888,1.7299 -0.1207,3.2586 2.1724,3.7819 -0.1207,3.2586 -1.6093,1.4081 -3.2989,2.2933 -0.6437,2.092 0.3218,2.1322 -0.3621,1.9312 2.0922,3.2989 -0.081,5.3105 0.2817,1.6495 1.1264,2.776 0.2817,1.6896 -0.4024,1.6495 -1.4081,1.4082 0.1207,1.4885 2.4541,0.9655 1.4081,1.0862 0.2816,2.0519 -0.523,1.3276 -0.8449,0.523 -2.2127,-0.6035 -1.6091,0.1208 -0.8047,1.2874 -1.4484,0.8045 -1.6897,0.4023 -1.2874,-0.1207 -2.2529,-0.3621 -1.4886,0.1207 -0.04,1.6093 0.5231,1.2471 2.6552,0.3219 3.8621,1.5691 1.4886,1.2874 0.2415,2.0115 -0.3622,1.3678 1.9312,1.0864 0.6034,0.6838 1.569,-0.3621 1.7703,-0.3217 1.4885,0.4826 2.1724,-0.2412 3.0978,-0.6438 2.0116,-1.6495 1.1265,-1.4081 1.1668,-1.8908 0.3217,-2.7357 -0.081,-2.4542 1.3277,-2.0919 0.6839,-2.5748 1.2472,-1.891 3.661,-2.6553 4.1438,-3.0173 2.414,-0.081 3.0575,-2.4138 0.6437,-3.2184 3.4599,-3.7416 2.5346,0.684 5.391,0.4827 4.5058,0.362 1.9311,-3.2988 3.0979,0.4022 1.8506,-2.1724 1.0862,1.9712 2.1725,0.4426 1.4885,-1.7702 -0.362,-2.2931 2.2127,-3.3392 3.5001,0.6035 2.0116,-2.9772 0.523,-3.7816 0.6438,-5.552 1.0861,-6.1956 -0.9655,-4.1036 -2.2932,-7.7245 4.5059,-16.29346 7.2818,-11.1844 13.6383,-12.7934 7.8452,-5.4715 6.6784,-1.4885 0.5631,2.4139 6.0348,-2.1725 3.9024,-1.8104 3.0576,-0.684 1.4483,1.408 0.8047,1.3679 1.6494,1.0863 1.0058,-1.3276 1.2873,-3.5403 -0.6436,-1.2874 -1.1264,-0.6437 -0.6437,-0.2817 -0.8449,-0.3218 -1.3276,-0.7242 -1.3277,-2.7759 -4.9886,-7.0807 -17.3397,-30.57577 -4.3852,-12.23028 -3.822,-9.89688 -1.4483,-12.71307 -0.2816,-5.59213 1.8506,-3.25873 4.5462,-4.94845 0.9655,-3.86218 -0.1609,-2.41389 -1.569,-5.79329 -0.04,-2.37364 1.6093,-10.86243 1.8506,-5.06914 6.6784,-11.78774 5.7933,-22.69041 1.2069,-2.49434 4.9887,-7.96577 0.523,-1.32764 0.6035,-1.60924 -0.04,-2.65526 0.2816,-1.72995 0.9655,-0.76439 0.9656,-0.48278 1.8104,-2.13225 2.8564,-0.84486 3.9829,-2.73572 3.0576,-0.6437 1.046,-0.40231 4.184,-4.10359 1.6897,-5.39098 1.6495,-13.35676 2.092,-5.02891 0.3219,-1.64948 v -14.12116 l 0.8045,-2.01155 v -4.78752 l 2.6151,-11.10382 0.684,-4.94843 -1.6495,-41.31747 -0.3622,-1.52878 -1.6494,-2.17249 -0.4425,-1.00578 0.1609,-0.96555 1.2069,-2.05178 0.3219,-1.24718 0.04,-3.0978 -0.5632,-1.97134 -1.1265,-1.56901 -0.4426,-2.17249 -1.3679,-5.43121 -4.1036,-7.68416 -3.1379,-6.03469 -0.08,-0.36208 -1.569,-11.26473 -0.1207,-6.47723 0.8449,-6.437 4.9484,-18.62706 2.5748,-5.63236 3.5404,-5.83353 4.3047,-5.23005 1.1265,-0.92533 1.247,-0.72415 1.0059,-0.84487 0.3218,-1.16669 -0.5229,-1.36786 -1.1667,-0.52302 -1.3277,0.16092 -1.1668,0.68394 0.6438,-3.05757 1.2874,-2.6955 1.7702,-2.21272 2.2127,-1.60925 1.0057,0.80463 1.0461,0.24139 1.046,-0.28161 1.046,-0.76441 1.8909,6.47724 0.5631,1.00577 h 2.0922 l 0.6436,-0.20115 -0.3219,-3.54034 1.0461,-3.70128 2.6151,-2.25296 3.2586,-1.28739 9.0923,-2.13226 3.4598,-0.16092 2.4944,1.04602 2.6955,2.5748 1.2472,0.72416 1.408,0.48276 1.5288,-0.0402 1.0864,-0.40231 1.0057,0.0402 1.4081,1.36785 -1.046,3.25873 -0.6437,1.04602 3.9023,1.97132 1.1265,1.20694 0.04,0.80464 -0.4826,0.80462 -0.4426,0.96555 0.4426,1.08624 0.7643,0.48277 1.8105,0.0805 0.7643,0.48277 3.3393,3.37942 0.8045,0.40231 1.4483,-4.18405 0.6438,-1.16669 -1.569,-2.37365 -0.04,-3.3392 -0.4829,-3.13803 -2.9369,-1.77018 0.9657,-2.13224 1.3678,-0.80463 1.6896,0.0805 1.7702,0.72417 -1.3679,-2.01157 -2.3333,-0.60346 -2.3334,0.40231 -1.4081,1.1667 -1.207,-1.44832 -0.081,-1.2874 0.04,-1.32763 -0.8046,-1.72994 0.1207,-0.96555 1.3679,-0.72416 3.0576,-0.92532 -0.4024,-0.68393 -0.161,-0.56324 -0.3218,-0.52301 -0.6839,-0.44254 0.6839,-1.48856 1.6897,-5.79328 0.4829,1.52877 0.6436,1.2874 0.9254,0.88509 1.3276,0.40232 0.5229,-3.21851 0.081,-2.53455 -0.6436,-2.29319 -1.6093,-2.41387 -1.73,2.21272 -1.8908,-1.08624 -1.9311,-2.41388 -1.9312,-1.89088 5.3508,-4.30473 0.7645,-1.00578 1.2471,-2.17249 0.8448,-2.17248 -0.3218,-1.00578 -5.7128,-0.36208 -1.3679,-0.68393 -1.2874,-1.56901 v -0.92533 l 2.1322,-1.72994 1.2472,-0.80463 2.9772,-1.00578 1.1666,-0.88508 1.5288,-2.21271 0.5633,-0.48279 0.7643,0.0402 0.6438,0.68393 0.6436,0.48279 0.8047,-0.64371 0.7644,-2.33341 -0.6839,-1.56901 -2.1726,-1.85065 -1.2471,-2.41386 -0.8046,-1.08625 -1.2472,-0.76439 1.0863,-1.97133 5.1496,-3.98289 1.6897,-1.97133 0.2414,-1.04601 -0.3621,-1.40809 -0.2816,-3.01734 0.08,-2.89666 0.4828,-1.40809 1.207,-0.48277 h 2.3334 l 0.885,-0.24138 0.7644,-0.44255 0.6436,-0.20116 0.6438,0.40231 0.4426,0.8851 0.4424,2.13224 0.322,0.72416 2.6149,1.93111 -0.6034,-3.21851 -2.8161,-7.84508 -0.6035,-6.55769 -0.2415,-3.13803 1.5288,-1.77018 5.1496,0.24139 -0.885,1.44832 -1.6093,0.7644 0.8449,1.60925 1.3276,1.72994 1.6092,1.40809 1.569,0.56324 1.569,-0.6437 0.4427,-1.48856 -0.6841,-1.44832 -1.8103,-0.68393 1.6896,-2.05179 1.1265,-0.28162 1.4081,0.24139 -0.8046,-1.81041 -0.9655,-1.68971 -0.6438,-1.77018 -0.08,-2.29317 2.1726,1.56901 2.5345,0.20116 4.8277,-0.68393 4.9485,1.1667 1.0057,-0.6437 -0.885,-1.40809 -1.7299,-1.44832 -1.2874,-0.7644 v -1.1667 l 1.5288,0.0805 1.5287,-0.12069 1.4484,-0.36209 1.3678,-0.56323 -1.4885,-1.60924 -5.1497,-2.73573 2.2128,-2.09203 6.6784,2.29318 2.7759,-1.28739 -0.5633,-1.85065 -5.7531,-4.46565 -2.1322,-2.17249 3.1381,-0.28162 3.0977,-0.84485 2.4945,-1.64948 1.2873,-2.65527 -3.9426,0.0402 -1.4886,-0.88509 -0.362,-2.37364 2.8564,0.523 3.3793,-1.24716 2.3335,-2.4541 -0.3218,-3.21851 0.04,-0.16093 -1.891,0.28162 -3.9024,-0.12069 -0.1207,-2.09202 0.1207,-2.0518 0.9655,0.0805 2.0922,-0.20117 1.0056,0.12069 -0.4827,-1.36786 -0.7242,-1.046 -0.9654,-0.68393 5.9138,-2.73573 2.414,-2.29318 -0.3218,-3.7415 -1.6898,1.56902 -2.454,1.64948 -2.6553,0.88509 -2.3736,-0.88509 2.6552,-2.49434 3.1782,-2.4541 1.2874,-2.09203 -3.0575,-1.48855 1.4081,-1.04602 2.5748,-2.41386 1.1265,-0.84486 1.2873,-0.28161 1.1667,0.0805 1.1265,-0.32184 2.5345,-0.2414 0.8047,-1.04601 0.04,-2.53456 0.1609,-2.25296 0.7643,-0.96555 1.4885,-0.88507 -0.9252,-1.64948 -1.73,-1.08625 -0.9252,0.92532 -1.2071,2.89665 -2.7357,2.21271 -3.0575,0.32185 -2.1726,-2.73573 1.6093,-1.64948 3.9829,-1.52878 1.9312,-1.20693 4.2645,-5.31052 0.7643,-0.52301 0.3218,-1.16671 0.6437,-0.48277 0.5633,-0.6437 0.1207,-1.52879 -0.2816,-0.96555 -0.4828,-0.523 -0.6035,-0.48278 -3.4196,-3.33919 -0.4023,-1.64948 1.046,-2.65526 -0.6437,-0.92532 -0.2413,-0.88509 0.2815,-1.04601 0.6035,-1.44831 -2.8565,0.48276 -5.5921,5.87376 -0.7241,-2.05179 0.5632,-2.21272 1.6092,-3.50012 0.322,-2.29317 0.3621,-7.00023 0.8849,-3.70127 0.322,-0.72417 1.3276,-1.56901 0.4827,-1.20694 -0.2413,-1.20693 -0.3621,-1.08624 0.1207,-0.84487 -0.3219,-0.76439 -2.8564,-9.69573 -0.4024,-2.05179 -0.4022,-4.86797 -0.7242,-1.36786 -0.8046,-1.04601 -0.7645,-1.2874 -1.2874,-2.81619 0.3219,-1.08624 1.4081,-1.97133 0.5633,-1.56901 -0.2011,-1.64948 -0.5231,-1.68972 -0.6839,-3.41966 -1.0461,-0.76438 -1.2874,-0.44255 -1.2874,-0.72417 -7.8451,-7.28185 -1.4885,-2.45411 -0.6034,-3.82195 1.1667,-3.25873 2.2529,-1.9311 1.3678,-1.89087 -1.4885,-3.2185 -1.4484,-1.20693 -3.2586,-1.32764 -1.5288,-1.24716 -0.3621,-1.44833 0.6035,-1.60924 1.0863,-1.28741 1.2069,-0.523 0.9252,-1.81041 -1.4081,-4.02311 -3.2586,-6.15538 -2.1324,-2.69549 -0.8849,-1.36786 -0.3622,-1.9311 -0.3219,-1.00579 -1.7298,-3.94266 -0.6036,-1.68971 -1.1666,-2.29318 -2.1324,-1.56901 -0.8448,-3.01734 -3.4196,-4.66682 -1.207,-1.4081 -6.9198,-8.00601 -4.1839,-3.29896 -0.845,-1.68971 -0.8045,-1.52878 -1.9714,0.48276 -1.3277,1.24717 h -1.931 l -1.5287,-1.04601 -3.3796,-3.86219 -1.1263,-1.89087 -1.4484,-3.05757 -4.0231,-12.23028 -1.6898,-8.89111 -2.1322,-14.52347 -1.5287,-16.81666 -0.322,-1.9311 -0.2816,-6.91976 -0.2011,-8.52902 1.207,-9.85665 -0.2012,-1.77017 -0.04,-2.21271 0.4827,-1.85065 -0.4425,-1.60924 -0.4828,-3.66104 1.5691,-9.61527 0.08,-1.60924 0.5633,-4.18405 1.8103,-9.011798 0.9655,-2.77594 0.9657,-3.41966 0.6436,-2.41388 1.4885,-1.8104 0.2817,-1.72994 -0.5231,-0.6437 -0.201,-0.68393 0.9655,-0.68393 0.2012,-0.52301 -0.3621,-1.52879 0.7643,-0.96554 -0.362,-1.08625 -0.4023,-0.68393 -1.4886,1.89087 -2.0518,2.01157 -2.5346,2.53456 -3.4196,2.85642 -4.0231,2.01155 -3.7415,1.12648 h -5.0692 l -4.8679,-2.33341 -4.9083,-3.13804 -1.3277,-1.64948 -0.5229,-1.32763 -2.4541,-1.85062 -2.0115,-2.61503 -4.2645,-4.94845 -5.1094,-2.77596 -5.3508,-0.48277 -2.1726,-0.48278 -1.2471,-0.64369 -1.8103,-1.08624 -1.6495,-1.81042 -1.6495,-2.09201 -2.8564,-1.85064 -1.6496,-2.17249 -0.7643,1.32763 -0.4425,1.68972 -0.4828,0.6437 0.7644,1.77016 0.1609,2.01156 -0.7242,3.17827 -0.4023,0.80462 -1.6897,1.4081 -3.7012,5.99445 -1.9714,1.9311 -1.1667,4.94844 -0.4425,3.70127 -1.046,4.34498 -1.4484,1.32763 v 1.32762 l -0.4426,2.93689 -0.7643,3.942648 -1.5288,4.26451 0.523,2.69549 -0.8046,4.54613 -1.5289,1.77018 -0.04,1.8104 0.08,6.35654 3.9026,2.65526 1.9713,0.0402 1.73,-2.85642 4.1035,-2.89665 1.5288,-0.40231 1.8908,0.44255 2.0519,-1.56901 4.6667,0.0402 2.0117,-2.65525 1.7701,-1.04603 1.7299,0.48279 1.6496,-0.36208 3.4599,1.56902 2.8966,0.44254 1.7298,-2.17249 2.6955,-2.17248 2.2531,-0.68393 4.0633,-3.50012 1.207,-1.9311 0.2414,-0.80463 0.04,-0.56323 -0.3621,0.32185 -0.8047,0.96555 -0.6838,1.12647 -0.7644,-0.16092 -0.081,-0.64369 1.0862,-1.40811 0.8047,-1.36786 1.0459,-2.33341 2.6955,0.24139 2.6956,1.97133 3.5805,4.30474 2.4944,4.30474 1.7702,4.18405 0.885,4.78752 -0.6839,3.01734 -1.0863,1.68971 -1.3277,1.1667 -0.724,1.9311 0.2011,1.4081 -0.7242,2.4541 -0.6839,10.74173 -1.2069,4.54613 -4.9888,12.19007 -2.5747,3.21848 -2.0115,1.97134 -2.5346,0.96555 -1.8104,0.0402 -2.2529,-1.44833 -1.0864,-0.76439 -1.2068,-2.21271 -0.684,-1.68972 -1.2069,-0.92531 -1.3276,0.28162 -1.4886,-0.56324 -2.8966,-1.77017 -2.4139,-0.80463 -1.3679,-0.20116 -0.5632,-0.32184 0.2011,-1.32764 0.3219,-0.88508 0.081,-0.0402 0.2011,-0.32186 -0.04,-0.96555 -1.8103,-1.56901 -1.0461,-1.32763 -1.0862,-2.05179 -1.2069,-0.60347 -2.9369,-0.28162 -1.4081,-2.05179 -1.7299,-0.28162 -0.7644,0.48277 -1.207,3.01734 -0.4426,0.7644 0.2817,1.00578 -1.2069,0.92532 -0.1609,1.12647 0.2413,1.28739 -1.4885,0.1207 -1.046,0.52301 0.8046,0.88509 0.7644,0.4023 1.1265,-0.36207 0.9655,0.36207 -0.4828,0.6437 -0.4827,1.16672 0.3218,1.8104 0.6035,1.1667 -2.253,4.98868 -2.5748,2.73572 -3.8219,4.42543 -5.6324,0.6437 -5.9945,-2.89665 -3.6208,-6.75885 -2.2529,-18.10404 -1.5691,-5.31052 -0.5229,-4.86798 -0.684,-3.37942 -0.04,-2.01156 0.4023,-1.60926 0.3219,-4.70704 0.6839,-4.26451 -1.2069,-3.66104 -4.7071,-4.18405 -5.4714,-0.96554 -2.8967,1.00577 -1.6495,3.58058 -3.2989,2.29318 -2.6151,-0.0805 -3.1782,-2.29318 -3.2185,-4.26451 -2.1725,-2.53457 -1.4886,-0.60347 -2.4138,-1.56902 -2.0518,-1.89087 -0.4828,1.08625 0.3621,2.01156 -1.0058,1.48855 -0.3219,4.06336 -0.2011,1.68971 0.523,1.60925 -0.4023,3.0978 -1.0863,3.58058 -2.0115,2.13226 -2.6955,-0.60347 -3.0575,0.24139 -1.3276,0.80462 0.3217,1.6897 2.0116,0.3621 2.092,0.28161 2.2127,1.28739 2.6151,4.54613 0.08,2.01156 0.1609,4.02313 0.3621,0.68393 0.8449,-0.72416 0.8448,-0.72416 0.4426,0.96554 0.7241,0.84486 2.1323,0.0805 1.3276,0.0402 2.4139,-0.20115 0.6437,0.84485 0.4023,1.32763 -1.3276,-0.20115 -1.3277,-0.36208 -1.0862,0.20115 -0.8447,1.04601 0.724,1.48856 0.8046,3.8622 -1.5286,0.32184 -0.8852,-1.08624 -1.5288,-0.84485 -1.046,-1.08625 -1.9713,-3.6208 h -0.3621 l -0.3219,4.46566 -0.4828,3.37943 0.1207,3.86218 -0.8448,2.93689 -1.5288,9.97734 -3.1381,9.81642 -1.5287,2.69549 -2.0921,1.9311 -2.615,0.84486 -2.5346,-1.32763 -5.2299,4.02311 -1.7703,1.89087 -2.1725,0.7644 -1.7702,0.1207 -1.5287,-0.84486 -3.0979,-2.61504 -2.8564,-0.32185 -5.753,4.06336 -1.3679,3.86219 -2.0518,3.90243 -1.2472,2.53457 -2.5344,1.24717 -1.5691,3.66104 -3.0978,0.72416 -2.4139,2.73573 -2.4138,2.61503 -0.4024,2.9771 2.3334,1.04602 4.7071,-0.40232 1.6093,2.41388 0.3218,2.61503 1.408,1.56901 0.081,3.70127 0.2816,6.87954 -0.3621,6.96001 0.4024,2.4541 2.0921,2.37363 4.2644,4.26451 1.569,1.48856 1.5288,2.01157 -0.5229,3.45988 -1.0461,15.52925 -1.0058,2.0518 -1.7299,4.94843 0.6034,3.41965 -1.8908,6.96001 -8.9314,17.05803 -4.5059,5.27029 -5.4312,3.66104 -2.615,-0.24139 -6.8796,-3.13803 -5.1897,-3.66103 -0.3622,2.69548 0.4024,4.42544 2.2529,1.32763 -1.8506,1.12648 0.523,3.29895 2.615,3.37942 0.9655,1.68972 1.6495,4.06335 1.0059,1.2874 h 7.9256 l 2.1723,-0.56325 1.3679,-1.44831 1.1265,-1.81041 1.6092,-1.64948 5.3105,-0.88508 5.4313,2.89663 4.6266,4.58637 2.7759,4.14382 1.4081,4.94843 v 3.78175 l 2.4139,6.55768 0.04,4.62659 -1.3276,30.37456 -3.4197,15.20741 -3.0172,12.55214 -3.8221,4.46567 -3.8622,1.81039 -1.8103,3.8622 -1.6093,5.87376 -0.684,4.94844 -0.2413,6.39677 -0.4828,2.97711 -1.3679,2.85641 -0.8046,2.53458 -0.8046,5.67259 -1.1667,4.66682 -5.1093,14.20163 -5.029,19.23052 -3.1782,5.95422 -3.7818,5.1496 -10.782,9.97733 -3.3793,5.10938 -2.3335,6.43699 -6.0346,15.28787 -4.506,8.32786 -2.4139,6.43698 -1.2873,5.75306 -3.6208,31.74245 -0.8449,2.73572 -2.092,2.9771 -12.5119,13.83955 -7.9255,5.95421 -2.8162,2.01157 -10.0982,4.78752 -4.94835,0.6437 -2.8162,-0.0805 -1.0058,1.4081 -15.6499,10.90266 -8.8108,7.20139 -3.7011,4.70706 -2.1323,5.5519 -5.3105,19.31099 -2.2933,5.75306 -3.4195,4.9082 -7.0807,6.15538 -4.5059,7.16116 -3.0978,6.43699 -2.2932,4.90822 -3.299,3.82197 -13.6786,8.48878 -13.5982,13.83954 -9.6957,7.20138 -4.6266,2.21272 -5.1094,1.12647 -8.1267,-1.40809 -2.4943,3.21851 -2.8162,2.9771 -6.5577,2.89665 -12.3911,8.12671 -10.8223,4.02312 -15.0062,6.51745 -11.7073,2.73572 -10.5405,2.13226 -6.2762,3.37943 -2.4943,1.72994 -1.6093,3.78173 0.7242,2.97711 -0.8046,2.33341 -0.5632,2.53457 -1.6093,2.69549 -1.3679,4.10358 -4.0231,2.69549 -2.092,2.93688 -4.184,0.88509 -6.9198,-1.20694 -5.3508,1.04603 -4.868,-0.40232 -3.5,-2.4541 -5.7128,-1.97133 -3.3796,-3.17828 -5.7128,-3.74149 -2.1725,-5.31053 4.506,-6.51746 0.2816,-3.74149 3.2989,-4.22428 -0.6838,-8.52902 0.6033,-8.60949 -0.8045,-2.89664 -1.046,-0.60347 -1.7299,1.12647 -2.4542,6.07492 -2.8966,1.28739 -2.0519,-0.72415 -3.5805,-4.26452 -2.3334,-0.40231 -2.5347,1.4081 -2.2529,0.523 -1.6495,-1.08624 0.845,-1.85064 0.08,-3.29896 2.3334,0.0805 0.6436,-1.08624 0.2817,-3.25872 -1.8506,-0.80463 1.4885,-4.42543 2.8966,-3.78174 1.207,-2.33341 0.4827,-1.20694 1.3679,-0.48277 1.1265,-1.48856 1.0862,-0.0402 -0.4424,1.00578 -1.2874,1.68972 1.7298,1.48855 2.4542,1.64948 4.1036,1.72995 1.5288,-0.96555 0.7241,-2.01157 2.615,-0.84485 1.9714,-1.28741 0.04,-2.93687 2.615,-3.54035 1.931,-3.37942 6.8795,-2.61502 5.2703,1.16669 2.5347,0.1207 0.9252,-1.44833 2.1725,-2.05179 0.8449,-1.64948 0.3218,-2.09203 0.2414,-2.33341 -2.253,-0.32184 -1.3678,-3.41965 1.046,-5.14961 0.9253,-2.37363 1.7299,-1.12648 2.3336,-0.96555 2.4943,0.48278 2.0919,0.0805 3.1381,-1.00578 0.6034,-1.12647 0.3621,-2.0518 -1.6897,-1.2874 -0.1609,-1.77017 0.8448,-2.97711 -1.2068,-1.64948 -5.4715,-2.21272 -4.868,1.04601 -17.1384,5.63237 -2.6955,2.29318 -2.4139,3.01735 -3.2186,0.76439 -13.3164,7.36232 -3.7819,0.20114 -2.7357,-1.48854 -4.707,1.2874 -7.0405,3.90242 -4.1841,2.4541 -3.3391,4.94844 0.3218,4.22428 1.0863,1.89087 -0.8449,2.33341 -1.6495,2.85642 -1.8103,1.72994 0.9655,1.72994 -1.8507,2.01157 -1.0058,2.41387 -0.9252,3.58057 -0.4829,3.8622 0.7243,1.9311 2.4139,0.16093 0.2413,-1.72995 1.2472,-0.32184 1.4886,1.16669 0.6838,2.33342 -1.0057,7.64393 0.2414,3.2185 1.3679,1.12646 1.2874,5.18983 2.1321,2.01157 0.9254,2.89664 -0.8047,4.34499 -1.0861,2.57478 -0.2013,1.44833 0.9656,0.96555 0.8852,0.88509 v 3.62081 l -0.6036,2.85641 -8.5693,21.1214 -6.0346,10.29919 -25.3457,34.63908 -5.7932,6.23583 -4.3048,3.82197 -5.8737,2.77595 -2.3737,3.74151 -9.8969,8.68994 -4.1438,1.8104 -2.1322,-0.28161 -2.5346,0.16091 -0.5632,1.00579 1.8506,3.25872 -1.7702,3.74152 -1.5288,2.17249 -1.7701,3.58058 -5.9543,7.56346 -1.4885,4.5059 -1.6093,3.50011 -2.1724,4.94843 -1.5288,1.89088 -2.9369,1.77018 -0.6839,3.98287 1.6092,1.9713 2.8564,3.5806 0.1207,3.4197 -0.2414,4.184 2.2931,2.092 4.4255,4.8278 2.6151,2.092 0.7644,1.9311 1.3678,2.4541 1.3679,2.9369 0.04,2.3736 -0.8046,2.4944 -0.04,2.7357 -0.04,1.4081 -1.1667,1.6091 0.081,2.0922 -0.2414,0.9253 -0.8448,0.7644 -0.6438,2.5345 -2.615,0.4828 -0.523,-1.6897 -1.9713,-1.6093 0.6035,-1.6092 1.2069,0.04 0.6034,-1.8105 -0.9655,-2.8162 -0.9253,-2.3333 0.2816,-1.2069 -1.6897,-2.8564 -4.5864,3.8219 -3.0979,1.6897 0.04,4.1439 1.6494,-0.3621 0.5231,1.8104 -0.161,2.1724 -1.1667,3.0979 2.2127,1.7702 -0.1207,1.9712 -1.1667,0.6438 -2.4541,-0.4023 -1.3678,1.5288 -2.4139,1.5287 -1.1668,-1.0057 -0.9655,-1.4081 -4.10356,1.0058 -1.72994,-1.0863 -1.56902,-1.2874 -2.13225,-1.6495 -1.36786,0.2012 0.523,1.8505 1.72994,2.0519 0.48278,0.6035 0.40231,2.0518 0.80462,1.1265 0.88509,0.8046 0.36209,1.0862 -1.77018,0.8449 -1.72995,0.6034 -1.24717,-1.2471 -1.36786,0.362 -0.32184,1.0863 1.77017,3.2587 0.88508,1.1264 1.32764,0.6036 -2.89665,1.1264 -1.97134,-0.6839 -2.05179,-2.7357 -2.53456,0.1207 -1.00579,-2.253 -1.12647,-0.9655 -3.94265,1.2472 -1.72995,2.4138 2.0518,0.8047 1.44831,2.7357 3.3392,-1.6897 v 2.9368 l -1.24717,2.253 -1.64948,1.1667 -3.33919,-0.161 -6.23584,1.73 -2.77594,-0.9253 1.48855,-1.046 0.88508,-4.1841 2.77595,-1.207 0.60347,-0.6838 -2.53457,-1.2472 -2.89664,1.5288 -2.37364,2.2932 -1.04602,1.7701 -2.37363,1.3679 -1.16672,0.4827 -1.08624,0.1207 -3.50011,-0.1207 -2.21272,-0.8045 -0.32186,-2.0518 0.48279,-2.6554 -0.0402,-2.7357 -1.12649,2.4542 -0.88507,1.1667 -0.88509,0.4424 -1.12649,-0.2413 -0.0402,-0.7241 0.24139,-0.9656 -0.20117,-1.4885 0.48279,-2.2932 -1.56903,-1.0059 -2.13224,-0.8447 0.72416,-2.2932 0.60347,-2.414 -2.85642,1.891 -0.48278,1.569 -1.1667,1.5288 -1.20694,1.2069 -1.60925,0.523 -3.5001,0.081 -1.48857,0.5231 -2.85642,2.454 1.48856,4.0634 2.85643,1.2874 3.45987,-0.8046 v 3.7012 l -0.92532,0.845 -2.93687,-1.4484 -2.17249,-0.1207 -1.52878,2.37366 -1.16672,2.454 -1.36786,1.1265 -0.64369,-1.7299 0.20115,-1.2069 1.16671,-2.81616 0.56324,-1.3679 0.72415,-1.9713 -1.32763,-2.4139 -1.00577,0.8851 -1.77018,0.7644 -7.60369,-4.2645 0.12069,-2.3736 1.48854,0.08 1.20695,-0.04 1.08624,-0.8045 -0.68393,-0.6035 -1.44832,-0.6035 -0.6437,-3.0575 -1.56903,1.0459 -1.60924,2.4944 -1.64948,1.3276 -0.20115,2.6151 -1.2874,0.2413 -0.92532,-0.8046 v -2.9369 l 2.01156,-3.3391 3.37941,-3.9829 1.16672,-1.2472 0.48276,-1.9311 1.48856,-3.1783 2.49434,-1.7299 2.41388,1.5689 0.84485,-2.0115 -0.28162,-2.615 -1.36787,-3.3794 -1.93108,-2.937 -1.81041,-1.2471 -1.32763,-2.6955 -2.89665,-2.1724 -2.01156,1.3678 -3.17827,0.4426 -5.99444,1.2471 -6.07493,1.9311 0.20117,1.9311 -4.94844,3.6208 -1.9311,1.3277 -2.17249,0.2414 -2.77595,0.2011 -3.41966,2.3737 0.48278,1.9311 -1.20693,0.4424 -0.80464,0.4426 -2.4541,2.0518 -1.36786,-0.4827 -2.13226,-0.7243 -1.56902,0.4829 -0.48277,-1.6897 -2.13225,-0.1208 -2.53457,1.9312 -1.00577,-1.7702 -2.49434,-0.7644 -1.85065,-0.523 -3.78172,-0.1207 -9.13249,0.4828 -5.31052,-0.1207 -6.91978,0.6839 -6.43699,-1.8909 -4.70705,2.7358 -3.8622,2.4138 -6.35653,2.454 -4.50585,1.4887 -1.81042,2.2932 -1.12647,0.2413 -1.1667,0.04 -5.87376,1.207 -1.48855,3.0978 -2.37364,1.6898 -2.93688,1.046 -7.76463,1.5288 -16.77642,2.4942 -3.21849,-2.6149 -11.70729,3.3392 -21.84555,1.7299 -11.90844,-2.7357 -6.3163,-1.8104 -6.63815,1.6494 -3.94267,1.8104 -6.23584,2.8565 -2.89664,5.10926 -2.09203,0.3621 -2.33341,-0.3219 -2.41387,-0.6034 -3.78173,-0.7645 -4.22428,-2.21256 -3.62081,-2.3334 -0.52301,-2.0519 -0.76439,-1.7701 0.0805,-1.7702 0.32185,-0.362 1.52879,-1.9714 2.05179,-0.6437 1.44833,-0.7241 1.68971,-0.4828 1.56902,-0.9656 -2.09204,-1.2874 -2.65525,0.1207 -2.4541,0.3219 -2.45411,1.0058 -0.80462,0.5632 -1.36786,-0.1609 -0.60347,-0.5633 0.84485,-1.4483 -0.64369,-0.7241 -2.13226,1.5287 -2.13225,0.1207 -4.02313,1.4081 -1.8104,-1.1265 -2.61503,-2.2128 -1.72995,-1.8505 -1.72993,-0.6035 0.0402,2.0518 -1.20694,1.8506 -2.05179,-0.7643 -1.52879,0.9655 -1.12647,1.8506 -1.08625,2.2932 -2.33341,0.7644 -2.77595,-0.5632 -2.21271,0.4023 -0.40232,3.7013 -2.81619,-0.2414 -2.93687,0.8046 -6.91978,0.3218 -3.29896,0.7242 -3.98289,1.6495 -3.54034,2.092 -2.77596,0.6035 -1.97133,0.64366 -1.32763,0.2816 2.33341,1.0459 1.20694,1.1265 -0.72416,0.684 -1.72995,0.4426 -3.98289,-0.1207 -2.33341,0.04 -3.17827,0.8851 -2.49432,0.3218 -1.36787,1.4484 0.88508,1.6897 2.73573,1.9311 2.05179,1.0861 0.40231,2.0921 v 1.9713 l -0.32184,2.5345 -0.96555,3.7819 -1.44833,2.4541 -1.56901,2.6955 -2.09203,1.5288 -5.51168,1.6494 -3.05757,1.6092 -2.25295,0.7243 -0.24138,1.8908 -4.10359,1.8506 -3.41965,2.8565 -7.20139,5.6324 -0.68393,2.1321 -1.9311,2.2128 0.32185,1.6093 -1.12647,1.4483 -2.77596,2.0518 -3.66104,2.8162 -1.1667,4.3852 -2.81619,2.0517 -2.77595,1.2069 -4.14382,0.8047 -2.4541,3.138 -7.04047,5.5519 -3.17826,2.5749 -2.49434,2.2932 -5.79329,5.2299 -0.32185,3.2186 -0.80463,2.0115 -2.33341,-0.6436 -1.60925,1.569 -2.89664,4.2242 -4.86799,3.5807 -4.02311,3.7011 -2.73572,2.5748 -0.60347,1.0863 -2.73573,0.5632 -0.80462,1.9312 -0.48278,1.2472 -0.56323,3.3793 -2.13226,1.3679 -2.17248,1.046 -3.90243,1.7702 -5.39099,1.569 -4.14381,0.5633 -3.78174,-0.4426 -0.84486,0.5632 -0.321838,1.1668 -1.72995,1.3679 -3.29895,-0.845 -1.68971,-0.8045 -2.21272,0.7643 -0.36208,2.5748 0.0402,2.414 0.20116,1.2874 -1.327631,-0.2012 -2.4541,-0.161 -0.88509,0.6839 -0.24139,3.299 -0.523,1.569 -1.77018,2.3334 -1.89085,2.0117 -4.62661,3.5804 -2.53456,0.6036 -0.84486,0.6436 0.8851,2.9369 -0.68393,1.2874 -3.62082,3.6208 -1.569009,1.7299 0.12069,4.3852 -5.95423,1.2472 -3.70127,-0.08 -1.40809,3.3795 -4.66682,1.2874 -5.83352,0.2815 -0.8851,0.3218 -1.52878,1.1667 -0.88508,0.4024 0.36207,-2.092 0.52301,-1.9312 0.68393,-1.6897 0.92533,-1.3678 1.40808,-0.5229 1.20694,0.3217 1.8104,1.4081 1.81041,0.2414 -2.01155,-2.9771 -1.44834,-1.3679 -2.13224,0.6035 -3.33921,0.6437 -1.77017,0.6035 -2.57479,-0.6839 -0.0805,1.8506 0.36208,0.9655 2.17248,2.4542 -1.52879,2.1724 -0.76438,1.6092 -2.29318,-0.2413 -1.56902,-1.3277 -0.80463,-4.8679 -2.21271,0.2816 -1.97134,-0.523 -3.01734,-1.6897 -1.60924,0.6035 -1.24718,0.8045 -1.64948,0.6036 -1.77016,0.2413 -1.56903,-0.1207 -1.04601,-0.6839 0.20116,-1.6093 -1.56901,-1.3276 -1.60925,-0.5631 -2.13227,1.6896 -1.32762,1.2471 -1.04601,1.6495 -0.64371,1.6897 1.48856,0.5231 0.32185,-0.3621 0.7644,-1.2472 1.20694,0.523 4.66682,1.0461 1.72993,-0.081 1.89087,1.6897 -2.65526,0.8448 -1.89087,0.9656 -4.98866,1.1264 -0.80463,0.4426 -0.7644,1.1265 -1.7299305,0.3218 -1.97134,-0.2816 -1.36786,-0.6436 -0.84485,1.6896 -0.40231,1.8104 -0.40233,4.5059 -0.52299,1.046 -0.80463,0.9656 -0.44255,1.0862 0.56325,1.3679 1.85063,1.4885 0.24139,0.5633 0.36207,1.6494 1.64948,2.8968 0.68393,3.7012 0.52301,1.046 0.36209,1.2874 -0.28162,1.8908 -1.16671,2.3737 -1.44832,1.2874 -1.56903,0.9655 -1.569,1.4484 -1.4081,2.4138 0.1207,1.569 0.80461,1.4886 0.48279,1.9713 0.60347,1.5288 3.0978,0.2816 1.04601,1.8104 -0.88508,3.4599 0.92531,1.1265 0.52301,1.6093 -0.48278,1.6897 -0.68393,2.1322 0.24139,1.6093 -1.24717,3.5001 -2.29318,-0.08 -0.12069,1.8104 1.72994,0.8047 0.68393,1.1667 1.97133,1.5287 1.2874,-1.2874 0.7241605,-3.2989 4.38521,-3.7817 5.51167,-6.3566 2.61503,-4.8277 4.46567,1.6092 3.70126,0.9656 2.53458,4.4254 4.02311,3.0576 1.04602,0.2816 0.12069,0.6839 -0.64369,1.1667 -0.16093,1.6898 1.24717,1.6092 0.32184,1.1265 0.60348,0.523 1.046,-0.3219 0.92532,-0.7241 0.68393,-0.7242 0.2414,-0.3218 0.84485,-0.3621 0.80463,-0.523 0.60345,0.08 0.20117,1.3277 0.40231,0.9253 0.92531,0.2816 1.08624,-0.2414 0.8851,-0.4828 1.00577,1.9311 1.68971,-0.3218 6.03469,-3.822 1.2874,-1.3275 2.77595,-3.983 3.33919,-6.3565 0.80463,-0.9656 1.32763,0.9656 0.48277,2.2931 -0.32184,2.6151 -1.04603,2.0115 1.08625,0.6035 0.88509,-0.2414 0.68394,-0.9253 0.64369,-1.4483 0.32186,0.9253 0.603449,1.046 0.72417,0.8449 0.80462,0.1609 1.04602,-0.4828 0.24139,-0.523 0.0402,-0.523 0.40231,-0.523 0.16092,-0.9253 1.16671,-1.0863 0.32185,0.1207 0.6437,-1.1667 -0.0402,-0.6839 -0.60346,-1.1667 1.68971,-0.7644 1.20693,0.5632 2.13227,2.2932 1.046,0.5632 3.8622,1.3277 v -0.4023 l 0.60347,-0.4426 0.76439,0.081 0.32185,1.2069 0.0805,0.9656 0.24139,0.523 0.48277,0.1609 0.84486,-0.081 1.729941,-0.8851 0.52301,-1.6092 -0.40231,-1.8506 -1.086251,-1.6495 1.005791,-1.5287 0.56323,0.1608 0.44255,0.8851 0.56323,0.4828 h 3.29896 l 1.36787,-0.3219 3.781728,-1.6495 1.52879,-1.0057 1.77017,0.4425 4.58635,-1.7701 7.04047,2.6954 1.68971,1.3277 1.12648,0.2816 0.12069,0.9655 -2.01156,2.092 -3.58058,2.9369 0.24139,2.3334 1.40809,0.8047 4.26451,-0.161 v -0.885 h -1.72994 l 2.61502,-3.4197 2.21272,-0.523 2.29317,1.4483 2.73573,2.4944 1.16671,0.6839 3.33919,1.4081 1.32764,0.8851 2.9771,4.2645 0.72417,0.6839 2.69548,0.523 7.64394,2.6553 2.13225,1.2874 1.4081,1.1264 1.48855,0.9254 1.16671,1.4081 0.523,2.5748 -0.56323,2.1322 -1.20694,0.9656 -1.40809,-0.2012 -1.04602,-1.4483 -0.28162,1.2069 -0.88508,2.1724 -0.40231,0.684 -2.53457,2.0115 -0.40231,2.4542 1.77017,-0.1207 2.41387,-1.4483 3.62081,-3.1783 5.35075,-3.0978 1.40809,-1.6495 -0.20114,-2.2931 -2.53457,-5.4715 -0.6437,-2.6955 0.24139,-3.661 0.84485,-1.1667 1.77018,-0.3621 2.93687,-1.2874 3.82196,-4.6668 -0.28162,-5.1899 -1.44832,-5.753 0.36208,-6.3968 1.44832,-2.2932 1.6495,-1.1265 1.36785,-1.569 0.60347,-3.5403 -0.40232,-3.3392 -0.28162,-2.1323 -0.76439,-3.0574 -1.12647,-2.0117 10.86243,-12.8739 4.06335,-3.2186 4.54613,-2.454 2.65525,-0.3622 4.38521,2.6553 2.41387,0.04 2.37365,-0.7241 1.89086,-1.1668 2.49434,1.4081 1.04601,1.0864 0.60347,1.5287 -0.96555,0.1207 -1.48855,0.6437 -0.88509,0.2414 0.68393,1.7701 -0.24139,1.1266 -0.44254,1.2069 v 1.8908 l 0.44254,0.6437 1.68971,1.9311 1.48856,3.661 2.09202,2.0116 1.08625,1.8506 -1.81041,2.0518 1.16671,1.73 1.40809,0.08 3.25873,-1.8104 0.44254,-0.4425 0.32185,-0.7242 0.60347,-0.6437 1.12648,-0.2414 0.24138,0.4024 0.32185,0.9655 0.48277,1.046 0.60348,0.5632 3.5001,-0.2011 5.67262,-3.822 2.85641,-0.9655 3.62081,-0.04 1.8104,-0.4425 0.80463,-1.0861 -0.6437,-1.5692 -1.08625,-1.4081 -0.20115,-1.046 1.9311,-0.4023 2.53456,-1.6092 2.29318,-2.8162 2.17249,-1.1667 2.05179,3.5001 3.6208,-2.5346 3.50013,-1.4885 12.87399,-1.2472 4.94844,-1.3276 3.2185,-2.7357 -0.80463,-4.5864 1.6897,-1.0863 1.24718,0.7645 1.20693,0.081 1.16671,-0.04 1.36787,0.2815 2.2127,1.2473 1.89088,1.6493 v 1.0864 l -2.53458,0.5631 -1.72993,4.8681 -2.37365,0.5631 0.44255,-1.8103 0.12069,-2.2932 -0.48277,-1.4081 -1.32764,1.0057 -1.89086,2.6956 -1.2874,1.4483 -0.56323,-0.1206 -0.20116,5.9139 0.72416,2.5748 2.01155,1.0058 1.16672,-0.6438 2.69549,-2.8162 2.29317,-0.9253 1.40811,-1.3276 0.64368,-0.3621 0.56324,0.2816 1.5288,1.3679 0.88508,0.3622 2.09202,-1.2473 0.68393,-2.7759 -0.80462,-2.9771 -2.37365,-1.9312 1.52879,-1.8104 2.21272,-1.3678 2.01156,-1.9311 2.13227,-7.3623 2.3334,0.8852 1.20693,2.7357 -2.21271,1.77 v 1.0863 l 3.01734,-0.1206 2.5748,0.8045 1.24717,1.6897 -1.12648,2.5346 -1.1667,0.5632 -1.64949,0.3219 -1.52878,0.523 -0.60347,1.0862 0.60347,1.3679 1.44832,0.1207 1.64948,-0.4828 3.66103,-1.7298 1.89088,-1.6496 8.60948,-11.2245 z"
         id="path14"
         style="fill:#000000;fill-opacity:1;stroke-width:3.94266" />
    </g>
  </g>
</svg>
