<?xml version="1.0" encoding="UTF-8" standalone="no"?>
<svg
   xmlns:dc="http://purl.org/dc/elements/1.1/"
   xmlns:cc="http://creativecommons.org/ns#"
   xmlns:rdf="http://www.w3.org/1999/02/22-rdf-syntax-ns#"
   xmlns:svg="http://www.w3.org/2000/svg"
   xmlns="http://www.w3.org/2000/svg"
   xmlns:sodipodi="http://sodipodi.sourceforge.net/DTD/sodipodi-0.dtd"
   xmlns:inkscape="http://www.inkscape.org/namespaces/inkscape"
   version="1.0"
   width="1024.000000pt"
   height="1024.000000pt"
   viewBox="0 0 1024.000000 1024.000000"
   preserveAspectRatio="xMidYMid meet"
   id="svg74"
   sodipodi:docname="Honshu.svg"
   inkscape:version="1.0.1 (3bc2e813f5, 2020-09-07)">
  <defs
     id="defs78" />
  <sodipodi:namedview
     pagecolor="#ffffff"
     bordercolor="#666666"
     borderopacity="1"
     objecttolerance="10"
     gridtolerance="10"
     guidetolerance="10"
     inkscape:pageopacity="0"
     inkscape:pageshadow="2"
     inkscape:window-width="1920"
     inkscape:window-height="974"
     id="namedview76"
     showgrid="false"
     inkscape:zoom="0.55286249"
     inkscape:cx="85.720665"
     inkscape:cy="415.77785"
     inkscape:window-x="-11"
     inkscape:window-y="-11"
     inkscape:window-maximized="1"
     inkscape:current-layer="g72" />
  <metadata
     id="metadata2">
Created by potrace 1.10, written by Peter Selinger 2001-2011
<rdf:RDF>
  <cc:Work
     rdf:about="">
    <dc:format>image/svg+xml</dc:format>
    <dc:type
       rdf:resource="http://purl.org/dc/dcmitype/StillImage" />
    <dc:title></dc:title>
  </cc:Work>
</rdf:RDF>
</metadata>
  <g
     transform="translate(0.000000,1024.000000) scale(0.100000,-0.100000)"
     fill="#000000"
     stroke="none"
     id="g72">
    <path
       d="m 9019.9916,9692.5735 c -56.6213,-125.2533 -78.9267,-288.2541 -46.3265,-327.7175 18.8737,-24.0211 30.8843,-20.5895 96.0847,17.158 39.4633,24.0212 89.2215,42.895 109.811,42.895 18.8738,0 54.9056,18.8738 78.9268,42.8949 24.0211,24.0212 49.7581,42.895 58.3371,42.895 8.579,0 32.6002,-32.6002 53.1898,-72.0635 36.0317,-70.3478 36.0317,-75.4952 10.2947,-159.5693 -15.4421,-46.3265 -30.8843,-104.6637 -36.0317,-128.6848 -5.1474,-24.0212 -17.158,-54.9056 -25.737,-68.632 -13.7264,-20.5895 -20.5896,-20.5895 -49.7581,5.1474 -17.158,15.4422 -37.7476,29.1686 -44.6108,29.1686 -5.1474,0 -41.1792,20.5896 -78.9267,44.6108 -37.7476,25.7369 -73.7793,42.8949 -78.9267,37.7475 -5.1474,-5.1474 -17.158,-46.3265 -29.1686,-92.6531 -12.0106,-44.6107 -27.4528,-84.0741 -37.7476,-85.7899 -37.7475,-12.0106 -78.9267,44.6108 -94.3689,123.5375 -48.0423,260.8013 -66.9161,288.2541 -173.2956,271.0961 -42.8949,-6.8632 -66.9161,-1.7158 -84.0741,17.158 -25.737,34.3159 -51.4739,36.0317 -51.4739,3.4316 0,-12.0106 -15.4422,-42.895 -36.0318,-66.9162 l -34.316,-44.6107 37.7476,-53.1898 c 22.3054,-27.4527 48.0423,-51.4739 56.6213,-53.1897 10.2948,0 0,-8.579 -22.3053,-17.158 -37.7476,-15.4422 -39.4634,-22.3054 -29.1686,-108.0953 10.2948,-82.3583 8.579,-96.0847 -32.6002,-145.8428 -32.6002,-36.0318 -66.9161,-56.6214 -113.2427,-63.4846 -56.6213,-10.2947 -77.2109,-25.7369 -135.548,-106.3794 l -66.9162,-94.3689 34.316,-42.895 c 17.158,-24.0212 32.6002,-65.2003 32.6002,-94.3689 0,-32.6002 17.158,-70.3477 42.8949,-97.8005 l 44.6108,-46.3266 -27.4528,-126.969 c -13.7264,-70.3477 -25.737,-142.4113 -25.737,-163.0009 0,-46.3265 -102.9479,-144.127 -150.9902,-144.127 -30.8844,0 -37.7476,-10.2948 -37.7476,-48.0424 0,-54.9055 58.3372,-94.3689 102.9479,-70.3477 13.7264,6.8632 39.4634,17.158 56.6214,22.3054 20.5895,6.8632 29.1685,27.4528 30.8843,73.7793 0,36.0318 5.1474,53.1898 10.2948,39.4634 5.1474,-13.7264 20.5896,-36.0318 36.0318,-46.3266 24.0212,-20.5896 24.0212,-22.3054 -3.4316,-22.3054 -41.1792,0 -25.737,-68.6319 34.316,-145.8428 34.3159,-46.3266 41.1791,-73.7793 41.1791,-173.2956 0,-219.6222 -18.8738,-344.8755 -58.3371,-386.0546 -32.6002,-36.0318 -113.2427,-307.1279 -113.2427,-380.9072 0,-65.2004 -58.3371,-212.759 -111.5269,-277.9593 -68.6319,-84.0742 -120.1059,-187.022 -137.2639,-265.9488 -6.8631,-32.6001 -22.3053,-75.4951 -34.3159,-96.0847 -15.4422,-22.3053 -22.3054,-80.6425 -20.5896,-154.4218 3.4316,-85.7899 -5.1474,-140.6955 -29.1686,-192.1694 -17.1579,-39.4634 -37.7475,-72.0635 -44.6107,-72.0635 -6.8632,0 -94.3689,-54.9056 -195.601,-121.8217 -211.0432,-140.6955 -301.9805,-236.7802 -301.9805,-315.7069 0,-30.8843 -18.8738,-78.9267 -44.6108,-113.2427 -24.0211,-32.6001 -61.7687,-97.8005 -84.0741,-147.5586 -32.6001,-72.0635 -65.2003,-108.0953 -161.285,-176.7272 -65.2003,-48.0424 -132.1165,-108.0953 -147.5587,-132.1165 -25.7369,-37.7475 -37.7475,-42.8949 -102.9478,-36.0317 -70.3478,8.5789 -78.9268,5.1473 -156.1377,-73.7794 -66.9161,-68.6319 -94.3689,-84.0741 -140.6954,-84.0741 -32.6002,0 -87.5057,-17.158 -120.1059,-37.7475 -32.6002,-20.5896 -99.5163,-46.3266 -147.5587,-56.6214 -77.2109,-17.158 -89.2215,-25.737 -96.0847,-70.3477 -5.1474,-30.8844 -36.0317,-77.2109 -80.6425,-116.6743 l -72.0635,-63.4845 -102.9479,36.0317 -102.9479,37.7476 1.7158,72.0635 c 1.7158,37.7476 13.7264,82.3583 25.737,97.8005 20.5896,24.0212 18.8738,37.7476 -5.1474,90.9373 -34.316,68.632 -44.6108,73.7793 -75.4951,36.0318 -34.316,-41.1792 -85.7899,-1.7158 -85.7899,66.9161 0,61.7688 39.4633,92.6531 77.2109,61.7688 24.0212,-18.8738 77.2109,-5.1474 77.2109,18.8737 0,10.2948 39.4634,41.1792 85.7899,70.3478 75.4951,46.3265 85.7899,60.0529 85.7899,111.5268 0,44.6108 8.579,61.7688 34.316,68.632 41.1791,10.2948 48.0423,87.5057 8.579,101.2321 -34.316,13.7264 -142.4113,-22.3054 -219.6222,-75.4952 -34.316,-24.0211 -104.6637,-53.1897 -152.706,-65.2003 -109.8111,-29.1686 -142.4113,-58.3371 -175.0115,-157.8534 -34.3159,-99.5163 -34.3159,-137.2639 0,-144.1271 18.8738,-3.4316 30.8844,-25.7369 34.316,-65.2003 1.7158,-32.6002 10.2948,-106.3795 15.4422,-164.7166 10.2948,-90.9373 6.8632,-114.9585 -30.8844,-188.7378 -72.0635,-140.6955 -296.8331,-444.3918 -380.9072,-514.7395 -96.0847,-80.6425 -109.8111,-94.3689 -200.7484,-204.18 -96.0847,-116.6743 -120.1059,-176.7272 -89.2215,-221.338 13.7264,-18.8737 24.0212,-48.0423 24.0212,-63.4845 0,-15.4422 18.8738,-41.1792 41.1791,-56.6213 56.6214,-36.0318 68.632,-82.3584 37.7476,-150.9903 -20.5896,-48.0423 -24.0212,-49.7581 -25.737,-17.158 -1.7158,39.4634 -13.7264,44.6108 -60.0529,27.4528 -17.158,-6.8632 -27.4528,-30.8844 -27.4528,-70.3477 v -61.7688 l -68.6319,10.2948 c -56.6213,6.8632 -66.9161,5.1474 -51.474,-13.7264 27.4528,-34.3159 -12.0105,-92.6531 -54.9055,-80.6425 -24.0212,5.1474 -36.0318,-3.4316 -42.8949,-29.1685 -6.8632,-24.0212 -22.3054,-36.0318 -51.474,-36.0318 -36.0318,0 -37.7476,5.1474 -22.3054,34.316 18.8738,34.3159 17.158,34.3159 -42.8949,5.1474 -53.1898,-25.737 -63.4846,-25.737 -77.2109,-5.1474 -10.2948,13.7263 -17.158,18.8737 -17.158,10.2948 0,-8.579 -18.8738,1.7157 -42.895,24.0211 -41.1791,37.7476 -46.3265,39.4634 -72.0635,12.0106 -22.3054,-22.3054 -24.0212,-32.6002 -5.1474,-53.1897 17.158,-22.3054 17.158,-27.4528 -6.8632,-27.4528 -29.1686,0 -96.0847,58.3371 -96.0847,84.0741 0,8.579 -10.2948,18.8738 -20.5896,24.0212 -17.158,5.1474 -17.158,12.0106 -3.4316,30.8844 24.0212,29.1685 41.1792,116.6742 29.1686,147.5586 -12.0106,30.8844 -132.1165,29.1686 -159.5692,-3.4316 -12.0106,-13.7264 -32.6002,-25.737 -44.6108,-25.737 -12.0106,0 -36.0318,-18.8738 -51.4739,-42.8949 -30.8844,-48.0424 -68.632,-53.1898 -132.1165,-20.5896 -24.0212,13.7264 -104.6637,24.0212 -180.159,25.737 -142.4112,5.1474 -262.5171,-32.6002 -338.0122,-101.2321 -25.737,-22.3054 -73.7794,-34.316 -163.0009,-41.1792 -70.3477,-5.1474 -188.7378,-18.8738 -260.8013,-29.1686 -101.2321,-13.7263 -145.8428,-13.7263 -183.5904,3.4316 -42.895,17.158 -60.0529,13.7264 -118.3901,-15.4421 -80.6425,-41.1792 -183.5904,-51.474 -212.759,-22.3054 -36.0317,36.0317 -54.9055,22.3054 -20.5895,-15.4422 l 32.6001,-37.7476 -68.6319,12.0106 c -80.6425,15.4422 -84.0741,18.8738 -70.3477,53.1898 8.579,22.3053 29.1685,34.3159 128.6848,70.3477 13.7264,3.4316 18.8738,13.7264 12.0106,18.8738 -15.4422,17.158 -223.0537,36.0317 -233.3485,24.0212 -24.0212,-27.4528 -128.6849,-70.3478 -173.2957,-70.3478 -27.4527,0 -87.5057,-20.5896 -135.548,-46.3265 -68.6319,-39.4634 -85.7899,-56.6214 -85.7899,-94.3689 0,-54.9056 -94.3689,-154.4219 -193.8852,-204.18 -34.316,-18.8738 -63.4846,-39.4634 -63.4846,-48.0424 0,-36.0317 -90.9373,-120.1058 -164.7166,-154.4218 -42.8949,-20.5896 -150.9902,-106.3795 -236.7801,-192.1694 -87.5057,-84.0741 -171.57984,-152.7061 -187.02204,-152.7061 -73.7793,0 -181.8746,-73.7793 -300.26467,-204.1799 -132.11647,-147.5587 -157.85344,-157.8535 -245.35915,-111.5269 -72.06353,36.0317 -176.72718,17.158 -259.085501,-49.7582 -68.63193,-54.9055 -82.35831,-97.8005 -39.46336,-132.1164 39.46336,-32.6002 32.60017,-104.6637 -10.29479,-114.9585 -30.88436,-8.579 -34.31596,-18.8738 -25.73697,-72.0635 5.14739,-34.316 10.29479,-75.4952 10.29479,-90.9373 11.00461,-58.6287 80.636001,-28.7071 113.242681,3.4315 46.32655,46.3266 90.93727,36.0318 132.11643,-32.6001 18.87378,-32.6002 46.32655,-51.474 84.07411,-58.3372 48.04235,-8.5789 63.48454,-1.7158 102.9479,42.895 24.02117,29.1686 53.18974,46.3266 63.48453,41.1792 10.29479,-6.8632 32.60017,-3.4316 49.75815,5.1474 22.30538,12.0105 37.74756,12.0105 51.47395,-1.7158 12.01058,-12.0106 42.89495,-8.579 104.6637,13.7263 109.8111,39.4634 173.2956,18.8738 161.285,-51.4739 -10.2948,-49.7582 13.7264,-58.3371 46.3266,-18.8738 30.8843,37.7476 48.0423,32.6002 77.21094,-25.737 15.4422,-29.1685 37.7476,-51.4739 49.7581,-51.4739 12.0106,0 51.474,-22.3054 87.5058,-51.474 36.0317,-27.4527 66.9161,-51.4739 68.6319,-51.4739 1.7158,0 0,20.5896 -5.1474,44.6108 -5.1474,30.8843 5.1474,56.6213 39.4633,92.6531 32.6001,34.3159 44.6107,60.0529 37.7475,85.7899 -5.1474,20.5895 -1.7158,58.3371 6.8632,82.3583 10.2948,25.737 18.8738,75.4951 18.8738,111.5269 0,54.9055 12.0106,73.7793 68.6319,120.1058 51.474,41.1792 85.79,54.9056 135.5481,54.9056 58.3371,0 66.9161,-5.1474 66.9161,-37.7476 0,-24.0212 -10.2948,-39.4633 -25.7369,-39.4633 -13.7264,0 -25.737,-6.8632 -25.737,-17.158 0,-8.579 -12.0106,-17.158 -27.4528,-17.158 -37.7475,0 -22.3054,-58.3371 17.158,-65.2003 17.158,-3.4316 36.0318,0 42.8949,10.2948 6.8632,10.2947 41.1792,10.2947 101.2321,-1.7158 89.2216,-18.8738 89.2216,-18.8738 154.4219,42.8949 48.0423,46.3266 87.5057,65.2003 171.5798,82.3583 60.0529,12.0106 113.2427,30.8844 116.6743,41.1792 5.1474,12.0106 58.3371,20.5896 138.9796,22.3054 126.9691,3.4316 133.8323,5.1474 187.022,63.4845 63.4846,68.6319 63.4846,68.6319 109.8111,44.6108 24.0212,-13.7264 48.0424,-8.579 97.8005,18.8737 l 63.4846,36.0318 54.9055,-58.3371 c 44.6108,-49.7582 58.3372,-56.6214 82.3583,-37.7476 15.4422,10.2948 42.895,17.158 60.053,12.0106 17.1579,-5.1474 58.3371,15.4422 101.2321,51.4739 54.9055,46.3266 65.2003,63.4846 49.7581,80.6425 -17.158,17.158 -13.7264,20.5896 10.2948,10.2948 41.1792,-13.7264 118.3901,5.1474 109.8111,29.1686 -6.8632,24.0212 60.0529,87.5057 118.3901,111.5269 27.4527,10.2948 99.5163,25.737 161.285,34.316 61.7687,8.5789 123.5375,20.5895 138.9796,27.4527 15.4422,6.8632 56.6216,-8.579 102.9481,-41.1791 41.1792,-27.4528 84.0741,-51.474 96.0847,-51.474 12.0106,0 49.7582,-20.5896 85.7899,-44.6107 54.9056,-37.7476 77.2109,-42.895 140.6955,-34.316 42.8949,5.1474 92.6531,25.737 113.2427,44.6108 48.0423,44.6107 157.8534,44.6107 211.0431,1.7158 39.4634,-34.316 49.7582,-78.9268 20.5896,-96.0847 -8.579,-5.1474 -17.158,-29.1686 -17.158,-53.1898 0,-24.0212 -10.2947,-41.1791 -24.0211,-41.1791 -12.0106,0 -49.7582,-37.7476 -80.6426,-85.79 -37.7475,-54.9055 -70.3477,-85.7899 -94.3689,-85.7899 -18.8737,0 -60.0529,-18.8738 -90.9373,-41.1791 -53.1897,-39.4634 -54.9055,-42.895 -22.3053,-60.053 42.8949,-24.0211 56.6213,-113.2426 25.7369,-175.0114 -13.7263,-27.4528 -18.8737,-65.2003 -13.7263,-85.7899 6.8631,-20.5896 1.7157,-46.3265 -12.0106,-63.4845 -44.6108,-51.474 -32.6002,-101.2321 30.8843,-142.4113 32.6002,-18.8738 70.3478,-58.3371 85.7899,-87.5057 22.3054,-41.17915 30.8844,-46.32654 51.474,-29.16856 20.5896,17.15798 32.6002,13.72638 63.4845,-15.44219 29.1686,-30.88436 32.6002,-44.61075 18.8738,-68.63192 -44.6107,-70.34773 157.8534,-209.32739 303.6963,-209.32739 20.5896,0 46.3265,-12.01059 58.3371,-27.45277 17.158,-24.02117 25.737,-22.30538 70.3478,22.30538 27.4527,27.45277 61.7687,58.33714 75.4951,66.91613 13.7264,8.57899 56.6213,80.64251 94.3689,161.28503 72.0635,152.70609 156.1376,274.52769 193.8852,274.52769 10.2948,0 20.5896,12.0106 20.5896,25.737 0,13.7264 12.0105,25.737 27.4527,25.737 22.3054,0 25.737,12.0106 17.158,60.0529 -10.2948,53.1898 -8.579,60.0529 25.737,60.0529 29.1686,0 34.316,6.8632 25.737,39.4634 -13.7264,56.6213 32.6001,114.9585 89.2215,114.9585 25.7369,0 65.2003,13.7264 89.2215,29.1686 22.3054,15.4421 58.3371,29.1685 82.3583,30.8843 22.3054,0 54.9055,18.8738 70.3477,41.1792 30.8844,41.1791 30.8844,41.1791 41.1792,3.4316 8.579,-37.7476 53.1897,-49.7582 72.0635,-18.8738 17.158,25.737 42.895,20.5896 42.895,-10.2948 0,-53.1897 42.8949,-12.0106 48.0423,46.3266 1.7158,32.6001 13.7264,75.4951 24.0212,96.0847 15.4422,32.6001 12.0106,42.8949 -30.8844,80.6425 -27.4528,22.3054 -72.0635,46.3265 -99.5163,51.4739 -27.4528,6.8632 -75.4951,29.1686 -106.3795,53.1898 -30.8843,24.0211 -63.4845,42.8949 -73.7793,42.8949 -8.579,0 -29.1686,34.316 -46.3266,77.2109 -29.1685,75.4952 -27.4527,78.9268 6.8632,116.6743 46.3266,51.474 123.5375,197.3168 123.5375,238.496 0,17.158 13.7264,37.7475 30.8844,42.8949 15.4422,6.8632 48.0423,25.737 70.3477,42.895 58.3371,44.6107 73.7793,18.8738 46.3266,-72.0635 -13.7264,-44.6108 -17.158,-90.9373 -8.579,-111.5269 6.8632,-18.8738 13.7264,-60.053 13.7264,-90.9373 1.7158,-58.3372 27.4527,-123.5375 49.7581,-123.5375 6.8632,0 22.3054,6.8632 36.0318,15.4422 18.8737,12.0106 17.158,22.3054 -6.8632,60.0529 -22.3054,32.6002 -24.0212,51.474 -12.0106,66.9162 12.0106,13.7263 12.0106,30.8843 3.4316,46.3265 -10.2948,17.158 -6.8632,36.0318 12.0106,56.6213 32.6001,36.0318 56.6213,12.0106 56.6213,-56.6213 0,-25.737 8.579,-53.1897 20.5896,-65.2003 25.737,-25.737 123.5375,-25.737 197.3168,0 49.7581,17.158 61.7687,17.158 75.4951,-3.4316 41.1792,-65.2004 -34.316,-144.1271 -159.5692,-169.864 -54.9056,-12.0106 -99.5163,-58.3372 -77.2109,-82.3584 6.8631,-6.8632 99.5163,17.158 205.8957,51.474 106.3795,34.316 212.759,63.4845 236.7802,63.4845 54.9055,0 72.0635,15.4422 48.0423,44.6108 -10.2947,12.0106 -13.7263,30.8843 -6.8631,41.1791 12.0105,20.5896 72.0635,-48.0423 63.4845,-72.0635 -1.7158,-8.579 73.7793,-13.7264 168.1482,-13.7264 130.4007,0 190.4536,-8.579 257.3697,-34.3159 128.6849,-51.474 154.4219,-46.3266 144.1271,22.3053 -8.579,44.6108 1.7158,70.3478 51.4739,135.5481 34.316,44.6107 61.7688,92.6531 61.7688,106.3795 0,15.4422 37.7475,51.4739 82.3583,82.3583 66.9161,44.6108 84.0741,63.4845 84.0741,102.9479 0,68.6319 32.6002,94.3689 144.1271,106.3795 89.2215,12.0106 97.8005,8.579 125.2532,-30.8844 36.0318,-56.6213 34.316,-66.9161 -10.2948,-87.5057 -36.0317,-15.4422 -39.4633,-25.737 -34.3159,-130.4007 5.1474,-70.3477 0,-118.39 -12.0106,-125.2532 -32.6002,-20.5896 -20.5896,-109.8111 22.3054,-159.5693 41.1791,-48.0423 41.1791,-48.0423 116.6742,-20.5895 68.632,25.7369 77.211,34.3159 113.2427,137.2638 22.3054,60.053 49.7582,120.1059 63.4846,135.5481 12.0105,13.7264 30.8843,48.0423 41.1791,73.7793 15.4422,41.1792 13.7264,53.1897 -13.7264,77.2109 -44.6107,39.4634 -60.0529,114.9585 -27.4527,140.6955 13.7263,12.0106 25.7369,36.0317 25.7369,54.9055 0,54.9056 53.1898,116.6743 138.9797,159.5692 70.3477,36.0318 92.6531,39.4634 163.0008,27.4528 87.5057,-17.158 126.9691,-53.1897 126.9691,-114.9585 0,-20.5895 12.0106,-42.8949 27.4528,-48.0423 15.4421,-6.8632 29.1685,-8.579 30.8843,-6.8632 1.7158,3.4316 13.7264,34.316 25.737,70.3477 18.8738,56.6214 18.8738,70.3477 -5.1474,96.0847 -15.4422,17.158 -29.1686,66.9162 -30.8844,114.9585 -5.1474,75.4951 -1.7158,84.0741 32.6002,89.2215 20.5896,3.4316 48.0424,22.3054 61.7687,44.6108 22.3054,32.6001 22.3054,42.8949 1.7158,70.3477 -37.7475,51.4739 -29.1685,77.2109 24.0212,77.2109 27.4528,0 63.4846,12.0106 82.3583,25.737 46.3266,36.0317 94.3689,30.8844 150.9903,-13.7264 46.3265,-37.7476 48.0423,-44.6108 34.3159,-108.0953 -12.0105,-49.7581 -34.3159,-77.2109 -89.2215,-114.9585 -39.4633,-27.4527 -72.0635,-58.3371 -72.0635,-70.3477 0,-13.7264 -22.3054,-32.6002 -51.4739,-44.6107 l -49.7582,-20.5896 36.0318,-48.0424 c 29.1685,-39.4633 32.6001,-60.0529 20.5896,-121.8217 -6.8632,-41.1791 -12.0106,-108.0952 -8.579,-149.2744 3.4316,-56.6213 -3.4316,-80.6425 -27.4528,-97.8005 -22.3054,-18.8738 -24.0212,-24.0212 -6.8632,-25.737 13.7264,0 39.4634,-12.0106 56.6213,-29.1685 27.4528,-24.0212 37.7476,-24.0212 73.7794,-5.1474 24.0211,12.0106 42.8949,37.7475 42.8949,56.6213 0,48.0424 152.7061,183.5904 207.6116,183.5904 42.895,0 164.7166,70.3477 190.4536,109.8111 6.8632,10.2948 13.7264,84.0741 13.7264,163.0008 0,78.9268 8.579,173.2957 18.8738,209.3274 24.0211,75.4951 149.2744,192.1694 229.9169,211.0432 29.1686,6.8632 73.7794,20.5896 99.5163,30.8844 l 48.0424,18.8737 -58.3372,61.7688 c -89.2215,92.6531 -252.2223,425.5179 -252.2223,513.0237 0,37.7475 6.8632,73.7793 13.7264,78.9267 8.579,5.1474 12.0106,32.6001 6.8632,60.0529 -15.4422,109.8111 126.969,581.6556 176.7272,585.0872 10.2948,0 42.895,36.0318 73.7793,77.2109 l 54.9056,75.4951 v 379.1915 c 0,415.2231 -12.0106,494.1498 -90.9373,622.8347 -42.895,70.3477 -48.0424,92.6531 -41.1792,180.1588 8.579,121.8217 46.3266,219.6222 96.0847,253.9382 20.5896,15.4421 34.316,37.7475 29.1686,49.7581 -8.579,25.737 29.1685,66.9161 46.3265,49.7582 5.1474,-5.1474 32.6002,5.1473 60.053,25.7369 73.7793,51.474 142.4112,46.3266 197.3169,-15.4422 32.6,-36.0317 61.769,-51.4739 101.232,-51.4739 h 53.19 l -34.316,39.4634 c -63.485,70.3477 -90.938,195.601 -48.043,212.7589 17.158,5.1474 20.59,15.4422 12.011,29.1686 -8.579,10.2948 -20.59,51.474 -27.453,89.2215 -6.863,53.1898 -3.431,77.2109 15.442,92.6531 15.443,12.0106 22.306,36.0318 17.158,51.474 -5.147,17.1579 10.295,68.6319 34.316,113.2426 36.032,66.9162 41.179,90.9374 27.453,121.8217 -15.442,34.316 -13.726,39.4634 15.442,39.4634 22.306,0 41.179,17.158 51.474,42.8949 8.579,24.0212 30.885,42.895 46.3272,42.895 18.874,0 39.463,22.3054 53.19,56.6213 13.726,29.1686 30.884,72.0636 39.463,94.3689 8.579,20.5896 27.453,42.895 41.179,48.0424 24.021,10.2948 22.305,13.7264 -3.432,34.3159 -18.873,13.7264 -24.021,29.1686 -13.726,36.0318 10.295,8.579 18.874,44.6108 22.305,80.6425 1.716,36.0318 15.443,75.4952 30.885,85.7899 15.442,12.0106 25.737,32.6002 22.305,46.3266 -3.431,12.0106 1.716,42.8949 8.579,65.2003 15.442,42.895 -15.442,121.8217 -48.042,121.8217 -17.158,0 -24.021,138.9797 -8.579,180.1588 6.863,20.5896 -60.053,200.7484 -97.801,257.3697 -15.442,24.0212 -39.463,42.895 -51.474,42.895 -15.4422,0 -24.0212,18.8738 -24.0212,48.0424 0,25.7369 -32.6,125.2532 -72.063,223.0537 -75.495,185.3062 -144.127,267.6645 -235.0647,281.3909 -36.0317,5.1474 -49.7581,27.4528 -96.0847,168.1483 -53.1897,161.285 -54.9055,161.285 -73.7793,106.3794 -25.737,-73.7793 -37.7476,-68.6319 -37.7476,15.4422 0,56.6214 6.8632,72.0636 36.0318,78.9267 32.6002,8.579 34.316,17.158 20.5896,97.8005 -6.8632,48.0424 -10.2948,187.0221 -6.8632,308.8437 l 5.1474,221.338 -60.0529,-37.7476 c -32.6002,-18.8737 -70.3478,-36.0317 -85.79,-36.0317 -13.7263,0 -60.0529,34.3159 -101.2321,75.4951 -56.6213,58.3371 -89.2215,77.2109 -142.4112,84.0741 l -68.6319,6.8632 z"
       id="path12"
       sodipodi:nodetypes="cccsssccsccscscccccscccccccccccscccssscccscscscscccccscsccccccssccccccccccscscsccccccccccccsccccscccccscccscccssccscsscccccccscccccccscscsccscccccccccccccsccccscsccccscssssscscccccccccccscccccsscscccccsscsccsccccsccscsscssscscscccccsccccssccscccccscccccssccccsscccscccscsccccccccccccsccsccscccccsccccscccccccccsscscccccscccccsccccsccscccccccscscscccccccccsccssccccscccccscccc"
       style="stroke-width:1.7158" />
  </g>
</svg>
