<?xml version="1.0" encoding="utf-8"?><svg xmlns="http://www.w3.org/2000/svg" version="1.1" baseProfile="tiny" width="1200" height="800" viewBox="0 0 1200 800"><g><g stroke="#000000" stroke-width=".98" fill="#000000"><path d="m801.09 271.47l.75-1.37 2.52 1 3.58.26 3.18 1.18 1.38 3.74 1.53.12 9.14 3.41-.96.21-2.38 1.18 0 1.26 2.09 1.53 1.89.37 4.67-.38 1.58-.77 5.07-3.88 3.69-3.94 5-2.57 2.17-2.72 1.26-3.28 1.03-4.03.73-4.23.32-3.91-.03-.75-.23-7.01.71-2.46 2.36-.92 2.34-.44 5.16-1.9 5.08-.53 6.93.6 1.45 1.5.39 1.63.92.24 1.06-.51.82-.59.82-4.19.55-.2 1.35.36.54-.16 3.96-4.12 3.16-4.66 1.47-5.9-1.17-7.8-3.49-3.74-5.06 1.44-5.52 3.28-4.83 1.82 1.3-2.16 4.36-3.54.94-1.93 3.34-10.69-.9-1.28.61-1.33.15-.59.14-.89-1.54-.52-.73-1.76-.02-2.38.57-2.48-3.62-2.04.76-.92 2.63-.51 1.95-.74-1.36-1.19-4.43-.33-.89-.66-1.06-1.07-1.33-.88-1.68-.07 1.14-1.23 1.03-1.76.33-2.04-.87-1.99 0-1.43 3.59.19 3.22 1.86 8.31 7.98 2.06 3.51 1.28 4.7.43 6.42-.59 3.08-2.75 3.53-.81 2.42.22 2.26.85 2.32 1.26 1.81 1.41.73 1.21 4.06 1.12 2.87 1.41 1.47 1.65-.32 1.48-2.88 1.76-1-1.7-2.25.61-1.64 1.57-1.39 1.15-1.58.46-3.41-.83-3.39.74-2.5 2.3-3.59.6-1.26.04-1.07-.36-.81-.13-1.12.81-1.96-.75-.55-3.77-5.84-.51-2.85-.71-8.1-.82-1.7-2.01-1.19-1.41-2.96-1.87-7.23-.33-2.12-.05-1.75-.4-1.19-1.26-.44-1.14-.66-1.47-2.92-.68-.65-14.32 2.35-2.62-.24-1.89-1.47-1.85-.71-2.58 1.2-4.09 3.1-4.2 2.04-1.17 1.34-2.65 4.31-1.31 1.27-.63 1.31-.91 1.03-1.49-.17-.31-1.01-.12-1.84-.5-1.81-1.44-.97 1.54-2.87 2.81-5.25 2.3-3.1 3.12-2.88 3.22-1.73 7.1-2.13 3.53-1.77 2.68-3 1.71-4.59.33-5.78-1.45-6.54-2.23-3.38-3.7-3.29-3.59-1.01-1.9 3.56 7.62 8.15 2.17 4.45-.74 0-2.84-4.32-3.54-1.43-3.02-1.91-1.27-5.72-.33-3-.83-2.55-1.08-2.09-1.1-1.63-.94-1.06-1.88-1.63-.77-.92-.71-1.56-.81-3.35-.52-1.41-2.42-3.56-2.83-2.69-3.2-1.68-3.48-.58-.24-1.44 2.16-7.73.23-3.76-.89-1.91-1.55-1.34-1.77-.78-1.57-.22-2.23.13-2.27-.31-.92-1.88 1.75-4.49.81-3.42.42-11.67-1.21-2.22-4.41-4.95-.98-.56-1.02-1.57-2.37-1.14-4.68-.85-2.33.46-4.55 1.95-2.65.44-1.91-.54-11.58-6.64-3.02-.76-4.51 3-2.87-.86-4.29-2.65-2.65.32-2.59 1.35-2.31 2.1-1.83 2.53-2 1.53-8.26.62-13.62 6.38-15.43.76-2.36-.94-5.15-3.5-1.89.15-.73 2.93-.75 9.45-1.38 2.03-1.37 1.48-1.43 3.42-.94 3.81.08 2.68-1.76 1.29-2.6 3.38-1.36 1.01-4.11.6-4.11-.6-5.2-2.73-2.14-.23-5.43 1.62-1.89-.08 1.15-3.89.25-.85 1.52-3.85 1.87-3.44 5.23-7.34 1.59-1.52 3.24-.97 3.89-2.1 4.06-4.07 3.78-2.48 3.99-1.74 3.35-.66 3.56-2.15.38-4.29-1.66-3.2-2.65 1.19-2.48-1.9-5.42-2.33-4.47-.79-5.94-2.77-1.8-1.64-6.12-9.43-1.6-1.36-4.59-2.53-1.95-.29-8.22-2.99-4.04-2.36-2.16-.5-1.89 1.28 1.03 1.38 1.44 1.27 3.17 1.92.28 4.9 3.58 4.59 7.63 6.15-2.37 1.71-2.65-.09-2.63-1.24-2.28-1.7.81.14 2.51-.14-1.84-3.82-2.39-1.21-2.42.77-4.55 4.96-2.63.08-2.53-1.56-2.38-2.08.25 1.11.07.58.1.47.32.7-1.87 1.33-1.69-.29-1.75-.8-2.02-.24 1.28 3.34-.31 4.23-1.3 3.64-2.66 2.43-.02 2.04.46 2.23.51 1.4.92 1.19 2.82 2.38 4.78 7.49.85.35 0 5-1.25 2.94-.5 1.89.57.87 2.19 1.24.53 2.91-.74 3.37-1.54 2.56-2.05.96-2.74.69-2.4 1.09-1.03 2.25-1.25.3-11.33 11.07-2.17 1.52-2.37.74 0-1.43 1.65-1.44 3.98-5.66 5.93-4.3 1.41-1.52 1.3-4.4-2.31-1.24-7.14 1.37 0-1.42 6.52-4.26 2.17-2.62 1.41-1.27 1.79-.51 1.17-1.56.69-3.44-.24-3.42-1.62-1.57-1.32-.96-1.39-2.31-.97-2.81-.06-2.47-3.43-1.73-1.55-1.41-.66-1.86.3-1.19.51-3.18.21-3.27-.61-1.52-1.05-.94-.95-2.08-1.27-2.03-2.02-.79-1.51.56-4.27 3.73-1.89.71-4.27-.71 0 1.18-3.26 6.67-.42 2.63 1.44 1.33 3.51 1.04 1.1 1.26.98 1.5 1.16 1.2 1.65.33-.73-2.24-.79-3.22-.23-3 .94-1.53 1.49.73 1.02 2.29.56 2.71.18 2.05.57 1.29 1.12 3.24.77 3.31-.41 1.49-.85 1.17-1.9 5.51-.93 1.88.17-1.89.61-3.74.04-1.5-.35-1.49-1.05-2.74-.23-.76-.99-1.98-2.28-2.1-2.46-1.7-1.61-.76-1.09.2-1.18 1.38-1.06-.03-.82-.66-.59-.95-.39-.87-.24-.38.19-1.5 2.74-9.8-.46-.46-.12-.04-.31-1.05-3.02 3.66-3.14 2.38-1.89 2.58.72 4.23 2.69 3.94.34 2.27-1.41 3.78-1.19 1.65-1.05.1-1.35-.42-2.19.09 0-1.42 1.43-.22 1.2-.77.93-1.37.6-2.04-1.85.62-1.78 1.4-.99.39.46-2.41 0-1.3-1.63-2.98-1.13.81-1.9.81-1.8.17-.8-1.02-.75-.52-5.03 2.73 0-1.43 5.43-3.81 1.01-2.31-3.17-2.44-2.72.48-1.46 3.05-1.1 3.4-1.65 1.63-2.32.85-7.24 4.64-3.56 5.12-1.4 1.19-.63-1.03.26-1.94.63-1.36.8-1.36.75-1.84-1.95.45-3.67 1.97-2.17.44-6.74-2.97-1.85.11-1.18 2.18-1.91 6.46-1.39 1.35-.52 1.63.46 3.64 1.36 6.13-1.01 1.12-.76 3.83-.68.85-1.12-1.01-.34-4.86-1.13-1.22-.85.78-2.33 5.03-1.35.82-1.19-.15-.94.52-.6 2.94.74 0-.32.76-1.24 2.09-1.36-1.2-1.35-.25-1.24.45-1.01 1 0 1.55 4.54 5.68 2.68 2.67 3.53 1.47-2.96 1.98-1.58.62-1.66.23-1.55-.65-1.13-1.19-1.13-.59-1.56 1.13 1.51 3.9 2.17 4.26 2.79 3.01 3.39.18.09-.63.04-1.36.19-1.46.5-.93.62-.19 2.19.19 1.6.76 1.34 3.7 1.57 1.34-1.75.48-4.7-.85-1.69 1.79-.06 3.43 1.91 2.19 2.64 1.14 2.1.32 0 1.41-2.46-.03-6.65-2.67-5.62 1.07-2.62-.23-2.35-2.38-1.33 1.14-1.59 2.17-1.16.93-1.46.37-1.18-.03-.88.49-.48 2.01 2.79.28 4.31 3.16 4.49 1.6 6.34 6.39-2.21 1.12-2.15-1.22-1.92-2.43-1.5-2.47-1.38-.54-5.37.27-1.85.9 2.24 2.27 8.36 2.1 0 1.29-3.24-.08-6.26-2.1-11.99-.32-3.04 1.21-8.5 6.21-1.35 1.55-.34 2.49-.92 1.51-1.41.73-1.74.2-1.67.58-.27 1.34.8 1.46 1.55.99 0 1.28-.64.72-.35.71-.24.74-.41.78 2.11-.05 9.88 3.82 1.13 1.14-.96 1.99 2.08 1.38 9.03.03 2.4 1.73 1.53.43 1.26-2.84 1.4-.54 2.89-.19.74-.33 1.25-.88.8-.19.95.34.11.8-.11.92.53 1.44 1.15 1.67 1.26 1.03.59-1.2.99-3.91 1.99-2.82 1.55 0-.38 4.54.81 0 1.79-1.91 1.48 1.8.35 2.92-1.61 1.56-2.26.61-1.81 1.52-2.9 3.5 0 1.26 1.74-.42 1.68-1.03 1.6-1.37 5.58-6.24 3.04-1.55 3.05-3.98 1.8-.89 1.72.62.83 1.47-.16 1.87-1.24 1.81 0 1.27 2.48-1.31 4.34-3.59 8.15-1.39 2.37-1.22 2.28-2.21.25.65.09.14.12.06.36.43-.63 1.79-1.37 6.65-1.49-.31-.9-.76-.84-.92-1.28-.83.34 5.12-5.53 5.09.3 3.99-6.52 5.5 1.55 1.94 1.76.83 3.94.15 0 1.54-3.8.87-5.41 3.76-1.52.3-9.73 1.93-.31.07-3.55 1.79-3.47 2.5-.09-1.25-.16-.1-.48-.18-.33-1.28-.87-2.23-.9-.64-.42 3.53-.12 4.09-.34 1.62-.72.65-1.96.69-13.88 9.84-3.45 1.04-1.44.93-1.2 1.35-.53 1.54.18 2.16.65.65 11.84-.01 2.58.7 2.55 1.63.89 1.91-2.39 1.47-2.75-2.31-1.48-.55-.65 2.1.34 1.67.85.55 2.43-.18 2.26.35 2.3 1.03 2.17 1.75 1.87 2.46-8.42-1.59-1.37.88-.71.99-1.61-.4-2.63-1.29-1.06.78-1.39 2.43-.8.98 0 1.52 1.83 0 2.19.66 1.81 1.19.75 1.57.79 2.27 1.86 1.13 2.16.67 1.71.89 0 1.39-3.9-.19-1.84.42-1.59 1.28-2.49-3.82-1.38-1.35-3.37-1.37-.75-1.99-.35-2.35-.7-1.92-3.35-1.7-7.29 1.47-3.3-2.55-2.45 2-2.59.78-5.88 0-1.82-.43-2.67-1.92-1.91-.69-2.07-1.28-1.37-1.2-.64.36-.65.69-.84.28-7.23-1.72-4.04.49-1.76 3.4-.83 5.34-2.05 4.11-2.67 2.72-2.68 1.14.73 2.99-.18 2.85-.46 3.13-.09 3.68-.75 0 0-4-.96-3.12-1.51-2.33-5.78-5.26-.56-1.9 2.29-1.62 0-1.52-2.59-1.27 0-1.4.67-1 .3-1.45-.19-1.65-.78-1.61-.25.6-1.22.43-2.12.38-.62-.89-.97-3.84-.89-.86-1.05-.13-5.35-2.56-1.45-.25-1.13.9-.89 1.17-1.37 1.12-1.46.81-1.16.32-9.48-1.38-.95-.64-1.65-1.8-1.03-.36-1.33.25-2.24 1.03-1.33.24-20.48-1.52-2.31-.65-4.54-2.89-2.53-.65-6.98 1.91-.24 1.5.71 2.94 1.3 2.09 6.25 1.4 2.23 1.33-2.61-.57-1.12.09-1.17.48 0 1.41 2.45 1.43.93 1.12.7 1.75-2.64-.45-4.18-3.1-2.59-.75-1.81 1.23-1.93 2.88-.77 3.29 1.62 2.49-1.77 1.09-1.58 2.3-1.64 1.47-1.97-1.37-2.16-1.01-2.83-.2-1.85-1.21.76-3.99 3.02 2.86 2.97.36 2.84-2.29 2.65-5.12-.58-.15-.12-.15.01-.32-.19-.64-1.17.96-1.06 0-.98-.87-.87-1.61-1.69 1.21-2.11-.26-2.06-1.08-1.55-1.28-.43-.98-.16-1.32-.27-1.22-.7-.66-1.17.08-.5.8-.29 1.05-.48.87-5.28 3.11-1.31 1.2-.96 2.39-.66 2.69-1.08 1.87-2.27.02 1.35 1.8 1.51.77 3.74.08-1.39 2.53-1.35 1.31-1.01 1.69-.4 3.67-.6 2.35-2.7 5.8-.71 2.41.19 3.9 1.09 2.07 1.77.83 2.23.15 2.04-.79-.27-1.78-1.47-1.89-1.57-1.1 2.31-1.34 1.02-.05-.3-3.89-.59-1.21-1.55-.6 0-1.26 2.55-1.44 1.46-.33 1.69.25 0-1.4-.56-.68-1.06-2.11 2.28.53 2.01-.8.66-1.72-1.7-2.17 1.77-2.16 2.71 1.06 6.19 5.26-.74 1.72-1.13.87-1.41-.06-1.61-1.13 4.13 4.69 1.51 2.4-.79-.45-1.63-.57-.78-.5.69 2.43 1.46 1.95 3.63 2.71-2.14 1.27-5.39 1.61-2.32-.09 2.42 5.31 3 2.51 3.36-.71 3.45-4.34-.82 0 0-1.39 1.24-.22.63-.26.14-.75-.31-1.67 3.11-1.07 1.38.08 1.15.99-3.34 2.9.89 1.39-1.54.88-1.05 1.24.03 1.18 1.67.73-1.38 1.84-1.59.51-1.31.93-.54 3.04.4 3.02.86 1.67.87 1.1.39 1.28.41.71 2.01-.25.77.16.57.98.01.85-.08.98 1.39 5.06.82 1.48 1.37.49-.75-1.53 0-1.26 1.65.27 1.15 1.17.97 1.51 1.12 1.21-.48 2.4.21 2.23.04 1.66-1.02.64-1.38-1.09-.48-4.75-1.4-1.09-1.64-.42-2.65-1.93-1.05-.55-5.71 1.53 0 1.37.89 0 0 1.26-.38 1.4.04.89.34 1.87-2 1.49-.74 5.64-1.48 1.17 3.94 4.19 6.47-1.53 11.75-6.69 17.03.09 3.41 1.29.65-.66.49-.36.51-.2.8-.16-.26 1.87-.51 1.59-.73 1.23-.95.84 2.22 1.31.97.08-4.13 3.42-1.27 1.83.51 1.66 0 1.38-.76.15-.55.37-.49.44-.65.42 4.79 2.43 1.81.33 0 1.49-22.16 4.03-1.33-.58-2.42-1.59-.69.1-1.22 1.28-1.28.45-2.83.34-3.24 1.25-4.52.83-1.14.8 1.06 3.69-.73 3.09-1.32 3.31-.71 4.31 1.7 9 9.69 6.01 5.19 2 8.32-.72 2.07 1.09 0 1.25-9.35-.62-5.71-1.03-2.51-1.82-1.25-.53-1.61.15-4.1 2.6-3.4.93-9.3-.93-4.55 1.04 1.77 2.44 7.26 4.87-1.26.83-1.68 2.53-1.14.52-1.76-3.09-.68-.79-5.37-1.43-5.3-.06.25.92.39 2.31.25.9-3-.18-2.89-.9-2.78-.07-2.74 2.39 1.16 1.12 1.4-.12 3.48-1 1.13 1.02 1 2.3.67 2.38.12 1.28 2.49 2.89 4.52 1.94 4.49.9 2.36-.25-1.02 2.22-2.41-.42-2.93-1.33-2.6-.47.65 1.84.89 1.32 1.15.76 1.39.18 0 1.5-1.8 1.96-1.81.24-4.55-.96-2.5.34-1.76 1.22-1.27 2.18-1.06 3.22 2.21-.03.96-.42.98-.92 1.69 1.94 2.87.28 4.81-.85 1.66.57.88 1.44.72 1.78 1.22 1.67 1.38.83 1.56.41 4.74-.07 2.02-.94 1.34-.23 1.3-.76-.05-1.85-.34-2.26.35-1.96 1.34-1.29 1.09.14 1 .74 1.1.41 1.17-.51.82-1.08.92-1.01 1.53-.25-1.02 2-2.34 1.67-.65 1.8.68 2.25 1.82.19 1.58-1.02-.07-1.42 2.67-2.05 1.32-.57 1.78 0 0 1.37-2.51 1.25 0 1.49 4.14 0 0 1.25-1.79 1.67-4.87 3.3-2 .6-1.6.07-1.05.29-.82.78-.43 1.47-.24 2.26-.61 2.54-.52.79 1.87 1.34 5.21-1.22 2.34 2 1.98 2.34 1.95 0 5.65-2.56 1.86-2.33 2.86-5.14 1.28-3.17.97-1.52 1.45-.65 1.63-2.12.74-.75.52.35.5.73.68.4.08 1.58-1.21 3.52-.55 3.73 2.13 2.24 2.29-.92 1.06-2.94-.23-3.45-1.57-2.37 1.81-1.25 2.11-.34 4.3.2-4.46 2.61-1.31 1.49 4.82 4.74-.31.72-.37.44-.78 1.87-.47.43-.87-.2-1.18-.85-.39-.18-2.38 1.72.98 9.02-2.3 4.13 0 1.48 1.92 2.4 1.85-.31 1.39-2.54.53-4.31 1.12-3.68 2-.05.87 2.32-2.28 3.46 1.58 1.68 1.04 1.95 1.37 1.82 2.54 1.22 4.97.02 2.65-.73 1.78-1.34 3.76-1.87 38.72-3.19 4.16-1.87 2.41-.42 9.48 1.36 0 1.37-1.58.78-3.09.92-1.12 1.01 0 1.25 3.34 0 0 1.35-2.33.14-5.42 1.38-2.1 1.32 1.69.86 11.8.38 1.02-.24 2.24-.96 1.26-.04-3.99 3-1.88 2.16-1.54 3.02.81 1.22.58 1.51 1.06 4.06-1.76-.4-1.48-.8-1.28-1.23-1.19-1.64.64-1.9-.94-.25-1.36.62-1.38 1.55-1.54-.26-2.76-1.26 0 1.5 4.97 2.84 0 1.23-2.31-.28-3.65-3.04-1.86-.75-7 1.35 0 1.49 5.23 1.69 1.71 1.79-.34 3.18-2.84-1.7-2.66.73-2.46 1.58-2.27.87-2.62-1.14-5.6-5.33-2.82-1.67-2.52 1.05-2.08 3.47-1.64 4.24-1.98 3.34-2.59 2.81-6.38 12.22.89 1.35-1.3.9-1.13 1.4-3.53 6.01-1.42 1.83-3.37 3.4 3.14 1.13 9.37-.5 2.25.72-1.34 3.84-7.43 7.2-.2 2.6 0 1.35-.99.85-.47 1.25-.37 1.54-.7 1.75-1.08 1.8-1.24 1.62-1.29 1.25-1.27.73.89 1.47-.34 1.37-.32.28.02.1.64.82-.9 1.84-.39 2.23-.48 1.88-1.16.8-1.33.23-2.23.99-1.34.25-3.74-.46-1.54.46-1.14.65-1.72 1.4-1.29.62.49 1.97.31.73-24.16 23.34-6.15 1.64-5.09 3.68-2.16 1.01 0 1.22 21.35-2.99 3.18-2.38.86.35 1.09.72.91-.32.4-2.76 1.09-2.23 2.59-1.18 5.29-1.17 9.02-4.27-.5-1.52-.76-1.19-.95-.8-1.12-.39 0-1.34 4.36-.14 1.3 1.12-.61 3.05 1.61 1.66 4.09.57.82 1.12 1 1.74 2.3 1.01 2.59.48 6.06-.22 8.72-2.78 3.78-2.37.04 2.67-1.98 2.05-2.61 1.74-1.91 1.72 1.24.84 1.43.55 1.51.17 1.47-.2 1.19-.87 1.9-2.63.61-.55 10.63-1.22 2.26-1.21 10.57-14.37 3.87-7.39.27-2.54 2.78-2.62 3.75-2.05 3.13-.87-.92 1.13-1.32 2.56-1.01 1.59 1.83.74.3 2.05-.18 2.35.5 1.7 0 1.35-1.52 1.36.15 1.25 1.33.94 2.03.36 7.78-1.23 3.94.82 7.78 3.15 2.17.04-4.04 1.38-20.89 2.69-1.32.74-.95 1.7-.75 1.81-.7 1.12-1.73.81-2.42.49-2.18-.49-.98-2.16-2.18 1.51-14.53 4.65-1.71 1.22-1.62 1.71-1.94.78-4.25.87-7.61-.16-1.74.83-.99-.31-.45-.01-9.06-.34-.97.18-.77.6-.87 1.28-1.2.95-1.2-.39-1.1-.86-.94-.43-9.49 0-4.89-1.34-1.27.48-.94.91-.76.55-.66-.6-2.82 3.43-.44 1.39.29 2.34-.2 1.15-.98 1.19 0 1.34.71.99.23 1.03-.25 1.01-.69 1 2-.24 1.89.39 1.4 1.31.49 2.66-1.99-1.05-3.11-.82-3.12-.08-2.04 1.23-1.79 2.67-1.59 1.35-11.87 5.55-8.06.55-2.28.79-1.78 1.85 2.17 2.4 3.34 1.62 6.3 1.19 1.97 2-.38 9.54 1.33 3.28-3.03 1.17-1.19.04 0 1.44 1.02.13.78.29 1.54.92-1.83.87-1.24 0-1.12-.79-1.45-1.42.28 1.8.46 1.48.66 1.19.9.98 1.8-1.34 1.79.46 3.89 2.21 3.77.06 1.7.53 1.88 1.96-8.64 1.19-1.97-1.19.75-.72.82-.61-1.46-.62-1.39.77-2.49 3.23-1.69.99-4.95-.08-4.03-.89-3.66-1.71-1.94-.36-1.72-1-.48-2.44-.09-3.05-.56-2.84.56-2.01-1.34-.74-4.18.1 2.84 3.76-1.06 4.12-3.17 3.5-3.51 2.05-7.81 1.21-.23-1.19 1.45-7.4-1.89-1.6-12.4 3.65-1.34.88-2.63 4.24-1.37 1.42-2.3.53-1.78-.07-1.42.78-1.1 3 .5.24 1.21.95-1.4 1.73.06 1.41.41 1.35-.33 1.57-1.2.71-1.49-.55-2.64-2.22.88-2.65-2.26.67-2.56 1.45-1.39 1.73 1.24 1.57 0 1.21-2.21 2.07-1.04.59 1.06 3.9.21 3.28.81 2.36 2.88 1.09 2.55-.44 4.72-2.26 2.58-.09-1.23-.61-.36-.6-.11-1.31 2.8.01 5.66 1.99 3.03.52 0-1.2-1.97-1.03-1-.3-1.18.01 0-1.21 3.33-1.06 1.34.11 3.07 3.12.88-.51.81-1.17 1.23-.49 1.26 1.14 1.18 1.88 1.29 1.16 2.85-1.81 16.04-4.06 3.61.24 1.71.49 1.57.82 1.16 1.3.71 3.14.55-.86.75-2.23-1.56-3.99 23.72-1.33-4.15 2.66.65.58 1.02 1.33.85.75-8.88 1.2-3.74-.19-3.69-2.22-2.53 11.47.39 1.79-1.67.07-1.67-.35-1.12-1.52.01-3.49-.89 0-2.57 6.61-4.85 2.87-11.33 2.44-7.6 3.63-3.05 2.11-3.35.75-2.48 1.28.93 2.83-1.45.8-2.95 1.06-1.38.9 0 1.2 2.25.31 1.22 1.91 1.03 2.16 1.69 1.03.41.61.08 1.32-.39 1.32-.96.6-2.08 0-9.91 3.56-3.94.52 0 1.32.41.03.82-.09.41.06-.11.93-.21.52-.25.47-.25.72.17.11.3.02.28.27.07.92-.83 2.13 1.55.34 2.41-.23 1.75.39.75 2.57-1.41 5.64.66 2.47 1.82-1.14 3.7-3.52 1.45-.74 1.36-1.05 3-4.62 1.37-1.05 4.83 2.31 2.04 4.91-1.08 4.64-4.56 1.45 11.29 5.36-.7 2.54 2.92-.94 3.18-1.91 2.99-2.46 2.4-2.59 2.7 1.44 2.76-1.22 5.22-4.17 1.38-.47 2.88-.45 1.43-.51.73-.8.67-1.05.99-.79 1.69 0-.22.96-.34 2.19-.25.92 1.31-.33 3.58-2.31-.74-1.43 1.84-.62 3.93.01.74-1.26 1-1.24 2.28-1.4 12.52-4.79 8.65-1.14 0 1.45-3.8 1.29-6.98 3.96-3.88 1.21-3.14-.25-.93.25-.63.83-1.38 2.58-2.37 1.33-3.05 3.56-1.61 1.06 0 1.19 2.39 1.14.93.17 0 1.31-4.57.14-2.09-.37-1.56-1.08-.25 3.22-1.36 1.93-1.98 1.01-2.12.43.62-1.08.64-1.98.38-.89-3.15.79-4.12 2.03-3.74 2.92-2.04 3.48 4.89 0 0 1.43-5.6 5.46-2.62 1.11-4.86-.41-2.59.53-1.52 2.38 1.86-.12 1.74.55.96 1.38-.48 2.39.38.19.3-.04.14.19 0 .84-1.82 1.14-8.15 2.27-.71.53-.41 1.04-.06 1.17-.24 1.06-.91.68.81 1.43 2.08-2.13 2.69-1.23 5.5-.7 1.21.23 2.34.98 1.37.22 2.87-2.32 7.51-2.45.66-.49.41-.65.09-.73.03-.71.22-.52 1.75-1.38 4.92-2.23 15.07-2.16 4.11-1.74 7.81-.84 2.54-.81 2.32-1.47 3.31-3.45 1.62-1.18 2.41-.64-1.28-2.1-.08-1.64.16-1.78-.51-2.5 1.2.41 1.18.69 1.02.85.75.81.11.76-.23 2.43.12.75.47.26 1.04-.07 2.74 2.19 2.03-.83 1.86-1.11 1.71.88 0 1.2-.54.56-.52 1.14-.56.93-.25 3.11-3.5 1.59-4.4 1.04-4.43 2.35-3.9.5-1.6 2.53-14.71 7.98-4.67 1.66-1.07 1.81-.85 1.79-1.15.82-1.11.48-5.04 3.33 7.46-.59 23.04-11.77 5.51.56-2.49 1.64-4.3 1.98-2.26 1.76-5.22 6-2.11 1.73-2.61 1.31-4.19 1.14-2.16 1.49-4.26 4.29-2.17 1.56-2.61.81.9 1.83.5.45 1.05.34 0 1.19-.44.82-.22.89-.16 2.45.82-1.42.8 1.42 3.43-3.16 1.07-.4-.34 2.14 8.15-3.93-.54-.18-.33-.27-.76-.85 6.51-5.95.8-1.67 1.69.95 1.45 2.14.15 1.91 2.04.05 1.35-.59 2.3-2.2.82-.12 2.1.17.41-.64.17-1.88.47-.78 8.47-1.87 3.41-1.65-1.02-2.29 1.58-.76 2.17.38 1.94 1.03.83 1.2-.48 2.73-.8 2.11-.15 1.84 1.43 1.96 2.48-2.2 1.12-1.34.47-1.1 3.82-2.33.99-1.02.29.66.11.21.15.13.35.44-1.49 1.42-2.94 2.01-1.28 1.69-1.08 2.64.47.64 1.4-.63 1.73-1.22-.77 1.93-.91 1.34-1.1 1.01-1.37.95 3.84-.08 1.67-.57 1.38-1.31 1-.72.94.06.68-.27.27-1.69 3.27-2.08.24 1.03.31.8.25.9.08 1.31 1.4-.74 1.1.35 1.08.55 1.31-.16.96-1.18.58-1.58.82-1.21 1.72-.07 0-1.19-.35-1.92.95-.31 3.1.8 1.83-.35 1.8-1.04 1.49-1.66.95-2.2-1.02-.91-.53-.28 0-1.42 1.5.41 2.68 1.66 1.53.54 6.59-1.43 1.78-1.02 1.39-.16 1.34.44 2.38 1.78.81.39.32.83 1.01 1.4 1.06.46.5-2.03.68-.43 4.21-1.42 1.13-2.23 1.26-3.32 1.69-2.2 2.44 1.09.81-.94.76.1.92.52 1.26.32 4.4 0 .96.82.84 1.26.87.73 1.05-.8 4.51.6-.55-2.2.12-1.75.75-1.43 1.31-1.18-2.44-1.19.76-.77.79-.55 0-1.43-4.36-.01-2-.74-1.72-1.88 14.27 1.45 5.85-1.63 1.97.18 1.66 1.34 1.71 3.87 1.51 1.36-.22-2.21-.55-2.9-.12-2.12.32-1.22 1.83-4.55.75-.22 1-.56.82-.87.25-1.1-.54-1.48-.73.22-1.11 1.26-1.25-.45-2.43-.26-1.2-.73 0-1.2 5.48.06 2.55 1.42.85 3.91 1.79-1.09.58-2.11-.61-2.23-1.76-1.39 1.44-.47 1.93.76 1.67 1.61.74 2.17 1.57-2.19 1.48-1.11 4.47-1.1 3.21-1.77 1.3-2.03 3.95-4.43.52-1.51-.27-1.1-.5-.94-.16-1.06.38-.73 2.07-3.22-4.16 0 .77-.59.78-.43 1.72-.41-.5-.31-1.06-.9 0-1.43.81 0 0-1.21-1.38-.42-4.47.42 2.16-6.07-2.97-2.25-5-.74-3.98-1.49 2.45-1.41 2.43-.32 4.91.28 2.21-.66 2.21-1.05 2.05-.48 1.02 1 0 1.19 4.9-.17 2.43.54 1.55 1.08 1.04-1.48.93-.63.79.44.58 1.67-.98.66-.58.79-.89 2.51 1.15.07.75.37.62.47.75.41-1.53 1.78-1.61 1.16-1.67.68-1.72.33.55 1.83.27.7-1.1.32-1.05.67-.8.99-.31 1.37.52.69 1.19.13 1.37-.1 3.29.32 7.52-.74 4.54-1.81 9.02-1.89 1.96-1.16-2.26-2.64 1.78-2.36 6.26-2.78 4.96-1.09 2.71-1.18 1.3-1.95-1.44-.55-3.53-3.28 2.51-.17 2.02-1.24 1.72-2.02 1.57-2.58.31-1.65.13-4.61.15-.38.23-.58 1.36.82.53 1.77.19 1.77.37.81 12.66 1.72.7-.98-.03-2 1-2.7 2.48-1.26 6.34.7 2.25-1.37.99-.8 1.19-.22 1-.4.42-1.35.45-5.9 3.77-2.77.7-2.37-.19-.83-.88-.19-3.55-1.62-2.18-.6-1.84.29-1.17 1.46-.45-3.18 1.45-2.56 2.27-1.71 2.07-.62.38.58.35 1.29.51 1.36.83.75 1.19-.22.64-.95.45-1 .57-.48 4.43-1.03 8.22-4.47 22.88-2.47 4.51 1.09 2.22 0 2.38-1.09.77-1.02.55-1.33.8-1.14 1.48-.5.95.22 1.54.9 1.24.21-.42-.83-.25-.66-.34-.6-.68-.57 0-1.21 1.65-.2 1.49.23 2.63 1.18-3.37 4.59-.71 2.18 2.56-.66 5.39-.17 2.66-.62 2.06-1.62 3.45-4.78 1.89-1.57 0-1.33-2.96.05-.28-1.89 1.53-4.82-.4-1.92-1.67-3.25-.37-.93-.08-1.95-.15-1-.31-2.1-.35-2.27 1.51 2.06 1.75 6.09 1.34 1.29 1.26.69 1.39 1.59 1.18 1.83.69 1.34 2.06 7.91-.02 1.93-1.35 1.45-1.51.98-1.42 1.28-1.1 2.39 2.01 1.22 1.62-1.62 1.35-2.45 1.21-1.26 8.64-5.31-.9-1.33.4-.02.84.1.39-.08 0-1.44-.81.08-.82-.08.88-1.24.37-1.12.38-2.86-.73 0-.42.54-1.29.93.32-1.44-.02-.61-.17-.62-.13-1.57.81-1.21 2.34 1.07 2.35-1 2.03-2.04 1.43-2.03-.22 3.03-1.21 2.45-1.72 1.71-1.81.79 0 1.47 2.3.54 8.44-1.28 8.85 2.7 2.19 1.18 3.1 3.33 2.08.27 5.04-2.99 5.71-1.21 2.04-1.4 1.22-.04 1.64 1.44-2.45 0 0 1.21 5.2-.04.35-.19.21-.38 1.45-1.26 1.04-1.51.71-.37 1.4.16.16.86-1.07 2.39-.88.91-.26 1 1.54 1.2 1.14.22.86-.35 1.2-1.2 1.53-2.16 3.42-8.48-6.14-6.21-2.38-4.48 2-4.08 0-1.21-2.86 4.8-1.46 1.73-.64-2.05-1.1-1.6-3.73-.84.76-2.04-.9-2.57-1.36-2.15-1.66-1.52-1.8-.68 0-1.22.93-.93.96-.76 1.03-.57 1.09-.41-.71 3.52 2.48.8 6.93-.57 1.08.4.95.93.83 1.48.21-2.61-.22-3.41.08-3.57 1.11-3.03 2.74-5.02 1.85-2.61 2-1.12 2.16-2.63 7.24-12.02 1.57-3.42.32-8.39-.32-3.02-1.24-5.58-.13-2.95.63-3.67 5.59-10.01 2.08-4.89.38-.91-.72-4.38 2.84-9.4 1.32-2.86 1.4-1.84 5.12-4.9-.89-1.47 4.05-9.43 1.31-1.38.61-.84 1.2-3.72.64-.86 1.55-.68-.37-1.48-5-5.73-1.57-3.07.5-3.19.96-2.98.67-4.72.16-4.83-.56-3.25.41-.37.12 0 .07-.12.2-.75-4.09-8.62-1.6-2.36.84-3.6-.71-2.18-1.4-1.71-.02-.06-1.23-2.11-.68-2.94-.2-2.74.13-4.4.4-.82.61-1.64 0-1.6-1.44-.71-.9-.23-1.25-1.02-3.35-.8-1.58-1.39-2.34-3.51-2.79-2.95-.81-1.7.34-2.18 6.96-5.47.86-.23 2.09-1.01 1.13-.23.47.44 1.49 1.95.48.47 1.69.9 1.62 1.42 1.51-.1 1.33-3.61-2.17-1.42-4.92-.31-1.94-.99.42-.63.78-1.47.42-.64-1.11-1.44-.43-2.35-.57-2.21-7.66-3.7 1.93-1.52 2.42-.84 2.09.34.89 2.02 1.07-1.5 1.39-3.64.87-1.7.28-1.6.55-1.32 2.03-3.25.79-2.78-.29-2.99-.85-2.69-.95-1.83-2.39-1.73-3.59-1.76-3.26-2.25-2.06-4.91-1.3-.88-1.8-1.23-1.16-1.11-.85-2.11-.78-2.88-.59-2.98-.53-8.88-.32-5.27.62-5.41 2.45-2.78-2.65-2.14-1.2-3.1.12-3.58 1.29-3.59 0-1.51-8.84-1.21-4.01-2.09-2.64-3.62-.72-3.57.08-3.64.64-5.99.8-3.37 1.48-2.68.72-1.91-1.43-.99 0-1.53 6.3.84 8.35 3.66 1.71-.32 1.63 1.39 2.81 1.8 2.96 1.07 2.06-.81 3.88-4.64.44-2.5-2.29-3.38-.88-.63-1.03-.38-2.54-.25-.73-.65-1.72-2.88-.85-.64-1.86-.97-7.51-7.37z" /></g></g></svg>