<?xml version="1.0" encoding="UTF-8" standalone="no"?>
<svg
   xmlns:dc="http://purl.org/dc/elements/1.1/"
   xmlns:cc="http://creativecommons.org/ns#"
   xmlns:rdf="http://www.w3.org/1999/02/22-rdf-syntax-ns#"
   xmlns:svg="http://www.w3.org/2000/svg"
   xmlns="http://www.w3.org/2000/svg"
   xmlns:sodipodi="http://sodipodi.sourceforge.net/DTD/sodipodi-0.dtd"
   xmlns:inkscape="http://www.inkscape.org/namespaces/inkscape"
   version="1.1"
   width="800"
   height="800"
   viewBox="0 0 800 800"
   id="svg8"
   sodipodi:docname="Ireland.svg"
   inkscape:version="1.0.1 (3bc2e813f5, 2020-09-07)">
  <metadata
     id="metadata14">
    <rdf:RDF>
      <cc:Work
         rdf:about="">
        <dc:format>image/svg+xml</dc:format>
        <dc:type
           rdf:resource="http://purl.org/dc/dcmitype/StillImage" />
        <dc:title></dc:title>
      </cc:Work>
    </rdf:RDF>
  </metadata>
  <defs
     id="defs12" />
  <sodipodi:namedview
     pagecolor="#ffffff"
     bordercolor="#666666"
     borderopacity="1"
     objecttolerance="10"
     gridtolerance="10"
     guidetolerance="10"
     inkscape:pageopacity="0"
     inkscape:pageshadow="2"
     inkscape:window-width="1920"
     inkscape:window-height="974"
     id="namedview10"
     showgrid="false"
     inkscape:zoom="0.47177599"
     inkscape:cx="528.88155"
     inkscape:cy="400.18476"
     inkscape:window-x="-11"
     inkscape:window-y="-11"
     inkscape:window-maximized="1"
     inkscape:current-layer="svg8" />
  <g
     id="g6"
     transform="translate(-200.0135,-0.12705617)">
    <g
       stroke="#000000"
       stroke-width="0.98"
       fill="#000000"
       id="g4">
      <path
         d="m 801.09,271.47 0.75,-1.37 2.52,1 3.58,0.26 3.18,1.18 1.38,3.74 1.53,0.12 9.14,3.41 -0.96,0.21 -2.38,1.18 v 1.26 l 2.09,1.53 1.89,0.37 4.67,-0.38 1.58,-0.77 5.07,-3.88 3.69,-3.94 5,-2.57 2.17,-2.72 1.26,-3.28 1.03,-4.03 0.73,-4.23 0.32,-3.91 -0.03,-0.75 -0.23,-7.01 0.71,-2.46 2.36,-0.92 2.34,-0.44 5.16,-1.9 5.08,-0.53 6.93,0.6 1.45,1.5 0.39,1.63 0.92,0.24 1.06,-0.51 0.82,-0.59 0.82,-4.19 0.55,-0.2 1.35,0.36 0.54,-0.16 3.96,-4.12 3.16,-4.66 1.47,-5.9 -1.17,-7.8 -3.49,-3.74 -5.06,1.44 -5.52,3.28 -4.83,1.82 1.3,-2.16 4.36,-3.54 0.94,-1.93 3.34,-10.69 -0.9,-1.28 0.61,-1.33 0.15,-0.59 0.14,-0.89 -1.54,-0.52 -0.73,-1.76 -0.02,-2.38 0.57,-2.48 -3.62,-2.04 0.76,-0.92 2.63,-0.51 1.95,-0.74 -1.36,-1.19 -4.43,-0.33 -0.89,-0.66 -1.06,-1.07 -1.33,-0.88 -1.68,-0.07 1.14,-1.23 1.03,-1.76 0.33,-2.04 -0.87,-1.99 v -1.43 l 3.59,0.19 3.22,1.86 8.31,7.98 2.06,3.51 1.28,4.7 0.43,6.42 -0.59,3.08 -2.75,3.53 -0.81,2.42 0.22,2.26 0.85,2.32 1.26,1.81 1.41,0.73 1.21,4.06 1.12,2.87 1.41,1.47 1.65,-0.32 1.48,-2.88 1.76,-1 -1.7,-2.25 0.61,-1.64 1.57,-1.39 1.15,-1.58 0.46,-3.41 -0.83,-3.39 0.74,-2.5 2.3,-3.59 0.6,-1.26 0.04,-1.07 -0.36,-0.81 -0.13,-1.12 0.81,-1.96 -0.75,-0.55 -3.77,-5.84 -0.51,-2.85 -0.71,-8.1 -0.82,-1.7 -2.01,-1.19 -1.41,-2.96 -1.87,-7.23 -0.33,-2.12 -0.05,-1.75 -0.4,-1.19 -1.26,-0.44 -1.14,-0.66 -1.47,-2.92 -0.68,-0.65 -14.32,2.35 -2.62,-0.24 -1.89,-1.47 -1.85,-0.71 -2.58,1.2 -4.09,3.1 -4.2,2.04 -1.17,1.34 -2.65,4.31 -1.31,1.27 -0.63,1.31 -0.91,1.03 -1.49,-0.17 -0.31,-1.01 -0.12,-1.84 -0.5,-1.81 -1.44,-0.97 1.54,-2.87 2.81,-5.25 2.3,-3.1 3.12,-2.88 3.22,-1.73 7.1,-2.13 3.53,-1.77 2.68,-3 1.71,-4.59 0.33,-5.78 -1.45,-6.54 -2.23,-3.38 -3.7,-3.29 -3.59,-1.01 -1.9,3.56 7.62,8.15 2.17,4.45 h -0.74 l -2.84,-4.32 -3.54,-1.43 -3.02,-1.91 -1.27,-5.72 -0.33,-3 -0.83,-2.55 -1.08,-2.09 -1.1,-1.63 -0.94,-1.06 -1.88,-1.63 -0.77,-0.92 -0.71,-1.56 -0.81,-3.35 -0.52,-1.41 -2.42,-3.56 -2.83,-2.69 -3.2,-1.68 -3.48,-0.58 -0.24,-1.44 2.16,-7.73 0.23,-3.76 -0.89,-1.91 -1.55,-1.34 -1.77,-0.78 -1.57,-0.22 -2.23,0.13 -2.27,-0.31 -0.92,-1.88 1.75,-4.49 0.81,-3.42 0.42,-11.67 -1.21,-2.22 -4.41,-4.95 -0.98,-0.56 -1.02,-1.57 -2.37,-1.14 -4.68,-0.85 -2.33,0.46 -4.55,1.95 -2.65,0.44 -1.91,-0.54 -11.58,-6.64 -3.02,-0.76 -4.51,3 -2.87,-0.86 -4.29,-2.65 -2.65,0.32 -2.59,1.35 -2.31,2.1 -1.83,2.53 -2,1.53 -8.26,0.62 -13.62,6.38 -15.43,0.76 -2.36,-0.94 -5.15,-3.5 -1.89,0.15 -0.73,2.93 -0.75,9.45 -1.38,2.03 -1.37,1.48 -1.43,3.42 -0.94,3.81 0.08,2.68 -1.76,1.29 -2.6,3.38 -1.36,1.01 -4.11,0.6 -4.11,-0.6 -5.2,-2.73 -2.14,-0.23 -5.43,1.62 -1.89,-0.08 1.15,-3.89 0.25,-0.85 1.52,-3.85 1.87,-3.44 5.23,-7.34 1.59,-1.52 3.24,-0.97 3.89,-2.1 4.06,-4.07 3.78,-2.48 3.99,-1.74 3.35,-0.66 3.56,-2.15 0.38,-4.29 -1.66,-3.2 -2.65,1.19 -2.48,-1.9 -5.42,-2.33 -4.47,-0.79 -5.94,-2.77 -1.8,-1.64 -6.12,-9.43 -1.6,-1.36 -4.59,-2.53 -1.95,-0.29 -8.22,-2.99 -4.04,-2.36 -2.16,-0.5 -1.89,1.28 1.03,1.38 1.44,1.27 3.17,1.92 0.28,4.9 3.58,4.59 7.63,6.15 -2.37,1.71 -2.65,-0.09 -2.63,-1.24 -2.28,-1.7 0.81,0.14 2.51,-0.14 -1.84,-3.82 -2.39,-1.21 -2.42,0.77 -4.55,4.96 -2.63,0.08 -2.53,-1.56 -2.38,-2.08 0.25,1.11 0.07,0.58 0.1,0.47 0.32,0.7 -1.87,1.33 -1.69,-0.29 -1.75,-0.8 -2.02,-0.24 1.28,3.34 -0.31,4.23 -1.3,3.64 -2.66,2.43 -0.02,2.04 0.46,2.23 0.51,1.4 0.92,1.19 2.82,2.38 4.78,7.49 0.85,0.35 v 5 l -1.25,2.94 -0.5,1.89 0.57,0.87 2.19,1.24 0.53,2.91 -0.74,3.37 -1.54,2.56 -2.05,0.96 -2.74,0.69 -2.4,1.09 -1.03,2.25 -1.25,0.3 -11.33,11.07 -2.17,1.52 -2.37,0.74 v -1.43 l 1.65,-1.44 3.98,-5.66 5.93,-4.3 1.41,-1.52 1.3,-4.4 -2.31,-1.24 -7.14,1.37 v -1.42 l 6.52,-4.26 2.17,-2.62 1.41,-1.27 1.79,-0.51 1.17,-1.56 0.69,-3.44 -0.24,-3.42 -1.62,-1.57 -1.32,-0.96 -1.39,-2.31 -0.97,-2.81 -0.06,-2.47 -3.43,-1.73 -1.55,-1.41 -0.66,-1.86 0.3,-1.19 0.51,-3.18 0.21,-3.27 -0.61,-1.52 -1.05,-0.94 -0.95,-2.08 -1.27,-2.03 -2.02,-0.79 -1.51,0.56 -4.27,3.73 -1.89,0.71 -4.27,-0.71 v 1.18 l -3.26,6.67 -0.42,2.63 1.44,1.33 3.51,1.04 1.1,1.26 0.98,1.5 1.16,1.2 1.65,0.33 -0.73,-2.24 -0.79,-3.22 -0.23,-3 0.94,-1.53 1.49,0.73 1.02,2.29 0.56,2.71 0.18,2.05 0.57,1.29 1.12,3.24 0.77,3.31 -0.41,1.49 -0.85,1.17 -1.9,5.51 -0.93,1.88 0.17,-1.89 0.61,-3.74 0.04,-1.5 -0.35,-1.49 -1.05,-2.74 -0.23,-0.76 -0.99,-1.98 -2.28,-2.1 -2.46,-1.7 -1.61,-0.76 -1.09,0.2 -1.18,1.38 -1.06,-0.03 -0.82,-0.66 -0.59,-0.95 -0.39,-0.87 -0.24,-0.38 0.19,-1.5 2.74,-9.8 -0.46,-0.46 -0.12,-0.04 -0.31,-1.05 -3.02,3.66 -3.14,2.38 -1.89,2.58 0.72,4.23 2.69,3.94 0.34,2.27 -1.41,3.78 -1.19,1.65 -1.05,0.1 -1.35,-0.42 -2.19,0.09 v -1.42 l 1.43,-0.22 1.2,-0.77 0.93,-1.37 0.6,-2.04 -1.85,0.62 -1.78,1.4 -0.99,0.39 0.46,-2.41 v -1.3 l -1.63,-2.98 -1.13,0.81 -1.9,0.81 -1.8,0.17 -0.8,-1.02 -0.75,-0.52 -5.03,2.73 v -1.43 l 5.43,-3.81 1.01,-2.31 -3.17,-2.44 -2.72,0.48 -1.46,3.05 -1.1,3.4 -1.65,1.63 -2.32,0.85 -7.24,4.64 -3.56,5.12 -1.4,1.19 -0.63,-1.03 0.26,-1.94 0.63,-1.36 0.8,-1.36 0.75,-1.84 -1.95,0.45 -3.67,1.97 -2.17,0.44 -6.74,-2.97 -1.85,0.11 -1.18,2.18 -1.91,6.46 -1.39,1.35 -0.52,1.63 0.46,3.64 1.36,6.13 -1.01,1.12 -0.76,3.83 -0.68,0.85 -1.12,-1.01 -0.34,-4.86 -1.13,-1.22 -0.85,0.78 -2.33,5.03 -1.35,0.82 -1.19,-0.15 -0.94,0.52 -0.6,2.94 h 0.74 l -0.32,0.76 -1.24,2.09 -1.36,-1.2 -1.35,-0.25 -1.24,0.45 -1.01,1 v 1.55 l 4.54,5.68 2.68,2.67 3.53,1.47 -2.96,1.98 -1.58,0.62 -1.66,0.23 -1.55,-0.65 -1.13,-1.19 -1.13,-0.59 -1.56,1.13 1.51,3.9 2.17,4.26 2.79,3.01 3.39,0.18 0.09,-0.63 0.04,-1.36 0.19,-1.46 0.5,-0.93 0.62,-0.19 2.19,0.19 1.6,0.76 1.34,3.7 1.57,1.34 -1.75,0.48 -4.7,-0.85 -1.69,1.79 -0.06,3.43 1.91,2.19 2.64,1.14 2.1,0.32 v 1.41 l -2.46,-0.03 -6.65,-2.67 -5.62,1.07 -2.62,-0.23 -2.35,-2.38 -1.33,1.14 -1.59,2.17 -1.16,0.93 -1.46,0.37 -1.18,-0.03 -0.88,0.49 -0.48,2.01 2.79,0.28 4.31,3.16 4.49,1.6 6.34,6.39 -2.21,1.12 -2.15,-1.22 -1.92,-2.43 -1.5,-2.47 -1.38,-0.54 -5.37,0.27 -1.85,0.9 2.24,2.27 8.36,2.1 v 1.29 l -3.24,-0.08 -6.26,-2.1 -11.99,-0.32 -3.04,1.21 -8.5,6.21 -1.35,1.55 -0.34,2.49 -0.92,1.51 -1.41,0.73 -1.74,0.2 -1.67,0.58 -0.27,1.34 0.8,1.46 1.55,0.99 v 1.28 l -0.64,0.72 -0.35,0.71 -0.24,0.74 -0.41,0.78 2.11,-0.05 9.88,3.82 1.13,1.14 -0.96,1.99 2.08,1.38 9.03,0.03 2.4,1.73 1.53,0.43 1.26,-2.84 1.4,-0.54 2.89,-0.19 0.74,-0.33 1.25,-0.88 0.8,-0.19 0.95,0.34 0.11,0.8 -0.11,0.92 0.53,1.44 1.15,1.67 1.26,1.03 0.59,-1.2 0.99,-3.91 1.99,-2.82 h 1.55 l -0.38,4.54 h 0.81 l 1.79,-1.91 1.48,1.8 0.35,2.92 -1.61,1.56 -2.26,0.61 -1.81,1.52 -2.9,3.5 v 1.26 l 1.74,-0.42 1.68,-1.03 1.6,-1.37 5.58,-6.24 3.04,-1.55 3.05,-3.98 1.8,-0.89 1.72,0.62 0.83,1.47 -0.16,1.87 -1.24,1.81 v 1.27 l 2.48,-1.31 4.34,-3.59 8.15,-1.39 2.37,-1.22 2.28,-2.21 0.25,0.65 0.09,0.14 0.12,0.06 0.36,0.43 -0.63,1.79 -1.37,6.65 -1.49,-0.31 -0.9,-0.76 -0.84,-0.92 -1.28,-0.83 0.34,5.12 -5.53,5.09 0.3,3.99 -6.52,5.5 1.55,1.94 1.76,0.83 3.94,0.15 v 1.54 l -3.8,0.87 -5.41,3.76 -1.52,0.3 -9.73,1.93 -0.31,0.07 -3.55,1.79 -3.47,2.5 -0.09,-1.25 -0.16,-0.1 -0.48,-0.18 -0.33,-1.28 -0.87,-2.23 -0.9,-0.64 -0.42,3.53 -0.12,4.09 -0.34,1.62 -0.72,0.65 -1.96,0.69 -13.88,9.84 -3.45,1.04 -1.44,0.93 -1.2,1.35 -0.53,1.54 0.18,2.16 0.65,0.65 11.84,-0.01 2.58,0.7 2.55,1.63 0.89,1.91 -2.39,1.47 -2.75,-2.31 -1.48,-0.55 -0.65,2.1 0.34,1.67 0.85,0.55 2.43,-0.18 2.26,0.35 2.3,1.03 2.17,1.75 1.87,2.46 -8.42,-1.59 -1.37,0.88 -0.71,0.99 -1.61,-0.4 -2.63,-1.29 -1.06,0.78 -1.39,2.43 -0.8,0.98 v 1.52 h 1.83 l 2.19,0.66 1.81,1.19 0.75,1.57 0.79,2.27 1.86,1.13 2.16,0.67 1.71,0.89 v 1.39 l -3.9,-0.19 -1.84,0.42 -1.59,1.28 -2.49,-3.82 -1.38,-1.35 -3.37,-1.37 -0.75,-1.99 -0.35,-2.35 -0.7,-1.92 -3.35,-1.7 -7.29,1.47 -3.3,-2.55 -2.45,2 -2.59,0.78 h -5.88 l -1.82,-0.43 -2.67,-1.92 -1.91,-0.69 -2.07,-1.28 -1.37,-1.2 -0.64,0.36 -0.65,0.69 -0.84,0.28 -7.23,-1.72 -4.04,0.49 -1.76,3.4 -0.83,5.34 -2.05,4.11 -2.67,2.72 -2.68,1.14 0.73,2.99 -0.18,2.85 -0.46,3.13 -0.09,3.68 h -0.75 v -4 l -0.96,-3.12 -1.51,-2.33 -5.78,-5.26 -0.56,-1.9 2.29,-1.62 v -1.52 l -2.59,-1.27 v -1.4 l 0.67,-1 0.3,-1.45 -0.19,-1.65 -0.78,-1.61 -0.25,0.6 -1.22,0.43 -2.12,0.38 -0.62,-0.89 -0.97,-3.84 -0.89,-0.86 -1.05,-0.13 -5.35,-2.56 -1.45,-0.25 -1.13,0.9 -0.89,1.17 -1.37,1.12 -1.46,0.81 -1.16,0.32 -9.48,-1.38 -0.95,-0.64 -1.65,-1.8 -1.03,-0.36 -1.33,0.25 -2.24,1.03 -1.33,0.24 -20.48,-1.52 -2.31,-0.65 -4.54,-2.89 -2.53,-0.65 -6.98,1.91 -0.24,1.5 0.71,2.94 1.3,2.09 6.25,1.4 2.23,1.33 -2.61,-0.57 -1.12,0.09 -1.17,0.48 v 1.41 l 2.45,1.43 0.93,1.12 0.7,1.75 -2.64,-0.45 -4.18,-3.1 -2.59,-0.75 -1.81,1.23 -1.93,2.88 -0.77,3.29 1.62,2.49 -1.77,1.09 -1.58,2.3 -1.64,1.47 -1.97,-1.37 -2.16,-1.01 -2.83,-0.2 -1.85,-1.21 0.76,-3.99 3.02,2.86 2.97,0.36 2.84,-2.29 2.65,-5.12 -0.58,-0.15 -0.12,-0.15 0.01,-0.32 -0.19,-0.64 -1.17,0.96 h -1.06 l -0.98,-0.87 -0.87,-1.61 -1.69,1.21 -2.11,-0.26 -2.06,-1.08 -1.55,-1.28 -0.43,-0.98 -0.16,-1.32 -0.27,-1.22 -0.7,-0.66 -1.17,0.08 -0.5,0.8 -0.29,1.05 -0.48,0.87 -5.28,3.11 -1.31,1.2 -0.96,2.39 -0.66,2.69 -1.08,1.87 -2.27,0.02 1.35,1.8 1.51,0.77 3.74,0.08 -1.39,2.53 -1.35,1.31 -1.01,1.69 -0.4,3.67 -0.6,2.35 -2.7,5.8 -0.71,2.41 0.19,3.9 1.09,2.07 1.77,0.83 2.23,0.15 2.04,-0.79 -0.27,-1.78 -1.47,-1.89 -1.57,-1.1 2.31,-1.34 1.02,-0.05 -0.3,-3.89 -0.59,-1.21 -1.55,-0.6 v -1.26 l 2.55,-1.44 1.46,-0.33 1.69,0.25 v -1.4 l -0.56,-0.68 -1.06,-2.11 2.28,0.53 2.01,-0.8 0.66,-1.72 -1.7,-2.17 1.77,-2.16 2.71,1.06 6.19,5.26 -0.74,1.72 -1.13,0.87 -1.41,-0.06 -1.61,-1.13 4.13,4.69 1.51,2.4 -0.79,-0.45 -1.63,-0.57 -0.78,-0.5 0.69,2.43 1.46,1.95 3.63,2.71 -2.14,1.27 -5.39,1.61 -2.32,-0.09 2.42,5.31 3,2.51 3.36,-0.71 3.45,-4.34 h -0.82 v -1.39 l 1.24,-0.22 0.63,-0.26 0.14,-0.75 -0.31,-1.67 3.11,-1.07 1.38,0.08 1.15,0.99 -3.34,2.9 0.89,1.39 -1.54,0.88 -1.05,1.24 0.03,1.18 1.67,0.73 -1.38,1.84 -1.59,0.51 -1.31,0.93 -0.54,3.04 0.4,3.02 0.86,1.67 0.87,1.1 0.39,1.28 0.41,0.71 2.01,-0.25 0.77,0.16 0.57,0.98 0.01,0.85 -0.08,0.98 1.39,5.06 0.82,1.48 1.37,0.49 -0.75,-1.53 v -1.26 l 1.65,0.27 1.15,1.17 0.97,1.51 1.12,1.21 -0.48,2.4 0.21,2.23 0.04,1.66 -1.02,0.64 -1.38,-1.09 -0.48,-4.75 -1.4,-1.09 -1.64,-0.42 -2.65,-1.93 -1.05,-0.55 -5.71,1.53 v 1.37 h 0.89 v 1.26 l -0.38,1.4 0.04,0.89 0.34,1.87 -2,1.49 -0.74,5.64 -1.48,1.17 3.94,4.19 6.47,-1.53 11.75,-6.69 17.03,0.09 3.41,1.29 0.65,-0.66 0.49,-0.36 0.51,-0.2 0.8,-0.16 -0.26,1.87 -0.51,1.59 -0.73,1.23 -0.95,0.84 2.22,1.31 0.97,0.08 -4.13,3.42 -1.27,1.83 0.51,1.66 v 1.38 l -0.76,0.15 -0.55,0.37 -0.49,0.44 -0.65,0.42 4.79,2.43 1.81,0.33 v 1.49 l -22.16,4.03 -1.33,-0.58 -2.42,-1.59 -0.69,0.1 -1.22,1.28 -1.28,0.45 -2.83,0.34 -3.24,1.25 -4.52,0.83 -1.14,0.8 1.06,3.69 -0.73,3.09 -1.32,3.31 -0.71,4.31 1.7,9 9.69,6.01 5.19,2 8.32,-0.72 2.07,1.09 v 1.25 l -9.35,-0.62 -5.71,-1.03 -2.51,-1.82 -1.25,-0.53 -1.61,0.15 -4.1,2.6 -3.4,0.93 -9.3,-0.93 -4.55,1.04 1.77,2.44 7.26,4.87 -1.26,0.83 -1.68,2.53 -1.14,0.52 -1.76,-3.09 -0.68,-0.79 -5.37,-1.43 -5.3,-0.06 0.25,0.92 0.39,2.31 0.25,0.9 -3,-0.18 -2.89,-0.9 -2.78,-0.07 -2.74,2.39 1.16,1.12 1.4,-0.12 3.48,-1 1.13,1.02 1,2.3 0.67,2.38 0.12,1.28 2.49,2.89 4.52,1.94 4.49,0.9 2.36,-0.25 -1.02,2.22 -2.41,-0.42 -2.93,-1.33 -2.6,-0.47 0.65,1.84 0.89,1.32 1.15,0.76 1.39,0.18 v 1.5 l -1.8,1.96 -1.81,0.24 -4.55,-0.96 -2.5,0.34 -1.76,1.22 -1.27,2.18 -1.06,3.22 2.21,-0.03 0.96,-0.42 0.98,-0.92 1.69,1.94 2.87,0.28 4.81,-0.85 1.66,0.57 0.88,1.44 0.72,1.78 1.22,1.67 1.38,0.83 1.56,0.41 4.74,-0.07 2.02,-0.94 1.34,-0.23 1.3,-0.76 -0.05,-1.85 -0.34,-2.26 0.35,-1.96 1.34,-1.29 1.09,0.14 1,0.74 1.1,0.41 1.17,-0.51 0.82,-1.08 0.92,-1.01 1.53,-0.25 -1.02,2 -2.34,1.67 -0.65,1.8 0.68,2.25 1.82,0.19 1.58,-1.02 -0.07,-1.42 2.67,-2.05 1.32,-0.57 h 1.78 v 1.37 l -2.51,1.25 v 1.49 h 4.14 v 1.25 l -1.79,1.67 -4.87,3.3 -2,0.6 -1.6,0.07 -1.05,0.29 -0.82,0.78 -0.43,1.47 -0.24,2.26 -0.61,2.54 -0.52,0.79 1.87,1.34 5.21,-1.22 2.34,2 1.98,2.34 h 1.95 l 5.65,-2.56 1.86,-2.33 2.86,-5.14 1.28,-3.17 0.97,-1.52 1.45,-0.65 1.63,-2.12 0.74,-0.75 0.52,0.35 0.5,0.73 0.68,0.4 0.08,1.58 -1.21,3.52 -0.55,3.73 2.13,2.24 2.29,-0.92 1.06,-2.94 -0.23,-3.45 -1.57,-2.37 1.81,-1.25 2.11,-0.34 4.3,0.2 -4.46,2.61 -1.31,1.49 4.82,4.74 -0.31,0.72 -0.37,0.44 -0.78,1.87 -0.47,0.43 -0.87,-0.2 -1.18,-0.85 -0.39,-0.18 -2.38,1.72 0.98,9.02 -2.3,4.13 v 1.48 l 1.92,2.4 1.85,-0.31 1.39,-2.54 0.53,-4.31 1.12,-3.68 2,-0.05 0.87,2.32 -2.28,3.46 1.58,1.68 1.04,1.95 1.37,1.82 2.54,1.22 4.97,0.02 2.65,-0.73 1.78,-1.34 3.76,-1.87 38.72,-3.19 4.16,-1.87 2.41,-0.42 9.48,1.36 V 440 l -1.58,0.78 -3.09,0.92 -1.12,1.01 v 1.25 h 3.34 v 1.35 l -2.33,0.14 -5.42,1.38 -2.1,1.32 1.69,0.86 11.8,0.38 1.02,-0.24 2.24,-0.96 1.26,-0.04 -3.99,3 -1.88,2.16 -1.54,3.02 0.81,1.22 0.58,1.51 1.06,4.06 -1.76,-0.4 -1.48,-0.8 -1.28,-1.23 -1.19,-1.64 0.64,-1.9 -0.94,-0.25 -1.36,0.62 -1.38,1.55 -1.54,-0.26 -2.76,-1.26 v 1.5 l 4.97,2.84 v 1.23 l -2.31,-0.28 -3.65,-3.04 -1.86,-0.75 -7,1.35 v 1.49 l 5.23,1.69 1.71,1.79 -0.34,3.18 -2.84,-1.7 -2.66,0.73 -2.46,1.58 -2.27,0.87 -2.62,-1.14 -5.6,-5.33 -2.82,-1.67 -2.52,1.05 -2.08,3.47 -1.64,4.24 -1.98,3.34 -2.59,2.81 -6.38,12.22 0.89,1.35 -1.3,0.9 -1.13,1.4 -3.53,6.01 -1.42,1.83 -3.37,3.4 3.14,1.13 9.37,-0.5 2.25,0.72 -1.34,3.84 -7.43,7.2 -0.2,2.6 v 1.35 l -0.99,0.85 -0.47,1.25 -0.37,1.54 -0.7,1.75 -1.08,1.8 -1.24,1.62 -1.29,1.25 -1.27,0.73 0.89,1.47 -0.34,1.37 -0.32,0.28 0.02,0.1 0.64,0.82 -0.9,1.84 -0.39,2.23 -0.48,1.88 -1.16,0.8 -1.33,0.23 -2.23,0.99 -1.34,0.25 -3.74,-0.46 -1.54,0.46 -1.14,0.65 -1.72,1.4 -1.29,0.62 0.49,1.97 0.31,0.73 -24.16,23.34 -6.15,1.64 -5.09,3.68 -2.16,1.01 v 1.22 l 21.35,-2.99 3.18,-2.38 0.86,0.35 1.09,0.72 0.91,-0.32 0.4,-2.76 1.09,-2.23 2.59,-1.18 5.29,-1.17 9.02,-4.27 -0.5,-1.52 -0.76,-1.19 -0.95,-0.8 -1.12,-0.39 v -1.34 l 4.36,-0.14 1.3,1.12 -0.61,3.05 1.61,1.66 4.09,0.57 0.82,1.12 1,1.74 2.3,1.01 2.59,0.48 6.06,-0.22 8.72,-2.78 3.78,-2.37 0.04,2.67 -1.98,2.05 -2.61,1.74 -1.91,1.72 1.24,0.84 1.43,0.55 1.51,0.17 1.47,-0.2 1.19,-0.87 1.9,-2.63 0.61,-0.55 10.63,-1.22 2.26,-1.21 10.57,-14.37 3.87,-7.39 0.27,-2.54 2.78,-2.62 3.75,-2.05 3.13,-0.87 -0.92,1.13 -1.32,2.56 -1.01,1.59 1.83,0.74 0.3,2.05 -0.18,2.35 0.5,1.7 v 1.35 l -1.52,1.36 0.15,1.25 1.33,0.94 2.03,0.36 7.78,-1.23 3.94,0.82 7.78,3.15 2.17,0.04 -4.04,1.38 -20.89,2.69 -1.32,0.74 -0.95,1.7 -0.75,1.81 -0.7,1.12 -1.73,0.81 -2.42,0.49 -2.18,-0.49 -0.98,-2.16 -2.18,1.51 -14.53,4.65 -1.71,1.22 -1.62,1.71 -1.94,0.78 -4.25,0.87 -7.61,-0.16 -1.74,0.83 -0.99,-0.31 -0.45,-0.01 -9.06,-0.34 -0.97,0.18 -0.77,0.6 -0.87,1.28 -1.2,0.95 -1.2,-0.39 -1.1,-0.86 -0.94,-0.43 h -9.49 l -4.89,-1.34 -1.27,0.48 -0.94,0.91 -0.76,0.55 -0.66,-0.6 -2.82,3.43 -0.44,1.39 0.29,2.34 -0.2,1.15 -0.98,1.19 v 1.34 l 0.71,0.99 0.23,1.03 -0.25,1.01 -0.69,1 2,-0.24 1.89,0.39 1.4,1.31 0.49,2.66 -1.99,-1.05 -3.11,-0.82 -3.12,-0.08 -2.04,1.23 -1.79,2.67 -1.59,1.35 -11.87,5.55 -8.06,0.55 -2.28,0.79 -1.78,1.85 2.17,2.4 3.34,1.62 6.3,1.19 1.97,2 -0.38,9.54 1.33,3.28 -3.03,1.17 -1.19,0.04 v 1.44 l 1.02,0.13 0.78,0.29 1.54,0.92 -1.83,0.87 h -1.24 l -1.12,-0.79 -1.45,-1.42 0.28,1.8 0.46,1.48 0.66,1.19 0.9,0.98 1.8,-1.34 1.79,0.46 3.89,2.21 3.77,0.06 1.7,0.53 1.88,1.96 -8.64,1.19 -1.97,-1.19 0.75,-0.72 0.82,-0.61 -1.46,-0.62 -1.39,0.77 -2.49,3.23 -1.69,0.99 -4.95,-0.08 -4.03,-0.89 -3.66,-1.71 -1.94,-0.36 -1.72,-1 -0.48,-2.44 -0.09,-3.05 -0.56,-2.84 0.56,-2.01 -1.34,-0.74 -4.18,0.1 2.84,3.76 -1.06,4.12 -3.17,3.5 -3.51,2.05 -7.81,1.21 -0.23,-1.19 1.45,-7.4 -1.89,-1.6 -12.4,3.65 -1.34,0.88 -2.63,4.24 -1.37,1.42 -2.3,0.53 -1.78,-0.07 -1.42,0.78 -1.1,3 0.5,0.24 1.21,0.95 -1.4,1.73 0.06,1.41 0.41,1.35 -0.33,1.57 -1.2,0.71 -1.49,-0.55 -2.64,-2.22 0.88,-2.65 -2.26,0.67 -2.56,1.45 -1.39,1.73 1.24,1.57 v 1.21 l -2.21,2.07 -1.04,0.59 1.06,3.9 0.21,3.28 0.81,2.36 2.88,1.09 2.55,-0.44 4.72,-2.26 2.58,-0.09 -1.23,-0.61 -0.36,-0.6 -0.11,-1.31 2.8,0.01 5.66,1.99 3.03,0.52 v -1.2 l -1.97,-1.03 -1,-0.3 -1.18,0.01 v -1.21 l 3.33,-1.06 1.34,0.11 3.07,3.12 0.88,-0.51 0.81,-1.17 1.23,-0.49 1.26,1.14 1.18,1.88 1.29,1.16 2.85,-1.81 16.04,-4.06 3.61,0.24 1.71,0.49 1.57,0.82 1.16,1.3 0.71,3.14 0.55,-0.86 0.75,-2.23 -1.56,-3.99 23.72,-1.33 -4.15,2.66 0.65,0.58 1.02,1.33 0.85,0.75 -8.88,1.2 -3.74,-0.19 -3.69,-2.22 -2.53,11.47 0.39,1.79 -1.67,0.07 -1.67,-0.35 -1.12,-1.52 0.01,-3.49 h -0.89 l -2.57,6.61 -4.85,2.87 -11.33,2.44 -7.6,3.63 -3.05,2.11 -3.35,0.75 -2.48,1.28 0.93,2.83 -1.45,0.8 -2.95,1.06 -1.38,0.9 v 1.2 l 2.25,0.31 1.22,1.91 1.03,2.16 1.69,1.03 0.41,0.61 0.08,1.32 -0.39,1.32 -0.96,0.6 h -2.08 l -9.91,3.56 -3.94,0.52 v 1.32 l 0.41,0.03 0.82,-0.09 0.41,0.06 -0.11,0.93 -0.21,0.52 -0.25,0.47 -0.25,0.72 0.17,0.11 0.3,0.02 0.28,0.27 0.07,0.92 -0.83,2.13 1.55,0.34 2.41,-0.23 1.75,0.39 0.75,2.57 -1.41,5.64 0.66,2.47 1.82,-1.14 3.7,-3.52 1.45,-0.74 1.36,-1.05 3,-4.62 1.37,-1.05 4.83,2.31 2.04,4.91 -1.08,4.64 -4.56,1.45 11.29,5.36 -0.7,2.54 2.92,-0.94 3.18,-1.91 2.99,-2.46 2.4,-2.59 2.7,1.44 2.76,-1.22 5.22,-4.17 1.38,-0.47 2.88,-0.45 1.43,-0.51 0.73,-0.8 0.67,-1.05 0.99,-0.79 h 1.69 l -0.22,0.96 -0.34,2.19 -0.25,0.92 1.31,-0.33 3.58,-2.31 -0.74,-1.43 1.84,-0.62 3.93,0.01 0.74,-1.26 1,-1.24 2.28,-1.4 12.52,-4.79 8.65,-1.14 v 1.45 l -3.8,1.29 -6.98,3.96 -3.88,1.21 -3.14,-0.25 -0.93,0.25 -0.63,0.83 -1.38,2.58 -2.37,1.33 -3.05,3.56 -1.61,1.06 v 1.19 l 2.39,1.14 0.93,0.17 v 1.31 l -4.57,0.14 -2.09,-0.37 -1.56,-1.08 -0.25,3.22 -1.36,1.93 -1.98,1.01 -2.12,0.43 0.62,-1.08 0.64,-1.98 0.38,-0.89 -3.15,0.79 -4.12,2.03 -3.74,2.92 -2.04,3.48 h 4.89 v 1.43 l -5.6,5.46 -2.62,1.11 -4.86,-0.41 -2.59,0.53 -1.52,2.38 1.86,-0.12 1.74,0.55 0.96,1.38 -0.48,2.39 0.38,0.19 0.3,-0.04 0.14,0.19 v 0.84 l -1.82,1.14 -8.15,2.27 -0.71,0.53 -0.41,1.04 -0.06,1.17 -0.24,1.06 -0.91,0.68 0.81,1.43 2.08,-2.13 2.69,-1.23 5.5,-0.7 1.21,0.23 2.34,0.98 1.37,0.22 2.87,-2.32 7.51,-2.45 0.66,-0.49 0.41,-0.65 0.09,-0.73 0.03,-0.71 0.22,-0.52 1.75,-1.38 4.92,-2.23 15.07,-2.16 4.11,-1.74 7.81,-0.84 2.54,-0.81 2.32,-1.47 3.31,-3.45 1.62,-1.18 2.41,-0.64 -1.28,-2.1 -0.08,-1.64 0.16,-1.78 -0.51,-2.5 1.2,0.41 1.18,0.69 1.02,0.85 0.75,0.81 0.11,0.76 -0.23,2.43 0.12,0.75 0.47,0.26 1.04,-0.07 2.74,2.19 2.03,-0.83 1.86,-1.11 1.71,0.88 v 1.2 l -0.54,0.56 -0.52,1.14 -0.56,0.93 -0.25,3.11 -3.5,1.59 -4.4,1.04 -4.43,2.35 -3.9,0.5 -1.6,2.53 -14.71,7.98 -4.67,1.66 -1.07,1.81 -0.85,1.79 -1.15,0.82 -1.11,0.48 -5.04,3.33 7.46,-0.59 23.04,-11.77 5.51,0.56 -2.49,1.64 -4.3,1.98 -2.26,1.76 -5.22,6 -2.11,1.73 -2.61,1.31 -4.19,1.14 -2.16,1.49 -4.26,4.29 -2.17,1.56 -2.61,0.81 0.9,1.83 0.5,0.45 1.05,0.34 v 1.19 l -0.44,0.82 -0.22,0.89 -0.16,2.45 0.82,-1.42 0.8,1.42 3.43,-3.16 1.07,-0.4 -0.34,2.14 8.15,-3.93 -0.54,-0.18 -0.33,-0.27 -0.76,-0.85 6.51,-5.95 0.8,-1.67 1.69,0.95 1.45,2.14 0.15,1.91 2.04,0.05 1.35,-0.59 2.3,-2.2 0.82,-0.12 2.1,0.17 0.41,-0.64 0.17,-1.88 0.47,-0.78 8.47,-1.87 3.41,-1.65 -1.02,-2.29 1.58,-0.76 2.17,0.38 1.94,1.03 0.83,1.2 -0.48,2.73 -0.8,2.11 -0.15,1.84 1.43,1.96 2.48,-2.2 1.12,-1.34 0.47,-1.1 3.82,-2.33 0.99,-1.02 0.29,0.66 0.11,0.21 0.15,0.13 0.35,0.44 -1.49,1.42 -2.94,2.01 -1.28,1.69 -1.08,2.64 0.47,0.64 1.4,-0.63 1.73,-1.22 -0.77,1.93 -0.91,1.34 -1.1,1.01 -1.37,0.95 3.84,-0.08 1.67,-0.57 1.38,-1.31 1,-0.72 0.94,0.06 0.68,-0.27 0.27,-1.69 3.27,-2.08 0.24,1.03 0.31,0.8 0.25,0.9 0.08,1.31 1.4,-0.74 1.1,0.35 1.08,0.55 1.31,-0.16 0.96,-1.18 0.58,-1.58 0.82,-1.21 1.72,-0.07 v -1.19 l -0.35,-1.92 0.95,-0.31 3.1,0.8 1.83,-0.35 1.8,-1.04 1.49,-1.66 0.95,-2.2 -1.02,-0.91 -0.53,-0.28 v -1.42 l 1.5,0.41 2.68,1.66 1.53,0.54 6.59,-1.43 1.78,-1.02 1.39,-0.16 1.34,0.44 2.38,1.78 0.81,0.39 0.32,0.83 1.01,1.4 1.06,0.46 0.5,-2.03 0.68,-0.43 4.21,-1.42 1.13,-2.23 1.26,-3.32 1.69,-2.2 2.44,1.09 0.81,-0.94 0.76,0.1 0.92,0.52 1.26,0.32 h 4.4 l 0.96,0.82 0.84,1.26 0.87,0.73 1.05,-0.8 4.51,0.6 -0.55,-2.2 0.12,-1.75 0.75,-1.43 1.31,-1.18 -2.44,-1.19 0.76,-0.77 0.79,-0.55 v -1.43 l -4.36,-0.01 -2,-0.74 -1.72,-1.88 14.27,1.45 5.85,-1.63 1.97,0.18 1.66,1.34 1.71,3.87 1.51,1.36 -0.22,-2.21 -0.55,-2.9 -0.12,-2.12 0.32,-1.22 1.83,-4.55 0.75,-0.22 1,-0.56 0.82,-0.87 0.25,-1.1 -0.54,-1.48 -0.73,0.22 -1.11,1.26 -1.25,-0.45 -2.43,-0.26 -1.2,-0.73 v -1.2 l 5.48,0.06 2.55,1.42 0.85,3.91 1.79,-1.09 0.58,-2.11 -0.61,-2.23 -1.76,-1.39 1.44,-0.47 1.93,0.76 1.67,1.61 0.74,2.17 1.57,-2.19 1.48,-1.11 4.47,-1.1 3.21,-1.77 1.3,-2.03 3.95,-4.43 0.52,-1.51 -0.27,-1.1 -0.5,-0.94 -0.16,-1.06 0.38,-0.73 2.07,-3.22 h -4.16 l 0.77,-0.59 0.78,-0.43 1.72,-0.41 -0.5,-0.31 -1.06,-0.9 v -1.43 h 0.81 v -1.21 l -1.38,-0.42 -4.47,0.42 2.16,-6.07 -2.97,-2.25 -5,-0.74 -3.98,-1.49 2.45,-1.41 2.43,-0.32 4.91,0.28 2.21,-0.66 2.21,-1.05 2.05,-0.48 1.02,1 v 1.19 l 4.9,-0.17 2.43,0.54 1.55,1.08 1.04,-1.48 0.93,-0.63 0.79,0.44 0.58,1.67 -0.98,0.66 -0.58,0.79 -0.89,2.51 1.15,0.07 0.75,0.37 0.62,0.47 0.75,0.41 -1.53,1.78 -1.61,1.16 -1.67,0.68 -1.72,0.33 0.55,1.83 0.27,0.7 -1.1,0.32 -1.05,0.67 -0.8,0.99 -0.31,1.37 0.52,0.69 1.19,0.13 1.37,-0.1 3.29,0.32 7.52,-0.74 4.54,-1.81 9.02,-1.89 1.96,-1.16 -2.26,-2.64 1.78,-2.36 6.26,-2.78 4.96,-1.09 2.71,-1.18 1.3,-1.95 -1.44,-0.55 -3.53,-3.28 2.51,-0.17 2.02,-1.24 1.72,-2.02 1.57,-2.58 0.31,-1.65 0.13,-4.61 0.15,-0.38 0.23,-0.58 1.36,0.82 0.53,1.77 0.19,1.77 0.37,0.81 12.66,1.72 0.7,-0.98 -0.03,-2 1,-2.7 2.48,-1.26 6.34,0.7 2.25,-1.37 0.99,-0.8 1.19,-0.22 1,-0.4 0.42,-1.35 0.45,-5.9 3.77,-2.77 0.7,-2.37 -0.19,-0.83 -0.88,-0.19 -3.55,-1.62 -2.18,-0.6 -1.84,0.29 -1.17,1.46 -0.45,-3.18 1.45,-2.56 2.27,-1.71 2.07,-0.62 0.38,0.58 0.35,1.29 0.51,1.36 0.83,0.75 1.19,-0.22 0.64,-0.95 0.45,-1 0.57,-0.48 4.43,-1.03 8.22,-4.47 22.88,-2.47 4.51,1.09 h 2.22 l 2.38,-1.09 0.77,-1.02 0.55,-1.33 0.8,-1.14 1.48,-0.5 0.95,0.22 1.54,0.9 1.24,0.21 -0.42,-0.83 -0.25,-0.66 -0.34,-0.6 -0.68,-0.57 v -1.21 l 1.65,-0.2 1.49,0.23 2.63,1.18 -3.37,4.59 -0.71,2.18 2.56,-0.66 5.39,-0.17 2.66,-0.62 2.06,-1.62 3.45,-4.78 1.89,-1.57 v -1.33 l -2.96,0.05 -0.28,-1.89 1.53,-4.82 -0.4,-1.92 -1.67,-3.25 -0.37,-0.93 -0.08,-1.95 -0.15,-1 -0.31,-2.1 -0.35,-2.27 1.51,2.06 1.75,6.09 1.34,1.29 1.26,0.69 1.39,1.59 1.18,1.83 0.69,1.34 2.06,7.91 -0.02,1.93 -1.35,1.45 -1.51,0.98 -1.42,1.28 -1.1,2.39 2.01,1.22 1.62,-1.62 1.35,-2.45 1.21,-1.26 8.64,-5.31 -0.9,-1.33 0.4,-0.02 0.84,0.1 0.39,-0.08 v -1.44 l -0.81,0.08 -0.82,-0.08 0.88,-1.24 0.37,-1.12 0.38,-2.86 h -0.73 l -0.42,0.54 -1.29,0.93 0.32,-1.44 -0.02,-0.61 -0.17,-0.62 -0.13,-1.57 0.81,-1.21 2.34,1.07 2.35,-1 2.03,-2.04 1.43,-2.03 -0.22,3.03 -1.21,2.45 -1.72,1.71 -1.81,0.79 v 1.47 l 2.3,0.54 8.44,-1.28 8.85,2.7 2.19,1.18 3.1,3.33 2.08,0.27 5.04,-2.99 5.71,-1.21 2.04,-1.4 1.22,-0.04 1.64,1.44 h -2.45 v 1.21 l 5.2,-0.04 0.35,-0.19 0.21,-0.38 1.45,-1.26 1.04,-1.51 0.71,-0.37 1.4,0.16 0.16,0.86 -1.07,2.39 -0.88,0.91 -0.26,1 1.54,1.2 1.14,0.22 0.86,-0.35 1.2,-1.2 1.53,-2.16 3.42,-8.48 -6.14,-6.21 -2.38,-4.48 2,-4.08 v -1.21 l -2.86,4.8 -1.46,1.73 -0.64,-2.05 -1.1,-1.6 -3.73,-0.84 0.76,-2.04 -0.9,-2.57 -1.36,-2.15 -1.66,-1.52 -1.8,-0.68 v -1.22 l 0.93,-0.93 0.96,-0.76 1.03,-0.57 1.09,-0.41 -0.71,3.52 2.48,0.8 6.93,-0.57 1.08,0.4 0.95,0.93 0.83,1.48 0.21,-2.61 -0.22,-3.41 0.08,-3.57 1.11,-3.03 2.74,-5.02 1.85,-2.61 2,-1.12 2.16,-2.63 7.24,-12.02 1.57,-3.42 0.32,-8.39 -0.32,-3.02 -1.24,-5.58 -0.13,-2.95 0.63,-3.67 5.59,-10.01 2.08,-4.89 0.38,-0.91 -0.72,-4.38 2.84,-9.4 1.32,-2.86 1.4,-1.84 5.12,-4.9 -0.89,-1.47 4.05,-9.43 1.31,-1.38 0.61,-0.84 1.2,-3.72 0.64,-0.86 1.55,-0.68 -0.37,-1.48 -5,-5.73 -1.57,-3.07 0.5,-3.19 0.96,-2.98 0.67,-4.72 0.16,-4.83 -0.56,-3.25 0.41,-0.37 h 0.12 l 0.07,-0.12 0.2,-0.75 -4.09,-8.62 -1.6,-2.36 0.84,-3.6 -0.71,-2.18 -1.4,-1.71 -0.02,-0.06 -1.23,-2.11 -0.68,-2.94 -0.2,-2.74 0.13,-4.4 0.4,-0.82 0.61,-1.64 v -1.6 l -1.44,-0.71 -0.9,-0.23 -1.25,-1.02 -3.35,-0.8 -1.58,-1.39 -2.34,-3.51 -2.79,-2.95 -0.81,-1.7 0.34,-2.18 6.96,-5.47 0.86,-0.23 2.09,-1.01 1.13,-0.23 0.47,0.44 1.49,1.95 0.48,0.47 1.69,0.9 1.62,1.42 1.51,-0.1 1.33,-3.61 -2.17,-1.42 -4.92,-0.31 -1.94,-0.99 0.42,-0.63 0.78,-1.47 0.42,-0.64 -1.11,-1.44 -0.43,-2.35 -0.57,-2.21 -7.66,-3.7 1.93,-1.52 2.42,-0.84 2.09,0.34 0.89,2.02 1.07,-1.5 1.39,-3.64 0.87,-1.7 0.28,-1.6 0.55,-1.32 2.03,-3.25 0.79,-2.78 -0.29,-2.99 -0.85,-2.69 -0.95,-1.83 -2.39,-1.73 -3.59,-1.76 -3.26,-2.25 -2.06,-4.91 -1.3,-0.88 -1.8,-1.23 -1.16,-1.11 -0.85,-2.11 -0.78,-2.88 -0.59,-2.98 -0.53,-8.88 -0.32,-5.27 0.62,-5.41 2.45,-2.78 -2.65,-2.14 -1.2,-3.1 0.12,-3.58 1.29,-3.59 v -1.51 l -8.84,-1.21 -4.01,-2.09 -2.64,-3.62 -0.72,-3.57 0.08,-3.64 0.64,-5.99 0.8,-3.37 1.48,-2.68 0.72,-1.91 -1.43,-0.99 v -1.53 l 6.3,0.84 8.35,3.66 1.71,-0.32 1.63,1.39 2.81,1.8 2.96,1.07 2.06,-0.81 3.88,-4.64 0.44,-2.5 -2.29,-3.38 -0.88,-0.63 -1.03,-0.38 -2.54,-0.25 -0.73,-0.65 -1.72,-2.88 -0.85,-0.64 -1.86,-0.97 z"
         id="path2" />
    </g>
  </g>
</svg>
