<?xml version="1.0" encoding="UTF-8" standalone="no"?>
<svg
   xmlns:dc="http://purl.org/dc/elements/1.1/"
   xmlns:cc="http://creativecommons.org/ns#"
   xmlns:rdf="http://www.w3.org/1999/02/22-rdf-syntax-ns#"
   xmlns:svg="http://www.w3.org/2000/svg"
   xmlns="http://www.w3.org/2000/svg"
   xmlns:sodipodi="http://sodipodi.sourceforge.net/DTD/sodipodi-0.dtd"
   xmlns:inkscape="http://www.inkscape.org/namespaces/inkscape"
   version="1.1"
   width="1200"
   height="1200"
   viewBox="0 0 1200 1200"
   id="svg8"
   sodipodi:docname="Java.svg"
   inkscape:version="1.0.1 (3bc2e813f5, 2020-09-07)">
  <metadata
     id="metadata14">
    <rdf:RDF>
      <cc:Work
         rdf:about="">
        <dc:format>image/svg+xml</dc:format>
        <dc:type
           rdf:resource="http://purl.org/dc/dcmitype/StillImage" />
        <dc:title></dc:title>
      </cc:Work>
    </rdf:RDF>
  </metadata>
  <defs
     id="defs12" />
  <sodipodi:namedview
     pagecolor="#ffffff"
     bordercolor="#666666"
     borderopacity="1"
     objecttolerance="10"
     gridtolerance="10"
     guidetolerance="10"
     inkscape:pageopacity="0"
     inkscape:pageshadow="2"
     inkscape:window-width="1920"
     inkscape:window-height="974"
     id="namedview10"
     showgrid="false"
     inkscape:zoom="0.47177599"
     inkscape:cx="770.38486"
     inkscape:cy="437.43462"
     inkscape:window-x="-11"
     inkscape:window-y="-11"
     inkscape:window-maximized="1"
     inkscape:current-layer="svg8" />
  <g
     id="g6"
     transform="translate(0,200.00389)">
    <g
       stroke="#000000"
       stroke-width="0.98"
       fill="#000000"
       id="g4">
      <path
         d="m 598.08,464.54 3.27,2.2 12.94,3.81 32.02,16.64 4.01,0.47 1.17,0.31 2.41,2.26 0.62,0.36 3.09,3.13 0.46,0.9 1.14,0.21 1.41,-0.03 1.31,0.16 8.33,4.6 2.47,0.71 3.15,0.36 3.53,0.94 6.78,3.06 v -0.86 l 4.64,2.29 2.69,0.91 2.63,0.35 1.24,0.42 1.81,1.81 1.24,0.39 16.76,1.02 10.51,2.48 8.5,3.79 2.42,0.57 h 5.18 l 1.06,-0.27 0.77,-0.7 1.22,-1.73 0.6,-1.05 0.47,-1.25 0.59,-0.93 0.95,-0.18 0.84,1.1 0.19,1.76 0.45,1.63 1.58,0.74 1.42,0.19 1.24,0.55 0.91,0.96 0.35,1.41 0.47,1.26 1.18,0.09 10.36,-3.15 0.48,-0.63 1.12,-0.48 1.3,-0.13 1.02,0.38 1.36,1.17 0.72,0.32 1.38,-0.19 h 6.52 l 1.18,0.38 1.48,1.08 0.79,0.28 1.21,-0.09 2.22,-0.66 0.96,-0.05 2.15,0.93 0.19,1.12 -0.24,1.53 0.89,2.06 8.74,2.15 1.91,-0.4 1.91,-1.41 1.73,0.14 4.32,2.27 2.11,0.33 1.41,-1.73 h 0.87 l 1.09,2.5 1.88,1.92 2.44,1.25 2.84,0.44 1.48,-0.41 0.48,-0.9 -0.26,-0.89 -1.82,-0.98 0.25,-1.22 0.72,-1.21 0.41,-0.5 0.78,-2.72 0.68,-1.21 1.11,-0.51 1.17,0.68 0.83,1.54 0.6,1.53 0.51,0.69 2.49,-0.79 0.24,-1.99 -0.16,-2.58 1.32,-2.57 1.34,-0.63 1.2,0.3 1.24,0.71 1.41,0.56 1.43,0.24 3.3,-0.24 1.89,0.65 3.02,2.89 2.52,0.83 1.09,-0.06 0.56,-0.37 0.58,-0.61 3.16,-2.12 1.2,-0.06 4.05,2.56 2.79,0.91 23.3,2.39 2.28,0.78 0.76,0.53 0.57,0.59 0.87,0.44 1.69,0.18 3.38,-1.36 1.36,-0.38 2.61,-0.09 3.24,0.47 3.12,1.18 2.26,2 -0.34,0.49 -0.6,1.26 2.79,0.06 1.88,0.94 1.64,1.09 2.01,0.53 h 9.9 l 6.67,2.34 4.9,0.81 5.58,2.56 2.08,1.36 2.24,-2.2 1.45,-0.97 1.88,-0.4 2.07,-0.19 1.86,-0.61 0.92,-0.63 1.78,-1.63 1.9,-1.07 0.71,0.13 1.17,0.94 1.11,0.47 1.27,-0.29 1.07,-0.84 0.43,-1.12 0.52,-0.71 2.98,2.17 1.67,-0.12 4.05,1.56 4.32,-2.9 6.39,-7.39 4.98,-2.62 5.49,-1.35 16.16,-1.93 5.42,0.46 5.22,1.43 5.2,2.19 2.89,1.91 6.22,7.3 2.33,1.14 2.01,-0.79 2.1,-1.08 2.59,0.25 0.74,0.58 0.82,1.62 0.63,0.93 0.84,0.81 4.64,2.68 1.73,0.16 4.06,-0.59 0.78,0.37 1.45,1.69 0.8,0.64 3.92,0.79 1.59,0.68 2.27,3.38 1.79,1.26 2.07,0.26 1.24,-0.42 1.08,-0.16 1.66,1.12 0.18,0.81 -0.27,2.2 0.53,0.46 2.25,0.1 1.14,-0.12 0.49,-0.39 0.7,-1.18 1.72,-0.99 2.16,-0.64 1.94,-0.25 0.97,0.85 0.64,4.35 0.58,1.86 0.31,-0.67 0.32,-0.27 0.46,-0.27 0.64,-0.61 2.1,1.67 3.28,1.41 3.28,0.99 2.18,0.37 1.38,-0.3 2.6,-1.24 1.27,-0.3 1.21,0.66 -0.1,1.55 -0.49,1.77 -0.16,1.35 1.52,2.06 1.88,-0.23 2.21,-1.14 2.48,-0.69 1.21,0.54 1.17,2.41 1.08,0.55 4.5,0.82 1.15,0.03 5.59,-2.01 3.37,-0.33 1.48,1.93 1.33,1.37 3.01,-1.16 5.17,-3.27 5.17,0.12 5.95,2.64 4.51,4.12 0.84,4.55 -2.8,3.33 -0.36,1.94 2.78,0.85 7.13,-0.52 2.82,0.52 11.1,3.81 5.29,-0.3 3.49,-4.47 0.11,-3.14 -1.28,-2.04 -1.54,-1.53 -0.75,-1.59 -1.05,-1.47 -6.72,-2.45 -3.19,-2.14 -1.61,-0.4 -2.53,-0.08 -2.13,-0.8 -2.01,-1.99 -1.57,-2.58 -0.86,-2.59 0.17,-8.38 -0.54,-4.07 -2.22,-2.3 -0.06,5.72 -0.51,3.25 -1.54,1.41 -1.55,-1.12 -0.42,-2.69 -0.22,-5.78 -1.46,-2.9 -0.27,-1.46 0.09,-1.28 0.62,-2.94 0.31,-3.7 4.91,-25.41 5.31,-18.41 0.06,-6.09 -0.23,-0.88 -0.37,-0.93 -0.29,-1.1 0.02,-1.43 0.53,-1.52 1.61,-2.32 0.36,-0.97 0.8,-5.39 0.1,-2.77 -0.9,-2.72 -1.8,-1.92 -4.96,-2.74 -2.25,-1.93 -0.99,-0.5 -1.45,-0.12 -2.8,0.14 -1.65,-0.14 -1.17,-0.38 -1.92,-1.22 -4.61,-4.49 -1.9,-0.65 -2.75,0.37 -5.17,1.38 -3,-0.08 -4.03,-1.61 -2.96,-2.59 -5.01,-6.35 -4.02,-2.4 -3.72,0.78 -8.99,7.64 -1.84,0.75 -2.67,0.29 -2.95,-0.4 -2.08,-0.64 -1.88,-0.13 -2.23,1.17 -2.6,3.12 -1.61,1.43 -2.27,0.58 -2.89,-0.45 -5.07,-1.86 -2.91,-0.21 -1.14,0.32 -2.51,1.13 -1.54,0.28 -16.49,-2.52 -3.03,0.43 -4.02,2.34 -2.01,0.54 -2.67,0.36 -2.79,0.91 -4.55,2.3 -4.45,2.99 -2.46,1 -3.01,0.37 -1.77,-0.87 -3.08,-4.02 -2.5,-1.21 -1.45,0.02 -2.72,0.69 -1.1,0.16 -1.55,-0.31 -2.77,-1.17 -4.14,-1.03 -2.68,-1.87 -4.46,-4.41 -2.56,-1.99 -2.38,-1.02 -2.64,-0.35 -3.26,-0.04 -2.34,-0.55 -16.07,-6.99 -10.55,-7.87 v -10.5 l 1.08,-2.07 4.73,-3.23 1.09,-2.58 0.01,-5.12 0.25,-2.23 1.04,-4.62 0.04,-1.95 -0.43,-1.95 -1.86,-3.58 -1.35,-2 -1.7,-1.71 -2.05,-0.78 -2.92,0.74 -1.98,1.95 -1.67,2.39 -1.97,1.97 -6.98,-3.12 -3.21,-1.94 -2.07,-2.85 7.66,0.79 1.85,-0.79 0.62,-2.26 -1.17,-2.6 -2.06,-2.15 -2.12,-0.9 -1.11,-0.86 -1.29,-1.95 -1.07,-2.2 -0.45,-1.52 0.9,-1.12 2.04,-0.87 4.04,-1.13 -1.06,-2.17 -1.78,0.21 -1.85,0.75 -1.35,-0.53 -1.07,-1 -2.83,-4.3 -0.56,-1.23 0.5,-3.1 2,-5.05 0.16,-2.73 -0.34,-1.14 -0.62,-1.33 -0.8,-1.16 -0.9,-0.7 -1.85,-0.66 -0.71,0.18 -0.04,0.94 0.08,1.67 -0.72,2.62 -1.81,1.24 -2.54,0.01 -2.78,-0.87 -1.87,-1.31 -1.87,-1.71 -2.07,-1.49 -2.48,-0.62 -0.76,0.34 -0.86,0.71 -0.93,0.47 -1.89,-0.74 -4.63,-0.78 -3.01,0.33 -5.19,1.82 -2.59,0.44 h -5.2 l -1.33,0.23 -4.26,1.51 -5.34,0.7 -5.53,0.1 -2.9,-0.61 -2.04,-1.58 -7.33,-9.56 -4.26,-4.3 -2.24,-0.69 -2.78,0.7 -4.08,2.11 -2.78,0.92 -2.03,-0.12 -2.12,-0.49 -5.34,-0.56 -8.46,-2.27 -2.98,-1.4 -2.76,-1.98 -2.82,-2.74 -2.29,-2.22 -4.2,-5.3 -1.43,-1.23 -4.18,-1.78 -7.23,-1.41 -3.35,-2.09 -1.97,2.14 -4.26,6.21 -1.95,1.29 -2.61,0.33 -5.27,1.3 -3.02,0.11 -23.48,-2.65 -0.8,0.12 -0.78,-0.15 -0.93,-0.81 -2.24,-4.55 -4.67,-13.47 -2.14,-4.4 -0.79,-5.02 -0.94,-1.68 -1.38,-1.19 -1.65,-1.14 -0.14,-0.39 -0.94,-1.14 -1.08,-0.69 -0.5,0.94 -0.55,0.37 -1.3,0.13 -2.49,-0.07 -1.36,-0.49 -3.5,-2.14 -1.17,-0.93 -2.74,0.9 -7.7,0.92 -1.08,0.33 -1.97,0.96 -1.27,0.45 -3.42,0.6 -6.4,2.61 -1.48,1.12 -2.12,2.92 -1.31,0.93 -2.6,0.5 1.37,2.8 -0.44,1.61 -1.11,1.5 -0.62,2.42 -0.19,5.18 -0.74,4.83 -1.61,5.63 -9.25,18.85 -5.63,7.52 -5.17,5.44 -1.74,1.08 -2.07,0.58 -2.71,0.19 -2.47,0.64 -2.02,1.33 -2.29,0.99 -3.2,-0.35 -2.66,-1.47 -5.27,-3.84 -4.33,-1.31 -5.84,-2.67 -1.84,-1.16 -0.57,-1.25 -0.19,-1.44 -0.47,-1.21 -1.37,-0.52 -0.98,0.6 -2.14,2.66 -0.41,0.7 -1.36,1.26 -3.11,0.86 -16.48,2.38 -5.47,0.1 -5.61,-0.66 -21.59,-7.03 -24.49,-3.55 -4.94,-4.29 -6.92,7.47 -10.92,1.98 -22.13,-2.48 -3.35,0.1 -0.96,-0.1 -3.46,-2.25 -2.96,-0.9 -4.88,-3.82 -1.51,-0.75 -2.62,-0.88 -2.47,0.06 -1.09,2.06 -0.25,2.87 -0.92,1.77 -1.84,0.84 -3.04,0.13 -2.76,-0.6 -1.41,-1.25 -1.05,-1.61 -1.06,-1.02 -0.7,-0.66 -1.71,-0.53 -2.21,-0.31 -1.95,-0.57 -1.05,-1.29 -5.4,2.97 -5.5,0.13 -5.49,-2.06 -5.35,-3.65 -7.28,-0.72 -3.91,-11.73 -4.43,-23.26 -6.55,-3.83 -1.66,-0.6 -2.43,-1.27 -10.52,-12.95 -0.98,-8.62 -0.54,-3.33 -2.69,0.54 -0.86,1.4 -2.69,-1.62 -7.86,-0.21 -4.1,-1.19 -2.26,-1.29 -1.51,0.43 1.51,1.19 0.86,1.18 0.22,1.62 -0.43,1.72 -1.08,1.4 -1.02,0.95 -0.43,0.31 -3.18,1.86 -2.05,1.4 -1.62,0.43 -2.04,0.11 h -2.48 l -2.48,-1.08 -3.13,-1.07 -7.45,-3.67 -5.46,-2.29 -6.53,-4.08 v -2.7 l -1.3,-2.91 -0.97,0.54 -1.74,1.94 -1.84,-0.11 -0.22,-1.73 -2.7,-0.87 -1.96,0.54 0.31,1.65 -0.37,1.13 -0.94,0.04 -1.25,-0.46 -1.27,-0.28 -1.17,0.28 -0.71,0.69 -2.94,1.24 -1.6,1.2 -2.11,0.4 -2.01,-1.1 -2.71,1.4 -2.91,-1.61 -4.31,-4.82 -7.33,-0.41 -6.63,-2.52 -5.12,-2.42 -3.11,-5.23 -4.12,-5.23 -4.23,-6.95 -3.23,-4.14 -4.23,-1.73 -5.03,-0.97 -9.56,2.87 -2.22,0.36 -2.29,-0.05 -2.48,-0.85 -1.72,-1.46 -1.35,-1.61 -1.43,-1.37 -4.32,-2.11 -4.54,-0.92 -2.93,1.24 0.56,4.4 -2.67,3.75 -0.7,1.95 0.77,1.32 1.25,1.92 -0.14,1.46 -0.68,1.61 -0.43,2.45 -1.47,0.78 -0.66,0.11 -19.04,2.97 -5.63,0.17 -5.22,-1.04 -1.79,-1.52 -0.68,-2.21 -0.17,-0.98 -0.26,-1.44 -1.03,-2.11 -1.9,-1.37 -2.59,-0.98 -2.84,-0.57 -14.37,-0.19 -2.74,0.76 -1.97,1.57 -2.11,1.27 -3.2,-0.06 -7.68,-3.82 -3.09,-0.51 -3.02,-0.87 -7.87,-6.16 -5.35,-0.44 -3.17,3.23 -2.78,3.99 -4.23,1.98 -2.13,-0.55 -3.86,-2.45 -1.36,-0.54 -0.8,-1.38 -0.57,-8.18 -2.77,-3.22 -4.1,-0.57 -4.14,1.55 -2.88,3.11 -2.52,8.36 -1.33,1.19 -1.24,0.75 -8.75,9.14 -2.61,5.03 -3.49,10.42 -0.92,4.66 -1.4,21.95 0.36,4.26 -1.97,5.42 -3.33,4.44 -5.45,2.3 -3.51,0.56 -1.55,-1.76 -2.13,-1.17 -0.57,-4.66 -2.72,-0.21 -1.57,1.15 -3.15,6.39 1.14,10.63 -0.72,1.98 -1.88,2.53 -9.97,9.15 -1.43,2.67 -1.85,5.97 -1.59,2.28 -2.39,0.87 -2.22,-0.9 -1.63,-1.87 -0.67,-2.02 -3.01,-5.01 -0.15,-1.29 0.05,-1.32 -0.33,-1.58 -0.87,-1.4 -1.46,-1.73 -1.72,-1.45 -1.57,-0.65 -2.2,0.73 -1.28,1.8 -0.94,2.28 -1.2,2.16 -3.48,3.64 -2.17,1.71 -1.76,0.72 -4.26,-0.6 -0.93,0.22 -0.37,0.98 0.68,0.82 1.77,1.19 1.38,4.79 1.14,2.16 2.35,0.89 1.14,-0.31 0.95,-0.76 0.66,-0.98 0.59,-2.44 1.23,-0.48 5.73,0.32 5.29,2.12 0.65,0.33 0.74,0.77 0.59,0.97 0.24,0.9 0.58,0.51 1.22,-0.53 1.15,-0.86 0.43,-0.43 2.31,0.35 1.32,1.04 1.92,1.79 1.56,-0.86 4.64,1.47 2.54,-2.12 5.23,-0.84 13.45,-1.7 2.58,0.36 4.09,0.8 2.42,0.69 2.23,-0.57 3.89,-0.86 3.96,-0.11 2.44,-0.44 1.34,1.65 1.75,-0.57 0.43,-1.74 2.2,-0.7 2.61,-0.39 2.52,-0.42 2.42,0.01 3.75,0.54 5.65,1.89 9.07,7.57 5.52,2.49 4.15,-0.27 4.6,3.43 0.83,0.63 0.66,0.93 0.13,0.86 0.49,0.6 1.72,0.23 0.68,0.41 1.29,1.79 0.65,0.4 1.75,0.19 1.1,0.44 1.09,0.6 1.68,0.58 2.72,0.25 3.09,-0.37 2.87,-0.85 0.38,-0.23 2.44,-3.58 3.52,-1.04 3.76,1.53 3.71,-0.41 3.33,2.44 0.62,4.31 -0.19,4.82 -3.36,3.18 -5.01,6.19 -2.25,2.12 2.08,2.78 -0.72,1.26 -2.18,0.34 -2.21,-0.03 -2.24,1.12 -2.08,2.56 -1.56,2.92 -0.68,2.11 0.3,2.61 -0.98,5.42 3,3.14 -0.02,3.26 -0.15,2.31 1.23,-0.41 3.35,-1.69 3.21,0.51 2.72,1.23 5.29,4.5 10.78,0.89 23.16,2.22 10.17,0.3 29.8,2.39 4.88,1.36 4.33,1.1 4.07,1.23 4.34,0.55 6.51,0.83 8.06,0.96 6.3,-1 1.11,1.25 0.75,0.29 0.74,-0.18 2.55,0.77 2.33,0.56 1.35,2.71 5.99,1.37 3.4,1.65 4.49,1.09 4.37,3.55 4.47,2.04 2.17,3.26 1.08,2.85 3.53,1.22 8.14,1.1 3.54,0.82 2.7,1.76 0.27,3.66 4.34,2.04 5.15,-0.81 6.1,0.14 23.32,5.97 23.9,3.93 16.04,0.13 5.26,-3.26 1.08,-3.67 0.51,-5.7 4.01,-3.47 2.51,-0.63 8.36,-0.16 1.7,0.23 0.96,0.64 0.66,2.97 2.64,0.56 0.65,-0.22 0.22,-1.11 -0.8,-2.48 1.08,-1.09 1.27,-1.27 1.54,-0.85 1.26,0.01 1.02,0.59 0.89,0.72 0.8,0.34 3.25,1.8 3.45,-2.45 1.35,-1.12 1.01,-0.85 1.71,-2.58 0.89,-0.9 3.1,-1.53 0.84,-0.61 1.84,-0.44 1.06,2.79 1.02,5.89 1.5,1.4 2.12,0.87 2.62,0.39 2.86,0.12 1.52,0.23 1.3,0.64 3.86,3.24 0.86,-0.07 1.49,-1.52 1.71,-2.34 6.53,-1.91 12.53,1.19 21.7,2.21 3.65,1.19 0.74,0.45 0.13,0.6 -0.92,1.38 -0.08,0.72 0.64,0.65 0.87,0.3 0.78,0.38 0.32,0.89 1.14,1.19 2.59,-0.27 4.97,-1.31 21.59,2.53 12.1,3.87 7.51,1.46 4.5,1.7 4.51,1.03 z"
         id="path2" />
    </g>
  </g>
</svg>
