<?xml version="1.0" encoding="utf-8"?><svg xmlns="http://www.w3.org/2000/svg" version="1.1" baseProfile="tiny" width="1200" height="800" viewBox="0 0 1200 800"><g><g stroke="#000000" stroke-width=".98" fill="#000000"><path d="m598.08 464.54l3.27 2.2 12.94 3.81 32.02 16.64 4.01.47 1.17.31 2.41 2.26.62.36 3.09 3.13.46.9 1.14.21 1.41-.03 1.31.16 8.33 4.6 2.47.71 3.15.36 3.53.94 6.78 3.06 0-.86 4.64 2.29 2.69.91 2.63.35 1.24.42 1.81 1.81 1.24.39 16.76 1.02 10.51 2.48 8.5 3.79 2.42.57 5.18 0 1.06-.27.77-.7 1.22-1.73.6-1.05.47-1.25.59-.93.95-.18.84 1.1.19 1.76.45 1.63 1.58.74 1.42.19 1.24.55.91.96.35 1.41.47 1.26 1.18.09 10.36-3.15.48-.63 1.12-.48 1.3-.13 1.02.38 1.36 1.17.72.32 1.38-.19 6.52 0 1.18.38 1.48 1.08.79.28 1.21-.09 2.22-.66.96-.05 2.15.93.19 1.12-.24 1.53.89 2.06 8.74 2.15 1.91-.4 1.91-1.41 1.73.14 4.32 2.27 2.11.33 1.41-1.73.87 0 1.09 2.5 1.88 1.92 2.44 1.25 2.84.44 1.48-.41.48-.9-.26-.89-1.82-.98.25-1.22.72-1.21.41-.5.78-2.72.68-1.21 1.11-.51 1.17.68.83 1.54.6 1.53.51.69 2.49-.79.24-1.99-.16-2.58 1.32-2.57 1.34-.63 1.2.3 1.24.71 1.41.56 1.43.24 3.3-.24 1.89.65 3.02 2.89 2.52.83 1.09-.06.56-.37.58-.61 3.16-2.12 1.2-.06 4.05 2.56 2.79.91 23.3 2.39 2.28.78.76.53.57.59.87.44 1.69.18 3.38-1.36 1.36-.38 2.61-.09 3.24.47 3.12 1.18 2.26 2-.34.49-.6 1.26 2.79.06 1.88.94 1.64 1.09 2.01.53 9.9 0 6.67 2.34 4.9.81 5.58 2.56 2.08 1.36 2.24-2.2 1.45-.97 1.88-.4 2.07-.19 1.86-.61.92-.63 1.78-1.63 1.9-1.07.71.13 1.17.94 1.11.47 1.27-.29 1.07-.84.43-1.12.52-.71 2.98 2.17 1.67-.12 4.05 1.56 4.32-2.9 6.39-7.39 4.98-2.62 5.49-1.35 16.16-1.93 5.42.46 5.22 1.43 5.2 2.19 2.89 1.91 6.22 7.3 2.33 1.14 2.01-.79 2.1-1.08 2.59.25.74.58.82 1.62.63.93.84.81 4.64 2.68 1.73.16 4.06-.59.78.37 1.45 1.69.8.64 3.92.79 1.59.68 2.27 3.38 1.79 1.26 2.07.26 1.24-.42 1.08-.16 1.66 1.12.18.81-.27 2.2.53.46 2.25.1 1.14-.12.49-.39.7-1.18 1.72-.99 2.16-.64 1.94-.25.97.85.64 4.35.58 1.86.31-.67.32-.27.46-.27.64-.61 2.1 1.67 3.28 1.41 3.28.99 2.18.37 1.38-.3 2.6-1.24 1.27-.3 1.21.66-.1 1.55-.49 1.77-.16 1.35 1.52 2.06 1.88-.23 2.21-1.14 2.48-.69 1.21.54 1.17 2.41 1.08.55 4.5.82 1.15.03 5.59-2.01 3.37-.33 1.48 1.93 1.33 1.37 3.01-1.16 5.17-3.27 5.17.12 5.95 2.64 4.51 4.12.84 4.55-2.8 3.33-.36 1.94 2.78.85 7.13-.52 2.82.52 11.1 3.81 5.29-.3 3.49-4.47.11-3.14-1.28-2.04-1.54-1.53-.75-1.59-1.05-1.47-6.72-2.45-3.19-2.14-1.61-.4-2.53-.08-2.13-.8-2.01-1.99-1.57-2.58-.86-2.59.17-8.38-.54-4.07-2.22-2.3-.06 5.72-.51 3.25-1.54 1.41-1.55-1.12-.42-2.69-.22-5.78-1.46-2.9-.27-1.46.09-1.28.62-2.94.31-3.7 4.91-25.41 5.31-18.41.06-6.09-.23-.88-.37-.93-.29-1.1.02-1.43.53-1.52 1.61-2.32.36-.97.8-5.39.1-2.77-.9-2.72-1.8-1.92-4.96-2.74-2.25-1.93-.99-.5-1.45-.12-2.8.14-1.65-.14-1.17-.38-1.92-1.22-4.61-4.49-1.9-.65-2.75.37-5.17 1.38-3-.08-4.03-1.61-2.96-2.59-5.01-6.35-4.02-2.4-3.72.78-8.99 7.64-1.84.75-2.67.29-2.95-.4-2.08-.64-1.88-.13-2.23 1.17-2.6 3.12-1.61 1.43-2.27.58-2.89-.45-5.07-1.86-2.91-.21-1.14.32-2.51 1.13-1.54.28-16.49-2.52-3.03.43-4.02 2.34-2.01.54-2.67.36-2.79.91-4.55 2.3-4.45 2.99-2.46 1-3.01.37-1.77-.87-3.08-4.02-2.5-1.21-1.45.02-2.72.69-1.1.16-1.55-.31-2.77-1.17-4.14-1.03-2.68-1.87-4.46-4.41-2.56-1.99-2.38-1.02-2.64-.35-3.26-.04-2.34-.55-16.07-6.99-10.55-7.87 0-10.5 1.08-2.07 4.73-3.23 1.09-2.58.01-5.12.25-2.23 1.04-4.62.04-1.95-.43-1.95-1.86-3.58-1.35-2-1.7-1.71-2.05-.78-2.92.74-1.98 1.95-1.67 2.39-1.97 1.97-6.98-3.12-3.21-1.94-2.07-2.85 7.66.79 1.85-.79.62-2.26-1.17-2.6-2.06-2.15-2.12-.9-1.11-.86-1.29-1.95-1.07-2.2-.45-1.52.9-1.12 2.04-.87 4.04-1.13-1.06-2.17-1.78.21-1.85.75-1.35-.53-1.07-1-2.83-4.3-.56-1.23.5-3.1 2-5.05.16-2.73-.34-1.14-.62-1.33-.8-1.16-.9-.7-1.85-.66-.71.18-.04.94.08 1.67-.72 2.62-1.81 1.24-2.54.01-2.78-.87-1.87-1.31-1.87-1.71-2.07-1.49-2.48-.62-.76.34-.86.71-.93.47-1.89-.74-4.63-.78-3.01.33-5.19 1.82-2.59.44-5.2 0-1.33.23-4.26 1.51-5.34.7-5.53.1-2.9-.61-2.04-1.58-7.33-9.56-4.26-4.3-2.24-.69-2.78.7-4.08 2.11-2.78.92-2.03-.12-2.12-.49-5.34-.56-8.46-2.27-2.98-1.4-2.76-1.98-2.82-2.74-2.29-2.22-4.2-5.3-1.43-1.23-4.18-1.78-7.23-1.41-3.35-2.09-1.97 2.14-4.26 6.21-1.95 1.29-2.61.33-5.27 1.3-3.02.11-23.48-2.65-.8.12-.78-.15-.93-.81-2.24-4.55-4.67-13.47-2.14-4.4-.79-5.02-.94-1.68-1.38-1.19-1.65-1.14-.14-.39-.94-1.14-1.08-.69-.5.94-.55.37-1.3.13-2.49-.07-1.36-.49-3.5-2.14-1.17-.93-2.74.9-7.7.92-1.08.33-1.97.96-1.27.45-3.42.6-6.4 2.61-1.48 1.12-2.12 2.92-1.31.93-2.6.5 1.37 2.8-.44 1.61-1.11 1.5-.62 2.42-.19 5.18-.74 4.83-1.61 5.63-9.25 18.85-5.63 7.52-5.17 5.44-1.74 1.08-2.07.58-2.71.19-2.47.64-2.02 1.33-2.29.99-3.2-.35-2.66-1.47-5.27-3.84-4.33-1.31-5.84-2.67-1.84-1.16-.57-1.25-.19-1.44-.47-1.21-1.37-.52-.98.6-2.14 2.66-.41.7-1.36 1.26-3.11.86-16.48 2.38-5.47.1-5.61-.66-21.59-7.03-24.49-3.55-4.94-4.29-6.92 7.47-10.92 1.98-22.13-2.48-3.35.1-.96-.1-3.46-2.25-2.96-.9-4.88-3.82-1.51-.75-2.62-.88-2.47.06-1.09 2.06-.25 2.87-.92 1.77-1.84.84-3.04.13-2.76-.6-1.41-1.25-1.05-1.61-1.06-1.02-.7-.66-1.71-.53-2.21-.31-1.95-.57-1.05-1.29-5.4 2.97-5.5.13-5.49-2.06-5.35-3.65-7.28-.72-3.91-11.73-4.43-23.26-6.55-3.83-1.66-.6-2.43-1.27-10.52-12.95-.98-8.62-.54-3.33-2.69.54-.86 1.4-2.69-1.62-7.86-.21-4.1-1.19-2.26-1.29-1.51.43 1.51 1.19.86 1.18.22 1.62-.43 1.72-1.08 1.4-1.02.95-.43.31-3.18 1.86-2.05 1.4-1.62.43-2.04.11-2.48 0-2.48-1.08-3.13-1.07-7.45-3.67-5.46-2.29-6.53-4.08 0-2.7-1.3-2.91-.97.54-1.74 1.94-1.84-.11-.22-1.73-2.7-.87-1.96.54.31 1.65-.37 1.13-.94.04-1.25-.46-1.27-.28-1.17.28-.71.69-2.94 1.24-1.6 1.2-2.11.4-2.01-1.1-2.71 1.4-2.91-1.61-4.31-4.82-7.33-.41-6.63-2.52-5.12-2.42-3.11-5.23-4.12-5.23-4.23-6.95-3.23-4.14-4.23-1.73-5.03-.97-9.56 2.87-2.22.36-2.29-.05-2.48-.85-1.72-1.46-1.35-1.61-1.43-1.37-4.32-2.11-4.54-.92-2.93 1.24.56 4.4-2.67 3.75-.7 1.95.77 1.32 1.25 1.92-.14 1.46-.68 1.61-.43 2.45-1.47.78-.66.11-19.04 2.97-5.63.17-5.22-1.04-1.79-1.52-.68-2.21-.17-.98-.26-1.44-1.03-2.11-1.9-1.37-2.59-.98-2.84-.57-14.37-.19-2.74.76-1.97 1.57-2.11 1.27-3.2-.06-7.68-3.82-3.09-.51-3.02-.87-7.87-6.16-5.35-.44-3.17 3.23-2.78 3.99-4.23 1.98-2.13-.55-3.86-2.45-1.36-.54-.8-1.38-.57-8.18-2.77-3.22-4.1-.57-4.14 1.55-2.88 3.11-2.52 8.36-1.33 1.19-1.24.75-8.75 9.14-2.61 5.03-3.49 10.42-.92 4.66-1.4 21.95.36 4.26-1.97 5.42-3.33 4.44-5.45 2.3-3.51.56-1.55-1.76-2.13-1.17-.57-4.66-2.72-.21-1.57 1.15-3.15 6.39 1.14 10.63-.72 1.98-1.88 2.53-9.97 9.15-1.43 2.67-1.85 5.97-1.59 2.28-2.39.87-2.22-.9-1.63-1.87-.67-2.02-3.01-5.01-.15-1.29.05-1.32-.33-1.58-.87-1.4-1.46-1.73-1.72-1.45-1.57-.65-2.2.73-1.28 1.8-.94 2.28-1.2 2.16-3.48 3.64-2.17 1.71-1.76.72-4.26-.6-.93.22-.37.98.68.82 1.77 1.19 1.38 4.79 1.14 2.16 2.35.89 1.14-.31.95-.76.66-.98.59-2.44 1.23-.48 5.73.32 5.29 2.12.65.33.74.77.59.97.24.9.58.51 1.22-.53 1.15-.86.43-.43 2.31.35 1.32 1.04 1.92 1.79 1.56-.86 4.64 1.47 2.54-2.12 5.23-.84 13.45-1.7 2.58.36 4.09.8 2.42.69 2.23-.57 3.89-.86 3.96-.11 2.44-.44 1.34 1.65 1.75-.57.43-1.74 2.2-.7 2.61-.39 2.52-.42 2.42.01 3.75.54 5.65 1.89 9.07 7.57 5.52 2.49 4.15-.27 4.6 3.43.83.63.66.93.13.86.49.6 1.72.23.68.41 1.29 1.79.65.4 1.75.19 1.1.44 1.09.6 1.68.58 2.72.25 3.09-.37 2.87-.85.38-.23 2.44-3.58 3.52-1.04 3.76 1.53 3.71-.41 3.33 2.44.62 4.31-.19 4.82-3.36 3.18-5.01 6.19-2.25 2.12 2.08 2.78-.72 1.26-2.18.34-2.21-.03-2.24 1.12-2.08 2.56-1.56 2.92-.68 2.11.3 2.61-.98 5.42 3 3.14-.02 3.26-.15 2.31 1.23-.41 3.35-1.69 3.21.51 2.72 1.23 5.29 4.5 10.78.89 23.16 2.22 10.17.3 29.8 2.39 4.88 1.36 4.33 1.1 4.07 1.23 4.34.55 6.51.83 8.06.96 6.3-1 1.11 1.25.75.29.74-.18 2.55.77 2.33.56 1.35 2.71 5.99 1.37 3.4 1.65 4.49 1.09 4.37 3.55 4.47 2.04 2.17 3.26 1.08 2.85 3.53 1.22 8.14 1.1 3.54.82 2.7 1.76.27 3.66 4.34 2.04 5.15-.81 6.1.14 23.32 5.97 23.9 3.93 16.04.13 5.26-3.26 1.08-3.67.51-5.7 4.01-3.47 2.51-.63 8.36-.16 1.7.23.96.64.66 2.97 2.64.56.65-.22.22-1.11-.8-2.48 1.08-1.09 1.27-1.27 1.54-.85 1.26.01 1.02.59.89.72.8.34 3.25 1.8 3.45-2.45 1.35-1.12 1.01-.85 1.71-2.58.89-.9 3.1-1.53.84-.61 1.84-.44 1.06 2.79 1.02 5.89 1.5 1.4 2.12.87 2.62.39 2.86.12 1.52.23 1.3.64 3.86 3.24.86-.07 1.49-1.52 1.71-2.34 6.53-1.91 12.53 1.19 21.7 2.21 3.65 1.19.74.45.13.6-.92 1.38-.08.72.64.65.87.3.78.38.32.89 1.14 1.19 2.59-.27 4.97-1.31 21.59 2.53 12.1 3.87 7.51 1.46 4.5 1.7 4.51 1.03 2.91-.91z" /></g></g></svg>