<?xml version="1.0" encoding="UTF-8" standalone="no"?>
<svg
   xmlns:dc="http://purl.org/dc/elements/1.1/"
   xmlns:cc="http://creativecommons.org/ns#"
   xmlns:rdf="http://www.w3.org/1999/02/22-rdf-syntax-ns#"
   xmlns:svg="http://www.w3.org/2000/svg"
   xmlns="http://www.w3.org/2000/svg"
   xmlns:sodipodi="http://sodipodi.sourceforge.net/DTD/sodipodi-0.dtd"
   xmlns:inkscape="http://www.inkscape.org/namespaces/inkscape"
   version="1.1"
   width="1360"
   height="1360"
   viewBox="0 0 1360 1360"
   id="svg224"
   sodipodi:docname="Kotelny_Island.svg"
   inkscape:version="1.0.1 (3bc2e813f5, 2020-09-07)">
  <metadata
     id="metadata230">
    <rdf:RDF>
      <cc:Work
         rdf:about="">
        <dc:format>image/svg+xml</dc:format>
        <dc:type
           rdf:resource="http://purl.org/dc/dcmitype/StillImage" />
        <dc:title></dc:title>
      </cc:Work>
    </rdf:RDF>
  </metadata>
  <defs
     id="defs228" />
  <sodipodi:namedview
     pagecolor="#ffffff"
     bordercolor="#666666"
     borderopacity="1"
     objecttolerance="10"
     gridtolerance="10"
     guidetolerance="10"
     inkscape:pageopacity="0"
     inkscape:pageshadow="2"
     inkscape:window-width="1920"
     inkscape:window-height="974"
     id="namedview226"
     showgrid="false"
     inkscape:zoom="0.45192403"
     inkscape:cx="-179.49344"
     inkscape:cy="1189.377"
     inkscape:window-x="-11"
     inkscape:window-y="-11"
     inkscape:window-maximized="1"
     inkscape:current-layer="g894"
     inkscape:document-rotation="0" />
  <g
     id="g222"
     style="fill:#000000;fill-opacity:1"
     transform="translate(79.9836,279.99941)">
    <g
       stroke="#000000"
       stroke-width="0.98"
       fill="#ffffff"
       id="g220"
       style="fill:#000000;fill-opacity:1">
      <g
         stroke="#000000"
         stroke-width="0.98"
         fill="#ffffff"
         id="g894"
         transform="matrix(1.5937507,0,0,1.5937507,-1795.3679,336.61977)"
         style="fill:#000000;fill-opacity:1">
        <path
           d="m 1915.727,10.611632 -8.7312,-16.7908496 -9.8507,-9.6267604 -35.3727,-14.1043 -4.7014,-7.61186 -2.4627,-8.95511 -1.3433,-3.35817 -1.791,-1.34327 h -9.179 l -18.1341,-15.2237 -22.6117,-11.86553 -23.731,-26.865342 -8.7312,-2.91042 -0.8955,0.44776 -3.1343,4.25368 -1.3433,0.44776 -0.8955,-1.56715 -0.4478,-2.0149 -0.6716,-1.56715 -9.4029,-8.28349 -9.8506,-2.91041 -19.4774,9.40288 -2.4627,4.70144 2.6866,10.970002 -10.5223,-3.58205 -21.2684,3.58205 -12.7611,-10.074492 -37.1637,-12.31329 -5.597,-5.1492 -1.791,-3.13428 -4.2537,-11.86554 -27.3131,-39.40252 -22.6116,-19.70126 -20.5968,-24.4027 -10.5222,-3.58204 -22.164,-20.82065 -5.373,-1.34327 1.3432,4.92532 4.7015,7.61185 1.791,4.0298 -0.2239,0.44776 v 1.56715 2.01489 l 0.2239,1.79102 0.6716,1.56715 4.9254,8.50737 0.6716,2.23878 2.9104,10.74613 2.9104,7.38798 8.9551,9.62675 1.5672,6.94022 -3.8059,2.23878 -34.4773,-19.92514 -18.5818,1.56715 -3.806,2.23878 -3.3581,5.14919 -3.1343,8.73124 -1.5672,6.0447 -0.8955,5.59696 -0.2239,6.49245 -0.2238,8.05961 -0.4478,7.61184 -1.3433,6.49247 -0.6716,6.26858 2.6865,19.25351 v 15.895322 l -1.3432,15.44757 -2.6866,12.08942 10.7462,13.2088 3.1343,5.82083 -0.8955,0.67163 -0.8956,1.11939 -1.3432,3.35817 2.0149,3.35816 4.4775,4.25368 2.0149,3.35818 -3.1343,7.38797 -4.2536,4.02981 -8.2835,1.79101 -13.2088,-6.0447 -8.7313,3.35817 -19.4774,-6.71634 -2.2387,-2.0149 -1.3433,-2.0149 -0.6717,-2.46266 0.2239,-3.13429 0.8955,-3.80592 0.2239,-2.68654 0.6717,-7.61185 0.4477,-1.56715 1.1194,-1.79102 7.6119,-18.35799 -0.8956,-7.38798 -2.6865,-6.49245 -2.9104,-4.02981 -13.2088,-6.26858 -4.2537,-4.029802 -4.0298,-1.79101 -10.5223,12.089392 -19.0296,-13.880422 -1.5672,-2.46266 -3.358,-6.94022 -1.3433,-2.0149 -7.1641,-5.37307 -1.791,-3.35816 -0.6717,-3.35817 0.4478,-2.46266 2.2388,-0.89552 0.8955,-1.34326 v -3.1343 -3.58205 l 0.6716,-2.91041 2.0149,-0.44776 2.0149,2.01491 2.0149,0.44775 1.3433,-4.70143 -2.9104,-3.35817 -5.597,-9.85063 -2.9104,-3.35817 -16.567,-2.91041 -6.9402,-10.29839 -43.2084,-34.4772 -10.9701,-19.2535 -2.0149,-5.59696 -1.5671,-8.05961 v -3.58204 l 0.4477,-3.35817 0.2239,-2.68653 -0.4477,-2.23878 -4.0298,-4.02981 -2.2388,-0.67163 2.9104,-1.34327 7.8357,-2.68654 4.0298,-4.47755 -25.0743,10.97002 -25.0744,10.74613 -2.2387,4.47756 -1.7911,6.26859 -3.1342,14.99982 0.4477,1.11939 0.8955,3.35817 0.6717,1.11939 -1.3433,3.58205 -1.3433,4.25368 -0.6716,4.47756 0.4477,4.25368 -1.791,1.79102 -2.2388,-0.44775 -1.791,-3.80593 -1.3433,-13.2088 -1.3432,-3.58204 -1.7911,-3.35818 -1.5671,-4.92531 0.8955,-3.80592 1.1194,-2.0149 2.6865,-2.68654 -23.2833,15.44758 -4.7014,11.41778 -2.2388,1.34327 -2.0149,0.8955 -4.9253,6.94022 -1.5672,2.0149 -0.6716,3.58205 3.8059,-6.04471 6.4925,-6.26858 0.2239,-0.67163 1.1194,-0.22388 1.1193,0.89551 0.6717,1.34327 0.4477,2.46265 -8.5073,17.46248 -10.0745,6.04471 -20.5968,1.56715 -27.0892,23.95494 -1.7911,5.14919 v 0.67164 l 0.6717,11.41777 0.8955,9.179 2.9104,7.61184 7.1641,8.95513 2.9104,8.28348 3.582,6.268572 10.5223,8.28349 2.2388,7.38796 0.2239,2.23879 0.4477,2.0149 0.4478,1.79102 -0.2239,2.01491 -0.8955,1.56714 -1.5672,0.67164 -2.4626,-0.89552 -10.0745,-10.97002 -16.7909,-0.22388 -8.0596,-6.71633 -12.9849,0.67163 -1.5671,0.89552 -0.8955,1.79102 -1.3433,5.59694 -0.8955,2.23878 -8.0596,14.55208 1.1193,4.47755 5.8209,6.0447 1.791,3.35818 0.4478,4.70143 -0.2239,4.0298 -0.6717,3.35817 -1.3432,2.91042 1.5671,0.44775 2.9104,2.68654 1.5672,0.67163 2.2388,2.46266 4.0298,11.19389 2.6865,2.46266 -1.3433,4.0298104 -4.9253,-0.67164 -2.4626,1.79103 -1.3433,3.35817 v 1.34327 l 0.2239,1.11939 v 2.23878004 l -0.2239,1.56712996 -0.2239,1.1194 -0.2239,1.56714 -0.4477,2.46266 0.2239,4.4775596 2.2387,4.47756 3.806,5.82083 1.5671,3.13428 2.4627,7.83574 1.3432,5.14919 h -12.5371 l -2.2388,2.46266 -0.2239,5.59694 -0.2239,5.37308 -1.3432,2.46265 1.3432,7.83574 1.5672,1.56714 4.2537,-4.0298 6.9402,-3.58205 7.1641,0.67163 4.7014,2.68654 2.2388,3.80593 1.1194,6.94021 -0.8955,7.38797 -2.0149,4.92532 -2.4627,2.68653 -11.8655,5.37307 h -10.0745 l -3.1343,-2.68654 -7.6119,-17.2386 -5.8208,-0.22387 -11.4178,10.29839 1.1194,4.70143 3.5821,7.38797 1.3432,3.80593 v 4.25368 l -0.2238,4.477558 -1.3433,9.40288 3.1343,3.80593 8.9551,22.16392 5.1492,9.17899 1.5671,4.25368 3.1343,10.74615 1.3433,2.9104 27.7609,31.5668 21.2684,10.52226 13.6565,17.68636 1.3433,3.58204 0.4477,3.80593 v 4.25368 l 0.4478,5.1492 1.1194,8.95511 2.0149,9.179 2.2388,8.05961 2.4626,5.37306 16.3431,18.58187 4.7015,2.23878 5.1491,5.1492 31.5669,11.41777 31.7907,11.64166 19.4773,20.82065 10.7462,1.79102 10.5223,-3.58205 10.5222,-9.179 14.776,-29.77576 0.4477,-1.56714 0.2239,-1.34327 2.4627,-9.62676 1.5671,-8.50736 1.791,-7.83573 2.6866,-6.26857 2.9104,-3.1343 1.1194,-2.23878 1.3433,-4.47756 -3.3582,6.71634 -4.4776,4.70143 -4.7014,0.89552 -3.5821,-4.70143 -0.4477,-6.71635 0.6716,-7.38797 0.2239,-6.26858 -2.4627,-2.91041 3.5821,-6.04471 12.5371,-11.86553 2.6866,-0.89551 4.2537,4.70143 2.2388,1.34327 10.2983,-2.23877 2.4627,2.23877 0.6716,2.91041 0.6717,8.50737 0.6716,4.0298 2.2388,4.25368 5.373,0.44775 2.4626,2.91042 0.8955,3.58205 1.3433,7.61185 1.1194,4.02981 5.8208,12.76104 27.537,-4.47756 19.2535,-13.88043 8.5074,0.67163 46.3428,-15.2237 25.0743,-1.11939 29.328,-17.01473 16.7909,-12.76104 34.4771,-2.0149 3.8059,4.92531 0.2239,5.82083 8.2835,8.95512 2.0149,3.13429 1.791,4.70144 -3.1343,3.58205 -3.582,-0.67164 -10.0745,-11.1939 -7.388,-4.02981 -3.3582,-0.44775 -6.9401,3.58205 -3.5821,3.80592 v 4.25369 l 37.1637,40.74578 15.4476,2.68654 15.8953,-6.26858 3.5821,-5.1492 -2.0149,-2.0149 -6.7164,2.0149 2.4627,-10.29838 2.9104,-5.37307 3.3582,-2.01491 4.2537,-0.22387 2.2387,1.56714 3.806,5.82083 2.4626,-0.44775 4.9254,-5.1492 2.6865,-1.11939 7.8357,4.47756 44.7756,-6.71634 19.9252,-11.19389 2.6865,-2.68654 1.1194,-3.80593 -4.0298,-14.10431 -5.1492,-9.85063 -5.3731,-1.56715 -10.7461,3.58205 -19.7013,-8.0596 -22.6117,-14.32819 -17.4625,-2.01491 -16.1192,-6.49245 -3.8059,-3.35817 -2.4627,-7.1641 0.6717,-2.68654 -2.9104,-14.1043 -4.2537,-7.1641 -9.6268,-9.17899 -1.1194,-3.80593 -0.2239,-4.70144 0.4478,-4.92532 -0.2239,-5.37306 -1.5671,-5.59695 -20.5968,-31.566808 -3.582,-11.64165 -0.6717,-7.83573 0.6717,-9.17899 2.4626,-18.58187 -8.7312,-17.46248 -1.3433,-3.80592 -0.2239,-3.35817 0.4478,-3.8059296 4.0298,-14.10431 1.1194,-5.5969504 -0.6717,-2.68654 -6.2686,-2.0149 -3.1341,-2.68654 -2.6866,-3.58204 17.0147,-2.0149 2.2387,-2.91041 -2.2387,-0.89552 -4.9254,-3.80592 -10.0744,-3.35817 -2.0149,-2.91042 5.1491,-1.79102 31.1191,2.46266 2.9104,-1.56715 2.2388,-4.70143 -2.6866,-6.94022 -3.8059,-4.47756 -4.2537,-2.0149 -3.1343,0.22388 4.4776,-5.59695 17.2386,2.68653 10.0745,-5.59694 h 4.0298 l 1.3433,0.89551 1.1194,1.79103 1.791,4.70142 1.1194,1.1194 18.358,-5.14919 9.6267,6.49245 4.0298,24.17882 -0.8955,11.1939 -2.0149,6.0447 -16.1192,16.1192204 -12.0894,4.0298 -8.2835,13.6565596 -0.6716,1.11939 -0.4478,2.46265 -0.2239,4.70144 -0.4477,1.56715 -8.2835,5.37307 -2.0149,4.47756 -0.4478,5.14919 0.8955,2.23878 1.1194,2.46266 0.4478,4.70144 -0.6716,6.26858 -2.6866,9.62675 -0.6716,4.0298 1.3433,6.26859 2.6865,5.37306 5.3731,6.71634 5.1492,3.1343 1.5671,4.253688 0.6716,9.85062 0.8956,6.04471 3.3581,4.92532 -0.2238,6.0447 3.1342,3.35817 6.7164,-1.11939 2.9104,2.68653 0.4478,3.80593 1.5671,12.08941 1.3433,3.58205 v 2.23878 l -0.2239,2.68653 0.2239,2.01491 1.1194,3.58204 1.3432,2.01491 4.4776,2.9104 4.2537,-0.8955 4.7014,4.02979 1.3433,-1.11939 3.1343,6.71635 16.7908,6.0447 10.2984,8.95512 5.1492,1.56714 9.8506,-7.61184 22.8356,2.0149 2.6865,2.23877 6.4925,9.85064 9.8506,5.82083 2.4627,2.46265 2.6865,1.11938 14.9999,-8.0596 17.4624,-0.22387 4.2536,-2.23878 4.0298,-6.04471 7.6119,-16.34309 7.8357,-9.62675 8.5074,-5.37307 2.4627,-3.13429 1.791,-6.26859 1.3433,-9.17899 0.6716,-9.62676 -0.6716,-7.83572 4.7014,-5.59695 11.6417,1.11939 5.1491,-5.82083 -4.7014,-7.38797 -18.8057,-11.193908 -2.2388,-2.23878 -0.8955,-5.37307 0.4477,-2.91042 2.2388,-7.16408 0.6716,-4.47757 -0.2238,-5.59695 -0.4478,-2.0149 0.2239,-2.23878 1.3432,-6.0447 1.7911,-4.25368 5.1492,-6.04471 17.9102,-9.85062 10.2984,-10.97003 18.8058,-7.61184 11.1939,3.13429 0.8955,-1.79102 -0.6717,-3.58205 z"
           id="path882"
           style="fill:#000000;fill-opacity:1;stroke-width:21.9401" />
      </g>
    </g>
  </g>
</svg>
