<?xml version="1.0" encoding="UTF-8" standalone="no"?>
<svg
   xmlns:dc="http://purl.org/dc/elements/1.1/"
   xmlns:cc="http://creativecommons.org/ns#"
   xmlns:rdf="http://www.w3.org/1999/02/22-rdf-syntax-ns#"
   xmlns:svg="http://www.w3.org/2000/svg"
   xmlns="http://www.w3.org/2000/svg"
   xmlns:sodipodi="http://sodipodi.sourceforge.net/DTD/sodipodi-0.dtd"
   xmlns:inkscape="http://www.inkscape.org/namespaces/inkscape"
   version="1.1"
   width="1360"
   height="1360"
   viewBox="0 0 1360 1360"
   id="svg224"
   sodipodi:docname="Kyushu.svg"
   inkscape:version="1.0.1 (3bc2e813f5, 2020-09-07)">
  <metadata
     id="metadata230">
    <rdf:RDF>
      <cc:Work
         rdf:about="">
        <dc:format>image/svg+xml</dc:format>
        <dc:type
           rdf:resource="http://purl.org/dc/dcmitype/StillImage" />
        <dc:title></dc:title>
      </cc:Work>
    </rdf:RDF>
  </metadata>
  <defs
     id="defs228" />
  <sodipodi:namedview
     pagecolor="#ffffff"
     bordercolor="#666666"
     borderopacity="1"
     objecttolerance="10"
     gridtolerance="10"
     guidetolerance="10"
     inkscape:pageopacity="0"
     inkscape:pageshadow="2"
     inkscape:window-width="1920"
     inkscape:window-height="974"
     id="namedview226"
     showgrid="false"
     inkscape:zoom="0.235888"
     inkscape:cx="-543.78924"
     inkscape:cy="241.34386"
     inkscape:window-x="-11"
     inkscape:window-y="-11"
     inkscape:window-maximized="1"
     inkscape:current-layer="g220" />
  <g
     id="g222"
     style="fill:#000000;fill-opacity:1">
    <g
       stroke="#000000"
       stroke-width="0.98"
       fill="#FFFFFF"
       id="g220"
       style="fill:#000000;fill-opacity:1">
      <path
         d="m 1001.6647,689.17293 7.2617,1.4014 6.37,2.548 8.4084,-2.1658 7.3892,-8.5358 -6.7522,-7.644 -2.4206,-1.4014 -6.4974,0.1274 -4.0768,-4.9685 -1.1466,-5.733 6.4974,-13.377 2.1658,-7.7714 1.5288,-2.0384 7.8988,0.8918 5.3508,-1.7836 2.1658,-2.8028 6.8796,-12.1029 1.5288,-4.9686 -0.3822,-3.5672 -0.637,-1.274 -0.1274,-0.7644 1.1466,-2.1658 1.7836,-2.2932 4.9685,-4.2042 4.5864,-8.1536 6.1152,-3.6946 2.0384,-6.2426 4.7138,1.911 5.3508,7.644 3.0576,-1.911 0.3822,-6.7522 0.8918,-7.6439 1.0192,-1.274 1.911,-1.0192 1.5288,-1.911 0.5096,-2.1658 0.2548,-1.4014 v -12.6126 l 3.6946,-9.555 17.8359,2.2932 7.2618,-6.8796 5.4782,0.3822 7.007,-3.0576 6.1152,-5.096 2.548,-6.2425 -2.1658,-2.548 -11.2112,1.6562 -4.9686,-0.637 3.185,-5.2234 3.3124,-2.548 3.3124,-1.7836 3.3124,-2.9302 3.9494,-7.5166 -1.6562,-3.185 -3.4398,-1.7836 -1.7836,-3.0576 4.8412,-6.6248 11.7207,-9.1727 7.007,-1.6562 8.0262,-4.0768 7.5166,1.274 -1.1466,-4.459 -7.7714,-1.7836 -10.0646,-1.911 -4.8412,6.4974 -3.0575,1.1466 -1.6562,-2.0384 0.2548,-2.4206 -4.5864,2.4206 -2.8028,-1.274 -2.0384,-2.548 -2.548,-1.4014 -3.5672,0.8918 -4.0768,1.7836 -3.5672,-6.7522 -5.733,-0.1274 -7.7714,-7.7714 -4.3316,-2.9302 1.4014,-13.1221 6.1152,-7.7714 2.548,-8.4084 6.1152,-0.1274 14.7784,0.8918 9.6824,-2.548 1.5288,-5.8604 -6.6248,-12.74 -1.7836,10.4468 -2.4206,2.548 -3.4398,1.4014 -3.4398,-0.637 -3.4398,-2.548 -2.8028,-4.0768 -3.185,-7.5166 -3.0576,0.2548 -0.7644,5.733 -1.274,5.096 -5.096,-0.3822 -3.822,-3.6946 -5.7329,-1.0192 -3.9494,2.0384 -6.6248,-3.4398 2.1658,-5.3508 5.8604,-6.8795 10.4467,-7.1344 -4.3316,-1.911 -12.1029,0.1274 -9.9372,7.1344 -12.74,-6.6248 6.6248,-11.3386 1.6562,-7.89879 6.7522,-8.40838 6.1152,-2.29319 2.9302,-3.31239 -0.2548,-6.87959 4.0768,-9.68238 7.7713,-13.50437 -7.0069,-1.01919 -12.8674,7.26178 -10.9564,3.82199 -23.0593,-4.33159 -19.6196,-7.64398 -4.0768,7.38918 -17.45374,-8.02618 -16.1798,8.53578 -24.7155,-0.8918 -7.3892,-2.93019 -6.8796,-5.60559 -4.7138,-30.83073 2.9302,-10.19198 10.4468,-1.40139 5.4782,6.24258 3.3123,2.8028 h 7.7714 l 7.644,-1.4014 1.7836,-7.13438 3.3124,-1.7836 9.555,-2.4206 1.5288,-5.73298 -1.1466,-7.26179 1.7836,-6.49738 7.13444,-2.9302 5.9877,3.0576 8.7906,4.58639 3.4398,-1.5288 1.1466,-10.57418 6.8796,-14.14136 3.822,-9.68238 -3.185,-12.86737 4.2042,-12.48517 -1.1466,-9.55498 -2.8028,-9.04538 -6.37,-11.59338 -9.0454,-16.56196 -8.4084,-11.84817 -7.77134,-1.274 -7.5166,1.0192 -7.7714,-4.33159 -6.6248,-2.6754 -6.2426,0.8918 -8.5358,0.2548 -11.5933,1.911 -8.6632,4.20419 -5.6056,6.49738 -3.185,9.80978 -6.2426,7.13438 -13.8865,12.48518 -2.0384,3.31239 -19.2374,3.18499 -17.0716,-2.93019 -15.0331,-0.5096 -10.4468,-10.44678 -14.014,-1.14659 -11.9755,-3.9494 -16.4346,-2.54799 -9.8098,-2.1658 -6.6248,1.0192 -8.2809,-4.96859 -6.37,-8.40838 -5.2234,-13.12217 -11.9756,-20.63875 -3.822,-9.04538 -1.4014,-11.975568 -0.8918,-3.4398 1.274,-15.41536 -8.281,2.03839 -7.3891,-2.03839 -1.6562,-1.4014 v -1.7836 l 0.637,-6.11518 6.2425,-4.33159 1.7836,-2.8028 2.4206,-3.69459 -1.0192,-3.43979 -1.274,-4.45899 h 5.733 l 0.7644,-6.11519 -3.3124,-4.84118 4.2042,-6.24259 -0.1274,-2.67539 1.0192,-2.8028 3.4398,-5.60559 1.274,-9.68237 -4.459,-4.5863897 -11.7208,4.0767897 -10.3193,8.79058 -3.0576,9.80978 -5.9878,8.28098 -4.7138,3.56719 -6.37,0.8918 -6.1152,-3.0576 -3.6946,-8.15358 -3.822,-5.47819 -9.8097,-0.1274 -5.4782,2.548 2.548,-8.91798 -14.3962,-2.2932 -13.2496,0.3822 -9.4275,5.47819 -5.4782,-2.80279 -4.5864,-0.3822 -4.8412,0.637 -3.0576,1.40139 -11.5934,17.58116 -8.1536,6.36999 -8.0261,1.274 -18.0908,-1.6562 -6.36999,1.1466 -2.16579,2.16579 -1.274,3.0576 -3.31239,3.69459 -8.79058,5.73298 -3.9494,0.3822 -3.18499,-3.31239 -4.20419,13.88657 -2.16579,3.56719 -3.9494,2.9302 -2.93019,1.65619 -1.78359,2.4206 -0.637,5.73298 2.93019,3.5672 4.20419,0.89179 1.274,8.026188 -0.8918,8.91798 -5.98779,7.13438 -2.80279,4.45899 -6.11519,2.16579 -5.09599,4.96859 -5.09598,6.11519 -5.98779,5.60559 -15.67017,6.87958 -8.28098,-1.1466 -5.09599,-3.56719 -2.16579,-6.75218 -4.07679,-0.8918 -1.911,3.56719 2.1658,7.89878 4.58639,4.07679 4.33159,-1.27399 2.42059,2.42059 4.45899,2.4206 4.84119,3.05759 4.84119,-2.42059 6.75219,-5.98779 7.51658,-4.45899 1.6562,4.96859 1.65619,3.56719 -1.91099,9.04538 -1.1466,6.75218 -3.31239,5.22339 -6.75219,0.7644 -5.86039,2.67539 -10.57417,-0.25479 -5.73299,0.25479 -3.82199,5.73299 -1.5288,2.4206 -2.29319,0.2548 -1.911,2.16579 -1.91099,-1.274 -4.71379,-2.54799 -2.9302,-2.67539 3.822,-6.87959 -1.4014,-3.82199 -7.77138,1.7836 -2.2932,-1.7836 -5.35079,-3.31239 -1.65619,-7.26179 3.56719,-4.33159 -1.7836,-4.20419 -4.33159,-2.93019 -4.84119,-2.548 -1.14659,11.72078 -2.8028,2.80279 -2.67539,1.5288 -3.31239,0.5096 -4.33159,0.1274 -4.2042,-0.2548 -2.29319,4.84119 1.1466,5.73298 -6.62479,5.47819 -3.94939,1.5288 h -3.69459 l -3.94939,0.637 -4.07679,3.69459 -2.0384,3.82199 -0.3822,3.18499 1.7836,2.2932 4.71379,0.7644 3.31239,1.40139 1.0192,6.36999 3.56719,1.4014 12.35777,-3.0576 4.58639,-0.1274 -2.29319,5.86039 -4.45899,4.07679 -5.22339,2.1658 -4.96859,0.76439 -1.4014,1.274 -4.20419,3.31239 -4.33159,-1.40139 -6.87958,2.54799 -11.72078,5.09599 -4.07679,4.45899 -1.65619,11.21117 -4.45899,4.84119 -4.58639,2.2932 -10.57418,-1.4014 -5.22339,-2.42059 -3.31239,-4.20419 v -4.33159 l -1.6562,-4.58639 -3.56719,4.07679 -4.58639,-2.6754 1.6562,-5.22339 4.33159,-5.47818 1.6562,-4.58639 -7.26179,-8.66318 -12.35777,-7.13439 -9.30018,5.22339 -6.49739,-1.6562 -5.98778,-5.98778 0.5096,9.04538 -6.75219,8.91798 2.8028,14.77836 8.66318,11.21118 1.78359,6.36999 -3.56719,2.67539 -5.09599,-2.4206 -2.80279,-5.47818 -2.2932,-5.60559 -6.49738,-8.15358 -5.47819,1.1466 -2.67539,6.49738 -3.822,5.98779 3.6946,4.58639 7.51658,8.53578 20.00175,13.12217 -2.67539,3.31239 3.56719,5.47819 -4.58639,4.96859 -4.84119,8.91798 -1.91099,14.65096 2.54799,10.31938 1.274,6.11519 -5.22339,-2.4206 -4.07679,-3.82199 -2.80279,-5.09599 -1.911,-11.97557 -0.1274,-0.1274 -2.67539,-7.77138 -24.33335,-7.38919 -16.43456,5.22339 -9.30018,-4.33159 1.0192,-12.48517 -2.4206,-4.07679 -11.08377,16.56196 -9.04538,1.4014 -10.82898,-9.93718 -4.58639,4.58639 -1.52879,10.57418 -1.911,12.48517 4.96859,8.91798 1.91099,5.22339 0.7644,2.93019 -3.94939,3.82199 -2.80279,-0.7644 -3.18499,2.1658 -0.7644,7.64398 -4.33159,13.50437 4.58639,6.75219 h 9.93717 l 3.822,1.27399 6.62478,6.24259 4.07679,1.4014 3.82199,-0.5096 2.9302,-2.1658 2.67539,3.3124 1.4014,2.42059 v 2.80279 l -1.274,3.94939 3.94939,1.911 4.20419,2.67539 3.43979,3.5672 1.5288,4.7138 -1.4014,5.096 -8.15358,2.0384 1.6562,11.5933 2.67539,-1.274 2.8028,-4.9685 6.11518,0.2548 2.8028,1.1466 1.52879,-3.4398 1.5288,-9.9372 -0.8918,-9.80979 4.96859,1.91099 -0.5096,5.8604 0.8918,5.8604 1.7836,4.7138 7.38918,-7.8988 4.20419,0.2548 0.637,4.2042 -5.35079,2.2932 -0.2548,3.9494 1.4014,8.2809 -3.94939,-1.274 -2.1658,-0.3822 3.43979,11.5934 1.5288,4.9686 5.60559,3.822 5.35079,-0.5096 4.45899,-5.6056 4.20419,-3.0576 9.55497,6.6248 0.5096,8.918 h 3.94939 l 7.26179,-4.9686 10.82897,-3.9494 11.72078,11.9756 12.86737,9.555 0.7644,9.4275 -3.185,10.3194 -3.69459,6.7522 0.637,13.1222 20.89355,30.0663 6.62479,8.0262 -5.86039,1.6562 -20.00175,-8.5358 -20.00176,-7.007 -3.43979,6.7522 -2.1658,3.6946 -5.35078,2.4206 -1.6562,2.8028 -1.911,1.4014 -1.40139,-2.8028 -3.94939,-2.6754 -3.3124,-3.6946 -3.05759,-2.1658 -7.77138,-5.3508 4.96859,-4.9686 -1.4014,-7.5166 -5.35079,-4.4589 -1.1466,-16.3072 h 3.3124 l 2.03839,10.9564 2.1658,4.2042 3.05759,-3.6946 0.637,-7.007 -0.8918,-10.829 0.8918,-4.2042 2.67539,-3.9494 -4.20419,-6.8796 -5.86038,-7.0069 -11.72078,-3.5672 -5.47819,10.0645 -3.94939,2.1658 -2.29319,-5.8604 1.1466,-7.0069 5.47818,-10.3194 2.548,-2.8028 -1.6562,-3.3124 -2.03839,-0.8918 -2.1658,2.548 -2.42059,2.548 -1.274,-0.2548 -0.1274,-1.1466 0.3822,-3.9494 -0.2548,-1.1466 -5.60559,-8.5358 -14.77836,-6.8796 -6.87959,11.3386 -1.1466,13.5044 -3.31239,2.8028 -0.8918,7.5166 1.5288,5.8603 -2.80279,6.6248 -5.35079,4.8412 -0.3822,10.3194 2.80279,13.6318 5.09599,1.7836 3.56719,3.6946 3.3124,4.4589 1.40139,5.733 0.3822,5.3508 1.5288,4.5864 3.31239,7.1344 4.20419,7.007 8.79058,5.6056 4.45899,9.8097 4.45899,-1.911 3.94939,-3.9493 6.24259,2.0383 2.03839,4.9686 0.8918,5.6056 2.2932,2.6754 3.31239,2.1658 4.07679,3.5672 7.64398,16.562 v 6.37 l 13.50437,-1.1466 -5.09599,10.5741 -4.33159,3.3124 -3.31239,-4.8412 -4.07679,1.274 -2.42059,3.5672 -4.58639,0.8918 v 3.4398 l 2.42059,2.9302 4.07679,-2.4206 1.6562,2.6754 -1.4014,6.8796 -3.82199,6.7522 -3.94939,7.007 -4.33159,11.3385 -2.9302,2.9302 -5.22338,2.1658 -4.58639,2.0384 -5.98779,4.8412 2.42059,5.733 3.5672,-2.0384 5.22339,-3.3124 5.09598,1.6562 2.4206,1.4014 1.1466,-4.459 8.66318,-6.4974 9.04538,-8.281 2.16579,-7.2617 1.274,-3.5672 5.47819,-0.2548 7.26178,-4.0768 7.89878,-6.2426 3.18499,-8.4084 5.09599,-7.7714 9.80978,-13.7591 4.84119,-7.644 -2.16579,-5.6056 3.56719,-3.3124 1.40139,1.4014 0.2548,4.0768 2.9302,3.822 7.77138,-1.1466 6.75218,-3.4398 9.17278,-2.1658 6.75219,-5.9878 5.47819,-5.6056 11.33857,-4.5864 12.35777,2.6754 h 4.58639 l 3.82199,-2.9302 11.59338,1.1466 4.58639,4.2042 -1.6562,4.2042 -1.1466,2.4206 1.5288,3.185 3.43979,2.1658 4.45899,2.2932 1.0192,8.6632 -3.43979,4.0768 -4.20419,4.5863 -4.96859,4.0768 -3.94939,3.3124 -5.22339,5.3508 -4.33159,1.911 -5.35079,-0.7644 0.2548,10.192 0.2548,9.1728 6.75219,3.3124 3.18499,3.6946 5.47819,3.0576 1.27399,7.0069 -2.67539,4.8412 5.86039,0.2548 6.49738,-4.8412 9.55498,-1.274 3.18499,-1.911 1.911,-5.6055 6.62478,-1.1466 2.2932,-3.5672 -0.2548,-5.096 3.43979,-2.9302 14.39617,-0.5096 13.75917,-7.1344 7.38918,-9.4276 -3.82199,-7.3892 1.5288,-5.9877 7.26178,-9.8098 0.7644,-4.0768 -0.3822,-14.7784 -1.0192,-5.9878 -8.02618,-18.4729 -4.58639,-10.3194 -12.23037,-9.0454 -24.46075,0.5096 -18.60036,13.8866 -6.36998,1.0192 h -9.42758 l -8.15358,-6.1152 -3.82199,-5.8604 -6.62479,-3.185 3.94939,-2.0384 7.38919,-3.9494 5.47818,-3.4398 5.60559,-5.8604 9.55498,-2.6753 5.86039,-6.2426 0.1274,-10.0646 5.73298,-1.911 1.1466,-9.1728 -7.00698,-7.5166 -16.68937,-28.5375 -5.86038,-14.014 -4.96859,-7.8988 -1.7836,-8.6631 9.04538,4.2042 10.44678,-10.5742 15.67016,-11.2112 8.53578,-13.24957 6.36999,4.45899 12.35777,13.24958 h 3.94939 l 5.35079,0.5096 8.66318,2.4206 10.57418,1.4014 1.1466,2.4206 -0.1274,3.9494 1.78359,5.2234 2.8028,3.185 7.89878,5.8603 1.65619,0.8918 2.0384,0.2548 2.03839,0.3822 2.1658,1.911 0.5096,2.2932 -0.1274,5.8604 2.54799,8.7906 -0.76439,19.7469 2.54799,29.939 3.18499,8.281 11.08378,6.3699 17.58116,18.7278 29.42933,24.0786 4.84123,8.7905 0.7644,3.0576 1.4014,1.911 0.637,1.911 -1.4014,2.548 -4.3316,5.733 -1.65623,3.4398 -0.637,3.185 0.8918,4.8412 2.67543,5.3508 4.2042,4.5863 5.2233,2.1658 v 3.4398 h -3.5671 l -3.185,0.7644 -6.24263,2.2932 -5.98778,-0.5096 -4.20419,2.1658 -8.15359,7.644 -26.37174,13.5044 -6.87958,5.3508 -3.56719,6.37 5.22338,2.8027 6.24259,-3.1849 62.68063,-11.9756 10.192,-0.1274 -4.459,11.3386 -5.8604,7.3891 -27.26351,24.0786 -2.03839,3.822 1.14659,5.4782 8.79058,7.1343 3.05763,5.9878 -10.95641,-0.1274 -4.33159,1.6562 -3.18499,4.5864 6.62478,6.37 1.4014,11.7208 -3.56719,11.3386 -8.28098,4.9685 -9.80978,13.6318 -1.911,3.4398 1.5288,12.74 -0.5096,5.4782 -3.56719,4.9686 -10.06458,-9.8098 -2.80279,0.7644 -3.0576,9.0454 -0.50959,4.0767 1.27399,4.0768 -0.7644,4.2042 -1.78359,2.2932 -4.96859,3.185 -1.1466,2.4206 -3.82199,11.466 -27.77314,30.1937 -0.2548,1.5288 0.2548,6.6248 -0.637,1.4014 -3.18499,1.274 -1.40139,1.7836 -0.1274,0.3822 -3.5672,12.103 -1.27399,2.9302 -4.71379,4.7137 -8.15358,5.6056 -7.51659,2.4206 -11.72077,-15.0331 -15.79757,5.8603 -10.31937,12.3578 9.17278,9.4276 v 10.9564 l -6.75219,9.8097 -5.09599,4.2042 0.3822,8.4084 6.11519,5.733 1.5288,2.2932 4.33159,4.2042 3.31239,9.6824 2.54799,9.3001 -2.29319,19.8744 -6.75219,12.2304 4.20419,6.6248 10.44678,10.9563 -4.71379,-2.2932 -12.48517,-4.7137 -3.56719,3.5671 -3.6946,16.6894 3.9494,9.80977 0.89179,4.3316 5.98779,2.2932 17.83596,10.8289 4.96859,3.9494 14.65097,22.932 10.70157,12.4852 4.20419,7.1343 0.5096,8.281 -5.09599,9.555 3.94939,10.9564 -2.42059,14.9057 -4.33159,16.1798 -4.71379,7.3892 -4.33159,14.3962 -18.60036,17.8359 -6.36998,10.5742 -4.96859,-4.3316 -7.38919,-9.4276 -4.58639,-1.911 -3.31239,-0.5096 -4.96859,-2.0384 -3.56719,-0.1274 -3.05759,0.8918 -9.93718,5.2234 8.28098,4.8412 11.33858,9.3002 10.06457,10.192 4.33159,7.8988 -0.5096,5.3507 -6.11518,-0.8918 -4.33159,-0.5096 5.22339,5.733 3.82199,9.555 2.16579,6.4974 1.274,8.281 3.94939,6.4974 10.19198,1.0192 10.06458,-3.9494 8.53578,-0.3822 58.85866,1.911 16.81677,9.9371 4.45899,6.4974 3.69459,10.4468 0.2548,6.2426 1.91099,3.0576 5.73299,2.9302 5.35079,-0.1274 4.45899,-2.0384 4.33159,-0.2548 4.84119,5.4782 6.62482,-7.644 7.5165,-2.9302 6.37,-3.3124 2.548,-9.1728 1.4014,-7.5166 4.459,-15.6701 -0.637,-5.733 -14.014,-1.911 -7.8987,-11.8482 -5.35082,-1.911 -5.98779,-3.6946 -4.07679,-8.918 -4.71379,-18.2181 -11.46598,-25.7348 -1.65619,-9.4275 0.7644,-8.5358 4.20419,-18.3456 4.96859,-12.8673 6.24258,-10.9564 3.56719,-15.5428 2.8028,-4.7138 10.44681,-12.1029 1.5288,-3.822 1.4014,-11.5934 1.1466,-4.459 12.2303,-14.651 15.7976,-4.8412 19.8743,7.7714 14.651,-0.8918 10.829,10.4468 2.1658,16.3072 -4.3316,17.5811 -8.6632,14.3962 -6.7522,7.2618 -3.6946,1.7836 -4.9686,0.1274 -5.0959,-1.7836 -1.274,-3.3124 1.1466,-11.9756 -4.0768,-7.644 -9.1728,-2.2932 -9.8098,0.7644 -9.3002,-2.1658 -9.1727,4.7138 -8.79063,11.7208 2.80283,5.733 4.2042,3.185 3.9493,0.8918 6.6248,4.0768 22.4224,4.2042 3.822,7.6439 -4.9686,19.4922 4.2042,11.7208 16.8167,10.7016 8.5358,14.9057 4.9686,13.2496 4.8412,12.74 0.5096,8.5357 -2.6754,22.5498 -3.5672,14.651 -10.0646,17.1989 4.2042,7.7714 -8.5358,29.3019 -5.3507,4.3316 -15.1606,9.555 -9.9372,9.1728 -2.0384,29.6841 7.644,-0.7644 6.4974,-6.2426 11.7208,-12.6125 16.1797,-4.2042 2.4206,-3.9494 7.007,-5.6056 10.4468,-4.2042 9.8098,-1.1466 9.8097,-2.8028 14.014,-4.8412 6.37,-2.6754 6.37,-3.822 5.9878,-4.3316 4.7137,-4.7137 4.459,-6.37 6.4974,-13.7592 3.6946,-5.8604 0.5096,-9.555 9.555,-2.9302 10.4468,1.0192 27.5183,-24.3333 -2.8028,-3.9494 -12.3578,5.6056 -7.0069,-2.8028 3.3124,-6.6248 8.2809,-5.6056 1.1466,-3.4398 -1.274,-5.2234 -8.0261,-4.3315 -9.0454,-2.9302 -13.1222,-4.0768 -4.459,-4.0768 5.4782,-17.3264 6.6248,-11.5934 4.459,-5.4781 5.733,-4.459 14.3961,-6.6248 8.0262,-2.2932 7.7714,-0.7644 4.2042,3.3124 6.4974,5.096 8.2809,-2.1658 2.9302,0.637 1.7836,0.5096 2.548,3.6946 7.3892,8.1535 1.7836,2.8028 1.0192,4.459 -0.2548,7.5166 1.7836,3.3124 6.1152,3.0576 7.2618,-0.2548 15.4153,-2.8028 -0.5096,1.911 -0.3822,1.1466 -1.6562,2.8028 2.548,1.0192 1.0192,0.637 1.4014,1.6562 2.6754,-2.1658 0.8918,-2.8028 0.5096,-3.3124 1.4014,-3.9494 4.9686,-7.007 2.0384,-4.0768 3.6946,-21.4031 1.0192,-3.185 4.8412,-4.9686 1.911,-2.548 -0.1274,-9.555 -0.7644,-1.911 -1.4014,-1.7836 -1.0192,-2.8028 0.5096,-5.4781 1.6562,-4.459 5.096,-8.5358 1.0192,-0.7644 1.7836,-7.3892 4.5864,-5.4782 12.2303,-10.192 -1.7836,-13.6317 9.4276,-49.9407 1.274,-3.6946 5.4782,-7.5166 1.274,-4.07677 -10.829,-3.9494 -4.5864,-7.7714 -3.185,-11.4659 0.8918,-5.096 -1.0192,-8.1536 4.3316,-12.8674 14.5236,-48.5393 12.9948,-42.6789 7.6439,-28.1553 4.5864,-21.9128 6.8796,-16.3071 4.7138,-22.5498 3.822,-9.0454 3.185,-2.9301 2.1658,-1.0192 1.1466,-2.1658 0.8918,-10.5742 2.8028,-11.9756 1.6562,-3.9494 2.9302,-1.6562 4.5864,-0.8918 3.94944,-2.4206 9.8097,-6.8796 -5.8604,-9.1727 -6.6247,-7.007 z"
         id="path4"
         style="fill:#000000;fill-opacity:1;stroke-width:12.4852" />
      <path
         d="m 1066.43,792.44 -0.03,0.16 0.18,0.08 0.17,-0.02 0.05,-0.26 -0.13,-0.15 z"
         id="path122"
         style="fill:#000000;fill-opacity:1" />
      <path
         d="m 1066.22,791.82 -0.37,-0.24 -0.4,0.14 0.39,0.63 z"
         id="path164"
         style="fill:#000000;fill-opacity:1" />
    </g>
  </g>
</svg>
