<?xml version="1.0" encoding="UTF-8" standalone="no"?>
<svg
   xmlns:dc="http://purl.org/dc/elements/1.1/"
   xmlns:cc="http://creativecommons.org/ns#"
   xmlns:rdf="http://www.w3.org/1999/02/22-rdf-syntax-ns#"
   xmlns:svg="http://www.w3.org/2000/svg"
   xmlns="http://www.w3.org/2000/svg"
   xmlns:sodipodi="http://sodipodi.sourceforge.net/DTD/sodipodi-0.dtd"
   xmlns:inkscape="http://www.inkscape.org/namespaces/inkscape"
   version="1.0"
   width="1024.000000pt"
   height="1024.000000pt"
   viewBox="0 0 1024.000000 1024.000000"
   preserveAspectRatio="xMidYMid meet"
   id="svg126"
   sodipodi:docname="La_Palma.svg"
   inkscape:version="1.0.1 (3bc2e813f5, 2020-09-07)">
  <defs
     id="defs130" />
  <sodipodi:namedview
     pagecolor="#ffffff"
     bordercolor="#666666"
     borderopacity="1"
     objecttolerance="10"
     gridtolerance="10"
     guidetolerance="10"
     inkscape:pageopacity="0"
     inkscape:pageshadow="2"
     inkscape:window-width="1920"
     inkscape:window-height="974"
     id="namedview128"
     showgrid="false"
     inkscape:zoom="0.35872474"
     inkscape:cx="557.47563"
     inkscape:cy="958.17139"
     inkscape:window-x="-11"
     inkscape:window-y="-11"
     inkscape:window-maximized="1"
     inkscape:current-layer="g1103"
     inkscape:document-rotation="0" />
  <metadata
     id="metadata2">
Created by potrace 1.10, written by Peter Selinger 2001-2011
<rdf:RDF>
  <cc:Work
     rdf:about="">
    <dc:format>image/svg+xml</dc:format>
    <dc:type
       rdf:resource="http://purl.org/dc/dcmitype/StillImage" />
  </cc:Work>
</rdf:RDF>
</metadata>
  <g
     stroke="#000000"
     stroke-width="0.98"
     fill="#ffffff"
     id="g1103"
     transform="matrix(1.2902075,0,0,1.2902075,-353.12606,-59.414171)"
     style="fill:#000000;fill-opacity:1">
    <path
       d="m 792.6475,701.70153 v -0.25987 -0.27984 h 0.9495 v -0.53971 h 0.94948 v -1.07943 h 0.46976 v -0.53971 h 0.47974 v -0.53972 l 0.47975,-0.05 v -0.48975 h -0.47975 v -2.15884 h 0.47975 v -1.61914 h 0.46975 v -3.77799 h 0.46975 v -0.53971 h 0.47973 v -0.53972 h 0.46977 v -0.53971 h 1.42923 v -1.07943 h 0.94948 v -0.53971 h 0.46977 v -1.08942 h 0.47973 v -0.52972 h 0.46975 v -3.24826 h 0.46976 v -1.60914 h -0.46976 V 680.103 h -0.46975 v -0.52972 h -0.47973 v -1.08942 h -0.46977 v -0.52972 h 0.46977 v -1.08942 h 0.47973 v -1.60913 h 0.46975 v -0.54971 h 0.46976 v -1.07944 h 0.47974 v -1.61914 h 0.47974 v -0.5397 h 0.46976 v -1.07942 h 0.46975 v -2.15886 h 0.47973 v -0.53971 h 0.46977 v -0.53971 h 0.46974 v -0.53972 h 0.47974 v -4.31769 h 0.47975 v -0.53971 h 0.46975 v -0.53972 h 0.9495 v -0.53971 h 0.94948 v -0.53971 h 0.46975 v -0.53971 h 0.47975 v -1.07943 h 0.46975 v -1.07943 h 0.47975 v -0.64964 -0.42977 l 0.46975,-0.13996 v -0.3998 h 0.30983 l 0.0899,-0.0999 0.08,-0.43976 h 0.29984 0.63967 v -0.53971 h 0.94948 v -0.5397 h 1.899 v -0.53973 h 1.42924 v -0.53971 l 0.46974,-0.0103 v -0.52972 h 0.46975 v -0.53972 h 0.47975 v -0.53971 h 0.94949 v -1.07942 h 0.93951 v -0.53972 h 0.47973 v -0.53971 h 0.46975 v -0.53971 h 0.47975 v -0.53972 h 0.46975 v -0.53971 h 0.47975 v -0.5397 l 0.46975,-0.0103 v -0.53971 h 1.42923 v -0.53971 h 0.46975 v -0.52971 h 0.46975 v 0.52971 h 0.47975 v -0.52971 h 0.47974 v -1.61914 h 0.46974 v -0.54972 h 0.46977 v -0.5397 h 0.47973 v -0.53971 h 0.9495 v -0.53973 h -0.47975 v -0.52971 h 0.47975 v -0.5497 h -0.47975 v -0.52972 h -0.46975 v -0.54971 h 0.46975 v -0.53971 h 3.79796 v -0.53971 h 0.4697 v -1.61914 h 0.4798 v -1.06944 h 0.4697 v -1.0894 h 0.4798 v -0.53973 h 0.4697 v -0.52971 h 0.9495 v -2.16884 h 0.4698 v -0.54971 h 0.4797 v -0.52972 h 0.4698 v -0.53971 h 0.4797 v -0.53971 h 0.9495 v -0.53972 h 0.4697 v -0.53971 h 0.4698 l 0.01,-0.53971 h 0.4698 v -0.53972 h 0.4697 v -0.53971 h 0.4798 v -0.5397 h 0.4697 v -0.53973 h 0.4798 v -0.53971 h 0.4697 v -2.15884 h 0.4798 v -0.53971 h 0.4697 v -0.53972 h -0.4697 v -0.53971 h 0.4697 v -1.07943 h 0.4798 v -1.61913 h 0.4697 v -0.54971 h 0.4697 v -0.52972 h 0.4798 v -0.54971 h 0.4697 v -0.53971 h 0.9595 v -0.53971 h 0.9395 v 0.53971 h 1.4193 v -0.53971 h 0.4797 v -0.53972 h 0.4698 v -1.07942 h 0.4797 v -0.5397 h 0.4698 v -1.07943 h 0.4797 v -0.53971 h 0.4698 v -0.53973 h 1.4292 v -5.40711 h 0.4697 v -1.06943 h 0.4798 v -2.16885 h -0.4798 v -1.07941 h -0.4697 v -2.69857 h -0.4797 v -1.07942 h -0.4698 v -3.77798 h 0.4698 v -1.61914 h 0.4797 v -4.31771 h -0.4797 v -2.69856 h 0.4797 v -1.07943 h 0.4697 v -1.07941 h 0.4798 v -0.54972 h 0.9395 v -0.52972 h 0.4797 v -0.54971 h 2.3688 v -0.53971 h 0.9495 v -0.5397 h 0.9495 v -3.23828 h 0.4697 v -1.07943 h -0.9495 v 0.53972 h -0.9395 v -0.53972 h -0.4797 v -0.53971 -0.53971 h -0.4698 v -1.61914 h 0.4698 v -0.33981 -0.2099 h 0.4797 v -0.52972 h 0.4698 v -1.07941 h 0.4697 v -1.08943 h 0.4798 v -0.52971 h 0.4697 v -2.16886 h 0.4798 v -0.5397 h 0.4697 v -0.53971 h 0.4798 v -2.69857 h -0.4798 v -0.33982 -0.7396 h -0.4697 v -0.53972 h -0.4798 v -0.53971 h -0.4697 v -1.61914 h 0.4697 v -0.5397 h 0.4798 v -0.53971 h 0.4697 v -1.07943 h 0.4798 v -5.40712 h -0.4798 v -1.61914 h 0.4798 v -1.07943 h 0.4697 v -2.15884 h -0.4697 v -0.53971 h -0.4798 v -1.61914 h 0.4798 v -0.54972 h 0.9495 v -4.31769 h 0.4697 v -0.53972 h 0.4697 v -1.61912 h -0.4697 v -0.53973 h -0.4697 v -1.07941 h -1.899 v -0.53973 h -0.4798 v -1.07941 h 0.4798 v -0.53973 h 0.4697 v -0.5397 h 0.4798 v -1.61914 h -0.4798 v -1.07942 h -0.4697 v -4.86741 h 0.4697 v -0.54971 h 0.4798 v -0.52972 h 1.4192 v -1.07941 h 0.4697 v -0.54972 h 0.4798 v -0.52971 h 0.4697 v -0.54972 h 0.4798 v -1.07947 h 0.4697 v -0.53973 h 0.4798 v -0.5397 h 0.9395 v -0.53971 h 0.4797 v -1.07943 h -0.4797 v -2.15885 h 0.4797 v -1.07943 h 0.4798 v -1.07942 h 0.4697 v -1.07943 h 0.4698 v -1.08942 h 0.4797 v -2.15885 h 0.4798 v -1.07941 h 0.4697 v -5.39712 h -0.4697 v -4.3277 h -0.9595 v -0.53971 h -0.4698 v -0.53973 h -0.9495 v -0.5397 h -0.4797 v -0.54972 h -0.4698 l -0.05,-0.52971 h -0.4198 v -0.53971 h -0.4797 v -1.08942 h -0.4698 v -2.15885 h 0.4698 v -0.52972 h 0.4797 v -2.19882 -0.50974 h -0.4797 v -0.53971 h -0.4698 v -1.07943 h -0.4797 v -1.61914 h -0.4698 v -0.5397 h -0.4797 v -1.07944 H 862.84 v -5.40711 l -0.4697,-0.0103 v -2.14885 h -0.9495 v -0.54972 h -0.9495 v -0.52971 h -0.9495 v -0.53971 h -0.4797 v -1.07942 h -0.4698 v -0.54973 h -0.4697 v -0.53971 h 0.4697 v -0.53972 h 0.4698 v -0.53971 h 0.4797 v -1.61914 h -0.4797 v -1.61914 h 0.4797 v -2.70856 h -0.4797 v -1.07941 h -0.4698 v -0.53971 h 0.4698 v -1.07943 h 0.4797 v -0.53971 h 0.4698 v -0.53972 h 0.4797 v -1.61914 h 0.4697 v -1.07942 h 0.4798 v -0.5397 h 0.4697 V 458.67 h -0.4697 v -1.08942 h -0.4798 v -1.07943 h -0.4697 v -1.07941 h -0.4797 v -1.61914 h -0.4698 v -1.61914 h -0.4797 v -0.54972 h -0.4698 v -0.52971 h -0.4697 v -0.5497 h -0.4798 v -0.52972 h -0.4697 v -2.16885 h -0.4798 v -0.53971 h -0.4697 v -0.53971 h -0.9495 v -0.54971 h -0.9495 v -0.52972 h -0.4698 v -1.07941 h -0.9495 v -1.62915 h -0.4797 v -1.07941 h 0.4797 v -0.53973 h 0.4698 v -0.53971 h 0.4797 v -0.5397 h 0.4698 v -2.15885 h -0.4698 v -0.53972 h -0.9495 v -0.5497 h -0.9494 v -0.52972 h -0.4798 v -0.54971 h -0.4697 v -1.07942 h -0.4798 v -1.61914 h -0.4697 v -2.69857 h 0.4697 v -0.5397 h -0.9495 v -0.54972 h -0.9495 v -0.52972 h -0.4597 v -0.54969 h -1.4293 v -0.53973 h -1.4292 v -0.5397 h -0.4698 V 426.777 h -0.9494 v -0.53971 h -0.4698 v -0.53972 h -0.4797 v -0.53971 h -1.899 v -0.53971 h -0.4698 v -1.07943 h -0.4797 v -1.07943 h -0.4698 v -1.08941 h -0.4697 l -0.01,-0.53972 h -0.4698 v -0.52972 h -0.4698 v -1.08942 h -0.4797 v -2.14886 -1.0894 l -0.4697,-0.0103 v -1.07941 h -0.4798 v -1.07943 h 0.4798 v -1.07943 h 0.9494 v -0.53971 h 0.4698 v -0.53971 h 0.4698 l 0.01,-1.07943 h 0.4697 v -1.07942 h -0.4697 l -0.01,-1.28931 v -0.33851 h -0.4698 v -1.06944 h -0.4698 v -1.08942 h 0.4698 v -1.61914 h -0.4698 v -3.24827 h 0.4698 v -1.61914 h 0.4698 l 0.01,-0.53971 h 0.4697 v -0.5397 h 1.899 v 0.5397 h 0.4698 v 4.86741 h 0.9495 v 0.53971 h 0.9495 v -1.07942 h -0.4698 v -2.16885 h -0.4797 v -3.24827 h 0.4797 v -1.06942 h 0.4698 v -0.53971 h 0.4697 v -1.62915 h 0.4797 v -1.61914 h 0.4698 v -1.07941 h 0.4797 v -0.53971 h 0.9495 v -0.53972 h 0.9495 v -0.53971 h 0.4798 v -2.70856 h 0.4597 v -1.07941 h 0.4798 v -0.53973 h 0.4697 v -0.53971 h 1.4293 v 0.53971 h 0.4697 v -1.07941 h 0.4798 v -2.16886 h 0.4697 v -0.5397 h 0.2798 0.1999 v -0.53971 h 0.4698 v -8.64539 h -0.2499 -0.2199 v -0.53973 h 0.4698 v -0.5497 l 0.4797,-0.0103 v -9.17511 h 0.9395 v -0.53971 h 0.9495 v -0.53971 h 0.4798 v -1.07943 h 0.4697 v -0.53971 h 0.4798 V 358.664 h 0.4697 v -0.5397 h 0.4798 v -1.07944 h 0.4697 v -0.5397 h 0.4698 v -1.07943 h 0.4797 v -1.07944 h 0.4698 v -1.0894 h 1.8989 l 0.09,-1.14939 0.3898,0.07 v -0.5397 h 0.4697 v -0.53973 h 0.4698 v -0.5397 h 0.9495 v -0.53971 h 1.4292 v -0.53973 h 0.4697 v -1.0894 h 0.4698 v -4.3277 h 1.899 v -0.52972 h 0.4797 v -0.5397 h 0.4798 v -1.08943 h 0.4697 v -0.53972 h 0.9495 v -0.53971 h 1.899 v -0.52942 h 0.4697 v -0.5497 h 0.9495 v -0.53972 h 0.4698 v -1.07942 h 0.4797 v -2.16885 h 0.4698 v -0.53971 h 0.9495 v -0.53971 h 0.9495 v 0.53971 h 0.9495 v -0.53971 h 0.9495 v -0.53972 h 0.4697 v -0.53971 h 0.4798 v -1.07943 h -0.4798 v -0.53971 h 0.4798 v -0.54971 h 0.4697 v -0.53971 h 0.4797 v -0.53971 h 1.4193 v -0.5397 h 0.9495 v -0.53973 h 2.8385 v -0.53971 h 1.9689 1.3493 l 0.01,-1.07943 h 1.4193 v -0.54969 h 0.9495 v -0.52972 h 0.4797 v -1.08942 h 0.4698 v -0.53971 h 0.4697 v -0.53973 h 0.4798 v -0.5397 h 0.4697 v -0.53971 h 0.4697 l 0.01,-0.53972 h 0.9494 v -0.53971 h 0.4698 v -1.08942 h -0.4698 v -0.53971 h -0.1998 -0.2799 v -1.07943 h 0.4797 v -0.53971 h 0.6397 0.2999 v -0.53971 h 0.9495 v -0.53972 h 0.4797 v -0.5497 h 1.4192 V 316.4968 H 900.3 v -5.4171 h -0.4698 v -1.61914 H 900.3 v -0.53971 h 0.4797 v -0.53972 h 0.9495 v -0.53971 h 0.4698 v -0.53971 h 0.9495 v -0.53972 h 0.4797 v -2.70855 h -0.4797 v -1.07943 h -0.4698 v -1.08942 h -0.4797 v -0.52972 h -0.4698 v -0.54969 h 0.9495 v -0.53973 h 1.4193 v -0.53971 h 0.9494 v -0.5397 h 0.4698 v -0.53973 h 0.4797 v -0.53971 h 0.4698 v -0.5397 h 0.4797 v -1.62913 h 0.4698 v -0.53973 h 0.4797 v -0.5397 h 0.4698 v -0.53971 h 0.4797 v -0.53973 h 0.4698 v -0.5397 h 0.4697 v -0.53971 h 0.4798 v -0.53971 h 0.4697 v -0.54971 h 0.4798 v -3.77799 h 0.4697 v -1.07943 h 0.4798 v -1.62913 h 0.4797 v -1.08942 h 0.4698 v -0.52972 h 0.4697 v -0.5397 h 0.4698 v -0.53971 l 0.9495,-0.0103 v -0.5397 h -0.4698 v -0.53971 h -0.4797 v -0.53973 h -0.4698 v -1.61913 h -0.4697 v -1.08941 h 0.4697 v -1.61914 h 0.4698 v -4.3277 h -1.4093 v 0.53971 h -0.9595 v -0.53971 h -0.4697 v -0.5397 h -0.9495 v 0.5397 h -1.4193 v 0.53971 h -0.9495 v -0.53971 h -0.4797 v -0.5397 h -0.9495 v -0.53979 h -0.4698 v -0.53971 h -0.4797 v -0.5397 h -0.4698 v -0.53973 h -0.4697 v -1.0894 h -0.4797 v -8.10569 h -0.4698 v -2.16885 h -0.4797 v -0.53971 h -0.9495 v -0.53971 h -0.4698 v -0.53972 h -0.4697 v -0.53971 h -2.3788 v -0.54971 h -0.4697 v -0.53971 h -0.4806 v -2.15884 h -0.4698 v -1.61914 h 0.4698 v -0.54972 h 1.4292 v -4.31769 h -2.8484 v -0.54971 h -0.4698 v -0.53971 h -0.4797 v -2.70856 h 0.4797 v -0.52972 h 0.4698 v -1.0894 h -0.4698 v -0.53973 h -1.4292 v 0.53973 h -0.4698 v 0.5397 h -0.4797 v -0.5397 h -0.4698 v -2.15887 h -1.4292 v 0.53973 h -0.4698 v -0.53973 h -0.4797 v 0.53973 h -0.4698 v 0.5397 h -0.4697 v 0.53971 h -0.4698 v 0.53973 h -0.9594 v -0.53973 h -1.899 v -1.07941 h -0.4698 v -0.53973 h 0.4698 v -0.54969 h 0.4797 v -0.53973 h -0.9495 v -1.07941 h -0.4697 v -0.53971 h -1.899 v -0.53973 h 0.4697 v -0.5397 h -0.4697 v -1.08942 h -0.4798 v -0.52972 h -0.9495 v -0.54972 h 0.4798 v -0.5397 h -0.9495 v -0.53971 h 0.4697 v -1.61914 h -0.4697 v -1.07943 h -0.4698 v -0.5497 h -0.4797 v -0.53972 h -0.4697 V 226.7043 H 879.91 v -0.5397 h -0.4697 v -0.53973 h -0.9495 v -0.5497 h -0.9495 v -0.52971 h -0.9495 v -0.54972 h -0.4698 v -1.07943 h -0.4797 v -0.53971 h -2.3688 v -0.5397 h -0.4697 v -1.62913 h -0.4798 v -0.53973 h 0.9495 v -1.61914 h -0.4697 v -0.5397 h -0.4798 v -1.08943 h -0.4797 v -1.06942 h -0.9395 v -0.54971 h -0.9495 v -0.53971 h -0.4697 v -1.61914 h -0.4798 v -0.5497 h -0.4797 v -1.06944 h -0.4698 v -1.08942 h -0.4697 v -0.53971 h -0.4798 v -1.08942 h -0.4797 v -0.53971 h -0.4698 v -0.5397 h 0.4698 v -1.07944 h 0.4797 v -0.5397 h -0.9495 v -1.62915 h -0.4697 v -0.53971 h -0.9495 v -2.15884 h 0.4697 v -0.53971 h 1.899 v -0.54971 h 0.4798 v -1.07944 h -0.4798 v -0.5397 h -0.4797 v -0.53971 h -0.4698 v -0.54971 h -0.4697 v -1.07942 h -0.4798 v -0.53972 h -0.4697 v -0.53971 h -0.4797 v -1.07943 h -0.4698 v -1.62913 h -0.4797 v -1.07942 l -0.4898,-0.07 0.02,-2.62861 h -0.4698 v -0.5497 h -0.9495 V 187.745 h -0.4797 v -0.5397 h -0.4698 v -0.53971 h -0.4797 v -1.07943 h -0.4698 v -1.62913 h -0.4797 v -1.07943 h -0.4698 v -0.53971 h -0.4697 v -0.54971 h 0.4697 v -0.52972 h -0.4697 v -2.70854 h -0.4798 v -2.16886 h -0.4697 v -1.61914 h -0.4798 v -0.54969 h -0.4697 v -4.3277 h -0.4798 v -3.78798 h -0.4697 v -2.15886 h -0.4798 v -2.16884 h -0.4697 v -2.15884 h 0.4697 v -2.70856 h -0.4697 v -3.24827 h -0.4697 v -1.62913 h -0.4798 v -1.07943 h -0.4697 v -1.07943 h -0.4798 v -1.07942 h -0.4697 v -0.53972 h -0.4798 v -1.08941 h -0.4697 v -1.07943 h -0.4798 v -1.07943 h -0.4697 v -1.0891 h -0.4798 v -0.5397 h -0.4697 v -0.53971 h -0.9395 v -0.53971 h -0.4798 v -1.07943 h 0.4798 v -0.54971 h 0.4597 V 139.581 h -0.4597 v -0.53971 h -1.4293 v 0.53971 h -0.4697 v 0.53971 h -0.9595 V 139.581 h -0.4697 v -0.53971 h -0.4798 v -0.53972 h 0.4798 v -0.53971 h -0.4798 v -2.70856 h -0.4697 v -0.54969 h -0.4698 v -1.07944 h -0.4797 v -1.07943 h -0.4698 v -0.53971 h -0.4797 v -0.5397 h -0.4698 v -0.53973 h -0.4797 v -0.54969 h -0.4698 v -0.53971 h -0.4797 v -0.53973 h -1.4193 v -2.16883 h -0.9495 v -0.53973 h -0.4697 v -1.07941 h -0.4798 v -2.15885 h -0.9495 v -4.87741 h 0.4798 v -2.16884 h 0.4697 v -2.15884 h -0.4697 v -0.54972 h -0.9495 v -0.52971 h -0.4697 v -0.5497 h -1.4293 v 0.5497 h -1.899 v -0.5497 h -1.41918 v -0.53973 h -0.46976 v -0.5397 h -0.94949 v -4.3277 h -0.47975 v -1.62913 h 0.47975 v -3.24827 h -0.47975 v -0.53971 h -0.46975 v -0.53972 h -0.47973 v -0.53971 h -0.46976 v -0.54971 h -0.46975 v -0.539713 h -0.47974 v -0.53968 h -0.47975 v -1.07943 h -0.46975 v -8.12566 h -1.41924 v -0.53971 h -0.47974 v -3.24828 h -0.9495 v -0.53971 h -0.9495 v -0.53971 h -2.36873 v -0.53971 h -0.9495 v -0.53972 h -1.89898 v -0.53971 h -8.53546 v -0.54971 h -0.93949 v -0.53971 h -0.47975 v -2.15885 h -0.47974 v -0.54971 h -0.46974 v -1.61914 h -0.46977 v -1.08942 h -1.89898 v 0.54971 h -1.41925 v 0.53971 h -0.47973 v 0.53973 h -0.46977 v 0.5397 h -0.47973 v 0.53971 h -1.41925 v 0.54971 h -1.89898 v 0.52972 h -3.31823 v 0.53971 h -1.41925 v -0.53971 h -0.47975 v -1.07943 h 0.47975 v -0.53971 h -0.47975 v -0.5397 h -0.46969 v -0.53973 h -0.9495 v -0.53971 h -3.79797 v 0.53971 h -0.46976 v 0.53973 h -0.47974 v 1.07941 h -0.46974 v 0.54971 h -2.8385 v -0.54971 h -0.47973 v 0.54971 h -0.47976 v 0.52972 h -2.36872 v -0.52972 h -0.46977 v -0.54971 h -0.47973 v -1.07941 h -1.41925 v -0.53973 h -0.47974 v -0.53971 h -2.36874 v -0.54971 h -0.46975 v -0.53971 h -0.47975 v -0.53971 h -0.46975 v -0.5397 h -0.47974 v -0.54972 h -0.94949 v 0.54972 h -0.46975 v 0.5397 h -0.47975 v 0.53971 h 0.47975 v 1.08942 h -0.47975 v 0.53971 h -1.41925 v 1.07943 h -0.46975 v 1.08942 h -0.47973 v 0.52972 h -0.46975 v 0.53971 h -0.47975 v 0.54971 h -0.46975 v 0.53971 h -0.9495 v 0.53971 h -1.41925 v 0.54971 h -1.42923 v 0.53971 h -1.88899 v 0.53972 h -0.94949 v 1.07942 h -0.47975 v -0.53971 h -2.36875 v -0.53971 h -5.21721 v 0.53971 h -0.46974 v -0.53971 h -0.47976 v -0.53972 h -0.47973 v -0.53971 h -2.83849 v 0.53971 h -0.47974 v 0.53972 h -0.46976 v 0.53971 h -0.94949 v 0.53971 h -0.47975 v 0.53971 h -1.41925 v 0.53972 h -0.94948 v 0.5497 h -0.46975 v 0.53972 h -1.41924 v 0.53971 h -0.9495 v 0.53971 h -3.79798 v 0.53972 h -0.94949 v -0.53972 h -3.79798 v 0.53972 h -0.93949 v 0.53971 h -1.899 v 0.54969 h -1.89898 v 0.53973 h -0.9495 v 0.53971 h -1.41925 v 0.5397 h -0.94948 v 0.53973 h -1.42925 v 0.53971 h -2.83848 v 0.54971 h -4.26773 v -0.54971 h -0.47975 v -0.53971 h -0.46975 v -0.53973 h -0.46974 v 0.53973 h -8.13567 -2.77852 v 0.53971 h -0.46975 v 1.08942 h -3.31823 v 0.5397 h -1.89898 v 0.53971 h -0.47976 v 0.53973 h -0.46974 v 0.5397 h -0.46975 v 0.54972 h -7.59596 v -0.54972 h -0.46975 v -1.07943 h -1.42923 v -0.53971 h -5.21721 v -1.07941 h -0.46977 v -1.08942 h -0.46975 v -1.07943 h -0.95948 v -0.53971 h -0.9395 v -0.53973 h -1.42923 v 0.53973 h -11.85369 v -0.53973 h -2.36874 v -0.54969 h -1.89899 v -0.53971 h -2.36874 v -0.53972 h -1.89898 v -0.53971 h -1.89899 v -0.53971 h -2.36874 v -0.53972 h -1.89898 v -0.5497 h -2.36875 v -0.53972 h -2.36873 v -0.53971 h -0.9495 v -0.53971 h -0.47975 v -2.16885 h -0.46975 v -1.07942 h -0.47973 v -1.08942 h -0.46975 v -0.52972 h -0.9495 v -0.54971 h -1.41925 v -1.61914 h -0.47973 v -0.53971 h -0.46977 v 0.53971 h -0.47973 v 1.61914 h -0.46975 v 1.61914 h -0.47975 v 1.08942 h -0.46975 v 0.53971 h -0.9495 v 0.54971 h -0.94948 v 0.53971 h -3.31825 v -0.53971 h -0.46974 v -0.54971 h -0.47974 v -0.53971 h -0.46975 v -0.53971 h -0.47975 v -0.54971 h -0.46975 v -0.53971 h -0.46974 v -0.52972 h -1.42924 v -0.54971 h -1.899 v -0.53971 h -2.84848 v -0.5397 H 620.978 v -0.53973 h -0.47976 v -1.08942 h -0.46974 v -0.53971 h -0.46975 v -0.53971 h -0.47974 v -0.5397 h -0.47975 v -0.54972 h -0.46974 v -0.52971 h -0.46975 v -0.54972 h -0.9495 v -0.53971 h -0.9495 v -0.5397 h -0.47974 v -0.53973 h -0.46974 v -1.0894 h -0.47976 v -0.53973 h -1.88899 v 0.53973 h -0.47974 v 0.5497 h -2.84848 v -0.5497 h -0.46976 v -0.53973 h -0.46975 v -0.5397 h -0.47973 v -7.03626 h 0.47973 v -0.53971 h 0.46975 v -1.07942 h -0.46975 v -1.08942 h -0.47973 v -0.53972 h -0.46975 v -1.08941 h -0.47975 v -0.53972 h -0.46975 v -0.53971 h -0.47975 v -0.54971 h -0.46975 v -0.52972 h -0.46975 v -0.53971 h -0.47973 v -0.5397 h -0.46977 v -0.54972 h -0.47973 v -0.5397 h -2.84848 v -0.53971 h -1.41925 v -0.53973 h -1.41925 v -0.54969 h -0.47973 v -0.53973 h -0.46977 v -0.5397 h -0.46974 v -1.07944 h -0.48975 v -0.5397 h -0.46974 v -0.53971 h -1.88899 v -0.54972 h -1.89899 v 0.54972 h -0.9495 v 0.53971 h -0.94948 v 0.5397 h -0.9495 v 0.53973 l -0.9495,0.0103 v 0.52972 h -0.46974 v 0.37979 0.69963 h -0.47974 v 1.08942 h -0.46976 v 1.07943 h -0.47974 v 1.08942 h -1.41925 v -1.08942 h -0.46974 v -1.07943 h -0.47976 v -1.08942 h -0.46974 v -1.0794 h -0.47974 v -1.07943 h -0.46976 v -0.53971 h -0.94949 v -0.53971 h -0.94852 v -0.54971 h -0.9495 v -0.53971 h -0.94949 v 0.53971 h -0.46974 v 0.54971 h -0.9495 v 0.53971 h -0.47976 v 0.53971 h -0.46974 v 0.53972 l -0.47974,0.0103 v 1.06942 h -0.46975 v 0.53971 h -0.46976 v 0.54971 h -0.47974 v 0.53971 h -0.46974 v 1.07943 h -0.47976 v 0.5497 h -0.46974 v 0.53972 H 572.125 v 0.53971 h -0.46976 v 0.52972 h -0.47974 v 1.08942 h -0.46974 v 0.53971 H 570.226 v 1.08942 h 0.47976 v 0.39979 1.22934 h 0.46974 v 1.61914 h 0.47974 v 0.5397 h 0.46976 v 0.53973 h 0.47974 v 1.62913 H 572.125 v 0.53971 h -0.46976 v 0.53972 h -0.47974 v 0.53971 h -0.62966 -0.31984 v 0.5397 h -0.93949 v 0.54974 h -0.47975 v 0.5397 h -0.94949 v 0.53973 h -0.46976 v 0.5397 h -0.94948 v 0.53971 h -0.47976 v 0.53973 h -0.46974 v 0.54969 h -0.9495 v 0.53971 h -0.94948 v 1.07943 h -0.46975 v 0.53971 h -0.47975 v 0.54971 h -1.89899 v 0.52972 h -0.46974 v 0.54972 h -0.46977 v 0.5397 h -2.37871 v 0.53971 h -0.46977 v 0.53971 h -0.46974 v 0.54971 h -2.84849 v 0.53971 h -1.41924 v 0.53972 h -0.47974 v 0.53971 h -0.46975 v 0.53971 h -2.36874 v 0.54971 h -0.47974 v 0.52972 h -1.899 v -0.52972 h -2.83847 v -0.54971 h -3.32824 v 0.54971 h -1.88899 v -0.54971 h -0.47974 v -0.53971 h -1.899 v 1.08942 h -0.46974 v 0.52972 h -0.47976 v 0.53971 h -0.46974 v 0.54971 h -1.89898 v 0.53971 h -0.9395 v 1.08942 h -0.47975 v 0.53971 h -0.47974 v 0.53972 h -0.46976 v 0.53971 h -0.46975 v 1.07941 h -0.47973 v 0.53973 h 0.47973 v 1.08942 h -0.47973 v 1.07941 h -0.46975 v 0.53973 h -0.47975 v 0.53971 h -0.46975 v 0.54969 h 0.46975 v 0.53973 h -0.46975 v 0.5397 h -0.47975 v 0.53971 h -0.46975 v 1.879 0.28985 h -0.25986 -0.21987 v 0.22988 0.30983 h -0.26986 -0.19989 v 0.21989 0.31982 h -0.29986 -0.17989 v 0.2099 0.32982 h -0.46975 v 0.53971 h -0.32983 -0.61967 v 0.69963 0.38979 h -0.47974 v 0.53971 h -0.46974 v 0.53972 h -0.46977 v 1.07942 h -0.46974 v 0.539713 h -0.95949 v 0.54971 h -0.43976 -0.50974 v 0.53971 h -2.36873 v 0.53972 h -1.41925 v 0.53971 h -0.47973 v 0.54971 h -0.46977 v 0.52972 h -0.94948 v 1.0894 h -0.47975 v 0.53973 h -0.46975 v 0.53971 h -0.46975 v 0.5397 h -2.37873 v 0.54972 h -0.9495 v -1.08942 h -0.46975 v -0.53971 h -0.46974 v -0.53973 h -0.9495 v -0.54969 h -0.47974 v -0.53971 h -0.46975 v 0.53971 h -0.47975 v 1.08942 h 0.47975 v 0.53971 h 0.46975 v 0.5397 h 0.47974 v 0.54972 h 0.46976 v 0.5397 h 0.47974 v 1.07944 h -0.47974 v 0.5397 l -0.46976,0.0103 v 0.52972 h -1.89899 v 0.54973 h -1.42923 v 0.52972 h -1.41925 v -0.52972 h -1.89898 v -0.54971 h -1.899 v -0.52972 h -1.41925 v 0.52972 h -0.46974 v 1.07943 h -1.42924 v 1.08942 h -0.46974 v 3.78797 h 0.46974 v 2.70856 h 0.47976 v 3.78798 h -2.37874 v 0.53972 h -0.93951 v 0.53971 h -0.94948 v 1.07943 h -0.47976 v 2.49866 2.37874 h -0.27984 -0.1899 v 2.70856 h -0.9495 v -0.53968 h -0.46975 v 0.53973 h -0.47973 v 0.53971 h -0.46977 v 2.15884 h -0.47973 v 0.53973 h -0.46975 v 0.54969 h -0.46975 v 0.53971 h -0.47975 v 0.53973 h -0.46975 v 1.08942 h -0.47975 v 0.5397 h -0.94948 v 0.53971 h -1.41925 v 0.53973 h -1.41925 v -0.53973 h -0.47973 v -1.07941 h -0.47975 v 0.5397 h -1.889 v -0.5397 h -0.46974 v -0.54972 h -0.48975 v 0.54972 h -0.46974 v 0.5397 h -0.46975 v 1.61914 h 0.46975 v 0.7396 0.88953 h 0.46974 v 1.07943 h 0.48975 v 1.61913 h 0.46974 v 1.08942 h 1.889 v 5.94684 h -0.45976 v 1.62912 h -0.47974 v 1.07944 h -0.9495 v 0.5397 h -0.95949 v 0.53971 h -0.63965 -0.29984 v 0.32983 0.2099 h -0.19989 -0.26986 v 0.29983 0.24986 h -0.23988 -0.23987 v 0.25987 0.27986 h -0.24987 -0.22987 v 0.22988 0.30982 h -0.27986 -0.1899 v 0.1999 0.3498 h -0.46975 v 1.06944 h -0.47973 v 0.53971 h -0.46977 v 0.54971 h -0.47973 v 0.53971 h -0.9495 v 0.53971 h -0.46975 v 0.53972 h -0.46974 v 0.53971 h -0.53971 -0.40979 v 0.45976 0.62966 h -0.47974 v 0.53971 h -0.46975 v 0.53971 h -0.63967 -0.30983 v 0.32982 0.2099 h -0.1899 -0.7596 v 0.53971 h -2.84848 v -0.53971 h -0.94948 v 0.53971 h -0.9495 v 4.3277 h -0.46975 v 0.53971 h -0.46974 v 0.54971 h -0.9495 v 0.53971 h -2.20883 v 0 h -4.43764 v -0.53971 h -0.9495 v -0.54971 h -0.93949 v -0.53971 h -0.47974 v -0.53973 h -0.46976 v 0.53973 h -0.47974 v -0.53973 h -0.46974 v 0.53973 h -0.47975 v 0.53971 h -0.46975 v 0.54971 h -0.47974 v 1.61912 h -0.46976 v 0.53973 h -0.47974 v 1.08942 h -0.46974 v 2.69855 h 0.46974 v 1.07943 h 0.47974 v 1.08942 h -0.12998 -0.34981 v 0.53971 h -0.46975 v 0.53971 h -1.41924 v 0.53972 h -0.47975 v 0.53971 h -0.46975 v 0.5497 h -1.41925 v 0.52971 h -0.47973 v 0.54972 h -0.9495 v 0.53971 h -0.9495 v 0.53972 h -0.94949 v 0.53971 h -0.46974 v 0.53971 h -0.47976 v 0.53972 h -0.46974 v 1.07941 h -0.46975 v 0.54972 h -0.47975 v 0.53971 h -0.47974 v 1.07943 h -0.93951 v 0.54969 h -0.47973 v -0.54969 h -0.9395 v 0.54969 h -0.9495 v 1.07944 h -0.47975 v 1.07941 h -0.46975 v 1.61914 h -0.47973 v 0.54971 h -0.46975 v 0.52972 h -0.9495 v 0.5497 h -0.9495 v 0.53972 h -0.47973 v 0.53971 h -0.46975 v 1.61914 h -0.47975 v 1.08942 H 429.381 v 0.53971 h -0.46975 v 0.53971 h -0.47975 v 1.07943 h -0.47974 v 2.16885 H 427.482 v 1.07941 h 0.46976 v 2.16886 h 0.95949 v 0.52972 h 0.46975 v 1.08942 h 0.46975 v -0.53973 h 0.9495 v 2.70856 h -0.46975 v 2.69857 h -0.47975 v 1.08941 h -0.9395 v -0.53971 h -1.899 v -0.5497 h -0.94948 v 49.23376 h 0.47974 v 0.53972 h 0.46974 v 0.53971 h 0.46975 v 0.53971 h 0.9495 v 0.53972 h 0.47975 v 0.53971 h 0.9395 v 0.5497 h 0.47975 v 0.53972 h 0.46975 v 0.53971 h 0.94948 v 0.52972 h 0.9495 v 0.5597 h 0.47975 v 0.52972 h 0.94948 v 0.5397 h 0.46975 v 0.53973 h 0.9495 v 0.5497 h 0.9495 v 0.5397 h 0.46975 v 0.53973 h 0.9495 v 0.5397 h 0.46974 v 0.53971 h 0.95949 v 0.53973 h 0.93949 v 0.5397 h 0.9495 v 0.53971 h 0.94949 v 0.54971 h 0.80958 2.03892 v -0.54971 h 0.46974 v -0.24986 -0.28985 h 0.47974 v -0.5397 h 0.46975 v -1.07944 h 0.47975 v -0.5397 h 0.46975 v -0.53973 h 0.94949 v 0.53973 h 0.94949 v 0.5397 h 0.46976 v 1.07944 h 0.47974 v 0.5397 h 0.9495 v 0.53971 h 0.46974 v 1.62913 h 0.47974 v 1.07943 h 0.46976 v 1.07943 h -0.46976 v 0.53971 h 0.46976 v 0.53971 h 0.47974 v 0.54971 h 0.46975 v 0.53971 h 0.46974 v 0.53971 h 0.47976 v -0.53971 h 0.93949 v -0.53971 h 1.42923 v -0.54971 h 0.47976 v 1.08942 h -0.47976 v 1.61914 h 0.95949 v 1.03944 l -0.47973,0.0401 0.05,0.58967 v 0 0 l -0.52972,-0.05 v 0.83954 l 0.06,-0.0999 -0.06,0.0999 v 0.24988 l -0.46974,0.44975 v 1.16939 h -0.46975 v 1.07941 h 2.35874 v 0.53973 h 1.42923 v 0.54969 h -0.47973 v 0.52972 h 0.47973 v 1.08942 h -0.47973 v 0.53971 h 0.9495 v 0.53972 h -0.46977 v 1.07942 h 0.46977 v 1.07943 h 0.47973 v 1.08942 h 2.36875 v 0.53971 h 2.36873 v 0.53971 h 0.47975 v 1.07943 h 0.46975 v 1.07943 h 0.47973 v 1.62913 h 0.9495 v 1.07941 h 0.46975 v 0.53973 h 1.41925 v -0.53973 h 0.9495 v 0.53973 h 0.47973 v 0.53971 h 2.36875 v 1.62912 h 0.46975 v 3.23828 h 0.47973 v 3.24827 h -0.47973 v 2.69857 h 1.42923 v 1.61912 h 0.46975 v 0.54972 h 0.46976 v 0.5397 h 0.47974 v 1.07944 h -0.47974 v 2.16883 h -0.46976 v 0.52972 h -0.46975 v 2.16885 h -0.47975 v 2.70856 h 0.47973 v 0.53971 h -0.47973 v 0.53971 h 0.47973 v 1.07943 h 0.93951 v 0.53971 h 0.47974 v 1.61914 h 0.47975 v 0.54971 h 0.46975 v 0.52972 h 0.46975 v 0.54969 h 0.95949 v 0.53973 h 0.93949 v 0.53971 h 0.47975 v 0.5397 h -0.47975 v 1.61914 h 1.41925 v 1.08942 h -0.45976 v 0.53971 h -0.95949 v 0.53973 h -0.93949 v 0.5397 h -0.7796 -0.17989 v 0.53971 h -0.46975 v 0.53972 h -0.46975 v 0.53971 h 0.46975 v 1.62913 h 0.46975 v 2.15885 h 0.46974 v 1.61914 h 0.48975 v 1.62912 h 0.46974 v 2.15885 h 0.46975 v 1.61914 h 0.47975 v 1.61914 h 0.47974 v 2.16885 h 0.45976 v 1.61914 h 0.47975 v 1.61914 h 0.47973 v 2.16884 h 0.46975 v 1.61914 h 0.46975 v 1.61913 h 0.47975 v 1.08943 h 0.46975 v 1.61914 h 0.47975 v 1.07941 h 0.46975 v 1.61914 h 0.47973 v 1.08942 h 0.46975 v 1.61914 h 0.47975 v 1.07943 h 0.46975 v 1.61912 h 0.47975 v 1.07943 h 0.46975 v 1.62913 h 0.46975 v 1.07944 h 0.47973 v 1.61913 h 0.46977 v 1.07942 h 0.47973 v 1.62914 h 0.46975 v 1.07942 h 0.47975 v 1.61914 h 0.46975 v 1.07943 h 0.46974 v 1.62913 h 0.47976 v 1.07941 h 0.46974 v 1.61914 h 0.47974 v 1.07943 h 0.46976 v 1.61914 h 0.46975 v 1.07942 h 0.47974 v 1.08942 h 0.47975 v 0.53972 h 0.87952 l 0.0199,0.18989 0.0399,0.34982 h 0.9495 v 0.53971 h 0.47974 v 0.53971 h 0.46975 v 0.53972 h -0.46975 v 2.16884 h 0.46975 v 0.53972 h 0.47975 v 1.06943 h 0.47974 v 0.5397 h 1.40925 v 0.54972 h 0.47974 v 0.5397 h 0.9495 v 0.53971 h 0.47975 v 1.61914 h 0.46975 v 0.53973 h -0.46975 v 1.0894 h 0.46975 v 1.61914 h 0.94948 v 0.53972 h 0.93951 v 7.02626 h 0.47974 v 2.70856 h -0.47974 v 1.60913 l -0.46975,0.0103 v 0.5397 h 0.46975 v 0.53971 h -0.46975 v 0.53971 h -0.46976 v 1.07943 h -0.94948 v 0.53971 h 0.46974 v 0.53972 h 0.47974 v 0.5497 h 1.41925 v 0.52972 h -0.47974 v 0.53972 h 2.37874 v 0.53971 h 0.46974 v 0.54969 h 0.47974 v 1.07944 h 1.41925 v 0.52971 h 0.46974 v 1.08942 h 1.42925 v 0.53971 h 0.94949 v 1.07943 h 0.9495 v 1.07942 h 0.46974 v 0.53972 h 0.9495 v 2.16884 h 0.46975 v 0.53972 h 0.9495 v 0.53971 h 0.47974 v 2.69855 h 0.46974 v 2.16886 h 0.47975 v 1.61914 h 0.46975 v 0.5397 h 0.47974 v 1.06943 h 0.93951 v 1.08942 h 1.42923 v 0.53971 h 0.46975 v 1.07943 h 0.47975 v 1.08942 h 0.47974 v 0.52972 h 0.46975 v 0.54971 h 0.46976 v 0.53971 h 0.46975 v 1.06943 h 0.47973 v 0.54971 h 0.9495 v 0.53971 h 0.46975 v 0.5397 h 0.47975 v 1.61914 h 0.46975 v 0.54972 h 0.47973 v 0.62966 0.44975 h 0.46975 v 0.52972 h 1.42925 v 0.54971 h 0.94949 v -1.07943 h 0.93951 v 0.52972 h 0.95949 v 1.08942 h 0.46974 v 0.53972 h 0.46975 v 1.61914 h 0.47973 v 0.53971 h 0.93951 v 1.61914 h 0.47974 v 2.15885 h 0.46975 v 0.54971 h -0.46975 v 1.61912 h 0.46975 v 1.07943 h 0.47975 v 0.53971 h -0.47975 l 0.0999,1.61914 h 0.37981 v 0.53973 h -0.47975 v 1.61912 h -0.46975 v 0.54971 h 0.46975 v 0.52972 l 1.899,0.0103 v 0.53972 h 1.17936 0.24987 v -0.53972 l 0.93949,-0.0103 v -0.52972 h 1.899 v 0.52972 l 0.94949,0.0103 v 0.53972 h 0.46976 v 0.52972 h 0.47974 v 0.54969 h 0.47975 v 0.53973 h 0.46975 v 0.53971 h 0.93949 v 1.07941 h 0.95949 v 0.53973 h 0.46974 v 0.5397 h 0.46975 v 1.61914 h 0.47975 v 1.08942 h 0.46975 v 1.60914 h 0.47975 v 4.8674 h -0.47975 v 3.24827 h 0.47975 v 1.07943 h 0.47974 v 1.07943 h 0.46975 v 0.53971 h 0.46974 v 0.53971 h 0.47976 v 0.53972 h 0.46974 v 0.53971 h 0.47976 v 0.53971 h 0.46974 v 0.5397 h 0.94948 v 0.53973 h 0.47976 v 0.53971 h 0.46974 v 1.61914 h 0.46975 v 0.54971 h 0.47975 v 1.60913 h 0.46975 v 1.08942 h 0.47975 v 1.61914 h 0.46975 v 1.61914 h 0.47974 v 1.07942 h 0.46974 v 1.08942 h 0.46977 v 1.07943 h 0.47973 v 2.15885 h 0.46975 v 0.5397 h 0.9495 v 1.07943 h 0.47973 v 0.53971 h 0.46977 v 0.53973 h 0.46974 v 0.5397 h 0.47974 v 0.53971 h 0.9495 v 0.53973 h 0.46975 v 1.07941 h 0.47975 v 0.54971 h 0.46975 v 1.07942 h 0.47973 v 0.52972 h -0.47973 v 0.54971 h 0.47973 v 0.53971 h 0.46975 v 1.07943 h 0.47975 v 1.07941 h 0.9395 v 1.07944 h 0.47975 v 1.07943 h 0.46975 v 1.07941 h 0.47973 v 0.53973 h 0.46977 v 0.5397 h 0.47973 v 1.07942 h 0.46975 v 1.08942 h 0.47975 v 1.60915 h -0.47975 v 0.54971 h 0.47975 v 1.60914 h 0.93949 v 0.54971 h -0.46974 v 0.53971 h 0.9495 v 0.5397 h 0.46974 v 2.69858 h 0.47974 v 1.07941 l 0.46976,0.0103 v 0.52971 H 571.655 v 0.5497 h 0.46976 v 2.15885 h 0.47974 v 1.07943 h 0.46975 v 1.61914 h -0.46975 v 1.07943 h -0.47974 v 1.07942 H 571.655 v 0.29983 0.7796 h -0.47974 v 4.96735 0.43976 h -0.46974 v 0.53971 h 0.23986 0.22988 v 0.53972 h 0.47974 v 1.07942 h -0.47974 v 1.07943 h -0.46974 v 0.53971 h -0.47976 v 0.5397 h -0.17989 -0.28985 v 0.53973 h -0.46975 v 0.53971 h -0.47975 v 0.5397 h -0.46975 v 0.53973 h -0.47973 v 2.15884 h -0.46977 v 3.78798 h 0.46977 v 0.53972 h 0.13995 0.33982 v 0.53971 h 0.46974 v 0.53971 h 0.47976 v 1.07943 h 0.46974 v 0.53971 h 0.46975 v 0.5397 h 0.9495 v 0.53973 h 0.9495 v -0.53973 h 1.42923 v 0.53973 h 0.46975 v 0.53971 h 0.47974 v 0.5397 h 0.46976 v 0.53973 h 0.94948 v 0.53971 h 0.46975 v 0.5397 h 0.47975 v 0.53971 h 0.46975 v 0.53972 h 2.84848 v 0.53971 h 0.46975 v 0.53971 h 0.9495 v 0.53972 h 0.9495 v 0.53971 h 0.94948 v 0.53971 h 0.47975 v 0.54971 h 0.46975 v 0.52972 h 1.41924 v 0.53971 h 0.47974 v 0.54971 h 0.2099 l 1.20935,-0.07 v 1.14938 h 0.9495 v 0.52972 h 0.47973 v 0.54971 h 0.46977 v 0.53971 h 0.46974 v 0.5397 h 0.47974 v 0.53973 h 0.46975 v 0.53971 h 0.9495 v 1.07943 h 0.94949 v 0.53971 h 0.47974 v 0.5397 h 0.46975 v 1.07944 h 0.47975 v 0.5397 h 0.46975 v 0.54972 h 0.46974 v 1.06942 h 0.46975 v 4.3277 h -0.46975 v 1.61914 h 1.42924 v 0.53971 h 1.42925 v 0.5397 h 0.45974 v 0.53973 h 0.47976 v 0.53971 h 0.47973 v 0.5397 h 0.46977 v 3.23828 h 0.46974 v 1.07943 h 0.47974 v 1.61913 h 0.46976 v 2.15886 h 0.46975 v 1.62913 h 0.47973 v 0.52972 h 0.47976 v 0.54969 h 0.46974 v 0.52972 h 0.47974 v 0.53972 h 0.46976 v 0.5497 h 0.47974 v 0.52972 h 0.46975 v 1.07943 h 0.46974 v 0.54972 h 1.42926 v 0.5397 h 1.41922 v 0.53971 h 3.79799 v 0.52972 h 1.41924 v 0.54971 h 0.46975 v 0.53971 h 0.47975 v 0.53971 h 0.46975 v 0.53972 h -0.46975 v 3.77799 h 0.46975 v 0.5397 h 0.9495 v 0.53972 h 0.47973 v 2.15885 h -0.47973 v 1.61914 h 0.47973 v 0.54971 h 0.46975 v 0.52972 h 0.47975 v 2.16883 h 0.46975 v 0.52972 h 1.42924 v 0.54972 h 0.46974 v 0.5397 h 0.46975 v 0.53973 h 0.47975 v 2.14885 h 0.46975 v 1.08941 h -0.46975 v 0.53972 h 0.46975 v 0.53971 h 0.46975 v 0.53971 h 0.47975 v 1.07943 h 0.47973 v 1.61914 h 0.46975 v 0.53971 h 0.46976 v 1.07943 h 0.47974 v 3.77798 h 0.46975 v 0.5497 h 0.47975 v 1.60915 h 0.46975 v 0.54971 h 0.47973 v 0.52972 h 0.46977 v 1.07942 h 0.46974 v 0.54971 h 0.47974 v 0.52972 h 0.9495 v 0.54969 h 1.41925 v 0.52972 h 0.47973 v 0.53973 h 0.46975 v 0.5397 h 0.47975 v 0.53971 h 0.46975 v 1.08942 h 0.46974 v 1.07943 h 0.47976 v 0.52972 h 0.47973 v 0.53971 h 0.46977 v 0.53971 l 1.89898,0.0103 v 0.53971 h 0.46975 v 0.53971 h 0.46974 v 0.53972 h 0.47976 l 0.0899,0.53971 h 0.85954 v 0.53971 h 0.46976 v 1.06944 h 0.95949 v 1.0894 h 0.46975 v 1.61914 h 0.46975 v 0.53973 h 0.47973 v 3.23826 h -0.47973 v 1.07943 h 0.47973 v 0.53971 h 0.46977 v 1.61914 h 0.46974 v 2.15884 h -0.46974 v 0.53973 h -0.46977 v 1.61914 h 0.46977 v 0.5397 h 0.94948 v 0.53971 h 0.9495 v -0.53971 h 1.89898 v 0.53971 h 0.46975 v 0.53971 h 0.9495 v 0.53972 h 0.46974 v 0.53971 h 0.47976 v 1.07943 h 0.46974 v 4.31769 h -0.46974 v 0.53971 h -0.47976 v 3.23828 h -0.46974 v 0.53971 h -0.46958 v 3.24828 h 1.41925 v 0.53971 h 0.46975 v 0.52972 h 0.47975 v 0.5397 h 0.46975 v 4.3277 h 0.47973 v 1.61914 h 0.46975 v 1.61914 h 0.47975 v 0.53971 h -0.47975 v 0.53971 h -0.46975 v 1.07943 h 0.46975 v 0.53971 h 0.47975 v 0.5397 h 0.46975 v 0.53973 h 0.47975 v 0.53971 h -0.47975 v 0.5397 h -1.41925 v 0.53973 H 648.954 v 0.5397 h -1.899 v 0.53971 h -0.46975 v 2.15885 h 1.41925 v 0.53972 h 0.47975 v 0.53971 h 0.46975 v 0.52972 h 0.94948 v 0.54971 h 0.47975 v 0.53971 h 1.41925 v 0.53971 h 1.41924 v 0.5397 h 0.47974 v 0.53973 h 1.41925 v 0.53971 h 0.47973 v 3.23827 h -0.47973 v 0.53971 h -0.46975 v 0.53971 h -0.47975 v 0.53972 h 0.47975 v 1.07942 h -0.47975 v 1.07943 h -0.46975 v 1.07943 h -0.47974 v 0.53971 h -0.46976 v 1.61914 h 0.46976 v 0.5397 h 2.37872 v 1.07944 h 0.46977 v 1.61914 h -0.46977 v 0.5397 h -1.89898 v 2.35874 1.41925 h 0.24987 0.21988 v 1.07943 h 0.47975 v -0.53972 h 1.41925 v 0.53972 h 0.46974 v 0.53971 h -0.46974 v 1.61914 h -0.46977 v 0.5397 h -0.47973 v 1.60915 h 0.47973 v 0.5497 h 0.46977 V 727.61 h -0.46977 v 0.5397 h -0.3698 -0.57968 v 1.61914 h -0.47975 v 0.53971 h -0.46975 v 0.52972 h -1.42924 v 1.62913 h 0.47974 v 2.15884 h 0.46976 v 3.23828 h 0.47974 v 0.53971 h 0.46975 v 2.15883 h -0.46975 v 1.6192 h -0.47974 v 1.0794 h -0.46976 v 0.5397 h 0.46976 v 0.5397 h 0.47974 v 1.6192 h 0.46975 v 1.0794 h 0.47975 v 0.5397 h 0.46975 v 1.0794 h 0.47973 v 1.6192 h 0.46977 v 4.3177 h -0.46977 v 2.1588 h -0.47973 v 1.6091 h 0.47973 v 2.7086 h 0.46977 v 2.1489 h 0.46974 v 1.0894 h 0.47974 v 0.5397 h 1.899 v 0.5297 h 0.46974 v 1.0794 h 0.46975 v 2.6986 h 0.47974 v 0.5397 h 0.47975 v 0.5397 h 0.46975 v 0.5397 h 0.46974 v 0.5497 h 0.46977 v 0.5298 h 0.48972 v 1.0794 h 0.46975 v 1.0794 h 0.46976 v 0.5397 h 0.47974 v 0.5397 h 0.47975 v 1.0795 h 0.45976 v 0.5397 h 0.47973 v 2.1588 h -0.47973 v 1.0794 h -0.45976 v 0.5398 h -0.47975 v 0.5397 h -0.47974 v 1.6191 h -0.46976 v 1.6091 h 0.9495 v 0.5498 h 0.93951 v 0.5397 h 0.47973 v 1.0694 h 0.47976 v 0.5497 h 0.46974 v 1.0694 h 0.46975 v 0.5398 h 0.47974 v 9.7148 h 0.46976 v 1.0794 h 0.47981 v 0.5397 h 0.46974 v 0.5397 h 0.47976 v 0.5397 h 0.94948 v 0.5398 h 0.46976 v 1.0794 h 0.47974 v 0.5397 h 0.46974 v 0.5397 h 0.46975 v 0.5397 h 0.47975 v 0.5397 h 0.46975 v 1.0794 h 0.47975 v 1.6192 h 0.46975 v 0.5397 h 0.47974 v 0.5397 h 0.46974 v 0.5397 h 0.46977 v 0.5397 h 0.94948 v 0.5398 h 0.47975 v 0.5297 h 0.46975 v 0.5497 h 0.46975 v 0.5397 h 0.47975 v 0.5397 h 0.47973 v 0.5297 h 0.46975 v 0.5497 h 0.46977 v 1.0795 h 0.47973 v 0.5297 h 0.46975 v 0.5497 h 1.899 v 0.5297 h 1.42923 v 0.5397 h 0.46975 v 0.5497 h 0.46975 v 1.0694 h 0.47975 v 1.6192 h 0.47974 v 2.1588 h 0.46974 v 1.0794 h 0.46975 v 0.5398 h 2.37873 v 0.5397 h 0.93951 v 0.5397 h 0.47974 v 0.5397 h 0.9495 v 0.5397 h 0.94948 v 0.5397 h 0.93951 v -0.5397 h 1.39925 0.97949 v 0.5397 h 0.46974 v 0.5397 h 0.47974 v 0.5398 h 0.46976 v 1.6191 h 1.41923 v 0.5397 h 1.42926 v 0.5397 h 0.89951 l 0.0199,0.1999 0.0299,0.3398 h 0.9495 v 0.5397 h 1.41924 v 0.5397 h 1.89898 v 0.5298 l 0.9495,0.01 v 0.5397 h 0.9395 v 0.5397 h 0.47975 v 0.5297 h 0.46975 v 0.5397 h 0.95949 v 0.5497 h 0.46974 v 0.5298 h 0.9495 v 0.5397 h 0.46975 v 0.5497 h 0.47973 v 0.5297 h -0.47973 v 0.5397 l 5.21721,-0.1 v -0.4398 h 0.47975 v -0.5297 h 0.46975 v -0.5497 h 0.9495 v -0.5397 h 0.94948 v -0.5297 h 0.46976 v -0.5497 l 1.41923,-0.08 v -0.4597 h 0.65965 0.29984 v -0.1799 -0.3499 h 0.51973 0.41978 v -0.2898 -0.2499 l 0.47974,-0.07 v -0.4698 l 0.46975,-0.01 v -0.5297 h 0.47975 v -0.5397 l 1.41924,-0.06 v -0.4798 h 0.68964 0.25986 v -0.1599 -0.3798 h 0.5497 0.86953 v -0.5397 h 0.46977 v -0.3698 -1.789 h 0.48972 v -1.6192 h 0.46977 v -1.6191 h 0.46974 v -1.6191 h 0.46975 v -4.3177 h 0.47974 v -1.0695 h 0.46976 v -0.5497 h 0.47974 v -0.5397 h 0.46974 l 0.0103,-0.5297 h 0.46974 v -0.5497 h 0.46975 v -1.0705 h 0.47974 v -1.0894 h 0.46976 v -0.5297 h 0.47974 v -0.5397 h 0.46974 v -1.0894 h 0.47976 v -0.5298 h 0.46974 v -1.0794 h 0.47974 v -1.0807 h 0.46976 v -1.6191 h 0.46975 v -2.6986 h 0.47974 v -2.1588 h 0.46974 v -0.5397 h 0.47975 v -0.5397 h 0.46975 v -0.5398 h 0.47975 v -1.0794 h 0.46975 v -0.5397 h 0.46975 v -1.0794 h 0.47975 v -1.0794 h 0.46975 v -1.6192 h 0.47973 v -1.0694 h 0.46975 v -1.0894 h 0.47975 v -2.1489 h 0.46975 v -2.1688 h 0.46975 v -1.0695 h 0.47975 v -1.6191 h 0.47974 v -1.0894 h 0.46974 v -2.6886 h 0.46977 v -2.1588 h 0.47973 v -1.6192 h 0.46975 v -2.6985 h 0.47975 v -1.6192 h 0.46975 v -0.5397 h 0.47973 v -1.0794 h 0.46977 v -0.5297 h 0.46974 v -0.5497 h -0.46974 v -1.6192 h 0.46974 v -0.5397 h 0.47974 v -0.5397 h 0.9495 v -1.0694 h 0.46975 v -0.5497 h 0.47975 v -0.5398 h 0.94948 v -1.6091 h 0.46975 v -1.0894 h 0.46976 v -2.6886 h 0.47974 v -1.6291 h 0.46974 v -1.6191 h 0.47976 v -0.5298 h 2.36873 v -0.5397 h -0.46975 v -1.0794 h 0.46975 v -0.5397 h 0.47975 v -0.5497 h 0.46975 v -0.5297 h 0.47975 v -0.5397 h 0.46975 v -0.5498 h 0.47973 v -0.5297 h 0.46975 v -0.5497 h 0.46976 v -0.3798 -1.769 h 0.47974 v -0.5398 h 0.46975 v -0.5496 h 0.47975 v -0.5298 h 0.94948 v -0.5397 h 0.46976 v -0.5397 h 0.94949 v -0.5397 h 1.41924 v -0.5397 h 0.9495 v -1.6192 h 0.47974 v -1.0794 h 0.46975 v -1.0794 h 0.47975 v -0.5397 h 0.46975 v -0.73963 -0.33983 h 0.29983 l 0.10987,-0.0999 0.06,-0.43976 0.47975,-0.10987 v -0.42977 l 0.46975,-0.05 v -0.48974 l 0.47973,-0.0103 v -1.06942 h 0.46977 v -0.53971 h 0.47973 v -0.53973 h 0.46975 v -0.5397 h 0.47975 v -0.54972 h 0.46975 v -1.06942 h 0.46975 v -0.53971 h 0.47975 v -0.53971 h 0.46975 v -0.53972 h 0.47973 v -2.69856 h 0.46977 v -1.61914 h 0.47973 v -0.5397 h 0.46975 v -0.53973 h 0.46974 v -0.54969 h 1.42926 v -3.22829 h 0.47973 v -1.07942 h 0.45976 v -0.53972 h 0.95949 v -1.07942 h 0.46975 v -1.07943 h 0.47975 v -0.53971 h 0.47973 v -0.53972 h 0.9395 v 0.53972 h 0.46976 l 0.0103,-3.23827 h 0.46974 v -1.07944 h 0.46975 v -0.5397 h -0.46975 v -2.15885 h 0.46975 v -0.53971 h 1.42924 v -0.53972 h 2.54864 0.7696 v 0.53972 h 0.94948 v -0.53972 l 0.46977,-0.0103 v -0.52971 h 0.47973 v -1.07944 h 0.46975 v -3.77798 h -0.47024 v -1.32929 -0.28985 h 0.46974 v -0.53971 h 0.47976 v -0.53971 h 0.46974 v -1.07943 z"
       id="path831"
       style="fill:#000000;fill-opacity:1;stroke:#000000;stroke-width:0.979478" />
  </g>
</svg>
