<?xml version="1.0" encoding="UTF-8" standalone="no"?>
<svg
   xmlns:dc="http://purl.org/dc/elements/1.1/"
   xmlns:cc="http://creativecommons.org/ns#"
   xmlns:rdf="http://www.w3.org/1999/02/22-rdf-syntax-ns#"
   xmlns:svg="http://www.w3.org/2000/svg"
   xmlns="http://www.w3.org/2000/svg"
   xmlns:sodipodi="http://sodipodi.sourceforge.net/DTD/sodipodi-0.dtd"
   xmlns:inkscape="http://www.inkscape.org/namespaces/inkscape"
   version="1.1"
   width="1360"
   height="1360"
   viewBox="0 0 1360 1360"
   id="svg8"
   sodipodi:docname="Lesbos.svg"
   inkscape:version="1.0.1 (3bc2e813f5, 2020-09-07)">
  <metadata
     id="metadata14">
    <rdf:RDF>
      <cc:Work
         rdf:about="">
        <dc:format>image/svg+xml</dc:format>
        <dc:type
           rdf:resource="http://purl.org/dc/dcmitype/StillImage" />
        <dc:title></dc:title>
      </cc:Work>
    </rdf:RDF>
  </metadata>
  <defs
     id="defs12" />
  <sodipodi:namedview
     pagecolor="#ffffff"
     bordercolor="#666666"
     borderopacity="1"
     objecttolerance="10"
     gridtolerance="10"
     guidetolerance="10"
     inkscape:pageopacity="0"
     inkscape:pageshadow="2"
     inkscape:window-width="1920"
     inkscape:window-height="974"
     id="namedview10"
     showgrid="false"
     inkscape:zoom="0.47177599"
     inkscape:cx="569.85641"
     inkscape:cy="592.37454"
     inkscape:window-x="-11"
     inkscape:window-y="-11"
     inkscape:window-maximized="1"
     inkscape:current-layer="svg8" />
  <path
     d="m 1359.4189,964.24932 -25.165,-17.12455 -32.2804,-41.5661 -23.0422,-50.93478 2.4192,-45.44402 -18.9152,2.83433 -10.9459,-5.218 -4.969,-13.74468 -0.9961,-22.55598 -16.3537,-17.40914 -12.2386,-17.05337 -7.2459,-19.16428 22.888,-15.40496 -38.1032,-22.55598 -23.0422,-20.36205 -59.4378,-90.56784 -7.6728,-9.17893 -13.9344,-11.38473 -59.7224,-24.41785 -73.3721,-72.1744 -4.4116,-12.58249 55.4531,-86.45274 10.6732,-21.51239 -30.1458,-24.35856 -46.9264,-12.78409 -32.5651,-21.69027 12.93827,-50.49599 -33.41891,-9.38054 -313.54238,9.38054 12.79595,57.94349 2.84618,40.2616 -17.06522,26.56435 -46.07255,16.73318 -74.08371,12.95012 -36.54971,16.44855 -21.89187,30.96407 h -11.9421 l -2.13464,-10.19881 -9.81932,-20.67039 -3.97279,14.24277 -5.97698,10.10394 -6.81898,9.36868 -7.11545,12.58249 -47.21102,-8.26579 -65.1301,17.36171 -56.87618,4.68433 -21.46495,-46.02511 h -11.95396 l -11.51517,16.54343 -48.207183,46.55877 -11.9421,6.71224 -16.6383,6.23788 -14.07674,9.09592 -6.10743,15.70143 -0.28461,22.03418 -2.56157,13.7684 -6.546212,9.54657 -13.5075,9.35681 6.688525,4.77922 4.257412,4.39972 4.553889,3.67631 7.400066,2.38368 -6.261594,23.39798 -2.84618,25.87652 -6.961284,20.37391 -19.7690965,7.42379 v 16.79247 l 34.4150645,17.05336 60.43391,61.61982 31.568883,13.66166 22.60342,3.47472 16.49599,8.71642 25.30729,19.88769 25.31915,15.20335 147.88281,55.0736 36.68015,5.218 32.84967,-9.61772 25.60377,-23.63516 78.62574,-112.82735 4.98081,0.17789 26.01884,-62.35508 23.0422,-26.32717 24.45344,-15.87932 29.71887,-8.43181 37.11894,-4.04395 21.03802,1.64842 56.17649,13.7684 17.90722,9.72445 17.77677,21.83258 5.69236,21.64283 -17.63446,9.81932 -1.99232,6.60551 -52.32229,39.51448 -46.64179,46.203 -20.76526,5.59749 -19.7691,0.54551 -19.188,3.3917 -18.77293,14.20719 -28.15347,46.45204 -7.68469,6.59365 -66.82595,15.3931 -8.25392,-0.27276 -6.39205,-2.47855 -7.54238,-1.28078 -12.51134,4.03209 -14.50366,12.64178 -10.23439,4.12696 v 14.00558 l 28.5804,5.77538 19.75723,17.85978 53.75724,77.81931 15.64214,16.1046 18.20369,5.7636 89.86816,3.8423 103.51796,22.6034 42.65714,20.4925 43.22637,31.1063 24.18067,10.8867 62.55669,8.8706 55.7496,21.2159 29.8611,4.7555 113.7524,-11.7049 55.7495,-14.3614 45.3611,-20.03 -4.2693,-18.844 -1.7077,-2.5616 1.5654,0.3676 4.4116,-9.7007 v -16.745 l -31.9959,-27.1692 -64.4185,-94.19668 -68.1186,-52.84409 -27.8689,-38.48274 31.2843,-17.77677 60.007,-5.12312 29.0073,10.08022 12.5232,33.52564 3.6882,7.42379 20.0537,17.0415 -0.9962,14.00558 -9.9497,24.54831 -1.8501,7.60168 -2.1346,11.53889 -3.4154,11.6219 2.5615,11.53891 15.7845,11.3491 -12.796,13.9107 17.9191,17.39728 17.1957,20.6823 21.0499,9.7007 28.2957,-15.5591 52.0496,22.5085 22.0342,-24.7025 3.9846,-38.89778 z"
     id="path839"
     style="fill:#000000;fill-opacity:1;stroke:#000000;stroke-width:1.16219" />
</svg>
