<?xml version="1.0" encoding="utf-8"?><svg xmlns="http://www.w3.org/2000/svg" version="1.1" baseProfile="tiny" width="1200" height="800" viewBox="0 0 1200 800"><g><g stroke="#000000" stroke-width=".98" fill="#FFFFFF"><path d="m640.48 36.78l-1.13-.71-3.44-3.02-1.09-1.41-.58-2.2-.48-5.25-.98-2.04-1.88-.93-2.59-.06-5.8.54-.88 1.49-2.95 9.26-.34 4.44-.96 1.34-2.53.49-1.58 1.26-4.86 7.77-6.56 3.9-1.52.58-7.13.97-2.72-.08-5.31-1.15-22.4-8.78-1.64-1.29-1.82-.61-1.26 1.88-.04 2.7 1.87 1.88 0 .82-2.49-2.33-2.03-3.62-2.65-3.33-5.66-1.91-.96-1.02-.78-1.17-.8-.86-.79-.34-1.7-.2-.98-.36-9.24-6.28-4.01-1.19-1.7-1.12-1.76-1.52-12.17-6.36-3.28-3-6.18-3.1-.95-.99-.65-1.18-.84-1-1.41-.42-2.77-.3-1.36-.41-.99-.63-1.42-.51-1.47.75-1.45 1.19-1.28.81-1.21.15-2.59-.21-1.22.06-1.79.62-4.92 2.47-1.03.99-.83 1.23-2.09 1.23-2.5.76-2.21-.13-2.16-1.67-3.23-5.3-1.88-2.44-2.06-.93-2.65.19-2.52 1.1-1.71 1.88-.38 2.3-.04 3.01-.59 2.61-2.07 1.13-2.35.47-5.56 1.96-2.61.26-5.3-1.19-2 .38-2.56 2.15-2.53 2.68-1.17 1.97.13 2.24 1.45 3.5 1.43 4.93.15 5.37-.88 5.16-1.62 4.32-3.73 6.87-.52 1.63-.25.5-.54.3-.59.21-.34.25-.02.74.29.79.39.46.35-.2-6.99 14.81-.38 1.82.74 1.68.48 2.7.18 2.86-.13 2.22-.57 1.73-2.61 5.59-2.96 4.22-.32 1.86.51 5.44-.19 2.97-.66 1.9-2.97 3.56-.93 1.95.73 1.4 1.38 1.4 1.01 1.99.04 1.8-.52 2.38-1.26 2.07-2.19.89-2.64.39-1.29 1.18-2.41 15.9.87 2.3 2.13 1.11 5.5 1.49-.05 2.85 4.17 9.68 1.06 4.48-.04 1.48-.21 1.19-.52 1.2-1.01 1.47-2.24 2.5-.4.74.52 7.57-1.16 5.6-.12 1.95.27 1.09 1.24 1.82.26.65 2.49 22.31-.28 3.37-.85 2.63-9.54 14.52-1.12 1.09-1.01.64-.88.79-.85 1.51-.48 1.31-.26 1.25-.18 2.84.49 2.86.91 2.85.31 2.76-2.25 4.54-.67 2.95-.13 2.83.65 1.63 0 .87-1.42.03-.85-.11-.37-.3 0-.49-1.16 1.14 1 2.46 1.71 3.12 1.09 3.11-.94 6.64 1.63 4.88 3 21.28.72.85.82.79.63 1.07 0-2.65 3.96 5.16 1.48 2.97.58 3.01 0 5.23-.55 1.48-2.38 2.58-.54 1.33-1.12 1.96-4.46 3.79-.37 1.77 1.02.07 1.69-.65 1.6-.38.79.96-.51 1.33-1.34.36-1.46-.28-.87-.53-1.37 1.35-1.42 2.78-1.53 1.26.94-3.53-1.79-1.42-4.31.44-1.22.48-2.24 1.45-2.66.6-2.88-.09-5.79-1.65-2.45-1.25-1.68-1.8-.65-2.6-1.15-8.26-.43-.48-.97.34-2.29-2.39-1.43-1.02-1.58-.19-2.76.06-1.25-.85-3.6-3.86-.74-1.08-1.25-.63-5.65-1.44-1.61-1.07 2.97-12.24 0-2.57-1.17-2.06-3.08-.84-2.65.25-2.03.55-.55.29-2.08 1.48-.56.12-1.41-.22-.57.1-1.31 1.25-1.39 2.08-1.1 2.54-.73 5.38-2.27 8.31-.27 1.72.27 4.04.39 1.32 1.77 1.97.39 1.17-.42 2.57-1.83 5.49-.3 2.15-.25 14.82 1.87 3.83 1.4-1.27.38-.5 1.87.26 1.53-1.97 1.97-1.8 3.2.85 1.64 1.84 1.46 2.62 2.01 5.27.44 2.7-.29 2.03-.56 1.87-.44 2.23.72 5.41-.57 2.06-2.77.64 1.76 3.28 2.64 1.68 2.14 1.86.33 3.77-.59 1.77-1.63 3.38-.33 1.43.3 1.7 2.25 4.95.67-1.28.18-.56 1.01.96.55 1.55.29 1.43.31.64.64.32.69.8.6.98.23.9-.83 2.96-2.03 2.02-2.52.55-2.34-1.48.63 1.85.16.91.06 1.2-.41.72-1.81 1.2-.33 1.09 1.09 2.38 7.02 7 1.31 1.98 2.08 4.29 2.56 3.92.49 1.03-.03 2.92-.36 2.24.06 1.26.73.54 1.21 1.21 4.35 18.52.47 5.19-.87 11.72.85 4.89 2.9 9.66 2-.67.55-.29-.43 1.04-.44.74-.65.57-1.03.45 1.27 1.24 3.19 1.14.64 1.49.86.88 1.96.86 2.27.51 1.71-.13 1.46-2.26 1.23-4.25.53-4.52-.67-3.03 1.66-1.73 1.35.86 1.26 1.75 1.3.96 1.47-.03.9.14.44.63.12 1.45.43.75.99.31 2.06.18-.49 1.41-.62 1.03-.71.52-.74-.16-.88 1.13-1.15 1.05-1 1.15-.43 1.42 2.64 1.6.94.97-1.46.43-2.31 1.82 1.34 3.99 4.02 5.77.85 0 .57 1.15 1.01.55 1.27-.1 1.4-.8 5.1 3.45 1.31 2.4.46 4.37-.6 7.7.65 3.59 2.5 3.15 1 .48 5.7 1.7.56.93.35.94.47.41 1.8-.37.67-.87.2-.93.37-.53 1.34-.14.94.3.88.47 1.17.33 4.78-.85 2.96-3.31 1.18-4.97-.49-5.8-2.36-9.12.24-1.97.66-1.45-.48-1.44-4.86-5.58-.36-2.63 1.21-8.31-.09-5.06-.03-1.26.94-1.68 2.58 1.44.48-5.76 1.04-2.49 1.95.26.54 2.06-1.46 8.57.87-.95.36.09.47.86 1.33-1.3.37-.45-.17-1.11.17-4.17.74 1.82.21 2.15-.1 4.42.5 1.57 1.24 1.09 1.7.74 1.01.3.73.21 7.7 1.37 12.26.39 1.31.31.35.71.06.85.41.69 5.86 2.4 1.01.79.56 1.57 3.69 5.06.82 1.79.88 5.24 1.08 2.7 2.65 4.42.53 3.01-.51 2.39-1.24 1.74-3.36 2.42-2.15 2.37-.86.34-2.7-.15-1.42.1-1.01.45-11 10.74-2.65 4.26-1.03.64-3.04 1.28-.64.75-.64 1.52-1.51 1.41-1.94 1.16-1.77.73-4.99.87-1.97.96-.77 2.08-1.09 2.1-2.06 2.45-1.08 2.27 1.75 1.55 0 .88-1.46.69-.82.2-1.19-.02 1.92 1.08 1.06 1.19-.21 1.15-1.92.96 0 .96 3.42 1.04 1.46 2.65.29 3.55-.55 7.53.31 1.92 1.47.82.38.63-.73 1.33-1.5 1.23-1.93.32 2.13 4.81.21 10.9.99 4.59 2.68 3.41 1.72 1.13.78-1.48-.6-2.52-1.07-2.62-.46-2.37 1.2-1.76 5.12.97 2.43-.47-1.06-2.69-1.67-2.54-.44-2.27.92-1.74 2.34-.89 2.78.08 5.09 1.34 11.19 1.42 2.27.74 1.4 1.28.76 1.89.32 2.15.06 2.09-.19 1.45-.64 2.72.06 1.47.42.59 2.05 2.11-.01 1.71-.37 1.1-.91.6-1.61.18-.48.67-.46 1.48-.62 1.48-1.02.66-.54.67.2 1.49.64 1.5.94.71 1.01-.63 9.69-11.22 1.25-.4 1.59.35 1.56.71 2.44 1.63.48.5 1.71 4.69-.1 2.08-.48 2.25-.31 3.14-.39 1.39-.73.75-.42.67.61 1.17 1.08.7 2.85.61 1.24.44 1.75-1 1.95-.78 4.04-.93 2 .1 1.34.62 1.06.71 1.09.32 2.23.11 1.64.32 3.38 1.4.53.47 1.78 1.1 1.9.64 2.4-2.55 7.17-5.41 2.38-1.32 1.75.09 5.12 1.26.54-.85 3.71-4-1.47-.6-.81-.18-1.19-.01.56-3.26-.91-8.97 2.63-2.93 3.74-4.17 1.22-.81.57-.12 2.1-.12.92-.24.9-.4 2.34-1.69 3.56-1.26 1.64-1.13.61-.08 2.14.56 1.07-.05 1.88-2.07.67-.55 5.94-1.55.94-.68.43-1.73 2.17-1.35.8-1.78 1.92.93 4.7 1.65 1.03.05 1.92 2 1.4 2.32 1.76 1.95 4.05 1.08 1.39.72 1.43.99 2.58 2.24 1.31.44 1.4.22 1.52.46 1.6.93 4.48 4.16.44.26 2.41-.1 1.64.99 2.11 1.73 1.84.57.77-2.5 4.14 3.09 3.15 3.65 6.69 10.94 1.03 1.25.74 1.14.44 2.18.51 1.05 1.68 1.09 4.23.3 2.21.76-.09 1.79 7.53-.02 1.98 2.24.79 1.74 3.51 1.45.81 1.15 2.39 2.29.4.91.23 1.66.29.86 12.27 16.39 2.25 7.35-.15 2.01-1.3 4.53-.32 2.59 8.21 6.99 2.13 1.34 2.08-.45 3.15-1.34 2.87-1.66 1.25-1.35.49-.83 1.07-.52 1.18-.4.68-.43.19-1.04.04-1.53-.23-2.67-.38-.83-.59-.79-.5-.97-.24-1.42 0-5.24-.53-4.78-1.18-5.27-1.11-2.55-1.43-2.2-5.47-6.49-3.23-5.09-.72-2.02 5.28 4.08 2.83 1.45.46-2.1-1.77-2-8.94-5.44-4.61-4.52-1.91-2.76-.77-3.21-.73-5.71.63-2.43 2.72.62-1.06-4.63-.15-2.72.76-1.88.1-1.57-1.23-2.28-6.08-8.77-.45-.98-1.67-.7-1.64-1.66-.94-2.02.39-1.75 2.32 2.01 3.06 1.04 7.02.45 2.61-3.43.43.33.33.77 1.61 1.88.55 1.25 1.47-.88.69 1.1.33 1.69.52.87 1.55.25 1.67.67 1.54.94 3.77 3.79.44 1.04-.61.79-.85.66-.25.53 1.29 1.64 1.57.84 1.61-.17 1.49-1.43 1.15.79 4.86.96 1.76 1 1.71 1.41.57 1.1-1.58.08-.75.86.75.8 0-.8 3.8 1.93 3.04 2.58 6.08 6.87-5.96 5.25 1.78 1.54 3.75 4.57 1.71.96 1.58.68 7.74 5.54 3.02 2.88 1.21.59 1.91.29 2.82 1.19 2.11.27 3.55.96 6.57 4.21 3.52.96 2.81 1.56 2.36 3.67 1.15 4.34-.76 3.52 3.38 3.58.54 1.16.67 2.01.52 1.12 1.91 2.34 4.62 3.28 2.04 2.31.54 4.72-3.26 10.02 1.86 4.54-1.18 1.68.43 2.2 1.03 2.33.58 2.09 1.15.94 2.53-.85 3.95-2.28 2.85-.92 2.12.1 2.08.52 2.8.3 1.11.97 2.23 4.25 2.48 1.33 1.88 2.65 1.23 1.04 1 .42 1.03.23 1.3.45 2.41 1.3 1.5 1.27 3.39 4.01.84.47 1.32.44 2.08.43 1.68.05.37-.08.09-.51.91-1.27.55-1.03.25-1.13.63-.89 1.52-.36 1.28-.11.91-.39.63.47-2.09 2.78-1.16 2.71 2.59 2.46-.06-1.28-.34-1-.59-.76.77-.36 3.23-.17 1.3.39-.17.84-1.07.88-1.37.51 1.04 1.7.66 1.78.55-.15.7-.52.44-.19 1.08-.72 1.33-2.22.61-.48.75.28 1.13 1.19.7.28.76-.15 1.16-.66 2.95-.73 2.03-1.43 2.95-3.21.68-1.72.67-2.64.96-2.43 1.47-1.06 2.08.42 3.83 1.82 2.21.38 5.75-.9 2.53.77 1.08 3.18-.57 2.38-1.43 2.3-1.91 1.79-2.05.94-.87-.21-1.17-.52-1.34-.25-1.29.58-.57 1.2-.04 1.27-.39 1-1.55.41-1.24.15-.71.24-.69.06-1.19-.45-.9-.72-2-2.06-1.35-.7-1.23 2.46-1.8 1.76-2.44.95-3.17.06 2.43 1.63 2.08.85 1.52 1.37.84 3.2-.21 2.6-.51 2.55-.06 2.5 2.54 4.7.89 2.43 1.05 1.93 2.57 1.19 1.88 2.14 1.08-.25.87-.33.42.18-.24 1.34 3.55 5.46 2.89 2.82 3.35 1.22 4 .18 1.58-.18 1.47-.54 2.07-1.52 1.48-.47-1.08-2.59-.62-.81 1.68-1.26.14-1.02-.59-1.31-.38-2.16.79-1.88 3.52-2.39.79-1.9 1.7-15.33-.03-2.18-1.14-8.18-1.76-2.85-.41-2 .33-1.15 2.24-4.63 1.2-3.6.81-1.45 1.47-1.93 1.58.81 1.03-1.38.31-2.39-.46-2.27-1.42-.8-2.9-1.19-2.88-.74-1.31.54-.49 1.78-2.61 5.34-1.21 1.18-1.3-.85-5.49-4.87-.71-1.58-1.64-1.71-1.97-1.48-1.64-.86-4.42-1.22-.76-.09-.16-1.15-.57-.66-.91-.3-1.25-.07-1.12-.44-1.34-1.85-1.44-.32-1.5.4-.74.83-.48 1.09-.68 1.16-4.67 6.11-.67.36-1.88 1.66-1.28.51-1.49.06-1.03-.34-2.66-1.38.51-1.08.02-.64-.53-.9 0-.95 2.78-.82.26-1.56-2.12-3.65-.45-1.97.33-1.65.58-1.71.32-2.16 1.02-3.38 2.7-1.03 8.26.48-.93-1.69-1.49-1.82-1.34-.52-.49 2.21-1.97-5.65-1.38-2.73-2.18-1.15-2.22-.83-1.97-2.1-1.49-2.84-.64-3.63-.13-1.05.01-1.38-.35-.68-1.66-1.07-.54-.47-3.09-5.47-1.59-2-7.69-3.98-.89-.88-.59-.75-4.08-5.36-1.13.98-1.09.43-.83-.39-.35-1.46-.04-1.39.11-.65.32-.58.28-.74-.48-.38-1.05-.27.24-2.66 3.93-10.61 1.29-1.71 2.2-.77 1.96.78 2.87 1.54 2.62.94 1.12-1.03 1.21-.87 2.67-.04 6.82 1.06 4.53 2.34 2.24.53 2.62-1.09 2.23-2.4 1.74-2.41 1.13-1.1 4.14.33 2.15.52 1.83.9.67-1.21.18-.54.76 0 .65 1.03.72.82 2.11 1.73.89-1.87-.48-1.38-2.1-1.99-1.76-3.64-.79-.81-1.49-.44-3.01-.04-1.53-.48-.36-.37-.15-.41-.32-.44-8.99-3.88-4.83-3.43-3.89-4.2-2.78-4.78-3.77 6.37-8.54-1.6-9.21-3.56-5.76.54-.77-2.47-1.06-1.35-1.63-.76-2.5-.67-.12 2.61-.8 1.56-.97 1.25-.66 1.66-.85 0 0-1.54-.26-1.4-.57-1.29-.85-1.18.99-2-2.42-3.54.49-2.34-.76-.8-.49.28-1.3.52 1.16-2.67.63-.83-1.43.29-1.06.67-2.22 2.14-.73-.4-.55-1.47.42-1.51 2.08-.52-1.1-4.59-1.02-1.84-1.66-.74-.57.44 1.01 2.22.02.93-.73.15-3.58-.15 1.18 1.44.5.39 0 .79-4.01-1.97-2.57-.83-1.14.62 1.17 3.31-.33 1.42-2.52 1.04 1.92 1.2-1.11.89-2.19.82-1.2.98.61 2.18 1.45 1.54 5.72 3.55 1.18.2 1.74.02 1.05-.83 1.54-3.93 1.32-1.37-.08 1.67-.43 2.03-.73 1.71-.97.72-.52.55-4.14 3.03.08 1.88 1.96 2.82 1.45 4.68.83 1.64-.22.82-.45.79-.26.86-.71 1.51-4.38 5.13-1.37.78-3.81 1.56-1.28.28-6.7-.65-3 .16-2.6 1.37-.95 0-2.43-2.5-2.75-1.85-2.09-2.53-.37-4.49.25-1.43.88-5.04.57-1.49.89-.85.91-.27.88-.35.71-1.16.08-1.02-.85-3.43.33-5.92-.33-1.88-.43.11-3.04-1.86-2.55-2.63-.33-2.61.73-1.8.94-1.58.36-1.98-.57-1.65-1.19-1.25-1.37-.46-1.18.73-1.19-1.69-4.63-5.18-1.38-1.1-2.93-4.37-.72-.55-.64-.26-1.61-.07-.49-.33.03-.76.16-.88-.13-.66-3.76-4.63-2.5-1.71-3.55-.68-1.85-.07-.91-.36-1.95-2.28-.3-.66.12-.52-.12-.36-1.94-.24-.77-.33-.65-.57-.59-.82-2.19 2.4-1.67-.29-1.25-1.77-.92-2.1-.84.96-2.2-1.56-1.05 1.43.36 3 2.04 3.19-1.58-.44-3.53-.37-.67 1.65-1.2-.17-1.12-1.35-.41-1.88-1.07 1.47-1.13-.2-.72-1.28.29-1.74-3.22-.58-5.91-2.49-2.84.36 1.23 2.05.54.66-3.06-2.13-1.43-.68-1.52.1-1.67 1.19-1.61 1.54-1.68.85-1.85-.87-.48 2.03-1.09 1.75-1.13.5-.7-1.73-.94 1.5-1.89 4.08-.1 1.04 1.41 1.77.01 1.43-1.23.81-2.36-.02.6.54.36.76.13.97-.16 1.23-.93 0-.49-1.52-.79-.09-.79.94-.48 1.55.32.98 1.77 2.57.46.83-.28 2.92-1.34 2.33-2.02 1.69-2.31 1.03.02-3.28-.23-1.51-.64-1.43-.2.57-.39.75-.53.55-.59-.03-.8-.82-.21-.53.16-.49-.4-1.77-.08-1.68-.26-1.48-.94-1.2.59-1.99.32-3.07-.36-2.54-1.49-.37-.49 1.82-.03 2.99-.39 2.16-1.55-.75-4.53 2.32-1.43 1.79-.08 2.97-.77 0-.21-1.19-.3-.55-1.27-.97.9 3.62 2 3.73 2.79 2.94 3.32 1.19 2.07 1.37 4.83 5.72 2.86.87 0 .8-1.73.32-.43.62.47 2.2-.21 1.67-.64.32-11.32-3.14-2.36.72 4.8 4.73 1.39 2.44-.15 3.41-17.93-4.02-18.87-7.36-2.37-1.84-8.66-8.83-8.42-6.13-4.38-6.55-1.65-1.42 0-.88 1.5-1.07 1.06-1.58.62-1.91.23-2.05-.54-1.18-2.34-2.23-.53-.94.56-4.43-.17-1.77-1.23-2.21-5.28-5.08-1.52-2.02-.97-2.09-1.37-4.98-.52-4.64-4.55-15.48-.31-2.26-.01-5.67.73-2.01 1.89-1.66 2.49-.99 2.71-.5 4.53-.18 2.33-.56-.14-1.37-1.53-1.75-7.81-6.15-.95-1.12-.81-1.38-5.13-6.13.63-.37 1.25-1.02.67-.37-2.2-2.83-1.93-3.2-1.39-3.39-.51-3.46-.81-2.17-4.01-6.58-1.56-1.41-.89-1.44-2.56-12.95-.76-2.48-1.62-1.75-3.09-1.7-3.72-2.89-2.82-4.46-1.49-5.41.31-5.75 1.03-3.25.97-.62 1.39.64 2.17.51 4.71-6.16 1.09-2.09.79-2.39 1.04-8.29 1-1.56 6.64-5.68 1.56-1.93.63-2.44.89-2.2 2.15-1.7 4.75-2.68-1.16-.82-1.09-.47-2.06-.47 5.23-6.17.71-1.86-1.3-2.61-2.88-.78-2.92-.31-1.33-1.15-.48-2.51-1.97-4.55-.23-3.1.88-5.47.91-2.66 1.3-2.12 1.92-1.65 6.1-3.21 4.54-5.32.71-1.35 8.45-7.22 1.09-.4 1.05.55 1.02.33 1.33-.52 1.44-.78 3.73-.93 1.76-1.24 1.48-1.47 1.52-1.18 4.46-1.22 4.5-.63 1.82-.57 7.15-3.86 4.77-1.55 2.04-1.2.83-2.03.05-2.36.42-2.24 1.25-1.82 2.53-1.1 3.42.4.7 2.16-1.03 2.41-3.86 2.3-1.09 2.64-.65 2.97-.81 2.08-5.93 4.05-.94 1.74-.53 2.56-1.25 2.36-2.47 3.52.77.97 2.27-2.64 5.36-3.41 1.79-2.87 0-.65-.15-.86-.08-1.01.23-1.02.42-.71.43-.34.44-.26 3.89-4.09 4.26-3.45 3.46-4.51.65-.22 2.03-.22.63-.36.19-.78-.25-1.94.06-.82 3.09-5.29.41-1.87-2.17 1.55-2.17 1.99-.65-3.33 4.12-8.22.87-4.48-.85 0-.12.88-.81 1.78-1.53-3.78-.14-1.41.9-1.9 2.2-1.58.35-.63.03-2.6.25-1.12.57-1.16.73-.85 1.06-1.22 4.13-3.48 1.72-2.43 3.12-6.58 1.64-1.96.88-1.46 2.43-5.54 1.04-3.69 6.14-10.5 3.27-9.19 1.96-3.91-.62-2.21 1.64-10.1 1.33-3.12.59-.64.97-.61.54-1.42.43-1.61.61-1.22 1.58-2.1.94-2.41.01-2.49-1.23-2.37-2.27-1.56-1.34.9-1.22 1.23-1.96-.57-.47.57-.81.62-.42.59-1.2-1.8-3.06-2.32-.92-2.1.12-1.77 1.27-3.96.31-1.92-.27-1.52-1.16-3.67-.27-1.92.61-1.1 1.34.54 2.3 1.81-1.02-3.5-2.59-3.47-2.09-1.31.6 3.02-1.55-1.42-1.06-3.98-2.02-.83-1.56.34-3.34 1.34-1.53.1-1.05-.53-2.26-2.14-1.1-.09-.85.34-.63.43-.46.21-1.44-.84-.6-1.92-.33-2.11-.61-1.45.1-3.21-1.88-3.27-2.29-3.06-1.12-2.52-.4-3.21-3.85-9.67-.79-3.39-.04-11.45-.39-1.13-1.66-1.89-.5-.95.04-.91.78-1.67.11-1.08-.42-2.96.03-1.35 5.39-24.34-.04-1.59-.73-4.26 0-4.47-.21-1.13-.46-.99-.34-1.14.08-1.62.57-1.7.71-.96 4.19-3.82 4.11-2.88 1.99-1.86 3.22-4.2 2.29-4.34 1.64-5.4.6-5.78-.98-5.35-2.48-3.47z" /></g></g></svg>