<?xml version="1.0" encoding="UTF-8" standalone="no"?>
<svg
   xmlns:dc="http://purl.org/dc/elements/1.1/"
   xmlns:cc="http://creativecommons.org/ns#"
   xmlns:rdf="http://www.w3.org/1999/02/22-rdf-syntax-ns#"
   xmlns:svg="http://www.w3.org/2000/svg"
   xmlns="http://www.w3.org/2000/svg"
   xmlns:sodipodi="http://sodipodi.sourceforge.net/DTD/sodipodi-0.dtd"
   xmlns:inkscape="http://www.inkscape.org/namespaces/inkscape"
   version="1.1"
   width="800"
   height="800"
   viewBox="0 0 800 800"
   id="svg8"
   sodipodi:docname="Luzon.svg"
   inkscape:version="1.0.1 (3bc2e813f5, 2020-09-07)">
  <metadata
     id="metadata14">
    <rdf:RDF>
      <cc:Work
         rdf:about="">
        <dc:format>image/svg+xml</dc:format>
        <dc:type
           rdf:resource="http://purl.org/dc/dcmitype/StillImage" />
        <dc:title></dc:title>
      </cc:Work>
    </rdf:RDF>
  </metadata>
  <defs
     id="defs12" />
  <sodipodi:namedview
     pagecolor="#ffffff"
     bordercolor="#666666"
     borderopacity="1"
     objecttolerance="10"
     gridtolerance="10"
     guidetolerance="10"
     inkscape:pageopacity="0"
     inkscape:pageshadow="2"
     inkscape:window-width="1920"
     inkscape:window-height="974"
     id="namedview10"
     showgrid="false"
     inkscape:zoom="0.235888"
     inkscape:cx="574.75649"
     inkscape:cy="655.09503"
     inkscape:window-x="-11"
     inkscape:window-y="-11"
     inkscape:window-maximized="1"
     inkscape:current-layer="svg8" />
  <g
     id="g6"
     transform="translate(-200.00192,0.00317942)">
    <g
       stroke="#000000"
       stroke-width="0.98"
       fill="#000000"
       id="g4">
      <path
         d="m 640.48,36.78 -1.13,-0.71 -3.44,-3.02 -1.09,-1.41 -0.58,-2.2 -0.48,-5.25 -0.98,-2.04 -1.88,-0.93 -2.59,-0.06 -5.8,0.54 -0.88,1.49 -2.95,9.26 -0.34,4.44 -0.96,1.34 -2.53,0.49 -1.58,1.26 -4.86,7.77 -6.56,3.9 -1.52,0.58 -7.13,0.97 -2.72,-0.08 -5.31,-1.15 -22.4,-8.78 -1.64,-1.29 -1.82,-0.61 -1.26,1.88 -0.04,2.7 1.87,1.88 v 0.82 l -2.49,-2.33 -2.03,-3.62 -2.65,-3.33 -5.66,-1.91 -0.96,-1.02 -0.78,-1.17 -0.8,-0.86 -0.79,-0.34 -1.7,-0.2 -0.98,-0.36 -9.24,-6.28 -4.01,-1.19 -1.7,-1.12 -1.76,-1.52 -12.17,-6.36 -3.28,-3 -6.18,-3.1 -0.95,-0.99 -0.65,-1.18 -0.84,-1 -1.41,-0.42 -2.77,-0.3 -1.36,-0.41 -0.99,-0.63 -1.42,-0.51 -1.47,0.75 -1.45,1.19 -1.28,0.81 -1.21,0.15 -2.59,-0.21 -1.22,0.06 -1.79,0.62 -4.92,2.47 -1.03,0.99 -0.83,1.23 -2.09,1.23 -2.5,0.76 -2.21,-0.13 -2.16,-1.67 -3.23,-5.3 -1.88,-2.44 -2.06,-0.93 -2.65,0.19 -2.52,1.1 -1.71,1.88 -0.38,2.3 -0.04,3.01 -0.59,2.61 -2.07,1.13 -2.35,0.47 -5.56,1.96 -2.61,0.26 -5.3,-1.19 -2,0.38 -2.56,2.15 -2.53,2.68 -1.17,1.97 0.13,2.24 1.45,3.5 1.43,4.93 0.15,5.37 -0.88,5.16 -1.62,4.32 -3.73,6.87 -0.52,1.63 -0.25,0.5 -0.54,0.3 -0.59,0.21 -0.34,0.25 -0.02,0.74 0.29,0.79 0.39,0.46 0.35,-0.2 -6.99,14.81 -0.38,1.82 0.74,1.68 0.48,2.7 0.18,2.86 -0.13,2.22 -0.57,1.73 -2.61,5.59 -2.96,4.22 -0.32,1.86 0.51,5.44 -0.19,2.97 -0.66,1.9 -2.97,3.56 -0.93,1.95 0.73,1.4 1.38,1.4 1.01,1.99 0.04,1.8 -0.52,2.38 -1.26,2.07 -2.19,0.89 -2.64,0.39 -1.29,1.18 -2.41,15.9 0.87,2.3 2.13,1.11 5.5,1.49 -0.05,2.85 4.17,9.68 1.06,4.48 -0.04,1.48 -0.21,1.19 -0.52,1.2 -1.01,1.47 -2.24,2.5 -0.4,0.74 0.52,7.57 -1.16,5.6 -0.12,1.95 0.27,1.09 1.24,1.82 0.26,0.65 2.49,22.31 -0.28,3.37 -0.85,2.63 -9.54,14.52 -1.12,1.09 -1.01,0.64 -0.88,0.79 -0.85,1.51 -0.48,1.31 -0.26,1.25 -0.18,2.84 0.49,2.86 0.91,2.85 0.31,2.76 -2.25,4.54 -0.67,2.95 -0.13,2.83 0.65,1.63 v 0.87 l -1.42,0.03 -0.85,-0.11 -0.37,-0.3 v -0.49 l -1.16,1.14 1,2.46 1.71,3.12 1.09,3.11 -0.94,6.64 1.63,4.88 3,21.28 0.72,0.85 0.82,0.79 0.63,1.07 v -2.65 l 3.96,5.16 1.48,2.97 0.58,3.01 v 5.23 l -0.55,1.48 -2.38,2.58 -0.54,1.33 -1.12,1.96 -4.46,3.79 -0.37,1.77 1.02,0.07 1.69,-0.65 1.6,-0.38 0.79,0.96 -0.51,1.33 -1.34,0.36 -1.46,-0.28 -0.87,-0.53 -1.37,1.35 -1.42,2.78 -1.53,1.26 0.94,-3.53 -1.79,-1.42 -4.31,0.44 -1.22,0.48 -2.24,1.45 -2.66,0.6 -2.88,-0.09 -5.79,-1.65 -2.45,-1.25 -1.68,-1.8 -0.65,-2.6 -1.15,-8.26 -0.43,-0.48 -0.97,0.34 -2.29,-2.39 -1.43,-1.02 -1.58,-0.19 -2.76,0.06 -1.25,-0.85 -3.6,-3.86 -0.74,-1.08 -1.25,-0.63 -5.65,-1.44 -1.61,-1.07 2.97,-12.24 v -2.57 l -1.17,-2.06 -3.08,-0.84 -2.65,0.25 -2.03,0.55 -0.55,0.29 -2.08,1.48 -0.56,0.12 -1.41,-0.22 -0.57,0.1 -1.31,1.25 -1.39,2.08 -1.1,2.54 -0.73,5.38 -2.27,8.31 -0.27,1.72 0.27,4.04 0.39,1.32 1.77,1.97 0.39,1.17 -0.42,2.57 -1.83,5.49 -0.3,2.15 -0.25,14.82 1.87,3.83 1.4,-1.27 0.38,-0.5 1.87,0.26 1.53,-1.97 1.97,-1.8 3.2,0.85 1.64,1.84 1.46,2.62 2.01,5.27 0.44,2.7 -0.29,2.03 -0.56,1.87 -0.44,2.23 0.72,5.41 -0.57,2.06 -2.77,0.64 1.76,3.28 2.64,1.68 2.14,1.86 0.33,3.77 -0.59,1.77 -1.63,3.38 -0.33,1.43 0.3,1.7 2.25,4.95 0.67,-1.28 0.18,-0.56 1.01,0.96 0.55,1.55 0.29,1.43 0.31,0.64 0.64,0.32 0.69,0.8 0.6,0.98 0.23,0.9 -0.83,2.96 -2.03,2.02 -2.52,0.55 -2.34,-1.48 0.63,1.85 0.16,0.91 0.06,1.2 -0.41,0.72 -1.81,1.2 -0.33,1.09 1.09,2.38 7.02,7 1.31,1.98 2.08,4.29 2.56,3.92 0.49,1.03 -0.03,2.92 -0.36,2.24 0.06,1.26 0.73,0.54 1.21,1.21 4.35,18.52 0.47,5.19 -0.87,11.72 0.85,4.89 2.9,9.66 2,-0.67 0.55,-0.29 -0.43,1.04 -0.44,0.74 -0.65,0.57 -1.03,0.45 1.27,1.24 3.19,1.14 0.64,1.49 0.86,0.88 1.96,0.86 2.27,0.51 1.71,-0.13 1.46,-2.26 1.23,-4.25 0.53,-4.52 -0.67,-3.03 1.66,-1.73 1.35,0.86 1.26,1.75 1.3,0.96 1.47,-0.03 0.9,0.14 0.44,0.63 0.12,1.45 0.43,0.75 0.99,0.31 2.06,0.18 -0.49,1.41 -0.62,1.03 -0.71,0.52 -0.74,-0.16 -0.88,1.13 -1.15,1.05 -1,1.15 -0.43,1.42 2.64,1.6 0.94,0.97 -1.46,0.43 -2.31,1.82 1.34,3.99 4.02,5.77 h 0.85 l 0.57,1.15 1.01,0.55 1.27,-0.1 1.4,-0.8 5.1,3.45 1.31,2.4 0.46,4.37 -0.6,7.7 0.65,3.59 2.5,3.15 1,0.48 5.7,1.7 0.56,0.93 0.35,0.94 0.47,0.41 1.8,-0.37 0.67,-0.87 0.2,-0.93 0.37,-0.53 1.34,-0.14 0.94,0.3 0.88,0.47 1.17,0.33 4.78,-0.85 2.96,-3.31 1.18,-4.97 -0.49,-5.8 -2.36,-9.12 0.24,-1.97 0.66,-1.45 -0.48,-1.44 -4.86,-5.58 -0.36,-2.63 1.21,-8.31 -0.09,-5.06 -0.03,-1.26 0.94,-1.68 2.58,1.44 0.48,-5.76 1.04,-2.49 1.95,0.26 0.54,2.06 -1.46,8.57 0.87,-0.95 0.36,0.09 0.47,0.86 1.33,-1.3 0.37,-0.45 -0.17,-1.11 0.17,-4.17 0.74,1.82 0.21,2.15 -0.1,4.42 0.5,1.57 1.24,1.09 1.7,0.74 1.01,0.3 0.73,0.21 7.7,1.37 12.26,0.39 1.31,0.31 0.35,0.71 0.06,0.85 0.41,0.69 5.86,2.4 1.01,0.79 0.56,1.57 3.69,5.06 0.82,1.79 0.88,5.24 1.08,2.7 2.65,4.42 0.53,3.01 -0.51,2.39 -1.24,1.74 -3.36,2.42 -2.15,2.37 -0.86,0.34 -2.7,-0.15 -1.42,0.1 -1.01,0.45 -11,10.74 -2.65,4.26 -1.03,0.64 -3.04,1.28 -0.64,0.75 -0.64,1.52 -1.51,1.41 -1.94,1.16 -1.77,0.73 -4.99,0.87 -1.97,0.96 -0.77,2.08 -1.09,2.1 -2.06,2.45 -1.08,2.27 1.75,1.55 v 0.88 l -1.46,0.69 -0.82,0.2 -1.19,-0.02 1.92,1.08 1.06,1.19 -0.21,1.15 -1.92,0.96 v 0.96 l 3.42,1.04 1.46,2.65 0.29,3.55 -0.55,7.53 0.31,1.92 1.47,0.82 0.38,0.63 -0.73,1.33 -1.5,1.23 -1.93,0.32 2.13,4.81 0.21,10.9 0.99,4.59 2.68,3.41 1.72,1.13 0.78,-1.48 -0.6,-2.52 -1.07,-2.62 -0.46,-2.37 1.2,-1.76 5.12,0.97 2.43,-0.47 -1.06,-2.69 -1.67,-2.54 -0.44,-2.27 0.92,-1.74 2.34,-0.89 2.78,0.08 5.09,1.34 11.19,1.42 2.27,0.74 1.4,1.28 0.76,1.89 0.32,2.15 0.06,2.09 -0.19,1.45 -0.64,2.72 0.06,1.47 0.42,0.59 2.05,2.11 -0.01,1.71 -0.37,1.1 -0.91,0.6 -1.61,0.18 -0.48,0.67 -0.46,1.48 -0.62,1.48 -1.02,0.66 -0.54,0.67 0.2,1.49 0.64,1.5 0.94,0.71 1.01,-0.63 9.69,-11.22 1.25,-0.4 1.59,0.35 1.56,0.71 2.44,1.63 0.48,0.5 1.71,4.69 -0.1,2.08 -0.48,2.25 -0.31,3.14 -0.39,1.39 -0.73,0.75 -0.42,0.67 0.61,1.17 1.08,0.7 2.85,0.61 1.24,0.44 1.75,-1 1.95,-0.78 4.04,-0.93 2,0.1 1.34,0.62 1.06,0.71 1.09,0.32 2.23,0.11 1.64,0.32 3.38,1.4 0.53,0.47 1.78,1.1 1.9,0.64 2.4,-2.55 7.17,-5.41 2.38,-1.32 1.75,0.09 5.12,1.26 0.54,-0.85 3.71,-4 -1.47,-0.6 -0.81,-0.18 -1.19,-0.01 0.56,-3.26 -0.91,-8.97 2.63,-2.93 3.74,-4.17 1.22,-0.81 0.57,-0.12 2.1,-0.12 0.92,-0.24 0.9,-0.4 2.34,-1.69 3.56,-1.26 1.64,-1.13 0.61,-0.08 2.14,0.56 1.07,-0.05 1.88,-2.07 0.67,-0.55 5.94,-1.55 0.94,-0.68 0.43,-1.73 2.17,-1.35 0.8,-1.78 1.92,0.93 4.7,1.65 1.03,0.05 1.92,2 1.4,2.32 1.76,1.95 4.05,1.08 1.39,0.72 1.43,0.99 2.58,2.24 1.31,0.44 1.4,0.22 1.52,0.46 1.6,0.93 4.48,4.16 0.44,0.26 2.41,-0.1 1.64,0.99 2.11,1.73 1.84,0.57 0.77,-2.5 4.14,3.09 3.15,3.65 6.69,10.94 1.03,1.25 0.74,1.14 0.44,2.18 0.51,1.05 1.68,1.09 4.23,0.3 2.21,0.76 -0.09,1.79 7.53,-0.02 1.98,2.24 0.79,1.74 3.51,1.45 0.81,1.15 2.39,2.29 0.4,0.91 0.23,1.66 0.29,0.86 12.27,16.39 2.25,7.35 -0.15,2.01 -1.3,4.53 -0.32,2.59 8.21,6.99 2.13,1.34 2.08,-0.45 3.15,-1.34 2.87,-1.66 1.25,-1.35 0.49,-0.83 1.07,-0.52 1.18,-0.4 0.68,-0.43 0.19,-1.04 0.04,-1.53 -0.23,-2.67 -0.38,-0.83 -0.59,-0.79 -0.5,-0.97 -0.24,-1.42 v -5.24 l -0.53,-4.78 -1.18,-5.27 -1.11,-2.55 -1.43,-2.2 -5.47,-6.49 -3.23,-5.09 -0.72,-2.02 5.28,4.08 2.83,1.45 0.46,-2.1 -1.77,-2 -8.94,-5.44 -4.61,-4.52 -1.91,-2.76 -0.77,-3.21 -0.73,-5.71 0.63,-2.43 2.72,0.62 -1.06,-4.63 -0.15,-2.72 0.76,-1.88 0.1,-1.57 -1.23,-2.28 -6.08,-8.77 -0.45,-0.98 -1.67,-0.7 -1.64,-1.66 -0.94,-2.02 0.39,-1.75 2.32,2.01 3.06,1.04 7.02,0.45 2.61,-3.43 0.43,0.33 0.33,0.77 1.61,1.88 0.55,1.25 1.47,-0.88 0.69,1.1 0.33,1.69 0.52,0.87 1.55,0.25 1.67,0.67 1.54,0.94 3.77,3.79 0.44,1.04 -0.61,0.79 -0.85,0.66 -0.25,0.53 1.29,1.64 1.57,0.84 1.61,-0.17 1.49,-1.43 1.15,0.79 4.86,0.96 1.76,1 1.71,1.41 0.57,1.1 -1.58,0.08 -0.75,0.86 0.75,0.8 v -0.8 l 3.8,1.93 3.04,2.58 6.08,6.87 -5.96,5.25 1.78,1.54 3.75,4.57 1.71,0.96 1.58,0.68 7.74,5.54 3.02,2.88 1.21,0.59 1.91,0.29 2.82,1.19 2.11,0.27 3.55,0.96 6.57,4.21 3.52,0.96 2.81,1.56 2.36,3.67 1.15,4.34 -0.76,3.52 3.38,3.58 0.54,1.16 0.67,2.01 0.52,1.12 1.91,2.34 4.62,3.28 2.04,2.31 0.54,4.72 -3.26,10.02 1.86,4.54 -1.18,1.68 0.43,2.2 1.03,2.33 0.58,2.09 1.15,0.94 2.53,-0.85 3.95,-2.28 2.85,-0.92 2.12,0.1 2.08,0.52 2.8,0.3 1.11,0.97 2.23,4.25 2.48,1.33 1.88,2.65 1.23,1.04 1,0.42 1.03,0.23 1.3,0.45 2.41,1.3 1.5,1.27 3.39,4.01 0.84,0.47 1.32,0.44 2.08,0.43 1.68,0.05 0.37,-0.08 0.09,-0.51 0.91,-1.27 0.55,-1.03 0.25,-1.13 0.63,-0.89 1.52,-0.36 1.28,-0.11 0.91,-0.39 0.63,0.47 -2.09,2.78 -1.16,2.71 2.59,2.46 -0.06,-1.28 -0.34,-1 -0.59,-0.76 0.77,-0.36 3.23,-0.17 1.3,0.39 -0.17,0.84 -1.07,0.88 -1.37,0.51 1.04,1.7 0.66,1.78 0.55,-0.15 0.7,-0.52 0.44,-0.19 1.08,-0.72 1.33,-2.22 0.61,-0.48 0.75,0.28 1.13,1.19 0.7,0.28 0.76,-0.15 1.16,-0.66 2.95,-0.73 2.03,-1.43 2.95,-3.21 0.68,-1.72 0.67,-2.64 0.96,-2.43 1.47,-1.06 2.08,0.42 3.83,1.82 2.21,0.38 5.75,-0.9 2.53,0.77 1.08,3.18 -0.57,2.38 -1.43,2.3 -1.91,1.79 -2.05,0.94 -0.87,-0.21 -1.17,-0.52 -1.34,-0.25 -1.29,0.58 -0.57,1.2 -0.04,1.27 -0.39,1 -1.55,0.41 -1.24,0.15 -0.71,0.24 -0.69,0.06 -1.19,-0.45 -0.9,-0.72 -2,-2.06 -1.35,-0.7 -1.23,2.46 -1.8,1.76 -2.44,0.95 -3.17,0.06 2.43,1.63 2.08,0.85 1.52,1.37 0.84,3.2 -0.21,2.6 -0.51,2.55 -0.06,2.5 2.54,4.7 0.89,2.43 1.05,1.93 2.57,1.19 1.88,2.14 1.08,-0.25 0.87,-0.33 0.42,0.18 -0.24,1.34 3.55,5.46 2.89,2.82 3.35,1.22 4,0.18 1.58,-0.18 1.47,-0.54 2.07,-1.52 1.48,-0.47 -1.08,-2.59 -0.62,-0.81 1.68,-1.26 0.14,-1.02 -0.59,-1.31 -0.38,-2.16 0.79,-1.88 3.52,-2.39 0.79,-1.9 1.7,-15.33 -0.03,-2.18 -1.14,-8.18 -1.76,-2.85 -0.41,-2 0.33,-1.15 2.24,-4.63 1.2,-3.6 0.81,-1.45 1.47,-1.93 1.58,0.81 1.03,-1.38 0.31,-2.39 -0.46,-2.27 -1.42,-0.8 -2.9,-1.19 -2.88,-0.74 -1.31,0.54 -0.49,1.78 -2.61,5.34 -1.21,1.18 -1.3,-0.85 -5.49,-4.87 -0.71,-1.58 -1.64,-1.71 -1.97,-1.48 -1.64,-0.86 -4.42,-1.22 -0.76,-0.09 -0.16,-1.15 -0.57,-0.66 -0.91,-0.3 -1.25,-0.07 -1.12,-0.44 -1.34,-1.85 -1.44,-0.32 -1.5,0.4 -0.74,0.83 -0.48,1.09 -0.68,1.16 -4.67,6.11 -0.67,0.36 -1.88,1.66 -1.28,0.51 -1.49,0.06 -1.03,-0.34 -2.66,-1.38 0.51,-1.08 0.02,-0.64 -0.53,-0.9 v -0.95 l 2.78,-0.82 0.26,-1.56 -2.12,-3.65 -0.45,-1.97 0.33,-1.65 0.58,-1.71 0.32,-2.16 1.02,-3.38 2.7,-1.03 8.26,0.48 -0.93,-1.69 -1.49,-1.82 -1.34,-0.52 -0.49,2.21 -1.97,-5.65 -1.38,-2.73 -2.18,-1.15 -2.22,-0.83 -1.97,-2.1 -1.49,-2.84 -0.64,-3.63 -0.13,-1.05 0.01,-1.38 -0.35,-0.68 -1.66,-1.07 -0.54,-0.47 -3.09,-5.47 -1.59,-2 -7.69,-3.98 -0.89,-0.88 -0.59,-0.75 -4.08,-5.36 -1.13,0.98 -1.09,0.43 -0.83,-0.39 -0.35,-1.46 -0.04,-1.39 0.11,-0.65 0.32,-0.58 0.28,-0.74 -0.48,-0.38 -1.05,-0.27 0.24,-2.66 3.93,-10.61 1.29,-1.71 2.2,-0.77 1.96,0.78 2.87,1.54 2.62,0.94 1.12,-1.03 1.21,-0.87 2.67,-0.04 6.82,1.06 4.53,2.34 2.24,0.53 2.62,-1.09 2.23,-2.4 1.74,-2.41 1.13,-1.1 4.14,0.33 2.15,0.52 1.83,0.9 0.67,-1.21 0.18,-0.54 h 0.76 l 0.65,1.03 0.72,0.82 2.11,1.73 0.89,-1.87 -0.48,-1.38 -2.1,-1.99 -1.76,-3.64 -0.79,-0.81 -1.49,-0.44 -3.01,-0.04 -1.53,-0.48 -0.36,-0.37 -0.15,-0.41 -0.32,-0.44 -8.99,-3.88 -4.83,-3.43 -3.89,-4.2 -2.78,-4.78 -3.77,6.37 -8.54,-1.6 -9.21,-3.56 -5.76,0.54 -0.77,-2.47 -1.06,-1.35 -1.63,-0.76 -2.5,-0.67 -0.12,2.61 -0.8,1.56 -0.97,1.25 -0.66,1.66 h -0.85 v -1.54 l -0.26,-1.4 -0.57,-1.29 -0.85,-1.18 0.99,-2 -2.42,-3.54 0.49,-2.34 -0.76,-0.8 -0.49,0.28 -1.3,0.52 1.16,-2.67 0.63,-0.83 -1.43,0.29 -1.06,0.67 -2.22,2.14 -0.73,-0.4 -0.55,-1.47 0.42,-1.51 2.08,-0.52 -1.1,-4.59 -1.02,-1.84 -1.66,-0.74 -0.57,0.44 1.01,2.22 0.02,0.93 -0.73,0.15 -3.58,-0.15 1.18,1.44 0.5,0.39 v 0.79 l -4.01,-1.97 -2.57,-0.83 -1.14,0.62 1.17,3.31 -0.33,1.42 -2.52,1.04 1.92,1.2 -1.11,0.89 -2.19,0.82 -1.2,0.98 0.61,2.18 1.45,1.54 5.72,3.55 1.18,0.2 1.74,0.02 1.05,-0.83 1.54,-3.93 1.32,-1.37 -0.08,1.67 -0.43,2.03 -0.73,1.71 -0.97,0.72 -0.52,0.55 -4.14,3.03 0.08,1.88 1.96,2.82 1.45,4.68 0.83,1.64 -0.22,0.82 -0.45,0.79 -0.26,0.86 -0.71,1.51 -4.38,5.13 -1.37,0.78 -3.81,1.56 -1.28,0.28 -6.7,-0.65 -3,0.16 -2.6,1.37 h -0.95 l -2.43,-2.5 -2.75,-1.85 -2.09,-2.53 -0.37,-4.49 0.25,-1.43 0.88,-5.04 0.57,-1.49 0.89,-0.85 0.91,-0.27 0.88,-0.35 0.71,-1.16 0.08,-1.02 -0.85,-3.43 0.33,-5.92 -0.33,-1.88 -0.43,0.11 -3.04,-1.86 -2.55,-2.63 -0.33,-2.61 0.73,-1.8 0.94,-1.58 0.36,-1.98 -0.57,-1.65 -1.19,-1.25 -1.37,-0.46 -1.18,0.73 -1.19,-1.69 -4.63,-5.18 -1.38,-1.1 -2.93,-4.37 -0.72,-0.55 -0.64,-0.26 -1.61,-0.07 -0.49,-0.33 0.03,-0.76 0.16,-0.88 -0.13,-0.66 -3.76,-4.63 -2.5,-1.71 -3.55,-0.68 -1.85,-0.07 -0.91,-0.36 -1.95,-2.28 -0.3,-0.66 0.12,-0.52 -0.12,-0.36 -1.94,-0.24 -0.77,-0.33 -0.65,-0.57 -0.59,-0.82 -2.19,2.4 -1.67,-0.29 -1.25,-1.77 -0.92,-2.1 -0.84,0.96 -2.2,-1.56 -1.05,1.43 0.36,3 2.04,3.19 -1.58,-0.44 -3.53,-0.37 -0.67,1.65 -1.2,-0.17 -1.12,-1.35 -0.41,-1.88 -1.07,1.47 -1.13,-0.2 -0.72,-1.28 0.29,-1.74 -3.22,-0.58 -5.91,-2.49 -2.84,0.36 1.23,2.05 0.54,0.66 -3.06,-2.13 -1.43,-0.68 -1.52,0.1 -1.67,1.19 -1.61,1.54 -1.68,0.85 -1.85,-0.87 -0.48,2.03 -1.09,1.75 -1.13,0.5 -0.7,-1.73 -0.94,1.5 -1.89,4.08 -0.1,1.04 1.41,1.77 0.01,1.43 -1.23,0.81 -2.36,-0.02 0.6,0.54 0.36,0.76 0.13,0.97 -0.16,1.23 h -0.93 l -0.49,-1.52 -0.79,-0.09 -0.79,0.94 -0.48,1.55 0.32,0.98 1.77,2.57 0.46,0.83 -0.28,2.92 -1.34,2.33 -2.02,1.69 -2.31,1.03 0.02,-3.28 -0.23,-1.51 -0.64,-1.43 -0.2,0.57 -0.39,0.75 -0.53,0.55 -0.59,-0.03 -0.8,-0.82 -0.21,-0.53 0.16,-0.49 -0.4,-1.77 -0.08,-1.68 -0.26,-1.48 -0.94,-1.2 0.59,-1.99 0.32,-3.07 -0.36,-2.54 -1.49,-0.37 -0.49,1.82 -0.03,2.99 -0.39,2.16 -1.55,-0.75 -4.53,2.32 -1.43,1.79 -0.08,2.97 h -0.77 l -0.21,-1.19 -0.3,-0.55 -1.27,-0.97 0.9,3.62 2,3.73 2.79,2.94 3.32,1.19 2.07,1.37 4.83,5.72 2.86,0.87 v 0.8 l -1.73,0.32 -0.43,0.62 0.47,2.2 -0.21,1.67 -0.64,0.32 -11.32,-3.14 -2.36,0.72 4.8,4.73 1.39,2.44 -0.15,3.41 -17.93,-4.02 -18.87,-7.36 -2.37,-1.84 -8.66,-8.83 -8.42,-6.13 -4.38,-6.55 -1.65,-1.42 v -0.88 l 1.5,-1.07 1.06,-1.58 0.62,-1.91 0.23,-2.05 -0.54,-1.18 -2.34,-2.23 -0.53,-0.94 0.56,-4.43 -0.17,-1.77 -1.23,-2.21 -5.28,-5.08 -1.52,-2.02 -0.97,-2.09 -1.37,-4.98 -0.52,-4.64 -4.55,-15.48 -0.31,-2.26 -0.01,-5.67 0.73,-2.01 1.89,-1.66 2.49,-0.99 2.71,-0.5 4.53,-0.18 2.33,-0.56 -0.14,-1.37 -1.53,-1.75 -7.81,-6.15 -0.95,-1.12 -0.81,-1.38 -5.13,-6.13 0.63,-0.37 1.25,-1.02 0.67,-0.37 -2.2,-2.83 -1.93,-3.2 -1.39,-3.39 -0.51,-3.46 -0.81,-2.17 -4.01,-6.58 -1.56,-1.41 -0.89,-1.44 -2.56,-12.95 -0.76,-2.48 -1.62,-1.75 -3.09,-1.7 -3.72,-2.89 -2.82,-4.46 -1.49,-5.41 0.31,-5.75 1.03,-3.25 0.97,-0.62 1.39,0.64 2.17,0.51 4.71,-6.16 1.09,-2.09 0.79,-2.39 1.04,-8.29 1,-1.56 6.64,-5.68 1.56,-1.93 0.63,-2.44 0.89,-2.2 2.15,-1.7 4.75,-2.68 -1.16,-0.82 -1.09,-0.47 -2.06,-0.47 5.23,-6.17 0.71,-1.86 -1.3,-2.61 -2.88,-0.78 -2.92,-0.31 -1.33,-1.15 -0.48,-2.51 -1.97,-4.55 -0.23,-3.1 0.88,-5.47 0.91,-2.66 1.3,-2.12 1.92,-1.65 6.1,-3.21 4.54,-5.32 0.71,-1.35 8.45,-7.22 1.09,-0.4 1.05,0.55 1.02,0.33 1.33,-0.52 1.44,-0.78 3.73,-0.93 1.76,-1.24 1.48,-1.47 1.52,-1.18 4.46,-1.22 4.5,-0.63 1.82,-0.57 7.15,-3.86 4.77,-1.55 2.04,-1.2 0.83,-2.03 0.05,-2.36 0.42,-2.24 1.25,-1.82 2.53,-1.1 3.42,0.4 0.7,2.16 -1.03,2.41 -3.86,2.3 -1.09,2.64 -0.65,2.97 -0.81,2.08 -5.93,4.05 -0.94,1.74 -0.53,2.56 -1.25,2.36 -2.47,3.52 0.77,0.97 2.27,-2.64 5.36,-3.41 1.79,-2.87 v -0.65 l -0.15,-0.86 -0.08,-1.01 0.23,-1.02 0.42,-0.71 0.43,-0.34 0.44,-0.26 3.89,-4.09 4.26,-3.45 3.46,-4.51 0.65,-0.22 2.03,-0.22 0.63,-0.36 0.19,-0.78 -0.25,-1.94 0.06,-0.82 3.09,-5.29 0.41,-1.87 -2.17,1.55 -2.17,1.99 -0.65,-3.33 4.12,-8.22 0.87,-4.48 h -0.85 l -0.12,0.88 -0.81,1.78 -1.53,-3.78 -0.14,-1.41 0.9,-1.9 2.2,-1.58 0.35,-0.63 0.03,-2.6 0.25,-1.12 0.57,-1.16 0.73,-0.85 1.06,-1.22 4.13,-3.48 1.72,-2.43 3.12,-6.58 1.64,-1.96 0.88,-1.46 2.43,-5.54 1.04,-3.69 6.14,-10.5 3.27,-9.19 1.96,-3.91 -0.62,-2.21 1.64,-10.1 1.33,-3.12 0.59,-0.64 0.97,-0.61 0.54,-1.42 0.43,-1.61 0.61,-1.22 1.58,-2.1 0.94,-2.41 0.01,-2.49 -1.23,-2.37 -2.27,-1.56 -1.34,0.9 -1.22,1.23 -1.96,-0.57 -0.47,0.57 -0.81,0.62 -0.42,0.59 -1.2,-1.8 -3.06,-2.32 -0.92,-2.1 0.12,-1.77 1.27,-3.96 0.31,-1.92 -0.27,-1.52 -1.16,-3.67 -0.27,-1.92 0.61,-1.1 1.34,0.54 2.3,1.81 -1.02,-3.5 -2.59,-3.47 -2.09,-1.31 0.6,3.02 -1.55,-1.42 -1.06,-3.98 -2.02,-0.83 -1.56,0.34 -3.34,1.34 -1.53,0.1 -1.05,-0.53 -2.26,-2.14 -1.1,-0.09 -0.85,0.34 -0.63,0.43 -0.46,0.21 -1.44,-0.84 -0.6,-1.92 -0.33,-2.11 -0.61,-1.45 0.1,-3.21 -1.88,-3.27 -2.29,-3.06 -1.12,-2.52 -0.4,-3.21 -3.85,-9.67 -0.79,-3.39 -0.04,-11.45 -0.39,-1.13 -1.66,-1.89 -0.5,-0.95 0.04,-0.91 0.78,-1.67 0.11,-1.08 -0.42,-2.96 0.03,-1.35 5.39,-24.34 -0.04,-1.59 -0.73,-4.26 v -4.47 l -0.21,-1.13 -0.46,-0.99 -0.34,-1.14 0.08,-1.62 0.57,-1.7 0.71,-0.96 4.19,-3.82 4.11,-2.88 1.99,-1.86 3.22,-4.2 2.29,-4.34 1.64,-5.4 0.6,-5.78 -0.98,-5.35 z"
         id="path2" />
    </g>
  </g>
</svg>
