<?xml version="1.0" encoding="UTF-8" standalone="no"?>
<svg
   xmlns:dc="http://purl.org/dc/elements/1.1/"
   xmlns:cc="http://creativecommons.org/ns#"
   xmlns:rdf="http://www.w3.org/1999/02/22-rdf-syntax-ns#"
   xmlns:svg="http://www.w3.org/2000/svg"
   xmlns="http://www.w3.org/2000/svg"
   xmlns:sodipodi="http://sodipodi.sourceforge.net/DTD/sodipodi-0.dtd"
   xmlns:inkscape="http://www.inkscape.org/namespaces/inkscape"
   version="1.1"
   width="1200"
   height="1200"
   viewBox="0 0 1200 1200"
   id="svg8"
   sodipodi:docname="Mallorca.svg"
   inkscape:version="1.0.1 (3bc2e813f5, 2020-09-07)">
  <metadata
     id="metadata14">
    <rdf:RDF>
      <cc:Work
         rdf:about="">
        <dc:format>image/svg+xml</dc:format>
        <dc:type
           rdf:resource="http://purl.org/dc/dcmitype/StillImage" />
        <dc:title></dc:title>
      </cc:Work>
    </rdf:RDF>
  </metadata>
  <defs
     id="defs12" />
  <sodipodi:namedview
     pagecolor="#ffffff"
     bordercolor="#666666"
     borderopacity="1"
     objecttolerance="10"
     gridtolerance="10"
     guidetolerance="10"
     inkscape:pageopacity="0"
     inkscape:pageshadow="2"
     inkscape:window-width="1920"
     inkscape:window-height="974"
     id="namedview10"
     showgrid="false"
     inkscape:zoom="0.47177599"
     inkscape:cx="622.00622"
     inkscape:cy="631.13393"
     inkscape:window-x="-11"
     inkscape:window-y="-11"
     inkscape:window-maximized="1"
     inkscape:current-layer="svg8" />
  <g
     id="g6"
     style="fill:#000000;fill-opacity:1"
     transform="matrix(1.2264758,0,0,1.2264758,-136.02612,109.41785)">
    <g
       stroke="#000000"
       stroke-width="0.98"
       fill="#ffffff"
       id="g4"
       style="fill:#000000;fill-opacity:1">
      <path
         d="m 984.35,213.98 -12.32,6.08 -26.47,27.07 -15.14,6.08 h -59.67 l -25.26,-5.99 -28.03,-15.97 -22.72,-22.24 -10.12,-25.29 1.27,-23.5 6.3,-8.71 27.53,-7.19 14.16,-6.22 4.95,-3.37 5.17,-5.9 2.9,-8.57 -0.78,-8.39 1.06,-7.57 8.71,-6.36 v -7.01 l -66.6,18.82 -30.86,-5.45 1.91,-36.62 h 6.44 l 9.7,5.4 10.4,-9 11.68,-12.92 12.81,-6.74 11.18,-2.67 30.58,-14.5 9.2,-6.74 -11.18,-6.14 -2.55,1.39 L 844,20.51 832.11,5 l -90.24,37.07 -48.2,12.41 -48.83,4.76 -26.83,7.33 -52.37,35.15 -25.62,12.36 -8.21,1.61 -18.19,-1.61 -3.19,2.31 -5.52,10.14 -3.11,2.3 -12.88,3.23 -10.12,8.02 -9.98,10.33 -12.46,10.09 -25.62,12.99 -6.37,1.8 -5.8,4.98 -17.7,20.31 -3.82,2.49 -2.76,5.57 -21.02,21.46 -3.82,1.01 -9.98,-2.03 -4.04,1.02 -1.98,3.68 -6.23,14.04 -3.68,5.39 -27.03,29.26 -14.72,12.15 -15.01,4.97 -17.41,2.62 -12.88,7.04 -42.89,46.07 -15.5,10.2 -18.33,4.14 -62.35,39.29 -5.17,17.08 -0.85,22.87 4.25,20.11 15.71,12.94 7.29,20.24 8.49,6.19 5.59,-1.38 24.07,-14.04 4.53,10.97 6.08,2.8 6.66,-4.13 7.07,-9.64 23.22,23.91 -7.36,4.58 -2.76,7.07 2.33,8.99 1.84,2.38 16.42,28.79 23.92,-2.93 21.52,-22.7 9.34,-30.5 11.68,-12.93 55.98,-31.3 18.97,-6.15 22.93,6.84 29.09,17.07 24.7,22.71 9.91,23.4 -13.37,27.42 -2.55,18.24 12.74,8.25 9.13,61.44 21.65,27.33 33.76,13.87 75.81,5.54 8.49,-1.19 13.73,-5.22 10.33,-1.28 7.65,2.57 13.58,10.98 8.5,2.61 6.23,4.35 2.83,10.47 1.84,12.36 3.96,10.43 5.24,4.43 13.59,6.27 5.52,3.98 23.78,35.57 3.61,4.39 8,-3.02 7.92,-5.76 3.61,-3.61 6.73,-11.2 33.4,-28.86 79.7,-49.64 27.46,-29.57 14.08,-46.58 3.4,3.16 8.49,5.22 8.07,-62.69 27.39,-54.21 36.66,-44.19 35.32,-32.65 -6.37,-17.77 2.76,-17.5 9.77,-13.37 14.65,-5.38 11.53,-6.71 9.28,-15.72 11.89,-31.49 -5.31,-14.12 2.55,-7.18 5.37,-4.41 3.33,-5.89 -1.49,-9.11 -2.83,-8.47 -0.78,-9.34 5.1,-11.73 -30.08,-2.58 -49.26,-29.37 z"
         id="path2"
         style="fill:#000000;fill-opacity:1" />
    </g>
  </g>
</svg>
