<?xml version="1.0" encoding="UTF-8" standalone="no"?>
<svg
   xmlns:dc="http://purl.org/dc/elements/1.1/"
   xmlns:cc="http://creativecommons.org/ns#"
   xmlns:rdf="http://www.w3.org/1999/02/22-rdf-syntax-ns#"
   xmlns:svg="http://www.w3.org/2000/svg"
   xmlns="http://www.w3.org/2000/svg"
   xmlns:sodipodi="http://sodipodi.sourceforge.net/DTD/sodipodi-0.dtd"
   xmlns:inkscape="http://www.inkscape.org/namespaces/inkscape"
   version="1.0"
   width="1024.000000pt"
   height="1024.000000pt"
   viewBox="0 0 1024.000000 1024.000000"
   preserveAspectRatio="xMidYMid meet"
   id="svg16"
   sodipodi:docname="Malta.svg"
   inkscape:version="1.0.1 (3bc2e813f5, 2020-09-07)">
  <defs
     id="defs20" />
  <sodipodi:namedview
     pagecolor="#ffffff"
     bordercolor="#666666"
     borderopacity="1"
     objecttolerance="10"
     gridtolerance="10"
     guidetolerance="10"
     inkscape:pageopacity="0"
     inkscape:pageshadow="2"
     inkscape:window-width="1920"
     inkscape:window-height="974"
     id="namedview18"
     showgrid="false"
     inkscape:zoom="0.55286249"
     inkscape:cx="682.66667"
     inkscape:cy="682.66667"
     inkscape:window-x="-11"
     inkscape:window-y="-11"
     inkscape:window-maximized="1"
     inkscape:current-layer="g14" />
  <metadata
     id="metadata2">
Created by potrace 1.10, written by Peter Selinger 2001-2011
<rdf:RDF>
  <cc:Work
     rdf:about="">
    <dc:format>image/svg+xml</dc:format>
    <dc:type
       rdf:resource="http://purl.org/dc/dcmitype/StillImage" />
  </cc:Work>
</rdf:RDF>
</metadata>
  <g
     transform="translate(0.000000,1024.000000) scale(0.100000,-0.100000)"
     fill="#000000"
     stroke="none"
     id="g14">
    <path
       d="m 1881.677,9840.1182 c -10.6643,-10.6642 -18.2816,-31.9928 -18.2816,-47.2275 0,-21.3285 -6.0939,-25.8989 -25.899,-18.2816 -68.556,30.4694 -103.5957,24.3755 -146.2528,-19.805 -42.6571,-44.1806 -42.6571,-44.1806 -16.7582,-99.0254 21.3286,-45.704 35.0398,-54.8448 80.7438,-59.4152 42.6571,-3.047 54.8448,-10.6643 54.8448,-35.0398 0,-16.7581 -10.6643,-31.9928 -22.852,-33.5162 -12.1877,-1.5235 -56.3683,-7.6174 -95.9784,-12.1878 -63.9856,-9.1408 -76.1734,-15.2347 -89.8846,-54.8448 -12.1877,-36.5632 -22.852,-44.1805 -67.0325,-44.1805 -45.7041,0 -56.3683,7.6173 -68.5561,44.1805 -18.2816,53.3214 -45.704,67.0326 -95.9784,47.2275 -39.6101,-13.7112 -70.0795,-89.8846 -70.0795,-169.1049 0,-53.3213 -10.6643,-59.4152 -57.8917,-35.0397 -22.852,12.1877 -70.0795,21.3285 -105.1193,21.3285 -53.3213,0 -65.5091,-4.5704 -65.5091,-27.4224 0,-25.8989 -7.6173,-25.8989 -97.50188,-13.7112 -86.8376,13.7112 -103.5957,12.1877 -152.3467,-16.7581 l -54.8448,-31.9928 -44.1805,36.5632 c -47.2275,41.1336 -163.011,53.3213 -193.4804,22.852 -25.8989,-25.899 -115.7835,45.704 -131.0181,103.5957 -13.7112,50.2745 -42.6571,54.8449 -42.6571,6.0939 0,-13.7112 -10.6643,-45.704 -22.852,-70.0795 -30.4694,-57.8917 -15.2347,-73.1264 100.5488,-106.6427 114.26,-31.9928 144.7294,-65.5091 120.3539,-137.112 -15.2347,-47.2275 -21.3285,-53.3214 -47.2275,-38.0867 -48.7509,25.8989 -83.7907,3.0469 -158.4406,-102.0723 -57.8917,-79.2203 -77.6968,-97.5019 -112.7365,-97.5019 -30.4694,0 -47.2275,-10.6643 -59.4152,-38.0867 -9.1409,-21.3285 -25.899,-38.0867 -35.0398,-38.0867 -9.1408,0 -13.7112,-10.6642 -9.1408,-22.852 6.0939,-12.1877 3.0469,-25.8989 -4.5704,-30.4693 -9.1408,-6.0939 -15.2347,-21.3285 -15.2347,-36.5632 0,-15.2347 -10.6642,-36.5632 -22.852004,-47.2275 -16.7581,-13.7112 -18.2816,-24.3755 -7.6173,-38.0867 12.1877,-13.7112 6.0939,-25.8989 -22.852,-44.1805 -21.3286,-13.7112 -38.0867,-36.5632 -38.0867,-51.7979 0,-28.9459 92.931504,-124.9243 147.776304,-153.8702 56.3683,-28.9459 135.5886,-19.8051 184.3395,21.3285 42.6571,35.0398 47.2275,36.5633 179.7692,22.8521 74.6499,-7.6174 137.112,-15.2347 140.1589,-15.2347 1.5235,0 3.047,-16.7582 3.047,-36.5632 0,-19.8051 16.7581,-60.9387 38.0867,-91.4081 47.2274,-70.0794 53.3213,-161.4875 9.1408,-161.4875 -48.751,0 -51.7979,-28.9459 -9.1408,-85.3141 38.0866,-50.2745 45.704,-53.3214 105.1192,-44.1806 57.8917,9.1408 60.9387,7.6174 31.9928,-15.2347 -74.6499,-56.3682 -102.0723,-89.8845 -82.2672,-95.9784 50.2744,-15.2347 59.4152,-35.0397 35.0397,-71.6029 -28.9459,-44.1806 -7.6173,-92.9315 48.751,-114.2601 19.805,-7.6173 36.5632,-27.4224 36.5632,-42.6571 0,-30.4693 -44.1806,-79.2203 -73.1264,-79.2203 -31.9929,0 -63.9857,-48.7509 -63.9857,-97.5019 0,-27.4224 -13.7112,-68.556 -30.4693,-89.8845 -19.8051,-25.899 -28.9459,-56.3683 -25.8989,-95.9784 l 3.0469,-59.4153 h -68.556 c -38.0867,-1.5234 -91.4081,-13.7112 -117.307,-27.4224 -53.3214,-27.4224 -100.5488,-102.0723 -92.9315,-144.7294 1.5235,-13.7112 -1.5235,-33.5162 -7.6173,-42.657 -4.5704,-9.1408 6.0938,-41.1336 24.3754,-68.5561 28.9459,-42.657 44.1806,-51.7978 94.455,-53.3213 33.5163,-1.5235 99.0254,-13.7112 146.2528,-27.4224 71.603,-21.3286 88.3611,-33.5163 109.6897,-77.6968 22.852,-47.2275 48.7509,-62.4622 92.9315,-54.8449 7.6173,1.5235 41.1336,-1.5234 71.6029,-6.0938 71.60298,-12.1878 83.79068,-42.6571 50.27448,-123.4009 -24.37548,-57.8917 -24.37548,-57.8917 16.7581,-91.408 35.0397,-27.4224 38.0867,-36.5632 24.3755,-65.5091 -19.8051,-36.5632 -44.18058,-39.6101 -99.02538,-15.2347 -44.1805,21.3286 -115.7835,6.0939 -115.7835,-22.852 0,-10.6642 13.7112,-38.0866 30.4693,-59.4152 25.899,-33.5163 39.6102,-38.0867 86.8377,-30.4693 l 54.8448,9.1408 -9.1408,-65.5091 c -6.0939,-48.751 0,-82.2672 21.32848,-124.9243 36.5632,-70.0795 28.9459,-88.3611 -38.08668,-88.3611 -36.5632,0 -65.509,13.7112 -106.6427,54.8448 -41.1336,39.6102 -67.0325,53.3214 -97.5019,50.2744 -22.852,-3.0469 -50.2744,0 -59.4152,6.0939 -12.1877,7.6173 -41.1336,-3.0469 -70.0795,-27.4224 -51.7978,-38.0867 -51.7978,-39.6102 -62.4621,-198.0507 -10.6643,-175.1988 -1.5235,-211.762 59.4152,-226.9967 22.852,-6.0938 38.0867,-19.805 38.0867,-36.5632 0,-16.7581 21.3285,-38.0866 53.3213,-53.3213 35.0398,-16.7582 53.3214,-36.5632 53.3214,-56.3683 0,-42.6571 42.6571,-124.9243 77.6968,-149.2998 39.6102,-27.4224 36.5632,-57.8917 -4.5704,-70.0795 -54.8448,-13.7112 -181.2926,-10.6642 -248.3251,7.6174 -108.1662,28.9458 -159.9641,33.5162 -182.8161,13.7112 -33.5163,-27.4224 -13.7112,-89.8846 50.2744,-155.3937 l 53.3214,-56.3683 -45.7041,-73.1264 c -25.8989,-39.6101 -51.7978,-88.3611 -57.8917,-108.1662 -16.7581,-59.4152 18.2816,-131.0181 92.9315,-187.3864 77.6968,-57.8918 140.159,-164.5345 191.9569,-330.5924 28.9458,-94.455 33.5162,-147.7763 28.9458,-313.8342 -1.5234,-44.1806 7.6174,-70.0795 35.0398,-99.0254 19.805,-21.3285 68.556,-89.8846 108.1661,-150.8233 42.6571,-68.556 94.455,-124.9243 131.01818,-147.7763 31.9928,-21.3285 59.4152,-48.7509 59.4152,-59.4152 0,-47.2275 97.5019,-85.3142 242.2313,-95.9784 89.8846,-6.0939 138.6355,-15.2347 138.6355,-27.4225 0,-9.1408 -19.805,-36.5632 -45.704,-60.9386 l -45.704,-44.1806 42.6571,-27.4224 c 22.852,-15.2347 60.9387,-27.4224 85.3141,-27.4224 30.4694,0 67.0326,-22.852 129.4947,-79.2203 91.4081,-82.2672 127.9713,-132.5416 143.206,-196.5273 6.0938,-25.8989 41.1336,-59.4152 105.1192,-102.0723 53.3213,-33.5162 134.0651,-99.0253 179.7691,-146.2528 45.704,-47.2275 120.3539,-102.0723 166.0579,-123.4008 44.1806,-22.8521 118.8305,-77.6969 163.011,-123.4009 67.0326,-67.0325 95.9785,-85.3141 161.4875,-100.5488 44.1806,-10.6643 85.3142,-27.4224 92.9315,-36.5632 6.0939,-10.6643 74.6499,-50.2744 152.3468,-86.8377 76.1733,-36.5632 152.3467,-80.7437 169.1048,-99.0253 15.2347,-18.2816 51.7979,-39.6102 79.2203,-48.751 56.3683,-19.805 67.0326,-56.3683 35.0398,-126.4477 -13.7113,-31.9929 -10.6643,-45.7041 18.2816,-85.3142 28.9458,-38.0867 45.704,-47.2275 92.9315,-47.2275 48.7509,0 68.556,-10.6642 108.1661,-53.3213 45.704,-50.2744 56.3683,-54.8448 124.9243,-51.7979 59.4152,3.0469 115.7835,-12.1877 251.3721,-65.5091 169.1049,-65.5091 175.1987,-70.0795 172.1518,-112.7365 -1.5235,-25.899 7.6173,-56.3683 25.8989,-74.6499 15.2347,-16.7582 30.4694,-54.8449 33.5163,-83.7907 4.5704,-51.7979 6.0939,-53.3214 94.455,-71.603 48.7509,-9.1408 109.6896,-31.9928 132.5416,-48.7509 35.0398,-25.899 50.2744,-28.9459 73.1264,-16.7582 44.1806,22.852 166.058,19.8051 179.7692,-6.0938 15.2346,-27.4225 131.0181,-36.5633 159.964,-13.7112 36.5632,30.4693 103.5958,4.5704 131.0182,-50.2745 12.1877,-28.9458 31.9928,-51.7978 44.1805,-51.7978 10.6643,0 25.899,-13.7113 35.0398,-30.4694 18.2816,-33.5163 60.9387,-39.6101 86.8376,-13.7112 13.7112,13.7112 38.0867,7.6173 100.5489,-21.3285 45.704,-21.3286 95.9784,-35.0398 112.7365,-31.9928 19.8051,6.0938 35.0398,-3.047 47.2275,-27.4225 28.9459,-51.7978 156.9171,-120.3539 191.9569,-100.5488 19.805,10.6643 38.0866,9.1408 62.4621,-3.0469 50.2744,-27.4224 103.5958,-9.1408 150.8233,53.3213 48.7509,62.4622 76.1733,67.0326 109.6896,15.2347 22.852,-33.5163 35.0397,-38.0867 120.3539,-38.0867 94.455,0 97.5019,-1.5234 146.2529,-62.4621 63.9856,-82.26734 202.6211,-172.15184 246.8016,-159.96414 22.852,6.0939 45.7041,-4.5704 73.1265,-30.4693 38.0866,-36.5632 48.7509,-38.0867 152.3467,-31.9928 62.4621,4.5704 134.0651,12.1877 158.4408,18.2816 36.563,7.6173 53.321,3.0469 74.65,-21.3286 27.422,-28.9458 39.61,-30.4693 217.855,-21.3285 120.354,6.0939 199.575,3.0469 222.427,-6.0939 18.281,-9.1408 86.837,-35.0397 153.87,-57.8917 65.509,-21.3286 184.339,-77.6969 265.083,-123.4009 80.744,-45.704 155.394,-82.2672 164.535,-82.2672 9.14,0 28.945,-13.7112 42.657,-28.9459 39.61,-44.1805 175.198,-60.9387 522.549,-65.5091 284.888,-3.0469 309.264,-1.5234 339.733,25.899 21.329,18.2816 50.274,27.4224 80.744,25.8989 63.985,-6.0938 178.245,77.6968 178.245,129.4947 0,38.0867 15.235,44.1806 41.134,18.2816 21.329,-21.3285 111.213,27.4224 111.213,62.4622 0,12.1877 62.462,85.3142 137.112,159.964 76.174,74.6499 137.112,141.6825 137.112,147.7764 0,27.4224 -31.993,4.5704 -164.534,-118.8305 -106.643,-99.0253 -140.159,-123.4008 -140.159,-100.5488 0,16.7581 4.57,33.5163 12.188,36.5632 24.375,10.6643 155.393,164.5345 155.393,182.8161 0,31.9928 -135.588,178.24564 -164.534,176.72214 -13.711,0 -44.181,4.5704 -67.033,10.6643 -77.697,21.3286 -68.556,-28.9459 24.376,-132.5416 47.227,-51.79794 85.314,-97.50194 85.314,-102.07234 0,-6.0939 -13.711,-18.2816 -28.946,-27.4224 -27.422,-16.7582 -47.227,-3.047 -187.386,123.40084 -131.019,121.8774 -159.965,141.6825 -184.34,127.9712 -18.282,-9.1408 -25.899,-25.8989 -21.329,-44.1805 6.094,-19.8051 0,-28.9459 -16.758,-28.9459 -42.657,0 -68.556,25.899 -60.938,57.8918 4.57,18.2816 -4.571,51.7979 -24.376,80.7437 -68.556,105.1193 -70.079,111.2131 -47.227,135.5886 19.805,18.2816 25.899,18.2816 44.18,-7.6173 19.805,-28.9459 22.852,-27.4224 77.697,13.7112 48.751,38.0867 54.845,48.7509 47.228,89.8845 -12.188,62.4622 -50.275,117.307 -79.221,117.307 -18.281,0 -22.852,9.1408 -15.234,35.0398 4.57,18.2816 9.14,45.704 9.14,62.4621 0,24.3755 7.618,25.899 67.033,18.2816 48.751,-7.6173 82.267,-4.5704 114.26,12.1878 73.126,38.0866 112.737,30.4693 140.159,-25.899 13.711,-30.4693 48.751,-60.9387 89.885,-82.2672 80.743,-42.6571 118.83,-44.1806 132.541,-7.6173 6.094,13.7112 22.852,42.657 38.087,62.4621 25.899,33.5163 25.899,39.6102 4.57,71.603 -12.187,19.805 -22.852,51.7978 -22.852,70.0795 0,19.805 -10.664,79.2202 -21.328,134.0651 -18.282,83.7906 -18.282,106.6426 0,147.7762 22.852,57.8918 30.469,59.4153 80.743,24.3755 35.04,-24.3755 35.04,-25.8989 7.618,-35.0397 -25.899,-9.1408 -24.376,-13.7112 16.758,-35.0398 88.361,-48.7509 172.152,-138.6355 207.191,-223.9496 18.282,-45.704 44.181,-92.9315 56.369,-102.0723 16.758,-13.7112 22.852,-42.6571 19.805,-102.0723 -3.047,-80.7438 -3.047,-83.7907 39.61,-88.3611 36.563,-4.5704 42.657,-12.1877 47.227,-54.8448 3.047,-28.9459 -1.523,-70.0795 -9.14,-94.455 -13.712,-36.5632 -10.665,-47.2275 19.805,-76.1733 25.899,-24.3755 38.086,-56.3683 44.18,-127.9713 15.235,-129.4947 18.282,-134.0651 105.12,-105.1192 57.891,18.2816 71.602,28.9459 62.462,48.7509 -6.094,13.7112 -12.188,41.1336 -13.712,62.4622 -1.523,22.852 -15.234,44.1805 -35.039,53.3213 -38.087,16.7582 -47.228,62.4622 -9.141,47.2275 45.704,-16.7581 77.697,16.7582 88.361,92.9315 4.57,39.6102 19.805,92.9315 31.993,117.307 25.899,48.7509 24.375,51.7979 -25.899,76.1733 -24.376,13.7112 -33.516,28.9459 -30.469,56.3683 3.046,19.8051 6.093,54.8448 6.093,77.6968 1.524,27.4225 7.618,38.0867 21.329,31.9929 15.235,-6.0939 21.328,9.1408 21.328,54.8448 0,59.4152 -3.046,62.4621 -45.704,62.4621 -57.891,0 -106.642,51.7979 -106.642,115.7835 0,70.0795 33.516,74.6499 108.166,13.7112 73.126,-62.4621 95.978,-67.0325 82.267,-18.2816 -13.711,42.6571 -80.744,132.5416 -100.549,132.5416 -7.617,0 -13.711,19.8051 -13.711,44.1806 0,33.5163 9.141,47.2275 44.181,62.4621 38.086,15.2347 54.844,13.7112 112.736,-12.1877 36.563,-16.7581 82.267,-51.7979 100.549,-77.6968 31.993,-44.1806 77.697,-63.9856 77.697,-33.5163 0,7.6173 13.7109,16.7581 30.4689,21.3285 38.087,9.1408 54.845,53.3214 35.04,85.3142 -7.617,12.1877 -41.134,38.0867 -74.6499,54.8448 -79.22,41.1336 -92.931,85.3142 -60.939,196.5273 21.329,73.1264 33.517,91.408 71.6029,105.1192 92.932,35.0398 31.993,67.0326 -117.3069,62.4622 -103.595,-4.5704 -108.166,-3.047 -132.541,38.0867 -50.275,85.3141 -16.758,184.3395 62.462,184.3395 54.845,0 74.65,15.2346 80.744,60.9387 4.57,31.9928 15.234,39.6101 71.603,45.704 60.9379,7.6173 68.5559,12.1877 86.8369,65.5091 27.423,79.2203 62.462,114.26 120.354,120.3539 56.368,6.0938 65.509,47.2275 12.188,54.8448 -18.282,3.0469 -42.657,18.2816 -53.321,35.0397 -10.665,16.7582 -51.798,54.8449 -92.932,83.7907 -76.1729,56.3683 -121.8769,59.4152 -175.1989,16.7582 -19.805,-16.7582 -185.863,-57.8918 -196.527,-48.751 -3.047,3.047 6.094,25.899 19.805,51.7979 19.805,39.6101 30.469,45.704 60.939,38.0867 27.422,-6.0939 53.321,1.5234 91.408,30.4693 28.946,22.852 71.603,39.6102 94.455,39.6102 74.6499,0 233.0899,18.2816 240.7079,28.9458 3.047,6.0939 -18.282,41.1337 -48.751,77.6969 -28.946,38.0866 -71.603,99.0253 -92.932,137.112 -51.7979,89.8846 -176.7219,233.0905 -223.9499,258.9894 -22.852,12.1878 -38.086,33.5163 -38.086,53.3214 0,18.2816 -12.188,44.1806 -25.899,56.3683 -27.423,22.852 -204.145,109.6896 -251.372,124.9243 -13.711,4.5704 -39.61,38.0867 -56.368,76.1734 -22.852,51.7979 -39.611,71.6029 -73.127,77.6968 -74.65,16.7581 -80.744,21.3285 -80.744,54.8448 0,53.3214 -57.891,118.8304 -124.924,138.6355 -38.087,10.6643 -94.455,50.2744 -147.776,100.5489 -47.228,45.704 -120.354,105.1192 -161.488,132.5416 -42.657,27.4224 -86.837,60.9387 -97.502,74.6499 -24.375,28.9459 -42.657,30.4693 -94.455,3.0469 -35.039,-18.2816 -41.133,-16.7581 -56.368,6.0939 -9.141,15.2347 -42.657,35.0397 -74.65,45.704 -31.993,9.1408 -121.877,48.751 -199.574,85.3142 -131.018,62.4621 -201.098,82.2672 -201.098,56.3683 0,-18.2817 50.275,-97.5019 112.737,-178.2457 65.509,-85.3142 67.032,-100.5488 16.758,-100.5488 -21.329,0 -38.087,7.6173 -38.087,15.2346 0,33.5163 -48.751,33.5163 -83.79,0 l -36.564,-33.5162 76.174,-99.0254 c 41.133,-53.3214 74.65,-103.5958 74.65,-111.2131 0,-6.0939 -22.852,-4.5704 -48.751,3.0469 -112.737,36.5632 -131.018,51.7979 -226.997,169.1049 -48.751,57.8917 -85.314,70.0795 -117.307,38.0867 -13.711,-13.7112 -3.047,-31.9929 47.228,-80.7438 54.844,-51.7979 71.603,-80.7438 91.408,-164.5345 28.946,-114.26 31.992,-175.1987 10.664,-208.715 -10.664,-16.7581 -15.235,0 -15.235,56.3683 0,65.5091 -9.141,89.8846 -50.274,144.7294 -27.423,36.5632 -54.845,76.1734 -59.415,89.8846 -6.094,13.7112 -41.134,36.5632 -79.221,48.7509 -70.079,24.3755 -70.079,24.3755 -70.079,-10.6643 0,-19.805 16.758,-59.4152 36.563,-88.361 19.805,-28.9459 39.61,-77.6969 45.704,-106.6427 6.094,-30.4694 22.852,-71.603 39.61,-92.9315 36.563,-45.7041 39.61,-135.5886 7.618,-163.011 -19.806,-16.7582 -22.852,-9.1408 -22.852,53.3213 0,57.8918 -9.141,83.7907 -47.228,131.0182 -39.61,50.2744 -56.368,59.4152 -102.072,59.4152 -31.993,0 -83.791,-15.2347 -117.307,-31.9928 -48.751,-25.8989 -65.509,-28.9459 -88.361,-13.7112 -33.517,21.3285 -56.369,0 -56.369,-53.3214 0,-18.2816 -19.805,-41.1336 -45.704,-56.3682 -41.133,-22.852 -45.704,-33.5163 -45.704,-103.5958 0,-54.8448 -6.094,-76.1734 -21.328,-76.1734 -10.664,0 -38.087,-13.7112 -60.939,-31.9928 -30.469,-24.3755 -39.61,-25.8989 -39.61,-9.1408 0,13.7112 9.141,27.4224 19.805,31.9928 12.188,4.5704 9.141,13.7112 -10.664,30.4694 -41.134,33.5163 -85.314,30.4693 -126.448,-9.1408 -36.563,-35.0398 -47.227,-16.7582 -19.805,35.0397 18.282,33.5163 89.885,39.6102 138.635,10.6643 25.899,-16.7581 33.517,-15.2347 53.322,10.6643 19.805,25.8989 18.281,31.9928 -16.758,65.509 -21.329,18.2817 -38.087,44.1806 -38.087,54.8449 0,10.6642 -16.758,27.4224 -38.087,36.5632 -42.657,19.8051 -53.321,57.8917 -12.187,42.6571 59.415,-22.852 161.487,9.1408 230.043,71.6029 60.939,57.8918 181.293,225.4732 205.668,289.4588 4.571,13.7112 27.423,33.5163 48.751,41.1336 21.329,7.6173 56.368,45.704 79.22,82.2672 33.517,54.8448 57.892,74.6499 118.831,97.5019 70.079,27.4224 76.173,33.5163 85.314,88.3611 4.57,31.9928 22.852,88.3611 41.134,123.4008 42.657,80.7438 42.657,120.354 1.523,143.206 -39.61,19.805 -99.025,-6.0939 -114.26,-50.2745 -10.664,-35.0397 -70.079,-50.2744 -109.69,-28.9458 -41.133,21.3285 -36.563,22.852 -102.072,-28.9459 -31.993,-24.3755 -74.65,-45.704 -94.455,-45.704 -22.852,0 -59.415,-21.3286 -91.408,-53.3214 -28.946,-28.9458 -59.415,-53.3213 -67.032,-53.3213 -7.618,0 -13.712,-6.0939 -13.712,-12.1878 0,-24.3754 -159.964,-185.863 -181.292,-185.863 -12.188,0 -41.134,-18.2816 -63.986,-39.6101 l -41.133,-39.6101 1.523,73.1264 3.047,74.6499 -88.361,-4.5704 c -50.275,-1.5235 -105.119,-13.7112 -126.448,-28.9459 -38.087,-24.3755 -39.61,-24.3755 -33.516,10.6643 6.094,51.7978 129.495,95.9784 226.996,83.7907 97.502,-12.1878 144.73,9.1408 153.871,67.0325 7.617,56.3683 -24.376,92.9315 -129.495,138.6355 -71.603,31.9928 -79.22,39.6102 -63.986,80.7438 7.618,18.2816 21.329,16.7581 91.408,-6.0939 44.181,-13.7112 97.502,-38.0867 118.831,-51.7979 54.845,-35.0397 123.401,-51.7979 152.346,-35.0397 15.235,7.6173 39.611,41.1336 57.892,74.6499 28.946,57.8917 28.946,63.9856 6.094,99.0253 -21.328,33.5163 -33.516,36.5633 -146.253,36.5633 -71.603,0 -143.206,-9.1409 -173.675,-21.3286 -67.033,-28.9459 -80.744,-7.6173 -38.087,51.7979 36.563,50.2744 68.556,70.0795 208.715,120.3539 l 94.455,35.0397 100.549,-85.3141 c 105.119,-88.3611 178.246,-115.7835 234.614,-86.8376 21.329,12.1877 31.993,31.9928 31.993,59.4152 0,35.0397 -9.141,45.704 -48.751,56.3683 -33.516,10.6642 -60.939,35.0397 -88.361,82.2672 -41.134,71.6029 -59.415,85.3141 -127.971,100.5488 -39.611,7.6174 -42.658,13.7112 -33.517,57.8918 19.805,105.1192 18.282,108.1661 -30.469,124.9243 -25.899,7.6173 -56.368,22.852 -68.556,31.9928 -12.188,9.1408 -47.228,22.852 -80.744,27.4224 -36.563,7.6173 -74.65,28.9459 -103.596,59.4152 -44.18,47.2275 -44.18,48.751 -67.032,18.2816 -12.188,-16.7581 -25.899,-47.2275 -30.47,-68.556 -15.234,-68.556 -19.805,-76.1734 -51.797,-76.1734 -18.282,0 -47.228,-7.6173 -63.986,-16.7581 -28.946,-15.2347 -30.469,-13.7112 -24.375,48.751 4.57,56.3682 0,70.0794 -45.705,114.26 -28.945,27.4224 -62.462,53.3213 -76.173,56.3683 -15.235,3.0469 -10.664,4.5704 9.141,1.5234 18.282,-3.0469 50.274,-10.6642 68.556,-15.2346 51.798,-12.1878 80.744,24.3754 92.931,118.8304 9.141,74.6499 6.094,83.7907 -31.992,115.7835 l -42.657,35.0398 53.321,45.704 c 42.657,36.5632 48.751,47.2275 30.469,59.4152 -12.187,7.6173 -28.946,7.6173 -38.086,1.5235 -7.618,-7.6174 -53.322,-16.7582 -99.026,-21.3286 -45.704,-4.5704 -99.025,-12.1877 -117.307,-18.2816 -60.938,-19.8051 -38.086,13.7112 36.563,53.3214 88.362,47.2274 117.307,103.5957 73.127,152.3467 -16.758,18.2816 -47.228,30.4693 -76.173,30.4693 -30.47,0 -53.322,9.1408 -59.416,22.852 -4.57,12.1878 -21.328,22.852 -38.086,22.852 -15.235,0 -67.033,31.9928 -114.26,71.603 -65.51,54.8448 -85.315,82.2672 -85.315,114.26 0,36.5632 -9.14,44.1806 -79.2199,63.9857 -191.9568,53.3213 -234.6139,56.3682 -335.1627,22.852 -77.6969,-27.4225 -114.2601,-31.9929 -216.3324,-22.852 -68.556,4.5704 -155.3936,19.805 -195.0038,35.0397 -59.4152,21.3285 -73.1264,31.9928 -73.1264,62.4621 0,44.1806 -45.704,124.9244 -71.603,124.9244 -9.1408,0 -24.3754,-9.1408 -30.4693,-19.8051 -6.0939,-12.1878 -24.3755,-25.899 -39.6101,-30.4694 -25.899,-9.1408 -27.4225,0 -25.899,100.5489 1.5235,137.112 -12.1877,210.2384 -42.6571,236.1374 -31.9928,24.3755 -41.1336,22.852 -70.0795,-6.0939 -15.2346,-13.7112 -24.3754,-50.2744 -24.3754,-88.3611 0,-54.8448 -6.0939,-68.556 -38.0867,-82.2672 -36.5632,-16.7581 -38.0867,-15.2347 -38.0867,27.4224 0,24.3755 -6.0939,48.7509 -15.2347,53.3214 -7.6173,4.5704 -15.2346,21.3285 -15.2346,38.0866 0,15.2347 -22.852,41.1336 -53.3214,59.4152 -53.3213,31.9929 -65.5091,53.3214 -38.0867,70.0795 24.3755,15.2347 18.2816,68.5561 -7.6173,68.5561 -12.1877,0 -44.1805,21.3285 -71.603,45.704 -48.7509,47.2275 -79.2202,56.3683 -95.9784,30.4693 -6.0939,-9.1408 -47.2275,10.6643 -99.0254,45.704 -48.7509,33.5163 -108.1661,60.9387 -129.4947,60.9387 -21.3285,0 -59.4152,15.2347 -83.7907,33.5163 -44.1805,31.9928 -45.704,31.9928 -76.1733,4.5704 -16.7581,-15.2347 -30.4694,-44.1805 -30.4694,-62.4622 0,-41.1336 -164.5344,-219.3792 -201.0976,-219.3792 -12.1878,0 -44.1806,-28.9459 -70.0795,-63.9856 -27.4224,-36.5633 -71.603,-92.9315 -102.0723,-126.4478 l -53.3214,-60.9387 39.6102,114.26 c 22.852,62.4622 51.7979,124.9243 65.5091,138.6355 53.3213,50.2745 67.0325,111.2131 41.1336,173.6753 -33.5163,79.2203 -30.4694,149.2998 6.0939,182.8161 19.805,18.2816 30.4693,47.2274 30.4693,86.8376 0,65.5091 27.4224,86.8376 80.7438,62.4621 45.704,-21.3285 71.6029,-9.1408 71.6029,35.0398 0,33.5163 -6.0939,36.5632 -65.5091,36.5632 -121.8773,0 -426.5708,-181.2926 -443.3289,-263.5598 -12.1878,-59.4152 -103.5958,-147.7763 -135.5886,-131.0182 -12.1877,7.6173 -59.4152,9.1408 -105.1192,1.5235 -71.603,-9.1408 -82.2673,-16.7582 -95.9785,-56.3683 -22.852,-67.0326 -36.5632,-83.7907 -68.556,-83.7907 -15.2346,0 -30.4693,-7.6173 -33.5163,-16.7581 -4.5704,-13.7113 -28.9458,-10.6643 -86.8376,9.1408 -44.1805,13.7112 -92.9315,22.852 -109.6896,18.2816 -18.2816,-4.5704 -28.9459,0 -28.9459,13.7112 0,25.8989 1.5235,25.8989 -59.4152,4.5704 -25.899,-9.1408 -47.2275,-22.852 -47.2275,-28.9459 0,-18.2816 -105.1192,-76.1734 -138.6355,-76.1734 -35.0398,0 -150.8233,-70.0795 -150.8233,-91.408 0,-9.1408 -21.3285,-15.2347 -45.704,-15.2347 -25.8989,0 -68.556,-10.6642 -92.9315,-24.3754 -42.657,-21.3286 -48.7509,-21.3286 -76.1733,3.0469 -15.2347,13.7112 -28.9459,42.6571 -28.9459,62.4621 0,39.6102 99.0254,156.9172 131.0182,156.9172 30.4693,0 86.8376,94.4549 63.9856,108.1661 -12.1877,7.6174 1.5235,31.9928 38.0867,73.1265 60.9387,68.556 74.6499,135.5885 33.5163,169.1048 -30.4694,24.3755 -24.3755,74.6499 10.6642,97.5019 22.852,13.7112 35.0398,7.6173 71.603,-33.5163 56.3683,-60.9387 94.4549,-62.4621 129.4947,-1.5234 25.8989,44.1805 25.8989,47.2274 1.5235,74.6499 -24.3755,27.4224 -24.3755,33.5162 7.6173,100.5488 l 35.0397,71.6029 -36.5632,67.0326 c -33.5163,62.4621 -35.0397,68.556 -9.1408,82.2672 63.9856,36.5632 -16.7581,85.3142 -95.9784,56.3683 -38.0867,-12.1877 -51.7979,-10.6643 -74.6499,9.1408 -30.4693,27.4224 -67.0326,30.4694 -106.6427,9.1408 -21.3285,-10.6643 -35.0397,-6.0939 -56.3683,16.7582 -16.7581,18.2816 -47.2275,41.1336 -68.556,53.3213 -33.5163,16.7581 -44.1806,16.7581 -73.1264,-3.0469 -16.7582,-12.1878 -31.9928,-31.9928 -31.9928,-42.6571 0,-12.1877 -15.2347,-24.3755 -33.5163,-30.4694 -27.4224,-7.6173 -47.2275,3.047 -83.7907,44.1806 -27.4224,28.9459 -50.2744,67.0325 -50.2744,83.7907 0,48.7509 -42.6571,54.8448 -88.3611,12.1877 -28.9459,-27.4224 -89.8846,-51.7979 -199.5742,-79.2203 -86.8377,-21.3285 -179.7692,-53.3213 -205.6681,-68.556 -28.9459,-18.2816 -89.8846,-33.5163 -161.4875,-39.6101 -62.4622,-6.0939 -140.159,-19.8051 -172.1518,-31.9928 -100.5488,-38.0867 -156.9171,-28.9459 -213.2854,35.0397 -68.556,77.6968 -112.7366,155.3936 -124.9243,219.3793 -9.1408,51.7979 -6.0939,57.8917 44.1805,88.3611 28.9459,18.2816 57.8918,47.2274 62.4622,62.4621 6.0939,19.8051 21.3285,28.9459 42.6571,27.4224 41.1336,-3.0469 132.5416,48.751 132.5416,74.6499 0,12.1878 19.8051,24.3755 44.1806,28.9459 28.9458,6.0939 59.4152,30.4693 85.3141,65.5091 21.3286,31.9928 65.5091,73.1264 99.0254,91.408 51.7979,28.9459 60.9387,41.1336 60.9387,85.3142 0,67.0325 38.0867,91.408 159.964,105.1192 59.4152,6.0939 109.6897,22.852 146.2529,47.2275 28.9459,21.3285 63.9856,38.0867 77.6968,38.0867 24.3755,0 76.1734,73.1264 95.9784,135.5885 7.6174,25.899 1.5235,35.0398 -33.5162,48.751 -22.8521,9.1408 -54.8449,27.4224 -70.0795,41.1336 -28.9459,25.8989 -132.5417,237.6609 -132.5417,271.1772 0,10.6642 -13.7112,24.3754 -30.4693,28.9458 -16.7582,6.0939 -50.2744,25.899 -73.1264,45.704 -33.5163,27.4225 -48.751,31.9929 -60.9387,19.8051 z M 7197.0541,3890.9789 c -18.282,-30.4693 -21.329,-21.3285 -7.618,18.2816 6.094,13.7112 13.712,21.3286 16.759,16.7582 4.57,-3.047 0,-19.8051 -9.141,-35.0398 z"
       id="path12"
       style="stroke-width:1.52347" />
  </g>
</svg>
