<?xml version="1.0" encoding="UTF-8" standalone="no"?>
<svg
   xmlns:dc="http://purl.org/dc/elements/1.1/"
   xmlns:cc="http://creativecommons.org/ns#"
   xmlns:rdf="http://www.w3.org/1999/02/22-rdf-syntax-ns#"
   xmlns:svg="http://www.w3.org/2000/svg"
   xmlns="http://www.w3.org/2000/svg"
   xmlns:sodipodi="http://sodipodi.sourceforge.net/DTD/sodipodi-0.dtd"
   xmlns:inkscape="http://www.inkscape.org/namespaces/inkscape"
   version="1.1"
   width="1360"
   height="1360"
   viewBox="0 0 1360 1360"
   id="svg830"
   sodipodi:docname="Melville_Island.svg"
   inkscape:version="1.0.1 (3bc2e813f5, 2020-09-07)">
  <metadata
     id="metadata836">
    <rdf:RDF>
      <cc:Work
         rdf:about="">
        <dc:format>image/svg+xml</dc:format>
        <dc:type
           rdf:resource="http://purl.org/dc/dcmitype/StillImage" />
        <dc:title></dc:title>
      </cc:Work>
    </rdf:RDF>
  </metadata>
  <defs
     id="defs834" />
  <sodipodi:namedview
     pagecolor="#ffffff"
     bordercolor="#666666"
     borderopacity="1"
     objecttolerance="10"
     gridtolerance="10"
     guidetolerance="10"
     inkscape:pageopacity="0"
     inkscape:pageshadow="2"
     inkscape:window-width="1920"
     inkscape:window-height="974"
     id="namedview832"
     showgrid="false"
     inkscape:zoom="0.30611178"
     inkscape:cx="-22.397463"
     inkscape:cy="604.51586"
     inkscape:window-x="-11"
     inkscape:window-y="-11"
     inkscape:window-maximized="1"
     inkscape:current-layer="g826"
     inkscape:document-rotation="0" />
  <g
     id="g828"
     style="fill:#000000;fill-opacity:1">
    <g
       stroke="#000000"
       stroke-width="0.98"
       fill="#FFFFFF"
       id="g826"
       style="fill:#000000;fill-opacity:1">
      <path
         d="m 1351.5603,683.6897 -0.6371,-8.44034 -1.911,-8.12199 -2.5481,-6.21093 -2.2294,-3.02584 4.459,-5.73301 -3.822,-16.40324 -0.637,-8.28108 2.2294,-9.07752 -2.7072,-16.24383 -4.9369,-14.65143 -10.3515,-21.02146 -16.7216,-23.7288 -31.6915,-16.24382 -31.6914,-16.08457 h -29.1435 l -2.7073,1.43329 -2.5481,3.50345 -4.9369,12.42187 -2.0703,3.66286 -13.3772,14.96978 -3.6629,7.48497 -1.7518,10.98842 0.9556,9.07752 1.5925,8.12199 -0.3185,7.48481 -2.2296,12.26261 0.6371,9.07736 2.548,5.57392 21.6585,5.09615 5.4147,6.05168 -15.2883,2.22957 -7.0072,4.61822 -7.0072,8.59976 2.3888,2.70733 -2.0703,5.89242 -1.1148,6.68854 -0.7963,7.16647 -1.274,7.48497 h 0.637 l -0.1593,6.52928 1.1148,3.1851 1.4333,2.07031 0.637,3.66286 -0.637,6.37018 -1.7518,-0.79627 -1.911,-4.14062 -1.5926,-4.45913 -1.7518,-7.00721 -1.7516,-10.66991 -0.637,-10.98857 1.911,-7.64407 -7.9627,-6.6887 -1.1148,-2.70733 0.9555,-4.9369 2.5481,-2.86658 2.8666,-1.27404 h 1.911 l -4.2998,-4.93674 -4.4592,-1.11478 -4.2999,-3.34435 -3.3443,-11.9441 0.637,-2.70717 0.3185,-6.84796 0.4778,-3.02584 1.274,-3.34435 3.9814,-5.09615 -3.3444,-4.77764 -8.1219,0.31851 -7.1663,-7.64407 -8.9183,1.27404 -7.6442,-2.54807 -38.5394,14.65127 -3.6628,3.66286 -1.9111,3.82211 -5.4145,15.60681 -4.7776,10.51081 -6.211,8.9181 -6.2109,4.45914 -5.2552,-2.86659 0.7962,-3.02584 -2.0701,-4.93674 -0.9555,-0.95552 5.2552,-16.5625 3.1851,-6.84779 3.6629,-1.27404 -0.3186,-1.59254 v -1.27404 l -0.1592,-1.43329 -0.3185,-1.75181 5.0961,-11.30692 11.944,-0.63702 5.4146,-6.37019 -1.5925,-2.22957 -3.0258,-1.43329 -1.4333,-2.54807 9.7145,-13.85501 3.0258,-1.7518 3.1851,-3.34435 0.7963,-7.48497 -1.1148,-7.32556 -4.2999,-4.45913 -1.1147,-2.54807 -1.9111,-5.73317 -1.4333,-2.38883 -13.855,-12.1032 -3.5036,-0.95552 h -16.4031 l -13.3774,9.07736 -21.0214,-2.86659 -15.7661,6.21094 1.7518,-6.8478 3.822,-7.00721 3.9813,-5.57391 3.1851,-2.22957 -2.0703,-3.66286 -4.2999,-0.47776 -1.9109,-2.38882 2.0702,-4.14046 2.8666,-3.98137 1.7518,-5.25541 -1.4333,-8.12199 3.5036,-10.98842 4.4591,-5.73317 23.7288,-10.82916 3.5036,-7.00721 -13.8551,-6.37018 -1.9111,-6.52945 2.2296,-6.21077 7.9627,3.50344 2.5481,-6.52928 h -1.4333 v -3.02584 h 5.2554 v -3.1851 l -15.7662,-22.2955 1.274,-3.18509 1.2741,-2.07031 1.274,-0.95553 1.4333,-0.15926 -1.5926,-2.86658 -3.3443,0.31851 -1.7517,-0.63702 -0.7962,-1.59255 -1.9111,-5.73301 -6.0517,-11.46634 -2.7073,-2.70733 -14.0142,-2.22957 -3.3444,-3.18493 -3.0258,-0.95553 -3.3444,2.22941 -3.1851,0.31851 -2.86664,-6.05152 3.02594,-9.23678 7.6442,-2.86658 3.6629,-4.45913 -2.7074,-4.93674 -6.5294,-1.11478 -2.3888,-4.9369 0.4777,-4.77764 2.2296,-4.61839 4.2999,-5.4145 -2.3888,-3.02584 -6.0517,2.54808 -2.70744,-2.38883 2.38894,-4.93689 6.3702,-4.14062 1.5925,-3.82212 -0.4778,-6.52944 -2.548,-3.98121 -5.0962,-2.22957 -2.22964,-2.07031 -3.6628,-8.75901 -2.7072,-2.07031 -0.4778,-2.86658 -4.4591,-16.56234 5.8924,-4.45913 3.185,-0.31851 5.57394,4.9369 2.3888,-1.43329 3.9814,-8.5996 7.8035,-10.51081 2.7071,-8.12199 -0.7962,-13.855 -3.8222,-11.6256 -5.0961,-4.77748 -14.96984,0.15925 -2.2296,-2.07031 0.3186,-6.05168 1.911,-7.64422 2.2294,-7.16631 -2.0701,-4.93689 -6.211,-8.28125 -2.548,-7.96257 -1.2741,-2.07032 -1.7518,-0.47776 -1.911,1.59255 -1.5926,3.98121 -0.7963,6.52944 -0.637,2.07031 -8.7588,8.75901 -3.8221,-0.63702 -7.6443,-5.41466 -19.4289,3.34435 h 0.7963 l -2.5481,0.95553 -5.8924,8.9181 -5.4147,3.02584 -2.3886,2.86659 -2.5481,7.48497 0.3185,1.43329 0.7963,3.50361 0.3185,1.59254 -11.4664,9.39603 -5.8924,8.12199 -1.274,11.62544 -3.0257,4.29988 -2.0703,6.84795 -0.7963,9.39587 0.637,11.78485 h -3.0258 l -8.9183,6.52944 0.3185,2.86643 0.7963,7.32571 0.3185,2.86659 -14.1735,-3.5036 0.7963,5.57391 0.4777,2.22957 0.9556,2.22956 -2.0703,6.05152 -2.5481,4.77764 -2.7073,3.50361 -2.3889,1.7518 v 3.34435 l 12.5812,-0.95553 3.0256,3.98137 -7.1663,12.58096 -3.9813,3.98137 -5.8925,-3.02584 -2.0703,1.11478 -3.9813,4.45914 h -9.3959 -0.4778 l -4.6184,4.45913 -6.8479,10.66991 -22.7733,11.62559 -4.6184,-0.95553 h 0.7963 l -0.7963,-0.31851 -2.2294,0.31851 0.3185,5.09615 -0.1592,4.45898 -0.637,3.82211 -0.9556,2.54808 1.2741,4.29987 1.7516,3.66286 0.637,3.66286 -1.4333,3.82211 0.7963,4.45898 1.4333,2.22956 1.5926,1.43329 1.4333,2.07032 -1.5926,5.41466 -3.5036,6.84795 -0.9555,6.68854 25.7989,11.14783 15.7662,22.93252 8.2811,12.26245 1.9111,1.27404 1.7518,-0.31851 1.1148,-3.5036 -0.3185,-0.79628 -1.5926,-8.28108 -0.3185,-3.02584 3.8221,-3.82211 3.9814,-0.47777 14.9698,7.48497 1.274,2.70733 -0.4778,3.82212 -1.274,1.91089 -1.5925,0.63702 -1.1148,-0.15925 2.7073,4.61839 17.1995,2.54807 1.7518,2.22957 0.637,2.86658 0.1593,2.86659 -0.1593,2.22956 0.1593,1.4333 3.1849,5.57375 7.485,4.29988 5.8924,7.48497 2.5481,1.91106 2.3888,2.86658 1.5926,5.89227 -2.0704,2.38882 -6.0516,4.14062 -0.1593,2.70733 v 1.43329 l -0.637,5.09616 3.1851,0.31851 6.37,4.93689 3.1851,0.95553 -2.7073,6.84795 -11.1477,-0.95553 -4.1406,3.34435 1.274,1.11479 3.9814,4.77764 -4.7776,7.80332 -11.4662,4.29988 -5.4147,4.61838 -7.1664,12.10336 -3.5037,4.14047 -31.8506,12.74037 -2.8666,3.50361 -5.5739,6.68854 5.5739,8.12199 5.574,8.12199 6.37,3.66286 5.8924,-8.4405 3.8221,3.34435 1.7518,-0.31851 4.6184,-6.6887 2.0702,-1.27404 2.8665,0.79628 2.8666,2.07031 1.9111,2.54807 -2.7073,4.45913 -2.5481,5.25541 2.0703,2.86643 h 4.2999 l 1.911,3.34434 -1.7518,3.66286 -3.8221,3.66286 -1.1148,4.77764 31.373,2.86659 -4.9368,3.02568 h -1.5926 l 6.0517,6.6887 33.4433,12.89963 4.459,4.93674 -0.1593,1.91105 -0.3185,4.9369 -0.1592,1.91106 6.2109,-0.79628 1.9111,0.79628 1.274,1.59254 2.5481,4.77765 10.9884,1.91105 3.1851,4.14062 -2.3888,3.34419 -2.7074,0.79628 -5.4145,-1.11478 -0.7962,0.63701 -0.3185,0.63702 -0.3186,1.4333 3.1851,5.2554 7.9626,19.11041 -1.1148,4.61839 -3.8219,5.09615 -1.7518,5.2554 0.9555,3.98121 0.9555,3.02584 1.2741,1.7518 1.274,0.15926 v 3.34435 l -10.0329,-3.66286 -5.0961,0.47776 -4.2999,6.21094 2.5481,2.70733 6.5294,2.22956 2.5481,5.41466 2.8666,15.12907 0.4777,1.4333 -1.4333,5.8924 -3.0258,0.4778 -9.5553,-9.23682 -53.5093,-10.03305 -53.3498,-10.03289 -7.1665,-1.27403 -5.2554,3.18509 -4.4591,-2.86658 -6.6885,4.77764 -21.8178,-1.7518 -0.637,-1.75181 v -3.02584 l -0.3185,-2.22956 -0.4778,-1.59255 -8.9182,-6.05168 -37.42458,7.00721 -17.19951,11.30708 -21.33997,2.70718 -2.22957,1.27403 -2.38866,0.31851 -2.54808,-2.38882 -0.47776,-1.43329 -0.15925,-1.59255 v -1.59254 l -0.15926,-1.11479 -1.7518,-2.22956 -2.70733,-0.95553 1.43329,-5.41466 0.79627,-1.91106 0.79628,-1.7518 v -2.70733 l -4.45913,-0.15926 -1.75181,-2.07031 -3.66285,-12.58096 -1.27404,-2.70733 -1.59255,-0.63702 3.34435,-12.1032 0.47776,-4.29988 -0.47776,-3.82211 -1.11478,-3.34435 -1.27404,-2.54808 -0.95553,-1.27403 1.43329,-7.48482 2.38882,-4.45913 1.59255,-4.45913 -0.95553,-7.80348 -1.91105,-2.86659 -4.9369,1.4333 -1.75164,-2.86643 -0.31851,-3.66286 0.47776,-3.18509 0.79628,-2.38882 0.95552,-1.27404 -3.02568,-10.03305 -14.96994,-11.46618 2.38882,-2.07031 8.91826,2.07031 1.75181,-1.91106 2.22956,-4.29987 0.95553,-4.14063 -1.27404,-1.91105 -44.59116,5.89242 -2.22941,1.43329 -4.45913,6.6887 -2.22956,1.43329 -9.39603,-6.37018 1.43329,-2.38883 3.02584,-1.7518 1.59255,-1.59254 -1.59255,-0.15926 -2.86659,-2.54807 -1.59254,-0.63702 -1.91106,1.11478 -1.43329,2.54808 -1.27404,3.02583 -1.43329,2.38883 -7.64423,5.89242 -3.98137,0.31851 -3.34435,-3.02584 2.07031,-3.66286 7.64423,-5.2554 -2.70733,-2.38883 -2.54807,-3.82195 12.4217,-12.26261 31.85079,-11.14767 5.89242,-7.32572 -2.07031,-9.07752 -2.54807,-4.61839 -9.39603,-2.70717 -28.66553,-26.59538 -26.91389,-9.71454 -5.89243,-7.64422 -1.43329,-4.29972 -0.79627,-4.45913 -0.95553,-4.45913 -7.48497,-13.69575 -1.11479,-5.09615 2.86643,-0.79628 -0.31851,-9.87379 2.38882,-4.9369 3.50361,-3.02568 2.54807,-4.14062 h -0.79627 l -3.50361,-4.45913 -8.28108,-3.34435 -8.59976,-7.96274 -14.81053,0.15926 v -3.34419 l -0.15925,-4.29988 -8.12199,1.11478 -2.07031,-4.29987 -2.07032,-9.8738 -4.61838,-6.37003 -9.07736,-4.29987 -17.99579,9.23661 -2.38866,-0.95553 -4.29988,-4.14046 -14.65143,-0.79627 -5.09599,3.9812 -4.61839,7.48498 -2.70733,1.43329 -5.57391,-0.47776 -5.41466,2.07031 -15.92532,13.53649 -17.51786,-0.63702 -9.71454,7.32572 -3.5036,-3.98137 -3.34419,-5.89227 -4.14062,-3.02584 3.18509,-6.52944 3.6627,-4.9369 1.7518,-5.57391 -2.54807,-8.12183 -8.28109,-9.71454 -5.2554,-9.39587 h 0.79627 l -0.79627,-0.79627 -0.47777,-0.79628 -0.31851,-1.7518 2.38882,-7.00721 0.79628,-1.91105 -4.45914,0.47776 -1.91105,-1.7518 -1.27404,-5.41466 4.29988,0.47776 2.07031,-0.95553 1.91106,-3.02568 -1.4333,-2.86658 2.86659,-9.39603 -2.70733,-18.95115 -1.7518,-7.00721 -3.02584,-6.21093 -5.09615,-5.57376 -26.75448,-14.01442 -34.08035,3.98137 1.7518,-3.66286 3.66286,-4.77764 1.43329,-4.61823 h -18.79205 l -3.50345,1.59255 -8.4405,14.33277 -4.29988,3.34435 -53.66852,10.6699 -39.65411,42.99862 -4.14062,6.84779 1.7518,3.02584 3.66286,4.61839 1.27404,4.77764 -6.37019,10.51065 -1.7518,5.73317 0.95553,2.54808 2.70733,10.03289 1.7518,2.86658 10.67006,7.32572 27.2324,0.15925 h 27.3915 l 26.11761,13.05873 7.00721,14.33293 h 10.67007 l 9.07736,4.29987 9.71453,-3.02584 4.29988,4.77765 -4.77764,4.45897 -12.74038,2.22956 -13.37724,-6.68853 -9.87379,2.38882 -0.31851,-2.38882 -12.89947,-1.4333 -31.85079,-9.55528 -23.88805,3.5036 -18.63264,-2.07031 -11.46618,-7.80348 -23.56954,-0.79627 -39.81352,19.90684 -1.59255,4.29972 -1.43329,5.09615 -1.7518,4.77764 -2.22941,1.91106 -2.22956,0.47776 -2.07032,1.59255 -1.7518,5.2554 v 3.50345 l -4.61838,11.78485 -1.91106,7.96273 -0.15926,3.34419 0.63702,4.45913 4.77764,9.23678 12.74022,-6.84795 4.9369,3.82211 -2.70733,5.09615 -0.95553,1.11478 1.43329,5.25525 4.45914,3.98137 1.59254,6.37019 -2.54807,2.86658 -7.96274,-2.86658 -6.37003,0.95552 -10.67006,6.84796 -1.59255,3.18509 -0.95553,7.48481 0.31851,7.32572 1.11478,5.89243 1.7518,3.82195 50.64269,13.3774 2.38882,-2.86659 0.31851,2.86659 1.7518,0.63702 48.25386,-12.42187 7.00705,4.14062 45.86504,-5.41466 45.86504,-5.4145 2.54808,1.11478 2.38882,2.70733 0.79627,4.45898 -2.38882,5.89242 -5.25524,5.25541 -38.38023,7.48497 -38.38007,7.32556 -16.24398,-8.91811 -1.75165,-2.07031 -2.07031,-1.27404 -1.59255,4.14062 -1.27403,5.41451 -1.4333,2.70733 -39.49485,6.68869 -39.49501,6.84796 -39.494854,6.68854 -8.75901,12.26261 -28.66569,56.53495 -2.22941,10.82932 0.95553,11.46618 4.45897,3.18509 39.495014,-0.31851 39.49486,-0.3185 39.33559,-0.31851 1.59255,-3.50345 12.89963,-11.30708 22.77327,-6.84796 8.44034,-8.28108 35.51364,-6.52945 35.03572,-21.97699 5.41466,5.25541 -2.38882,2.22956 -9.55512,2.22941 -15.60696,17.35876 -2.07031,4.14063 -1.11479,5.57375 -0.15925,3.1851 2.38882,7.96273 -35.67274,6.05168 -49.36865,45.06877 -11.78485,3.3443 -24.0473,-5.2554 -8.59959,5.0962 -41.0874,-0.637 -41.246824,-0.7963 -11.14767,9.8736 -27.39165,43.4763 -2.38882,9.2367 1.91105,9.5553 -6.68869,0.7963 -3.50361,3.0258 -2.5479095,5.4147 1.7517995,4.7776 0.63702,0.9556 -0.79628,2.7073 -0.95553,2.2296 -2.0703095,3.6628 1.9110595,6.5293 2.70717,3.3443 5.89243,3.9814 8.91826,11.3069 53.98703,21.977 h 3.02568 l 2.54808,-4.4589 1.59254,-0.7963 6.21094,8.2811 13.855004,8.5997 8.59976,-0.1592 2.22956,-1.9111 6.05168,-15.4475 1.91106,-3.1851 5.4145,-6.211 2.70733,-1.4333 5.89242,1.7518 22.93252,-11.4661 1.4333,1.4333 -0.15926,3.3441 -0.47776,4.2999 0.47776,4.2999 -0.47776,7.485 -3.50361,8.5996 -6.21093,11.4663 3.34435,5.4147 4.14062,0.9555 20.5437,-11.4663 4.14062,-0.4778 -4.29987,12.7404 -6.37019,6.2107 -12.42171,7.0073 v 3.0258 l 9.71454,8.5998 15.44755,5.8922 10.6699,11.9441 23.25103,11.6255 6.05168,-0.7963 3.50361,-3.3444 4.77764,-6.5293 3.66286,-8.5997 0.79627,-10.1921 h 0.63702 l -2.22957,-9.0776 -3.34435,-10.033 -1.91105,-8.4404 1.59254,-4.4591 -1.59254,-2.5481 -3.50361,-1.1147 -1.59254,-1.9111 -1.75181,-5.0962 0.15926,-3.3443 1.43329,-1.274 14.17367,11.1476 8.28109,10.6701 4.61839,-1.274 14.49202,-19.7476 2.07031,-7.0071 -0.95553,-7.4849 3.34435,4.2998 3.18509,9.5553 2.22957,10.6699 0.31851,7.485 0.79627,3.8221 -1.11478,2.2294 -1.91106,2.2296 -1.59255,3.1851 -1.11478,5.4146 v 3.5036 l 1.11478,8.5998 0.95553,9.7144 1.11479,6.2109 1.7518,4.1406 2.70733,3.822 10.66991,7.0072 10.82932,-1.5926 28.34718,-20.5437 28.18776,-20.5437 4.14063,-10.033 2.38882,-7.0071 5.57391,-12.7403 2.22957,-7.9626 0.79627,-10.8293 -2.22956,-5.0962 -3.50361,-3.8221 -3.34435,-6.5293 -2.54807,-13.2181 -1.91106,-3.9814 -2.38866,-2.3886 -10.82932,-4.1407 -3.82211,2.3888 -2.07032,-0.1592 -1.59254,-2.0703 0.15925,-4.4591 2.70733,-6.211 4.45913,-6.0517 4.14063,-2.2294 1.7518,5.733 14.49202,8.122 1.27404,2.2296 v 1.5925 l -0.15926,5.4147 0.15926,1.5926 4.45913,8.281 6.21093,5.8925 6.21078,0.637 4.45913,-7.3257 3.1851,-9.7144 0.95552,-3.6629 2.86659,-17.6771 3.66286,-13.6959 1.27403,-8.759 -0.79627,-8.4403 -1.7518,-4.7777 -1.27404,-2.2296 -0.79627,-2.8665 -0.31851,-6.6886 0.63702,-4.2999 0.79627,-4.9368 0.15926,-3.8222 -1.59255,-1.7518 2.22956,-7.3257 3.82212,3.9814 7.64407,16.0847 4.93689,17.6771 2.38882,5.4147 2.70733,0.7963 38.85784,-19.7476 4.93689,-7.9626 -0.31851,6.8478 1.59255,1.4333 4.61839,-2.3887 8.12183,3.185 2.38882,-3.185 v 3.185 l -5.73301,0.1592 -16.881,12.5811 -7.80332,9.5552 -8.4405,2.548 -11.46634,8.5998 -3.18494,6.6887 -2.54807,9.7144 -4.29988,22.2955 -7.00721,28.3472 3.66286,6.3701 h 4.45913 l 16.24382,-12.1033 3.98137,-0.7963 3.82211,3.3444 -29.3027,17.5178 -1.75181,2.3888 -1.11478,2.5481 -1.59255,6.6887 -0.31851,20.3845 7.64423,7.0072 24.20656,-0.9556 0.95553,-1.5925 0.47776,-1.9111 0.79627,-0.9555 2.54808,1.4333 19.11041,-7.485 10.6699,1.9111 15.60697,-3.0259 2.86658,-2.8665 2.07031,-7.0071 2.54792,-16.5625 1.91106,3.6629 3.98136,14.0144 3.1851,4.6184 3.5036,1.1148 18.15488,-6.3701 13.855,-13.5366 3.34435,-0.3185 -0.15925,-4.6183 0.79627,-8.2812 -0.31851,-3.1851 -1.11478,-3.1851 -3.82195,-7.4848 1.91089,-10.6701 0.95553,-8.2812 1.7518,-5.4145 3.66286,-1.9111 v -3.0258 l -0.63702,-1.1148 -0.79627,-1.5925 2.70733,1.7518 3.66286,4.7776 2.70733,6.2108 0.31851,6.2109 -1.27404,2.2296 -1.59255,1.911 -1.43329,2.7074 -0.63702,4.9369 0.63702,3.8219 1.43329,3.0259 3.1851,3.6628 h 15.28829 l 1.43329,-1.5925 0.47777,-4.4592 -0.63702,-3.1849 -1.27404,-1.4333 -1.27404,-0.4778 -0.47776,-0.7962 0.47776,-4.9369 2.07031,-4.7777 2.38883,-3.6628 1.7518,-1.4333 1.59254,0.9555 5.89243,7.8035 -1.43329,2.0703 -1.59255,1.1148 h -3.02584 v 2.8666 h 8.12199 l 2.38866,2.7073 -1.59255,4.6182 -5.57391,8.759 -7.48497,3.8221 -2.54808,2.7074 -2.22956,3.6627 6.05168,9.2368 7.80348,2.8665 14.49202,-2.7073 16.88084,-9.396 14.81069,5.7331 2.86658,-1.4332 12.89948,-17.6772 0.79627,-1.911 0.95553,-1.5926 1.11478,-0.637 2.22957,2.5481 3.82211,11.3071 2.22957,3.6627 h 12.74021 l -1.59254,-2.7072 -5.25541,-3.0258 2.70733,-3.3444 2.86659,0.1593 5.73317,3.1851 3.5036,-0.7963 6.52929,-6.2109 6.21093,-3.1851 6.52944,-9.5552 2.54808,-5.2554 1.43329,-4.6184 2.70733,-12.1032 0.79627,-2.3888 15.44755,-3.0258 16.56234,9.3959 2.86658,3.6628 0.63702,4.6184 -2.07031,3.9814 -5.73317,-0.637 -2.54808,2.7073 0.63702,2.8666 -1.59255,3.8219 -3.5036,2.7074 -1.59255,2.2295 4.45914,5.8924 -7.96274,10.3516 -3.5036,2.2294 -2.07032,3.9814 -1.27403,0.9555 -3.02584,0.3185 -7.48482,5.4147 -0.15925,0.9555 v 1.9111 l -0.15926,1.911 -0.47776,1.2741 -2.70733,0.3185 -5.25541,-3.5036 -2.70733,3.1851 h 2.07032 l 2.38882,1.4332 2.22956,2.7074 1.59255,4.6182 -12.42187,10.3516 -4.29988,1.274 -7.32555,-4.7776 -3.82212,-0.4778 -3.5036,5.2554 2.22956,5.4147 5.57392,-4.7777 2.70733,5.0962 -2.38882,3.0256 -5.89243,11.4664 -3.34434,2.5481 -9.39587,1.1147 -11.46634,7.9628 -14.33277,-5.0962 -16.881,-4.6184 -22.93252,3.6629 h -30.25808 l -16.24398,8.4403 -10.98842,-2.3886 -17.51786,7.644 -5.89242,5.7332 -10.67007,4.7777 -6.05152,10.51065 -1.43329,6.6887 -0.79628,2.0703 -2.38882,2.2296 -8.28124,0.637 -1.11478,-0.3185 -1.4333,0.4778 -2.54807,2.548 7.64422,2.5481 7.32572,5.8923 -2.70733,7.0072 -4.29988,-0.9555 -8.59975,-6.0517 -9.23662,2.3888 -8.12199,7.3257 -14.33276,-1.4333 -13.69591,3.5036 -8.44034,8.4404 -15.60696,2.7073 -28.66553,20.3844 -8.28125,10.9886 -9.23677,7.3257 -3.02584,4.7775 -1.91106,7.9628 -0.15925,6.2109 1.11478,4.4591 4.14062,7.6441 21.81774,26.1176 3.02584,0.637 -0.47777,0.3185 -0.3185,0.1593 -0.15926,0.637 0.15926,1.9111 44.43174,39.3356 7.96274,10.8293 26.27687,10.3514 25.32134,5.8924 21.49923,3.5036 42.52069,-7.0072 21.65848,-0.1593 5.25541,-4.2997 8.75901,-2.548 7.64407,-7.3258 31.69153,-10.8293 31.85062,-10.8291 9.07752,-12.5812 17.83637,-15.4475 9.71454,3.6628 1.91106,-1.274 5.57391,-9.7145 2.70717,-2.7072 h 7.80348 l 8.91827,-8.759 8.12183,-0.3185 2.38882,-2.3888 1.43329,-3.8222 0.79628,-3.5036 0.95553,-2.7073 10.03304,-2.0701 2.38882,-2.0704 6.8478,-11.307 17.19955,-8.9181 3.0256,-8.2813 -4.9367,-8.122 -2.7073,-5.8924 -1.2741,-5.733 0.4778,-7.6442 2.2296,-1.2741 4.6184,3.3444 28.347,-4.2999 3.1851,-4.4591 -2.7074,-0.3186 -7.8033,-5.2552 v -2.8666 l 3.0259,-2.5481 1.4332,-0.4777 1.5926,0.1592 -0.637,-1.274 -0.4778,-0.637 -1.1148,-0.7963 7.4848,-4.7776 16.7216,10.1923 7.3257,-5.4147 0.6371,2.7073 -0.6371,2.8666 1.9111,1.5926 1.7518,-2.2296 3.6629,-7.9627 1.911,-1.9111 0.4778,-0.637 12.5809,-6.848 32.9656,5.2554 5.4147,-3.8221 11.4662,-13.6957 4.1406,-1.4333 -1.5926,-2.2296 -0.637,-0.4777 0.9555,-5.7332 2.2296,-5.5738 2.5481,-4.29995 30.8951,-17.6771 8.9182,-1.1147 -4.4591,-6.0517 h 10.5108 l -0.7963,-2.8666 -0.7962,-1.7518 -1.1148,-0.9555 h -0.9555 l 2.2295,-9.5552 0.637,-2.2295 2.2296,-3.1851 10.9884,-7.3257 18.7919,7.1664 6.05174,6.8478 5.4147,10.9886 3.8221,14.3328 -32.16934,-5.4145 v 2.548 l 25.95834,10.5107 3.1851,8.122 1.9111,1.75185 2.8666,1.1148 8.5996,7.3255 39.3357,-8.4403 9.3959,3.1851 3.0258,-3.1851 -2.0703,-2.70745 -4.1406,-1.1147 -2.0703,-1.9111 5.7332,-4.7776 2.2295,-4.2999 -2.0703,-6.8478 -2.7073,-2.7073 -0.7963,-2.5481 0.637,-4.9369 1.5926,-3.1851 2.3888,-0.4778 2.5481,1.4333 1.7518,2.2296 -0.637,1.274 -0.4778,0.637 -1.1148,0.9556 9.0775,-3.3444 8.5996,-8.759 3.3444,-7.8033 -1.1148,-5.2554 -2.0703,-4.2999 0.7963,-5.2554 -1.5926,-2.7073 -0.637,-0.4778 1.5925,-2.5481 3.0259,0.4778 3.1851,3.5034 2.3888,6.848 0.9555,10.6701 -0.637,4.6182 -3.0258,3.1851 -0.7963,3.9814 0.4778,2.8665 3.3443,7.1665 0.4778,7.007 18.9511,16.4033 21.6585,3.98145 9.0775,5.733 24.6844,-1.4333 23.888,-25.95825 0.3185,-0.9556 0.1593,-1.4333 0.3185,-1.7518 0.637,-1.5925 1.4333,-1.7518 41.0874,-11.3071 40.9281,-11.3069 1.2741,-1.5926 -0.6371,-5.7331 -2.2295,-3.5036 -4.6184,-2.3889 -1.4333,-2.2295 0.637,-4.9368 1.4333,-5.2554 1.4333,-3.0258 3.9814,-4.2999 13.0589,-4.9369 0.7962,-3.1849 -0.4777,-5.8924 1.5925,-3.5036 3.8221,-3.5036 -9.8736,-9.8737 -1.1148,-3.5036 4.7777,-18.9513 1.274,-3.1849 1.7516,-1.9111 6.0517,-12.5811 8.4405,-6.0515 2.0703,-5.8925 -0.637,-4.2998 1.9111,-2.2296 2.7073,-1.9111 2.0701,-3.3443 0.9556,-5.733 -0.3185,-3.9814 -1.2741,-3.1851 -1.7518,-3.5036 -2.8666,-7.485 v -4.1406 l 5.2553,-5.4145 1.911,-3.6628 3.6629,-9.2368 1.9111,-1.4333 -3.0259,-7.0071 -10.3514,-1.274 -3.9813,-3.5036 2.3888,-3.18509 4.7776,-2.86658 2.7072,-0.31851 -1.4333,-3.82212 -0.637,-1.11478 -0.9556,-0.63702 v -3.34435 l 10.8292,-10.03289 5.2554,-0.3185 2.5481,-1.27404 2.7073,-5.09615 1.1148,-6.84796 0.7963,-7.64406 1.4333,-7.64423 1.7516,-3.66286 3.9814,-3.02584 1.5925,-5.4145 0.637,-4.45913 v -2.70733 l -0.3185,-2.70733 z"
         id="path526"
         style="fill:#000000;fill-opacity:1;stroke-width:15.6069" />
    </g>
  </g>
</svg>
