<?xml version="1.0" encoding="UTF-8" standalone="no"?>
<svg
   xmlns:dc="http://purl.org/dc/elements/1.1/"
   xmlns:cc="http://creativecommons.org/ns#"
   xmlns:rdf="http://www.w3.org/1999/02/22-rdf-syntax-ns#"
   xmlns:svg="http://www.w3.org/2000/svg"
   xmlns="http://www.w3.org/2000/svg"
   xmlns:sodipodi="http://sodipodi.sourceforge.net/DTD/sodipodi-0.dtd"
   xmlns:inkscape="http://www.inkscape.org/namespaces/inkscape"
   version="1.1"
   width="1360"
   height="1360"
   viewBox="0 0 1360 1360"
   id="svg8"
   sodipodi:docname="Mindanao.svg"
   inkscape:version="1.0.1 (3bc2e813f5, 2020-09-07)">
  <metadata
     id="metadata14">
    <rdf:RDF>
      <cc:Work
         rdf:about="">
        <dc:format>image/svg+xml</dc:format>
        <dc:type
           rdf:resource="http://purl.org/dc/dcmitype/StillImage" />
        <dc:title></dc:title>
      </cc:Work>
    </rdf:RDF>
  </metadata>
  <defs
     id="defs12" />
  <sodipodi:namedview
     pagecolor="#ffffff"
     bordercolor="#666666"
     borderopacity="1"
     objecttolerance="10"
     gridtolerance="10"
     guidetolerance="10"
     inkscape:pageopacity="0"
     inkscape:pageshadow="2"
     inkscape:window-width="1920"
     inkscape:window-height="974"
     id="namedview10"
     showgrid="false"
     inkscape:zoom="0.333596"
     inkscape:cx="516.16269"
     inkscape:cy="674.8172"
     inkscape:window-x="-11"
     inkscape:window-y="-11"
     inkscape:window-maximized="1"
     inkscape:current-layer="svg8" />
  <g
     id="g6"
     style="fill:#000000;fill-opacity:1"
     transform="matrix(1.5625485,0,0,1.5625485,-257.64636,55.353668)">
    <g
       stroke="#000000"
       stroke-width="0.98"
       fill="#ffffff"
       id="g4"
       style="fill:#000000;fill-opacity:1">
      <path
         d="m 1025.68,474.71 2.13,-3.52 0.24,-8.79 1.41,-4.17 -4.23,-3.13 -0.69,-0.68 0.63,-2.91 1.53,-1.3 2.03,-0.8 2.14,-1.44 2.08,-3.76 -0.25,-3.69 -1.17,-3.94 -1.5,-8.83 -3.54,-9.21 -0.81,-4.25 0.48,-9.03 0.72,-4.11 1.32,-4.15 -3.79,-1.51 -9.44,-0.97 -4.33,-2.6 -4.44,-6.38 -0.75,-1.97 -0.81,-1.05 -5.45,-3.29 -3.54,-3.39 -2.71,-4.66 -1.53,-5.09 0.07,-2.58 0.06,-2.16 2.16,-4.12 7.24,-5.29 3.37,-3.41 -3.48,-4.8 -0.51,-7.37 2.1,-6.67 4.29,-2.62 -1.99,-3.63 -0.26,-2.66 0.62,-2.86 1.06,-15.86 -0.69,-1.9 -6.62,5.43 -5.53,1.95 -2.9,1.66 -2.95,0.82 -2.79,-1.55 -1.44,-3.55 1.34,-3.13 5.84,-6.72 2,-4.73 -1.58,-1.7 -2.74,-0.55 -1.48,-1.28 -2.52,-4.88 -0.68,-0.95 -1.3,-0.72 1.47,-1.5 2.17,-1.35 0.86,-0.25 4.25,-5.93 1.41,-3.68 -0.72,-3.09 -2.52,0.8 -0.6,-0.82 0.6,-4.37 0.78,-1.68 1.97,-0.52 4.9,0.23 -0.87,-0.8 -0.9,-1.1 -0.75,-0.53 1.35,-2.5 -0.78,-1.78 -3.76,-2.88 -1.37,-2.46 -0.63,-1.5 0.06,-0.55 h -1.04 l -0.98,0.46 -0.54,0.58 0.14,0.35 -12.05,-1.91 -4.27,-2.02 -2,1.61 -2.34,-0.46 -2.39,-1.03 -2.09,-0.12 -1.15,1.35 1.2,1.45 3.59,2.4 -2.11,1.13 -1.69,-0.04 -3.61,-1.09 -6.03,0.18 -1.62,-0.18 -1.89,-2.44 -3.28,-8.54 -3.66,-3.84 1.55,-4.36 3.6,-4.38 6.48,-2.8 4.44,-3.58 2.25,-0.82 3.99,0.09 1.94,0.41 2.28,0.9 0.42,-0.63 0.03,-0.21 0.11,-0.15 0.72,-0.41 v -1.15 l -3.62,-2.18 -1.42,-1.6 v -2.7 l 1.12,-0.26 6.99,-4.71 4.03,-1.49 3.1,-3.67 2.19,-4.61 1.32,-4.35 0.42,-0.29 0.9,-1.39 0.43,-1.52 -2.41,-1.45 -0.09,-1.67 0.75,-2.7 -2.28,-7.06 -0.24,-2.42 -1.75,-3.9 -13.36,-13.46 -1.21,-2.04 -1.96,-4.57 -1.1,-1.6 -1.84,-0.68 -2.31,-0.25 -2.01,-0.75 -0.85,-2.15 1.24,-8.45 v -6.25 l 1.41,-8.31 1.29,-4.53 3.51,-5.89 0.96,-3.5 -0.87,-2.74 -3.67,-0.52 -3.8,2.1 -6.62,6.67 -6.18,1.91 -3.82,1.93 -2.44,0.26 -1.92,-0.43 -1.38,-0.79 -8.51,-8.93 -2.79,-5.75 -0.85,-6.19 0.36,-7.45 -5.02,2.52 -2,0.46 -3.14,-0.55 -2.18,-0.78 -1.87,-1.21 -1.06,-1.78 0.16,-2.48 1.54,-1.62 5.22,-1.37 2.05,-0.96 1.43,-1.46 0.69,-1.29 0.27,-1.85 0.03,-3.04 h -1.26 l -0.48,1.46 -2.03,3.63 -0.62,-1.88 -1.58,-2.22 -0.31,-1.63 -0.86,-1.61 -2.01,-0.36 -2.3,0.01 -1.76,-0.53 -6.1,-5.58 -3.5,-1.91 -10.71,-1.52 -1.81,-0.61 -1.57,-1.17 -3.46,-3.93 -1.79,-0.28 -3.92,0.35 -1.83,-0.07 -1.26,-1.73 -1.37,-0.91 -2.42,0.09 0.61,-0.74 0.27,-0.64 0.18,-0.61 0.33,-0.68 -4.05,0.7 -5.03,-2.09 -4.32,-3.46 -1.8,-3.38 -1.08,-4.75 -2.18,-5.42 -1.47,-5.32 0.84,-4.45 -3.72,-0.38 -5.28,-2.69 -6.13,-1.66 -3.43,-2.43 -3.15,-2.99 -2.18,-2.62 -0.69,1.89 -8.96,14.79 -1.23,3.04 -0.54,3.36 0.22,3.43 6.79,25.22 0.48,3.78 0.46,1.84 4.01,10.58 0.52,2.73 0.2,0.99 v 5.79 l 0.36,0.77 0.85,1.1 0.81,1.44 1.18,5.48 3.54,5.99 1.12,4.75 1.62,3.59 0.59,1.8 0.09,1.62 -0.23,3.34 0.14,1.64 0.93,2.33 1.32,1.75 1.12,2.03 0.49,3.27 -0.24,19.61 -1.13,6.54 -1.47,4.25 -1.83,1.91 -10.03,5.74 -3.87,0.89 -3.91,-0.22 -7.96,-1.82 -11.96,-0.56 -4.24,-1.14 -3.58,-2.82 -5.44,-7.38 -2.31,-4.42 -1.6,-1.73 -1.8,0.31 -1.71,1.53 -0.99,1.09 -0.4,1.4 -0.09,2.4 -0.41,2.36 -1.7,3.71 -0.41,2.26 0.27,1.75 0.72,1.23 0.85,1.02 0.68,1.1 0.72,3.57 -1.47,15.84 -2.01,2.86 -3.15,1.76 -4.03,1.42 -4,2.41 -1.8,0.15 -2.38,-1.87 -3.73,-6.15 -2.84,-1.77 -4.22,-5.5 -1.49,-1.25 -14.56,-8.2 -1.68,-1.36 -1.25,-2.42 -2.96,-2.12 -3.7,-1.61 -3.41,-0.86 -2.33,0.12 -1.89,0.51 -1.88,0.05 -2.12,-1.31 -2.07,-0.71 -2.1,0.95 -1.9,1.77 -1.49,1.74 -1.71,3.64 -0.18,4.1 1.31,8.36 v 15.9 l -1.31,8.27 -0.13,4.05 1.44,3.58 -1.98,3.04 -2.56,2.11 -2.21,2.47 -0.9,4.06 0.95,3.82 3.68,6.44 0.39,3.62 -0.7,1.88 -2.29,3.22 -0.77,1.37 -0.49,1.9 -0.77,5.74 0.26,0.61 0.6,0.91 0.49,1.11 -0.09,1.18 -0.63,0.28 -2.47,0.69 -0.67,0.3 -2.99,2.53 -0.79,1.28 -5.38,-1.66 -3.66,1.12 -2.29,3.29 -1.35,4.88 h -1.26 v -4.16 l 0.82,-4.04 1.38,-3.78 1.67,-3.4 -10.6,-0.3 -3.21,-0.84 -2.02,-1.39 -5.66,-6.25 -2.75,-1.75 -1.56,-0.66 -1.27,-0.25 -0.36,-0.25 -4.3,-0.96 -0.93,-0.06 -0.88,-2.96 0.13,-2.96 -1.12,-1.91 -4.68,0.2 -7.15,2.96 -6.38,4.94 -5.26,6.09 -3.83,6.35 -2.92,7.61 -0.72,3.95 -0.46,6.89 -0.6,2 -1.71,3.95 -0.55,0.91 -1.28,0.95 -0.57,0.79 -0.13,0.83 0.25,1.91 -0.12,0.84 -1.57,2.99 -0.68,1.76 -0.24,2.35 0.65,1.87 1.26,1.94 0.72,1.93 -0.81,1.88 -2.25,2.8 -2.88,5.69 -1.87,2.32 -6.22,3.05 -7.87,1.16 -22,0.07 -6.64,1.58 -5.77,2.53 -4.39,3.28 -4.24,5 -2.69,1.87 -3.88,0.75 -2.33,0.75 -24.45,19.48 -6.65,3.77 -0.74,0.68 -2.19,1.52 -2.26,0.9 -0.04,0.02 -0.8,-0.82 -0.25,-0.26 -0.02,-0.01 0.2,-2.13 0.87,-3.61 0.19,-1.88 0.02,-0.08 0.01,-0.02 1.3,-4.85 3.26,-1.67 7.99,-0.49 4.04,-1.97 19.44,-17.53 1.78,-2.09 0.33,-3.9 -2.84,-10.77 -0.6,-22.52 -1.56,-8.39 -2.37,-7.97 -3.01,-6.4 -7.74,-9.51 -1.08,-2.62 -0.64,-1.05 -2.23,-5.91 0.36,0.01 -1.49,-3.44 -0.87,-0.52 -1.52,1.42 h -1.26 l -1.47,-3.02 -1.56,-1.71 -2.25,-0.96 -14.96,-3.32 0.74,-3.24 -3.01,-0.43 -2.48,1.43 2.25,2.24 -2.79,3.44 -0.99,1.64 -0.52,2.12 0.07,1.88 -0.28,1.78 -1.78,1.85 -1.76,-4.07 -0.76,-1.01 -1.16,-0.7 -2.27,-0.93 -0.57,-0.23 -1.14,-0.69 -3.3,0.23 -1.41,-4.61 -0.22,-9.61 -2.34,1.08 -2.17,0.18 -1.97,-0.59 -2.92,-2.23 -4.65,-2.72 -1.05,-0.18 -1.13,-0.77 -2.52,0.1 -2.58,0.6 -1.29,0.71 0.32,1.86 1.51,2.19 5.87,6.81 0.81,2.16 -1.61,0.98 -2.22,1.96 -0.9,0.59 -1.35,0.13 -1.05,-0.48 -0.97,-0.62 -1.04,-0.31 -2.79,0.74 -1.48,1.89 -2.56,8.7 -0.59,1.27 -2.83,4.31 -2.37,2.44 -3.18,1.73 -10.85,0.95 -1.85,-0.29 -1.17,-0.82 -1.86,-2.46 -0.78,-0.66 -2.98,-0.07 -6.37,2.15 -14.45,2.13 -2.7,0.87 -2.2,1.79 -2.47,2.76 -2.03,2.9 -0.85,2.2 -0.86,3.41 -4.13,5.49 -1.31,3.3 -0.03,2.18 0.96,3.88 0.21,2.14 -0.36,1.94 -0.82,1.3 -0.83,0.95 -0.39,0.89 -0.69,0.22 -3.35,2 -0.96,1.01 v 1.14 l 0.72,4.01 0.42,1.21 6.7,4.46 2.38,3.34 -2.04,4.33 -10.55,8.8 -3.82,2.18 -1.96,0.67 -2,0.35 -4.33,0.12 -2.04,0.4 -2.44,1.75 -17.76,3.05 -4.35,0.11 -4.46,-0.8 -3.51,-2.21 -1.38,-4.15 -0.96,-1.91 -2.11,2.65 -3.33,6.31 -2.07,1.4 -7.09,2.9 -14.22,3.08 -3.25,1.51 -1.33,-1.19 -1.52,-0.08 -1.32,0.85 -0.76,1.59 -2.89,-1.68 -4.53,0.83 -14.36,4.85 -6.86,4.14 -5.62,1.54 -5.38,3.74 -2.09,1.8 -2.23,2.68 -4.62,8.29 -15.76,19.73 -4.41,8.22 -1.56,4.85 1.52,2.16 2.35,1.83 0.96,4.25 -0.12,7.99 -1.93,6.82 0.36,3.23 5.98,2.69 -1.62,2.94 -3.24,3.05 -2.19,1.68 -3.24,1.85 -2.3,1.77 -1.41,2.67 -0.48,4.44 -0.45,1.61 -2.37,3.31 -0.96,1.99 -0.24,1.86 0.24,5.98 -2.25,8.27 -0.39,4.82 1.97,2.13 1.57,0.65 0.32,1.49 -0.45,1.68 -0.77,1.25 -1.47,1.02 -6.17,2.9 -13.25,11.52 -6.57,14.41 0.21,15.42 7.02,14.52 4.45,3.85 14.13,7.57 8.99,3.29 1.65,0.42 4.23,0.18 0.93,-0.6 1.95,-2.7 3.71,-2.58 2.37,-4.56 6.46,-16.69 7.57,-10.51 1.08,-3.5 0.43,-8.61 2.61,-15.7 2.68,-8.43 3.63,-4.91 2.23,-0.56 1.97,0.15 1.95,-0.13 2.11,-1.47 3.46,-5.65 1.62,-1.96 1.2,-3.5 -1.89,-3.5 -2.68,-3.71 -1.16,-4.11 2.19,-3.77 8.48,-5.03 1.91,-1.91 0.63,-1.85 1.62,-2.36 2.11,-1.68 2.04,0.23 0.07,1.21 -1.44,6.4 2,-1.49 2.41,-2.81 2.07,-3.16 1.17,-2.57 0.09,-4.61 -2.54,-0.26 -3.71,1.02 -3.33,-0.77 0.05,-2.24 1.84,-3.34 7.69,-10.83 4.76,-5.35 15.7,-12.22 4.04,-2.35 2.22,-0.41 3.75,-1.82 1.62,-0.42 h 8.18 l 1.95,1.37 2.87,3.76 1.58,1.23 7.63,-1.06 4.4,0.23 1.91,2.83 -0.32,3.31 -0.85,3.96 -1.26,3.69 -1.44,2.48 1.15,3.13 1.37,11.47 0.91,2.89 1.92,2.32 1.47,2.72 -0.44,4.11 -3.58,-1.84 -2.17,0.37 -0.86,2.39 0.23,4.27 -0.38,-0.04 -0.65,0.58 -0.45,0.94 0.22,1.06 0.55,0.25 0.84,-0.1 0.77,-0.35 0.36,-0.49 0.63,-0.08 1.17,0.76 0.58,1.55 -1.12,2.26 2.69,1.15 2.81,0.18 2.61,-0.48 2.05,-0.85 2.56,-1.93 0.27,-1.44 -0.49,-1.69 0.16,-2.66 1.02,-1.91 1.96,-2.6 2.39,-2.23 2.2,-0.76 1.84,1.74 2.79,7.14 1.53,2.54 4.23,1.05 0.22,0.22 1.8,0.58 0.99,1.06 1.03,0.58 2.03,-0.95 1.03,-1.9 -0.3,-5.62 0.3,-2.75 1.26,-2.66 2.85,-4.07 1.02,-3.29 0.03,-1.59 -0.45,-0.84 -0.6,-0.73 -0.24,-1.35 0.54,-0.64 2.47,-1.61 0.76,-0.85 0.18,-2.28 -0.58,-1.88 -0.23,-1.89 1.26,-2.27 5.08,-5.18 2.16,-3.55 2,-3.27 1.96,-1.76 2.11,1.54 0.75,3.51 0.36,5.15 0.91,4.67 2.39,2.01 4.04,1.35 2.12,3.17 0.13,3.78 -1.89,3.12 -3.23,1.3 -3.3,0.42 -2.61,1.34 -1.02,4.09 0.99,3.55 2.43,3.41 5.49,5.03 2.42,0.95 2.93,-0.2 2.41,-1.36 1.02,-2.61 1.42,-2.27 3.31,-1.57 3.8,-0.43 2.92,1.14 0.76,1.3 0.36,1.61 V 441 l 0.63,0.93 2.68,1.89 1.62,2.99 5.34,5.73 2.55,1.88 5.9,2.77 5.79,4.3 2.12,0.66 1.89,-0.75 1.88,-2.82 1.17,-3.84 0.16,-4.21 -1.29,-3.95 -2.94,-2.91 -3.32,-1.94 -2.78,-2.49 -1.17,-4.59 -1.81,-2.94 -3.6,-3.64 -2.45,-3.69 1.59,-3.16 1.73,0.19 3.83,2.31 0.71,-0.55 -0.17,-4.06 0.17,-2.11 0.71,-1.42 1.68,-0.75 6.53,-1.23 1.98,-1.09 2.05,-1.47 1.94,-1.75 1.59,-1.91 2.23,-8.41 -4.09,-5.67 -5.04,-5.04 -0.66,-6.49 2.25,-1.88 4.26,-2.08 4.58,-1.69 3.33,-0.7 11.78,-0.71 4.11,0.71 0.99,0.37 7.98,3.03 4.19,0.41 4.28,1.05 3.66,2.56 9.95,13.32 3.01,2.49 4.41,1 8.02,0.31 0.24,0.01 4.25,0.75 3.21,1.47 1.36,-1.38 8.91,4.65 9.96,7.35 1.37,0.16 8.18,5.71 5.53,7.72 8.69,18.57 2.06,3 1.75,1.01 0.78,1.43 1.6,3.01 2.16,1 5.76,-1.01 2.44,0.19 2.67,1.98 -3.86,7.11 -0.91,3.57 -0.3,4.76 0.3,5.88 -0.3,1.73 -1.2,1.74 -3.34,3.15 -1.99,5.06 -3.14,3.33 -6.87,5.73 -7.02,4.6 -4.23,2.12 -3.17,0.88 -3.99,3.99 -7.54,18.46 -2.52,9.34 -0.36,19.7 -0.31,1.55 -1.11,3.41 0.06,2.06 0.63,1.58 1.11,1.64 1.33,1.31 1.34,0.54 0.6,0.39 0.33,0.73 0.52,0.33 1.09,-0.76 2.04,-2.95 0.51,-0.41 3.6,1.6 0.58,3.82 -0.48,3.84 -0.61,4.91 3.39,11.6 0.49,4.23 v 16.22 l 0.17,1.17 -0.75,0.71 -2.64,0.25 -0.82,0.95 0.34,2.2 1.18,3.87 0.23,3.93 2.29,9.42 3.13,6.7 4.79,6.83 12.31,13.03 2.18,3.06 2.37,6.91 2.24,3.48 4.99,4.58 3.14,1.95 22.9,9.96 9.53,4.15 25.69,14.87 3.26,0.71 1.26,0.65 0.69,1.49 0.51,1.69 0.69,1.22 1.77,1.22 5.65,2.57 1.26,-1.26 11.91,7.16 4.55,1.69 2.02,0.09 2.29,-0.22 2.18,0.02 7.91,3.6 4.88,1.18 18.66,8.94 4.59,0.99 7.1,-2.48 8.77,1.96 3.55,-0.06 3.61,-4.25 4.34,-12.71 6.08,-17.91 1.69,-2.65 0.6,-1.84 -0.45,-4.79 0.48,-1.6 2.04,-0.59 1.94,0.97 2.2,2.15 6.97,-0.05 1.99,0.22 1.96,0.21 1.76,1.58 0.54,2.29 2.49,6.7 0.74,3.08 -0.5,7.43 -2.58,5.43 -7.11,8.64 -3.02,4.89 -1.32,3.02 -0.57,2.89 -0.87,2.86 -1.65,2.77 -0.72,3 1.89,3.54 1.39,0.67 2.12,0.64 1.93,1.05 0.82,1.9 0.35,1.78 0.85,1.9 1.08,1.54 0.99,0.63 3.9,0.37 2.64,1.12 1.76,1.94 1.26,2.77 0.93,3.65 0.42,14.65 1.1,2.33 2.65,0.76 8.93,0.47 3,-0.16 2.85,-1.31 3.43,-3.21 2.71,-3.59 11.54,-20.08 17.6,-25.17 13.39,-16.3 3.32,-7.87 1.26,-5.41 0.71,-1.49 0.59,-1.96 -1.26,-3.79 0.67,-1.9 1.94,-3.39 0.75,-3.98 -0.09,-3.9 -0.66,-3.27 -8.93,-24.14 -1.62,-2.3 -0.63,-1.33 -0.27,-2.01 0.21,-4.1 -0.14,-2.14 -0.7,-1.52 -1.99,-2.57 -5.3,-11.43 -0.68,-2.74 -0.18,-7.24 -1.26,-3.23 -3,-3.29 -3.75,-1.47 -3.44,2.23 -4.88,-4.94 -7.91,-10.23 -6.07,-3.92 0.45,5.12 -2.34,1.08 -3.01,-1.2 -1.48,-1.78 -0.59,-3.67 -2.52,-7.23 -0.55,-3.15 0.51,-8.77 1.57,-8.68 2.7,-8.07 3.88,-6.93 8.31,-10.14 2,-1.74 0.74,-4.06 0.52,-8.13 4.14,-6.8 5.86,-2.78 6.2,-1.51 5.17,-2.96 6.54,-6.33 0.99,-1.91 0.33,-1.63 1.54,-2.18 0.65,-1.77 0.24,-3.85 -0.99,-12.1 0.54,-4.08 2.09,-3.71 1.53,-1.38 0.03,-0.03 2.04,-1.86 10.87,-6.18 11.06,-8.03 3.41,-0.84 0.98,0.26 2.7,0.75 1.44,2.64 v 3.68 l -0.62,4.08 0.14,7.49 7.41,17.98 1.31,7.61 0.85,2.76 2.3,2.99 11,10.63 2.15,3.98 -0.15,3.76 -1.63,8.62 1.21,3.47 7.14,10.04 3.61,2.1 4.68,1.4 2.2,1 0.66,2.16 v 4.89 l 0.48,4.06 1.96,6.56 0.08,4.11 -2.22,11.5 -0.3,4.33 2.28,23.28 0.93,3.78 2.36,3.03 4.59,8.62 0.06,2.04 -0.22,2.31 0.04,2.19 0.75,1.74 6.31,4.37 0.4,2.06 0.81,9.41 0.66,2.57 2.67,0.67 1.08,-2.98 0.76,-16.84 3.08,-14.6 0.34,-27.29 2.83,-16.27 2.4,-7.58 -0.48,-4.06 -1.89,-1.82 -3.41,-2.45 -3.3,-3 -2.76,-6.64 -2.64,-3.65 -1.94,-3.93 0.76,-3.95 2.02,2.67 0.48,1.13 h 1.26 l -0.12,-7.75 3.87,-1.65 5.48,2.74 4.73,5.39 4.22,11.94 3.24,5.16 5.66,2.13 1.37,-1.48 0.42,-3.42 -0.33,-3.88 -0.78,-2.84 -1.62,-1.74 -4.98,-4.24 -1.05,-2.19 0.27,-4.71 1.17,-5.62 2.66,-5.41 4.69,-4.08 5.36,2.35 7.17,1.36 6.26,-0.65 2.7,-3.63 0.43,-6.61 1.46,-5.1 2.7,-4.19 5.92,-5.57 1.18,-1.91 3.81,-10.01 0.99,-1.63 1.34,-0.84 1.65,-0.34 1.44,-0.54 0.57,-1.4 1.02,-3.37 4.41,-5.77 0.99,-3.52 -1.35,-0.04 -6.07,-3.39 z"
         id="path2"
         style="fill:#000000;fill-opacity:1" />
    </g>
  </g>
</svg>
