<?xml version="1.0" encoding="utf-8"?><svg xmlns="http://www.w3.org/2000/svg" version="1.1" baseProfile="tiny" width="1200" height="800" viewBox="0 0 1200 800"><g><g stroke="#000000" stroke-width=".98" fill="#FFFFFF"><path d="m1025.68 474.71l2.13-3.52.24-8.79 1.41-4.17-4.23-3.13-.69-.68.63-2.91 1.53-1.3 2.03-.8 2.14-1.44 2.08-3.76-.25-3.69-1.17-3.94-1.5-8.83-3.54-9.21-.81-4.25.48-9.03.72-4.11 1.32-4.15-3.79-1.51-9.44-.97-4.33-2.6-4.44-6.38-.75-1.97-.81-1.05-5.45-3.29-3.54-3.39-2.71-4.66-1.53-5.09.07-2.58.06-2.16 2.16-4.12 7.24-5.29 3.37-3.41-3.48-4.8-.51-7.37 2.1-6.67 4.29-2.62-1.99-3.63-.26-2.66.62-2.86 1.06-15.86-.69-1.9-6.62 5.43-5.53 1.95-2.9 1.66-2.95.82-2.79-1.55-1.44-3.55 1.34-3.13 5.84-6.72 2-4.73-1.58-1.7-2.74-.55-1.48-1.28-2.52-4.88-.68-.95-1.3-.72 1.47-1.5 2.17-1.35.86-.25 4.25-5.93 1.41-3.68-.72-3.09-2.52.8-.6-.82.6-4.37.78-1.68 1.97-.52 4.9.23-.87-.8-.9-1.1-.75-.53 1.35-2.5-.78-1.78-3.76-2.88-1.37-2.46-.63-1.5.06-.55-1.04 0-.98.46-.54.58.14.35-12.05-1.91-4.27-2.02-2 1.61-2.34-.46-2.39-1.03-2.09-.12-1.15 1.35 1.2 1.45 3.59 2.4-2.11 1.13-1.69-.04-3.61-1.09-6.03.18-1.62-.18-1.89-2.44-3.28-8.54-3.66-3.84 1.55-4.36 3.6-4.38 6.48-2.8 4.44-3.58 2.25-.82 3.99.09 1.94.41 2.28.9.42-.63.03-.21.11-.15.72-.41 0-1.15-3.62-2.18-1.42-1.6 0-2.7 1.12-.26 6.99-4.71 4.03-1.49 3.1-3.67 2.19-4.61 1.32-4.35.42-.29.9-1.39.43-1.52-2.41-1.45-.09-1.67.75-2.7-2.28-7.06-.24-2.42-1.75-3.9-13.36-13.46-1.21-2.04-1.96-4.57-1.1-1.6-1.84-.68-2.31-.25-2.01-.75-.85-2.15 1.24-8.45 0-6.25 1.41-8.31 1.29-4.53 3.51-5.89.96-3.5-.87-2.74-3.67-.52-3.8 2.1-6.62 6.67-6.18 1.91-3.82 1.93-2.44.26-1.92-.43-1.38-.79-8.51-8.93-2.79-5.75-.85-6.19.36-7.45-5.02 2.52-2 .46-3.14-.55-2.18-.78-1.87-1.21-1.06-1.78.16-2.48 1.54-1.62 5.22-1.37 2.05-.96 1.43-1.46.69-1.29.27-1.85.03-3.04-1.26 0-.48 1.46-2.03 3.63-.62-1.88-1.58-2.22-.31-1.63-.86-1.61-2.01-.36-2.3.01-1.76-.53-6.1-5.58-3.5-1.91-10.71-1.52-1.81-.61-1.57-1.17-3.46-3.93-1.79-.28-3.92.35-1.83-.07-1.26-1.73-1.37-.91-2.42.09.61-.74.27-.64.18-.61.33-.68-4.05.7-5.03-2.09-4.32-3.46-1.8-3.38-1.08-4.75-2.18-5.42-1.47-5.32.84-4.45-3.72-.38-5.28-2.69-6.13-1.66-3.43-2.43-3.15-2.99-2.18-2.62-.69 1.89-8.96 14.79-1.23 3.04-.54 3.36.22 3.43 6.79 25.22.48 3.78.46 1.84 4.01 10.58.52 2.73.2.99 0 5.79.36.77.85 1.1.81 1.44 1.18 5.48 3.54 5.99 1.12 4.75 1.62 3.59.59 1.8.09 1.62-.23 3.34.14 1.64.93 2.33 1.32 1.75 1.12 2.03.49 3.27-.24 19.61-1.13 6.54-1.47 4.25-1.83 1.91-10.03 5.74-3.87.89-3.91-.22-7.96-1.82-11.96-.56-4.24-1.14-3.58-2.82-5.44-7.38-2.31-4.42-1.6-1.73-1.8.31-1.71 1.53-.99 1.09-.4 1.4-.09 2.4-.41 2.36-1.7 3.71-.41 2.26.27 1.75.72 1.23.85 1.02.68 1.1.72 3.57-1.47 15.84-2.01 2.86-3.15 1.76-4.03 1.42-4 2.41-1.8.15-2.38-1.87-3.73-6.15-2.84-1.77-4.22-5.5-1.49-1.25-14.56-8.2-1.68-1.36-1.25-2.42-2.96-2.12-3.7-1.61-3.41-.86-2.33.12-1.89.51-1.88.05-2.12-1.31-2.07-.71-2.1.95-1.9 1.77-1.49 1.74-1.71 3.64-.18 4.1 1.31 8.36 0 15.9-1.31 8.27-.13 4.05 1.44 3.58-1.98 3.04-2.56 2.11-2.21 2.47-.9 4.06.95 3.82 3.68 6.44.39 3.62-.7 1.88-2.29 3.22-.77 1.37-.49 1.9-.77 5.74.26.61.6.91.49 1.11-.09 1.18-.63.28-2.47.69-.67.3-2.99 2.53-.79 1.28-5.38-1.66-3.66 1.12-2.29 3.29-1.35 4.88-1.26 0 0-4.16.82-4.04 1.38-3.78 1.67-3.4-10.6-.3-3.21-.84-2.02-1.39-5.66-6.25-2.75-1.75-1.56-.66-1.27-.25-.36-.25-4.3-.96-.93-.06-.88-2.96.13-2.96-1.12-1.91-4.68.2-7.15 2.96-6.38 4.94-5.26 6.09-3.83 6.35-2.92 7.61-.72 3.95-.46 6.89-.6 2-1.71 3.95-.55.91-1.28.95-.57.79-.13.83.25 1.91-.12.84-1.57 2.99-.68 1.76-.24 2.35.65 1.87 1.26 1.94.72 1.93-.81 1.88-2.25 2.8-2.88 5.69-1.87 2.32-6.22 3.05-7.87 1.16-22 .07-6.64 1.58-5.77 2.53-4.39 3.28-4.24 5-2.69 1.87-3.88.75-2.33.75-24.45 19.48-6.65 3.77-.74.68-2.19 1.52-2.26.9-.04.02-.8-.82-.25-.26-.02-.01.2-2.13.87-3.61.19-1.88.02-.08.01-.02 1.3-4.85 3.26-1.67 7.99-.49 4.04-1.97 19.44-17.53 1.78-2.09.33-3.9-2.84-10.77-.6-22.52-1.56-8.39-2.37-7.97-3.01-6.4-7.74-9.51-1.08-2.62-.64-1.05-2.23-5.91.36.01-1.49-3.44-.87-.52-1.52 1.42-1.26 0-1.47-3.02-1.56-1.71-2.25-.96-14.96-3.32.74-3.24-3.01-.43-2.48 1.43 2.25 2.24-2.79 3.44-.99 1.64-.52 2.12.07 1.88-.28 1.78-1.78 1.85-1.76-4.07-.76-1.01-1.16-.7-2.27-.93-.57-.23-1.14-.69-3.3.23-1.41-4.61-.22-9.61-2.34 1.08-2.17.18-1.97-.59-2.92-2.23-4.65-2.72-1.05-.18-1.13-.77-2.52.1-2.58.6-1.29.71.32 1.86 1.51 2.19 5.87 6.81.81 2.16-1.61.98-2.22 1.96-.9.59-1.35.13-1.05-.48-.97-.62-1.04-.31-2.79.74-1.48 1.89-2.56 8.7-.59 1.27-2.83 4.31-2.37 2.44-3.18 1.73-10.85.95-1.85-.29-1.17-.82-1.86-2.46-.78-.66-2.98-.07-6.37 2.15-14.45 2.13-2.7.87-2.2 1.79-2.47 2.76-2.03 2.9-.85 2.2-.86 3.41-4.13 5.49-1.31 3.3-.03 2.18.96 3.88.21 2.14-.36 1.94-.82 1.3-.83.95-.39.89-.69.22-3.35 2-.96 1.01 0 1.14.72 4.01.42 1.21 6.7 4.46 2.38 3.34-2.04 4.33-10.55 8.8-3.82 2.18-1.96.67-2 .35-4.33.12-2.04.4-2.44 1.75-17.76 3.05-4.35.11-4.46-.8-3.51-2.21-1.38-4.15-.96-1.91-2.11 2.65-3.33 6.31-2.07 1.4-7.09 2.9-14.22 3.08-3.25 1.51-1.33-1.19-1.52-.08-1.32.85-.76 1.59-2.89-1.68-4.53.83-14.36 4.85-6.86 4.14-5.62 1.54-5.38 3.74-2.09 1.8-2.23 2.68-4.62 8.29-15.76 19.73-4.41 8.22-1.56 4.85 1.52 2.16 2.35 1.83.96 4.25-.12 7.99-1.93 6.82.36 3.23 5.98 2.69-1.62 2.94-3.24 3.05-2.19 1.68-3.24 1.85-2.3 1.77-1.41 2.67-.48 4.44-.45 1.61-2.37 3.31-.96 1.99-.24 1.86.24 5.98-2.25 8.27-.39 4.82 1.97 2.13 1.57.65.32 1.49-.45 1.68-.77 1.25-1.47 1.02-6.17 2.9-13.25 11.52-6.57 14.41.21 15.42 7.02 14.52 4.45 3.85 14.13 7.57 8.99 3.29 1.65.42 4.23.18.93-.6 1.95-2.7 3.71-2.58 2.37-4.56 6.46-16.69 7.57-10.51 1.08-3.5.43-8.61 2.61-15.7 2.68-8.43 3.63-4.91 2.23-.56 1.97.15 1.95-.13 2.11-1.47 3.46-5.65 1.62-1.96 1.2-3.5-1.89-3.5-2.68-3.71-1.16-4.11 2.19-3.77 8.48-5.03 1.91-1.91.63-1.85 1.62-2.36 2.11-1.68 2.04.23.07 1.21-1.44 6.4 2-1.49 2.41-2.81 2.07-3.16 1.17-2.57.09-4.61-2.54-.26-3.71 1.02-3.33-.77.05-2.24 1.84-3.34 7.69-10.83 4.76-5.35 15.7-12.22 4.04-2.35 2.22-.41 3.75-1.82 1.62-.42 8.18 0 1.95 1.37 2.87 3.76 1.58 1.23 7.63-1.06 4.4.23 1.91 2.83-.32 3.31-.85 3.96-1.26 3.69-1.44 2.48 1.15 3.13 1.37 11.47.91 2.89 1.92 2.32 1.47 2.72-.44 4.11-3.58-1.84-2.17.37-.86 2.39.23 4.27-.38-.04-.65.58-.45.94.22 1.06.55.25.84-.1.77-.35.36-.49.63-.08 1.17.76.58 1.55-1.12 2.26 2.69 1.15 2.81.18 2.61-.48 2.05-.85 2.56-1.93.27-1.44-.49-1.69.16-2.66 1.02-1.91 1.96-2.6 2.39-2.23 2.2-.76 1.84 1.74 2.79 7.14 1.53 2.54 4.23 1.05.22.22 1.8.58.99 1.06 1.03.58 2.03-.95 1.03-1.9-.3-5.62.3-2.75 1.26-2.66 2.85-4.07 1.02-3.29.03-1.59-.45-.84-.6-.73-.24-1.35.54-.64 2.47-1.61.76-.85.18-2.28-.58-1.88-.23-1.89 1.26-2.27 5.08-5.18 2.16-3.55 2-3.27 1.96-1.76 2.11 1.54.75 3.51.36 5.15.91 4.67 2.39 2.01 4.04 1.35 2.12 3.17.13 3.78-1.89 3.12-3.23 1.3-3.3.42-2.61 1.34-1.02 4.09.99 3.55 2.43 3.41 5.49 5.03 2.42.95 2.93-.2 2.41-1.36 1.02-2.61 1.42-2.27 3.31-1.57 3.8-.43 2.92 1.14.76 1.3.36 1.61 0 4.08.63.93 2.68 1.89 1.62 2.99 5.34 5.73 2.55 1.88 5.9 2.77 5.79 4.3 2.12.66 1.89-.75 1.88-2.82 1.17-3.84.16-4.21-1.29-3.95-2.94-2.91-3.32-1.94-2.78-2.49-1.17-4.59-1.81-2.94-3.6-3.64-2.45-3.69 1.59-3.16 1.73.19 3.83 2.31.71-.55-.17-4.06.17-2.11.71-1.42 1.68-.75 6.53-1.23 1.98-1.09 2.05-1.47 1.94-1.75 1.59-1.91 2.23-8.41-4.09-5.67-5.04-5.04-.66-6.49 2.25-1.88 4.26-2.08 4.58-1.69 3.33-.7 11.78-.71 4.11.71.99.37 7.98 3.03 4.19.41 4.28 1.05 3.66 2.56 9.95 13.32 3.01 2.49 4.41 1 8.02.31.24.01 4.25.75 3.21 1.47 1.36-1.38 8.91 4.65 9.96 7.35 1.37.16 8.18 5.71 5.53 7.72 8.69 18.57 2.06 3 1.75 1.01.78 1.43 1.6 3.01 2.16 1 5.76-1.01 2.44.19 2.67 1.98-3.86 7.11-.91 3.57-.3 4.76.3 5.88-.3 1.73-1.2 1.74-3.34 3.15-1.99 5.06-3.14 3.33-6.87 5.73-7.02 4.6-4.23 2.12-3.17.88-3.99 3.99-7.54 18.46-2.52 9.34-.36 19.7-.31 1.55-1.11 3.41.06 2.06.63 1.58 1.11 1.64 1.33 1.31 1.34.54.6.39.33.73.52.33 1.09-.76 2.04-2.95.51-.41 3.6 1.6.58 3.82-.48 3.84-.61 4.91 3.39 11.6.49 4.23 0 16.22.17 1.17-.75.71-2.64.25-.82.95.34 2.2 1.18 3.87.23 3.93 2.29 9.42 3.13 6.7 4.79 6.83 12.31 13.03 2.18 3.06 2.37 6.91 2.24 3.48 4.99 4.58 3.14 1.95 22.9 9.96 9.53 4.15 25.69 14.87 3.26.71 1.26.65.69 1.49.51 1.69.69 1.22 1.77 1.22 5.65 2.57 1.26-1.26 11.91 7.16 4.55 1.69 2.02.09 2.29-.22 2.18.02 7.91 3.6 4.88 1.18 18.66 8.94 4.59.99 7.1-2.48 8.77 1.96 3.55-.06 3.61-4.25 4.34-12.71 6.08-17.91 1.69-2.65.6-1.84-.45-4.79.48-1.6 2.04-.59 1.94.97 2.2 2.15 6.97-.05 1.99.22 1.96.21 1.76 1.58.54 2.29 2.49 6.7.74 3.08-.5 7.43-2.58 5.43-7.11 8.64-3.02 4.89-1.32 3.02-.57 2.89-.87 2.86-1.65 2.77-.72 3 1.89 3.54 1.39.67 2.12.64 1.93 1.05.82 1.9.35 1.78.85 1.9 1.08 1.54.99.63 3.9.37 2.64 1.12 1.76 1.94 1.26 2.77.93 3.65.42 14.65 1.1 2.33 2.65.76 8.93.47 3-.16 2.85-1.31 3.43-3.21 2.71-3.59 11.54-20.08 17.6-25.17 13.39-16.3 3.32-7.87 1.26-5.41.71-1.49.59-1.96-1.26-3.79.67-1.9 1.94-3.39.75-3.98-.09-3.9-.66-3.27-8.93-24.14-1.62-2.3-.63-1.33-.27-2.01.21-4.1-.14-2.14-.7-1.52-1.99-2.57-5.3-11.43-.68-2.74-.18-7.24-1.26-3.23-3-3.29-3.75-1.47-3.44 2.23-4.88-4.94-7.91-10.23-6.07-3.92.45 5.12-2.34 1.08-3.01-1.2-1.48-1.78-.59-3.67-2.52-7.23-.55-3.15.51-8.77 1.57-8.68 2.7-8.07 3.88-6.93 8.31-10.14 2-1.74.74-4.06.52-8.13 4.14-6.8 5.86-2.78 6.2-1.51 5.17-2.96 6.54-6.33.99-1.91.33-1.63 1.54-2.18.65-1.77.24-3.85-.99-12.1.54-4.08 2.09-3.71 1.53-1.38.03-.03 2.04-1.86 10.87-6.18 11.06-8.03 3.41-.84.98.26 2.7.75 1.44 2.64 0 3.68-.62 4.08.14 7.49 7.41 17.98 1.31 7.61.85 2.76 2.3 2.99 11 10.63 2.15 3.98-.15 3.76-1.63 8.62 1.21 3.47 7.14 10.04 3.61 2.1 4.68 1.4 2.2 1 .66 2.16 0 4.89.48 4.06 1.96 6.56.08 4.11-2.22 11.5-.3 4.33 2.28 23.28.93 3.78 2.36 3.03 4.59 8.62.06 2.04-.22 2.31.04 2.19.75 1.74 6.31 4.37.4 2.06.81 9.41.66 2.57 2.67.67 1.08-2.98.76-16.84 3.08-14.6.34-27.29 2.83-16.27 2.4-7.58-.48-4.06-1.89-1.82-3.41-2.45-3.3-3-2.76-6.64-2.64-3.65-1.94-3.93.76-3.95 2.02 2.67.48 1.13 1.26 0-.12-7.75 3.87-1.65 5.48 2.74 4.73 5.39 4.22 11.94 3.24 5.16 5.66 2.13 1.37-1.48.42-3.42-.33-3.88-.78-2.84-1.62-1.74-4.98-4.24-1.05-2.19.27-4.71 1.17-5.62 2.66-5.41 4.69-4.08 5.36 2.35 7.17 1.36 6.26-.65 2.7-3.63.43-6.61 1.46-5.1 2.7-4.19 5.92-5.57 1.18-1.91 3.81-10.01.99-1.63 1.34-.84 1.65-.34 1.44-.54.57-1.4 1.02-3.37 4.41-5.77.99-3.52-1.35-.04-6.07-3.39-1.52-1.07z" /></g></g></svg>