<?xml version="1.0" encoding="UTF-8" standalone="no"?>
<svg
   xmlns:dc="http://purl.org/dc/elements/1.1/"
   xmlns:cc="http://creativecommons.org/ns#"
   xmlns:rdf="http://www.w3.org/1999/02/22-rdf-syntax-ns#"
   xmlns:svg="http://www.w3.org/2000/svg"
   xmlns="http://www.w3.org/2000/svg"
   xmlns:sodipodi="http://sodipodi.sourceforge.net/DTD/sodipodi-0.dtd"
   xmlns:inkscape="http://www.inkscape.org/namespaces/inkscape"
   version="1.0"
   width="1024.000000pt"
   height="1024.000000pt"
   viewBox="0 0 1024.000000 1024.000000"
   preserveAspectRatio="xMidYMid meet"
   id="svg28"
   sodipodi:docname="Neukaledonien - Kopie.svg"
   inkscape:version="1.0.1 (3bc2e813f5, 2020-09-07)">
  <defs
     id="defs32" />
  <sodipodi:namedview
     pagecolor="#ffffff"
     bordercolor="#666666"
     borderopacity="1"
     objecttolerance="10"
     gridtolerance="10"
     guidetolerance="10"
     inkscape:pageopacity="0"
     inkscape:pageshadow="2"
     inkscape:window-width="1920"
     inkscape:window-height="974"
     id="namedview30"
     showgrid="false"
     inkscape:zoom="0.55286249"
     inkscape:cx="682.66667"
     inkscape:cy="682.66667"
     inkscape:window-x="-11"
     inkscape:window-y="-11"
     inkscape:window-maximized="1"
     inkscape:current-layer="svg28" />
  <metadata
     id="metadata2">
Created by potrace 1.10, written by Peter Selinger 2001-2011
<rdf:RDF>
  <cc:Work
     rdf:about="">
    <dc:format>image/svg+xml</dc:format>
    <dc:type
       rdf:resource="http://purl.org/dc/dcmitype/StillImage" />
    <dc:title></dc:title>
  </cc:Work>
</rdf:RDF>
</metadata>
  <path
     d="m 515.19999,362.38462 h -0.0171 l -0.46243,0.0171 -2.19225,0.3768 h -4.7356 l -0.59088,0.14557 -1.14751,0.42818 -0.51381,0.0942 -0.50524,-0.16271 -0.95055,-0.71933 -0.27403,-0.16271 -0.46243,0.23978 -0.10276,0.54806 -0.0342,0.58232 -0.27403,0.37679 -0.55663,-0.0514 -0.5395,-0.36823 -0.45386,-0.50524 -0.29116,-0.4453 1.91822,-2.27788 0.23977,-0.71933 0.29973,-1.67844 -0.10277,-0.89917 -0.71076,-0.39392 -6.30272,-2.66324 -5.4635,-0.18839 -0.89917,-0.17984 -4.83836,-1.79833 -0.58232,-0.0942 -0.67651,0.49668 0.2569,0.36823 0.55663,0.37679 0.23978,0.51381 -0.24834,0.59088 -0.42818,0.38535 -0.52237,0.06 -0.54806,-0.34254 -0.92486,0.65082 -1.07043,-0.45386 -1.1732,-0.81353 -3.21986,-1.31021 -0.77928,-0.17127 -1.94391,-2.7917 -0.17127,-0.41961 -0.0428,-0.38535 -0.11989,-0.32541 -0.39392,-0.23122 -0.27403,0.0771 -0.0771,0.76215 -0.30828,0.20553 -1.21602,-0.73646 -0.84778,-0.35111 -0.38536,0.1884 -0.56519,1.01905 -1.37015,0.5395 -9.95076,0.90773 -2.18369,-0.23121 -2.11518,-0.65083 -5.24084,-3.15992 -8.34939,-3.14279 -2.36352,-1.85828 -0.68508,-0.26547 -0.77928,-0.21408 -2.86876,-1.53287 -5.15521,-1.73838 -9.02591,-5.57482 -8.0411,-2.70606 -1.09613,-0.13702 -3.374,-0.0771 -0.99337,-0.30828 -2.02098,-1.47292 -3.47677,-3.93064 -3.57953,-2.80025 -2.32927,-0.57376 -1.13038,-0.41961 -3.57953,-0.58231 -8.74331,-2.46628 -6.5168,-3.12567 -5.64333,-1.64419 -2.2522,-0.34254 -0.88204,-0.57375 -2.36352,-2.40634 -0.47099,-0.21409 -0.65938,-0.0856 -0.30829,-0.21409 -0.93342,-0.9848 -0.47955,-0.22265 -1.18176,-1.37872 -0.39392,-0.36823 -2.13231,-0.7022 -2.25219,0.0342 -2.27789,0.66795 -13.40184,5.80604 -0.82209,0.16271 -0.31685,0.1627 -0.59944,0.85635 -0.31685,0.37679 -0.32541,0.22265 -1.079,0.47099 -5.93449,3.50247 -10.53308,3.93063 -0.98479,0.53094 -0.41962,0.608 0.008,2.30358 -0.1884,1.04474 -0.51381,0.69364 2.82595,2.08949 0.53093,0.26547 1.35303,0.48812 0.55663,0.29116 0.24834,0.71076 0.0257,0.80497 -0.24834,0.68508 -0.54806,0.28259 -0.17127,0.32542 0.58231,0.72789 1.15607,1.03618 0.42818,1.12182 -0.36823,0.68508 -1.62706,1.17319 -0.8221,0.45387 -1.23314,0.27403 -6.66237,0.3511 -2.18369,0.41961 -1.53286,0.7964 -0.29116,0.51381 -0.13702,0.57375 -0.23121,0.46243 -0.59088,0.1884 -3.05716,0.61657 -2.6975,1.83258 -0.43673,0.13702 -1.49005,0.23978 -0.30828,0.1627 -0.27403,0.35967 -0.34254,0.35966 -0.47956,0.17127 -0.62513,-0.13701 -1.02762,-0.52237 -0.6337,-0.0771 -1.06187,1.079 -1.90965,-0.63369 -0.70221,-0.0685 -0.32541,0.0685 -0.68508,0.23121 -0.40248,0.0599 -0.16271,-0.11989 -0.36823,-0.61657 -1.36159,-0.23977 -1.25883,-0.0771 -0.5395,-0.2826 0.0343,-0.65939 0.16271,-0.71933 -0.22265,-0.46243 -0.53094,0.0685 -1.49004,0.81353 -0.59088,0.19696 h -2.62042 l -1.34447,0.4453 -1.18176,0.73646 -0.95911,0.92486 -0.71077,1.00192 -0.31685,0.59088 -0.0942,0.29972 0.12845,1.53287 0.23121,1.079 0.0514,0.55662 -0.20552,0.87348 -0.49668,0.83065 -1.63563,1.85828 -0.43673,0.65082 -0.26547,0.84779 -0.32541,3.5624 -0.32542,1.04475 -0.48811,1.02761 -1.51574,1.83257 -2.01242,1.44723 -4.53864,1.96104 -1.2417,0.27403 -0.62514,0.23121 -0.2569,0.36823 -0.17983,0.42818 -0.41105,0.26546 -0.52237,0.14558 -0.46243,0.0343 -0.67651,0.54806 -0.52238,2.01242 -0.71933,-0.11133 -0.33397,0.36823 -1.16464,0.92486 -0.24834,0.29115 v 2.28645 l -0.21408,0.87348 -0.43674,0.74502 -1.28452,1.36159 -0.0942,0.59088 0.55662,1.88397 0.0428,0.83065 -0.52237,1.14751 -0.84778,1.01905 -1.09613,0.7279 -2.3207,0.60801 -1.34447,1.58424 -0.8906,0.53093 -1.21601,-0.34254 -0.29972,0.0514 -0.15415,0.11988 -0.0942,0.11989 -0.38535,0.17984 -0.2826,0.32541 -0.23121,0.40248 -0.0856,0.35967 0.32541,0.75358 0.57375,0.39392 0.19696,0.47956 -0.78784,0.99336 -1.66987,1.03618 -4.10191,1.51574 -1.90965,1.31877 -1.42154,1.90966 -0.16271,0.37679 0.19696,0.47955 -0.0599,0.61658 -0.21408,0.59087 -0.27403,0.41105 -2.14087,2.34639 -0.83922,0.64226 -0.83922,0.43674 -0.95055,0.32541 -3.44252,0.45387 -2.08949,0.72789 -1.09612,0.1884 -0.95911,-0.17127 -1.32734,-0.73646 -1.04474,-0.17983 -8.39221,-0.3511 -0.73646,-0.21409 -1.43866,-0.96767 -1.1732,-0.21409 -2.25219,0.0856 -0.8906,-0.32541 -0.51381,-1.47292 -0.7279,-0.7964 -0.18839,-0.28259 0.009,-0.53094 0.29115,-1.01905 0.0771,-0.57376 -1.65275,1.19889 -0.8906,0.35967 -0.78784,-0.30829 -0.66795,-0.65939 -0.26547,-0.3511 -0.29972,-0.55662 0.0599,-0.008 -0.0771,-0.71076 0.0171,-0.0171 -0.0856,-0.23122 -0.17983,-0.20552 -0.0856,-0.26547 -0.34254,-2.10661 -0.38536,-0.76215 -1.79833,-0.59088 -0.0942,-0.73646 0.49668,-1.94391 -0.11132,-1.71269 0.11132,-0.54807 0.23978,-0.48811 0.29972,-0.22266 0.2826,-0.13701 0.22265,-0.23978 0.2569,-0.75358 0.47099,-3.25412 -0.49668,-2.05524 -1.20745,0.71077 -2.84307,3.26268 -2.30358,0.41961 -1.31877,-1.38728 -1.60137,-6.19139 -0.16271,-0.61657 -0.4453,-13.43608 -0.50524,-1.92679 -0.50525,-0.71077 -0.77928,-0.66795 -0.96766,-0.49668 -1.01905,-0.19696 -0.37679,-0.19696 -1.05331,-0.82209 -0.50525,-0.0856 -0.54806,0.35967 -0.0599,0.4453 0.34254,0.41105 0.63369,0.23977 -2.26932,0.83066 -0.65938,0.51381 -0.61658,1.10469 -0.32541,0.95054 -0.17983,1.16463 -0.0257,1.31877 0.1884,1.45579 0.19696,0.53094 0.67651,1.26739 0.23121,0.66795 0.0514,0.70221 -0.0942,1.4301 0.0428,0.69364 0.20553,0.6337 0.58231,0.95911 0.22266,0.47099 0.39391,2.20937 0.30829,0.62514 -1.38728,1.00193 -0.86491,0.37679 -1.2674,0.0428 v -0.3768 l -1.20745,-2.37208 -0.4453,-1.48148 -0.55663,-0.67652 -0.59944,-0.55662 -0.36823,-0.53094 -0.57375,-3.26268 -0.47099,-1.38729 -1.01906,-0.96767 0.11133,-0.87347 -0.92486,-2.11518 -0.40248,-1.77263 -0.37679,-1.00193 -0.55663,-0.86491 -0.32541,-0.35966 -0.65939,-0.32541 -0.80496,-0.65083 -0.69365,-0.72789 -0.59944,-1.25027 -2.16656,-1.6185 -0.6337,-0.71077 -0.56519,-0.81353 -0.38535,-0.88204 -0.16271,-0.8906 -0.1627,-0.45386 -0.74503,-0.77071 -0.1627,-0.52238 0.0599,-0.43673 0.31685,-1.15607 -0.17127,-0.99337 -0.71077,-1.64418 -0.1627,-1.04475 0.0514,-0.64226 0.10276,-0.48812 0.0257,-0.48811 -0.17983,-0.66796 -0.31685,-0.39392 -0.83066,-0.50524 -0.28259,-0.48812 -0.0514,-1.09612 0.77927,-3.28838 0.15414,-0.21409 0.32542,0.0171 0.36823,0.0771 0.19696,-0.0771 0.008,-0.31685 -0.13702,-0.29115 -0.15414,-0.24835 -0.0599,-0.17983 0.0514,-0.52237 -0.23977,-3.89638 -2.11518,-10.30186 -0.73646,-2.08093 -0.10276,-0.72789 0.1627,-0.55663 0.31685,-0.4453 0.4453,-0.29116 0.60801,-0.10276 0.45386,-0.16271 0.66796,-0.71933 0.77927,-0.50524 2.70606,-2.80026 0.4453,-0.67651 0.2826,-0.83066 0.46242,-3.44252 v -2.07236 l 0.4453,-1.01905 2.19225,-3.38258 -0.74502,-1.01905 -3.25412,-6.02012 -0.56519,-0.49669 -0.73646,-0.27403 -0.94198,-0.7022 -0.95055,-0.91629 -0.71076,-0.89061 -0.78784,-1.687 -0.42818,-0.59088 -0.29116,-0.53094 -0.15414,-1.10468 -0.23121,-0.47099 -0.64226,-0.87348 -2.14087,-4.49582 0.43674,-0.32542 0.72789,-0.1627 0.39392,-0.81353 0.0771,-1.2674 0.32541,-0.64226 0.7279,-0.24834 3.21986,-0.35966 1.00193,-0.35967 0.0514,-0.61657 -0.42817,-0.29972 -1.48148,-0.57376 -0.48812,-0.41104 -0.83066,-0.95911 -0.42817,-0.38536 -0.58232,-0.2569 -1.15607,-0.25691 -0.53093,-0.37679 -3.1428,-3.15992 -0.89916,-0.51381 -0.68508,0.32541 -0.7964,0.0942 -2.09806,-0.0171 -2.88589,0.41105 -0.64226,0.19696 -0.43674,0.0342 -0.89916,-0.82209 -0.32541,-0.22265 -0.78784,-0.23978 -0.83922,-0.0685 -0.71934,0.1884 -0.4453,0.49668 0.40249,0.74502 -0.70221,0.2826 -4.56433,-0.1884 -1.18176,-0.26546 -0.82209,-0.41961 -0.62514,-0.41105 -0.36823,0.0599 -0.2569,0.27403 -0.32541,0.23978 -0.35111,0.70221 -0.33397,0.0171 -0.2826,-0.13701 -0.23121,-0.15415 -0.22265,-0.0771 -8.52922,-1.04474 -0.64226,-0.2826 -2.21794,-1.40441 -0.49668,-0.59088 -0.56519,-1.26739 -1.32734,-1.30165 -6.85935,-4.93256 -0.51381,-0.0428 -1.10468,0.11133 -0.50525,-0.0685 -0.33397,-0.23121 -0.59088,-0.70221 -0.27404,-0.14558 -1.03618,0.0514 -0.62513,-0.0428 -0.46243,-0.16271 -0.75358,-0.5395 -1.73839,-0.84778 -0.83066,-0.55663 -0.23977,-0.46243 v -0.46242 l -0.17984,-0.35967 -0.78784,-0.14558 -1.17319,0.61657 -0.58232,0.11989 -1.02762,-0.16271 -10.03639,-4.76129 -1.524299,0.45386 -12.382792,-1.12181 -2.072361,0.32541 -4.2903,1.32734 -1.26739,0.0942 -0.9163,0.17127 -1.67844,0.87347 -1.90965,0.66795 -1.72126,0.89917 -0.78784,0.17983 -2.62042,1.74695 -0.38536,0.66795 -0.88204,2.0638 -0.30828,0.4453 -0.65083,0.11133 -2.68893,0.89916 -1.25883,0.76215 -1.37872,1.13038 -2.21794,2.30357 -1.2417,2.45772 -0.40249,0.39392 -0.65939,0.11989 -4.2903,1.38728 -9.68529,1.91822 -0.58231,0.22265 -0.38536,0.41961 -0.91629,0.39392 -1.04475,0.29972 -0.83065,0.12846 -0.008,-0.55663 0.35111,-0.6337 1.08756,-1.28452 -0.5395,-0.17127 -0.83066,-0.0942 -0.76215,0.0856 -0.34254,0.35966 -0.41104,0.33398 -1.93535,0.16271 -0.6337,0.19696 -0.57375,0.28259 -1.4301,0.3511 -0.57375,0.83922 -0.71933,0.26547 -2.11518,0.24834 -4.56434,1.36159 -0.38535,1.38729 0.76215,1.3359 2.10661,2.16656 -1.08756,0.60801 -0.34254,0.11988 0.40249,1.02762 -0.25691,1.9696 0.23978,0.81353 -0.71933,0.5395 -0.17127,0.67652 0.18839,1.79833 -0.1627,0.89916 -0.75359,1.30165 -0.1627,0.59088 -0.23978,0.45386 -1.50717,1.86684 -0.68508,2.27788 -0.35967,0.51381 -1.35303,0.3768 -4.1275899,0.65938 -0.87348,0.52238 -0.77927,1.02761 -0.0685,0.20553 -0.55663,0.18839 -0.11989,0.43674 0.12846,0.73646 -1.31878,3.77649 -0.24834,0.3511 -0.69364,0.61657 -1.67844,0.71077 -0.24834,0.35967 0.13701,1.10469 0.47956,0.64226 0.87347,0.33397 1.3359,0.17127 4.23892,-0.24834 2.0381099,0.10276 2.09805,0.87348 0.52238,0.3511 0.46242,0.39392 0.32541,0.50525 0.2826,1.35303 0.37679,0.11988 1.00193,-0.41104 1.63562,-0.91629 1.74695,-0.34254 0.70221,-0.40249 0.94198,-0.71077 0.67651,-0.83065 -0.0942,-0.69364 -2.20082,-1.49861 -0.87347,-0.93342 0.11132,-0.89917 2.31214,1.37016 1.01049,0.12845 1.57568,-0.45386 0.54806,0.36823 0.59945,0.608 0.33397,0.69365 -0.24834,0.61657 -0.49668,0.58231 0.12845,0.30829 0.3511,0.21408 0.20553,0.30829 0.22265,0.14558 1.1475,1.42154 0.46243,0.20552 0.48812,0.11132 0.55663,-0.0514 0.61657,-0.26546 -0.17127,-0.56519 0.17983,-0.38536 0.42817,-0.2569 0.60801,-0.1884 0.56519,-0.0428 0.37679,0.11989 0.30829,0.17127 0.32541,0.0771 1.65275,0.009 1.05331,0.1627 0.7964,0.37679 1.2674,1.20745 0.77927,0.50525 0.94198,0.23978 0.9848,-0.17127 0.95055,-0.3768 0.95911,-0.20552 0.97624,0.37679 -0.8221,0.83922 0.0514,1.079 0.78784,0.8221 1.37872,0.0856 1.10469,-0.53093 0.62513,-0.80497 0.29116,-1.11325 0.0771,-1.4301 1.01906,1.16463 -0.23978,1.50717 -0.4453,1.57568 0.36823,1.37016 0.84778,-0.47956 1.93535,-1.96103 0.60801,-0.34254 0.62513,-0.11133 0.27403,0.29116 -0.45386,0.86491 1.31877,-0.33397 2.98009,-1.44723 h 0.93342 l -0.29972,0.50524 -1.06187,1.079 -0.33398,0.1884 -1.45579,0.29972 -0.33397,0.21409 -0.16271,0.3511 -0.71933,0.57375 -0.16271,0.48812 -0.3511,2.09805 0.13701,0.25691 0.29973,0.29115 0.30828,0.24834 0.37679,0.22265 -0.15414,0.27404 -0.23121,0.3511 -0.0428,0.30828 0.47956,0.66795 0.39391,0.20553 0.50525,-0.06 2.05523,-0.46242 1.7127,-0.9848 1.1732,-0.0942 -0.10277,0.40248 -0.0856,0.0856 -0.0685,-0.0771 -0.0257,-0.0685 0.20552,1.20745 -0.20552,0.76215 -0.57375,0.55662 -0.8906,0.65083 -0.73646,0.7964 -0.60801,0.92486 -0.72789,0.83065 -1.09613,0.56519 0.53094,1.14751 0.14558,0.47099 0.0428,0.67651 -0.17983,1.68701 0.17983,0.58231 0.3768,0.47956 0.39392,0.16271 0.39392,0.0685 0.39392,0.17127 0.2569,0.47956 -0.10276,0.5395 -0.22265,0.55662 -0.11989,0.52237 0.21409,0.57376 0.53093,0.41104 1.03618,0.57376 1.22458,1.77264 1.31877,-0.15415 2.37209,-0.72789 1.39584,-0.15414 -1.28452,0.4453 -0.57375,0.4453 -0.23121,0.67651 -0.29973,0.45387 -1.41297,0.77071 -0.41105,0.34254 0.19696,1.21601 1.28452,1.12182 7.21045,3.09998 1.11325,0.88203 0.80497,1.11325 0.65082,1.19889 0.81353,1.09613 1.28453,0.81353 2.15799,0.23121 1.89253,-0.69364 3.605221,-2.01242 3.493898,-0.66795 0.890602,-0.5395 0.984799,-0.41104 1.156069,0.27403 1.010496,0.55662 0.548063,0.47099 0.385356,1.05331 0.291158,1.2674 0.513809,1.07043 1.087561,0.4453 0.573753,0.16271 0.325412,0.34254 0.256905,0.36823 0.411046,0.21408 0.513809,-0.10276 3.682295,-2.31214 1.156069,-0.54806 1.156069,-0.22265 1.20745,0.21409 3.177052,1.53286 2.14943,0.21409 1.91822,-0.57376 1.99529,-0.83922 2.34639,-0.54806 2.36352,-0.10276 1.16463,-0.23122 1.75552,-1.10468 1.16463,-0.12846 1.99529,0.14558 2.20081,-0.55662 1.12182,-0.11133 0.47955,0.50525 0.56519,0.43673 1.28452,0.008 2.38065,-0.2826 0.96767,0.25691 1.96104,0.7964 1.56711,-0.31685 1.20745,-0.0428 0.76215,-0.23977 -0.5395,-0.77072 v -0.38592 l 0.87348,0.31684 0.60801,1.47292 0.7964,0.33398 0.81353,-0.36823 0.64226,-0.8906 0.83922,-1.90966 0.17127,0.61657 -0.17127,2.17512 1.00193,-0.47955 0.52237,-0.15414 0.38536,0.12845 0.37679,0.29972 0.38536,0.11989 0.30828,-0.0942 0.13702,-0.32541 0.39392,-0.70221 0.85634,-0.49668 0.86491,-0.33397 0.39392,-0.21409 0.32542,-0.92486 0.83065,-0.2569 1.95248,-0.0599 0.45386,-0.20553 1.32734,-0.83922 0.43674,-0.11989 0.85634,-0.0599 0.45387,-0.16271 0.26547,-0.31685 0.77927,-1.25883 0.22265,-0.20552 0.53094,0.0428 0.54806,0.12845 0.27403,0.0343 0.74502,-0.2569 1.18176,-0.10276 0.93342,0.1627 -0.0428,0.54807 -0.22265,0.37679 -0.12845,0.84778 -0.17127,0.34254 -0.38536,0.19696 -1.09612,0.33398 -0.26547,0.1627 0.13702,0.66795 0.77071,-0.0171 0.92485,-0.33398 0.61658,-0.31685 0.3511,0.35111 -0.92486,0.41961 -0.76215,0.68507 -0.7964,0.38536 -1.01905,-0.43674 -0.34254,0.75359 -0.59945,0.67651 -0.7964,0.50525 -1.75551,0.47099 -0.71933,0.59944 -0.36823,0.59088 0.18839,0.27403 0.59945,0.2826 0.82209,1.21601 0.85635,0.24834 0.74502,-0.29115 0.99336,-0.6337 1.4301,-1.1732 h 0.31685 l 1.05331,0.78784 0.54806,-0.97623 0.53094,-2.63755 0.37679,0.91629 0.11989,1.29308 -0.13702,1.32734 -0.35966,1.03618 -0.79641,0.80497 -1.07043,0.55662 -2.36352,0.73646 v 0.3768 l 1.31021,-0.0514 2.29501,-0.65939 1.31878,-0.0514 -0.94198,0.89916 -2.58617,0.99336 0.21408,0.7279 1.13038,0.51381 1.4301,0.13701 2.87733,-0.0942 -0.95054,0.90772 -1.63563,0.14558 -3.57953,-0.35966 -0.92486,0.47955 0.51381,1.09613 1.01906,1.28452 0.608,0.9848 h -0.31685 l -0.45386,-0.57375 -1.37872,-1.18176 -0.29116,-0.53094 -0.5395,-0.42817 -1.22457,0.10276 -2.26933,0.48812 h -0.95054 l -0.81353,0.11132 -0.31685,0.41105 0.52237,0.87347 0.8221,0.45387 1.76407,-0.0771 0.90773,0.3511 -0.51381,0.52237 -0.23978,0.48812 -0.0428,0.49668 0.0942,0.59088 0.15415,0.0942 0.65939,0.78784 0.0685,0.19696 0.24834,0.5395 -0.42818,3.15134 -0.0171,1.09613 -0.11989,0.82209 -0.29972,0.24834 -0.60801,-0.59088 -0.7022,-2.27788 -1.079,-1.60136 -0.86491,-1.90965 -0.6337,-0.6337 -1.12181,-0.24834 -0.17127,0.47099 v 2.86875 l -0.15414,1.05331 -0.68508,2.02098 -0.21409,0.95911 0.0342,1.02762 0.12845,0.78784 -0.0257,0.65082 -0.47955,0.67651 -0.71077,-2.38921 0.17127,-0.58231 0.22265,-0.53094 -0.0428,-3.1171 -0.10276,-0.67652 -0.31685,-0.5823 -1.36159,-1.05331 -0.34254,-0.17983 -0.2826,0.0171 -0.30828,0.10277 -0.35967,-0.0343 -0.43673,-0.43673 -0.59088,0.67651 -0.48812,0.34254 -1.01906,0.40248 -0.31685,0.0685 -0.62513,-0.0428 -0.28259,0.14558 -0.10277,0.26547 -0.009,0.73645 -0.0685,0.19696 -1.00192,0.12845 -0.33398,-0.8906 -0.13701,-1.13037 -0.61657,-0.82209 -0.24834,-0.5395 -0.38536,-0.3511 -0.59088,0.2569 -0.22265,0.5395 0.0942,0.65939 0.19696,0.67651 0.10276,0.61657 -0.1884,2.32925 -0.41104,1.03619 -0.75359,0.31684 0.4453,-1.2417 0.11133,-1.16463 -0.23978,-2.51765 0.11133,-2.00386 -0.11133,-0.43673 -0.56519,-0.1884 -0.38536,0.42817 -1.37872,3.24556 -0.33397,1.27595 -0.13702,1.20745 0.31685,2.27788 -0.2569,0.79641 -1.13894,0.0685 0.39392,-1.2417 -0.008,-4.38449 0.19696,-1.42154 -0.0942,-0.61657 -0.48812,-0.75358 -0.59945,-0.47956 -0.77927,-0.31685 -0.78784,-0.008 -0.6337,0.46243 -0.27403,-0.68508 -0.15414,-1.79833 -0.26547,-0.69364 -2.75744,-1.36159 -0.96767,0.0171 -1.35303,0.48812 -0.85635,0.16271 -0.45386,-0.0942 -0.3768,-0.19696 -0.36823,-0.0942 -0.41961,0.20553 -0.29972,0.19696 -0.37679,0.15414 -0.38536,0.11132 -0.31685,0.0343 -1.31021,0.35966 -4.01627,1.8754 -0.84778,0.78784 -0.4453,1.00193 -3.01435,3.36544 -1.10468,2.42346 -1.2674,0.93342 -2.551915,3.66517 -0.907729,0.94198 -2.988653,2.20937 -0.676514,0.36823 -0.436738,0.52238 -0.950545,0.68507 -0.419611,0.16271 -0.633697,0.0514 -1.883965,-0.6337 -2.988653,-3.10854 -1.789772,-1.19888 -0.967673,-0.15415 -1.147505,-0.0342 -0.967673,-0.17127 -0.411047,-0.49668 -0.565189,-0.14558 -1.113252,0.0771 -0.796404,0.41961 0.351103,0.88204 v 0.31685 l -0.81353,0.0771 -1.130379,0.6337 -0.856348,-0.009 0.625134,-0.64226 -0.171269,-0.55663 -0.291159,-0.56518 0.214087,-0.68508 -0.78784,-0.0257 -0.256904,0.0257 h 0.385357 l -1.712699,0.11989 -0.76215,-0.11989 -2.12374,-0.87348 -0.71077,-0.17127 h -5.61764 l -0.35967,0.0942 -0.68507,0.24834 h -1.01906 l -2.05523,0.75359 -0.41105,0.32541 -0.12845,0.77071 2.52622,-0.19696 1.08757,0.47956 -1.31022,0.43673 -1.30164,0.25691 -2.16656,-0.14558 -0.48812,0.14558 0.29116,0.67651 -0.13702,0.31685 -0.36823,-0.11132 -0.45386,-0.55663 -0.36823,0.70221 -0.70221,0.13701 -0.88203,-0.11132 h -0.86492 l -1.92678,0.91629 -0.75358,0.57375 0.39392,0.25691 2.4149,-0.11989 1.13037,0.13701 0.48812,0.50525 -0.34254,0.71933 -0.78784,0.59088 -0.91629,0.41105 -0.75358,0.19696 v 0.38535 l 0.81353,0.21409 0.93342,0.10276 -0.31685,1.22458 -0.24834,0.37679 -0.47956,0.52237 -0.50524,0.35111 -0.46243,0.23121 -0.34254,0.35967 -0.0942,0.77927 h 0.31685 l 0.75359,-0.77071 2.14086,0.59944 0.97624,-0.50524 0.7964,1.7812 0.10277,0.31685 1.31877,0.11132 0.50525,-0.28259 -0.23978,-0.90773 0.4453,0.20552 0.41961,0.0856 0.41105,-0.0428 0.47099,-0.24834 0.53093,0.52237 0.90773,-0.0171 0.81353,-0.52238 0.1884,-1.00192 0.58232,0.29972 0.49668,0.33397 0.53093,0.26547 0.68508,0.11989 1.72126,-0.0514 0.55662,0.0514 2.44916,0.51381 0.84778,0.59088 -0.11989,0.99336 1.31878,0.39392 5.63477,3.13423 0.333975,0.3768 0.308286,0.47099 0.385356,0.37679 0.573753,0.16271 0.385356,0.22265 0.9848,0.9848 0.36823,0.22265 0.608006,0.27403 0.325412,0.59944 0.19696,0.59945 0.274032,0.27403 0.205523,0.32541 0.470991,1.43866 0.385357,0.33398 0.359671,0.12845 1.241704,0.65939 0.333976,0.26547 0.137015,0.90773 -0.693641,0.49668 -0.719332,0.35966 0.04282,0.50525 1.18176,1.06187 0.402483,0.50524 0.76215,1.66132 0.282594,0.46243 0.847785,0.74502 1.078997,0.48812 1.121816,0.10276 0.976236,-0.46243 0.22265,-0.51381 -0.41961,-1.15607 0.01713,-0.63369 0.214087,-0.30829 0.351102,-0.17983 1.704132,-0.34254 1.044744,0.0942 0.882038,0.5138 0.376793,1.12182 -0.368229,3.22843 0.04282,1.18176 0.428174,2.43203 0.548062,1.20745 0.924856,0.51381 1.104692,0.0171 0.47955,0.20553 0.71077,1.86683 0.32541,0.61657 0.32541,0.30829 0.39392,0.24834 0.52238,0.42817 0.32541,0.55663 -0.22265,0.35967 -0.79641,0.47099 -0.7964,0.82209 -0.23978,0.43674 -0.18839,0.71077 0.0257,0.49668 0.11989,0.42817 -0.0343,0.38536 -0.46243,0.42817 -1.978165,0.1884 -2.312138,-0.6337 -2.098052,-0.33397 -1.353029,1.09612 0.06851,1.70413 2.757439,5.66902 0.05138,0.54807 -0.05138,1.73838 0.154143,0.30829 0.719332,0.72789 1.156069,2.98009 0.08564,0.51381 -0.02569,0.57375 -0.967673,-0.7964 -0.539499,-0.20552 -0.231213,0.46242 0.214087,0.68508 0.496681,0.47956 0.573753,0.39392 0.453864,0.37679 0.291158,0.53094 0.496682,1.16463 0.445301,0.59088 0.48812,0.3511 1.10469,0.57375 0.53093,0.45387 0.2826,0.59088 -0.0343,1.06187 0.27403,0.62513 0.30828,0.35967 0.23978,0.10276 0.29116,0.0428 2.62898,1.07043 1.04475,0.10276 0.89916,-0.47955 1.41298,-1.76408 0.83922,-0.45386 1.41297,-0.0343 4.33312,0.80497 2.40634,0.10276 2.04667,-0.59088 0.94198,-0.75358 6.08007,-6.57675 0.76215,-1.38729 0.4453,-0.52237 0.45386,-0.28259 1.14751,-0.39392 0.52237,-0.38536 0.11133,-0.94198 -0.78784,-0.99336 -1.60994,-1.37872 -0.61657,-2.27789 0.62514,-1.72126 4.94968,-5.11239 0.8221,-0.38536 0.93342,-0.27403 0.9848,-0.66795 0.85634,-0.81353 0.52238,-0.71077 0.29115,-1.08756 -0.0856,-1.18176 -0.40248,-1.13038 -0.67651,-0.93342 -0.94199,-0.67651 -2.01241,-0.69364 -1.06187,-0.55663 v -0.3511 l 1.09612,0.0685 0.37679,-0.40249 -0.0428,-1.41297 -0.27403,-0.96767 0.0428,-0.30829 0.54806,0.20552 0.19696,0.22265 0.87348,1.92679 0.27403,0.36823 0.40248,0.0942 2.80026,-0.58231 0.71933,-0.29116 1.82402,-2.80026 -0.40248,-8.82894 0.65082,-3.40826 1.16464,-1.49861 1.48148,-1.49861 0.72789,-0.56519 3.45108,-1.76408 0.3768,-0.40248 0.31685,-1.36159 0.65082,-1.22458 0.0942,-0.29972 -0.62513,-0.97624 0.41961,-0.29972 0.91629,-0.0514 0.86491,-0.24834 0.34254,0.37679 0.35966,0.52237 0.27404,0.59945 0.0942,0.59088 -0.19696,0.78784 -0.74503,1.48148 -0.12845,0.90773 0.17127,0.82209 0.32541,0.66795 0.43674,0.53094 0.45386,0.41961 0.35967,0.1627 0.47955,0.12846 0.41961,0.20552 0.17984,0.38536 0.0428,0.45386 0.13701,0.33398 0.21409,0.23977 0.29972,0.1884 -0.78784,0.60801 -0.76215,-0.69365 -0.83065,-1.09612 -0.96768,-0.56519 -0.89916,0.33398 -1.21602,1.46435 -1.02761,0.33398 -0.95055,0.47099 -0.65082,2.25219 -0.66795,0.76215 -1.14751,-0.35967 -0.67651,-0.0171 -0.29973,0.54806 -0.0428,1.13038 -0.0942,0.45386 -0.21408,0.3768 -0.95911,-0.8221 -0.40248,0.84779 0.0171,3.69942 0.85634,3.78505 0.10276,1.30165 -0.27403,1.18176 -0.91629,0.50525 -1.31877,0.35966 -0.57376,0.88204 -0.0257,1.12182 0.35111,1.09612 2.12374,3.04004 0.43674,1.31877 0.49668,1.01905 0.0856,0.59088 -0.12845,0.43674 -0.57376,0.95911 0.36823,1.20745 0.68508,0.008 0.82209,-0.50524 0.76215,-0.32541 0.78784,0.18839 0.74503,0.45387 0.65082,0.57375 0.45386,0.53094 0.54807,1.51573 0.29972,0.22265 0.69364,-0.14558 -0.008,-0.37679 -0.29972,-0.51381 -0.46243,-1.49004 -0.55663,-1.08757 -0.40248,-1.15606 0.1884,-1.15607 0.27403,-0.33398 0.4453,-0.3511 0.47955,-0.2826 0.36823,-0.11989 0.42818,0.14558 0.14558,0.3768 -0.0428,1.0533 0.17127,1.01906 0.47099,0.7964 2.20937,2.48341 0.89061,1.37872 2.33782,5.532 0.61657,0.65083 0.84779,0.24834 0.59944,-0.45387 1.21602,-2.10661 0.82209,-0.60801 0.92485,0.24834 0.87348,0.76215 0.8906,0.56519 0.95055,-0.32541 0.61657,-0.62513 0.20552,-0.31685 0.0514,-1.01049 -0.0514,-0.54806 -0.16271,-0.40249 -0.0514,-0.36823 0.26547,-0.42817 0.99337,0.62513 0.75358,0.71933 0.58232,0.83066 0.91629,1.9696 0.0856,0.47099 -0.3511,0.35967 -2.12374,1.64419 -0.52237,0.78784 0.35966,0.65938 0.35967,-0.15414 0.59088,-0.36823 0.54806,-0.23978 0.23978,0.26547 0.0599,0.35967 0.26547,0.88204 0.0599,0.48811 0.43674,0.83922 1.02762,0.59945 1.20745,0.37679 1.00193,0.11989 0.90772,0.33397 0.59945,0.73646 0.45386,0.7279 0.51381,0.33397 0.16271,0.14558 0.17127,0.30829 0.29972,0.23978 0.58231,-0.0257 0.70221,-1.21602 -0.14558,-0.75358 -0.40248,-0.65083 -0.56519,-0.53093 -0.6337,-0.34254 v -0.3511 l 2.19225,-0.0599 0.58232,-0.8906 -0.46243,-1.37016 -0.91629,-1.54999 2.14087,1.54999 0.85634,0.19696 1.25883,0.0771 0.70221,0.17127 0.31685,0.29116 0.53093,0.65939 1.01906,0.85635 0.58231,0.94198 -0.73646,0.87347 1.04475,0.59945 1.26739,1.30165 0.8221,0.53949 0.37679,-0.22265 2.79169,-0.71933 0.77072,-0.37679 0.47954,-0.6337 0.15414,-1.01049 0.29116,-0.71077 0.67651,-0.48811 1.47292,-0.71934 0.1884,-0.35966 0.1884,-0.49668 0.30828,-0.29973 0.53094,0.26547 0.31684,0.06 3.97346,0.17983 3.81074,0.60801 2.26933,0.0428 0.3511,-0.10276 0.31685,-0.18839 0.33397,-0.14558 0.40249,0.0514 0.20552,0.17127 0.0257,0.21408 -0.008,0.1884 0.10276,0.15414 -0.0771,0.0514 0.13702,0.22265 0.35966,0.27403 0.65083,0.15415 0.40248,-0.21409 0.45386,-0.40248 0.3768,-0.12845 0.1627,0.56518 -0.17983,0.19696 -1.04474,0.67652 -0.2826,0.11132 -0.29116,0.23978 -0.41104,0.24834 -0.58232,0.10276 -0.47099,-0.1627 -1.27596,-0.91629 -0.90773,-0.22265 -4.20466,-0.21409 -2.11518,-0.48812 -0.86491,-0.0942 -1.05331,0.13702 -0.76215,0.35966 -0.47099,0.67652 -0.23978,2.84307 0.0771,0.52237 0.23978,0.33398 0.68508,0.62513 0.11988,0.41105 -0.4453,1.01905 -1.66131,1.3616 -0.35967,0.96767 0.50525,0.75359 1.18176,0.17127 1.28452,0.0257 0.89916,0.26546 0.0942,0.38536 0.25691,1.91822 0.13701,0.51381 0.31685,0.33397 2.68893,1.77264 0.89917,0.78784 0.52237,0.25691 0.17983,0.008 1.91822,-0.35967 1.06187,0.19696 1.2674,0.40249 1.06187,0.59088 0.45386,0.74502 0.35111,0.80497 0.82209,0.65082 11.57782,6.66238 2.158,0.62514 2.26075,-0.13702 2.99722,-0.95054 1.46435,0.18839 2.76601,-0.36823 0.83065,-0.29972 0.71934,0.52237 1.17319,0.27403 6.18283,0.73646 0.88204,0.41105 0.48812,0.31685 2.14087,0.56519 2.2265,0.0771 0.42817,0.10276 0.84779,0.30829 1.31877,0.10276 1.31878,-0.13702 0.84778,-0.45386 1.84971,0.65939 4.26461,-0.0257 1.95248,0.41961 1.01905,0.67651 2.32927,2.65468 1.01905,0.74502 0.7022,0.20552 0.68508,0.0257 0.90773,0.22265 0.71933,0.41961 0.60801,0.45387 0.77928,0.37679 1.23314,0.15414 0.0343,0.20553 1.54999,1.19032 4.61571,1.35303 4.51295,0.0685 1.02762,0.32541 1.39584,1.22458 0.52237,0.19696 1.03619,0.0342 0.3511,0.15414 1.19888,1.06187 3.79362,1.91822 4.53008,2.51767 3.54528,1.23314 2.42347,1.77264 0.5138,-0.0771 0.52238,-0.30828 1.17319,0.11132 0.65939,0.19696 0.1884,0.14558 -0.11989,0.89917 0.17127,0.49668 0.40248,0.52237 0.53094,0.40248 0.48811,0.16271 1.13038,-0.17127 1.06187,-0.41961 3.71655,-2.26932 1.12182,-0.30829 0.49668,0.51381 -0.26547,0.2826 -0.59944,0.30828 -0.61657,0.40249 -0.29972,0.58231 0.12845,0.36823 0.37679,0.26547 2.68893,1.1732 1.8069,-0.13702 1.5928,-0.97624 1.12181,-1.77264 h 0.35111 l -0.29973,1.65276 -0.41961,1.09612 0.11989,0.87348 1.29309,0.97623 1.75551,-1.74695 0.11989,1.49861 0.8906,0.85635 2.53479,1.13894 0.66795,-0.72789 -0.39392,-0.87348 0.41105,-0.64226 2.37208,-1.67844 0.19696,0.15414 -0.7964,3.05716 0.0514,0.73646 0.43673,0.32541 1.27596,0.32542 0.39392,-0.24835 -0.0685,-1.15606 1.37016,1.62706 0.76215,0.48811 0.68508,-0.71933 h 0.31685 l 0.0428,0.53094 -0.10276,0.48812 -0.23978,0.41961 -0.39392,0.36823 1.13038,1.06187 1.31878,0.77071 1.49004,0.29972 1.64419,-0.38536 0.17127,0.71934 0.29116,0.2569 0.41105,0.11989 0.53093,0.29972 0.87348,0.95911 0.50524,0.33398 0.70221,0.0771 0.37679,-0.29116 0.81353,-1.19032 0.24834,-0.26547 0.59944,0.2569 0.41105,1.13038 0.72789,0.35967 v 0.3511 l -1.07043,0.52237 0.29116,0.76215 0.95054,0.73646 0.9163,0.45386 1.56711,0.33398 0.81353,0.43674 0.49668,-0.14558 0.48812,-0.24834 0.43674,-0.06 0.7964,0.5395 0.47956,1.76408 0.85635,0.86491 0.98479,0.22265 0.99337,-0.27403 1.89253,-0.99337 -0.33398,0.89061 -0.95055,1.38728 -0.14557,0.89916 0.14557,0.14558 1.31022,1.78977 0.27403,0.26547 0.40248,0.23977 1.60993,-0.0599 2.6033,-1.95247 1.05331,0.26547 -0.83922,1.75551 0.31685,1.22458 2.26932,2.26075 1.41297,1.98673 0.65083,0.46243 1.34446,0.29972 0.53094,-0.51381 -0.0599,-1.02762 -0.41961,-1.20745 0.7279,0.25691 0.53093,-0.22265 0.35111,-0.58232 0.17127,-0.85635 0.49668,0.31685 0.18839,0.49668 -0.0257,1.28452 -0.51381,2.28645 v 1.11325 l 0.71077,0.471 0.35111,0.0942 1.03618,0.4453 0.22265,0.16271 -0.0856,0.54806 -0.34254,0.1884 -0.48812,0.0771 -0.50524,0.23978 -0.67652,0.53093 -0.45386,0.52238 -0.24834,0.73645 -0.0771,1.19033 0.20552,2.29501 0.54806,2.05523 0.0514,0.53094 v 0.57375 l 0.10276,0.46243 0.53093,0.29116 0.0856,0.19696 0.13701,0.0856 1.02762,-0.71077 2.35496,-0.14558 1.01905,-0.31684 2.14087,-1.27596 0.96767,-0.41961 1.01905,-0.19696 1.2674,-0.06 2.19225,-0.38535 1.16463,-0.0514 1.01906,0.43673 -2.87733,0.86491 -2.80026,1.19033 -4.8298,2.80025 0.61657,0.65939 0.30829,0.46243 0.11988,0.45386 0.21409,0.26547 1.36159,0.79641 5.78891,1.31877 1.05331,-0.11989 2.19225,-0.58231 0.95055,-0.0856 -1.39585,1.01905 -3.70798,0.65083 -1.70414,0.95054 -0.42817,1.42154 0.71077,1.60993 3.20274,4.93257 0.17983,0.7964 0.21409,0.66795 0.95911,1.04475 0.22265,0.75358 0.11132,0.91629 0.94199,2.4149 0.0856,0.74503 -0.0856,2.43202 0.24834,0.99337 0.93341,1.96103 0.38536,1.38728 2.30358,4.27318 7.03917,6.43117 0.79641,0.3511 0.62513,0.47956 2.35496,3.00578 1.60137,1.37015 6.14857,3.90495 -3.37401,-1.83259 -1.01905,-0.26546 -2.0638,-1.00193 -1.04474,-0.0171 -0.59088,1.37016 0.10276,1.18176 0.5395,1.00193 0.86491,0.69364 2.3207,0.61657 1.15607,0.83922 2.766,2.52622 0.78784,0.43674 0.96768,0.2826 3.42539,0.29115 2.17512,0.50525 1.71269,0.87347 3.52816,3.34832 2.38921,1.16463 0.36823,0.41105 0.53949,0.17127 1.19889,0.0856 1.21601,0.26546 0.59945,0.70221 -0.52237,-0.0771 -2.12375,0.0771 -0.71076,-0.0685 -0.43674,-0.17127 -0.73646,-0.46243 -1.079,-0.29972 -0.49668,-0.23121 -0.20552,-0.34254 -1.57568,-1.22458 -1.03618,-0.48812 -1.44723,-2.18368 -1.00193,-0.49668 -0.51381,-0.0942 -0.9848,-0.45387 -0.46242,-0.15414 -0.7279,-0.0171 -1.71269,0.36823 -4.37594,0.35111 -0.75359,0.28259 -1.38728,1.3359 -0.84778,0.47099 -1.22458,0.0343 -2.10662,-0.84779 -1.0533,-0.23121 -2.12375,0.0257 -0.77071,0.22265 -0.82209,0.47956 -1.01049,1.42153 0.53093,1.21602 3.79362,2.9287 5.19803,5.03533 0.29116,0.42817 0.43674,0.3768 2.69749,0.84778 1.42154,0.77071 0.7964,0.20553 3.43396,0.17127 1.07043,0.21408 1.02762,0.38536 2.71462,1.5243 0.93342,0.8906 1.1732,0.0342 2.20081,-0.32541 h 2.23507 l 0.62513,-0.15414 0.40248,-0.39392 0.71934,-1.01906 1.25883,-1.28452 0.80496,-0.33397 0.93342,0.36823 v 0.37679 l -1.30165,0.42817 -0.77071,1.12182 -0.57375,1.34446 -0.70221,1.12182 -0.89916,0.30829 -7.82702,-0.13702 -0.66795,-0.22265 -1.49861,-1.09613 -0.83922,-0.42817 -2.08092,-0.3511 -11.06401,-0.34254 -1.05331,0.26547 -0.06,0.61657 0.5395,0.69364 0.7279,0.52237 0.4453,0.17127 0.43674,0.11133 1.06187,0.0599 0.48812,0.16271 0.3511,0.36823 0.27403,0.35966 0.80497,0.39392 3.77649,2.5091 1.27596,1.09612 1.0533,1.27596 2.02098,3.3997 0.47956,1.09613 0.47955,2.46628 0.70221,0.52237 2.16656,0.0343 1.81545,0.3768 1.79833,0.8906 1.12182,1.39584 -0.19696,1.88397 -0.42817,0.47099 -0.59088,0.40248 -0.50525,0.45387 -0.23121,0.58231 -0.34254,1.72983 -0.15414,0.36823 -0.54807,0.77927 -1.39584,3.27125 -0.24834,4.16185 -0.42818,1.51573 -1.41297,0.9848 -1.98673,0.48812 -0.61657,0.46243 -0.22265,0.9848 v 4.35025 l -0.28259,1.18176 0.0171,0.65938 0.73646,0.45387 0.20553,0.41961 0.0514,0.50524 -0.20553,0.46243 -1.0533,0.65082 -2.14944,0.46243 -0.81353,0.8221 -0.21408,1.07043 0.21408,1.1732 0.53094,1.15607 1.19889,1.7812 1.93534,3.7508 0.34254,0.14558 0.7279,0.0343 0.41104,-0.22265 0.40249,-0.50524 0.30828,-0.5395 0.11133,-0.28259 0.20552,-1.01049 0.50524,-0.79641 5.94306,-4.93256 1.69557,-0.82209 4.01627,-1.11326 1.19032,-1.08756 0.12845,-2.37208 0.16271,-0.26547 0.10276,-0.2569 -0.13702,-0.33398 -0.23977,-0.12845 -0.54807,-0.0856 -0.10276,-0.14558 -0.0428,-0.52238 -0.23121,-1.01049 -0.0428,-0.56519 0.57376,-0.608 1.31877,0.29116 2.29501,0.83922 -0.94198,0.65938 -0.89916,-0.21408 -0.86492,-0.34254 -0.81353,0.21409 1.079,1.19032 0.25691,0.62513 0.14558,1.72126 0.19696,0.95911 -0.0771,0.26547 -0.21408,0.3511 -0.17984,0.55663 -0.11988,0.58231 -0.008,0.4453 0.74503,1.81546 1.47291,1.35303 1.84971,0.90773 1.9011,0.47099 1.96103,0.0771 2.05524,-0.20552 4.07621,-0.92486 1.6185,-0.65082 2.69749,-1.56712 1.59281,-0.5395 7.07343,-0.74502 8.36652,-0.0942 2.10661,-0.59088 2.13231,-1.19032 0.95911,-0.76215 0.39392,-0.68508 0.19696,-3.33975 0.42817,-2.24363 0.35966,-0.60801 0.71077,-0.22265 1.30165,-0.0257 0.95055,-0.23978 0.82209,-1.13038 0.85635,-0.41105 -1.18176,2.62899 -0.87348,0.5395 -1.46435,-0.71933 -1.14751,0.80497 -0.33397,1.19032 0.14558,1.25883 0.45386,1.70413 -0.17127,1.8754 -0.20552,0.80497 -0.52237,0.23978 -0.67652,0.008 -0.68508,0.13701 -1.21601,0.7279 -0.91629,0.90773 -0.46243,1.06187 0.14558,1.1732 0.74502,1.39584 2.23507,2.75744 11.23528,8.31514 0.77071,1.12181 1.78121,1.86684 2.68893,1.079 0.47955,0.11989 0.21409,0.89916 0.5395,0.71077 3.48533,2.82595 0.33398,0.47099 2.79169,2.62899 5.84029,8.62342 12.03169,12.39134 3.27981,1.54143 0.59088,0.0514 2.26075,1.31878 0.008,0.009 1.57568,0.92486 5.48062,4.81267 1.92678,0.71077 2.43203,-0.23122 1.62706,-0.77071 3.99058,-3.09998 1.83258,-0.5395 1.97817,0.008 1.90109,0.4453 1.6185,0.78784 2.12374,1.47292 0.77927,1.04474 1.01906,0.16271 1.079,0.008 0.61657,0.10276 0.83065,-0.37679 0.68508,0.29972 0.65939,0.50524 0.7964,0.27403 0.70221,-0.10276 0.7964,-0.27403 0.7279,-0.33397 0.42817,-0.34254 1.28452,0.0856 4.33312,-0.77927 1.14751,0.17127 2.14943,0.71076 1.07043,0.16271 1.25027,-0.0771 1.04474,-0.21409 3.09998,-1.12181 1.02762,-0.20553 7.24469,-0.53093 1.72126,0.0514 0.59088,-0.16271 0.97623,-0.71077 0.54807,-0.17127 0.65082,0.11989 2.68037,0.92486 2.21794,1.2417 0.77071,0.19696 1.19889,0.0942 0.78784,0.26547 1.33591,0.67651 1.5243,-0.13701 1.84115,0.78784 1.74695,1.17319 2.44915,2.08093 1.54999,1.01049 1.79833,0.54806 2.04667,-0.22265 2.82595,-1.56712 0.34254,-0.59944 0.83922,-0.51381 5.48062,-2.11518 1.81546,-1.38728 2.38921,-0.96767 1.03618,-0.56519 0.43674,-0.52237 0.43673,-0.69365 0.47956,-0.608 0.58231,-0.26547 0.49669,-0.13702 1.19032,-0.71933 1.25027,-1.02761 0.86491,-0.42818 4.5472,-1.38728 0.74503,-0.13702 0.34253,-0.1627 0.23978,-0.35111 0.16271,-0.35966 0.12845,-0.17983 0.24834,-0.0257 0.54806,0.0599 0.78784,-0.14558 1.07044,-0.0685 0.52237,-0.17127 -0.3511,-0.3511 1.50717,-0.28259 2.90302,-0.008 1.53286,-0.40248 0.84778,-0.41961 0.57376,-0.38536 1.22457,-1.13038 0.46243,-0.7964 0.0257,-0.89916 -0.31685,-1.66988 v -6.6367 l -0.23121,-0.68507 -0.47099,-0.80497 -1.95247,-2.3207 -1.54143,-2.50054 -2.87733,-3.39113 -6.64526,-5.44637 -1.50717,-0.95911 -1.97816,-0.71934 -6.39692,-1.29308 -1.97816,-0.77071 -3.29694,-2.16656 -1.08756,-0.29972 -0.53093,-0.24835 -1.75552,-1.53286 -2.09805,-0.66795 -0.84778,0.30829 -4.06765,-0.68508 -1.83259,0.58231 -3.3997,2.28645 -1.81545,0.61657 -2.158,-0.21408 -1.66131,-0.9163 -1.13895,-1.39584 -1.55,-4.89831 -0.12845,-1.13038 -0.5395,-1.09612 -1.25027,-0.24834 -1.39584,0.20552 -2.16656,0.58231 -0.64226,0.0428 -0.8221,-0.31685 -0.31685,0.20553 -0.33397,0.29972 -0.40248,0.15414 -0.77072,0.19696 -0.69364,0.47956 -1.1475,1.06187 -0.77928,-0.32542 -0.19696,-0.41104 0.29116,-0.46243 0.68508,-0.5395 0.56519,-0.21409 0.57375,-0.0856 0.56519,-0.15414 0.55662,-0.43674 0.3768,-0.45386 0.29972,-0.25691 0.39392,-0.11132 1.80689,-0.13702 2.89446,-0.59944 2.21794,0.41961 1.08757,1.34446 1.19032,5.07814 0.47099,0.90773 0.76215,0.70221 1.11325,0.28259 2.2522,0.17984 1.00193,-0.0685 1.11325,-0.42818 2.90302,-1.8754 1.1475,-0.2569 0.95911,-0.0771 2.54335,-0.56519 0.86491,-0.40249 0.49669,0.27404 0.22265,0.0599 6.49111,1.04474 5.0182,2.29502 0.93342,0.19696 1.15607,-0.0771 11.99743,-3.09141 4.35024,-0.32541 1.42154,-0.85635 0.51381,-0.22265 12.99935,-0.29116 1.04475,-0.14558 0.84778,-0.4453 0.29972,-0.97623 -0.37679,-1.28453 -2.9544,-5.19803 -0.51381,-2.02954 -0.59944,-0.67651 -4.17041,-1.83259 -0.92486,-0.73646 -0.38536,-0.93342 -0.18839,-1.26739 -0.55663,-0.4453 -2.08092,-0.20552 -0.52237,-0.16271 -0.43674,-0.24834 -0.29116,-0.34254 -0.11989,-0.45386 0.26547,-0.29116 0.57375,0.11132 0.5395,0.23122 0.17983,0.13701 1.34447,0.008 0.94198,0.15415 0.73646,0.50524 0.65939,1.04475 0.84778,1.89252 0.56519,0.65083 0.8906,0.24834 2.90302,0.21409 3.29694,-0.8221 1.19032,-0.0257 0.9848,0.46243 0.49668,0.31685 1.78121,0.55662 0.45386,0.32542 0.87348,0.78784 0.41104,0.28259 0.95911,0.27403 4.76986,0.0514 1.05331,-0.17127 0.87347,-0.50524 0.7964,-1.04475 -1.92678,-1.93534 -0.89916,-0.51381 -0.43674,-0.11133 -0.87348,-0.0856 -0.43673,-0.15414 -0.3511,-0.25691 -0.38536,-0.56519 -0.31685,-0.21408 2.98865,0.13701 0.85635,0.20553 0.77928,0.69364 0.7022,0.9848 0.75359,0.83922 0.94198,0.27403 0.0856,-0.11989 0.71077,-0.9848 -0.82209,-2.14943 -2.44915,-3.72511 -1.31022,-1.58425 -0.56519,-0.92485 -0.22265,-1.19033 -0.0514,-1.21601 -0.17983,-1.079 -0.32541,-1.02761 -4.16185,-7.00493 -0.87348,-2.09805 0.0771,-0.31685 0.17983,-0.3511 -0.0942,-0.27403 -1.18176,-0.22265 -1.13038,-0.47099 -0.49668,-0.11133 -0.48812,-0.32541 -1.63562,-1.72982 -0.53094,-0.80497 0.38536,-0.69364 0.19696,0.52237 0.11989,0.17127 0.47955,0.48812 1.74695,1.35303 0.77071,0.29116 0.59088,0.008 1.20745,0.14558 0.50525,0.18839 0.48812,0.29116 0.18839,0.21409 0.36823,0.8906 1.84115,3.3997 0.25691,1.01905 0.52237,0.92486 1.20745,1.00193 3.72511,2.17512 9.59966,3.27981 0.88203,0.67652 0.50525,0.26546 0.59944,-0.12845 0.61657,-0.23978 0.55663,-0.0856 0.65082,0.1884 0.49668,0.30828 0.95055,0.93342 0.7022,-0.34254 1.92679,-0.7022 0.51381,-0.38536 -0.0685,-0.62513 -0.48812,-0.71077 -0.65939,-0.56519 -0.52237,-0.23122 0.6337,-1.02761 0.31685,-1.14751 -0.32542,-0.84778 -1.32734,-0.0771 v -0.38536 l 0.65939,-0.13702 0.61657,-0.2569 0.49668,-0.40248 0.32542,-0.59945 0.7964,0.81353 1.13894,2.3464 0.84779,0.39392 0.50524,-0.59945 -0.34254,-1.19888 -0.59088,-1.4558 -0.23121,-1.35302 1.70413,2.51766 0.55663,1.39584 0.21408,1.53287 0.39392,1.37015 0.8906,0.42818 0.93342,-0.43674 0.5395,-1.19032 0.55663,0.36822 0.71077,0.66796 0.59944,0.71933 0.26547,0.5395 0.23977,0.22265 1.01906,1.37015 0.13701,0.30829 1.30165,-0.20553 -0.40248,-1.22457 -1.01905,-1.32734 -0.57376,-0.56519 -0.19696,-0.80497 -0.41961,-0.69364 -0.48812,-0.59088 -0.29972,-0.52237 -0.28259,-1.3359 -0.10276,-1.66988 -0.12846,-0.77071 -0.67651,-1.40441 -0.23978,-0.78784 -0.0942,-1.94391 -0.22265,-0.88204 h 0.31685 l 0.41961,0.6337 0.57376,1.64418 0.43673,0.89917 0.23978,0.1884 0.3511,0.18839 0.31685,0.20553 0.14558,0.27403 0.0257,0.31685 0.17983,0.89916 0.14558,0.36823 0.48812,0.56519 1.3359,1.05331 0.26547,0.66795 0.21409,0.17127 0.47955,-0.15414 0.49668,-0.3768 0.23978,-0.49668 -1.1475,-0.99336 -0.2826,-0.43674 -0.0343,-0.64226 0.41104,-1.64419 -0.0257,-3.62235 0.29116,-0.62513 0.78784,0.91629 0.0856,0.5395 -0.13702,1.25027 0.20552,0.47955 0.29973,0.35967 0.17126,0.37679 0.0599,0.45386 0.008,0.57376 0.20553,0.71077 0.47099,0.94198 0.56519,0.86491 0.47099,0.49668 0.9848,0.2569 1.30165,-0.0343 1.13894,-0.36823 0.48812,-0.76215 -0.1884,-0.90773 -0.32541,-0.93342 -0.17984,-0.93341 0.29973,-0.95055 1.30164,1.07043 0.56519,0.62514 0.48812,1.13894 1.84115,1.38728 1.10469,1.29309 0.71077,0.60801 0.82209,0.2569 0.90773,-0.0257 1.02761,-0.15414 0.62514,-0.42818 -0.30829,-0.82209 0.47099,-1.08756 0.21409,-2.46628 0.39392,-0.9848 0.61657,0.84778 0.16271,1.15607 -0.0685,4.96682 -0.39392,0.95054 -0.83922,1.01049 0.0514,0.31685 0.40248,0.40248 0.53094,0.35967 0.42817,0.14558 0.13702,0.10276 0.27403,0.47099 0.0942,0.12845 h 0.29972 l 0.60801,-0.24834 0.33397,-0.0685 0.81353,0.28259 0.61657,0.47956 0.55663,0.0942 0.65082,-0.85634 1.53286,1.74694 0.55663,0.35111 h 3.17705 l 0.47099,-0.24834 0.17983,-0.26547 0.0171,-1.09613 0.17127,-0.45386 0.35967,0.12845 0.37679,0.47956 0.17127,0.55662 0.48812,0.95055 1.13894,0.67651 1.29308,0.35111 0.95055,-0.0771 -0.0514,-0.27403 0.38536,-0.75358 0.47955,-0.53094 0.39392,0.65939 0.7279,0.49668 0.36823,0.59088 1.07899,0.97624 0.46243,0.27403 0.57375,0.0599 0.5395,-0.12845 0.49668,-0.17983 0.45387,-0.10276 1.93534,0.23977 1.4558,0.75359 2.96296,2.80882 0.78784,0.41105 0.94198,0.22265 1.21601,0.0685 3.45965,-0.65082 0.95054,0.33398 v -0.34254 l 0.8221,0.32541 0.78784,-0.0856 0.76215,-0.19696 0.77071,-0.0428 0.68508,0.28259 0.95054,0.91629 0.65083,0.1884 3.12567,0.0343 0.91629,-0.39392 -0.74502,-1.02761 0.95054,-0.43674 0.85635,0.15414 0.75358,0.0171 0.61658,-0.7964 h 0.34253 l -0.608,1.21601 -0.0856,0.3511 0.11989,0.21409 0.27403,0.17127 0.23978,0.19696 0.0599,0.29972 -0.21408,0.27403 -0.68508,0.0942 -0.14558,0.15414 0.11989,0.40248 0.23121,0.27404 0.23978,0.20552 0.11133,0.17127 0.69364,0.84778 3.22843,1.07044 0.99336,0.7022 1.3359,-0.41961 1.66988,0.0771 2.93727,0.71934 2.6975,1.39584 1.51573,0.56519 1.05331,-0.21409 0.24834,0.47956 -0.10276,0.39392 -0.3511,0.29972 -0.52238,0.22265 0.65939,0.57375 0.58232,0.83922 0.14558,0.83066 -0.65939,0.54806 0.85635,1.78977 0.55662,0.51381 1.20745,0.17983 0.4453,0.32541 1.49005,1.43867 1.687,0.62513 0.67652,0.71077 0.49668,0.91629 0.29972,0.87348 v 1.58424 l 0.0856,0.21409 0.43673,0.59944 0.14558,0.42817 0.0599,2.05524 0.62513,1.55855 4.39306,6.43117 1.23314,1.12182 2.45772,1.41297 0.34254,0.54806 0.25691,0.67652 0.64226,0.89916 2.43202,2.72319 0.27403,0.48812 0.23122,0.61657 0.0428,0.49668 -0.0599,0.53093 v 0.51381 l 0.21409,0.41961 0.38535,-0.008 0.65939,-0.0856 0.60801,0.11989 0.27403,0.65083 0.0599,0.38535 0.15415,0.34254 0.23121,0.27403 0.24834,0.20553 -0.31685,0.82209 0.51381,0.19696 0.84779,-0.31685 0.71076,-0.7022 0.13702,0.91629 -0.23121,0.71933 -0.5395,0.62513 -0.76215,0.59945 -0.88204,-0.3511 -0.28259,0.66795 -0.0942,0.94198 -0.31685,0.47955 0.29972,0.29116 0.29972,0.69364 0.13702,0.81353 -0.21409,0.68508 0.76215,1.01049 0.64226,1.19032 0.81353,1.14751 1.27596,0.87348 0.95911,0.31684 3.55384,0.77928 0.7279,0.45386 0.37679,0.16271 0.59088,0.0428 0.92485,-0.15414 0.61657,0.11132 1.72983,0.85635 1.52428,1.01049 1.57568,0.68508 1.82402,-0.14558 0.59945,-0.43674 1.60137,-1.60993 0.0599,-0.35967 -0.1627,-0.23978 0.0428,-0.52237 0.31685,-0.49668 0.65939,-0.14558 0.29972,0.22265 0.23978,0.46243 0.1627,0.55662 0.0257,0.51381 -0.3511,0.64226 -1.44723,1.08757 -0.32541,0.52237 -0.22265,0.0514 -1.17319,0.80496 -0.96768,0.20553 -0.39392,0.17127 0.21409,0.42817 0.26547,0.39392 0.27403,0.33398 0.28259,0.23977 -0.69364,1.13895 0.0771,1.51573 0.46243,1.24171 0.47956,0.32541 0.22265,0.54806 -0.17127,0.41961 -0.45387,0.27403 -0.61657,0.12845 0.5395,0.70221 2.09805,-0.45387 1.00193,0.30829 0.85635,1.12182 0.45386,1.13037 0.6337,2.49198 0.49668,0.94198 1.32734,1.97816 0.66795,1.59281 0.88204,0.67651 0.94198,0.41105 0.58232,0.0171 h 0.009 l 0.21409,-0.0514 0.17983,-0.31684 0.0685,-0.48812 -0.12845,-0.57375 -0.31685,-0.35967 -0.81353,-0.26547 -0.25691,-0.41961 0.84779,-0.19696 0.71077,-0.0685 0.63369,0.15415 0.59945,0.45386 0.31685,0.67651 0.2569,1.72126 0.29972,0.59088 1.10469,0.75359 1.55855,0.77071 1.59281,0.48812 1.19032,-0.0771 -0.58231,-1.01049 0.17983,-0.43674 0.62513,0.0343 0.8221,0.35966 0.91629,0.57375 0.71933,0.60801 0.45386,0.82209 0.0343,1.14751 0.3511,-0.3511 0.95055,0.49668 0.57375,0.77928 0.41961,0.83922 0.49668,0.67651 1.37872,1.37016 4.59859,5.92592 0.47099,0.92486 0.18839,1.04474 0.0771,2.19225 0.21408,0.80497 0.41105,0.71933 0.65939,0.59088 0.81353,0.58232 0.68508,0.64226 0.28259,0.80496 0.37679,0.77072 1.82402,1.77264 0.65939,0.46242 0.50525,0.0514 0.69364,-0.008 0.59944,0.0942 0.25691,0.35967 0.24834,0.2569 0.55662,0.27403 0.65939,0.21409 0.47955,0.0856 0.89061,4.25604 h 0.34254 l 1.95247,-1.96102 1.20745,-0.27404 2.11518,0.45387 0.63369,0.66794 0.29116,0.11132 0.17983,-1.05329 0.21409,-0.40249 0.33398,-0.26546 0.43673,-0.0771 0.61657,0.45387 0.0942,0.8649 -0.43673,0.82209 -0.96768,0.30829 v 0.3511 l 1.25883,-0.0771 0.95911,-0.29116 0.81353,-0.11132 0.80497,0.47955 0.52237,0.87347 0.43674,1.06188 0.57375,0.97623 0.94198,0.57375 0.76215,-0.37679 0.56519,-0.5395 0.76215,-1.20745 1.92678,0.54806 2.44916,-0.36822 1.99529,-1.14751 0.62513,-1.79833 0.42818,0.35967 0.33397,0.75358 0.30829,0.29116 0.34254,0.0599 0.94198,-0.0771 0.46243,0.0171 1.07899,0.38536 0.74503,0.59944 0.61657,0.6337 0.73646,0.47099 0.40248,-0.77071 0.95911,0.1627 0.9848,0.77928 0.4453,1.0533 0.52237,0.64227 3.32263,1.27595 1.00193,-0.34254 4.01627,-0.0428 0.74502,-0.13702 0.6337,-0.26547 0.26546,-0.43673 0.2826,-0.21409 0.65082,0.0856 1.19033,0.34254 h 2.4149 l 0.56519,0.29116 0.33397,0.0771 0.15414,-0.20552 0.52238,-0.58232 0.88203,-0.41104 0.38536,-0.97624 0.32541,-2.0638 h 0.31685 l 0.49668,1.66132 0.23978,0.45386 0.33397,0.23978 0.59945,0.24834 0.56519,0.0514 0.24834,-0.35967 0.35966,-0.71076 0.69365,0.38535 0.46242,0.75359 -0.29115,0.41104 -0.69365,0.0257 -0.5395,0.11989 -0.41104,0.31685 -0.2826,0.59088 0.17984,0.0171 0.52237,-0.0171 -0.11133,0.17984 -0.12845,0.3511 -0.11132,0.1627 0.46242,0.39392 -0.11132,1.12182 0.51381,0.23121 0.68508,0.0771 0.94198,0.2826 0.65082,0.0257 2.63755,-0.38536 0.77928,0.0514 0.61657,0.14558 3.47677,1.68701 0.97624,0.34254 1.01049,-0.10277 0.42817,-0.29972 0.5395,-0.47955 0.60801,-0.4453 0.68507,-0.20553 0.50525,-0.0514 0.60801,-0.1627 1.19032,-0.47956 0.29972,0.17127 0.46243,-0.0171 0.99336,-0.15415 0.43674,0.06 0.93342,0.26546 1.36159,0.17127 0.74502,0.2826 3.6823,1.8754 0.66795,0.17127 0.93342,0.0856 1.12181,0.20553 1.01906,0.34254 0.61657,0.41104 0.51381,-0.43673 0.95054,-1.01906 0.65939,-0.29116 2.27788,0.87348 0.26547,0.53093 0.0343,0.51381 0.16271,0.3768 1.28452,0.2569 0.40249,0.24834 -0.009,0.34254 -0.57375,0.3511 0.87347,0.40249 0.55663,-0.23122 0.4453,-0.41104 0.56519,-0.10277 0.33397,0.29973 0.14558,0.90772 0.41961,0.17984 h 1.58425 v -0.34254 l -0.70221,-0.31685 0.3511,-0.38536 0.85635,0.31685 0.62514,-0.31685 0.54806,-0.3511 1.27594,0.45386 0.94199,-0.0771 1.72126,-0.36823 3.34831,-0.14558 1.69557,0.17984 1.079,0.50524 1.079,0.75359 2.82595,0.86491 1.34446,0.83066 0.49668,0.52237 0.29116,0.48812 0.43674,1.25883 0.17127,0.18839 0.23121,0.11133 0.20553,0.17983 0.0942,0.39392 0.009,0.48812 0.0856,0.40248 0.21409,0.35111 0.38536,0.33397 0.42817,-0.50524 0.22265,-0.8221 0.12845,-0.77071 0.0856,-0.3511 0.20552,-0.11133 0.33398,-0.49668 0.20552,-0.11132 0.37679,0.0514 0.60801,0.26546 1.08756,0.20553 1.05331,0.67651 0.5395,0.23122 0.75358,0.0428 0.71077,-0.0257 0.68508,0.0428 0.66795,0.2826 -1.13894,0.22265 -0.29116,0.12845 -0.11989,0.27403 -0.11132,0.85635 -0.11989,0.29116 -0.43674,0.20552 -2.36352,0.71933 -2.28645,-0.59944 -1.37015,0.29116 -0.54807,-0.0428 -0.3511,-0.57375 -0.47099,0.13701 -0.37679,0.20552 -0.30829,0.29116 -0.21408,0.39392 0.73645,-0.21408 0.2826,-0.13702 -0.10276,0.92485 -0.6337,0.34254 -0.7964,0.25691 -0.59088,0.59944 0.59088,0.0685 0.53093,0.13702 0.51381,0.21408 0.48812,0.2826 -0.008,-0.25691 0.0599,-0.0685 h 0.12845 l 0.17127,-0.0599 -0.3511,-0.66795 1.49005,0.52237 0.64226,0.40248 0.30828,0.471 h 0.35967 l 0.15414,-0.25691 0.5395,-0.47099 -0.17127,0.85635 -0.11133,0.22265 0.8221,0.54806 0.45386,0.16271 0.43674,-0.008 0.49668,-0.95054 0.3511,-0.47099 0.16271,0.19696 0.32541,0.53093 0.51381,0.54807 0.11133,0.58231 -0.95055,0.60801 0.52237,0.33397 0.48812,0.0428 0.41961,-0.0514 0.34254,0.0257 0.38536,0.24834 0.67651,0.83066 0.47955,0.0685 0.20553,-0.16271 0.20552,-0.12845 0.49668,0.22265 0.24834,0.26547 0.83066,1.10468 0.77928,-0.5138 1.29308,-0.48812 1.22458,-0.19696 0.54806,0.33397 -0.1627,0.41105 -0.29973,0.34254 -0.19696,0.30828 0.13702,0.33398 1.21601,0.81353 0.35111,0.42817 1.00192,-0.87347 0.51381,-0.32541 0.54806,-0.19696 -0.0343,0.14558 0.31685,0.23977 0.4453,0.20553 0.3511,0.10276 0.009,-0.10276 2.37208,-1.20745 1.06187,-0.21409 0.83922,0.35967 0.6337,1.16463 0.63369,-0.21409 0.86492,-0.11989 0.89916,0.0343 0.71933,0.29972 -0.0171,-0.68508 0.27403,-0.43674 0.31685,-0.26546 0.15414,-0.1884 0.2569,0.0771 0.54806,-0.50524 0.5052,-0.60801 0.086,-0.21409 0.805,-0.54806 0.4025,-0.11989 0.7364,-0.0257 1.3616,-0.31685 0.1884,0.13702 0.5652,0.28259 6.2,-2.25219 0.7878,-0.47099 0.2826,-0.55663 -0.1884,-0.53093 -0.5994,-0.83066 -0.3511,-1.75551 -1.1904,-0.95911 -6.1999,-1.86684 -0.8221,-0.61657 -0.5224,-0.29972 -1.6955,-0.25691 -0.5567,-0.1627 -0.41956,-0.24834 -0.95054,-0.36823 -2.32927,-0.11989 -0.74502,-0.39392 -0.0428,0.34254 -0.0856,0.0599 -0.24835,-0.0257 -0.74502,-1.75551 1.00193,-1.9696 1.70413,-1.36159 1.37872,-0.008 0.71077,0.45387 1.01051,0.2569 2.1408,0.13702 1.0705,0.24834 2.3121,0.91629 1.0019,-0.0856 0.2484,0.23121 0.2826,0.10276 0.8649,0.008 1.9268,-0.30828 1.8325,-0.65939 6.3113,-3.36545 2.0724,-0.50524 0.9505,-0.66795 0.137,-0.61657 -1.3273,-0.1884 -0.9934,0.31685 -1.5328,1.19889 -0.7707,0.2569 -3.3312,0.15414 -3.3055,0.80497 -1.3616,0.17983 -0.608,-0.27403 -0.2569,-0.65939 -1.1561,-0.76214 -0.334,-0.52238 0.1028,-0.31685 0.6765,-0.71933 0.274,-0.38535 -2.1665,-0.25691 -0.4539,0.0942 -0.7964,0.58232 -0.5481,0.0771 -1.2759,-0.49668 -2.1238,-0.49669 -0.25684,0.23122 -0.56519,0.0771 -0.59944,-0.0343 -0.32542,-0.10277 -0.99336,0.29116 -1.12181,-0.23121 -2.10662,-0.75359 -2.04667,-0.38535 -0.67652,-0.3768 -0.95054,-0.7964 -0.7964,-1.06187 -0.3768,-0.22265 -1.61849,-0.48812 -0.54807,-0.8906 -0.36823,-0.47099 -0.47099,-0.19696 -0.52237,0.10276 -0.94198,0.45386 -0.47099,0.14558 -0.70221,0.0514 -0.36823,-0.0685 -1.78976,-1.079 -1.00193,-0.30829 -1.079,-0.14558 -2.9544,0.14558 -0.91629,-0.10276 -1.01905,-0.28259 -0.91629,-0.38535 -0.65083,-0.45386 -1.58424,-1.54999 -0.8221,-0.33398 -1.29308,-0.0942 0.11132,-2.02954 -1.60993,-1.91822 -3.74224,-3.00578 -1.36159,-1.5928 -0.22265,-0.87348 0.50524,-1.09612 0.80497,-0.42818 2.40634,-0.69364 0.65939,-0.61657 1.01905,0.40248 1.19032,-0.11132 1.97816,-0.60801 3.59666,-0.69364 1.00193,-0.36823 2.766,-1.41297 0.77928,-0.1884 0.35967,0.0514 0.0599,-0.15414 -0.11989,-0.76215 -0.23978,-0.7964 -0.3511,-0.21409 -0.39392,-0.0685 -0.40248,-0.30828 -0.7279,-1.57568 -0.57375,-0.41105 -1.3359,-0.14558 -3.25412,0.4453 -1.16464,-0.0599 -2.47484,-0.95055 -2.40634,-0.29116 -2.00385,-0.7022 -1.1732,-0.15414 -0.47955,0.10276 -1.22458,0.46243 -0.52237,0.10276 -0.7279,-0.29116 -0.52237,-0.0771 -0.50524,0.20552 -0.89917,0.59944 -0.7964,0.0771 -3.04859,-1.21602 -0.9848,-0.19696 -4.07621,0.0428 H 949.028 l -0.80496,-0.17983 0.48811,-0.67652 -1.77264,-0.7022 -0.0514,-0.0856 -0.65082,-0.61657 -0.22265,-0.0428 -0.58232,0.0942 -0.23977,-0.0514 -0.24835,-0.19696 -0.53949,-0.59944 -0.29116,-0.24834 -1.37016,-0.70221 -3.63091,-0.62513 -1.8754,-0.85635 -0.81353,-1.84115 -0.21409,-1.09612 -0.9848,-1.97816 -0.22265,-1.15607 0.38536,-1.23314 1.70413,-1.4301 0.38535,-0.83922 0.11133,-1.04475 0.47099,-1.70413 0.11133,-1.10469 0.15414,-0.61657 0.86491,-1.53286 0.38536,-0.48812 0.84778,0.26547 0.93342,-0.26547 0.83922,-0.61657 0.54806,-0.77928 0.15414,-1.04474 -0.64226,-0.23978 -0.92485,-0.14558 -0.71077,-0.7022 0.50524,0.0257 0.41961,-0.0599 0.8221,-0.27404 -0.34254,-0.0257 -0.23121,-0.0856 -0.19696,-0.12845 -0.27404,-0.14558 0.6337,-0.95911 0.29116,-0.58232 0.11989,-0.71077 -0.12845,-0.61657 -0.32542,-0.58231 -0.4453,-0.2826 -0.49668,0.30829 h -0.3511 l -0.11989,-0.55663 -0.30828,-0.1884 -0.44531,0.0771 -0.52237,0.28259 -1.11325,-0.94198 -4.60715,0.32541 -0.59944,-1.48148 -0.71933,0.35967 -0.53094,0.46242 -0.80497,0.92486 -0.31685,0.14558 -0.3511,0.0599 -0.27403,0.1884 -0.11132,0.49668 -0.0856,0.17127 -0.23121,0.17127 -0.29116,0.11132 -3.27125,0.75359 -1.38728,0.0856 -1.05331,-0.78784 -0.78784,0.34254 -1.05331,0.0771 -0.93342,-0.0771 -0.40248,-0.1627 -0.1884,0.59088 -0.47099,0.5395 -0.57375,0.43673 -1.06187,0.61657 -0.56519,0.22265 -0.66795,0.12846 -0.84779,0.0514 -2.16655,0.50524 -0.46243,0.1884 -0.77928,-0.27403 -1.80689,0.0514 -4.43588,-0.7964 -1.81546,-1.01049 -1.34447,-1.60994 -0.89916,-1.95247 -0.47955,-2.05523 -0.13702,-0.35111 -0.46243,-0.59944 -0.0942,-0.29972 0.0685,-0.25691 0.2826,-0.47955 0.0514,-0.32541 -0.10276,-0.31685 -0.2826,-0.27403 -0.41105,-0.19696 -0.46242,-0.0771 -0.29116,-0.46243 -0.59945,-3.40827 0.11133,-3.53671 -0.29116,-0.84779 -0.72789,-0.7964 -0.53094,-0.75358 -0.57375,-1.31022 -0.43674,-0.43673 -1.84115,-0.55663 -0.28259,-0.34254 -0.12845,-0.46243 -0.31685,-0.38535 -0.39392,-0.27403 -0.38536,-0.10277 -0.66795,-0.27403 -0.83922,-0.51381 -1.00193,-0.29115 -1.19032,0.37679 -0.49668,-0.66795 -1.82402,-0.86491 -0.81353,-0.59945 -0.41961,-0.74502 -0.24834,-1.01049 -0.0856,-1.08756 0.0514,-0.95911 0.52237,-1.83258 0.10277,-0.89917 -0.27403,-1.13894 -1.43011,-3.15136 0.44531,-1.1732 -0.0343,-1.45579 -0.31685,-1.45579 -0.41104,-1.17319 -0.94199,-1.86684 -0.27403,-1.48148 -0.74502,-1.1732 -1.06187,-4.64997 0.0342,-0.83065 0.41961,-0.69365 -0.58231,0.0257 -0.80497,0.29972 -0.26547,0.17127 -1.30165,0.0257 -0.58231,0.0685 -0.56519,0.29116 -0.49668,-0.608 -0.89917,0.0942 -1.06187,0.24835 -1.00193,-0.11989 -0.47099,-0.71077 -0.608,-1.90966 -0.12846,-0.37679 -0.39392,-0.48812 -1.10468,-0.23121 -1.13038,-0.57375 -2.40634,-1.74695 -0.59088,-0.23122 -0.59944,-0.0428 -0.47956,0.19696 -0.59088,0.40249 -0.37679,-0.11133 -0.29972,-0.29116 -0.30829,-0.1627 -1.11325,0.0599 -1.54999,0.35967 -0.83066,-0.0771 -0.91629,-0.36823 -0.65938,-0.59088 -0.41105,-0.84779 -0.41105,-3.29693 -0.73646,-1.47292 -1.10469,-1.12182 -1.37872,-1.06187 0.009,0.68508 0.19696,0.49668 0.36823,0.3511 0.47099,0.21409 v 0.38536 l -2.47484,0.3511 0.41104,-1.01905 -0.41961,-0.80497 -0.67651,-0.82209 -0.35967,-1.06188 -0.0257,-1.31021 -0.23978,-0.75358 -0.71933,-0.38536 -2.77456,-0.43674 -0.49669,-0.47099 0.0343,-1.91822 -0.25691,-0.608 -0.59088,-0.65083 -1.25026,-0.99336 -0.52238,-0.13702 -0.61657,-0.008 -0.29972,-0.11989 0.42818,-0.47099 -0.60801,-0.47099 -0.41961,-0.43674 -0.47099,-0.33397 -0.76215,-0.11989 -0.41105,-0.009 -0.54806,-0.10276 -0.45387,-0.2569 -0.19696,-0.52237 -0.65938,-1.18176 -1.5243,-0.71077 -3.09142,-0.74502 0.23122,-0.26547 -0.0343,-0.27403 -0.23977,-0.25691 -0.29973,-0.24834 h -0.32541 l -0.84778,0.90773 -0.23122,0.13702 -0.71933,-0.11133 -0.12845,-0.23121 0.0428,-0.32542 -0.23978,-0.37679 -0.54806,-0.23978 -0.30829,0.0771 -0.23121,-0.0343 -0.30829,-0.5395 0.0771,-0.14558 0.28259,-0.10276 0.27403,-0.15414 0.0685,-0.29116 -0.15414,-0.23978 -0.24834,-0.21408 -0.29973,-0.21409 -0.22265,-0.46243 -0.83065,-1.31877 -0.13702,-0.49668 -0.23978,-1.56712 -0.38535,-0.89917 -0.2826,-0.49668 0.12845,-0.41961 0.2826,-0.20552 0.16271,-0.23978 -0.25691,-0.56519 -0.34254,-0.69364 0.20553,-2.4149 -0.17984,-1.079 -0.46243,-0.74502 -0.59088,-0.64226 -2.64611,-2.02954 -0.19696,-0.0771 -0.0685,-0.61657 0.36823,-1.20745 0.0771,-0.65082 -0.1627,-0.65082 -0.46243,-0.83066 -0.10276,-0.64226 0.11132,-0.40249 0.27403,-0.4453 0.26547,-0.53093 0.0771,-0.68508 -0.66795,0.32541 -0.67651,0.6337 -0.40249,0.0856 -0.57375,-0.12845 -0.32541,-0.24834 -0.53094,-0.66795 -1.09612,-0.99336 -1.67844,-2.0638 -0.34254,-1.19889 -0.32541,-2.42346 -0.0514,-2.46628 0.19696,-1.16463 0.77927,-2.14087 0.0771,-1.22458 0.74503,-0.34254 0.87347,-0.0856 1.7127,0.0771 0.84778,-0.21409 1.27596,-0.96767 0.68508,-0.21409 2.52622,-0.0942 0.78784,0.0942 0.61657,0.19696 0.49668,0.29116 0.3768,0.39392 0.29115,0.51381 0.6337,-0.0856 7.96403,0.43674 1.10469,-0.14558 2.10662,-0.54806 1.17319,-0.008 3.41683,1.10468 0.93342,-0.23121 0.56519,-0.23978 0.55662,0.15415 0.55663,0.23977 0.57375,0.0171 0.39392,-0.23121 0.8906,-0.8221 0.49669,-0.30828 8.97452,-0.47099 4.00771,-1.37872 0.34253,-4.15329 -0.36822,0.31685 -0.33398,-0.0428 -0.24834,-0.34254 -0.0942,-0.62513 0.16271,-0.15414 0.71933,-0.47099 0.1627,-0.23978 -0.17983,-1.06187 -0.29972,-0.86491 -0.0685,-0.76215 0.54806,-0.66795 -0.28259,-0.65939 0.16271,-0.42818 0.29972,-0.36823 0.17127,-0.45386 -0.11133,-0.67651 -0.47099,-1.19889 -0.29116,-1.42154 -0.41104,-0.57375 -0.471,-0.51381 -0.33397,-0.65939 -0.0343,-0.57375 0.14557,-0.41961 0.0771,-0.46243 -0.1884,-0.71077 -1.32734,-1.31021 -3.81075,-1.91822 -1.18176,-1.67844 -0.56519,-0.7964 -0.39392,-1.37872 -0.49668,-1.15607 -0.83065,-0.48812 -0.51381,-0.54806 -1.3616,-2.42346 -3.58809,-3.37401 -1.38728,-0.66796 -0.35111,-0.3511 -0.11132,-0.24834 -0.0942,-0.52237 -0.11133,-0.27403 -0.20552,-0.13702 -0.60801,-0.13701 -0.20552,-0.10276 -0.58232,-0.65083 -0.69364,-0.54806 -0.8906,-0.40248 -2.35495,-0.29116 -2.52623,-0.90773 -0.26547,-0.29972 -0.24834,-0.0771 -0.35966,0.20552 -0.1884,0.24834 -0.06,0.16271 -0.11132,0.0856 -0.34254,0.0257 -1.27596,-0.59088 -0.45386,-0.11132 -0.7279,0.22265 -0.50524,0.50524 -0.47956,0.59944 -0.59944,0.45387 -0.48812,0.13701 h -0.47099 l -4.71848,-0.56518 -0.61657,0.23977 -0.22265,0.33398 -0.50524,-0.49668 -0.66795,-1.079 -0.57375,-0.61657 -0.31685,-0.10276 -0.55663,0.0171 -0.72789,0.52238 -0.44531,0.20552 -0.38535,-0.37679 -0.45387,-0.17984 -0.5138,-0.11989 -0.41105,-0.0514 -2.65468,-1.73838 -0.4453,-0.79641 -0.31685,-0.91629 -0.41105,-0.76215 -0.75358,-0.32541 -0.81353,-0.12845 -0.77928,-0.24834 -0.89916,-0.16271 -1.1732,0.16271 -0.80495,0.29972 -0.92486,0.22265 -0.75359,-0.24834 -0.23121,-0.8906 -0.2569,-0.94198 -0.42818,-0.27404 -1.17319,-0.2569 -1.74695,-1.05331 -3.39114,-0.90773 -6.43973,-5.03532 -0.60801,-0.26547 -1.22458,-0.26546 -0.32541,-0.40249 -0.19696,-0.50524 -0.24834,-0.48812 -0.96767,-0.70221 -0.94198,-0.0257 -1.00193,0.20553 -1.12182,0.008 h 0.31685 l -0.68508,0.0599 -0.54806,-0.17127 -0.4453,-0.37679 -0.3511,-0.23121 -0.94198,-0.59088 -0.39392,-0.10276 -0.60801,-0.008 -0.67652,0.0856 -1.06187,0.30828 -0.5395,-0.009 -0.4453,-0.29116 -0.48811,-0.46243 -0.49669,-0.30828 -0.91629,0.2569 -0.54806,-0.17127 -0.97624,-0.45386 -1.28452,-0.0771 -0.57375,-0.1884 -0.23978,-0.61657 -0.2569,-0.42817 -0.59088,-0.12846 -1.25027,0.0343 -0.88204,-0.2826 -1.73838,-0.77927 -0.54807,0.0257 -0.22265,-0.23122 -0.18839,-0.14558 -0.24834,0.0428 -0.39392,0.33398 -1.13038,-0.65083 -0.94198,-0.24834 -0.86492,-0.32541 -0.90772,-0.90773 -0.66796,0.47956 -0.77927,0.0685 -0.75359,0.15415 -0.61657,0.71933 -0.20552,-0.14558 -0.14558,-0.0771 -0.3511,-0.11989 -0.0514,0.39392 -0.22265,0.6337 -0.0771,0.36823 h -0.3511 l -0.74502,-1.6185 -1.21601,-0.31685 -3.10855,0.5395 -1.43866,-0.47955 -1.08756,-1.19033 -0.56519,-1.60137 0.13702,-1.64419 0.91629,-1.64418 0.11989,-0.6337 -0.0428,-0.56519 -0.23978,-0.77928 -0.0514,-0.41961 0.2569,-1.09612 1.83259,-2.57761 0.32541,-0.95054 0.0942,-0.93342 -0.0771,-2.17512 0.0514,-0.53094 0.22265,-1.13038 0.11989,-1.83258 -0.0428,-0.13702 0.27403,-0.57375 0.37679,-0.58232 0.0514,-0.42817 -0.11133,-0.43674 -0.47099,-0.7022 -0.11989,-0.29116 -0.12845,-1.04475 -0.52237,-2.09805 -0.0428,-1.20745 0.29116,-2.31214 0.35966,-1.08756 0.59088,-0.47099 0.15415,-0.42817 -0.53094,-0.95055 -0.76215,-0.96767 -0.45386,-0.47956 -1.73839,-0.50524 -0.17983,-0.21409 -0.80497,-0.5395 -0.95911,-0.39392 -0.7964,-0.69364 -5.57482,-6.23421 -1.08757,-2.40634 -0.7964,-0.88203 -0.29116,-0.0171 -0.35966,0.11989 -0.42818,0.0171 -0.48812,-0.30829 -1.07899,-1.45579 -0.42818,-0.7964 -1.84971,-2.13231 -3.13423,-2.61186 -2.09805,-2.62042 -1.98673,-0.79641 -2.18368,0.24834 -2.20082,0.52238 -2.0381,0.0257 -5.29223,-1.72126 -1.37016,-0.75359 -1.88396,-2.72318 -0.74503,-0.42818 -0.17983,-0.27403 0.009,-1.84971 -0.25691,-0.32541 -1.13894,-0.71933 -1.5243,-1.49005 -0.88204,-0.46243 -2.27788,-0.41104 -0.6337,-0.5395 -0.29116,-0.68508 0.0171,-0.60801 0.23978,-0.27403 0.65082,-0.28259 0.12845,-0.34254 -0.0514,-0.30829 -0.11989,-0.15414 -0.11989,-0.0942 -0.0514,-0.1627 -0.2569,-0.27403 -1.23314,-0.77072 -1.54143,-0.42817 -0.89916,-0.61657 -1.34447,-1.18176 -2.01241,-0.74502 -6.37123,-0.99337 -0.75359,-0.29972 -0.47955,-0.2569 -0.4453,-0.24834 -0.77928,-0.59088 -0.33397,-0.55663 v -4.36737 l -0.22265,-1.01906 -0.42818,-0.86491 -0.58231,-0.77071 -0.70221,-0.69364 -0.74502,-0.1884 -2.65468,-0.11132 -0.66795,0.11989 -1.72982,-0.52238 -2.30358,-0.29972 -2.30357,0.0171 -1.72126,0.45386 0.12845,0.53094 -0.23121,0.69364 -0.45387,0.69364 -0.48812,0.53094 -0.18839,0.29972 v 0.21409 l -0.12845,0.13701 -0.55663,0.0514 -0.40248,-0.14558 -0.25691,-0.3511 -0.38535,-0.74502 -0.75359,-0.34254 -1.26739,0.68508 -0.78784,-0.34254 -0.55663,-0.41105 -0.49668,-0.23121 -0.46243,-0.30829 -0.38536,-0.608 0.59945,0.0599 0.57375,-0.0856 0.48812,-0.24834 0.42817,-0.41962 -1.29308,-0.0171 -0.58232,0.0942 -0.5395,-0.0771 -3.33119,0.22266 -1.69557,-0.0942 -1.31877,-0.50525 -2.49197,-3.62235 -1.19889,-0.57375 -0.75359,-0.17983 -2.10661,-0.94199 -0.64226,-0.46242 -1.90109,-2.98866 -0.78784,-0.37679 -0.97624,-0.22265 -1.82402,-0.14558 -0.69364,-0.2569 -0.53094,-0.4453 -0.47099,-0.64227 0.39392,-0.63369 -0.11132,-0.31685 -0.34254,-0.11989 -0.29116,-0.009 -0.74502,0.53093 -0.45387,0.21409 -0.19696,-0.20553 -1.51573,-0.48811 -0.41961,-0.21409 -0.41961,-0.26547 -0.80497,-0.33397 -0.34254,-0.25691 -0.20552,-0.3511 -0.51381,-1.4301 -2.94584,-2.92871 -0.8906,-0.59944 -2.30357,-0.78784 -10.91844,-1.92678 -0.62513,-0.0343 -0.65082,-0.1627 -0.95911,-0.7279 -0.48812,-0.16271 -3.51959,-0.34254 -0.86491,-0.3511 -0.34254,0.3768 -0.83922,-0.19696 -0.88204,0.0771 -1.69557,0.14558 -1.15607,-0.0257 -4.11046,-1.04475 -1.48149,-0.87347 -0.68507,-0.0942 -0.7279,-0.0257 -0.67651,-0.0856 -1.69557,-0.90773 -0.59088,-0.14557 -1.13038,-0.11989 -10.06208,-3.06573 -5.80604,-1.78976 -5.48919,-2.63755 -6.39693,-1.87541 -1.43866,-0.68507 -0.76215,-0.25691 -1.16463,-0.10276 -1.12182,-0.36823 -1.1475,-0.72789 -1.12182,-0.53094 -1.687,0.58232 -0.47098,-0.14558 -1.31022,-0.10276 -0.3511,-0.10277 -0.12845,-0.52237 0.16271,-0.59944 0.23977,-0.57375 0.11133,-0.43674 -0.27403,-0.48812 -2.7917,-2.48341 -0.53093,-0.22265 -2.91158,0.21409 -1.91822,0.35966 -1.02762,-0.17126 -2.29501,-1.56712 -0.21409,-0.50525 -0.0171,-0.5138 -0.17127,-0.3768 -1.60994,-0.29972 -11.50931,-5.42068 -9.9165,-4.11903 -1.09613,-0.14558 -1.15607,-0.45386 -1.47292,-1.55856 -0.67651,0.26547 -0.27403,-0.3511 -0.53094,-1.079 -0.23978,-0.31685 -0.57375,-0.1884 -1.31021,-0.0599 -0.58232,-0.12845 -0.3511,-0.22265 -0.33397,-0.2826 -0.42818,-0.28259 -0.6337,-0.23122 h -1.5928 l -2.08949,-0.38535 -2.05523,-0.67652 -1.96104,-0.23121 -1.79833,0.94198 -1.04474,-0.42817 z"
     id="path857"
     style="fill:#000000;fill-opacity:1;stroke:#000000;stroke-width:0.839221" />
</svg>
