<?xml version="1.0" encoding="UTF-8" standalone="no"?>
<svg
   xmlns:dc="http://purl.org/dc/elements/1.1/"
   xmlns:cc="http://creativecommons.org/ns#"
   xmlns:rdf="http://www.w3.org/1999/02/22-rdf-syntax-ns#"
   xmlns:svg="http://www.w3.org/2000/svg"
   xmlns="http://www.w3.org/2000/svg"
   xmlns:sodipodi="http://sodipodi.sourceforge.net/DTD/sodipodi-0.dtd"
   xmlns:inkscape="http://www.inkscape.org/namespaces/inkscape"
   version="1.1"
   width="800"
   height="800"
   viewBox="0 0 800 800"
   id="svg8"
   sodipodi:docname="New_Zealand_North.svg"
   inkscape:version="1.0.1 (3bc2e813f5, 2020-09-07)">
  <metadata
     id="metadata14">
    <rdf:RDF>
      <cc:Work
         rdf:about="">
        <dc:format>image/svg+xml</dc:format>
        <dc:type
           rdf:resource="http://purl.org/dc/dcmitype/StillImage" />
        <dc:title></dc:title>
      </cc:Work>
    </rdf:RDF>
  </metadata>
  <defs
     id="defs12" />
  <sodipodi:namedview
     pagecolor="#ffffff"
     bordercolor="#666666"
     borderopacity="1"
     objecttolerance="10"
     gridtolerance="10"
     guidetolerance="10"
     inkscape:pageopacity="0"
     inkscape:pageshadow="2"
     inkscape:window-width="1920"
     inkscape:window-height="974"
     id="namedview10"
     showgrid="false"
     inkscape:zoom="0.94355198"
     inkscape:cx="600"
     inkscape:cy="400"
     inkscape:window-x="-11"
     inkscape:window-y="-11"
     inkscape:window-maximized="1"
     inkscape:current-layer="svg8" />
  <g
     id="g6"
     style="fill:#000000;fill-opacity:1"
     transform="translate(-199.85024)">
    <g
       stroke="#000000"
       stroke-width="0.98"
       fill="#ffffff"
       id="g4"
       style="fill:#000000;fill-opacity:1">
      <path
         d="m 714.76,566.8 -0.27,-2.16 -0.51,-10.39 -0.61,-2.27 -0.98,-1.24 -0.97,-0.79 -0.74,-1 -0.3,-1.86 0.07,-1.95 0.28,-1.45 0.6,-1.27 1.08,-1.41 0.96,-3.06 0.29,-0.36 2,-1.59 3.1,-3.37 2.1,-2.86 1.16,-2.18 0.91,-2.44 0.37,-2.45 1.03,-1.35 11.81,-5.69 15.94,-7.85 2.23,-2.03 0.8,0.25 0.78,0.75 1.06,0.42 13.94,0.38 13.59,0.63 1.31,0.51 2.62,1.82 0.91,0.43 1.13,-1.71 1.62,-0.13 1.21,0.9 -0.07,1.29 -0.79,1.24 -0.76,1.61 -0.67,1.8 -0.44,1.83 -0.07,3.27 0.65,3.56 2.35,6.81 1.32,-1.44 1.36,-1.11 1.06,-1.26 0.75,-3.56 2.04,-5.59 4.69,-4.85 -1.21,-2.8 -2.83,-1.46 -5.95,-0.65 0.63,-2.22 1.14,-1.63 0.69,-1.61 -0.75,-2.19 0.62,-1.84 0.22,-4.34 1.18,-3.26 0.92,-6.48 0.08,-5.81 0.55,-2.46 1.51,-2.75 0.2,-1.27 -0.74,-1.23 -1.6,-1.7 -0.18,-0.52 -0.27,-1.17 -0.02,-0.57 0.09,-1.31 0.33,-0.08 0.53,0.24 0.76,-0.36 1.8,-1.35 2.17,-0.56 2.19,0.49 3.39,3.17 1.52,-0.82 8.77,-7.79 9.71,-10.85 0.47,-0.9 -0.07,-7.11 0.38,-0.96 3.24,-1.72 0.6,-0.91 0.05,-1.55 -0.51,-1.17 -0.88,-0.78 -1.05,-0.38 0.57,-1.44 0.21,-2.41 0.38,-1.39 1.38,-1.53 0.76,-1.05 0.27,-1.23 -0.89,-1.49 -1.66,-1.9 -1.19,-2.18 0.47,-2.27 1.32,-1.89 1.02,-2.15 0.3,-2.2 -2.16,-4.61 0.84,-1.73 1.74,-1.31 1.39,-1.46 0.46,-2.85 -0.9,-2.39 -1.28,-2.27 -0.64,-2.56 0.28,-1.19 0.65,-1.07 1.43,-1.85 0.95,-1.73 2.41,-6.85 1.24,-2.39 3.1,-2.18 1.19,-2.69 1.74,-5.06 3.24,-3.42 1.64,-2.74 0.72,-0.98 0.16,-1.83 -1.35,-2.21 -1.87,-1.98 -1.37,-1.09 -1.27,-0.59 -1.08,-0.21 -2.64,0.05 -1.13,-0.34 -1.65,-1.54 -1.07,-0.35 -3.02,0.03 -1.46,-0.21 -1.43,-0.54 -0.94,-0.78 -1.58,-1.7 -1.05,-0.49 v -0.74 l 1.16,-1.17 -1.07,-0.9 -2.01,-0.63 -21.18,-1.05 -3.4,-0.71 1.02,1.71 0.41,1.19 -0.29,1.06 -1.14,1.24 -1.6,0.71 -3.83,0.41 -1.32,0.72 -2.04,3.14 -1.14,1.21 -1.55,0.48 -1.74,0.12 -8.57,2.48 -0.63,0.77 -0.23,1.27 -0.53,0.97 -1.3,1.5 -0.98,1.91 -0.98,3.99 -1.33,1.91 -3.59,1.97 -0.52,0.66 -0.27,1.07 -1.44,2.66 0.01,2.77 -0.34,1 -0.9,1.17 -2.63,2.25 -6.65,4.16 -1.56,1.4 -2.06,1.31 -7.71,0.56 -2.57,0.66 -0.96,0.08 -0.59,0.35 v 0.77 l 0.05,0.78 -0.34,0.34 -0.5,0.19 -0.38,0.37 -0.4,0.17 -0.51,-0.35 -0.94,-1.64 -0.21,-0.23 h -5.63 l -1.12,-0.56 -0.71,-0.8 -0.84,-0.5 -1.45,0.37 0.63,1.14 0.37,1.51 -0.21,1.32 -1.1,0.58 -1.25,-0.21 -1.11,-0.52 -3.98,-2.84 -0.51,-0.69 0.94,-0.29 h 5.04 l -3.23,-1.81 -8.01,-1.09 -4.7,-3.02 -5.86,-0.85 -5.18,-2.01 -5.43,-0.9 -3.49,-1.69 -17.19,-12.58 -1.03,0.72 -0.58,-0.33 -0.38,-0.7 -0.42,-0.44 h -2.57 l -1.07,-0.46 -2.07,-2.05 -0.98,-0.45 -2.49,-0.58 -5.2,-2.55 -2.35,-0.58 -2.1,-1.24 -3.04,-5.52 -1.68,-1.47 -1.15,0.41 0.45,1.53 1.94,3.24 1.17,5.26 -1.28,0.16 -1.36,0.4 -1.09,0.05 -0.43,-0.98 0.02,-1.84 -0.1,-1.33 -0.48,-0.98 -1.16,-0.74 -1.65,-0.28 -0.57,0.88 -0.43,1.13 -1.24,0.57 -0.88,-0.63 -0.73,-1.16 -0.85,-0.64 -1.34,0.95 -0.84,-1.61 -0.5,-1.58 -0.71,-1.32 -1.52,-0.77 -0.3,0.23 -0.33,0.54 -0.46,0.54 -0.68,0.25 -1.52,-0.07 -0.44,-0.23 -0.44,-0.51 -0.14,-0.53 -0.4,-2.44 0.14,-0.38 0.35,-0.58 0.21,-0.66 -0.16,-0.59 -0.35,-0.21 -0.91,-0.18 -0.45,-0.36 -0.25,0.02 -0.43,0.16 -0.52,-0.11 -0.57,-0.81 -0.13,-0.78 0.11,-0.8 0.25,-0.77 0.31,-0.62 -0.41,-0.44 -0.78,-1.2 -0.52,-0.65 4.02,-0.77 2.24,0.11 1.68,1.06 1.18,1.4 1.44,1.34 3.01,2.12 -2.7,0.99 -0.88,0.5 1.41,1.34 1.32,0.23 1.29,-0.21 1.32,0.12 1.03,0.53 3.08,2.42 -0.33,-1.87 -1.05,-1.34 -2.46,-2.34 -0.71,-1.31 -1.36,-3.21 -0.88,-1.45 -1.18,-1.25 -1.44,-1.18 -1.55,-0.98 -1.43,-0.62 -3.46,-0.56 -0.81,-0.71 0.7,-1.7 0.7,-0.15 0.65,0.63 0.42,0.2 0.04,-1.42 -0.34,-0.9 -1.22,-0.95 -0.25,-0.77 -0.37,-1.58 -1.57,-3.39 -0.37,-1.72 -0.33,-4.32 -0.84,-4.24 -0.82,-1.98 -1.01,-1 -2.92,-1.39 1.15,-1.22 -0.12,-1.89 -0.65,-2.36 -0.38,-2.71 h 0.65 l 0.39,1.18 0.48,1.07 0.64,0.86 0.83,0.58 -0.42,-1.43 0.12,-3.14 -0.29,-1.33 -0.74,-0.38 -1.15,-0.2 -0.87,-0.35 0.1,-0.92 1.43,-2.43 1.26,-2.84 0.3,-2.72 -1.56,-2.01 -0.54,0.88 -0.99,1.15 -0.92,0.6 -0.44,-0.75 0.37,-1.11 0.71,-1.19 0.55,-1.16 -0.17,-1.06 -0.03,-0.63 0.29,-3.42 -0.53,-5.15 -0.36,-1.42 -0.38,-0.85 -1.35,-1.76 -0.37,-1.15 0.11,-2.79 -0.32,-1.18 -1.98,-1.63 -3.51,0.77 -1.89,-1 -1.13,1.45 0.68,3.38 -1.37,1.12 0.09,1.17 -0.7,0.06 -1.03,-0.67 -0.97,-0.97 -0.21,-0.85 0.32,-0.79 0.06,-0.78 -1.02,-0.85 1.27,-2.25 1.37,-1.88 1.07,-0.9 2.22,-0.89 1.12,-0.74 1.66,-3.15 0.42,-0.52 2.43,0.32 0.89,-0.38 0.47,-1.41 -0.18,-1.78 -0.9,0.11 -1.16,0.67 -0.96,-0.17 -1.14,-1.28 -1.09,-0.49 -1.23,0.09 -1.57,0.58 -2.11,1.75 -1.26,0.62 -1.05,-0.51 -0.96,-0.75 -1.21,-0.2 -1.07,0.37 -0.61,0.99 0.52,0.11 1.23,0.55 -3.47,2.75 -1.2,-0.31 -0.61,-3.1 0.28,-1.09 0.58,-1.06 0.29,-1.12 -0.56,-1.2 -0.94,-0.3 -2.48,0.37 -0.99,-0.44 -0.52,-1.23 0.3,-0.92 0.84,-0.23 1.12,0.91 0.91,0.47 0.23,-1.39 -0.23,-2.73 -0.65,-2.82 -1.54,-0.51 -1.95,-0.04 -1.8,-1.46 1.88,-2.11 0.15,-2.76 -0.99,-2.7 -1.57,-2 -2.25,2.54 -0.88,-0.11 -1.77,-1.7 -0.69,-0.4 -0.34,-0.33 -0.19,-0.33 -0.33,-0.85 -0.53,-0.97 -0.36,-0.86 -0.56,-0.53 -2.86,0.61 -2.12,-0.38 h -1.73 l -0.71,1.51 0.25,4.13 0.42,1.76 0.74,1.42 1.43,1.32 3.21,1.22 1.54,0.86 1.55,2.21 0.25,0.28 0.38,0.94 0.86,0.35 0.98,0.18 0.72,0.36 0.42,2.43 -1.11,2.6 -0.61,2.86 1.95,3.24 -0.54,1.08 0.05,1.1 0.43,1.1 0.59,1.05 0.43,-0.52 1.38,-0.96 0.42,2.64 -1.43,1.27 -4.33,1.23 0.53,0.23 0.51,0.31 0.57,0.24 0.74,0.02 -0.54,1.09 -0.91,0.46 -1.07,0.26 -1.06,0.4 1.19,0.65 1.33,0.21 2.81,-0.06 -1.26,1.82 -1.89,0.03 -2.06,-0.38 -1.82,0.67 1.1,1.01 0.44,1.09 0.28,1.14 0.52,1.15 0.91,0.99 2.16,1.58 1.05,1.05 0.83,1.26 0.6,1.26 2.03,6.63 0.38,0.87 0.42,1.35 -0.1,5.68 0.27,1.57 1.49,3.25 0.19,1.38 0.79,2.88 0.37,3.43 0.52,1.6 0.91,1.13 1.34,0.38 -1.58,1.04 -1.53,-0.26 -1.13,-1.29 -0.46,-2.14 0.06,-2.42 -0.26,-1.14 -0.71,-0.49 -1.19,0.23 -0.47,0.55 -0.28,0.73 -0.68,0.7 -3.34,1.63 -3.92,1.01 -3.84,-0.11 -3.11,-1.8 -1.33,-1.62 -1.33,-2.04 -0.99,-2.34 -0.4,-2.48 1.09,-7.51 0.09,-2.49 -0.23,-1.58 -0.44,-1.27 -0.6,-1.07 -3.05,-3.82 -0.7,-0.42 -1.12,-0.37 -1.85,-1.56 -0.88,-0.34 -0.78,0.19 -2.81,1.35 -0.42,-0.16 -0.46,-0.43 -0.53,-0.22 -2.02,1.42 -1.45,0.47 -0.96,0.69 -1.05,0.43 -1.33,-0.36 -1.11,-1.88 0.97,-4.91 -1.03,-2.46 -1.81,-0.75 -2.73,-0.32 -2.02,0.5 0.34,1.79 1.41,2.63 -1.08,0.8 -2.2,0.09 -1.96,0.53 0.15,-2.81 -0.67,-2.46 -1.88,-5.08 h -0.59 l -2.34,11.75 -0.84,1.21 -0.57,0.14 -0.46,-0.75 -0.49,-1.4 -0.39,-2.06 0.44,-0.94 0.84,-0.7 0.87,-1.3 0.28,-3.25 -1.87,-1.23 h -5.4 l -4,-0.89 -1.35,0.22 -1.09,0.6 -0.92,0.82 -0.79,1.03 -0.73,1.23 -0.57,-0.82 -0.17,1.14 0.07,1.47 -0.11,1.32 -0.7,0.55 -1.07,-0.6 -0.37,-1.47 -0.11,-4.58 0.06,-0.63 -0.4,-0.39 -1.37,-0.84 -0.45,-0.86 0.82,-0.84 1.24,-0.82 0.79,-0.79 -1.51,-0.38 -3.04,0.47 -0.74,-0.09 v -0.73 l 1.44,-1.57 1.35,-0.93 3.06,-1.57 h 1.25 l 1.22,2.95 1.67,0.39 -0.4,0.92 -0.05,0.81 0.31,0.66 0.73,0.54 2.25,-1.23 1.23,0.42 1.11,1.01 1.87,0.54 -5.15,-16.15 -1.31,-2.65 -1.77,-1.86 3.61,1.39 1.39,0.15 2.12,-0.82 3.97,-2.31 0.4,-0.59 -0.91,-0.75 -1.03,0.03 -3.67,1.44 -2.36,-0.18 -1.19,-0.33 -0.86,-0.59 -1.11,-1.17 -0.41,-0.3 0.05,-2.2 -0.25,-1.43 -0.94,-1.9 0.01,-1.41 0.52,-0.75 1.81,-1.13 0.62,-1.12 -0.66,-0.78 -0.7,-0.61 -0.75,-0.46 -0.84,-0.27 v -0.8 l 1.96,-0.11 0.2,-1.81 -1.57,-4.72 2.24,0.91 1.36,2.12 1.75,5.07 0.37,-1.71 0.19,-1.92 -0.17,-1.83 -1.38,-2.84 -1.21,-4.41 -0.21,-1.49 1.47,-0.26 7.1,0.38 2.6,-0.45 -2.06,-0.65 -2.4,-0.33 -1.92,-0.78 -0.68,-1.95 0.19,-1.18 0.26,-0.1 0.33,0.17 0.46,-0.35 0.03,0.18 0.2,0.23 0.29,0.12 0.3,-0.17 0.23,-0.48 -0.18,-0.19 -0.29,-0.14 -0.05,-0.28 0.52,-1.44 -0.06,-0.6 -2.23,-0.94 -3.57,-2.49 -2.76,-3.13 -4.82,-7.5 -1.5,-1.71 -1.27,-1.02 -0.92,-1.3 -0.43,-2.51 0.25,-1.16 0.49,-0.91 0.1,-0.98 -0.84,-1.37 -0.94,-0.54 h -2.17 l -1.05,-0.2 -1.62,-0.87 -3.86,-2.88 -1.05,-1.33 -0.13,-1.93 0.11,-2.72 -0.31,-2.6 -1.42,-1.52 1.94,-1.92 1.47,-2.11 0.35,-2.09 -1.42,-1.85 -1.85,-0.66 -5.71,-0.74 -1.56,0.28 -0.65,1.17 -0.53,1.38 -0.76,0.89 -1.32,-0.22 -0.62,-0.83 -0.23,-1.3 0.11,-1.39 0.45,-1.09 0.3,-1.79 -0.41,-5.75 0.4,-2.33 0.95,1.12 0.69,1.16 0.43,1.28 0.27,1.5 -0.03,1.93 -0.28,0.88 0.18,0.21 1.36,-0.05 0.39,-0.35 0.47,-1.49 0.58,-0.34 0.55,0.24 0.88,0.98 0.61,0.16 1.24,-0.32 2.22,-0.95 1.28,-0.11 -0.09,1.71 2.46,0.73 -0.6,1.98 1.93,1.31 1.63,1.76 1.76,1.11 2.37,-0.63 -2.05,-3.95 -0.21,-0.96 0.58,-2.54 -0.07,-1.31 -0.89,-1.14 -5.05,-3.12 0.94,-0.26 0.94,-0.47 0.76,-0.76 0.3,-1.09 -0.36,-0.91 -0.91,-0.41 -2.2,-0.52 1.24,-0.65 0.46,-0.14 -3.26,-1.79 -1.43,-1.22 0.91,-0.54 1.55,0.07 3.87,0.63 1.31,0.75 1.12,-3.59 -0.76,-2.5 -4.16,-4.42 -4.5,-3.69 -0.39,-1.27 3.39,-0.48 -0.47,-1.28 -2.02,-3.72 -0.73,-0.78 -0.23,-0.19 -0.3,-0.89 -0.35,-0.36 -0.35,-0.04 -0.22,0.24 -0.09,0.3 0.07,0.15 -1.76,-0.45 -1.77,-0.2 -1.93,-1.5 -3.15,-7.1 -1.43,-2.35 0.82,0.85 2.71,2.11 2.41,2.54 0.51,0.34 1.28,-1.12 -2.63,-3.22 0.82,-1.5 v -0.65 l -1.93,0.11 -1.88,-0.2 -1.45,-1.08 -0.66,-2.5 0.53,-2.45 1.16,-2.15 0.74,-2.14 -0.67,-2.6 -2.64,2.19 -2.36,2.54 -0.45,1.03 0.02,0.51 -0.14,0.36 -0.95,0.56 -0.01,-0.34 -0.88,-0.31 -1.15,-0.17 -0.89,0.1 0.21,0.38 0.43,1.07 -4.38,-0.62 -2.06,0.12 -1.2,1.22 -0.59,-0.72 0.82,1.64 2.12,1.1 2.46,0.65 1.92,0.21 0.7,0.44 0.3,1.02 -0.21,1.02 -0.79,0.45 -0.7,-0.32 -0.53,-0.67 -0.73,-0.53 -1.25,0.08 0.16,0.47 0.25,1.16 0.19,0.47 -0.99,-0.12 -0.9,-0.36 -1.7,-0.97 -0.28,1.46 -0.58,1.7 -0.59,1.14 -0.25,-0.3 -0.19,-2.84 -0.28,-1.28 -0.45,-0.92 -3.24,-3.38 -0.55,-1.32 0.25,-1.34 0.62,-1.34 0.18,-1.43 -1.05,-1.66 -0.86,0.65 -0.95,0.23 -0.92,-0.23 -0.84,-0.65 -1.85,0.78 -1.34,-1.08 0.27,-1.48 2.92,-0.37 -1.63,-2.52 -0.82,-0.67 0.89,-0.69 2.08,-1.16 1.03,1.45 0.89,0.02 0.71,-0.54 0.42,-0.15 0.38,1.07 0.08,1.18 0.27,0.96 0.99,0.38 3.57,-1.13 -0.68,-2.65 -1.65,-2.17 -2.12,-1.46 -2.07,-0.55 -4.95,0.57 -2.73,-0.43 -1.17,-1.93 -0.55,-2.58 -1.35,-1.67 -3.48,-2.65 -1.47,-1.79 -0.74,-1.23 0.23,-0.56 -2.5,-0.18 -1.29,0.08 -1.54,0.82 -1.45,0.23 -0.61,0.54 -0.13,0.62 0.2,1.56 -0.07,0.64 -1.77,3.58 -0.05,0.99 0.17,0.69 -0.41,0.41 -1.79,0.14 -2.94,-2.55 -0.14,-0.89 0.83,-0.91 1.94,-1.46 0.46,-0.98 0.3,-1.07 0.52,-0.95 1.11,-0.59 -1.13,-0.49 -0.57,-0.17 -0.67,-0.06 -0.74,-0.22 -0.33,-0.58 -0.26,-0.73 -0.46,-0.68 -0.21,-0.59 0.04,-0.69 -0.14,-0.57 -0.84,-0.24 -0.65,0.22 -0.35,0.49 -0.21,0.5 -0.28,0.23 -2.62,-0.01 -1.23,-0.51 -0.91,-2.31 -0.98,-0.54 -1.18,0.15 -1.03,1.06 -0.96,-1.59 -1.17,-1.07 -1.14,0.06 -0.84,1.82 0.12,1.65 0.84,1.22 1.1,1.03 0.94,1.18 -0.2,0.51 -0.98,1.7 -1.59,-2.13 -1.66,-0.57 -4.17,0.49 -1.88,-0.36 -1.68,-0.96 -1.45,-1.39 -1.18,-1.59 -0.8,-1.35 -0.86,-1.86 -0.42,-1.98 0.59,-1.68 0.82,-0.36 h 3.6 l 3.52,-1.49 -1.3,-1.64 -0.26,-0.87 0.45,-1.07 -0.97,0.18 -2.61,1.31 0.54,-1.69 0.12,-0.95 -0.08,-0.94 -0.42,-1.3 -0.55,-0.73 -0.73,0.02 -0.93,0.92 v 0.68 l 0.39,1.01 0.19,1.22 -0.58,1.4 -2.02,1.25 -2.12,0.37 -1.62,0.72 -0.48,2.31 1.19,5.08 0.2,2.95 -1.09,1.3 -1.24,0.46 -0.45,1.07 -0.27,1.24 -0.68,0.93 -0.69,0.06 -2.84,-0.83 -0.95,-0.05 -0.56,0.07 -0.24,-0.58 0.06,-4.34 0.28,-1.06 0.53,-0.89 1.84,-2.24 0.25,-1.21 -11.47,-6.78 -3.6,-3.68 -0.34,-3.73 1.79,1.44 4.19,5.01 -0.81,-4.4 -2.9,-3.56 -3.55,-3.14 -2.79,-3.22 -0.96,-4.09 -0.85,-6.12 -1.29,-5.12 -2.24,-1.14 1.32,2.23 0.51,3.01 -0.21,3.08 -0.97,2.45 -0.85,0.7 -0.33,-0.73 0.04,-6.02 -0.15,-1.35 -0.47,-1.24 -0.47,1.06 -0.72,0.48 -0.87,-0.06 -0.93,-0.63 0.42,-0.71 0.3,-0.71 0.45,-1.56 -0.98,0.19 -0.66,0.65 -0.42,0.97 -0.24,1.17 -2.73,-2.04 -0.84,-0.94 0.79,-0.43 0.55,-0.62 0.34,-0.82 0.07,-1.05 1.42,0.88 0.63,-0.66 0.29,-2.3 0.65,-2.62 0.64,-0.2 1.72,0.61 -0.18,0.5 -0.24,1.23 -0.17,0.48 1.23,0.51 0.62,1.24 0.34,1.24 0.42,0.58 1.38,-0.13 0.74,-0.46 0.33,-0.87 0.23,-1.39 -0.16,-5.59 0.66,-2.09 2.48,-1.58 -1.34,-1.47 -0.98,0.26 -0.89,1.04 -0.95,0.81 -1.51,0.28 -9.79,-0.86 -2.59,1.74 -2.69,0.61 -1.1,1.15 -2.17,-1.3 -5.04,-0.22 -1.95,-1.04 -1.4,-0.99 -0.4,1.04 0.12,1.67 0.16,0.84 -0.9,1.94 -0.57,0.77 -0.88,0.84 7.31,4.42 3.47,3 17.54,23.26 1.54,0.81 1.11,1.08 2.67,6.85 1.58,2.24 5.18,5.29 1.14,1.74 2.74,6.57 1.15,5.28 -0.31,5.39 -1.64,4.94 -2.78,3.9 -1.54,-0.82 -1.68,-0.37 -1.24,0.58 -0.19,2.06 0.63,1.39 3.43,3.64 2.03,2.74 1.18,1.05 1.49,0.46 1.6,-0.38 2.47,-1.46 1.27,0.42 -1.01,1.24 -3.04,2.27 -0.7,0.86 0.49,1.12 2.69,3.14 0.93,0.79 0.78,-2.73 0.97,-2.41 1.56,-1.65 2.63,-0.42 -0.51,1.18 -0.73,1.09 -1.71,1.99 0.59,-0.05 1.18,0.08 0.59,-0.03 -2.94,3.37 -0.45,1.76 1.03,2.85 7.39,10.37 0.7,0.69 0.78,-0.17 0.29,-0.88 0.3,-7.84 -0.15,0.03 -0.25,-0.31 -0.21,-0.54 0.02,-0.62 0.81,-0.91 1.08,-0.49 0.57,-0.7 -0.76,-1.5 1.68,-1.34 0.97,-0.53 0.65,0.03 1.01,1.6 0.57,0.36 0.79,-0.48 0.75,-0.32 0.96,-0.23 0.54,-0.51 -0.81,-2.07 0.48,-0.39 0.86,0.11 2.2,1.44 1.68,0.02 1.39,-0.92 0.49,-1.88 -0.66,-1.7 -1.08,-1.98 -0.36,-1.94 1.51,-1.57 1.4,4.95 0.96,1.58 0.01,-3.82 0.31,-0.57 0.95,0.12 0.41,0.41 0.09,0.78 -0.02,1.25 0.97,0.3 3.15,-0.96 -1.41,2.4 -0.54,2.21 -0.35,0.7 -1.1,0.74 -0.53,-0.26 -0.49,-0.51 -0.81,0.03 -1.49,1.47 -0.37,1.98 -0.06,2.08 -0.49,1.81 -2.34,-3.68 -0.26,1.36 0.16,3.67 -0.19,0.74 -1.23,-0.43 -0.93,-1.04 -0.8,-1.19 -0.87,-0.95 -0.1,0.47 -0.48,1.05 -1.68,-0.83 -1.11,1.38 -0.6,2.44 -0.19,2.38 -0.65,1.76 -2.83,3.82 -0.63,1.71 0.54,1.98 19.41,26.19 19.4,26.27 3.1,6.24 11.18,15.36 2.73,10.29 2.06,3.74 4.17,-0.11 4.01,-1.75 1.7,-1.45 0.7,-2.24 -0.95,-2.33 -1.73,-1.81 -0.84,-1.29 1.76,-0.8 -0.77,-1.35 -1.24,-0.05 -1.31,0.19 -1.08,-0.64 -4.73,-7.3 -0.65,-0.62 -0.88,-0.65 -0.76,-0.74 -0.75,-2.07 -0.97,-0.68 -1.1,-0.5 -0.82,-0.59 -0.67,-1.14 -1.07,-2.36 -0.61,-0.93 -0.67,-1.97 -0.38,-2.81 -0.74,-2.49 -1.8,-1.09 -0.58,-1.1 -4.42,-6.23 0.35,-1.71 3.28,-1.77 0.53,-2.32 -0.46,-0.52 -0.85,-0.74 -0.63,-1.03 0.17,-1.4 0.6,-0.06 0.94,0.65 0.91,0.94 0.49,0.71 0.4,2.66 -0.82,1.64 -3.15,2.95 2.66,1.97 1.06,1.24 0.99,3.18 2.47,2.6 0.55,1.61 0.07,4.13 0.59,1.95 1.35,0.83 1.15,0.52 1.49,1.16 1.28,1.35 0.54,1.01 0.82,0.64 4.11,0.14 1.59,0.34 1.48,1.35 0.95,1.52 0.76,1.56 2.06,3.06 0.55,0.38 0.96,0.14 0.84,0.33 1.12,1.47 0.68,0.39 h 0.86 l 0.73,-0.2 0.5,-0.57 0.2,-1.02 0.49,-0.23 3.09,-0.83 -1.53,-2.36 -0.93,-0.93 -0.8,-0.01 -0.69,1.11 -0.43,0.51 -0.64,0.22 -0.81,-0.44 v -1.02 l 0.54,-1.52 -0.9,-1.35 -0.85,-0.64 -1.09,-0.19 h -1.55 l -1.16,-0.46 v -2.31 l -0.91,-0.88 3.77,-3.02 1.3,0.07 -0.36,2.95 1.8,-2.13 0.93,-0.69 1.37,-0.08 -0.78,2.07 -0.3,1.1 -0.1,1.19 0.07,1.5 0.27,0.36 0.55,-0.03 0.93,0.36 0.77,0.06 0.75,-0.23 0.55,0.31 0.23,1.68 0.3,0.93 0.72,0.05 0.96,-0.18 0.96,0.35 -0.44,0.42 -1.32,1.77 2.46,-1.23 2.1,-2.94 1.14,-3.61 -0.42,-3.27 3.26,0.94 0.86,0.57 1,1.69 -0.25,0.97 -1.08,0.16 -1.43,-0.69 -0.39,1.57 -0.1,0.93 -0.16,0.76 -0.54,1.17 -2,2.61 -1.32,3.43 -0.46,2.71 -0.64,-0.11 -1.44,-1.35 -2.53,-0.82 -0.85,0.43 0.43,1.91 0.72,0.57 1.23,0.47 2.17,0.42 1.57,-0.88 1.69,-1.63 1.41,-0.93 0.67,1.25 0.94,-0.62 2.04,-1.95 0.84,-0.41 0.88,-0.09 0.34,-0.03 1.21,-0.39 1.12,-0.66 0.91,-0.95 0.31,0.69 0.15,0.19 0.21,0.09 0.5,0.49 -0.29,1.39 -0.53,0.37 -0.73,0.04 -0.86,0.38 -2.34,2.19 -2.56,1.15 -1.09,0.73 -1.37,1.4 -1.39,1.02 -1.74,0.55 -3.65,0.26 -1.35,-0.55 -1.17,-0.8 -0.94,0.25 -0.66,2.56 -1.18,-0.67 0.57,3.42 1.89,1.81 2.73,0.63 5.05,-0.38 0.77,-0.48 1.07,-1.02 1.43,-1.83 0.57,-0.05 2.7,1.7 0.14,0.61 -1.9,1.73 -0.35,1.22 0.73,1.2 1.03,1.16 0.67,1.17 -1.44,1.63 -0.32,0.55 0.04,0.34 0.02,5.59 0.35,0.79 0.77,-1.6 0.65,1.23 -0.81,4.78 0.74,2.09 0.47,-0.24 1.34,-0.49 -0.46,1.02 -1.37,1.2 -0.56,0.71 -0.38,1.6 -0.17,1.75 -0.36,1.21 -0.91,-0.09 -0.89,2.15 -0.87,-1.21 -0.86,-2.45 -0.86,-1.49 0.04,0.73 -0.08,1.52 0.04,0.75 -1.73,-1.17 -0.81,-0.28 -1.03,-0.09 0.46,-1.12 0.1,-1.02 -0.34,-0.87 -0.81,-0.65 1.18,-0.16 1.28,-0.5 0.86,-0.56 -0.1,-0.25 -0.92,-0.15 -3.47,-1.31 1.31,-1.05 0.09,-1.2 -0.84,-0.99 -1.45,-0.41 -1.23,-0.82 -1.95,-3.55 -1.72,-1.62 -1.29,-3.51 -1.2,-0.79 -1.25,0.45 -0.83,1.13 -1.4,2.86 -0.45,-1.53 0.1,-1.47 0.95,-2.9 -1.1,0.12 -0.66,0.61 -0.36,0.95 -0.24,1.24 0.53,4.91 2.54,4.93 11.85,15.03 4.46,8.18 1.63,4.82 1.89,10.12 3.49,12.29 0.98,1.89 1.73,0.92 2.04,-0.71 1.84,-1.65 1.21,-1.9 2.04,1.9 0.7,-0.05 0.83,-1.11 0.43,-1.21 0.54,-2.61 0.73,-1.33 2.28,-1.73 2.87,-0.84 5.82,-0.3 5.55,1 -0.35,1.18 -0.84,1.08 -1.05,0.79 -0.99,0.29 -0.98,1.34 0.16,2.39 1.25,1.06 2.21,-2.65 0.77,1.59 0.61,2.06 0.8,1.39 1.34,-0.49 1.65,1.42 4.39,1.77 -0.16,1.17 0.72,1.26 0.42,1.48 -0.23,1.22 -1.2,0.52 -1.14,-0.66 -3.27,-3.82 -2.12,0.21 -1.95,1.55 -3.57,4.32 0.08,-2.34 -0.59,-0.26 -4.67,4.11 -1.29,0.64 1.54,0.73 4.33,0.81 1.72,-0.07 -1.27,1.04 -1.12,0.12 -2.56,-0.48 -0.99,0.75 0.23,1.68 1.06,2.79 -0.93,2.54 -1.49,-1.19 -1.24,-2.71 -0.34,-3.48 -4.33,-8.55 0.14,-0.64 0.83,-1.18 0.18,-1.13 -0.86,-0.9 -1.26,-0.44 -3.44,1.05 -2.41,-0.58 -1.42,0.14 0.61,3 3.64,6.94 0.52,2.31 0.33,0.94 2.01,3.88 0.89,3.43 3.48,8.3 1.27,2 1.9,1.64 1.22,-0.61 2.47,-4.42 0.71,-0.72 1.68,-1.07 0.84,-0.73 1.18,-0.59 0.9,0.43 0.42,0.79 -0.19,0.41 -2.07,0.87 -1.13,2.09 -0.76,2.47 -0.94,2.03 -0.96,0.64 -2.53,0.64 -0.98,0.6 -0.77,1.3 -0.01,1.17 0.92,4.97 4.98,12.02 5.51,21.35 1.47,1.73 2.62,-1.21 0.61,0.21 0.5,0.35 0.34,0.1 0.43,-0.5 0.33,-1.23 0.41,-0.5 3.58,-2.23 0.61,1.65 -0.31,1.48 -0.92,1.24 -1.19,0.91 0.85,0.18 0.69,0.44 0.53,0.67 0.33,0.94 -4.64,0.76 -4.88,0.04 -4.07,1.5 -2.33,5.13 -0.63,10.35 0.31,2.01 2.37,1.73 1.08,-1.37 0.74,-2.57 1.42,-1.87 1.97,0.21 1.02,1.86 -0.1,2.12 -1.42,1.01 -2.7,3.06 -1.1,0.5 -0.86,0.14 -0.74,0.37 -0.78,1.14 -0.38,1.19 -0.29,1.76 0.11,1.59 0.84,0.69 1.38,-0.28 0.57,-0.77 0.34,-1.08 0.63,-1.25 1.74,-0.48 2.41,0.76 1.72,1.62 -0.24,2.17 0.63,0.81 0.65,-0.6 0.67,-0.22 1.62,0.01 -1.56,2.3 -2.43,0.18 -2.66,-0.35 -2.27,0.86 1.76,1.82 0.64,0.47 -1.74,0.89 -1.22,-0.78 -1.06,-1.42 -1.32,-0.98 v 1.55 h -0.54 l -0.54,-0.62 -0.6,-0.84 -0.45,-1.05 -0.11,-1.22 -1.36,0.57 -1.61,0.32 -1.61,-0.16 -1.36,-0.73 -0.4,1.63 0.43,1.88 0.72,1.99 0.43,1.97 -0.1,2.29 -0.85,3.91 -0.44,6.45 -0.65,4.23 -1.1,3.85 -3.02,6.95 -0.72,4.1 -0.23,18.99 -0.29,1.93 -0.55,1.63 -0.25,1.67 0.57,1.96 -1.32,0.37 -0.16,0.37 -0.35,0.79 0.01,3.4 -0.19,1.44 -0.79,2.61 -0.71,4.04 -1.3,2.3 -10.32,10.82 -3.78,2.85 -4.16,1.4 -11.46,-0.83 -1.89,0.57 -22.02,13.85 -8.86,4 -3.92,3.17 -2.55,4.96 -1.13,5.31 -0.44,5.1 0.52,5.07 1.64,5.15 2.61,4.47 3.14,3.41 11.65,8.73 4.99,1.71 14.67,2.35 4.65,1.49 4.3,2.45 3.51,3.72 5.01,7.98 1.65,2.06 9.16,8.7 2.06,1.36 2.21,0.53 5.27,0.54 6.92,2.59 3.21,-0.03 3.77,-0.04 2.23,0.41 4.77,2.26 6.01,3.79 7.87,9.01 1.73,3.14 6.55,6.83 1.35,2.55 1.13,2.97 1.62,6.08 1.12,7.35 1.35,2.67 0.5,0.97 0.14,1.17 -0.33,4.49 -1.08,6.47 -0.75,1.98 -0.13,0.96 0.09,1.68 0.27,1.72 0.55,1.76 -0.55,0.36 -0.81,0.14 -0.63,0.01 -0.28,0.27 -0.02,0.66 0.08,0.74 -0.04,0.58 -0.46,2.6 -0.32,6.39 -0.73,2.29 -0.91,1.95 -2.34,7.73 -4.04,9.08 -4.82,8.13 -5.09,5.58 -0.79,1.72 -1.81,5.2 -0.29,2.85 -0.24,1.13 -0.65,1.41 -0.74,1.04 -0.99,1.04 -1.1,0.78 -0.98,0.31 -1.03,0.48 -1.52,2.08 -0.98,0.49 -0.68,0.7 0.64,1.51 1.04,1.38 0.46,0.31 0.34,1.52 0.04,1.17 -0.46,1.01 -1.09,1.04 -1.13,-2.98 -0.88,0.05 -1.12,1.33 -1.86,0.82 -1.31,1.11 -2.11,4.87 -2.18,1.99 -3.32,4.1 -1.42,1.27 -3.91,0.78 -1.57,0.85 -0.99,2.28 0.81,3.97 3.15,3.26 4.21,2.19 3.93,0.81 1.14,-0.53 1.06,-1.03 0.99,-0.76 0.9,0.34 0.97,0.71 0.92,-0.2 0.8,-0.74 0.57,-0.9 0.54,-2.63 -1.22,-1.12 -4.02,-1.03 0.49,-1.84 0.72,-1.4 1.02,-1.14 1.35,-1.09 1.79,-0.84 2.54,-0.45 2.27,0.67 0.99,2.57 -0.4,2.93 -1.89,4.49 -0.66,2.43 0.11,2.79 0.57,2.1 0.16,1.9 -1.13,2.18 0.18,0.96 1.16,1.18 1.9,1.41 1.38,0.33 0.92,-0.16 0.83,-0.64 4.22,-4.61 1.98,-1.4 2.2,-0.56 2.33,0.26 10.29,4 0.94,0.8 0.41,1.23 -1.39,8.55 0.07,1.62 0.57,1.41 0.73,1.17 0.4,1.26 -0.46,1.72 1.36,1.15 0.8,3.59 1.36,0.76 6.6,-0.63 1.39,-0.58 2.85,-3.24 1.42,-1.06 5.89,-2.36 18.96,-14.96 5.04,-2.62 4.31,-3.13 3.17,-3.4 13.13,-10.87 8.72,-12.25 1.83,-4.33 2.75,-10.4 0.96,-2.38 1.49,-2.61 1.82,-2.07 4.25,-1.78 1.31,-2.19 1.39,-5.38 3.01,-7.57 1.98,-3.27 3.3,-8.5 0.58,-1.04 0.63,-0.46 1.39,-0.19 0.59,-0.4 1.71,-3.27 0.47,-1.25 0.35,-1.32 0.14,-1.14 0.75,-1.44 5.12,-5.16 5,-8.19 1.67,-0.55 2.16,0.52 2.1,-0.14 1.47,-2.54 0.94,-8.05 5.53,-11.36 -0.9,0.13 -0.78,0.48 -0.7,0.77 -0.56,0.99 0.31,-2.26 0.75,-1.88 2.17,-3.14 0.94,-0.66 0.79,0.5 0.72,0.88 0.83,0.41 0.71,-0.33 3.76,-3.49 3.46,-5.06 2.11,-4.19 1.36,-3.87 0.25,-0.52 1.11,-1.71 0.17,-0.53 0.05,-0.75 -0.15,-2.84 0.07,-1.48 0.38,-1.04 1.17,-1.89 1.85,-4.55 2.86,-9.89 1.16,-2.18 0.45,-0.31 1.33,-0.56 0.34,-0.24 0.15,-0.76 -0.05,-0.66 -0.1,-0.53 v -0.42 l 1.95,-7.48 0.67,-1.25 1.98,-0.77 1.07,-0.66 0.92,-0.86 0.4,-0.87 0.91,-2.74 1.51,-2.23 0.32,-1.52 -2.74,-0.72 -2.93,0.38 -1.5,-0.05 -1.12,-0.71 -0.62,-0.6 -2.22,-1.72 -1.42,-0.75 -0.52,-0.65 -0.55,0.03 z"
         id="path2"
         style="fill:#000000;fill-opacity:1" />
    </g>
  </g>
</svg>
