<?xml version="1.0" encoding="UTF-8" standalone="no"?>
<svg
   xmlns:dc="http://purl.org/dc/elements/1.1/"
   xmlns:cc="http://creativecommons.org/ns#"
   xmlns:rdf="http://www.w3.org/1999/02/22-rdf-syntax-ns#"
   xmlns:svg="http://www.w3.org/2000/svg"
   xmlns="http://www.w3.org/2000/svg"
   xmlns:sodipodi="http://sodipodi.sourceforge.net/DTD/sodipodi-0.dtd"
   xmlns:inkscape="http://www.inkscape.org/namespaces/inkscape"
   version="1.1"
   width="800"
   height="800"
   viewBox="0 0 800 800"
   id="svg8"
   sodipodi:docname="New_Zealand_South.svg"
   inkscape:version="1.0.1 (3bc2e813f5, 2020-09-07)">
  <metadata
     id="metadata14">
    <rdf:RDF>
      <cc:Work
         rdf:about="">
        <dc:format>image/svg+xml</dc:format>
        <dc:type
           rdf:resource="http://purl.org/dc/dcmitype/StillImage" />
        <dc:title></dc:title>
      </cc:Work>
    </rdf:RDF>
  </metadata>
  <defs
     id="defs12" />
  <sodipodi:namedview
     pagecolor="#ffffff"
     bordercolor="#666666"
     borderopacity="1"
     objecttolerance="10"
     gridtolerance="10"
     guidetolerance="10"
     inkscape:pageopacity="0"
     inkscape:pageshadow="2"
     inkscape:window-width="1920"
     inkscape:window-height="974"
     id="namedview10"
     showgrid="false"
     inkscape:zoom="0.94355198"
     inkscape:cx="600"
     inkscape:cy="400"
     inkscape:window-x="-11"
     inkscape:window-y="-11"
     inkscape:window-maximized="1"
     inkscape:current-layer="svg8" />
  <g
     id="g6"
     style="fill:#000000;fill-opacity:1"
     transform="translate(-200.25149)">
    <g
       stroke="#000000"
       stroke-width="0.98"
       fill="#ffffff"
       id="g4"
       style="fill:#000000;fill-opacity:1">
      <path
         d="m 817.49,350.08 -0.3,-1.82 0.47,-1.03 2.18,-3.43 2.11,-5.27 1.32,-2.49 7.1,-5.22 2.5,-3.17 3.07,-1.44 12.49,-3.1 4.46,-3.51 0.8,-0.86 0.39,-1.11 0.33,-1.42 0.53,-1.25 3.83,-2 2.61,-0.4 1.02,-0.36 4.03,-2.53 0.86,-0.86 0.35,-0.89 0.22,-1.76 0.61,-0.64 0.81,-0.43 0.88,-1.1 0.66,-1.54 0.07,-0.73 -0.12,-0.69 0.03,-1.43 -0.43,-2.44 0.18,-1.29 2.89,-1.5 1.77,-2.26 1.39,-2.69 1.01,-4.39 7.18,-15.6 -0.49,-0.29 -0.38,-0.28 -0.44,-0.24 -0.64,-0.05 v -0.93 l 4.07,-2.14 2.19,-4.62 1.44,-5.5 1.84,-4.81 4.85,-5.98 1.17,-0.94 0.96,-0.39 1.98,-1.78 1.2,-0.39 1.41,0.24 1.05,0.69 1.89,2.57 0.7,-0.84 0.61,-0.95 -0.63,-1.18 -1.58,-1.96 -0.36,-1.14 0.16,-2.05 0.69,-1.03 0.98,-0.69 1.03,-0.97 0.39,-0.72 0.92,-2.22 1.31,0.07 0.64,-0.12 0.54,-0.43 2.86,-4.73 1.98,-1.89 4.16,-2.72 1.81,-1.78 1.78,-3.28 1.76,-2.36 0.18,-0.59 0.7,-1.6 0.55,-1.26 0.88,-1.14 0.21,-2.25 -0.06,-3.78 0.52,-2.54 1.27,-2.86 2.68,-4.47 7.17,-7.73 10.75,-11.56 1.6,-2.4 6.58,-12.67 0.53,-3.03 -1.73,0.68 -2.33,-0.28 -2.06,-1.23 -0.87,-2.16 -0.52,-0.82 -1.94,-6.78 -0.07,-1.32 -0.55,-2.31 -0.39,-1.25 -0.46,-1.58 -0.15,-1.75 -5.1,-8.79 -1.3,-1.12 0.26,1.91 0.84,2.51 0.48,0.56 -0.45,2.5 -1.02,0.33 -1,-0.66 -0.34,-0.48 0.31,-0.76 -0.42,-1.63 -1.09,-1.51 -1.74,-0.39 0.61,-2.05 -0.17,-1.78 -1,-3.75 -0.13,-2.33 0.45,-1.53 2.2,-2.96 1.73,-3.3 1.46,-3.55 1.78,-3.06 2.67,-1.87 -0.64,1.79 1.26,0.32 1.93,-1.95 0.92,0.31 -0.18,0.76 -1.58,2.67 -0.46,1.23 1.37,-0.4 2.2,-1.79 2.89,-0.78 0.62,-0.96 0.33,-1.22 0.46,-1.19 0.91,-1.17 1.83,-1.71 0.69,-0.85 1.44,-2.89 1.15,-3.08 -3.81,2.96 -1.95,0.91 -2.48,0.34 -0.95,0.27 -1.34,1.2 -1.14,0.29 -1.17,-0.32 -1.33,-0.84 -1.27,-1.11 -0.97,-1.18 -0.86,0.34 -1.91,0.44 -1.81,1.23 -1.01,-0.08 -0.99,-0.32 -1.06,0.08 -1.65,1.11 -1.26,1.15 -1.37,0.56 -2.03,-0.69 -0.97,0.65 -2.59,0.74 -2.18,0.06 0.29,-1.45 1.29,-1.2 1.66,-1.05 1.7,-0.47 1.43,0.59 0.66,-1.29 0.96,-0.52 1.12,0.18 1.1,0.78 1.5,-1.77 2.47,-0.72 4.84,-0.03 1.3,-0.26 0.66,-0.66 0.5,-0.8 0.73,-0.8 1.86,-1.17 0.04,0.25 0.3,-0.14 1.17,-0.41 0.43,-0.21 -0.58,-1.88 -0.64,-1.09 -1.94,-2.13 -0.73,-1.22 -0.69,-1.62 0.03,-1.02 1.39,0.59 0.31,-1.2 0.66,-1.49 0.64,-0.89 0.28,0.58 v 5.02 l 0.41,1.23 0.89,0.02 0.87,-0.51 0.36,-0.32 -0.22,-0.3 1.13,-0.94 1.3,-0.74 0.3,0.3 0.29,-1.06 0.1,-2.39 0.54,-1.2 4.75,-7.65 0.71,-2.11 -0.7,-1.58 -1.32,0.5 -3.71,3.78 -1.94,2.54 -1.56,1.6 -1.79,0.66 -1.67,-1.46 -0.42,-1.07 -0.03,-0.81 0.43,-0.51 1.97,-0.32 0.47,-0.45 0.11,-0.89 v -1.44 l -0.47,-1.75 -1.16,-1.85 -1.46,-1.4 -1.4,-0.48 0.35,2.29 -0.91,1.96 -1.54,0.68 -1.57,-1.58 -1.4,2.18 -1.75,0.59 -1.94,-0.6 -1.96,-1.33 -3.34,-3.53 -1.61,-0.7 -0.16,2.57 -1.44,-0.71 -0.63,0.48 0.11,1.23 0.75,1.57 h -3.22 l 0.69,1.45 2.84,3.11 1.22,0.6 0.59,-1.29 0.38,-1.91 0.61,-1.2 1.52,0.02 0.76,1.36 -0.06,1.81 -1.58,2.5 0.42,1.2 1.56,2.41 -2.8,0.01 -1.19,1.37 -0.8,2.35 -1.62,2.96 -0.53,-3.77 0.24,-1.9 0.97,-1.96 -3.22,-0.75 0.15,1.25 -0.14,0.78 -0.45,0.38 -0.81,0.12 -0.69,0.28 0.05,0.66 0.19,0.87 -0.18,0.77 -1.18,1.03 -1.18,0.83 -0.96,1.14 -0.48,1.95 0.82,3.76 2.44,0.12 4.96,-2.12 -0.64,1.66 0.51,0.42 0.38,0.24 0.42,0.09 0.62,0.01 0.84,-0.2 0.2,-0.52 v -0.55 l 0.24,-0.39 1.58,-0.5 10.43,-0.26 -2.02,2.22 -2.66,0.74 -5.48,-0.54 1.43,1.4 0.56,0.38 -1.44,0.8 -2.22,0.72 -2.25,0.28 -1.46,-0.56 -1.43,-0.86 -1.95,-0.06 -3.88,0.5 0.73,1.08 1.03,0.2 1.25,-0.04 1.35,0.44 v 0.84 l -3.48,0.94 -9.77,5.79 -0.77,-0.33 -0.8,-0.59 -0.64,-0.97 -0.32,-1.39 5.07,-1.5 2.63,-1.37 1.14,-1.42 0.21,-1.48 0.91,-2.74 0.2,-1.27 -0.59,-1.73 -1.4,-1.27 -1.67,-0.72 -1.44,-0.01 0.97,-1.81 1.46,-0.48 1.32,-0.82 0.67,-2.84 0.77,0.45 0.62,0.01 0.42,-0.52 0.13,-1.18 -0.11,-0.52 -0.47,-0.72 -0.09,-0.49 0.22,-1 0.57,0.04 0.63,0.43 0.47,0.15 0.66,0.14 0.86,0.47 0.74,0.07 0.32,-1.13 0.18,-1.23 0.52,-0.72 0.81,-0.26 1.01,0.16 -2.39,-1.28 -3.25,0.14 -6.09,1.14 -0.07,0.58 -2.15,3.14 -0.4,1.93 -0.96,0.66 -1.07,-0.3 -0.77,-0.98 0.86,-0.88 0.8,-1.18 0.6,-1.4 0.31,-1.57 -1.56,-0.59 -0.04,-0.9 0.92,-0.98 1.31,-0.88 -2.25,-2.45 1.4,-1.22 2.65,-0.38 1.41,0.2 1.32,1.33 2.92,-0.07 3.01,-1.02 1.53,-1.48 -0.81,-0.17 -0.32,-0.31 -0.19,-0.47 -0.56,-0.74 0.87,-0.88 0.94,-0.41 0.99,0.05 1.04,0.4 0.43,-1.7 0.88,-0.9 0.55,-0.87 -0.6,-1.61 4.46,1.17 1.59,-0.45 -0.99,-3.23 -0.77,-0.63 -1.1,-0.25 h -1.1 l -0.77,0.12 -4.54,2.51 -1.38,0.44 -0.5,0.32 -0.11,0.39 -0.24,1.58 -0.23,0.62 -2.82,2.88 -0.34,0.45 -2.22,-0.51 0.35,-5.63 -2.28,1.55 -2.04,3.23 -0.49,0.52 -4.7,0.8 -1.01,0.48 -0.88,0.69 -2.13,1.1 -0.79,0.7 -1.51,1.93 -0.11,0.66 0.02,1.64 0.58,0.36 3.55,-2.5 1.16,0.34 0.74,0.9 0.09,1.24 -0.72,1.32 -2.2,1.23 -2.5,0.82 -1.31,1.38 1.3,2.91 -1.32,0.82 -0.45,-1.17 -0.46,-0.39 -0.47,0.39 -0.45,1.17 h -0.63 l -0.11,-2.38 -0.94,-2.17 -1.46,-1.6 -1.63,-0.62 -1.35,0.63 -1.61,1.45 -0.85,1.69 0.94,1.34 -0.76,1.34 -0.78,-0.06 -0.8,-0.5 -0.81,0.06 -0.74,0.82 -1.5,2.94 -1.27,1.36 -1.56,1.05 -3.19,1.36 0.35,-0.88 0.27,-1.11 -0.05,-0.96 -0.57,-0.4 -0.96,0.4 -1.04,1.78 -2.31,0.99 -5.74,5.7 -3.56,5.04 -1.59,1.78 -3.2,1.97 -3.42,3 -1.77,0.88 -1.96,0.36 -4.29,-0.03 -2.05,-0.48 -1.61,-1.03 -0.66,-1.82 0.36,-0.92 1.59,-0.76 0.53,-0.76 -0.07,-0.96 -1.15,-3.33 -0.87,-5 -0.72,-1.57 -1,1.53 h -0.61 l -0.27,-1.4 -0.5,-0.9 -1.45,-1.51 -0.31,-1.08 0.63,-4.4 0.87,0.46 0.73,0.77 0.57,0.97 0.34,1.16 0.41,-2.01 -0.72,-1.67 -1.04,-1.62 -0.53,-1.87 -0.17,-1.88 -1.09,-6.11 -0.9,0.58 -0.7,0.17 -0.69,-0.21 -0.86,-0.54 2.34,-1.91 2.07,-2.25 1.06,-1.61 0.21,-0.84 -0.24,-1.07 -0.34,-2.27 0.92,-5.41 0.27,-0.6 -0.99,-1.82 -1.19,-0.43 -1.37,0.1 -1.55,-0.28 1.13,-1.25 0.11,-1 -0.54,-1.15 0.51,-2.43 -0.03,-1.13 -0.48,-1.53 -1.29,-1.87 -1.32,-0.14 -1.29,1.12 -1.21,1.88 -0.96,-1.39 -0.72,-0.1 -1.48,1.49 -0.15,0.56 0.2,1.59 -0.36,0.35 -1.21,0.11 -0.46,0.22 -2.23,1.79 -1.21,0.5 -1.18,-0.44 -7.95,-6.35 -3.18,-3.27 -1.28,-3.47 -1.97,1.06 -0.6,0.61 -0.5,-1.97 1.12,-3.62 0.01,-2.07 -0.44,-0.55 -1.56,-0.62 -0.52,-0.41 -1.26,-3.26 1.58,0.17 1.29,-0.09 0.49,-0.95 -0.83,-2.53 1.36,-1.19 0.85,-2.31 0.98,-4.81 0.89,-2.51 0.95,-1.21 1.45,-0.4 19.98,1.64 2.12,-0.85 -3.03,-0.31 -5.52,-1.6 -5.99,-0.77 -18.32,0.92 -4.22,2.2 -3.56,4.54 1.17,0.49 1.32,-0.22 1.33,-0.75 1.17,-1.17 0.3,0.43 1.07,1.22 -0.08,1.12 -2.85,1.27 0.41,1.77 -0.58,0.59 -0.78,0.63 -0.83,0.36 -1.51,-0.77 -0.68,0.8 -0.52,1.13 -0.46,0.59 -1.31,-0.52 0.12,-1.35 1.5,-4.02 -3.44,1.37 -4.02,3.93 -9.25,11.48 -4.79,3.71 -0.4,0.47 -1.09,0.35 -2.59,1.79 -1.25,1.15 -0.67,0.12 -1.24,-0.06 -0.12,-0.01 -0.63,0.3 -0.4,0.76 -0.28,0.79 -0.3,0.56 -0.62,0.28 -0.6,-0.01 -0.62,0.09 -0.63,0.63 -0.2,0.53 -0.16,1.28 -0.32,0.69 -2.21,2.95 -1.2,2.43 -0.64,0.74 -0.81,0.33 -1.17,0.07 -0.8,0.94 -0.03,2.15 0.54,3.83 v 13.3 l 0.57,6.37 -0.16,1.14 -0.82,2.8 -0.22,1.5 0.83,13.56 0.52,1.52 1.81,3.46 -1.11,0.04 -1.09,0.53 -0.85,0.55 -0.43,0.17 -0.88,-0.33 -0.45,1.17 -0.29,2.98 -0.06,2.67 -0.18,1.44 -1.25,2.39 -0.21,1.16 0.09,1.21 0.34,1.15 -1.92,0.72 -2.73,1.74 -2.43,2.08 -1.07,1.81 -0.09,1.48 -0.29,1.32 -0.48,1.2 -0.75,1.1 -0.46,0.42 -0.27,0.18 -0.15,0.29 -0.15,2.55 -0.29,0.47 -0.43,0.09 -0.5,0.64 -3.43,7.69 -1.29,2.08 -0.9,0.88 -0.92,0.65 -0.74,0.74 -0.64,2.9 -0.89,0.27 -1.24,-0.23 -1.37,0.29 -0.81,0.7 -2.33,2.76 -8.73,5.64 -4.58,1.97 -0.69,0.05 -1.73,-0.12 -6.43,0.92 -5.53,-0.85 -1.46,1.09 0.1,5.84 0.12,0.71 0.4,0.91 0.69,-0.92 0.6,1.4 -1.9,4.72 -0.89,4.05 -1.3,2.45 -1.56,7.81 -0.91,2.84 -1.36,2.2 -3.16,3.91 -0.46,1 -0.95,3.07 -0.4,2.77 -1.65,4.6 -2.47,18.41 -1.95,5.64 -4.52,7 -0.6,2.9 -0.27,3.99 -0.96,1.86 -1.92,2.27 -6.61,13.64 -1.65,1.01 -2.32,4.41 -1.56,2.33 -1.49,0.98 -0.95,0.46 -0.87,1.07 -1.36,2.39 -0.73,1.61 -1.63,1.14 -1.89,0.82 -0.9,0.34 -1.2,1.23 -7.9,13.8 -1.56,1.38 -1.7,1 -3.31,4.91 -1.62,1.84 -3.39,1.74 -1.03,0.85 -1.18,1.39 -0.79,0.94 -0.99,0.18 -1.45,0.08 -2.93,0.43 -3.59,2.9 -8.26,2.97 -3.71,2.33 -0.58,0.94 -1,0.46 -0.31,2.13 -2.01,-0.85 -1.42,1.11 -1.29,1.83 -1.65,1.3 0.75,1.18 -0.73,0.79 -2.04,1 -6.83,0.47 v 0.95 l -0.9,1.92 -2.39,1.8 -3.14,3.75 -1.78,5.51 2.21,-1.58 2.05,-3.32 2.32,-2.6 2.95,0.58 -5.99,9.6 -1.07,-0.29 -2,-1.24 -1.06,-0.29 -1.47,0.25 -1.26,0.62 -2.35,1.74 -2.24,0.97 -0.92,0.8 -0.69,1.78 -0.86,2.03 -1.38,1.27 -2.02,0.69 -0.78,3.37 -1.19,2.01 -12.33,6.19 -2.01,1.66 -1.92,2.38 -0.59,2.77 -0.15,1.72 -1.02,1.19 -2.4,0.46 -1.87,2.21 -0.06,1.6 -0.55,1.4 -1.38,1.63 -3.13,4.8 -1.47,1.02 -1.87,0.54 -4.79,3.8 -2.04,0.23 -3.74,-0.83 -3.15,2.45 -3.7,1.07 -1.37,1.37 -1.09,0.76 -0.8,0.19 -0.81,-0.14 -0.79,-0.22 -2.51,0.28 -0.91,0.32 -1.16,0.8 -0.99,1.02 -0.42,1 -1.08,1.87 -2.52,1.36 -4.66,1.56 -6.7,4.57 -1.83,0.68 -1.67,0.97 -3.52,4.27 -1.72,0.96 -0.91,0.31 -2.53,1.62 -0.69,0.7 -0.35,1.04 -0.07,1.28 -0.46,1.1 -1.47,1.38 -5.9,3.19 -1.62,1.23 -1.78,1.79 -4.29,2.95 -5.57,5.63 -5.04,3.15 -5.26,1.68 -4.4,-0.68 -1.91,-2.04 -1.45,-2.29 -1.57,-0.88 -2.28,2.19 -0.81,0.37 -2.38,-0.27 -1.26,0.76 -0.89,0.94 -1.9,1.36 -3.11,1.61 -3.43,0.81 -5.72,0.38 -1.84,0.51 -1.81,0.94 1.9,1.5 0.62,0.33 -1.07,0.47 -1.08,0.69 -1.02,0.88 -0.97,1.04 -0.75,1.54 -0.27,1.6 -0.08,1.35 -0.12,0.79 -3.05,3.93 -3.64,3.62 -5.77,3.91 -3.37,3.99 -1.74,1.11 -4.33,1.48 v 0.88 l 2.28,0.9 0.81,1.13 0.3,0.41 -0.04,1.97 -1.12,2.24 -0.85,0.5 h -8.33 l 0.47,4.25 -2.32,2.95 -3.34,2.34 -2.69,2.41 -7.66,8.79 -2.18,3.19 0.73,1.49 0.56,1.91 0.59,3.76 -0.14,3.46 0.14,0.97 0.49,0.95 0.45,0.26 0.46,0.1 0.55,0.47 2.46,2.66 2.09,1.27 0.51,0.51 0.63,1.65 0.23,2 -0.2,1.93 -0.66,1.51 -2.84,-5.76 -1.22,-1.35 -3.12,-1.85 -4.08,-3.76 -2.73,-0.63 -2.71,1.15 -2.67,2.89 -0.66,0.54 -1.57,0.49 -0.61,0.38 -0.5,0.84 -0.74,1.85 -0.66,0.78 -4.9,1.43 -1.46,1.22 -0.77,1.86 0.41,1.37 2.37,2.19 3.48,4.36 1.56,0.89 -2.38,-0.72 -1.72,-0.94 -1.51,-1.54 -1.74,-2.49 -1.03,-0.7 -0.98,0.53 -0.93,0.93 -1.77,0.91 0.21,0.97 1,1.72 0.61,2.27 2.42,2.71 0.19,2.65 -0.71,2.32 -0.97,1.71 -0.79,1.94 -0.18,2.94 -1.66,-1.28 -0.94,-1.53 -0.25,-1.91 0.45,-2.41 0.84,-1.84 0.75,-0.93 0.27,-0.9 -0.66,-1.74 -2.95,-2.88 -3.34,0.45 -2.72,2.88 -1.15,4.48 0.26,1.59 1.35,4.22 0.67,1.35 0.64,1.9 -0.04,2.08 -0.19,1.88 0.25,1.31 1.92,1.89 0.26,0.79 0.06,0.96 0.2,1.02 0.31,0.92 0.39,0.72 0.29,1.42 -1.61,0.28 -3.43,-0.37 0.63,-2.44 -0.67,-1.59 -1.12,-1.34 -0.74,-1.77 0.11,-1.23 0.92,-2.51 0.24,-1.24 -0.29,-1.27 -0.66,-0.96 -0.65,-0.76 -0.3,-0.57 -1.26,-4.03 -3.04,0.19 -7.11,4.29 0.48,0.62 0.89,1.46 0.51,0.58 -2.2,0.12 -1.74,0.36 -1.52,0.81 -4.62,3.99 -1.55,1.81 -0.41,1.84 1.07,1.12 11.14,6.49 1.74,0.5 -1.31,1.46 -2.06,-1.14 -2.28,-1.97 -1.94,-1.04 -2.43,-0.67 -2.47,-1.24 -2.37,-0.73 -2.25,0.86 -1.23,2.05 0.14,2.15 1.09,2.18 1.57,2.14 1.94,1.28 5.25,1.96 1.4,1.66 -5.61,-0.64 -1.39,0.64 -0.42,1.01 0.27,2.63 -0.48,1.79 -1.07,-1.15 -0.15,-1.47 0.15,-1.74 -0.2,-1.9 -3.5,-5.89 -2.04,-0.51 -2.23,2.19 -3.65,5.99 2.28,0.2 1.94,1.67 3.36,4.41 3.34,2.82 0.5,0.84 -0.71,0.95 h -1.43 l -1.56,-0.59 -1.06,-0.86 -3.61,-5.08 -2.19,-1.6 -2.76,-0.07 -2.07,1.4 -0.66,2.19 0.26,5.85 0.4,1.5 1.69,1.43 0.56,2.63 0.84,2.62 0.19,1.73 1.6,0.95 7.53,-0.79 2.35,-0.61 3.52,-1.67 3.47,-0.06 0.01,0.16 -0.79,0.6 -0.53,1.42 -0.17,2.5 0.25,0.61 0.9,1.38 1.28,0.95 3.26,-0.17 1.49,0.47 -1.02,1.74 -1.67,0.72 -1.91,-0.06 -1.72,-0.6 -1.29,-1.18 -1.61,-3.16 -0.94,-1.05 -1.71,-0.17 -9.4,2.83 -1.56,0.9 -1.34,1.83 9.33,9.35 4.79,6.3 0.51,4.31 -0.62,-0.64 -1.2,-0.65 -0.7,-0.52 -0.23,0.48 -0.4,0.34 -1.66,-4.46 -0.62,-3.1 -0.93,-1.08 -1.16,-0.79 -2.52,-2.3 -0.66,0.71 -0.37,1.71 -0.64,1.69 -1.19,1.42 -1.11,0.69 -3.14,0.19 -0.85,-0.57 1,-1.22 2.37,-1.9 0.88,-1.69 0.17,-1.3 -0.38,-1.16 -0.67,-1.23 -2.63,-2.72 -2.5,0.24 -2.59,1.24 -2.95,0.34 0.34,-1.24 0.59,-0.99 0.74,-0.81 0.85,-0.64 -3.85,-1.89 -1.74,-1.67 -0.73,-2.24 -0.89,-0.45 -2.02,1.56 -3.14,3.39 -1.27,2.17 -0.54,1.66 0.3,1.43 1.21,1.52 1.64,1.2 3.64,1.89 1.7,1.39 1.13,-3.05 1.44,1.19 1.44,3.24 1.05,3.12 -3.99,-0.94 -4.46,-2.96 -4.52,-1.91 -4.13,2.21 -0.93,2.06 -1.66,7.94 -3.43,7.51 -0.01,1.98 1.13,2.41 0.75,0.54 1.62,0.17 1.06,-0.13 2.01,-0.58 1.02,-0.11 5.1,-2.89 7.61,-1.54 12.3,-6.55 -0.79,3.33 -2.71,2.05 -5.97,1.9 1.12,1.44 1.4,0.53 3.11,-0.07 -1.99,1.89 -2.55,-0.15 -4.87,-1.74 -2.73,0.46 -4.63,2.48 -2.48,0.58 -2.15,0.84 -1.04,2.17 -0.06,2.93 0.7,3.16 1.57,0.43 8.91,-1.33 -1.43,1.25 -4.92,1.46 -1.61,1.13 -1.12,1.41 -1.71,3.88 2.15,0.74 8.64,-2.55 6.63,0.82 1.43,-0.24 3.95,-1.57 -1.15,2.76 -1.95,1.55 -4.49,2.01 -1.82,1.38 -0.9,0.87 -0.76,1 -1.06,0.87 -1.27,0.06 -2.73,-0.47 -2.53,0.42 -4.91,1.88 -2.38,0.42 -5.76,0.03 -2.74,0.79 -2.29,1.98 -0.69,-0.99 0.69,-0.91 h -6.38 l -5.99,0.91 -1.51,1.29 -0.61,3.08 -0.03,11.95 0.5,2.64 0.12,1.79 -0.35,1.54 v 1.08 l 0.5,1.67 0.7,1.56 0.68,0.7 0.71,-0.52 2.18,-2.43 1.22,-0.77 8.79,-2.63 1.37,-1.46 0.33,-1.31 2.51,-4.15 0.56,-0.57 1.71,-1.23 0.11,-0.74 0.31,-0.95 0.4,-0.88 0.37,-0.61 0.85,-0.92 1.03,-0.85 1.05,-0.2 0.93,1.06 -0.19,1.02 -0.82,1.38 -5.04,6.23 0.25,0.85 1.44,0.73 1.76,0.49 1.27,0.12 3.22,-1.08 3.16,-1.56 -1.55,3.01 -2.4,1.16 -5.57,1.35 -2.59,1.71 -1.76,2.04 -1.03,2.9 -0.31,4.26 -1.46,-0.92 -0.82,1.04 -0.32,2.12 0.01,2.31 6.7,-1.46 2.92,-1.73 1.23,-4.16 1.02,0.98 v 1.11 l -0.37,1.02 -0.08,0.67 0.81,1.16 0.24,0.06 0.17,-0.54 2.88,-3.19 0.39,-0.28 0.16,-1.28 -0.28,-0.88 -0.22,-0.96 0.34,-1.51 1.37,-1.7 2.16,-1.26 4.03,-1.51 5.62,-3.42 2.02,-0.3 v 0.84 l -2.28,1.4 -4.23,3.51 -2.7,0.7 -1.91,1.14 -1.48,2.71 -2.6,6.22 -3.16,4.56 -3.54,4.06 -0.93,0.72 -2.62,1.2 -0.56,0.86 0.42,1.26 2.76,3.75 5.21,3.86 6.19,1.11 12.69,-0.33 6.31,1.74 1.59,0.07 1.57,-0.28 1.58,-0.05 5.92,2.83 1.06,0.26 0.34,0.42 0.41,0.8 0.51,0.53 0.65,-0.39 0.57,-0.53 0.74,-0.39 1.53,-0.44 2.01,0.13 3.79,1.49 1.84,0.2 1.36,-0.52 2.82,-1.8 1.51,-0.5 3.12,0.24 1.42,-0.42 1.19,-1.65 0.55,-1.98 0.18,-1.78 0.38,-1.84 1.06,-2.09 0.35,-1.03 0.08,-2.17 0.56,-0.96 0.75,-0.26 10.59,1.17 1.34,0.35 4.35,2.9 1.87,0.6 3.76,0.39 1.38,1.23 0.03,2.68 2.3,3.85 4.73,6.33 -0.87,1.64 -1.11,0.79 -1.27,0.53 -1.28,0.78 1.11,0.94 2.17,1.28 0.9,0.91 1.31,2.48 0.82,1.19 1.03,0.51 0.86,1.31 0.9,0.92 1.06,0.45 0.54,-0.26 1.4,-1.27 0.63,-0.31 0.73,0.14 1.31,0.69 0.94,0.35 1.11,0.18 1.09,-0.36 0.51,-1.41 0.79,-1.28 1.77,-0.05 2.8,0.46 1.16,-0.47 1.58,0.52 1.63,0.8 1.35,0.43 0.23,-0.72 -0.32,-1.57 0.05,-1.55 1.33,-0.72 9.06,-1.63 2.61,0.71 1.54,1.67 4.94,9.26 1.91,5.54 1.09,1.83 1.88,0.22 1.77,-1.92 0.94,-3.15 -0.75,-3.38 2.35,-0.02 1.72,3.16 0.64,4.35 -0.86,3.58 -4.84,4.09 -0.59,0.91 -0.45,-0.95 0.01,-0.59 -0.17,-0.37 -0.97,-0.33 -0.99,-0.06 -2.85,0.89 0.19,1.55 0.39,1.18 0.69,0.77 2.43,0.81 0.56,1.27 0.17,1.27 0.32,0.57 2.09,1.02 3.36,4.14 2.54,0.45 -1.09,-2.44 -2.8,-3.63 -0.59,-2.74 0.8,-2.35 1.85,0.43 3.72,2.38 8.06,-0.2 2.68,1.1 2.12,2.32 -1.65,0.77 -2.67,-0.55 -0.96,-1.53 -1.12,-0.38 -3.31,-0.06 -1.32,0.44 -0.77,0.6 -0.52,0.67 -1.17,2.32 15.93,1.66 4.97,-1.66 -0.34,-0.42 -0.58,-1.01 -0.35,-0.41 1.21,-1.4 -0.55,-1.01 -1.19,-1.2 -0.73,-1.89 4.61,0.16 2.33,0.54 1.85,1.14 -1.27,0.66 -1.28,0.21 -1.11,0.46 -0.77,1.41 3.16,0.03 9.48,-1.87 2.73,-1.03 h 1.26 l 0.53,1.53 0.16,1.34 2.32,8.44 1.08,1.59 1.7,0.29 3,-0.11 2.59,0.86 3.17,1.62 3.12,0.83 2.48,-1.47 0.33,-1.69 -0.28,-1.65 0.03,-1.19 1.19,-0.16 0.64,0.69 0.62,1.28 0.96,1.23 1.65,0.57 h 2.82 l 0.56,-0.32 0.24,-0.66 0.17,-0.65 1.15,-0.94 -0.07,-3.01 0.84,-0.95 1.16,0.32 0.17,0.04 0.23,1.54 -0.35,2.7 1.21,1.25 1.24,0.22 3.23,-0.46 1.1,-0.35 1.11,-0.81 1.9,-2.12 1.24,-0.84 1.62,-0.14 3.19,0.58 0.58,0.28 1.94,1.56 1.71,-3.14 2.85,0.22 3.1,0.96 2.5,-0.8 -0.52,-0.65 -0.92,-1.57 -0.52,-0.63 4.89,-2.96 1.17,-1.14 1.93,-0.87 2.59,0.66 2.4,1 1.31,0.13 3.06,-2.62 3.33,-1.33 2.9,-2 1.85,-4.64 -7.44,-0.38 -1.45,-0.62 1.49,-0.42 2.66,-1.19 1.59,-0.23 1.57,0.3 3.12,1.25 1.58,0.29 0.75,-0.43 2.17,-1.9 2.6,-0.97 0.44,-1.38 -0.23,-3.56 1.25,-7.03 3.2,-4.48 12.8,-9.21 1.76,-2.04 1.58,-2.44 2.01,-2.45 2.29,-1.48 4.89,-2.04 1.96,-1.31 2.07,-2.02 1.66,-2.53 0.68,-2.84 0.18,-1.22 0.83,-2.46 0.3,-4 0.34,-1.53 1.45,-3.11 5.36,-7.83 6.86,-5.08 7.91,-2.71 19.14,-2.01 0.2,-0.74 -0.02,-0.9 0.49,-0.88 0.95,-0.77 0.37,-0.19 1.89,0.13 1.98,-0.17 1.36,-0.69 0.81,-1.74 0.32,-7.25 -0.36,-2.05 -0.95,-1.69 -0.98,1.84 -1.06,0.62 -1.16,0.31 -1.27,0.86 -1.12,1.58 -1.4,3.02 -1.28,1.25 -4.18,1.64 -2.81,2.47 -3.33,0.9 -1.73,0.91 0.88,-2.27 3.45,-2.31 1.16,-3.37 0.92,-0.48 1.05,-0.23 0.81,-0.3 0.68,-0.85 1.78,-2.87 1.85,-0.99 4.5,-0.92 1.64,-1.26 -0.05,-1.77 -1.87,-1.37 -2.43,-1.28 -1.69,-1.47 -1.23,1.52 -1.19,-0.18 -1.23,-0.82 -1.4,-0.52 -0.83,-0.04 -0.39,-0.3 -0.09,-0.69 v -1.26 l 0.14,-1.16 0.43,-0.07 0.61,0.2 0.77,-0.28 1.89,-1.67 1.17,-0.74 1.04,-0.3 0.72,-0.71 2.18,-4.81 -2.1,-0.3 -1.36,-1.28 -0.04,-1.36 1.86,-0.67 3.33,0.11 1.19,-0.52 1.54,-1.46 -0.84,-2.55 -0.31,-1.34 -0.12,-1.44 1.58,1.22 1.26,0.14 1.12,-0.78 1.09,-1.57 -0.66,-3.25 1.91,-2.04 2.58,-1.77 1.28,-2.39 -0.22,-1.7 -0.36,-1.44 0.02,-1.43 0.86,-1.78 3.43,-4.1 0.18,-3.02 -1.6,-1.52 -1.29,-1.63 1.1,-3.34 1.23,-2.74 2.21,-9.37 5.01,-10.94 10.25,-10.65 6.25,-11.8 0.39,-1.98 0.89,-1.96 0.76,-1.73 1.1,-1.88 0.97,-2.63 0.76,-7.73 0.09,-4.27 -0.91,-3.16 -2.65,-0.45 0.9,-1.59 1.25,-0.7 1.1,-0.99 0.47,-2.45 -0.13,-2.23 -1.06,-6.27 v -9.78 l -0.49,-4.47 -2.04,-2.58 2.68,-1.62 0.76,-0.23 1.06,-0.54 0.31,-1.26 0.03,-1.47 0.2,-1.17 2.68,-3.22 1.23,-1.92 0.51,-2.42 v -7.39 l 0.36,-1.49 5.01,-9.31 0.32,-1.26 0.77,-1.43 1.11,-0.85 1.33,-0.9 1.84,0.71 2.25,-1.32 5.65,-6.11 1.13,-0.91 2.39,-0.9 0.62,-1.08 0.93,-0.98 1.67,-2.03 1.55,-0.52 1.01,-0.4 2.46,-1.83 2.61,-0.79 1.03,-0.95 0.99,-1.18 1.13,-1.07 1.42,-0.57 3.43,-0.76 6.87,-4.83 1.17,-0.77 1.41,-0.18 1.51,0.31 2.78,-0.46 17.84,-13.1 9.61,-4.57 1.91,-1.7 4.27,-1.48 1.65,-1.93 1.91,-0.62 1.1,0.22 7.69,-1.24 0.99,-0.51 1.12,-1.54 0.25,-0.65 -0.18,-0.75 -0.24,-1.89 0.04,-3.13 0.38,-3.78 0.88,-3.19 1.54,-1.34 2.61,-0.56 2.4,-1.03 2.37,-0.41 2.48,1.22 0.75,0.9 1.12,1.79 0.64,0.72 1.6,0.65 2.93,-0.43 1.15,0.27 2.56,1.69 0.69,0.97 -1.35,0.42 -1.42,0.19 -13.93,4.84 -2.48,0.4 -1.14,0.57 -0.92,0.95 -0.36,1.36 0.79,0.49 3.75,-0.6 8.13,-2.96 5.36,-0.53 2.57,-1.37 7.55,-1.1 2.53,-1.24 1.62,-0.12 -1.78,2.39 0.09,1.72 3.59,3.76 1.96,2.62 1.12,0.88 2.11,-0.67 2.12,2.57 1.27,0.74 h 6.05 l 2.17,0.44 0.3,-0.29 -2.92,-4.63 -0.97,-3.44 0.1,-3.51 1.32,-3.46 -1.18,-1.13 -0.27,-1.47 0.61,-1.29 1.43,-0.56 1.21,0.64 0.07,1.55 -0.18,1.89 0.5,1.68 1.06,1.65 0.13,0.98 -0.27,1.09 v 1.98 l 0.37,1.69 1.18,2.88 0.4,1.63 0.76,-0.86 0.82,-0.44 0.82,0.22 0.75,1.08 0.05,-0.86 0.58,-2.72 1.68,0.4 2.28,-3.02 1.14,1.74 1.16,-3.18 0.75,-3.61 0.27,-3.72 -0.34,-3.49 -0.25,-0.63 -0.77,-1.31 -0.23,-0.76 0.12,-0.61 0.34,-0.9 0.26,-1.05 -0.09,-1 -1.05,-1.53 -1.3,-1.04 -1.07,-1.3 -0.39,-2.25 -1.11,0.66 -2.61,2.91 -0.37,-1.75 -1.05,-1.08 -1.38,-0.58 -1.38,-0.16 -1.2,0.6 -0.78,1.35 -0.67,1.52 -0.8,0.98 -1.27,0.36 -0.33,-0.78 0.28,-3.54 -0.16,-2.16 -0.55,-1.07 -2.44,-1.55 -0.82,3.23 -0.44,3.28 -0.41,0.44 -0.86,-1.03 -0.86,-1.82 -0.4,-1.94 -1.49,-0.27 -3.31,-0.04 -3.44,0.89 -1.92,2.5 -2.04,-0.64 -2.57,-0.44 -1.08,-0.99 2.48,-2.27 2.75,-0.94 6.1,-0.41 2.62,-1.19 -5.65,-1.58 -1.4,-1.04 -0.77,-1.78 0.45,-0.84 1.1,0.21 1.17,1.46 0.17,-2.03 -2.65,-7.54 -1.67,-7.96 -0.24,-2.72 0.6,-1.74 0.63,-0.79 0.17,-6.75 0.36,-3.2 0.68,-3.06 z"
         id="path2"
         style="fill:#000000;fill-opacity:1" />
    </g>
  </g>
</svg>
