<?xml version="1.0" encoding="UTF-8" standalone="no"?>
<svg
   xmlns:dc="http://purl.org/dc/elements/1.1/"
   xmlns:cc="http://creativecommons.org/ns#"
   xmlns:rdf="http://www.w3.org/1999/02/22-rdf-syntax-ns#"
   xmlns:svg="http://www.w3.org/2000/svg"
   xmlns="http://www.w3.org/2000/svg"
   xmlns:sodipodi="http://sodipodi.sourceforge.net/DTD/sodipodi-0.dtd"
   xmlns:inkscape="http://www.inkscape.org/namespaces/inkscape"
   version="1.0"
   width="1360"
   height="1360"
   viewBox="0 0 1020 1020"
   preserveAspectRatio="xMidYMid meet"
   id="svg74"
   sodipodi:docname="New_Britain.svg"
   inkscape:version="1.0.1 (3bc2e813f5, 2020-09-07)">
  <defs
     id="defs78" />
  <sodipodi:namedview
     pagecolor="#ffffff"
     bordercolor="#666666"
     borderopacity="1"
     objecttolerance="10"
     gridtolerance="10"
     guidetolerance="10"
     inkscape:pageopacity="0"
     inkscape:pageshadow="2"
     inkscape:window-width="1920"
     inkscape:window-height="974"
     id="namedview76"
     showgrid="false"
     inkscape:zoom="0.35872474"
     inkscape:cx="126.55538"
     inkscape:cy="422.07579"
     inkscape:window-x="-11"
     inkscape:window-y="-11"
     inkscape:window-maximized="1"
     inkscape:current-layer="g72"
     inkscape:document-rotation="0"
     scale-x="0.75"
     units="px" />
  <metadata
     id="metadata2">
Created by potrace 1.10, written by Peter Selinger 2001-2011
<rdf:RDF>
  <cc:Work
     rdf:about="">
    <dc:format>image/svg+xml</dc:format>
    <dc:type
       rdf:resource="http://purl.org/dc/dcmitype/StillImage" />
    <dc:title></dc:title>
  </cc:Work>
</rdf:RDF>
</metadata>
  <g
     transform="matrix(0.1,0,0,-0.1,0,1024)"
     fill="#000000"
     stroke="none"
     id="g72">
    <path
       d="m 10195.642,7358.3994 -13.96,39.8236 -35.284,0.4282 -103.97,-31.6875 h -44.5337 l -153.556,17.0427 -34.086,9.335 -21.838,20.7254 -17.471,23.3803 -19.013,16.4433 -32.458,6.5088 -22.867,-8.0504 -16.443,-11.3904 -13.36,-5.738 -49.416,15.073 -19.44,29.204 -0.857,93.9493 -12.332,60.8916 -1.456,36.2266 13.788,23.5516 27.149,1.7984 12.589,-22.5238 5.652,-29.7178 7.28,-19.0982 17.043,-8.136 43.763,-9.5063 15.159,-1.0277 35.541,7.7078 5.652,19.9546 -30.831,111.7629 -37.083,41.0226 -44.962,35.1133 -38.282,43.2492 -57.123,-14.9874 -20.126,-47.7882 -11.476,-54.811 -31.688,-37.5969 -26.121,0.8565 -63.375,14.816 -12.589,-7.1083 -9.078,-8.9924 -22.5242,-7.7078 -25.5215,-5.3098 -21.0678,-1.9697 -45.8188,16.272 -50.2719,25.9495 -42.4785,5.738 -22.695,-47.9595 19.0124,-34.5994 41.7077,-37.7682 30.4031,-42.6498 -14.5593,-49.1585 -79.0476,-105.2542 -31.602,-23.5516 -52.6699,-7.5365 -103.5413,32.2871 -55.3248,9.335 -46.7604,23.5516 -21.9244,54.8966 -10.9622,62.7756 -14.5593,48.1309 -25.3499,20.1259 -88.8965,41.7077 -31.4308,7.7078 -104.1408,11.7329 -49.8437,-3.8539 -42.1359,-26.6347 0.1714,42.4785 -21.6674,6.0806 -32.0302,-9.6775 -31.4306,-4.7104 -25.2646,7.7078 -44.6194,20.1259 -33.4004,6.3375 -98.4884,-3.9395 -137.3699,25.4357 -37.6827,14.2166 -49.2442,-52.413 -27.5766,-38.3676 -5.2242,-40.2518 15.1587,-57.8941 29.2039,-69.5414 3.597,-24.9218 -4.796,-11.9899 -8.5642,-17.2997 -6.6802,-21.7531 3.0831,-25.1788 16.9573,-25.0075 43.5918,-39.6523 8.7355,-29.8034 1.7985,-50.015 4.8816,-21.7531 8.9068,-22.7808 28.3475,-37.3399 76.5639,-60.6346 32.6298,-40.1662 24.9217,-56.3525 9.3351,-48.9873 -0.4282,-108.3372 10.534,-59.9495 24.3222,-45.9041 51.728,-70.9973 23.6372,-95.3197 -12.7607,-201.6871 4.7102,-98.1459 11.1336,-28.2619 32.8009,-55.753 7.1083,-27.6624 5.3097,-6.8513 11.7331,-4.8816 11.3046,-7.7935 5.7382,-14.6448 -2.4838,-14.6448 -5.6522,-7.7078 -5.0529,-5.2241 -2.4836,-7.3652 -3.8539,-58.5792 -10.8767,-50.4432 -16.8715,-44.7052 -46.1611,-82.8159 -31.6018,-39.2241 -38.8815,-30.0604 -48.9016,-11.3904 -94.8058,69.7127 -100.4582,52.6699 -55.9243,-47.5314 -47.617,-17.2997 -47.4457,5.9093 -54.7253,21.9244 -157.8384,42.3072 -30.5744,27.4911 h -17.0426 l -14.3879,-75.1081 -12.9321,-32.544 -30.831,-13.3602 -32.9722,-5.9093 -35.1133,-14.9017 -30.5742,-19.2695 -20.6399,-18.9269 -23.1232,-14.6448 -65.6875,-18.9269 -22.8666,-9.7632 -1.6272,-6.3375 2.8264,-21.1536 -1.1992,-6.6801 -6.8512,-1.7985 -20.1259,2.9975 -7.0227,-1.199 -33.6573,-34.1712 -69.7127,-103.5413 -37.6825,-25.1787 -45.8185,-60.4634 -16.3576,-9.7632 -36.4836,-13.617 -16.8715,-9.335 -67.2291,-59.4357 -65.2592,-77.6773 -58.3223,-91.2089 -64.8311,-146.4479 -28.4331,-112.5338 -4.796,-52.4986 9.6776,-111.0778 -4.2822,-52.5842 -24.0653,-50.6145 -31.602,-36.0553 -45.3903,-39.6523 -51.4709,-32.3727 -50.7002,-13.2745 -40.5087,-53.2694 -18.2417,-15.073 -27.4911,-8.9925 -75.7933,-7.7077 -39.3097,47.0175 -56.1812,53.5263 -68.6849,23.9798 -74.1662,-39.481 -20.2114,15.5012 -19.2696,-8.9924 -7.2795,-24.408 14.5592,-31.7733 -20.6398,-45.7328 -30.2316,-37.2544 -68.2568,-54.9822 -38.8816,-14.6448 -85.2994,-6.937 -39.3097,-21.1536 -48.2166,-13.874 -41.1939,33.4004 -28.5187,53.355 -10.5341,47.3601 -22.8663,40.3374 -52.3274,32.3728 -148.5033,57.8084 -45.9899,8.7355 -48.0452,-1.199 -126.4077,-21.7531 -16.4434,-6.1662 -12.1611,-10.1915 -31.0024,-39.481 -25.5213,-13.4457 -75.9646,-59.7783 -35.2845,-13.4458 -29.8036,-16.5289 -24.9217,-37.5968 -20.6399,-40.3375 -18.2416,-25.2644 -42.5642,-12.8463 -45.9899,7.3652 -50.1861,14.6448 -171.8837,13.2745 -51.8135,14.6448 -47.2744,31.345 -32.2016,43.5062 -20.2114,53.3551 -10.7909,53.7832 -2.9975,46.418 -8.136,32.9722 -71.5111,146.8762 -63.8034,101.4002 -8.5642,55.9243 -11.3047,23.0377 -44.9622,40.2518 5.8237,11.3904 30.5741,25.6927 21.0681,9.7632 48.0452,9.5062 17.6423,14.9018 6.5088,39.481 -2.4836,64.0602 -10.7053,59.6069 -42.3928,50.8715 33.6573,54.9822 55.4961,57.2945 45.0477,32.3728 112.4481,26.8916 52.4986,25.0075 22.267,43.5061 7.2794,20.3829 13.9598,15.8438 7.2796,21.1536 -11.9043,36.3978 -19.0983,22.1813 -27.491,18.67 -55.5817,27.4911 -109.6219,31.0881 -108.3372,-10.9622 -84.957,-55.4961 -41.5364,-114.7604 -6.4232,-5.4811 -6.0806,-7.7077 -2.8263,-17.2997 5.6525,-14.0454 24.3224,-21.3248 5.6524,-14.4735 -5.6524,-27.6624 -24.3224,-45.1334 -8.9069,-43.9344 -12.5892,-27.4911 0.4282,-18.1562 29.1183,-16.6145 4.8816,-1.8842 15.2443,-47.617 3.8539,-25.6069 -2.0554,-27.4912 -29.8035,-56.0955 -45.9898,-35.8841 -48.6447,-26.0352 -36.8261,-28.8614 -17.0428,-17.4709 -30.8311,-26.7204 -13.7884,-15.2443 -13.5315,-26.4634 -20.0402,-52.9268 -17.0428,-24.8362 24.7506,-30.0603 39.0528,-65.1737 21.3247,-24.408 27.4913,-13.0176 28.4331,-5.4811 21.8388,-10.7909 8.5642,-30.146 -12.8463,-43.1636 -65.0024,-106.4532 -25.9495,-31.088 -80.2467,-54.9823 -96.1761,-31.345 -97.8889,2.6549 -83.9292,49.0729 h -16.9572 l -0.4282,-36.2266 -14.9875,-33.4004 -21.9242,-23.4659 -21.4962,-9.1637 -42.9067,-6.6801 -26.7203,-15.8438 -23.5516,-17.7279 -33.6573,-12.675 -22.6952,3.6826 -38.0251,13.874 -27.1485,24.408 24.2367,74.9368 -2.9975,48.0452 -14.5592,36.9975 -22.0956,4.539 -2.2267,8.4786 v 7.3652 l -2.6549,3.6826 -12.1612,-0.8565 12.932,-26.8059 2.9118,-28.0906 -9.5919,-26.2921 -23.2946,-22.6096 -25.9496,13.874 -24.2367,0.1713 -20.7254,-10.9621 -13.9597,-20.2116 -10.7053,8.5642 -9.3349,4.8816 -8.5642,6.7658 -6.8514,14.0452 -167.0021,-75.1081 -45.5616,-10.4483 -29.2039,-14.2166 -22.4383,-67.1434 -24.9218,-21.2392 -16.4433,5.5667 -68.685,44.1057 -13.9596,-33.743 -27.3198,3.2544 -27.4055,23.6372 -16.4433,25.607 -36.9974,-24.408 -30.8311,-29.7178 -31.602,-10.6196 -37.9394,30.5742 -62.0049,-25.2644 -313.6214,-35.1989 -11.9898,12.1611 -22.0101,29.5466 3.4257,-1.6272 -30.2316,45.219 -16.0151,14.8161 -14.3879,8.3929 -15.7581,2.6549 -20.8967,0.5995 -33.2291,21.5818 -186.4429,85.2995 -43.3349,3.8539 -29.9747,29.1184 -192.5234,83.6723 -129.4053,-75.7933 -33.8286,-9.3349 -38.5389,-0.7708 -15.8438,-3.9396 -38.8815,-31.0881 -48.6447,-21.4105 -15.1587,-15.2443 -4.2821,-31.7732 -37.083,17.7279 -100.7151,16.4433 -42.4785,17.5566 -30.0604,24.5793 -23.8941,25.5214 -23.8942,17.8992 -31.7732,6.937 -87.35494,-6.937 -76.5641,27.6624 -33.6573,2.8261 -32.4584,-21.9243 -60.3776,-63.1183 -71.2543,-48.4734 -73.5665,-14.2166 -66.8865,40.2518 -10.3627,19.5264 -12.5037,45.8185 -12.5894,20.2116 -22.267,14.6448 -43.1635,9.1637 -19.6977,10.9622 -58.32229,47.4457 -29.63217,15.073 -39.481,15.073 -4.28211,-9.4206 0.42821,-3.6826 -2.39798,-1.6272 -12.16117,-2.398 -89.15343,-42.3072 -67.314676,-73.3097 -43.9344,-88.7251 -43.1636202,-283.0472 10.5339802,-93.4355 44.19132,-105.6824 86.926726,-93.6924 11.56168,-29.1183 27.31983,-9.5918 31.43065,-2.6551 23.89415,-9.9344 44.19132,-24.408 116.90148,-8.393 52.2416,-9.9343 40.1662,-26.5492 75.365,-63.5464 46.418,-12.4181 32.8009,10.0201 35.0277,24.2367 59.0074,51.1283 36.3979,-23.0377 58.4079,-58.6648 40.9369,-20.7254 69.7127,7.2796 35.7983,-4.2821 15.2443,-29.7177 18.84134,-9.3351 40.68,3.2544 40.7656,-2.0553 18.8413,-26.4636 5.6524,-29.1183 9.7632,-29.9747 1.9697,-32.2014 -17.3853,-36.8261 18.2418,-17.1284 33.2291,31.7732 29.3752,8.7355 81.4457,-6.5088 24.9218,-5.3097 6.0806,-13.0176 0.8564,-16.8715 9.6776,-15.9296 21.4962,-9.1637 16.6145,1.199 15.1587,-3.2544 16.4433,-23.0377 -23.1234,-11.5617 -18.5843,-15.9294 -15.4156,-19.5264 -12.5894,-22.8665 16.6146,-17.4709 19.0125,-15.33 64.4885,18.1561 104.569,-27.9193 189.1834,-77.1635 34.8563,8.136 25.9496,-9.1637 21.6674,4.8816 19.6976,48.9016 18.2419,-44.6195 -14.6448,-34.8563 -28.7758,-34.2569 -24.2367,-41.5364 57.8941,-14.9017 41.7933,-41.1081 16.9572,-47.9597 -16.1864,-34.428 17.3853,-38.8816 -16.9571,-4.8816 -29.9747,4.2822 -21.4963,-11.6475 -0.4281,-43.8487 30.8312,-0.3426 38.025,17.2997 18.2418,11.2191 99.6874,3.2544 34.6851,12.4181 24.4936,27.4912 21.9244,44.6195 11.7329,47.1031 -5.6523,36.0555 h 15.5868 l 20.0403,-21.7531 29.8034,-9.849 78.4482,-2.6549 38.8814,5.5669 59.9496,23.209 20.8966,5.4811 25.5214,11.0477 62.6044,47.8739 40.7655,9.5919 42.4786,-7.3652 29.2039,-14.4735 47.4457,-31.0023 238.0851,-66.801 59.9494,-43.5918 143.2793,-190.1254 36.2265,-75.6219 36.0554,-56.267 14.6448,-28.1761 26.2921,-27.6624 95.234,-70.9973 14.9874,-22.4383 38.5389,14.4735 38.8816,-2.2267 59.9494,-12.2468 29.204,9.4207 46.418,34.428 16.9571,7.5365 237.143,-5.6524 64.4028,-11.476 15.5869,4.539 67.6573,-4.539 23.7228,2.0554 23.1234,4.539 25.5213,-7.3652 29.8035,-33.486 39.6523,34.685 45.3903,27.4911 43.7631,17.3854 34.0854,6.0805 32.0303,-12.4181 23.4659,-30.5742 10.7909,-38.5389 -8.3074,-36.6548 37.2545,13.7883 25.0931,20.0404 2.8262,24.408 -29.5465,25.6925 28.6044,13.4458 5.0529,3.6826 18.5842,45.3047 16.6147,12.5895 36.4834,-22.7809 14.388,-4.8816 12.4181,-7.3652 5.2242,-14.3023 -0.5995,-27.0629 2.2267,-12.8463 6.2519,-11.4759 46.418,-11.8187 54.554,32.6296 52.8412,46.2467 42.1359,28.7759 36.0553,4.282 19.0982,-7.5364 15.1585,-11.3905 53.6976,-11.0478 15.587,-13.8741 22.9521,-39.1384 44.9621,-14.6448 65.2592,4.8816 100.2869,21.8387 20.0403,11.2192 6.6801,2.3979 14.5591,-5.3098 6.68,-11.8186 4.8816,-11.3904 7.9648,-5.738 23.2947,9.5919 24.0654,18.3274 26.1209,10.8766 28.433,-13.1033 41.7078,-11.2191 64.8311,6.7657 108.8511,30.146 27.748,21.8389 60.9771,65.4304 21.2394,13.8741 53.0981,14.6448 53.8688,35.7127 89.1535,88.0401 3.8538,-12.0755 2.4837,-1.6272 h 3.5969 l 7.1083,-4.8816 26.7204,32.6296 48.302,37.8538 51.6423,26.5491 36.4835,-0.8565 16.9572,-22.01 9.7632,-16.4433 13.1888,-1.2846 27.1486,22.6095 21.4961,10.1914 90.0955,14.9017 86.3273,34 44.7908,8.5643 28.0049,17.3852 22.0957,61.7481 17.9849,29.7178 10.5339,31.3449 -23.466,57.4658 9.5064,28.9471 15.7581,29.7179 10.7909,27.3197 h 15.4155 l 82.2165,-74.3373 49.0729,-25.6927 21.8388,23.8943 28.3474,18.6698 178.7352,40.3375 143.4505,-28.8614 77.4204,7.2797 33.9999,65.2591 30.4029,43.9344 70.9117,34.2569 139.8535,50.7001 10.534,-29.5465 17.3854,-1.6272 64.0603,53.7832 7.8789,17.7279 4.2821,19.0126 13.3603,26.0352 41.9645,42.9923 93.6069,67.4003 34,43.592 22.9519,-4.4535 36.655,8.3072 78.0199,31.7733 33.229,19.612 77.1637,74.3373 23.2946,31.7733 18.67,41.5364 12.1612,47.8739 4.2821,50.2719 15.758,33.4004 37.6826,37.854 45.6473,34.2567 38.282,21.9244 59.7782,-14.0453 65.4306,22.6095 42.7354,42.1359 -5.6524,44.02 -68.9419,67.4004 -21.4105,7.1082 -59.6069,2.2269 -12.3325,8.7353 -12.1613,31.602 -23.1232,34.5994 -13.9597,42.7354 15.1587,54.1258 31.6019,33.8286 37.083,10.9622 85.7278,-10.534 167.7727,-3.0831 44.9621,-22.6095 11.1336,-24.8362 1.0277,-24.8362 7.1083,-19.3551 31.6018,-7.8791 26.7205,11.5617 59.1787,82.4733 43.1636,19.9546 60.8059,6.3377 62.0047,-4.7105 47.1888,-13.0176 44.1915,-36.6548 71.6824,-90.3524 54.2971,-26.8916 65.8588,6.6801 49.8437,36.4835 41.1938,40.5087 40.0805,18.9269 31.1736,3.6826 79.0478,30.4886 80.6748,10.9622 20.2116,6.1662 103.37,111.1635 18.8412,14.6448 116.9015,61.8336 26.7205,3.6826 28.4336,-0.1713 22.438,4.8816 9.164,18.9269 4.881,17.0428 10.877,19.9546 14.045,15.9294 13.103,6.8514 76.222,136.4278 -7.28,59.7782 -49.073,94.035 -11.733,43.5919 -103.3699,128.5487 -46.7605,14.4736 -26.7206,11.5616 -11.9899,17.5567 -6.2518,25.607 -15.8437,17.0427 -125.3802,102.1711 -25.9494,38.4533 -14.6448,63.4608 -6.8515,295.5508 13.5316,52.0704 45.6472,30.9168 53.4407,-28.2619 33.4859,-11.5617 27.9194,22.7808 29.2039,-4.1108 52.2419,-14.3879 36.4837,-3.9395 125.808,-28.8614 52.328,-0.4282 77.163,26.0352 108.851,14.4735 34.428,19.6977 51.471,58.2366 43.763,26.806 18.242,14.2166 39.909,83.4154 9.764,12.1612 26.12,15.073 159.6367,249.9036 17.814,107.1383 44.962,161.2641 -4.197,105.9392 -27.405,97.1182 -73.481,155.3547 -21.325,84.2718 10.962,85.9847 122.811,278.8507 z"
       id="path918"
       style="fill:#000000;stroke:#000000;stroke-width:8.39293;fill-opacity:1" />
  </g>
</svg>
