<?xml version="1.0" encoding="utf-8"?><svg xmlns="http://www.w3.org/2000/svg" version="1.1" baseProfile="tiny" width="1200" height="800" viewBox="0 0 1200 800"><g><g stroke="#000000" stroke-width=".98" fill="#FFFFFF"><path d="m817.49 350.08l-.3-1.82.47-1.03 2.18-3.43 2.11-5.27 1.32-2.49 7.1-5.22 2.5-3.17 3.07-1.44 12.49-3.1 4.46-3.51.8-.86.39-1.11.33-1.42.53-1.25 3.83-2 2.61-.4 1.02-.36 4.03-2.53.86-.86.35-.89.22-1.76.61-.64.81-.43.88-1.1.66-1.54.07-.73-.12-.69.03-1.43-.43-2.44.18-1.29 2.89-1.5 1.77-2.26 1.39-2.69 1.01-4.39 7.18-15.6-.49-.29-.38-.28-.44-.24-.64-.05 0-.93 4.07-2.14 2.19-4.62 1.44-5.5 1.84-4.81 4.85-5.98 1.17-.94.96-.39 1.98-1.78 1.2-.39 1.41.24 1.05.69 1.89 2.57.7-.84.61-.95-.63-1.18-1.58-1.96-.36-1.14.16-2.05.69-1.03.98-.69 1.03-.97.39-.72.92-2.22 1.31.07.64-.12.54-.43 2.86-4.73 1.98-1.89 4.16-2.72 1.81-1.78 1.78-3.28 1.76-2.36.18-.59.7-1.6.55-1.26.88-1.14.21-2.25-.06-3.78.52-2.54 1.27-2.86 2.68-4.47 7.17-7.73 10.75-11.56 1.6-2.4 6.58-12.67.53-3.03-1.73.68-2.33-.28-2.06-1.23-.87-2.16-.52-.82-1.94-6.78-.07-1.32-.55-2.31-.39-1.25-.46-1.58-.15-1.75-5.1-8.79-1.3-1.12.26 1.91.84 2.51.48.56-.45 2.5-1.02.33-1-.66-.34-.48.31-.76-.42-1.63-1.09-1.51-1.74-.39.61-2.05-.17-1.78-1-3.75-.13-2.33.45-1.53 2.2-2.96 1.73-3.3 1.46-3.55 1.78-3.06 2.67-1.87-.64 1.79 1.26.32 1.93-1.95.92.31-.18.76-1.58 2.67-.46 1.23 1.37-.4 2.2-1.79 2.89-.78.62-.96.33-1.22.46-1.19.91-1.17 1.83-1.71.69-.85 1.44-2.89 1.15-3.08-3.81 2.96-1.95.91-2.48.34-.95.27-1.34 1.2-1.14.29-1.17-.32-1.33-.84-1.27-1.11-.97-1.18-.86.34-1.91.44-1.81 1.23-1.01-.08-.99-.32-1.06.08-1.65 1.11-1.26 1.15-1.37.56-2.03-.69-.97.65-2.59.74-2.18.06.29-1.45 1.29-1.2 1.66-1.05 1.7-.47 1.43.59.66-1.29.96-.52 1.12.18 1.1.78 1.5-1.77 2.47-.72 4.84-.03 1.3-.26.66-.66.5-.8.73-.8 1.86-1.17.04.25.3-.14 1.17-.41.43-.21-.58-1.88-.64-1.09-1.94-2.13-.73-1.22-.69-1.62.03-1.02 1.39.59.31-1.2.66-1.49.64-.89.28.58 0 5.02.41 1.23.89.02.87-.51.36-.32-.22-.3 1.13-.94 1.3-.74.3.3.29-1.06.1-2.39.54-1.2 4.75-7.65.71-2.11-.7-1.58-1.32.5-3.71 3.78-1.94 2.54-1.56 1.6-1.79.66-1.67-1.46-.42-1.07-.03-.81.43-.51 1.97-.32.47-.45.11-.89 0-1.44-.47-1.75-1.16-1.85-1.46-1.4-1.4-.48.35 2.29-.91 1.96-1.54.68-1.57-1.58-1.4 2.18-1.75.59-1.94-.6-1.96-1.33-3.34-3.53-1.61-.7-.16 2.57-1.44-.71-.63.48.11 1.23.75 1.57-3.22 0 .69 1.45 2.84 3.11 1.22.6.59-1.29.38-1.91.61-1.2 1.52.02.76 1.36-.06 1.81-1.58 2.5.42 1.2 1.56 2.41-2.8.01-1.19 1.37-.8 2.35-1.62 2.96-.53-3.77.24-1.9.97-1.96-3.22-.75.15 1.25-.14.78-.45.38-.81.12-.69.28.05.66.19.87-.18.77-1.18 1.03-1.18.83-.96 1.14-.48 1.95.82 3.76 2.44.12 4.96-2.12-.64 1.66.51.42.38.24.42.09.62.01.84-.2.2-.52 0-.55.24-.39 1.58-.5 10.43-.26-2.02 2.22-2.66.74-5.48-.54 1.43 1.4.56.38-1.44.8-2.22.72-2.25.28-1.46-.56-1.43-.86-1.95-.06-3.88.5.73 1.08 1.03.2 1.25-.04 1.35.44 0 .84-3.48.94-9.77 5.79-.77-.33-.8-.59-.64-.97-.32-1.39 5.07-1.5 2.63-1.37 1.14-1.42.21-1.48.91-2.74.2-1.27-.59-1.73-1.4-1.27-1.67-.72-1.44-.01.97-1.81 1.46-.48 1.32-.82.67-2.84.77.45.62.01.42-.52.13-1.18-.11-.52-.47-.72-.09-.49.22-1 .57.04.63.43.47.15.66.14.86.47.74.07.32-1.13.18-1.23.52-.72.81-.26 1.01.16-2.39-1.28-3.25.14-6.09 1.14-.07.58-2.15 3.14-.4 1.93-.96.66-1.07-.3-.77-.98.86-.88.8-1.18.6-1.4.31-1.57-1.56-.59-.04-.9.92-.98 1.31-.88-2.25-2.45 1.4-1.22 2.65-.38 1.41.2 1.32 1.33 2.92-.07 3.01-1.02 1.53-1.48-.81-.17-.32-.31-.19-.47-.56-.74.87-.88.94-.41.99.05 1.04.4.43-1.7.88-.9.55-.87-.6-1.61 4.46 1.17 1.59-.45-.99-3.23-.77-.63-1.1-.25-1.1 0-.77.12-4.54 2.51-1.38.44-.5.32-.11.39-.24 1.58-.23.62-2.82 2.88-.34.45-2.22-.51.35-5.63-2.28 1.55-2.04 3.23-.49.52-4.7.8-1.01.48-.88.69-2.13 1.1-.79.7-1.51 1.93-.11.66.02 1.64.58.36 3.55-2.5 1.16.34.74.9.09 1.24-.72 1.32-2.2 1.23-2.5.82-1.31 1.38 1.3 2.91-1.32.82-.45-1.17-.46-.39-.47.39-.45 1.17-.63 0-.11-2.38-.94-2.17-1.46-1.6-1.63-.62-1.35.63-1.61 1.45-.85 1.69.94 1.34-.76 1.34-.78-.06-.8-.5-.81.06-.74.82-1.5 2.94-1.27 1.36-1.56 1.05-3.19 1.36.35-.88.27-1.11-.05-.96-.57-.4-.96.4-1.04 1.78-2.31.99-5.74 5.7-3.56 5.04-1.59 1.78-3.2 1.97-3.42 3-1.77.88-1.96.36-4.29-.03-2.05-.48-1.61-1.03-.66-1.82.36-.92 1.59-.76.53-.76-.07-.96-1.15-3.33-.87-5-.72-1.57-1 1.53-.61 0-.27-1.4-.5-.9-1.45-1.51-.31-1.08.63-4.4.87.46.73.77.57.97.34 1.16.41-2.01-.72-1.67-1.04-1.62-.53-1.87-.17-1.88-1.09-6.11-.9.58-.7.17-.69-.21-.86-.54 2.34-1.91 2.07-2.25 1.06-1.61.21-.84-.24-1.07-.34-2.27.92-5.41.27-.6-.99-1.82-1.19-.43-1.37.1-1.55-.28 1.13-1.25.11-1-.54-1.15.51-2.43-.03-1.13-.48-1.53-1.29-1.87-1.32-.14-1.29 1.12-1.21 1.88-.96-1.39-.72-.1-1.48 1.49-.15.56.2 1.59-.36.35-1.21.11-.46.22-2.23 1.79-1.21.5-1.18-.44-7.95-6.35-3.18-3.27-1.28-3.47-1.97 1.06-.6.61-.5-1.97 1.12-3.62.01-2.07-.44-.55-1.56-.62-.52-.41-1.26-3.26 1.58.17 1.29-.09.49-.95-.83-2.53 1.36-1.19.85-2.31.98-4.81.89-2.51.95-1.21 1.45-.4 19.98 1.64 2.12-.85-3.03-.31-5.52-1.6-5.99-.77-18.32.92-4.22 2.2-3.56 4.54 1.17.49 1.32-.22 1.33-.75 1.17-1.17.3.43 1.07 1.22-.08 1.12-2.85 1.27.41 1.77-.58.59-.78.63-.83.36-1.51-.77-.68.8-.52 1.13-.46.59-1.31-.52.12-1.35 1.5-4.02-3.44 1.37-4.02 3.93-9.25 11.48-4.79 3.71-.4.47-1.09.35-2.59 1.79-1.25 1.15-.67.12-1.24-.06-.12-.01-.63.3-.4.76-.28.79-.3.56-.62.28-.6-.01-.62.09-.63.63-.2.53-.16 1.28-.32.69-2.21 2.95-1.2 2.43-.64.74-.81.33-1.17.07-.8.94-.03 2.15.54 3.83 0 13.3.57 6.37-.16 1.14-.82 2.8-.22 1.5.83 13.56.52 1.52 1.81 3.46-1.11.04-1.09.53-.85.55-.43.17-.88-.33-.45 1.17-.29 2.98-.06 2.67-.18 1.44-1.25 2.39-.21 1.16.09 1.21.34 1.15-1.92.72-2.73 1.74-2.43 2.08-1.07 1.81-.09 1.48-.29 1.32-.48 1.2-.75 1.1-.46.42-.27.18-.15.29-.15 2.55-.29.47-.43.09-.5.64-3.43 7.69-1.29 2.08-.9.88-.92.65-.74.74-.64 2.9-.89.27-1.24-.23-1.37.29-.81.7-2.33 2.76-8.73 5.64-4.58 1.97-.69.05-1.73-.12-6.43.92-5.53-.85-1.46 1.09.1 5.84.12.71.4.91.69-.92.6 1.4-1.9 4.72-.89 4.05-1.3 2.45-1.56 7.81-.91 2.84-1.36 2.2-3.16 3.91-.46 1-.95 3.07-.4 2.77-1.65 4.6-2.47 18.41-1.95 5.64-4.52 7-.6 2.9-.27 3.99-.96 1.86-1.92 2.27-6.61 13.64-1.65 1.01-2.32 4.41-1.56 2.33-1.49.98-.95.46-.87 1.07-1.36 2.39-.73 1.61-1.63 1.14-1.89.82-.9.34-1.2 1.23-7.9 13.8-1.56 1.38-1.7 1-3.31 4.91-1.62 1.84-3.39 1.74-1.03.85-1.18 1.39-.79.94-.99.18-1.45.08-2.93.43-3.59 2.9-8.26 2.97-3.71 2.33-.58.94-1 .46-.31 2.13-2.01-.85-1.42 1.11-1.29 1.83-1.65 1.3.75 1.18-.73.79-2.04 1-6.83.47 0 .95-.9 1.92-2.39 1.8-3.14 3.75-1.78 5.51 2.21-1.58 2.05-3.32 2.32-2.6 2.95.58-5.99 9.6-1.07-.29-2-1.24-1.06-.29-1.47.25-1.26.62-2.35 1.74-2.24.97-.92.8-.69 1.78-.86 2.03-1.38 1.27-2.02.69-.78 3.37-1.19 2.01-12.33 6.19-2.01 1.66-1.92 2.38-.59 2.77-.15 1.72-1.02 1.19-2.4.46-1.87 2.21-.06 1.6-.55 1.4-1.38 1.63-3.13 4.8-1.47 1.02-1.87.54-4.79 3.8-2.04.23-3.74-.83-3.15 2.45-3.7 1.07-1.37 1.37-1.09.76-.8.19-.81-.14-.79-.22-2.51.28-.91.32-1.16.8-.99 1.02-.42 1-1.08 1.87-2.52 1.36-4.66 1.56-6.7 4.57-1.83.68-1.67.97-3.52 4.27-1.72.96-.91.31-2.53 1.62-.69.7-.35 1.04-.07 1.28-.46 1.1-1.47 1.38-5.9 3.19-1.62 1.23-1.78 1.79-4.29 2.95-5.57 5.63-5.04 3.15-5.26 1.68-4.4-.68-1.91-2.04-1.45-2.29-1.57-.88-2.28 2.19-.81.37-2.38-.27-1.26.76-.89.94-1.9 1.36-3.11 1.61-3.43.81-5.72.38-1.84.51-1.81.94 1.9 1.5.62.33-1.07.47-1.08.69-1.02.88-.97 1.04-.75 1.54-.27 1.6-.08 1.35-.12.79-3.05 3.93-3.64 3.62-5.77 3.91-3.37 3.99-1.74 1.11-4.33 1.48 0 .88 2.28.9.81 1.13.3.41-.04 1.97-1.12 2.24-.85.5-8.33 0 .47 4.25-2.32 2.95-3.34 2.34-2.69 2.41-7.66 8.79-2.18 3.19.73 1.49.56 1.91.59 3.76-.14 3.46.14.97.49.95.45.26.46.1.55.47 2.46 2.66 2.09 1.27.51.51.63 1.65.23 2-.2 1.93-.66 1.51-2.84-5.76-1.22-1.35-3.12-1.85-4.08-3.76-2.73-.63-2.71 1.15-2.67 2.89-.66.54-1.57.49-.61.38-.5.84-.74 1.85-.66.78-4.9 1.43-1.46 1.22-.77 1.86.41 1.37 2.37 2.19 3.48 4.36 1.56.89-2.38-.72-1.72-.94-1.51-1.54-1.74-2.49-1.03-.7-.98.53-.93.93-1.77.91.21.97 1 1.72.61 2.27 2.42 2.71.19 2.65-.71 2.32-.97 1.71-.79 1.94-.18 2.94-1.66-1.28-.94-1.53-.25-1.91.45-2.41.84-1.84.75-.93.27-.9-.66-1.74-2.95-2.88-3.34.45-2.72 2.88-1.15 4.48.26 1.59 1.35 4.22.67 1.35.64 1.9-.04 2.08-.19 1.88.25 1.31 1.92 1.89.26.79.06.96.2 1.02.31.92.39.72.29 1.42-1.61.28-3.43-.37.63-2.44-.67-1.59-1.12-1.34-.74-1.77.11-1.23.92-2.51.24-1.24-.29-1.27-.66-.96-.65-.76-.3-.57-1.26-4.03-3.04.19-7.11 4.29.48.62.89 1.46.51.58-2.2.12-1.74.36-1.52.81-4.62 3.99-1.55 1.81-.41 1.84 1.07 1.12 11.14 6.49 1.74.5-1.31 1.46-2.06-1.14-2.28-1.97-1.94-1.04-2.43-.67-2.47-1.24-2.37-.73-2.25.86-1.23 2.05.14 2.15 1.09 2.18 1.57 2.14 1.94 1.28 5.25 1.96 1.4 1.66-5.61-.64-1.39.64-.42 1.01.27 2.63-.48 1.79-1.07-1.15-.15-1.47.15-1.74-.2-1.9-3.5-5.89-2.04-.51-2.23 2.19-3.65 5.99 2.28.2 1.94 1.67 3.36 4.41 3.34 2.82.5.84-.71.95-1.43 0-1.56-.59-1.06-.86-3.61-5.08-2.19-1.6-2.76-.07-2.07 1.4-.66 2.19.26 5.85.4 1.5 1.69 1.43.56 2.63.84 2.62.19 1.73 1.6.95 7.53-.79 2.35-.61 3.52-1.67 3.47-.06.01.16-.79.6-.53 1.42-.17 2.5.25.61.9 1.38 1.28.95 3.26-.17 1.49.47-1.02 1.74-1.67.72-1.91-.06-1.72-.6-1.29-1.18-1.61-3.16-.94-1.05-1.71-.17-9.4 2.83-1.56.9-1.34 1.83 9.33 9.35 4.79 6.3.51 4.31-.62-.64-1.2-.65-.7-.52-.23.48-.4.34-1.66-4.46-.62-3.1-.93-1.08-1.16-.79-2.52-2.3-.66.71-.37 1.71-.64 1.69-1.19 1.42-1.11.69-3.14.19-.85-.57 1-1.22 2.37-1.9.88-1.69.17-1.3-.38-1.16-.67-1.23-2.63-2.72-2.5.24-2.59 1.24-2.95.34.34-1.24.59-.99.74-.81.85-.64-3.85-1.89-1.74-1.67-.73-2.24-.89-.45-2.02 1.56-3.14 3.39-1.27 2.17-.54 1.66.3 1.43 1.21 1.52 1.64 1.2 3.64 1.89 1.7 1.39 1.13-3.05 1.44 1.19 1.44 3.24 1.05 3.12-3.99-.94-4.46-2.96-4.52-1.91-4.13 2.21-.93 2.06-1.66 7.94-3.43 7.51-.01 1.98 1.13 2.41.75.54 1.62.17 1.06-.13 2.01-.58 1.02-.11 5.1-2.89 7.61-1.54 12.3-6.55-.79 3.33-2.71 2.05-5.97 1.9 1.12 1.44 1.4.53 3.11-.07-1.99 1.89-2.55-.15-4.87-1.74-2.73.46-4.63 2.48-2.48.58-2.15.84-1.04 2.17-.06 2.93.7 3.16 1.57.43 8.91-1.33-1.43 1.25-4.92 1.46-1.61 1.13-1.12 1.41-1.71 3.88 2.15.74 8.64-2.55 6.63.82 1.43-.24 3.95-1.57-1.15 2.76-1.95 1.55-4.49 2.01-1.82 1.38-.9.87-.76 1-1.06.87-1.27.06-2.73-.47-2.53.42-4.91 1.88-2.38.42-5.76.03-2.74.79-2.29 1.98-.69-.99.69-.91-6.38 0-5.99.91-1.51 1.29-.61 3.08-.03 11.95.5 2.64.12 1.79-.35 1.54 0 1.08.5 1.67.7 1.56.68.7.71-.52 2.18-2.43 1.22-.77 8.79-2.63 1.37-1.46.33-1.31 2.51-4.15.56-.57 1.71-1.23.11-.74.31-.95.4-.88.37-.61.85-.92 1.03-.85 1.05-.2.93 1.06-.19 1.02-.82 1.38-5.04 6.23.25.85 1.44.73 1.76.49 1.27.12 3.22-1.08 3.16-1.56-1.55 3.01-2.4 1.16-5.57 1.35-2.59 1.71-1.76 2.04-1.03 2.9-.31 4.26-1.46-.92-.82 1.04-.32 2.12.01 2.31 6.7-1.46 2.92-1.73 1.23-4.16 1.02.98 0 1.11-.37 1.02-.08.67.81 1.16.24.06.17-.54 2.88-3.19.39-.28.16-1.28-.28-.88-.22-.96.34-1.51 1.37-1.7 2.16-1.26 4.03-1.51 5.62-3.42 2.02-.3 0 .84-2.28 1.4-4.23 3.51-2.7.7-1.91 1.14-1.48 2.71-2.6 6.22-3.16 4.56-3.54 4.06-.93.72-2.62 1.2-.56.86.42 1.26 2.76 3.75 5.21 3.86 6.19 1.11 12.69-.33 6.31 1.74 1.59.07 1.57-.28 1.58-.05 5.92 2.83 1.06.26.34.42.41.8.51.53.65-.39.57-.53.74-.39 1.53-.44 2.01.13 3.79 1.49 1.84.2 1.36-.52 2.82-1.8 1.51-.5 3.12.24 1.42-.42 1.19-1.65.55-1.98.18-1.78.38-1.84 1.06-2.09.35-1.03.08-2.17.56-.96.75-.26 10.59 1.17 1.34.35 4.35 2.9 1.87.6 3.76.39 1.38 1.23.03 2.68 2.3 3.85 4.73 6.33-.87 1.64-1.11.79-1.27.53-1.28.78 1.11.94 2.17 1.28.9.91 1.31 2.48.82 1.19 1.03.51.86 1.31.9.92 1.06.45.54-.26 1.4-1.27.63-.31.73.14 1.31.69.94.35 1.11.18 1.09-.36.51-1.41.79-1.28 1.77-.05 2.8.46 1.16-.47 1.58.52 1.63.8 1.35.43.23-.72-.32-1.57.05-1.55 1.33-.72 9.06-1.63 2.61.71 1.54 1.67 4.94 9.26 1.91 5.54 1.09 1.83 1.88.22 1.77-1.92.94-3.15-.75-3.38 2.35-.02 1.72 3.16.64 4.35-.86 3.58-4.84 4.09-.59.91-.45-.95.01-.59-.17-.37-.97-.33-.99-.06-2.85.89.19 1.55.39 1.18.69.77 2.43.81.56 1.27.17 1.27.32.57 2.09 1.02 3.36 4.14 2.54.45-1.09-2.44-2.8-3.63-.59-2.74.8-2.35 1.85.43 3.72 2.38 8.06-.2 2.68 1.1 2.12 2.32-1.65.77-2.67-.55-.96-1.53-1.12-.38-3.31-.06-1.32.44-.77.6-.52.67-1.17 2.32 15.93 1.66 4.97-1.66-.34-.42-.58-1.01-.35-.41 1.21-1.4-.55-1.01-1.19-1.2-.73-1.89 4.61.16 2.33.54 1.85 1.14-1.27.66-1.28.21-1.11.46-.77 1.41 3.16.03 9.48-1.87 2.73-1.03 1.26 0 .53 1.53.16 1.34 2.32 8.44 1.08 1.59 1.7.29 3-.11 2.59.86 3.17 1.62 3.12.83 2.48-1.47.33-1.69-.28-1.65.03-1.19 1.19-.16.64.69.62 1.28.96 1.23 1.65.57 2.82 0 .56-.32.24-.66.17-.65 1.15-.94-.07-3.01.84-.95 1.16.32.17.04.23 1.54-.35 2.7 1.21 1.25 1.24.22 3.23-.46 1.1-.35 1.11-.81 1.9-2.12 1.24-.84 1.62-.14 3.19.58.58.28 1.94 1.56 1.71-3.14 2.85.22 3.1.96 2.5-.8-.52-.65-.92-1.57-.52-.63 4.89-2.96 1.17-1.14 1.93-.87 2.59.66 2.4 1 1.31.13 3.06-2.62 3.33-1.33 2.9-2 1.85-4.64-7.44-.38-1.45-.62 1.49-.42 2.66-1.19 1.59-.23 1.57.3 3.12 1.25 1.58.29.75-.43 2.17-1.9 2.6-.97.44-1.38-.23-3.56 1.25-7.03 3.2-4.48 12.8-9.21 1.76-2.04 1.58-2.44 2.01-2.45 2.29-1.48 4.89-2.04 1.96-1.31 2.07-2.02 1.66-2.53.68-2.84.18-1.22.83-2.46.3-4 .34-1.53 1.45-3.11 5.36-7.83 6.86-5.08 7.91-2.71 19.14-2.01.2-.74-.02-.9.49-.88.95-.77.37-.19 1.89.13 1.98-.17 1.36-.69.81-1.74.32-7.25-.36-2.05-.95-1.69-.98 1.84-1.06.62-1.16.31-1.27.86-1.12 1.58-1.4 3.02-1.28 1.25-4.18 1.64-2.81 2.47-3.33.9-1.73.91.88-2.27 3.45-2.31 1.16-3.37.92-.48 1.05-.23.81-.3.68-.85 1.78-2.87 1.85-.99 4.5-.92 1.64-1.26-.05-1.77-1.87-1.37-2.43-1.28-1.69-1.47-1.23 1.52-1.19-.18-1.23-.82-1.4-.52-.83-.04-.39-.3-.09-.69 0-1.26.14-1.16.43-.07.61.2.77-.28 1.89-1.67 1.17-.74 1.04-.3.72-.71 2.18-4.81-2.1-.3-1.36-1.28-.04-1.36 1.86-.67 3.33.11 1.19-.52 1.54-1.46-.84-2.55-.31-1.34-.12-1.44 1.58 1.22 1.26.14 1.12-.78 1.09-1.57-.66-3.25 1.91-2.04 2.58-1.77 1.28-2.39-.22-1.7-.36-1.44.02-1.43.86-1.78 3.43-4.1.18-3.02-1.6-1.52-1.29-1.63 1.1-3.34 1.23-2.74 2.21-9.37 5.01-10.94 10.25-10.65 6.25-11.8.39-1.98.89-1.96.76-1.73 1.1-1.88.97-2.63.76-7.73.09-4.27-.91-3.16-2.65-.45.9-1.59 1.25-.7 1.1-.99.47-2.45-.13-2.23-1.06-6.27 0-9.78-.49-4.47-2.04-2.58 2.68-1.62.76-.23 1.06-.54.31-1.26.03-1.47.2-1.17 2.68-3.22 1.23-1.92.51-2.42 0-7.39.36-1.49 5.01-9.31.32-1.26.77-1.43 1.11-.85 1.33-.9 1.84.71 2.25-1.32 5.65-6.11 1.13-.91 2.39-.9.62-1.08.93-.98 1.67-2.03 1.55-.52 1.01-.4 2.46-1.83 2.61-.79 1.03-.95.99-1.18 1.13-1.07 1.42-.57 3.43-.76 6.87-4.83 1.17-.77 1.41-.18 1.51.31 2.78-.46 17.84-13.1 9.61-4.57 1.91-1.7 4.27-1.48 1.65-1.93 1.91-.62 1.1.22 7.69-1.24.99-.51 1.12-1.54.25-.65-.18-.75-.24-1.89.04-3.13.38-3.78.88-3.19 1.54-1.34 2.61-.56 2.4-1.03 2.37-.41 2.48 1.22.75.9 1.12 1.79.64.72 1.6.65 2.93-.43 1.15.27 2.56 1.69.69.97-1.35.42-1.42.19-13.93 4.84-2.48.4-1.14.57-.92.95-.36 1.36.79.49 3.75-.6 8.13-2.96 5.36-.53 2.57-1.37 7.55-1.1 2.53-1.24 1.62-.12-1.78 2.39.09 1.72 3.59 3.76 1.96 2.62 1.12.88 2.11-.67 2.12 2.57 1.27.74 6.05 0 2.17.44.3-.29-2.92-4.63-.97-3.44.1-3.51 1.32-3.46-1.18-1.13-.27-1.47.61-1.29 1.43-.56 1.21.64.07 1.55-.18 1.89.5 1.68 1.06 1.65.13.98-.27 1.09 0 1.98.37 1.69 1.18 2.88.4 1.63.76-.86.82-.44.82.22.75 1.08.05-.86.58-2.72 1.68.4 2.28-3.02 1.14 1.74 1.16-3.18.75-3.61.27-3.72-.34-3.49-.25-.63-.77-1.31-.23-.76.12-.61.34-.9.26-1.05-.09-1-1.05-1.53-1.3-1.04-1.07-1.3-.39-2.25-1.11.66-2.61 2.91-.37-1.75-1.05-1.08-1.38-.58-1.38-.16-1.2.6-.78 1.35-.67 1.52-.8.98-1.27.36-.33-.78.28-3.54-.16-2.16-.55-1.07-2.44-1.55-.82 3.23-.44 3.28-.41.44-.86-1.03-.86-1.82-.4-1.94-1.49-.27-3.31-.04-3.44.89-1.92 2.5-2.04-.64-2.57-.44-1.08-.99 2.48-2.27 2.75-.94 6.1-.41 2.62-1.19-5.65-1.58-1.4-1.04-.77-1.78.45-.84 1.1.21 1.17 1.46.17-2.03-2.65-7.54-1.67-7.96-.24-2.72.6-1.74.63-.79.17-6.75.36-3.2.68-3.06-.68-1.64z" /></g></g></svg>