<?xml version="1.0" encoding="utf-8"?><svg xmlns="http://www.w3.org/2000/svg" version="1.1" baseProfile="tiny" width="1200" height="800" viewBox="0 0 1200 800"><g><g stroke="#000000" stroke-width=".98" fill="#FFFFFF"><path d="m714.76 566.8l-.27-2.16-.51-10.39-.61-2.27-.98-1.24-.97-.79-.74-1-.3-1.86.07-1.95.28-1.45.6-1.27 1.08-1.41.96-3.06.29-.36 2-1.59 3.1-3.37 2.1-2.86 1.16-2.18.91-2.44.37-2.45 1.03-1.35 11.81-5.69 15.94-7.85 2.23-2.03.8.25.78.75 1.06.42 13.94.38 13.59.63 1.31.51 2.62 1.82.91.43 1.13-1.71 1.62-.13 1.21.9-.07 1.29-.79 1.24-.76 1.61-.67 1.8-.44 1.83-.07 3.27.65 3.56 2.35 6.81 1.32-1.44 1.36-1.11 1.06-1.26.75-3.56 2.04-5.59 4.69-4.85-1.21-2.8-2.83-1.46-5.95-.65.63-2.22 1.14-1.63.69-1.61-.75-2.19.62-1.84.22-4.34 1.18-3.26.92-6.48.08-5.81.55-2.46 1.51-2.75.2-1.27-.74-1.23-1.6-1.7-.18-.52-.27-1.17-.02-.57.09-1.31.33-.08.53.24.76-.36 1.8-1.35 2.17-.56 2.19.49 3.39 3.17 1.52-.82 8.77-7.79 9.71-10.85.47-.9-.07-7.11.38-.96 3.24-1.72.6-.91.05-1.55-.51-1.17-.88-.78-1.05-.38.57-1.44.21-2.41.38-1.39 1.38-1.53.76-1.05.27-1.23-.89-1.49-1.66-1.9-1.19-2.18.47-2.27 1.32-1.89 1.02-2.15.3-2.2-2.16-4.61.84-1.73 1.74-1.31 1.39-1.46.46-2.85-.9-2.39-1.28-2.27-.64-2.56.28-1.19.65-1.07 1.43-1.85.95-1.73 2.41-6.85 1.24-2.39 3.1-2.18 1.19-2.69 1.74-5.06 3.24-3.42 1.64-2.74.72-.98.16-1.83-1.35-2.21-1.87-1.98-1.37-1.09-1.27-.59-1.08-.21-2.64.05-1.13-.34-1.65-1.54-1.07-.35-3.02.03-1.46-.21-1.43-.54-.94-.78-1.58-1.7-1.05-.49 0-.74 1.16-1.17-1.07-.9-2.01-.63-21.18-1.05-3.4-.71 1.02 1.71.41 1.19-.29 1.06-1.14 1.24-1.6.71-3.83.41-1.32.72-2.04 3.14-1.14 1.21-1.55.48-1.74.12-8.57 2.48-.63.77-.23 1.27-.53.97-1.3 1.5-.98 1.91-.98 3.99-1.33 1.91-3.59 1.97-.52.66-.27 1.07-1.44 2.66.01 2.77-.34 1-.9 1.17-2.63 2.25-6.65 4.16-1.56 1.4-2.06 1.31-7.71.56-2.57.66-.96.08-.59.35 0 .77.05.78-.34.34-.5.19-.38.37-.4.17-.51-.35-.94-1.64-.21-.23-5.63 0-1.12-.56-.71-.8-.84-.5-1.45.37.63 1.14.37 1.51-.21 1.32-1.1.58-1.25-.21-1.11-.52-3.98-2.84-.51-.69.94-.29 5.04 0-3.23-1.81-8.01-1.09-4.7-3.02-5.86-.85-5.18-2.01-5.43-.9-3.49-1.69-17.19-12.58-1.03.72-.58-.33-.38-.7-.42-.44-2.57 0-1.07-.46-2.07-2.05-.98-.45-2.49-.58-5.2-2.55-2.35-.58-2.1-1.24-3.04-5.52-1.68-1.47-1.15.41.45 1.53 1.94 3.24 1.17 5.26-1.28.16-1.36.4-1.09.05-.43-.98.02-1.84-.1-1.33-.48-.98-1.16-.74-1.65-.28-.57.88-.43 1.13-1.24.57-.88-.63-.73-1.16-.85-.64-1.34.95-.84-1.61-.5-1.58-.71-1.32-1.52-.77-.3.23-.33.54-.46.54-.68.25-1.52-.07-.44-.23-.44-.51-.14-.53-.4-2.44.14-.38.35-.58.21-.66-.16-.59-.35-.21-.91-.18-.45-.36-.25.02-.43.16-.52-.11-.57-.81-.13-.78.11-.8.25-.77.31-.62-.41-.44-.78-1.2-.52-.65 4.02-.77 2.24.11 1.68 1.06 1.18 1.4 1.44 1.34 3.01 2.12-2.7.99-.88.5 1.41 1.34 1.32.23 1.29-.21 1.32.12 1.03.53 3.08 2.42-.33-1.87-1.05-1.34-2.46-2.34-.71-1.31-1.36-3.21-.88-1.45-1.18-1.25-1.44-1.18-1.55-.98-1.43-.62-3.46-.56-.81-.71.7-1.7.7-.15.65.63.42.2.04-1.42-.34-.9-1.22-.95-.25-.77-.37-1.58-1.57-3.39-.37-1.72-.33-4.32-.84-4.24-.82-1.98-1.01-1-2.92-1.39 1.15-1.22-.12-1.89-.65-2.36-.38-2.71.65 0 .39 1.18.48 1.07.64.86.83.58-.42-1.43.12-3.14-.29-1.33-.74-.38-1.15-.2-.87-.35.1-.92 1.43-2.43 1.26-2.84.3-2.72-1.56-2.01-.54.88-.99 1.15-.92.6-.44-.75.37-1.11.71-1.19.55-1.16-.17-1.06-.03-.63.29-3.42-.53-5.15-.36-1.42-.38-.85-1.35-1.76-.37-1.15.11-2.79-.32-1.18-1.98-1.63-3.51.77-1.89-1-1.13 1.45.68 3.38-1.37 1.12.09 1.17-.7.06-1.03-.67-.97-.97-.21-.85.32-.79.06-.78-1.02-.85 1.27-2.25 1.37-1.88 1.07-.9 2.22-.89 1.12-.74 1.66-3.15.42-.52 2.43.32.89-.38.47-1.41-.18-1.78-.9.11-1.16.67-.96-.17-1.14-1.28-1.09-.49-1.23.09-1.57.58-2.11 1.75-1.26.62-1.05-.51-.96-.75-1.21-.2-1.07.37-.61.99.52.11 1.23.55-3.47 2.75-1.2-.31-.61-3.1.28-1.09.58-1.06.29-1.12-.56-1.2-.94-.3-2.48.37-.99-.44-.52-1.23.3-.92.84-.23 1.12.91.91.47.23-1.39-.23-2.73-.65-2.82-1.54-.51-1.95-.04-1.8-1.46 1.88-2.11.15-2.76-.99-2.7-1.57-2-2.25 2.54-.88-.11-1.77-1.7-.69-.4-.34-.33-.19-.33-.33-.85-.53-.97-.36-.86-.56-.53-2.86.61-2.12-.38-1.73 0-.71 1.51.25 4.13.42 1.76.74 1.42 1.43 1.32 3.21 1.22 1.54.86 1.55 2.21.25.28.38.94.86.35.98.18.72.36.42 2.43-1.11 2.6-.61 2.86 1.95 3.24-.54 1.08.05 1.1.43 1.1.59 1.05.43-.52 1.38-.96.42 2.64-1.43 1.27-4.33 1.23.53.23.51.31.57.24.74.02-.54 1.09-.91.46-1.07.26-1.06.4 1.19.65 1.33.21 2.81-.06-1.26 1.82-1.89.03-2.06-.38-1.82.67 1.1 1.01.44 1.09.28 1.14.52 1.15.91.99 2.16 1.58 1.05 1.05.83 1.26.6 1.26 2.03 6.63.38.87.42 1.35-.1 5.68.27 1.57 1.49 3.25.19 1.38.79 2.88.37 3.43.52 1.6.91 1.13 1.34.38-1.58 1.04-1.53-.26-1.13-1.29-.46-2.14.06-2.42-.26-1.14-.71-.49-1.19.23-.47.55-.28.73-.68.7-3.34 1.63-3.92 1.01-3.84-.11-3.11-1.8-1.33-1.62-1.33-2.04-.99-2.34-.4-2.48 1.09-7.51.09-2.49-.23-1.58-.44-1.27-.6-1.07-3.05-3.82-.7-.42-1.12-.37-1.85-1.56-.88-.34-.78.19-2.81 1.35-.42-.16-.46-.43-.53-.22-2.02 1.42-1.45.47-.96.69-1.05.43-1.33-.36-1.11-1.88.97-4.91-1.03-2.46-1.81-.75-2.73-.32-2.02.5.34 1.79 1.41 2.63-1.08.8-2.2.09-1.96.53.15-2.81-.67-2.46-1.88-5.08-.59 0-2.34 11.75-.84 1.21-.57.14-.46-.75-.49-1.4-.39-2.06.44-.94.84-.7.87-1.3.28-3.25-1.87-1.23-5.4 0-4-.89-1.35.22-1.09.6-.92.82-.79 1.03-.73 1.23-.57-.82-.17 1.14.07 1.47-.11 1.32-.7.55-1.07-.6-.37-1.47-.11-4.58.06-.63-.4-.39-1.37-.84-.45-.86.82-.84 1.24-.82.79-.79-1.51-.38-3.04.47-.74-.09 0-.73 1.44-1.57 1.35-.93 3.06-1.57 1.25 0 1.22 2.95 1.67.39-.4.92-.05.81.31.66.73.54 2.25-1.23 1.23.42 1.11 1.01 1.87.54-5.15-16.15-1.31-2.65-1.77-1.86 3.61 1.39 1.39.15 2.12-.82 3.97-2.31.4-.59-.91-.75-1.03.03-3.67 1.44-2.36-.18-1.19-.33-.86-.59-1.11-1.17-.41-.3.05-2.2-.25-1.43-.94-1.9.01-1.41.52-.75 1.81-1.13.62-1.12-.66-.78-.7-.61-.75-.46-.84-.27 0-.8 1.96-.11.2-1.81-1.57-4.72 2.24.91 1.36 2.12 1.75 5.07.37-1.71.19-1.92-.17-1.83-1.38-2.84-1.21-4.41-.21-1.49 1.47-.26 7.1.38 2.6-.45-2.06-.65-2.4-.33-1.92-.78-.68-1.95.19-1.18.26-.1.33.17.46-.35.03.18.2.23.29.12.3-.17.23-.48-.18-.19-.29-.14-.05-.28.52-1.44-.06-.6-2.23-.94-3.57-2.49-2.76-3.13-4.82-7.5-1.5-1.71-1.27-1.02-.92-1.3-.43-2.51.25-1.16.49-.91.1-.98-.84-1.37-.94-.54-2.17 0-1.05-.2-1.62-.87-3.86-2.88-1.05-1.33-.13-1.93.11-2.72-.31-2.6-1.42-1.52 1.94-1.92 1.47-2.11.35-2.09-1.42-1.85-1.85-.66-5.71-.74-1.56.28-.65 1.17-.53 1.38-.76.89-1.32-.22-.62-.83-.23-1.3.11-1.39.45-1.09.3-1.79-.41-5.75.4-2.33.95 1.12.69 1.16.43 1.28.27 1.5-.03 1.93-.28.88.18.21 1.36-.05.39-.35.47-1.49.58-.34.55.24.88.98.61.16 1.24-.32 2.22-.95 1.28-.11-.09 1.71 2.46.73-.6 1.98 1.93 1.31 1.63 1.76 1.76 1.11 2.37-.63-2.05-3.95-.21-.96.58-2.54-.07-1.31-.89-1.14-5.05-3.12.94-.26.94-.47.76-.76.3-1.09-.36-.91-.91-.41-2.2-.52 1.24-.65.46-.14-3.26-1.79-1.43-1.22.91-.54 1.55.07 3.87.63 1.31.75 1.12-3.59-.76-2.5-4.16-4.42-4.5-3.69-.39-1.27 3.39-.48-.47-1.28-2.02-3.72-.73-.78-.23-.19-.3-.89-.35-.36-.35-.04-.22.24-.09.3.07.15-1.76-.45-1.77-.2-1.93-1.5-3.15-7.1-1.43-2.35.82.85 2.71 2.11 2.41 2.54.51.34 1.28-1.12-2.63-3.22.82-1.5 0-.65-1.93.11-1.88-.2-1.45-1.08-.66-2.5.53-2.45 1.16-2.15.74-2.14-.67-2.6-2.64 2.19-2.36 2.54-.45 1.03.02.51-.14.36-.95.56-.01-.34-.88-.31-1.15-.17-.89.1.21.38.43 1.07-4.38-.62-2.06.12-1.2 1.22-.59-.72.82 1.64 2.12 1.1 2.46.65 1.92.21.7.44.3 1.02-.21 1.02-.79.45-.7-.32-.53-.67-.73-.53-1.25.08.16.47.25 1.16.19.47-.99-.12-.9-.36-1.7-.97-.28 1.46-.58 1.7-.59 1.14-.25-.3-.19-2.84-.28-1.28-.45-.92-3.24-3.38-.55-1.32.25-1.34.62-1.34.18-1.43-1.05-1.66-.86.65-.95.23-.92-.23-.84-.65-1.85.78-1.34-1.08.27-1.48 2.92-.37-1.63-2.52-.82-.67.89-.69 2.08-1.16 1.03 1.45.89.02.71-.54.42-.15.38 1.07.08 1.18.27.96.99.38 3.57-1.13-.68-2.65-1.65-2.17-2.12-1.46-2.07-.55-4.95.57-2.73-.43-1.17-1.93-.55-2.58-1.35-1.67-3.48-2.65-1.47-1.79-.74-1.23.23-.56-2.5-.18-1.29.08-1.54.82-1.45.23-.61.54-.13.62.2 1.56-.07.64-1.77 3.58-.05.99.17.69-.41.41-1.79.14-2.94-2.55-.14-.89.83-.91 1.94-1.46.46-.98.3-1.07.52-.95 1.11-.59-1.13-.49-.57-.17-.67-.06-.74-.22-.33-.58-.26-.73-.46-.68-.21-.59.04-.69-.14-.57-.84-.24-.65.22-.35.49-.21.5-.28.23-2.62-.01-1.23-.51-.91-2.31-.98-.54-1.18.15-1.03 1.06-.96-1.59-1.17-1.07-1.14.06-.84 1.82.12 1.65.84 1.22 1.1 1.03.94 1.18-.2.51-.98 1.7-1.59-2.13-1.66-.57-4.17.49-1.88-.36-1.68-.96-1.45-1.39-1.18-1.59-.8-1.35-.86-1.86-.42-1.98.59-1.68.82-.36 3.6 0 3.52-1.49-1.3-1.64-.26-.87.45-1.07-.97.18-2.61 1.31.54-1.69.12-.95-.08-.94-.42-1.3-.55-.73-.73.02-.93.92 0 .68.39 1.01.19 1.22-.58 1.4-2.02 1.25-2.12.37-1.62.72-.48 2.31 1.19 5.08.2 2.95-1.09 1.3-1.24.46-.45 1.07-.27 1.24-.68.93-.69.06-2.84-.83-.95-.05-.56.07-.24-.58.06-4.34.28-1.06.53-.89 1.84-2.24.25-1.21-11.47-6.78-3.6-3.68-.34-3.73 1.79 1.44 4.19 5.01-.81-4.4-2.9-3.56-3.55-3.14-2.79-3.22-.96-4.09-.85-6.12-1.29-5.12-2.24-1.14 1.32 2.23.51 3.01-.21 3.08-.97 2.45-.85.7-.33-.73.04-6.02-.15-1.35-.47-1.24-.47 1.06-.72.48-.87-.06-.93-.63.42-.71.3-.71.45-1.56-.98.19-.66.65-.42.97-.24 1.17-2.73-2.04-.84-.94.79-.43.55-.62.34-.82.07-1.05 1.42.88.63-.66.29-2.3.65-2.62.64-.2 1.72.61-.18.5-.24 1.23-.17.48 1.23.51.62 1.24.34 1.24.42.58 1.38-.13.74-.46.33-.87.23-1.39-.16-5.59.66-2.09 2.48-1.58-1.34-1.47-.98.26-.89 1.04-.95.81-1.51.28-9.79-.86-2.59 1.74-2.69.61-1.1 1.15-2.17-1.3-5.04-.22-1.95-1.04-1.4-.99-.4 1.04.12 1.67.16.84-.9 1.94-.57.77-.88.84 7.31 4.42 3.47 3 17.54 23.26 1.54.81 1.11 1.08 2.67 6.85 1.58 2.24 5.18 5.29 1.14 1.74 2.74 6.57 1.15 5.28-.31 5.39-1.64 4.94-2.78 3.9-1.54-.82-1.68-.37-1.24.58-.19 2.06.63 1.39 3.43 3.64 2.03 2.74 1.18 1.05 1.49.46 1.6-.38 2.47-1.46 1.27.42-1.01 1.24-3.04 2.27-.7.86.49 1.12 2.69 3.14.93.79.78-2.73.97-2.41 1.56-1.65 2.63-.42-.51 1.18-.73 1.09-1.71 1.99.59-.05 1.18.08.59-.03-2.94 3.37-.45 1.76 1.03 2.85 7.39 10.37.7.69.78-.17.29-.88.3-7.84-.15.03-.25-.31-.21-.54.02-.62.81-.91 1.08-.49.57-.7-.76-1.5 1.68-1.34.97-.53.65.03 1.01 1.6.57.36.79-.48.75-.32.96-.23.54-.51-.81-2.07.48-.39.86.11 2.2 1.44 1.68.02 1.39-.92.49-1.88-.66-1.7-1.08-1.98-.36-1.94 1.51-1.57 1.4 4.95.96 1.58.01-3.82.31-.57.95.12.41.41.09.78-.02 1.25.97.3 3.15-.96-1.41 2.4-.54 2.21-.35.7-1.1.74-.53-.26-.49-.51-.81.03-1.49 1.47-.37 1.98-.06 2.08-.49 1.81-2.34-3.68-.26 1.36.16 3.67-.19.74-1.23-.43-.93-1.04-.8-1.19-.87-.95-.1.47-.48 1.05-1.68-.83-1.11 1.38-.6 2.44-.19 2.38-.65 1.76-2.83 3.82-.63 1.71.54 1.98 19.41 26.19 19.4 26.27 3.1 6.24 11.18 15.36 2.73 10.29 2.06 3.74 4.17-.11 4.01-1.75 1.7-1.45.7-2.24-.95-2.33-1.73-1.81-.84-1.29 1.76-.8-.77-1.35-1.24-.05-1.31.19-1.08-.64-4.73-7.3-.65-.62-.88-.65-.76-.74-.75-2.07-.97-.68-1.1-.5-.82-.59-.67-1.14-1.07-2.36-.61-.93-.67-1.97-.38-2.81-.74-2.49-1.8-1.09-.58-1.1-4.42-6.23.35-1.71 3.28-1.77.53-2.32-.46-.52-.85-.74-.63-1.03.17-1.4.6-.06.94.65.91.94.49.71.4 2.66-.82 1.64-3.15 2.95 2.66 1.97 1.06 1.24.99 3.18 2.47 2.6.55 1.61.07 4.13.59 1.95 1.35.83 1.15.52 1.49 1.16 1.28 1.35.54 1.01.82.64 4.11.14 1.59.34 1.48 1.35.95 1.52.76 1.56 2.06 3.06.55.38.96.14.84.33 1.12 1.47.68.39.86 0 .73-.2.5-.57.2-1.02.49-.23 3.09-.83-1.53-2.36-.93-.93-.8-.01-.69 1.11-.43.51-.64.22-.81-.44 0-1.02.54-1.52-.9-1.35-.85-.64-1.09-.19-1.55 0-1.16-.46 0-2.31-.91-.88 3.77-3.02 1.3.07-.36 2.95 1.8-2.13.93-.69 1.37-.08-.78 2.07-.3 1.1-.1 1.19.07 1.5.27.36.55-.03.93.36.77.06.75-.23.55.31.23 1.68.3.93.72.05.96-.18.96.35-.44.42-1.32 1.77 2.46-1.23 2.1-2.94 1.14-3.61-.42-3.27 3.26.94.86.57 1 1.69-.25.97-1.08.16-1.43-.69-.39 1.57-.1.93-.16.76-.54 1.17-2 2.61-1.32 3.43-.46 2.71-.64-.11-1.44-1.35-2.53-.82-.85.43.43 1.91.72.57 1.23.47 2.17.42 1.57-.88 1.69-1.63 1.41-.93.67 1.25.94-.62 2.04-1.95.84-.41.88-.09.34-.03 1.21-.39 1.12-.66.91-.95.31.69.15.19.21.09.5.49-.29 1.39-.53.37-.73.04-.86.38-2.34 2.19-2.56 1.15-1.09.73-1.37 1.4-1.39 1.02-1.74.55-3.65.26-1.35-.55-1.17-.8-.94.25-.66 2.56-1.18-.67.57 3.42 1.89 1.81 2.73.63 5.05-.38.77-.48 1.07-1.02 1.43-1.83.57-.05 2.7 1.7.14.61-1.9 1.73-.35 1.22.73 1.2 1.03 1.16.67 1.17-1.44 1.63-.32.55.04.34.02 5.59.35.79.77-1.6.65 1.23-.81 4.78.74 2.09.47-.24 1.34-.49-.46 1.02-1.37 1.2-.56.71-.38 1.6-.17 1.75-.36 1.21-.91-.09-.89 2.15-.87-1.21-.86-2.45-.86-1.49.04.73-.08 1.52.04.75-1.73-1.17-.81-.28-1.03-.09.46-1.12.1-1.02-.34-.87-.81-.65 1.18-.16 1.28-.5.86-.56-.1-.25-.92-.15-3.47-1.31 1.31-1.05.09-1.2-.84-.99-1.45-.41-1.23-.82-1.95-3.55-1.72-1.62-1.29-3.51-1.2-.79-1.25.45-.83 1.13-1.4 2.86-.45-1.53.1-1.47.95-2.9-1.1.12-.66.61-.36.95-.24 1.24.53 4.91 2.54 4.93 11.85 15.03 4.46 8.18 1.63 4.82 1.89 10.12 3.49 12.29.98 1.89 1.73.92 2.04-.71 1.84-1.65 1.21-1.9 2.04 1.9.7-.05.83-1.11.43-1.21.54-2.61.73-1.33 2.28-1.73 2.87-.84 5.82-.3 5.55 1-.35 1.18-.84 1.08-1.05.79-.99.29-.98 1.34.16 2.39 1.25 1.06 2.21-2.65.77 1.59.61 2.06.8 1.39 1.34-.49 1.65 1.42 4.39 1.77-.16 1.17.72 1.26.42 1.48-.23 1.22-1.2.52-1.14-.66-3.27-3.82-2.12.21-1.95 1.55-3.57 4.32.08-2.34-.59-.26-4.67 4.11-1.29.64 1.54.73 4.33.81 1.72-.07-1.27 1.04-1.12.12-2.56-.48-.99.75.23 1.68 1.06 2.79-.93 2.54-1.49-1.19-1.24-2.71-.34-3.48-4.33-8.55.14-.64.83-1.18.18-1.13-.86-.9-1.26-.44-3.44 1.05-2.41-.58-1.42.14.61 3 3.64 6.94.52 2.31.33.94 2.01 3.88.89 3.43 3.48 8.3 1.27 2 1.9 1.64 1.22-.61 2.47-4.42.71-.72 1.68-1.07.84-.73 1.18-.59.9.43.42.79-.19.41-2.07.87-1.13 2.09-.76 2.47-.94 2.03-.96.64-2.53.64-.98.6-.77 1.3-.01 1.17.92 4.97 4.98 12.02 5.51 21.35 1.47 1.73 2.62-1.21.61.21.5.35.34.1.43-.5.33-1.23.41-.5 3.58-2.23.61 1.65-.31 1.48-.92 1.24-1.19.91.85.18.69.44.53.67.33.94-4.64.76-4.88.04-4.07 1.5-2.33 5.13-.63 10.35.31 2.01 2.37 1.73 1.08-1.37.74-2.57 1.42-1.87 1.97.21 1.02 1.86-.1 2.12-1.42 1.01-2.7 3.06-1.1.5-.86.14-.74.37-.78 1.14-.38 1.19-.29 1.76.11 1.59.84.69 1.38-.28.57-.77.34-1.08.63-1.25 1.74-.48 2.41.76 1.72 1.62-.24 2.17.63.81.65-.6.67-.22 1.62.01-1.56 2.3-2.43.18-2.66-.35-2.27.86 1.76 1.82.64.47-1.74.89-1.22-.78-1.06-1.42-1.32-.98 0 1.55-.54 0-.54-.62-.6-.84-.45-1.05-.11-1.22-1.36.57-1.61.32-1.61-.16-1.36-.73-.4 1.63.43 1.88.72 1.99.43 1.97-.1 2.29-.85 3.91-.44 6.45-.65 4.23-1.1 3.85-3.02 6.95-.72 4.1-.23 18.99-.29 1.93-.55 1.63-.25 1.67.57 1.96-1.32.37-.16.37-.35.79.01 3.4-.19 1.44-.79 2.61-.71 4.04-1.3 2.3-10.32 10.82-3.78 2.85-4.16 1.4-11.46-.83-1.89.57-22.02 13.85-8.86 4-3.92 3.17-2.55 4.96-1.13 5.31-.44 5.1.52 5.07 1.64 5.15 2.61 4.47 3.14 3.41 11.65 8.73 4.99 1.71 14.67 2.35 4.65 1.49 4.3 2.45 3.51 3.72 5.01 7.98 1.65 2.06 9.16 8.7 2.06 1.36 2.21.53 5.27.54 6.92 2.59 3.21-.03 3.77-.04 2.23.41 4.77 2.26 6.01 3.79 7.87 9.01 1.73 3.14 6.55 6.83 1.35 2.55 1.13 2.97 1.62 6.08 1.12 7.35 1.35 2.67.5.97.14 1.17-.33 4.49-1.08 6.47-.75 1.98-.13.96.09 1.68.27 1.72.55 1.76-.55.36-.81.14-.63.01-.28.27-.02.66.08.74-.04.58-.46 2.6-.32 6.39-.73 2.29-.91 1.95-2.34 7.73-4.04 9.08-4.82 8.13-5.09 5.58-.79 1.72-1.81 5.2-.29 2.85-.24 1.13-.65 1.41-.74 1.04-.99 1.04-1.1.78-.98.31-1.03.48-1.52 2.08-.98.49-.68.7.64 1.51 1.04 1.38.46.31.34 1.52.04 1.17-.46 1.01-1.09 1.04-1.13-2.98-.88.05-1.12 1.33-1.86.82-1.31 1.11-2.11 4.87-2.18 1.99-3.32 4.1-1.42 1.27-3.91.78-1.57.85-.99 2.28.81 3.97 3.15 3.26 4.21 2.19 3.93.81 1.14-.53 1.06-1.03.99-.76.9.34.97.71.92-.2.8-.74.57-.9.54-2.63-1.22-1.12-4.02-1.03.49-1.84.72-1.4 1.02-1.14 1.35-1.09 1.79-.84 2.54-.45 2.27.67.99 2.57-.4 2.93-1.89 4.49-.66 2.43.11 2.79.57 2.1.16 1.9-1.13 2.18.18.96 1.16 1.18 1.9 1.41 1.38.33.92-.16.83-.64 4.22-4.61 1.98-1.4 2.2-.56 2.33.26 10.29 4 .94.8.41 1.23-1.39 8.55.07 1.62.57 1.41.73 1.17.4 1.26-.46 1.72 1.36 1.15.8 3.59 1.36.76 6.6-.63 1.39-.58 2.85-3.24 1.42-1.06 5.89-2.36 18.96-14.96 5.04-2.62 4.31-3.13 3.17-3.4 13.13-10.87 8.72-12.25 1.83-4.33 2.75-10.4.96-2.38 1.49-2.61 1.82-2.07 4.25-1.78 1.31-2.19 1.39-5.38 3.01-7.57 1.98-3.27 3.3-8.5.58-1.04.63-.46 1.39-.19.59-.4 1.71-3.27.47-1.25.35-1.32.14-1.14.75-1.44 5.12-5.16 5-8.19 1.67-.55 2.16.52 2.1-.14 1.47-2.54.94-8.05 5.53-11.36-.9.13-.78.48-.7.77-.56.99.31-2.26.75-1.88 2.17-3.14.94-.66.79.5.72.88.83.41.71-.33 3.76-3.49 3.46-5.06 2.11-4.19 1.36-3.87.25-.52 1.11-1.71.17-.53.05-.75-.15-2.84.07-1.48.38-1.04 1.17-1.89 1.85-4.55 2.86-9.89 1.16-2.18.45-.31 1.33-.56.34-.24.15-.76-.05-.66-.1-.53 0-.42 1.95-7.48.67-1.25 1.98-.77 1.07-.66.92-.86.4-.87.91-2.74 1.51-2.23.32-1.52-2.74-.72-2.93.38-1.5-.05-1.12-.71-.62-.6-2.22-1.72-1.42-.75-.52-.65-.55.03-.6-1.89z" /></g></g></svg>