<?xml version="1.0" encoding="UTF-8" standalone="no"?>
<svg
   xmlns:dc="http://purl.org/dc/elements/1.1/"
   xmlns:cc="http://creativecommons.org/ns#"
   xmlns:rdf="http://www.w3.org/1999/02/22-rdf-syntax-ns#"
   xmlns:svg="http://www.w3.org/2000/svg"
   xmlns="http://www.w3.org/2000/svg"
   xmlns:sodipodi="http://sodipodi.sourceforge.net/DTD/sodipodi-0.dtd"
   xmlns:inkscape="http://www.inkscape.org/namespaces/inkscape"
   version="1.1"
   width="1360"
   height="1360"
   viewBox="0 0 1360 1360"
   id="svg8"
   sodipodi:docname="Newfoundland.svg"
   inkscape:version="1.0.1 (3bc2e813f5, 2020-09-07)">
  <metadata
     id="metadata14">
    <rdf:RDF>
      <cc:Work
         rdf:about="">
        <dc:format>image/svg+xml</dc:format>
        <dc:type
           rdf:resource="http://purl.org/dc/dcmitype/StillImage" />
        <dc:title></dc:title>
      </cc:Work>
    </rdf:RDF>
  </metadata>
  <defs
     id="defs12" />
  <sodipodi:namedview
     pagecolor="#ffffff"
     bordercolor="#666666"
     borderopacity="1"
     objecttolerance="10"
     gridtolerance="10"
     guidetolerance="10"
     inkscape:pageopacity="0"
     inkscape:pageshadow="2"
     inkscape:window-width="1920"
     inkscape:window-height="974"
     id="namedview10"
     showgrid="false"
     inkscape:zoom="0.47177599"
     inkscape:cx="513.98161"
     inkscape:cy="479.65114"
     inkscape:window-x="-11"
     inkscape:window-y="-11"
     inkscape:window-maximized="1"
     inkscape:current-layer="svg8" />
  <g
     id="g6"
     style="fill:#000000;fill-opacity:1"
     transform="matrix(1.7187751,0,0,1.7187751,-351.26753,-7.3217128)">
    <g
       stroke="#000000"
       stroke-width="0.98"
       fill="#ffffff"
       id="g4"
       style="fill:#000000;fill-opacity:1">
      <path
         d="m 948.68,657.51 -1.59,-0.41 -1.62,-1.13 -1.25,-1.66 -0.5,-2.01 -1.41,1.05 2.7,-5.07 0.8,-2.45 0.18,-7.5 -0.27,-1.29 -0.94,-0.49 -2.72,0.54 -1.63,-0.23 -0.94,-1.36 1.79,-4.93 0.33,-1.82 -0.7,-6.33 -0.65,-0.81 -4.29,-1.81 -0.5,-0.91 -0.88,-2.54 -0.73,-0.83 -2.66,1.97 -2.07,6.83 -2.37,14.32 -0.77,3.14 -1.26,3.25 -1.57,3.07 -1.71,2.64 -1.94,2.25 -6.19,4.52 -6.82,6.45 -4.14,2.19 -3.67,6.02 -1.61,2.1 0.22,-0.67 0.55,-2.45 -2.3,-0.98 -1.23,0.49 -1.16,0.98 -2.06,0.54 -0.81,-1 1.44,-2.29 3.3,-3.98 -0.46,-1.23 0.07,-0.6 0.39,-1.41 -1.38,-0.17 -1.39,1.28 -1.42,1.79 -1.51,1.38 0.17,-1.96 0.63,-1.48 0.75,-1.32 0.57,-1.5 0.18,-1.69 -0.18,-5.7 -3.41,1.91 -1.17,0.27 -1.26,-0.34 -1.27,-0.75 -0.7,-0.74 0.41,-0.35 2.16,-0.73 2.83,-1.84 2.55,-2.41 1.26,-2.42 -4.14,3.05 -2.08,1.02 -2.22,0.21 0.89,-1.74 2.67,-1.96 1.36,-1.62 -1.38,0.14 -1.25,0.38 -1.17,0.67 -1.12,0.99 -1.01,-1.9 1.06,-1.71 2,-1.23 1.85,-0.48 2.04,-1.04 2.36,-4.8 1.61,-1.38 -0.44,-1.41 -0.64,-0.65 -0.83,0.11 -0.96,0.81 0.98,-2.12 1.19,-2.06 -2.88,-0.95 -0.26,0.05 -0.87,-0.8 -0.57,-0.97 0.61,-0.47 0.52,-0.18 1.01,-0.79 0.65,-0.17 0.83,-0.47 1.06,-1.07 0.91,-1.18 0.4,-0.8 0.71,-3.32 1.72,-2.58 3.83,-4.09 1.84,-2.96 0.81,-2.44 0.2,-2.79 -0.03,-3.98 0.78,-2.91 1.84,-2.44 3.85,-3.58 1.94,-2.38 1.31,-2.24 0.74,-2.44 0.23,-3.04 0.35,-1.33 0.81,-1.31 1.65,-2.01 0.53,-1.04 0.44,-1.23 0.66,-1.16 1.18,-0.87 h 4.61 l 1.26,-0.49 0.96,-1.09 0.2,-1.09 -3.2,-1.77 -3.57,-5.76 -2.36,-1.5 -1.25,0.66 -1.77,2.11 -3.97,7.19 -3.96,5.48 -1.3,1.41 -1.95,1.53 -2.08,1.25 -1.73,0.5 -2.03,-0.83 -1.52,-1.64 -1.61,-1.18 -2.3,0.49 -0.89,1.07 -0.13,1.01 -0.42,0.78 -3.04,0.66 -0.81,0.86 -0.75,1.05 -1.06,0.89 -0.97,0.15 -2.03,-0.19 -0.84,0.6 -2.79,4.27 -1.02,2.16 -1.58,5.19 -0.98,2.1 -1.42,2.16 -1.09,2.07 -0.25,1.97 1.01,1.78 v 0.95 l -2.8,-1.09 -1.21,0.12 -1.56,0.97 -1.12,1.25 -0.93,1.62 -1.53,3.42 0.24,1.16 -1.84,2.34 -0.52,2.31 -0.33,2.91 -0.86,1.02 -1.14,0.76 -1.18,2.07 -0.24,2.15 0.37,2.47 0.72,2.05 0.87,0.85 0.17,0.73 -0.86,1.55 -1.47,1.44 -1.68,0.36 1.1,2.4 -0.35,1.68 -0.57,1.73 0.46,2.55 -2.22,-1.68 -0.89,-0.26 -1.43,-0.06 -0.37,0.8 0.92,1.76 1.88,2.57 -1.79,1.12 -0.23,1.11 0.42,1.31 0.2,1.77 -0.31,2.58 -0.39,0.71 -2.89,-1.11 -0.67,0.26 -0.92,0.55 -0.81,0.28 -0.35,-0.61 -0.14,-0.91 -0.34,-0.9 -0.48,-0.65 -0.51,-0.2 -0.9,0.83 -2.53,3.36 -1.44,1.02 1.69,-3.9 0.36,-1.31 0.04,-1.44 -0.26,-1.01 -0.32,-0.43 -0.16,0.27 -0.35,1.21 -0.69,-1.17 -0.51,-1.88 0.2,-0.86 -1.1,-0.48 -0.61,0.16 -0.75,0.9 -1.02,0.47 -0.65,-1.39 -0.17,-1.86 0.43,-0.93 0.48,-0.54 1.28,-3.54 1.07,-1.7 1.21,-2.42 0.23,-2.21 -1.87,-1.09 -2.2,2.31 -1.6,4.84 -1.72,3.79 -2.61,-0.92 -3.16,-5.87 -1.44,-2.05 -4.02,-4.49 -0.84,-1.79 2.07,-0.43 0.61,-2.22 -0.47,-2.46 -1.19,-1.17 -0.94,-1.24 -0.05,-2.67 -0.37,-2.56 -1.9,-0.86 -0.06,-3.21 -5.33,-3.74 1.16,-1.53 2.37,0.55 2.81,2.37 2.35,2.88 0.99,2.16 0.4,1.66 0.93,1.47 1.87,2.1 1.28,0.29 1.15,-1.74 0.99,-2.18 0.79,-1.08 2.26,-1.63 0.9,-3.78 0.3,-4.25 0.45,-3.03 -3.09,-0.83 -3.31,-0.22 v -1.05 l 6.82,0.22 2.46,0.83 5.41,-10.65 2.4,-6.02 -0.13,-4.44 0.54,-0.79 0.93,-2.37 -2.12,0.71 -3.73,3.29 -1.96,1.27 -5.85,0.51 -3.59,2.67 -2.26,-0.35 -2.32,-1.08 -2.23,-0.6 -4.62,-0.34 -2.22,-0.96 -1.61,-1.96 1.68,-0.71 5.43,1.86 h 6.97 l 6.56,-2.07 6.24,-3.29 -2.14,-2.98 -4.24,-0.43 -8.14,1.3 -10.43,-1.6 -0.82,-1.42 -0.47,-4.35 -0.76,-3.02 -0.9,-2.53 -0.77,-2.83 -0.32,-3.85 0.52,-3.7 1.45,-1.77 2.21,0.03 2.8,1.74 0.52,1.04 0.73,1.83 0.91,1.73 1.1,0.77 4.23,-1.14 2.84,0.17 2.25,0.59 6.74,3.58 2.59,0.55 2.54,-0.43 2.09,-1.78 1.03,-1.26 3.59,-3.53 2.6,-3.48 0.85,-0.85 5.03,-1.22 2.48,-1.37 1.07,-3.17 1.24,-1.35 5.9,-0.06 2.01,-1.2 -1.81,-1.89 3.19,-8.44 -0.68,-3.52 0.75,-0.54 0.93,-0.21 0.79,0.29 0.34,0.99 0.31,0.65 0.68,-0.26 1.13,-0.92 3.02,-0.28 1.58,0.42 3.13,3.43 1.78,0.76 h 3.58 l 0.43,-0.92 2.92,-4.27 1.22,-1.27 6.01,-3.27 2.71,-2.78 1.13,-4.02 -0.1,-3.63 0.1,-1.14 0.33,-1.24 0.95,-2.57 0.19,-0.98 0.57,-1.97 1.36,-0.97 1.64,-0.7 1.43,-1.24 -0.6,-0.72 -1.01,-1.75 -0.57,-0.72 2.54,-2.5 -0.17,-2.05 -3.08,-3.96 -0.58,-1.67 -0.7,-3.1 -0.83,-1.63 -1.07,-0.84 -1.13,-0.26 -1.08,-0.5 -0.94,-1.6 0.29,-1.45 -0.56,-0.49 -0.8,0.57 -1.44,7.64 0.05,0.67 -1.08,1.02 -2.15,0.05 -1.41,0.52 -0.96,0.82 -0.64,0.94 -1.22,2.5 0.77,1.16 -1.37,2 -4.04,3.46 -1.69,1.89 -0.52,1.62 -0.16,1.65 -0.53,1.12 -1.61,-0.04 -0.93,-0.72 -0.68,-1.31 -0.44,-1.61 -0.13,-1.68 -1.47,1.33 -1.56,0.54 -0.82,-0.56 1.65,-4.22 -0.53,-1.54 -3.65,-3.65 -1.18,-0.29 -2.99,-0.21 -3.25,-1.22 -0.97,0.14 -1.41,1.08 -0.28,0.75 -0.12,1.06 -0.36,0.97 -1.72,0.8 -0.3,0.96 -0.04,2.37 0.1,1.2 0.5,1.94 0.11,1.21 -0.23,0.54 -0.51,0.57 -0.51,0.81 -0.53,3.17 -0.73,-0.04 -0.92,-0.58 -0.79,0.22 -0.28,0.92 -0.22,2.44 -0.21,0.88 -1.64,3.74 -0.9,0.76 -1.11,-1.21 -1.81,2.73 -3.82,4.17 -2.04,1.68 7.04,-12.82 -1.15,0.19 -1.08,0.52 -2,1.4 1.03,-3.7 0.11,-1.64 -0.5,-2.09 h -0.64 l -3.74,9.96 -0.87,1.72 -2.16,0.29 -2.23,0.85 -2.24,1.35 -2.19,1.76 -0.71,-1.16 1.15,-2.14 1.43,-1.57 8.75,-6.82 -0.99,-1.46 -1.19,-0.74 -1.33,-0.18 -1.42,0.17 0.9,-1.42 2.09,-1.52 1.17,-1.21 -3.51,-0.99 -4.48,2.83 -4.28,4.41 -2.89,3.78 -0.56,1.7 -0.03,1.55 -0.35,1.15 -1.53,0.43 -0.73,0.55 -0.53,1.29 -0.43,1.41 -0.39,0.99 -3.25,3.48 -0.72,1.76 1.8,1.12 -2.16,1.25 -1.75,-0.79 -0.87,-2.32 0.49,-3.34 4.92,-6.02 1.54,-2.56 -4.26,-1.57 -4.58,2.6 -8.12,7.55 -2.34,0.7 -4.63,-0.77 -2.24,0.07 -2.08,1.35 -5.02,7.13 -0.01,-2.06 -0.58,-1.45 -1,-1.08 -1.23,-0.91 1.66,-1.11 3.97,-4.08 1.79,-0.89 1.58,0.09 3.42,0.8 3.48,-0.75 3.03,-1.87 5.83,-4.91 2.91,-1.84 2.96,-1.29 3.12,-0.76 3.37,-0.27 1.69,-0.48 2.99,-2.2 1,-0.5 0.51,-0.49 -0.73,-1.1 -1.62,-1.59 -0.26,0.19 -0.79,0.19 -0.94,-0.01 -0.77,-0.37 1.97,-1.64 4.42,-0.52 2.12,-1.04 -19.84,-1.16 -1.46,1.16 -1.32,1.75 -1.34,1.11 -1.57,-0.73 1.47,-1.9 1.11,-1.86 1.25,-1.6 1.86,-1.12 2.01,-0.34 3.88,-0.03 1.86,-0.69 4.47,-4.28 7.09,-2.95 3.87,-0.34 1.96,-0.48 1.76,-1.15 1.71,-2.03 0.84,-0.69 0.81,-0.19 0.6,-0.56 0.25,-1.76 -0.53,-1.3 -1.19,-0.51 -1.32,0.12 -0.91,0.63 -1.31,1.59 -5.31,3.69 -1.06,0.34 -1.2,-0.19 -0.71,-0.78 0.42,-1.46 0.72,-0.75 0.63,-0.29 0.6,-0.42 0.6,-1.16 -1.08,-0.62 -1.05,-0.34 -2.08,-0.2 -0.53,-2.13 -10.8,1.16 1.93,-5.88 0.11,-1.25 -3.54,4.42 -3.57,3.23 -1.71,2.1 0.42,2.38 4.48,-0.05 8.21,-1.85 v 1.07 l -10.31,7.18 -3.9,0.38 1.78,-1.3 1.87,-0.83 v -1.07 l -1.38,-0.6 -1.72,-0.39 -1.59,-0.68 -1,-1.53 0.25,-1.98 1.04,-1.68 0.56,-1.48 -1.15,-1.35 -0.08,-2.58 -2.26,-1.24 -5.47,-0.45 v -1.07 l 2.65,-1.05 2.43,0.3 4.84,1.82 2.55,-0.08 2.19,-1.24 3.77,-4.11 -1.59,-0.88 -1.11,1.07 -1,1.53 -1.29,0.51 -1.08,-1.11 -0.07,-1.8 -0.22,-1.95 -1.51,-1.56 6.23,0.48 2.87,-0.66 2.99,-1.95 -4.54,-3.83 -5.22,-0.42 -4.94,2.73 -3.66,5.7 1.7,0.97 -0.8,1.36 -2.15,0.72 -2.33,-0.91 1.46,-1.64 0.93,-1.74 -0.09,-1.61 -1.53,-1.33 -1.55,-0.12 -14.61,6.91 -3.61,0.6 v -1.07 l 1.04,-0.61 0.67,-0.91 0.15,-1.21 -0.52,-1.46 1.48,-0.61 2.45,-2.02 1,-0.57 h 6.05 l 3.7,-1.88 1.61,-0.35 3.33,0.16 1.62,-0.26 1.41,-0.88 -1.41,-2.23 2.11,-2.02 7.75,-3.33 v -0.98 l -5.66,1.49 -2.69,0.18 -1.51,-1.67 1.8,-0.09 1.2,-0.96 1.09,-1.27 1.54,-0.99 6.37,1.07 1.31,-0.49 2.57,-2.21 1.4,-0.51 -0.08,-0.62 -4.46,-3.76 -3.4,-1.83 -0.87,-1.52 1.39,-1.92 0.85,0.06 2.41,1.67 1.34,0.42 2.97,-0.34 3.3,-1.03 3.07,-1.71 2.31,-2.38 -1.76,-0.34 -7.07,0.34 -1.22,-0.5 -1.22,-1.06 -0.7,-1.07 0.32,-0.49 4.61,0.97 19.03,-2.54 1.96,-1.32 1.07,-2.29 -0.24,-3.42 -0.93,-1.61 -1.32,-0.7 -1.25,-0.38 -0.72,-0.63 0.05,-1.22 0.57,-1.42 0.72,-1.17 0.48,-0.49 2.66,1.36 1.38,0.34 0.6,-1.17 0.36,-1.07 1.77,-2.53 0.62,-1.23 -0.71,-2.3 v -1.45 l 1.06,-0.66 0.9,-0.2 1.89,-0.76 1.08,-0.02 0.07,-3.24 3.94,-3.7 -0.42,-1.78 v -1.08 l -1.22,-0.33 -0.87,-0.95 -1.5,-3.03 -1.48,1.08 -1.56,0.08 -1.44,-0.51 -1.14,-0.65 -0.05,-0.38 0.1,-1.47 -0.05,-0.41 -0.45,-0.07 -1.28,0.23 -0.4,-0.16 -0.5,-0.56 -0.47,-0.27 -0.35,-0.5 -0.14,-1.32 -1.32,-0.92 -3.02,-0.33 -3.31,-0.9 -2.2,-2.66 1.41,-1.65 -1.58,-1.17 -4.76,-1.5 -3.03,-2.72 -1.93,-1 -2.08,0.47 -1.28,-0.98 -4.06,-1.92 -1.38,-0.34 -1.57,-0.78 -3.54,-3.62 -1.61,-1.11 -2.8,0.45 -6.74,2.75 -2.49,-1.03 4.15,-2.88 1.49,-0.38 -1.09,-0.56 -2.54,-0.35 -0.92,-0.71 -1.14,-1.86 -0.37,-0.14 -0.42,0.73 -1.27,0.72 0.11,0.62 -0.77,1.33 -0.97,0.78 -0.48,-1.1 -0.41,-0.22 -5.53,1.72 -0.83,2.4 -0.37,3 -0.98,2.89 -1.62,2.66 -0.33,0.15 -0.31,-1.66 -1.58,-2.82 -1.49,1.43 -0.58,1.98 -0.45,2.22 -1.06,2.03 -0.65,-2.51 0.4,-1.93 0.85,-1.86 0.74,-2.34 -3.04,1.75 -1.02,-0.23 -0.1,-2.7 -3.34,1.89 -1.26,-0.3 0.31,-2.57 -4.91,0.29 -2.47,1.07 -2.03,4.79 -1.72,3.22 -0.74,3.24 2.02,2.52 -2.06,1.85 -2.58,1.65 -2.23,1.93 -0.94,2.72 -0.42,2.3 -0.7,0.25 -0.13,-1.73 2.29,-6.31 0.69,-3.17 -0.44,-2.68 -2.31,-1.14 -0.46,-0.85 0.16,-1.94 0.62,-3.2 0.46,-0.7 3.12,-3.13 -1.35,-1.7 0.21,-2.06 1.14,-2.07 1.41,-1.76 -2.18,-0.7 -3.18,0.94 -3.15,1.89 -2.11,2.21 2.51,-4.15 0.37,-0.77 0.74,-4.39 0.28,-0.98 5.41,-5.31 -0.8,-0.75 -1.84,0.34 -4.09,1.49 -2.2,0.33 -1.49,0.88 -1.62,2.03 -2.55,4.19 -5.29,6.81 -1.4,2.55 0.31,-0.31 0.2,0.54 0.13,1.33 -0.18,0.91 -0.42,0.3 -0.45,0.12 -0.29,0.25 -1.01,2.46 -0.58,1.09 -0.52,0.78 -0.82,0.62 -1.95,0.9 -0.81,0.64 -0.78,1.11 -0.7,1.97 -0.64,1.25 -0.5,2.57 -0.55,1.07 -1.12,-0.41 -0.58,-1.14 -0.06,-1.49 0.25,-1.48 0.39,-1.19 -1.19,0.36 -0.88,1 -0.56,1.53 -0.19,1.87 0.16,3.03 -0.26,0.97 -0.89,1.5 -2.71,2.42 -1.36,-1.63 -0.4,-2.98 0.22,-1.59 -0.31,-1.39 -0.08,-9.51 0.51,-2.99 -0.31,-1.11 -1.54,-0.23 -0.86,0.69 -1.11,1.52 -1.02,1.78 -0.59,1.52 -0.48,2.22 -0.08,1.67 0.64,1.04 1.71,0.38 0.24,0.76 -0.56,5.22 -0.34,1.24 -0.83,1.28 -1.05,1 -0.99,0.41 -1.2,-0.54 -0.47,-1.18 -0.17,-1.18 -0.29,-0.54 -2.71,0.21 -1.42,0.87 -2.56,5.49 -1.29,1.96 -1.81,1.79 -1.86,1 -1.44,-0.43 3.46,-3.33 1.58,-2.33 0.65,-2.38 -0.26,-2.41 -1.85,-7.9 -1.44,3.1 -1.74,-0.87 -1.93,-2.53 -1.99,-1.87 0.17,2.46 0.68,2.1 2.03,4.09 -0.77,0.98 0.77,1.18 -14.92,8.72 -3.31,2.73 -1.74,1.06 -1.66,0.43 -0.89,0.39 -0.98,1.01 -0.65,1.42 0.09,1.59 0.49,-0.06 3.03,-1.12 v 1.18 l -1.6,2.06 -1.38,3.33 -0.51,3.72 0.99,3.26 1.85,0.36 5.33,-3.44 2.43,-0.69 v 1.09 l -7.6,6.66 -2.01,0.95 -2.95,-0.21 -1.39,0.22 -1.6,0.88 -3.53,3.03 -1.4,0.39 1.52,-2.02 3.22,-2.52 1.52,-1.92 0.87,-2.12 0.16,-2.09 -0.86,-1.36 -2.21,0.11 2.04,-5.38 -1.31,-0.37 h -3.02 l -0.59,-0.71 0.52,-1.3 3.71,-3.11 0.79,-1.58 0.68,-1.72 0.85,-1.71 1.26,-1.45 2.98,-1.9 2.19,-0.6 1.26,-0.98 0.94,-1.52 0.37,-1.96 -0.03,-6.22 -1.06,-4.37 0.5,-3.82 1.21,-3.55 1.48,-2.17 1.07,1.93 1.7,-1.39 1.02,-2.71 -0.97,-2.06 1.55,-2.2 1.62,-1.63 1.3,-1.79 0.53,-2.66 -0.19,-2.52 -0.53,-2.34 -0.88,-1.96 -1.22,-1.36 v -0.97 h 1.47 l -2.01,-1.36 -1.96,0.43 -1.94,1.13 -1.96,0.77 0.36,0.95 0.69,2.51 0.35,0.98 -1,-0.13 -0.94,-0.42 -0.83,-0.71 -0.74,-1 1.35,-1.46 -0.86,-1.1 -3.3,-1.78 -1.33,1.39 -1.45,0.59 -2.85,0.18 4.86,8.68 -0.49,1.85 -0.13,2.47 0.19,2.52 0.43,1.92 3.16,4.75 0.07,0.76 -0.76,0.84 -0.97,1.86 -1.36,1.86 -3.33,1.27 -0.87,1.18 -0.12,1.7 0.73,1.99 -0.4,0.5 -0.28,0.29 -0.73,0.39 -0.43,-1.87 -0.68,-1.94 -0.84,-1.64 -0.87,-1.03 1.74,-1.19 1.65,-0.4 1.36,-0.96 0.88,-2.85 -0.1,-1.72 -2.53,1.92 -1.65,-0.2 1.47,-2.26 -1.82,0.17 -1.74,3.54 -1.72,4.4 -1.76,2.79 0.98,-4.39 -1.85,-1.02 -3.01,0.87 -2.52,1.3 1.35,-2.06 3.68,-2.87 6.63,-8.91 1.78,-1.4 -2.77,-0.98 -6.07,4.29 -3.19,1.02 v -0.98 l 2.14,-1.85 6.3,-8.09 -0.64,-0.99 -0.6,0.49 -1.57,0.5 0.7,-2.08 -6.02,1.05 -1.72,1.03 -0.95,1.97 -0.91,2.48 -1.03,0.78 -1.34,-3.07 -0.82,1.61 -0.65,1.73 0.32,0.62 0.17,0.5 0.11,0.48 0.17,0.57 -1.74,0.34 -1.1,1.13 -0.57,1.87 -0.18,2.61 -0.46,1.85 -1.14,2 -2.68,3.27 -0.41,-1.97 0.05,-1.94 0.44,-1.9 0.69,-1.85 -0.19,-2.36 1.36,-4 3.05,-6.72 -3.39,0.6 -2.94,2.77 -4.55,7.06 -0.62,1.7 -0.52,2.25 -0.74,2 -1.31,1.03 -1.5,-0.46 -0.71,-1.54 0.03,-1.86 0.71,-1.45 v -1.18 l -0.68,0.09 -2.08,-0.09 0.31,-2.54 1.35,-2.88 0.39,-2.17 -5.79,2.97 -3.27,0.88 -2.2,-0.59 0.88,-0.74 0.88,-1.2 0.54,-1.06 -0.19,-0.26 1.13,-0.45 0.73,0.06 0.77,0.25 1.27,0.14 1.06,-0.49 -0.96,-1.05 -1.55,-0.97 -0.69,-0.24 -0.74,-0.55 -1.09,-0.21 -2.04,0.18 0.55,-0.77 0.86,-2.39 -4.94,-1.36 -4.36,0.35 -9.07,3.18 -4.08,2.38 -7.02,6.13 -4.13,1.24 -2.32,1.43 -0.84,0.03 1.05,-2.01 3.59,-4.33 0.62,-1.6 v -1.22 l 0.29,-0.79 1.52,-0.27 0.82,-0.5 1.99,-2.17 1.09,-0.49 4.5,-0.95 4.46,-2.68 3.77,-4.14 2.44,-5.34 -3.74,0.22 -1.66,-0.59 -0.94,-1.81 4.96,-3.85 1.38,-1.59 0.36,-1.1 0.22,-1.48 0.36,-1.31 0.82,-0.55 0.85,-0.28 0.74,-0.76 0.57,-1.01 0.36,-1.12 -4.04,0.59 -1.66,-0.24 -0.7,-1.43 -1.32,1.44 -1.61,1.01 -1.73,0.6 -1.67,0.21 v -1.19 l 1.84,-0.39 3.42,-2.09 1.84,-0.68 -0.07,-0.77 -0.12,-0.46 -0.58,-0.95 -1.14,0.86 -1.51,0.69 -1.66,0.47 -1.67,0.16 -1.32,0.39 -7.18,4.71 -6.14,5.67 -2.73,3.36 -2.71,4.92 -1.54,1.74 -0.68,-1.73 0.19,-2.45 0.49,-2 0.7,-1.58 0.8,-1.17 6.33,-5.12 2.77,-3.18 -0.66,-2.47 4.94,-2.61 1.67,-1.87 -0.98,-2.05 1.29,-2.09 0.97,0.25 0.91,1.17 1.12,0.67 1.15,-0.3 15.85,-9.68 9.58,-3.24 2.34,-4.33 4.46,-1.55 7.54,-6.83 3.9,-1.54 2.17,-0.31 2.24,-0.95 1.9,-1.66 1.15,-2.46 0.06,-2.83 -0.76,-2.59 -2.12,-4.62 v -1.1 l -7.98,5.96 -1.23,0.6 -2.89,0.18 -5.8,-0.59 -2.64,1.51 0.77,1.2 -0.65,1.22 -1.05,1.49 -1.17,1.24 -1.03,0.52 -2.45,-0.12 -2.16,-1.07 -0.27,-0.61 -0.31,-1.11 -0.45,-1.08 -0.7,-0.48 -0.79,0.23 -0.59,0.31 -0.62,-0.1 -4,-4.29 -0.72,-1.63 h 0.64 l -2.14,-3.77 -2.96,-2.35 -3.41,-1.2 -3.45,-0.34 -1.26,2.48 -1.32,4.98 -1.98,3.68 -3.25,-1.29 3.23,-3.45 1.08,-2.3 -0.4,-2.46 -1.35,-0.06 -4.98,2.12 -1.45,1.13 -5.33,8.88 -3.14,3.44 -3.84,1.46 4.45,-5.62 1.18,-2.15 0.92,-2.46 1.89,-7.29 1.14,-1.94 3.01,-3.88 0.78,-1.96 -0.46,-2.16 -1.55,-1.45 -1.78,-1.27 -1.14,-1.69 1.59,-0.68 -0.11,-0.89 -1.21,-0.68 -1.74,0.05 0.21,-0.77 0.34,-1.88 0.22,-0.75 -1.63,-0.06 -1.67,0.5 -1.53,0.98 -1.19,1.43 -6.74,5.48 -3.08,7.6 -2.21,1.73 -2.6,1.49 -2.06,3.56 -4.88,11.34 0.19,2.01 0.99,2.15 1.01,3.63 -3.29,-2.26 -1,-1.02 -2.25,2.48 -0.26,2.52 0.65,2.61 0.45,2.82 -0.7,1.16 -4.29,-8.31 -1.9,0.77 -3.39,4.67 -3.02,1.52 -1.06,0.96 -0.85,1.26 -0.33,1.24 -0.38,0.98 -2.77,2.34 -12.95,19.38 -1.59,5.38 -5.61,8.44 -2.74,5.2 -1.65,2.29 -1.95,1.29 2.82,-5.33 0.61,-1.82 0.79,-4.79 3,-9.36 0.21,-1.52 0.29,-0.79 0.03,-5.23 -0.55,-0.56 -1.21,0.07 -1.21,-0.25 -0.56,-1.44 -1.3,-0.41 -6.09,-0.67 -1.82,-0.62 2.4,-2.73 8.22,-4.89 1.18,-1.2 1.22,-1.57 1.07,-1.83 0.76,-1.94 -0.14,-0.53 -0.48,-0.44 -0.34,-0.82 0.26,-1.6 0.5,-0.76 0.8,-0.64 1.51,-0.77 v -1 l -0.19,-1.85 1.85,-5.94 0.52,-2.64 -0.89,-1.64 -2.02,1.55 -2.17,2.79 -1.32,2.17 0.09,-2.68 0.51,-2.54 3.81,-12.19 1.22,-2.29 1.34,-1.65 5.06,-5.04 1.91,-2.65 0.54,-1.72 -0.89,-1.46 -2.33,-1.84 1.52,-0.94 1.42,0.27 1.35,0.61 1.34,0.06 1.27,-0.89 8.45,-9.73 1.99,-3.61 -0.38,-3.46 2.42,-2.14 2.27,-3.82 1.87,-4.37 1.24,-3.89 0.27,-5.44 -2.29,-1.46 -3.05,-0.55 -1.96,-2.67 4.93,-1.02 0.86,0.95 0.71,1.46 0.97,1.1 1.68,-0.2 1.5,-1.7 3.21,-6.04 1.62,-2.19 3.68,-3.42 3.42,-4.43 1.53,-3.16 -0.86,-1 -2.26,-0.27 -2.63,-0.99 v -1.2 h 7.42 l 0.77,-0.89 1.02,-5.87 1.39,-2.34 3.3,-2.42 4.8,-5.74 0.37,-0.58 1.05,-0.89 2.78,-4.16 0.46,-1.74 -1.05,-0.69 -2.54,-0.29 -1.85,-1.66 -0.96,-1.82 -0.46,-2.31 -0.31,-3.11 0.04,-0.97 0.51,-1.52 0.15,-0.95 -0.22,-0.61 -0.96,-1.32 -0.23,-0.8 1.72,-2.93 0.46,-1.02 0.62,-3.15 0.14,-3.33 -0.79,-2.31 -2.15,-0.12 1.1,-3.53 1.39,-2.44 1.92,-1.43 2.63,-0.5 -0.9,4.07 -1.31,4.03 -0.72,4.18 0.82,4.53 -0.33,0.85 -1.01,3.61 1.87,3.46 1.25,0.5 1.8,-1.74 -0.08,1.6 -0.27,1.45 -0.46,1.33 -0.66,1.18 2.38,1.03 1.64,-2.49 1.49,-3.4 1.98,-1.71 0.15,-0.56 2.34,-2.88 4.66,-7.72 2.27,-5.72 1.51,-2.26 2.29,-2.08 1.1,0.05 1.55,5.47 0.21,-2.47 0.74,-1.91 1.15,-1.42 1.41,-0.98 -0.83,-0.83 -0.59,-0.2 -0.6,0.31 -0.86,0.72 -0.21,-2.01 0.45,-2.66 0.88,-2.29 1.12,-0.98 0.68,1.06 0.33,2.01 0.69,1.38 1.76,-0.89 -0.7,-3.37 -0.48,-1.34 -0.87,-0.98 V 113 l 0.97,-1 0.62,-1.45 0.53,-1.67 0.7,-1.68 3.52,-4.47 -1,-0.4 -1.15,-0.79 -0.96,-1.16 -0.41,-1.52 0.37,-1.65 0.87,0.43 0.96,1.18 0.68,0.65 1.91,-0.81 1.91,-1.62 1.05,-2.13 -0.65,-2.26 0.67,-1.33 0.91,-2.29 0.55,-2.15 -0.4,-0.96 -1.7,-0.81 -0.23,-1.82 0.47,-1.91 0.37,-1.06 0.58,-0.97 0.72,-0.38 0.15,-0.69 -1.07,-1.9 -2.24,-2.43 -1.36,-1.12 -0.97,-0.49 -7.69,-1.74 -1.94,1.18 -2.18,2.34 -2.32,1.19 -4.97,0.51 0.12,1.24 -0.01,1.11 -0.07,0.77 -0.04,0.25 0.49,0.82 0.92,2.54 -2.09,-0.11 -1.58,-1.67 -2.67,-4.95 -0.45,-1.13 -0.28,-1.13 -0.45,-0.86 -2.27,-0.6 -3.65,-1.89 1.46,-1.04 3.33,-0.57 1.54,-0.75 -2.8,-2.11 -0.71,-1.16 1.11,0.25 1.03,-0.1 0.83,-0.47 0.54,-0.92 -0.14,-0.75 -0.56,-4.87 -1.34,-0.86 -4.83,-1.29 -1.57,-0.1 0.23,-2.14 0.71,-3.68 -0.24,-1.04 v -1.02 l 1.41,-0.18 1.34,0.17 1.21,0.7 1.03,1.45 0.19,-1.04 0.26,-0.96 0.19,-1.07 v -1.33 l 2.58,1.74 2.16,2.62 2.27,1.86 2.91,-0.58 -0.87,-2.47 -0.54,-0.91 1.56,0.32 1.14,0.83 2.23,2.23 0.95,0.62 0.83,0.35 2.06,0.16 6.4,-1.56 12.35,2.69 2.28,1.19 2.37,2.38 2.36,1.71 2.2,-0.79 -0.81,-1.12 -0.45,-1.96 -0.17,-2.09 0.02,-1.58 0.91,0.74 0.9,0.32 2.03,0.07 0.79,-0.38 0.72,-0.8 0.31,-0.81 -0.38,-0.38 -1.01,-0.43 -0.3,-1.03 0.19,-2.38 0.32,-1.49 0.73,-0.03 2.8,1.69 0.8,1.3 0.88,0.56 1.57,-1.46 0.89,-1.81 0.96,-4 1.03,-2.09 0.12,-2.51 1.37,-3.79 0.39,-2.69 -2.85,0.74 -1.24,-1.4 -3.01,-2.25 -1.17,-1.86 h 4.98 l 3.14,1.23 1.02,-0.73 0.78,-1.7 0.51,-2.06 0.19,-1.78 -0.58,-0.19 -2.74,-2.46 -0.91,-1.36 1.51,0.16 2.14,1.31 2.07,0.58 1.32,-2.05 -0.44,-2.73 -1.9,-1.25 -3.99,-0.55 -0.15,0.71 -0.51,1.12 -0.56,0.07 -0.26,-2.43 -3.51,-1.74 -1.81,0.64 -5.94,3.89 0.4,0.2 0.37,0.09 0.33,0.27 0.31,0.67 -1.46,0.6 -2.12,-0.17 -1.92,-0.82 -0.84,-1.36 -0.32,-0.96 -0.61,-0.48 -0.31,-0.77 0.53,-0.98 1.22,-1.83 -2.8,1.7 -4.45,5.65 -2.4,1.69 1.4,-4.87 -1.7,1.32 -0.95,3.64 5.13,2.81 0.4,1.83 0.08,2.26 0.5,2.06 1.56,1.52 3.88,0.82 1.66,1.06 -3.44,1.23 -3.91,-1.27 -3.93,-2.11 -3.57,-1.25 h -7.09 l -3.47,0.85 -1.72,0.04 -1.79,-0.89 2.81,-4.39 2.05,-4.66 -3.9,0.46 0.4,-3.06 5.62,-8.73 -1.73,0.38 -1.5,0.92 -1.46,0.56 -1.65,-0.73 -0.9,-1.78 -11.42,8.48 -1.6,0.65 -4.31,3.21 -2.77,2.99 -1.9,1.05 -8.73,2.95 -2.53,1.56 -1.09,1.83 -1.25,1.59 -8.03,2.27 -2.02,1.56 -4.27,4.49 -1.8,0.93 -5.15,0.62 -5.06,1.53 -17.66,10.26 -5.71,5.08 -1.72,2.24 -0.83,1.59 -1.66,4.7 -0.71,1.02 -1.86,2.05 -0.95,1.32 2.92,3.02 1.13,1.66 0.94,2.17 -1.92,-0.07 -0.82,-0.35 -0.84,-0.81 -2.88,2.35 2.04,5.16 0.23,1.83 -0.8,1.99 -1.58,1.16 -4.57,1.84 -0.95,0.98 -1.12,5.88 -2.86,2.8 -3.86,0.86 -4.12,0.03 1.81,1.43 4.34,0.55 1.58,1.28 0.46,2.82 -1.67,1.53 -4.1,1.86 -2.4,1.6 -1.51,-1.58 -0.96,-2.56 -0.72,-1.33 -6.12,-0.95 -1.98,0.95 1.22,0.03 1.07,0.37 0.98,0.71 0.96,1.02 0.37,0.9 0.72,2.84 0.32,0.84 2.1,1.33 3.94,-0.34 1.63,1.24 -2.47,1.71 -1.16,1.14 1.03,1.15 0.47,1.17 0.75,0.55 1.38,-1.24 2.19,1.12 0.83,0.82 0.57,1.5 -1.41,1.02 -1.48,0.32 -1.13,-0.64 -0.73,0.22 -0.25,2.94 -0.33,2.13 -0.82,1.32 -1.03,1.01 -1.94,2.52 -2.91,2.55 -0.88,1.38 -1.18,2.87 -0.7,1.32 -2.19,2.25 -4.76,2.8 -1.94,2.18 -1.06,0.75 -3,-0.3 -1.25,0.12 -0.72,0.57 -2.73,2.76 -4.82,2.22 -4.37,1.11 -0.68,-0.34 -0.12,-1.51 -0.7,-0.37 -0.66,0.14 -0.94,0.71 -2.84,1.13 -1.03,1 -0.16,1.58 1.79,1.27 3.13,0.02 2.98,0.62 1.31,3.03 0.98,3.1 4.64,-0.27 1.49,2.22 -0.84,0.61 -0.87,0.39 -0.93,0.2 h -1.01 v 1.01 l 1.88,0.94 1.96,0.08 7.55,-1.8 1.07,0.49 -0.75,1.95 -3.75,2.73 -4.15,-0.5 -8.29,-2.78 -3.74,1.7 -1.94,4.16 -1.32,5.15 -1.9,4.71 -4.13,4.39 -1.18,1.63 -0.41,1.34 -0.3,2.75 -0.63,1.4 -2.56,3.87 -1.85,5.73 -0.48,2.49 -0.49,0.4 -0.48,0.26 -0.22,0.5 0.12,1.01 0.27,0.5 0.26,0.33 0.12,0.42 -0.53,3.68 -1.31,3.59 -3.15,6.55 -2.53,6.93 -0.68,3.37 -0.25,3.51 -0.7,2.62 -4.99,8.97 -4.11,10.66 -3.54,6.02 -2.97,9.8 -1.41,2.63 -3.52,5.05 -1.51,5.62 -2.93,4.56 0.21,1.71 -0.79,1.43 -0.2,1.47 -0.06,1.41 -0.35,1.24 -0.7,0.79 -2,1.47 -0.88,1.01 -1.36,2.39 -2.87,7.51 -0.86,4.1 -0.36,5.62 0.79,4.79 2.61,1.7 -0.18,0.58 -0.11,0.51 -0.16,0.54 -0.32,0.63 2.11,2.11 1.03,1.38 0.44,1.4 0.22,1.12 0.53,1.58 0.66,1.46 0.65,0.82 1.74,-0.09 1.22,-1.72 0.98,-2.2 1.04,-1.51 0.41,4.97 2.22,3.31 8.73,6.03 1.3,1.42 -0.34,0.62 -3.13,-0.2 -2.85,-0.88 -3.01,-2.05 -2.8,-2.52 -2.72,-1.86 -2.79,-0.07 -2.52,2.25 -0.04,3.02 2.56,6.75 -2.68,-1.31 -1.24,-3.17 -0.32,-4.05 0.01,-4.03 -0.81,-3.47 -2.06,-2.71 -2.73,-1.68 -3.55,-0.37 -2.2,1.19 -3.66,4.37 -3.46,1.93 -4.68,4.85 -5.04,6.58 -2.69,5.28 -1.72,6.08 -0.7,10.71 0.03,2.95 0.59,2.56 1.58,2.37 2.13,1.64 5.73,2.4 10.53,1.6 2.79,-0.25 2.29,-0.94 3.87,-2.49 2.35,-0.88 -4.18,6.66 -2.35,2.6 -2.62,1.52 -8.84,-0.71 -1.01,1.88 3.14,3.79 5.92,-1.61 9.94,-5.51 v 1.18 l -2.54,1.17 -1.82,1.75 v 1.61 l 2.95,0.75 2.55,-0.58 2.17,-1.55 3.73,-4.33 0.76,1.18 -5.07,7.2 -1.32,1.4 -2.25,0.55 -6.9,-1.62 -6.17,1.39 -5.09,-1.07 -1.71,-0.07 -0.86,1.29 -0.25,3.3 0.16,1.75 0.38,1.26 0.8,1.92 1.79,5.86 1.37,1.73 3.44,2.88 1.5,1.84 3.8,2.09 h 10.45 l 2.42,1.7 -3.73,1.6 -15.25,-2.69 -3,-2.78 -4.89,-7.92 -3.16,-3.02 -3.87,-1.22 -8.17,-0.07 -1.64,0.5 -3.54,1.76 -1.51,-0.21 -1.25,-1.69 0.24,-1.78 1.07,-1.65 1.28,-1.33 v -1.07 h -2.75 l 1.84,-1.18 0.75,-2.24 -0.28,-2.17 -1.28,-0.96 -0.76,0.27 -3.08,1.98 -2.11,3.32 -2.52,9.27 -1.25,2.43 -4.81,5.49 -1.02,11.79 -1.04,0.79 -0.64,1.85 -0.75,3.79 -0.92,2.91 -0.48,1.06 -0.78,1.38 -3.77,4.45 -1.8,2.65 -1.38,5.54 -4.37,7.76 -1.11,6.16 -0.11,6.76 -0.72,6.44 -2.92,5.23 -1.94,0.66 -3.2,0.22 -3.19,-0.36 -1.92,-1.05 -0.88,-1.08 -1.76,-1.54 -0.18,-1.39 -0.12,-1.75 -0.25,-4.35 h -0.71 l 0.48,4.52 -0.07,1.73 -0.79,1.73 -2.4,3.35 -1.52,1.54 -0.69,-0.58 0.08,-3.41 -0.11,-1.08 -2.72,-1.41 -2.55,-1.87 -0.83,-1.35 -0.2,-2.1 1.4,-3.41 2.94,-4.26 3.16,-3.66 2.06,-1.56 2.64,-1.13 2.87,-2.76 2.67,-3.5 2.04,-3.29 -3.56,1.42 -17.25,15.06 -14.68,10.31 -9.66,8.36 -2.02,2.4 -0.9,2.6 0.1,1.65 -0.73,2.06 -0.53,1.2 -1.11,1.79 -0.54,1.17 2.68,-0.04 16.31,-6.55 4.67,-0.93 9.75,0.64 10.35,-1.36 11.47,-4.11 2.42,-0.4 10.88,1.16 2.38,1.44 3.52,4.02 2.22,0.82 4.98,-1.22 2.4,0.18 1.46,2.19 2.29,-2.32 3.67,-1.68 6.71,-1.39 2.02,0.26 1.58,0.75 0.32,1.03 -1.75,1.14 -1.78,0.4 -3.56,0.22 -6.71,1.91 -1.32,0.76 -1.55,2.02 -2.45,4.66 -1.7,1.81 -1.29,0.6 -5.04,1.52 -5.21,2.98 -1.89,0.19 2.71,-3.06 2.75,-1.55 2.86,-1.11 3.01,-1.7 V 514 l -4.29,0.74 -3.53,2.05 -3.09,3.18 -2.92,4.06 -0.83,0.61 -2.18,0.43 -0.89,0.6 -0.76,1.51 -0.45,3.1 -0.49,1.31 -4.16,6.09 -1.82,1.84 -5.94,4.35 -1.8,2 -2.57,3.91 -1.62,1.72 -5.52,2.59 -6.16,8.94 -3.27,3 -17.16,9.84 -7.57,6.66 -6.36,7.8 -0.64,1.6 -0.42,1.72 -0.69,1.36 -1.45,0.58 -2.25,-0.18 -1.16,0.13 -0.81,0.57 -1,1.07 -1.01,0.66 -0.8,1 -0.33,1.99 0.2,1.53 0.52,0.98 2.81,3.88 0.51,1.1 0.19,1.48 0.54,0.84 2.37,1.45 0.54,0.91 0.08,3.56 0.57,3.03 1.48,1.97 2.87,0.34 -1.31,3.66 -1.25,5.56 -0.51,5.65 0.95,3.95 -0.52,2.15 0.75,1.27 1.44,0.6 1.53,0.16 1.73,0.66 0.96,1.53 0.77,1.76 1.15,1.37 1.19,0.1 1.25,-0.51 1.34,-0.18 2.84,2.2 1.76,0.44 3.58,0.03 8.13,-2.08 1.1,-0.3 2.34,-1.38 1.16,-0.41 1.02,0.32 0.76,0.67 0.84,0.03 1.23,-1.58 3,-1.49 15.93,0.84 6.59,-0.88 5.7,-3.76 0.96,0.1 1.14,2.09 2.5,-1.22 2.43,-2.29 0.96,-1.18 3.55,-0.46 0.91,-0.82 -1.64,-1.95 1.15,-0.29 0.93,0.6 0.78,1.24 0.72,1.68 2,-1.37 1.88,-0.05 1.89,0.89 1.98,1.47 h 0.76 l 2.56,-2.75 1.36,-3.36 1.71,-6.43 2.21,-3.25 2.65,-1.52 6.47,-0.46 -1.38,0.47 -1.53,0.83 -1.41,1.09 -1.05,1.31 -2.54,5.93 -0.28,0.92 -0.76,0.98 -0.71,2.16 0.03,2.16 1.44,0.98 1.07,-0.6 2.94,-2.98 0.95,-1.22 1.29,-0.15 3.98,2.38 1.48,0.47 1.33,-0.62 2.71,-1.92 9.3,-3.4 2.92,-0.32 v 0.94 l -1.49,1.59 0.9,0.94 1.71,-0.17 1.71,-3.49 1.68,0.74 1.6,1.6 0.53,0.89 5.17,0.73 1.55,-0.73 0.69,-0.91 0.31,-0.99 0.43,-0.82 1.06,-0.32 h 3.21 l -1.12,0.93 -0.94,1.89 -1.46,4.4 4.14,-0.91 1.49,-0.05 1.72,0.61 0.96,1.13 0.86,1.3 1.39,1.14 0.82,0.04 1.26,-1.08 0.67,-0.1 0.54,0.61 1.7,2.53 0.92,-1.41 0.3,-2.06 0.54,-1.89 1.73,-0.82 1.34,0.39 4.14,2.13 1.24,1.1 1.45,3.42 0.89,0.97 1.88,0.35 4.99,-3.66 1.2,-1.55 1.2,-1.06 1.3,-0.68 1.51,-0.45 -0.29,0.57 -0.15,0.47 -0.26,1.04 3.13,0.58 8.9,-0.58 1.07,0.23 1.89,0.76 0.94,0.15 0.53,-0.17 0.94,-0.79 1.62,-0.56 1.04,-0.61 0.84,0.05 0.34,1.52 -0.33,1.19 -0.63,1.11 -0.31,1.4 0.57,1.99 1.08,1.44 1.17,0.37 2.68,-0.67 3.28,-1.83 1.32,-0.26 2.49,0.92 1.33,0.25 1.11,-0.7 2.49,-5.79 0.76,0.62 2.06,3.56 -0.51,1.31 -1.83,1.78 -0.16,0.67 0.98,1.05 1.32,0.83 1.41,0.52 1.26,0.2 14.1,-2.96 2.73,0.55 2.22,1.89 1.9,2.07 2.43,1.52 2.46,0.37 2.02,-1.35 -0.69,2.54 0.61,0.85 2.61,-0.27 0.99,-0.36 0.6,-0.55 0.68,0.03 1.27,1.4 1.45,-0.5 5.34,-4.33 2.04,-0.9 v -1.04 l -2.57,-1.16 -1.36,-2.12 -0.98,-2.3 -1.48,-1.73 0.65,-1.17 0.75,-1.02 1.04,1.63 2.41,4.78 1.16,1 3.45,1.64 0.78,-0.08 0.64,-0.54 2.55,-1.02 -1.31,-1.91 -3.61,-1.63 -1.47,-1.68 2.84,-0.68 10.95,1.63 5.34,-0.95 1.73,0.3 3.36,1.38 7.71,0.74 2.95,-0.25 2.62,-1.22 1.72,-2.81 0.83,-4.1 -0.44,-3.78 -2.11,-1.75 v -1.05 l 1.56,-0.65 0.5,-1.98 0.18,-2.52 0.57,-2.27 0.05,5.12 0.6,2.01 1.46,1.34 -1.18,1.84 -0.06,3 0.21,3.17 -0.38,2.43 4.71,0.28 2.17,-0.72 0.93,-2.21 0.44,-1.38 0.96,-0.05 0.97,0.94 0.44,1.54 0.57,1.45 1.28,-0.09 1.41,-0.91 0.9,-0.93 -2.81,-2.1 0.63,-0.47 0.26,-0.47 0.17,-0.53 0.34,-0.71 -0.62,-0.21 -1.42,-0.83 1.45,-0.8 1.48,-0.22 1.42,-0.48 1.28,-1.54 -0.59,-1.44 -0.8,-1.08 -1,-0.62 -1.2,-0.1 3.38,-3.63 0.7,-2.01 0.21,-3.26 -0.58,-2.78 -1.14,-2.49 -0.81,-2.35 0.42,-2.43 1.35,2.53 2.17,7 1.62,3.1 1.19,0.34 3.52,-3.44 -1.62,2.74 -2.22,2.93 -1.36,2.46 0.98,1.29 v 1.14 l -1.5,1.07 0.82,0.63 3.14,0.4 1.35,-0.34 1.03,-0.85 4.12,-5.23 1.97,-1.89 2.24,-1.27 8.57,-2.77 2.62,-2.04 1.1,-2.98 0.54,-3.96 0.87,-4 1.64,-2.71 0.28,-1.32 -1.21,-1.23 2.52,-2.56 2.09,-1.29 1.03,-1.71 -0.65,-3.89 1.46,0.45 1.12,1.37 1.64,3.44 -2.12,1.69 -2.56,2.75 -1.12,2.63 2.22,1.33 -2.07,1.7 -2.3,2.85 -0.85,2.96 2.34,2.02 v 0.95 l -1.01,0.18 -0.4,0.73 v 2.85 l -0.38,0.64 -1.81,2.03 -0.63,1 0.5,0.54 0.5,0.99 0.48,0.56 -7.71,6.02 -1.45,2.44 0.33,3.75 2.06,2.87 2.8,1.92 2.49,0.87 3.09,-0.45 8.24,-5.91 5.48,-2.24 3.06,-0.52 2.15,0.67 -7.16,3.73 -2.44,0.45 -2.05,0.8 -4.56,3.97 -2.22,1.49 -2.19,0.84 -2.42,0.3 -1.05,0.49 -1.98,2.16 -1.82,0.76 -0.35,0.64 -0.32,0.7 -0.5,0.47 -0.69,0.12 -1.19,-0.19 -0.93,0.07 -11.02,4.86 -9.06,1.58 -1.8,0.86 -1.91,2.46 0.77,1.8 4.27,3.64 1.52,0.2 8.83,-5 4.9,-1.71 2.45,-0.26 1.44,-1.07 2.07,-2.05 2.15,-1.31 1.73,1.21 2.76,-3.71 1.7,-1.31 1.87,-0.19 -0.18,1.75 0.78,-0.57 1.13,-1.42 0.8,-0.8 1.09,-0.37 2.14,-1.51 1.34,-0.21 -2.55,2.35 -6.6,9.21 -5.69,5.18 -2.66,3.22 -0.1,3.06 1.01,-1.57 1.77,-2.04 1.95,-1.78 1.54,-0.85 1.91,0.69 1.72,1.39 1.68,0.36 1.8,-2.44 -0.69,-2.35 0.82,-3.05 1.63,-2.72 1.75,-1.35 -0.58,1.94 -0.79,1.8 -0.46,1.76 0.43,1.88 0.62,0.75 -0.29,1.48 -1.03,2.98 2.04,-0.59 2.03,-0.94 1.96,-1.25 1.77,-1.49 -0.57,-0.6 -0.29,-0.64 -0.61,-1.88 1.66,-0.02 1.16,0.84 0.99,0.99 1.18,0.37 1.07,-0.71 1.32,-1.54 1.19,-1.73 0.64,-1.33 -0.84,-0.11 -0.57,-0.19 -0.58,-0.03 -0.88,0.33 1.32,-2.84 2.03,0.55 1.96,2.24 1.08,2.23 -1.46,0.71 -0.87,1.27 -2.6,6.36 -0.75,0.98 -1.36,0.94 -0.7,1.2 2.13,-0.21 3.37,-2.5 2.24,-0.41 v 1.04 l -0.98,0.81 -0.18,1.02 0.46,2.33 -0.56,2.62 0.31,1.08 1.66,-0.49 0.75,-1.08 1.33,-3.83 0.73,-1.52 3.18,-2.59 0.34,-0.43 6.2,-0.13 2.37,-0.91 1.59,-1.72 1.58,-2.87 0.49,-2.94 -1.67,-1.95 2.24,-5.21 -0.08,-0.89 -0.43,-0.71 v -0.71 l 1.15,-0.82 v -1.14 l -3.65,1.62 -0.57,-0.48 0.47,-1.02 3.11,-3.25 -2.17,-2.69 -1.62,0.58 -1.33,1.62 -1.34,0.49 -1.11,-1.66 0.63,-2.01 2.33,-3.07 1.04,-1.93 0.25,-1.59 -0.26,-4.85 0.43,-0.74 0.98,0.32 0.96,1.07 0.44,1.49 0.42,0.75 0.94,-0.22 0.96,-0.62 0.5,-0.43 -0.51,-0.75 -0.42,-0.96 -0.48,-0.48 0.77,-1.01 0.85,-0.69 0.96,-0.37 1,-0.02 -0.5,1.49 -0.27,0.6 1.41,1.12 -0.41,0.86 -1.08,0.81 -0.62,0.91 -0.11,0.42 -0.24,0.3 -0.25,0.48 -0.1,0.9 0.21,0.45 0.49,0.28 0.49,0.43 0.21,0.89 -0.03,1.53 0.13,0.47 2.08,-0.35 0.64,-0.34 0.36,-0.75 0.2,-0.72 0.15,-0.37 0.69,0.01 0.52,0.37 0.46,0.45 0.43,0.22 5.15,0.53 2.68,0.79 3.91,2.87 2.58,-0.53 2.42,-1.7 1.69,-1.96 -1.52,4.9 -0.55,2.78 -0.04,1.81 1.98,2.78 2.33,-0.28 1.41,-2.33 -0.79,-3.3 4.5,-5.54 7.79,-14.15 4.66,-5.6 -0.42,2.96 -1.07,2.56 -7.09,10.1 -0.63,1.74 -0.63,2.52 -1.48,2.27 -3.17,3.62 -1.01,2.66 1.68,0.66 11.16,-1.26 7.28,-2.08 6.92,-3.87 6.13,-6 -0.71,2 2.06,0.02 3.57,-0.69 2.11,0.67 -1.37,0.38 -1.1,0.9 -1.75,1.86 -1.37,0.64 -2.88,0.83 -5.2,2.82 -1.11,0.93 -1.03,1.43 -1.56,2.87 -0.99,1.02 0.76,1.43 0.81,-0.24 2.01,-2.24 -0.13,2.61 -1.03,1.66 -4.04,3.65 -1.52,0.42 h -3.58 l -0.95,0.65 0.33,2.87 -0.76,0.65 h -3.16 l -1.67,0.65 -3.1,1.81 -1.63,0.66 -1.2,0.18 -3.73,-0.18 -1.34,0.35 -2.02,1.49 -3.64,0.82 -2.09,1.21 -7.35,7.46 -0.96,2.32 -0.32,3.62 -0.28,1.68 -1.33,3.36 -0.44,1.71 -0.03,1.54 0.19,3.31 -0.16,1.47 -1.41,2.86 -1.98,1.76 -2.14,1.39 -2.83,2.73 -2.9,1.63 -3.58,4.15 -0.98,0.59 -1.16,0.36 -0.98,0.56 -0.4,1.17 -0.34,1.46 -0.83,1.9 -1.05,1.63 -0.98,0.7 -2.77,0.28 -6.06,2.82 -7.04,1.33 -1.79,1.26 -1.73,0.44 -5.49,-1.78 -2.38,-0.22 -2.25,1.02 -3.97,2.53 -2.55,0.5 -2.44,0.98 -1.99,2.45 -3.7,6.05 -4.01,4.54 -1.65,2.81 -0.67,3.53 0.53,2.25 1.36,2.25 1.84,1.93 4.47,2.63 5.73,2.4 2.65,0.44 5.02,0.04 2.49,0.58 1.38,1.44 1.08,-2.24 1.26,-0.26 3.29,1.38 1.7,-0.17 1.94,-0.74 3.4,-2.19 1.99,-2.33 0.82,-0.76 0.78,-0.48 0.59,-0.23 1.45,-0.22 0.57,0.32 0.19,0.7 0.34,0.21 1.01,-1.23 0.34,-1.11 0.06,-1.36 0.21,-1.43 0.79,-1.35 0.38,3.34 1.55,0.35 4.48,-1.72 -0.78,5.02 2.13,3.21 3.58,1.46 3.58,-0.23 2.48,-1 -0.13,-1.47 -0.97,-1.77 -0.04,-1.94 0.99,-0.12 5.02,1.05 2.97,-0.64 3.31,-1.77 2.2,-2.62 -0.35,-3.21 2.06,-1.16 1.32,-2.32 0.7,-3.04 0.21,-3.33 -0.25,-1.49 -0.92,-3.53 0.08,-1.18 0.59,-0.91 0.78,-0.75 0.88,-0.06 0.88,1.16 -0.02,1.06 -0.73,3.52 0.05,1.62 0.5,0.67 0.98,0.89 0.96,0.52 0.44,-0.48 0.42,-3.31 1.18,-1.5 4.1,-1.86 -0.22,-0.72 -0.33,-1.85 -0.22,-0.72 2.87,0.09 0.3,-2.11 -1.77,-5.13 0.05,-1.43 0.42,-1.55 0.17,-1.6 -0.64,-1.62 -0.86,-0.31 -4,0.31 1.26,-2.02 1.78,-2.24 1.92,-1.28 1.67,0.84 0.41,2.5 -0.57,2.45 -0.05,1.69 2.03,0.12 1.44,-0.89 1.36,-1.6 1.02,-1.8 0.4,-1.45 -0.76,-2.08 -1.38,-0.57 -0.68,-0.95 1.35,-3.18 2.37,-4.14 1.57,-2.18 1.37,-0.94 1,-0.27 2.84,-2.32 1.01,-1.19 0.16,-1.17 -0.06,-1.18 0.36,-1.23 1.39,-1.76 3.2,-3.08 1.43,-1.96 1.79,-4.3 1.12,-1.74 1.63,-0.67 -1.09,1.84 -0.8,2.15 v 1.97 l 1.25,1.32 1.47,-4.84 1.29,-2.35 1.46,-0.09 0.25,1.88 -1.11,2.58 -2.72,3.86 1.42,-0.07 1.24,-0.52 2.33,-1.58 0.37,2.55 1.08,0.56 1.4,-0.7 1.37,-1.28 0.27,2.06 0.82,0.97 1.15,-0.02 1.28,-0.83 -0.32,-0.72 -0.16,-0.55 -0.27,-0.46 -0.65,-0.45 0.69,-1.37 0.78,-1.15 0.96,-0.92 1.15,-0.63 -0.04,1.56 0.17,1.04 0.45,0.75 0.76,0.72 0.82,-1.42 5.51,-3.78 6.09,-8.85 4.1,-9.53 3.26,-2.92 3.99,-6.77 1.7,-2.34 0.3,0.66 0.33,0.48 -2.68,7.05 -14.21,24.3 -3.66,2.92 -0.56,1.24 1.05,2.51 2.71,-1.04 5.45,-3.64 0.33,1 1.59,-0.85 3.65,-3.09 -0.7,-1.13 -0.62,1.1 -0.66,0.61 -0.7,0.02 -0.77,-0.6 1.14,-1.91 1.93,-4.17 1.09,-1.29 1.53,-0.55 0.68,0.77 -0.08,1.69 -0.72,2.25 1.44,-0.98 3.55,-3.18 -1.41,-1.3 -0.71,-1.91 -0.56,-2.14 -0.91,-2.05 -0.64,2.09 -0.66,-0.45 -0.35,-0.35 -0.2,-0.45 -0.2,-0.84 3.14,-2.67 1.74,-2.1 1.52,-4.4 3.39,-4.93 0.77,-2.09 0.56,-2.04 2.46,-4.42 0.56,-2.99 -0.82,-4.52 0.19,-2.06 1.69,1.44 3.17,0.43 3.2,-4.93 2.56,-6.52 2.68,-9.31 0.47,-2.99 -0.4,-2.53 -1.55,-1.33 -2.15,-0.58 -2.09,-0.93 -1.31,-2.42 6.33,3.15 2.68,0.62 0.83,0.54 0.32,0.64 0.16,1.77 0.23,0.72 2.38,2.97 1.65,1.17 1.6,-0.03 1.16,-1.42 0.62,-3.91 1.1,-1.91 0.1,1.86 0.45,1.05 0.52,0.88 0.34,1.35 0.08,0.03 0.46,1.38 0.16,0.69 -0.29,-0.03 -0.58,0.45 -0.49,0.79 -0.04,0.98 1.43,2.1 1.92,-0.25 3.75,-2.9 -0.77,2.1 0.55,1.9 0.73,3.63 0.9,1.8 0.5,0.11 0.59,-0.51 0.66,-0.43 0.71,0.36 0.37,0.86 -0.18,0.67 -0.35,0.66 -0.19,0.85 2.45,9.34 0.68,1.17 -0.35,1.58 0.11,2.24 0.39,2.17 0.53,1.41 0.39,0.76 0.35,1.17 0.37,0.59 0.53,0.08 1.05,-1.21 0.53,0.09 1.12,2.63 0.08,3.27 -1.2,6.71 1.82,0.92 -0.21,1.61 -1,2.06 -0.61,2.24 -0.14,1.35 -0.39,0.98 -1.25,1.88 -0.28,1.08 0.42,0.84 0.62,0.93 0.32,1.3 0.85,0.36 5.49,-2.01 -0.21,0.29 0.49,0.72 1.13,1.16 0.6,0.19 2.21,-0.19 v 1.05 l -4.67,1.55 -2.3,1.23 -1.8,1.9 -1.82,3.07 -0.39,1.41 1.14,0.37 2.74,-0.07 -0.78,1.89 -1.13,1.31 -2.96,1.89 0.17,2.25 -1.7,1.23 -2.33,0.28 -1.77,-0.55 0.14,-0.04 0.47,-0.37 0.33,-0.46 -0.23,-0.27 -1.69,-0.81 -0.84,0.39 -0.35,2.08 0.05,3.37 0.33,1.39 0.7,1.46 2.04,1.75 2.62,1.5 1.25,1.04 -2,0.37 -5.32,-1.03 -0.78,0.73 -0.5,1.69 -0.38,1.91 -0.48,1.43 -1.74,3.16 -6.18,18.19 -1.26,2.48 -3.9,5.76 -0.52,1.54 -0.5,3.19 -0.39,1.47 -2.19,5.51 -0.9,3.09 -0.36,3.25 0.19,3.23 0.75,4.6 -0.01,0.82 0.38,0.35 1.43,0.78 5.36,1.12 0.56,0.3 0.93,1.37 0.61,0.29 0.59,-0.15 1.16,-0.63 0.72,-0.15 1.46,-0.02 1.05,-0.19 1.02,-0.63 1.39,-1.31 2.46,-3.27 1.13,-0.85 3.63,-0.68 0.94,-0.81 0.55,-1.5 0.29,-1.53 0.57,-1.18 2.21,-0.86 2.38,-1.88 0.69,-0.73 0.51,-1.33 0.52,-2.93 0.38,-0.99 0.83,-0.56 3.74,-1.5 0.66,-0.77 4.46,-10.46 0.87,-1.24 0.78,-0.29 2.32,-0.26 1.18,-0.48 2.19,-2.16 0.89,-1.37 -0.94,-1.12 0.92,-1.06 1.24,-0.93 0.63,-0.09 1.47,-5.69 0.66,-1.52 0.72,-1.26 0.91,-0.92 1.23,-0.44 -0.67,1.71 -1.51,5.53 3.39,-1.66 2.38,-4 3.51,-8.92 -0.2,1.89 -1.08,4.56 0.16,0.89 1.52,-0.27 2.4,-1.35 1.42,-0.44 -0.67,2.11 0.14,1.87 0.94,1.15 1.71,0.04 -1.35,1.92 -5.3,3.82 -1.93,2.44 1.16,1.35 -0.77,2 -2.79,3.46 -2.08,3.51 -1.86,4.23 3.59,-0.92 0.87,0.7 -1.22,2.85 -0.34,1.37 0.68,0.82 1.02,0.42 0.71,0.11 0.41,-0.54 1.08,-2.66 0.31,-1.02 h 0.69 l 0.46,1.31 0.16,1.27 -0.16,1.27 -0.46,1.3 1.37,0.46 1.27,-0.58 1.18,-1.3 1.18,-1.67 -0.2,2.97 -2.67,2.48 -5.32,3.36 -0.66,1.6 -0.78,3.97 -0.68,1.64 -1.05,1.58 -0.7,1.35 -0.44,1.57 -0.45,4.08 0.14,0.69 0.68,-0.34 2.61,-2.32 6.96,-10.78 1.28,-1.12 3.31,-0.81 1.43,-0.65 -1.33,2.43 -4.69,1.25 -1.02,2.04 -0.88,2.81 -3.88,5.09 -0.87,2.33 0.2,1.6 0.35,1.72 0.17,1.63 -0.37,1.32 -1.35,2.17 -1.88,4.46 v 2.61 l 0.16,1.22 0.86,3.44 0.39,1.07 3.38,4.46 3.65,1.17 3.75,-1.53 3.74,-3.63 0.99,-0.59 1.29,-0.41 1.14,-0.69 0.83,-2.54 0.81,-1 1.66,-1.48 2.82,-3.96 1.61,-1.67 1.91,-0.63 -2.85,6.07 -0.67,2.23 1.93,-3.1 1.13,-1.35 1.16,-0.58 0.52,0.76 0.59,1.56 0.67,1.28 0.71,-0.1 2.65,-4.01 1.66,-1.83 1.71,-0.93 -0.16,3.68 1.43,4.72 2.2,4.42 2.16,2.76 1.9,1.16 1.68,0.37 3.46,-0.6 5.31,-3.07 2.54,-2.4 3.67,-10.59 2.26,-2.41 0.25,-0.16 2.92,-0.86 0.68,-1.03 1.13,-2.58 2.04,-1.28 0.39,-1.82 0.14,-2.06 0.61,-1.52 -0.4,-3.01 0.82,-3.19 1.12,-3.32 0.57,-3.39 2.84,-5.79 -0.38,-0.96 -0.83,-0.44 -0.48,-0.99 0.28,-1.06 1.39,-0.6 -1.31,-2.66 0.6,-1.7 3.59,-2.96 v -1.03 l -0.66,-0.59 -0.6,-0.94 -0.5,-1.18 -0.35,-1.33 1.92,0.61 1.03,-0.85 -0.3,-1.26 -1.98,-0.66 -1.92,-0.2 -5.21,-1.87 1.78,-0.94 3.85,-0.28 1.46,-0.85 0.96,-2.09 0.67,-2.87 0.49,-4.92 0.23,-1.03 0.5,-0.7 0.51,-0.86 0.45,-3.01 0.97,-2.51 0.77,-3.45 0.97,-1.2 0.38,-1.21 -1.26,-2.23 3.27,-1.33 1.43,-1.04 0.93,-1.68 -1.15,0.14 -1.1,-0.06 -1.03,-0.36 -0.94,-0.76 1.52,-0.69 3.41,-0.44 1.46,-0.95 0.83,-1.81 1.27,-5.52 0.72,-2.2 1.01,-1.45 2.74,-2.94 1.17,-1.76 0.69,-2.05 -0.39,-1.33 -3.11,-2.86 3.26,-2.62 1.62,-0.88 1.52,0.27 1.19,-4.12 0.04,-1.52 z"
         id="path2"
         style="fill:#000000;fill-opacity:1" />
    </g>
  </g>
</svg>
