<?xml version="1.0" encoding="utf-8"?><svg xmlns="http://www.w3.org/2000/svg" version="1.1" baseProfile="tiny" width="1200" height="800" viewBox="0 0 1200 800"><g><g stroke="#000000" stroke-width=".98" fill="#FFFFFF"><path d="m948.68 657.51l-1.59-.41-1.62-1.13-1.25-1.66-.5-2.01-1.41 1.05 2.7-5.07.8-2.45.18-7.5-.27-1.29-.94-.49-2.72.54-1.63-.23-.94-1.36 1.79-4.93.33-1.82-.7-6.33-.65-.81-4.29-1.81-.5-.91-.88-2.54-.73-.83-2.66 1.97-2.07 6.83-2.37 14.32-.77 3.14-1.26 3.25-1.57 3.07-1.71 2.64-1.94 2.25-6.19 4.52-6.82 6.45-4.14 2.19-3.67 6.02-1.61 2.1.22-.67.55-2.45-2.3-.98-1.23.49-1.16.98-2.06.54-.81-1 1.44-2.29 3.3-3.98-.46-1.23.07-.6.39-1.41-1.38-.17-1.39 1.28-1.42 1.79-1.51 1.38.17-1.96.63-1.48.75-1.32.57-1.5.18-1.69-.18-5.7-3.41 1.91-1.17.27-1.26-.34-1.27-.75-.7-.74.41-.35 2.16-.73 2.83-1.84 2.55-2.41 1.26-2.42-4.14 3.05-2.08 1.02-2.22.21.89-1.74 2.67-1.96 1.36-1.62-1.38.14-1.25.38-1.17.67-1.12.99-1.01-1.9 1.06-1.71 2-1.23 1.85-.48 2.04-1.04 2.36-4.8 1.61-1.38-.44-1.41-.64-.65-.83.11-.96.81.98-2.12 1.19-2.06-2.88-.95-.26.05-.87-.8-.57-.97.61-.47.52-.18 1.01-.79.65-.17.83-.47 1.06-1.07.91-1.18.4-.8.71-3.32 1.72-2.58 3.83-4.09 1.84-2.96.81-2.44.2-2.79-.03-3.98.78-2.91 1.84-2.44 3.85-3.58 1.94-2.38 1.31-2.24.74-2.44.23-3.04.35-1.33.81-1.31 1.65-2.01.53-1.04.44-1.23.66-1.16 1.18-.87 4.61 0 1.26-.49.96-1.09.2-1.09-3.2-1.77-3.57-5.76-2.36-1.5-1.25.66-1.77 2.11-3.97 7.19-3.96 5.48-1.3 1.41-1.95 1.53-2.08 1.25-1.73.5-2.03-.83-1.52-1.64-1.61-1.18-2.3.49-.89 1.07-.13 1.01-.42.78-3.04.66-.81.86-.75 1.05-1.06.89-.97.15-2.03-.19-.84.6-2.79 4.27-1.02 2.16-1.58 5.19-.98 2.1-1.42 2.16-1.09 2.07-.25 1.97 1.01 1.78 0 .95-2.8-1.09-1.21.12-1.56.97-1.12 1.25-.93 1.62-1.53 3.42.24 1.16-1.84 2.34-.52 2.31-.33 2.91-.86 1.02-1.14.76-1.18 2.07-.24 2.15.37 2.47.72 2.05.87.85.17.73-.86 1.55-1.47 1.44-1.68.36 1.1 2.4-.35 1.68-.57 1.73.46 2.55-2.22-1.68-.89-.26-1.43-.06-.37.8.92 1.76 1.88 2.57-1.79 1.12-.23 1.11.42 1.31.2 1.77-.31 2.58-.39.71-2.89-1.11-.67.26-.92.55-.81.28-.35-.61-.14-.91-.34-.9-.48-.65-.51-.2-.9.83-2.53 3.36-1.44 1.02 1.69-3.9.36-1.31.04-1.44-.26-1.01-.32-.43-.16.27-.35 1.21-.69-1.17-.51-1.88.2-.86-1.1-.48-.61.16-.75.9-1.02.47-.65-1.39-.17-1.86.43-.93.48-.54 1.28-3.54 1.07-1.7 1.21-2.42.23-2.21-1.87-1.09-2.2 2.31-1.6 4.84-1.72 3.79-2.61-.92-3.16-5.87-1.44-2.05-4.02-4.49-.84-1.79 2.07-.43.61-2.22-.47-2.46-1.19-1.17-.94-1.24-.05-2.67-.37-2.56-1.9-.86-.06-3.21-5.33-3.74 1.16-1.53 2.37.55 2.81 2.37 2.35 2.88.99 2.16.4 1.66.93 1.47 1.87 2.1 1.28.29 1.15-1.74.99-2.18.79-1.08 2.26-1.63.9-3.78.3-4.25.45-3.03-3.09-.83-3.31-.22 0-1.05 6.82.22 2.46.83 5.41-10.65 2.4-6.02-.13-4.44.54-.79.93-2.37-2.12.71-3.73 3.29-1.96 1.27-5.85.51-3.59 2.67-2.26-.35-2.32-1.08-2.23-.6-4.62-.34-2.22-.96-1.61-1.96 1.68-.71 5.43 1.86 6.97 0 6.56-2.07 6.24-3.29-2.14-2.98-4.24-.43-8.14 1.3-10.43-1.6-.82-1.42-.47-4.35-.76-3.02-.9-2.53-.77-2.83-.32-3.85.52-3.7 1.45-1.77 2.21.03 2.8 1.74.52 1.04.73 1.83.91 1.73 1.1.77 4.23-1.14 2.84.17 2.25.59 6.74 3.58 2.59.55 2.54-.43 2.09-1.78 1.03-1.26 3.59-3.53 2.6-3.48.85-.85 5.03-1.22 2.48-1.37 1.07-3.17 1.24-1.35 5.9-.06 2.01-1.2-1.81-1.89 3.19-8.44-.68-3.52.75-.54.93-.21.79.29.34.99.31.65.68-.26 1.13-.92 3.02-.28 1.58.42 3.13 3.43 1.78.76 3.58 0 .43-.92 2.92-4.27 1.22-1.27 6.01-3.27 2.71-2.78 1.13-4.02-.1-3.63.1-1.14.33-1.24.95-2.57.19-.98.57-1.97 1.36-.97 1.64-.7 1.43-1.24-.6-.72-1.01-1.75-.57-.72 2.54-2.5-.17-2.05-3.08-3.96-.58-1.67-.7-3.1-.83-1.63-1.07-.84-1.13-.26-1.08-.5-.94-1.6.29-1.45-.56-.49-.8.57-1.44 7.64.05.67-1.08 1.02-2.15.05-1.41.52-.96.82-.64.94-1.22 2.5.77 1.16-1.37 2-4.04 3.46-1.69 1.89-.52 1.62-.16 1.65-.53 1.12-1.61-.04-.93-.72-.68-1.31-.44-1.61-.13-1.68-1.47 1.33-1.56.54-.82-.56 1.65-4.22-.53-1.54-3.65-3.65-1.18-.29-2.99-.21-3.25-1.22-.97.14-1.41 1.08-.28.75-.12 1.06-.36.97-1.72.8-.3.96-.04 2.37.1 1.2.5 1.94.11 1.21-.23.54-.51.57-.51.81-.53 3.17-.73-.04-.92-.58-.79.22-.28.92-.22 2.44-.21.88-1.64 3.74-.9.76-1.11-1.21-1.81 2.73-3.82 4.17-2.04 1.68 7.04-12.82-1.15.19-1.08.52-2 1.4 1.03-3.7.11-1.64-.5-2.09-.64 0-3.74 9.96-.87 1.72-2.16.29-2.23.85-2.24 1.35-2.19 1.76-.71-1.16 1.15-2.14 1.43-1.57 8.75-6.82-.99-1.46-1.19-.74-1.33-.18-1.42.17.9-1.42 2.09-1.52 1.17-1.21-3.51-.99-4.48 2.83-4.28 4.41-2.89 3.78-.56 1.7-.03 1.55-.35 1.15-1.53.43-.73.55-.53 1.29-.43 1.41-.39.99-3.25 3.48-.72 1.76 1.8 1.12-2.16 1.25-1.75-.79-.87-2.32.49-3.34 4.92-6.02 1.54-2.56-4.26-1.57-4.58 2.6-8.12 7.55-2.34.7-4.63-.77-2.24.07-2.08 1.35-5.02 7.13-.01-2.06-.58-1.45-1-1.08-1.23-.91 1.66-1.11 3.97-4.08 1.79-.89 1.58.09 3.42.8 3.48-.75 3.03-1.87 5.83-4.91 2.91-1.84 2.96-1.29 3.12-.76 3.37-.27 1.69-.48 2.99-2.2 1-.5.51-.49-.73-1.1-1.62-1.59-.26.19-.79.19-.94-.01-.77-.37 1.97-1.64 4.42-.52 2.12-1.04-19.84-1.16-1.46 1.16-1.32 1.75-1.34 1.11-1.57-.73 1.47-1.9 1.11-1.86 1.25-1.6 1.86-1.12 2.01-.34 3.88-.03 1.86-.69 4.47-4.28 7.09-2.95 3.87-.34 1.96-.48 1.76-1.15 1.71-2.03.84-.69.81-.19.6-.56.25-1.76-.53-1.3-1.19-.51-1.32.12-.91.63-1.31 1.59-5.31 3.69-1.06.34-1.2-.19-.71-.78.42-1.46.72-.75.63-.29.6-.42.6-1.16-1.08-.62-1.05-.34-2.08-.2-.53-2.13-10.8 1.16 1.93-5.88.11-1.25-3.54 4.42-3.57 3.23-1.71 2.1.42 2.38 4.48-.05 8.21-1.85 0 1.07-10.31 7.18-3.9.38 1.78-1.3 1.87-.83 0-1.07-1.38-.6-1.72-.39-1.59-.68-1-1.53.25-1.98 1.04-1.68.56-1.48-1.15-1.35-.08-2.58-2.26-1.24-5.47-.45 0-1.07 2.65-1.05 2.43.3 4.84 1.82 2.55-.08 2.19-1.24 3.77-4.11-1.59-.88-1.11 1.07-1 1.53-1.29.51-1.08-1.11-.07-1.8-.22-1.95-1.51-1.56 6.23.48 2.87-.66 2.99-1.95-4.54-3.83-5.22-.42-4.94 2.73-3.66 5.7 1.7.97-.8 1.36-2.15.72-2.33-.91 1.46-1.64.93-1.74-.09-1.61-1.53-1.33-1.55-.12-14.61 6.91-3.61.6 0-1.07 1.04-.61.67-.91.15-1.21-.52-1.46 1.48-.61 2.45-2.02 1-.57 6.05 0 3.7-1.88 1.61-.35 3.33.16 1.62-.26 1.41-.88-1.41-2.23 2.11-2.02 7.75-3.33 0-.98-5.66 1.49-2.69.18-1.51-1.67 1.8-.09 1.2-.96 1.09-1.27 1.54-.99 6.37 1.07 1.31-.49 2.57-2.21 1.4-.51-.08-.62-4.46-3.76-3.4-1.83-.87-1.52 1.39-1.92.85.06 2.41 1.67 1.34.42 2.97-.34 3.3-1.03 3.07-1.71 2.31-2.38-1.76-.34-7.07.34-1.22-.5-1.22-1.06-.7-1.07.32-.49 4.61.97 19.03-2.54 1.96-1.32 1.07-2.29-.24-3.42-.93-1.61-1.32-.7-1.25-.38-.72-.63.05-1.22.57-1.42.72-1.17.48-.49 2.66 1.36 1.38.34.6-1.17.36-1.07 1.77-2.53.62-1.23-.71-2.3 0-1.45 1.06-.66.9-.2 1.89-.76 1.08-.02.07-3.24 3.94-3.7-.42-1.78 0-1.08-1.22-.33-.87-.95-1.5-3.03-1.48 1.08-1.56.08-1.44-.51-1.14-.65-.05-.38.1-1.47-.05-.41-.45-.07-1.28.23-.4-.16-.5-.56-.47-.27-.35-.5-.14-1.32-1.32-.92-3.02-.33-3.31-.9-2.2-2.66 1.41-1.65-1.58-1.17-4.76-1.5-3.03-2.72-1.93-1-2.08.47-1.28-.98-4.06-1.92-1.38-.34-1.57-.78-3.54-3.62-1.61-1.11-2.8.45-6.74 2.75-2.49-1.03 4.15-2.88 1.49-.38-1.09-.56-2.54-.35-.92-.71-1.14-1.86-.37-.14-.42.73-1.27.72.11.62-.77 1.33-.97.78-.48-1.1-.41-.22-5.53 1.72-.83 2.4-.37 3-.98 2.89-1.62 2.66-.33.15-.31-1.66-1.58-2.82-1.49 1.43-.58 1.98-.45 2.22-1.06 2.03-.65-2.51.4-1.93.85-1.86.74-2.34-3.04 1.75-1.02-.23-.1-2.7-3.34 1.89-1.26-.3.31-2.57-4.91.29-2.47 1.07-2.03 4.79-1.72 3.22-.74 3.24 2.02 2.52-2.06 1.85-2.58 1.65-2.23 1.93-.94 2.72-.42 2.3-.7.25-.13-1.73 2.29-6.31.69-3.17-.44-2.68-2.31-1.14-.46-.85.16-1.94.62-3.2.46-.7 3.12-3.13-1.35-1.7.21-2.06 1.14-2.07 1.41-1.76-2.18-.7-3.18.94-3.15 1.89-2.11 2.21 2.51-4.15.37-.77.74-4.39.28-.98 5.41-5.31-.8-.75-1.84.34-4.09 1.49-2.2.33-1.49.88-1.62 2.03-2.55 4.19-5.29 6.81-1.4 2.55.31-.31.2.54.13 1.33-.18.91-.42.3-.45.12-.29.25-1.01 2.46-.58 1.09-.52.78-.82.62-1.95.9-.81.64-.78 1.11-.7 1.97-.64 1.25-.5 2.57-.55 1.07-1.12-.41-.58-1.14-.06-1.49.25-1.48.39-1.19-1.19.36-.88 1-.56 1.53-.19 1.87.16 3.03-.26.97-.89 1.5-2.71 2.42-1.36-1.63-.4-2.98.22-1.59-.31-1.39-.08-9.51.51-2.99-.31-1.11-1.54-.23-.86.69-1.11 1.52-1.02 1.78-.59 1.52-.48 2.22-.08 1.67.64 1.04 1.71.38.24.76-.56 5.22-.34 1.24-.83 1.28-1.05 1-.99.41-1.2-.54-.47-1.18-.17-1.18-.29-.54-2.71.21-1.42.87-2.56 5.49-1.29 1.96-1.81 1.79-1.86 1-1.44-.43 3.46-3.33 1.58-2.33.65-2.38-.26-2.41-1.85-7.9-1.44 3.1-1.74-.87-1.93-2.53-1.99-1.87.17 2.46.68 2.1 2.03 4.09-.77.98.77 1.18-14.92 8.72-3.31 2.73-1.74 1.06-1.66.43-.89.39-.98 1.01-.65 1.42.09 1.59.49-.06 3.03-1.12 0 1.18-1.6 2.06-1.38 3.33-.51 3.72.99 3.26 1.85.36 5.33-3.44 2.43-.69 0 1.09-7.6 6.66-2.01.95-2.95-.21-1.39.22-1.6.88-3.53 3.03-1.4.39 1.52-2.02 3.22-2.52 1.52-1.92.87-2.12.16-2.09-.86-1.36-2.21.11 2.04-5.38-1.31-.37-3.02 0-.59-.71.52-1.3 3.71-3.11.79-1.58.68-1.72.85-1.71 1.26-1.45 2.98-1.9 2.19-.6 1.26-.98.94-1.52.37-1.96-.03-6.22-1.06-4.37.5-3.82 1.21-3.55 1.48-2.17 1.07 1.93 1.7-1.39 1.02-2.71-.97-2.06 1.55-2.2 1.62-1.63 1.3-1.79.53-2.66-.19-2.52-.53-2.34-.88-1.96-1.22-1.36 0-.97 1.47 0-2.01-1.36-1.96.43-1.94 1.13-1.96.77.36.95.69 2.51.35.98-1-.13-.94-.42-.83-.71-.74-1 1.35-1.46-.86-1.1-3.3-1.78-1.33 1.39-1.45.59-2.85.18 4.86 8.68-.49 1.85-.13 2.47.19 2.52.43 1.92 3.16 4.75.07.76-.76.84-.97 1.86-1.36 1.86-3.33 1.27-.87 1.18-.12 1.7.73 1.99-.4.5-.28.29-.73.39-.43-1.87-.68-1.94-.84-1.64-.87-1.03 1.74-1.19 1.65-.4 1.36-.96.88-2.85-.1-1.72-2.53 1.92-1.65-.2 1.47-2.26-1.82.17-1.74 3.54-1.72 4.4-1.76 2.79.98-4.39-1.85-1.02-3.01.87-2.52 1.3 1.35-2.06 3.68-2.87 6.63-8.91 1.78-1.4-2.77-.98-6.07 4.29-3.19 1.02 0-.98 2.14-1.85 6.3-8.09-.64-.99-.6.49-1.57.5.7-2.08-6.02 1.05-1.72 1.03-.95 1.97-.91 2.48-1.03.78-1.34-3.07-.82 1.61-.65 1.73.32.62.17.5.11.48.17.57-1.74.34-1.1 1.13-.57 1.87-.18 2.61-.46 1.85-1.14 2-2.68 3.27-.41-1.97.05-1.94.44-1.9.69-1.85-.19-2.36 1.36-4 3.05-6.72-3.39.6-2.94 2.77-4.55 7.06-.62 1.7-.52 2.25-.74 2-1.31 1.03-1.5-.46-.71-1.54.03-1.86.71-1.45 0-1.18-.68.09-2.08-.09.31-2.54 1.35-2.88.39-2.17-5.79 2.97-3.27.88-2.2-.59.88-.74.88-1.2.54-1.06-.19-.26 1.13-.45.73.06.77.25 1.27.14 1.06-.49-.96-1.05-1.55-.97-.69-.24-.74-.55-1.09-.21-2.04.18.55-.77.86-2.39-4.94-1.36-4.36.35-9.07 3.18-4.08 2.38-7.02 6.13-4.13 1.24-2.32 1.43-.84.03 1.05-2.01 3.59-4.33.62-1.6 0-1.22.29-.79 1.52-.27.82-.5 1.99-2.17 1.09-.49 4.5-.95 4.46-2.68 3.77-4.14 2.44-5.34-3.74.22-1.66-.59-.94-1.81 4.96-3.85 1.38-1.59.36-1.1.22-1.48.36-1.31.82-.55.85-.28.74-.76.57-1.01.36-1.12-4.04.59-1.66-.24-.7-1.43-1.32 1.44-1.61 1.01-1.73.6-1.67.21 0-1.19 1.84-.39 3.42-2.09 1.84-.68-.07-.77-.12-.46-.58-.95-1.14.86-1.51.69-1.66.47-1.67.16-1.32.39-7.18 4.71-6.14 5.67-2.73 3.36-2.71 4.92-1.54 1.74-.68-1.73.19-2.45.49-2 .7-1.58.8-1.17 6.33-5.12 2.77-3.18-.66-2.47 4.94-2.61 1.67-1.87-.98-2.05 1.29-2.09.97.25.91 1.17 1.12.67 1.15-.3 15.85-9.68 9.58-3.24 2.34-4.33 4.46-1.55 7.54-6.83 3.9-1.54 2.17-.31 2.24-.95 1.9-1.66 1.15-2.46.06-2.83-.76-2.59-2.12-4.62 0-1.1-7.98 5.96-1.23.6-2.89.18-5.8-.59-2.64 1.51.77 1.2-.65 1.22-1.05 1.49-1.17 1.24-1.03.52-2.45-.12-2.16-1.07-.27-.61-.31-1.11-.45-1.08-.7-.48-.79.23-.59.31-.62-.1-4-4.29-.72-1.63.64 0-2.14-3.77-2.96-2.35-3.41-1.2-3.45-.34-1.26 2.48-1.32 4.98-1.98 3.68-3.25-1.29 3.23-3.45 1.08-2.3-.4-2.46-1.35-.06-4.98 2.12-1.45 1.13-5.33 8.88-3.14 3.44-3.84 1.46 4.45-5.62 1.18-2.15.92-2.46 1.89-7.29 1.14-1.94 3.01-3.88.78-1.96-.46-2.16-1.55-1.45-1.78-1.27-1.14-1.69 1.59-.68-.11-.89-1.21-.68-1.74.05.21-.77.34-1.88.22-.75-1.63-.06-1.67.5-1.53.98-1.19 1.43-6.74 5.48-3.08 7.6-2.21 1.73-2.6 1.49-2.06 3.56-4.88 11.34.19 2.01.99 2.15 1.01 3.63-3.29-2.26-1-1.02-2.25 2.48-.26 2.52.65 2.61.45 2.82-.7 1.16-4.29-8.31-1.9.77-3.39 4.67-3.02 1.52-1.06.96-.85 1.26-.33 1.24-.38.98-2.77 2.34-12.95 19.38-1.59 5.38-5.61 8.44-2.74 5.2-1.65 2.29-1.95 1.29 2.82-5.33.61-1.82.79-4.79 3-9.36.21-1.52.29-.79.03-5.23-.55-.56-1.21.07-1.21-.25-.56-1.44-1.3-.41-6.09-.67-1.82-.62 2.4-2.73 8.22-4.89 1.18-1.2 1.22-1.57 1.07-1.83.76-1.94-.14-.53-.48-.44-.34-.82.26-1.6.5-.76.8-.64 1.51-.77 0-1-.19-1.85 1.85-5.94.52-2.64-.89-1.64-2.02 1.55-2.17 2.79-1.32 2.17.09-2.68.51-2.54 3.81-12.19 1.22-2.29 1.34-1.65 5.06-5.04 1.91-2.65.54-1.72-.89-1.46-2.33-1.84 1.52-.94 1.42.27 1.35.61 1.34.06 1.27-.89 8.45-9.73 1.99-3.61-.38-3.46 2.42-2.14 2.27-3.82 1.87-4.37 1.24-3.89.27-5.44-2.29-1.46-3.05-.55-1.96-2.67 4.93-1.02.86.95.71 1.46.97 1.1 1.68-.2 1.5-1.7 3.21-6.04 1.62-2.19 3.68-3.42 3.42-4.43 1.53-3.16-.86-1-2.26-.27-2.63-.99 0-1.2 7.42 0 .77-.89 1.02-5.87 1.39-2.34 3.3-2.42 4.8-5.74.37-.58 1.05-.89 2.78-4.16.46-1.74-1.05-.69-2.54-.29-1.85-1.66-.96-1.82-.46-2.31-.31-3.11.04-.97.51-1.52.15-.95-.22-.61-.96-1.32-.23-.8 1.72-2.93.46-1.02.62-3.15.14-3.33-.79-2.31-2.15-.12 1.1-3.53 1.39-2.44 1.92-1.43 2.63-.5-.9 4.07-1.31 4.03-.72 4.18.82 4.53-.33.85-1.01 3.61 1.87 3.46 1.25.5 1.8-1.74-.08 1.6-.27 1.45-.46 1.33-.66 1.18 2.38 1.03 1.64-2.49 1.49-3.4 1.98-1.71.15-.56 2.34-2.88 4.66-7.72 2.27-5.72 1.51-2.26 2.29-2.08 1.1.05 1.55 5.47.21-2.47.74-1.91 1.15-1.42 1.41-.98-.83-.83-.59-.2-.6.31-.86.72-.21-2.01.45-2.66.88-2.29 1.12-.98.68 1.06.33 2.01.69 1.38 1.76-.89-.7-3.37-.48-1.34-.87-.98 0-1.01.97-1 .62-1.45.53-1.67.7-1.68 3.52-4.47-1-.4-1.15-.79-.96-1.16-.41-1.52.37-1.65.87.43.96 1.18.68.65 1.91-.81 1.91-1.62 1.05-2.13-.65-2.26.67-1.33.91-2.29.55-2.15-.4-.96-1.7-.81-.23-1.82.47-1.91.37-1.06.58-.97.72-.38.15-.69-1.07-1.9-2.24-2.43-1.36-1.12-.97-.49-7.69-1.74-1.94 1.18-2.18 2.34-2.32 1.19-4.97.51.12 1.24-.01 1.11-.07.77-.04.25.49.82.92 2.54-2.09-.11-1.58-1.67-2.67-4.95-.45-1.13-.28-1.13-.45-.86-2.27-.6-3.65-1.89 1.46-1.04 3.33-.57 1.54-.75-2.8-2.11-.71-1.16 1.11.25 1.03-.1.83-.47.54-.92-.14-.75-.56-4.87-1.34-.86-4.83-1.29-1.57-.1.23-2.14.71-3.68-.24-1.04 0-1.02 1.41-.18 1.34.17 1.21.7 1.03 1.45.19-1.04.26-.96.19-1.07 0-1.33 2.58 1.74 2.16 2.62 2.27 1.86 2.91-.58-.87-2.47-.54-.91 1.56.32 1.14.83 2.23 2.23.95.62.83.35 2.06.16 6.4-1.56 12.35 2.69 2.28 1.19 2.37 2.38 2.36 1.71 2.2-.79-.81-1.12-.45-1.96-.17-2.09.02-1.58.91.74.9.32 2.03.07.79-.38.72-.8.31-.81-.38-.38-1.01-.43-.3-1.03.19-2.38.32-1.49.73-.03 2.8 1.69.8 1.3.88.56 1.57-1.46.89-1.81.96-4 1.03-2.09.12-2.51 1.37-3.79.39-2.69-2.85.74-1.24-1.4-3.01-2.25-1.17-1.86 4.98 0 3.14 1.23 1.02-.73.78-1.7.51-2.06.19-1.78-.58-.19-2.74-2.46-.91-1.36 1.51.16 2.14 1.31 2.07.58 1.32-2.05-.44-2.73-1.9-1.25-3.99-.55-.15.71-.51 1.12-.56.07-.26-2.43-3.51-1.74-1.81.64-5.94 3.89.4.2.37.09.33.27.31.67-1.46.6-2.12-.17-1.92-.82-.84-1.36-.32-.96-.61-.48-.31-.77.53-.98 1.22-1.83-2.8 1.7-4.45 5.65-2.4 1.69 1.4-4.87-1.7 1.32-.95 3.64 5.13 2.81.4 1.83.08 2.26.5 2.06 1.56 1.52 3.88.82 1.66 1.06-3.44 1.23-3.91-1.27-3.93-2.11-3.57-1.25-7.09 0-3.47.85-1.72.04-1.79-.89 2.81-4.39 2.05-4.66-3.9.46.4-3.06 5.62-8.73-1.73.38-1.5.92-1.46.56-1.65-.73-.9-1.78-11.42 8.48-1.6.65-4.31 3.21-2.77 2.99-1.9 1.05-8.73 2.95-2.53 1.56-1.09 1.83-1.25 1.59-8.03 2.27-2.02 1.56-4.27 4.49-1.8.93-5.15.62-5.06 1.53-17.66 10.26-5.71 5.08-1.72 2.24-.83 1.59-1.66 4.7-.71 1.02-1.86 2.05-.95 1.32 2.92 3.02 1.13 1.66.94 2.17-1.92-.07-.82-.35-.84-.81-2.88 2.35 2.04 5.16.23 1.83-.8 1.99-1.58 1.16-4.57 1.84-.95.98-1.12 5.88-2.86 2.8-3.86.86-4.12.03 1.81 1.43 4.34.55 1.58 1.28.46 2.82-1.67 1.53-4.1 1.86-2.4 1.6-1.51-1.58-.96-2.56-.72-1.33-6.12-.95-1.98.95 1.22.03 1.07.37.98.71.96 1.02.37.9.72 2.84.32.84 2.1 1.33 3.94-.34 1.63 1.24-2.47 1.71-1.16 1.14 1.03 1.15.47 1.17.75.55 1.38-1.24 2.19 1.12.83.82.57 1.5-1.41 1.02-1.48.32-1.13-.64-.73.22-.25 2.94-.33 2.13-.82 1.32-1.03 1.01-1.94 2.52-2.91 2.55-.88 1.38-1.18 2.87-.7 1.32-2.19 2.25-4.76 2.8-1.94 2.18-1.06.75-3-.3-1.25.12-.72.57-2.73 2.76-4.82 2.22-4.37 1.11-.68-.34-.12-1.51-.7-.37-.66.14-.94.71-2.84 1.13-1.03 1-.16 1.58 1.79 1.27 3.13.02 2.98.62 1.31 3.03.98 3.1 4.64-.27 1.49 2.22-.84.61-.87.39-.93.2-1.01 0 0 1.01 1.88.94 1.96.08 7.55-1.8 1.07.49-.75 1.95-3.75 2.73-4.15-.5-8.29-2.78-3.74 1.7-1.94 4.16-1.32 5.15-1.9 4.71-4.13 4.39-1.18 1.63-.41 1.34-.3 2.75-.63 1.4-2.56 3.87-1.85 5.73-.48 2.49-.49.4-.48.26-.22.5.12 1.01.27.5.26.33.12.42-.53 3.68-1.31 3.59-3.15 6.55-2.53 6.93-.68 3.37-.25 3.51-.7 2.62-4.99 8.97-4.11 10.66-3.54 6.02-2.97 9.8-1.41 2.63-3.52 5.05-1.51 5.62-2.93 4.56.21 1.71-.79 1.43-.2 1.47-.06 1.41-.35 1.24-.7.79-2 1.47-.88 1.01-1.36 2.39-2.87 7.51-.86 4.1-.36 5.62.79 4.79 2.61 1.7-.18.58-.11.51-.16.54-.32.63 2.11 2.11 1.03 1.38.44 1.4.22 1.12.53 1.58.66 1.46.65.82 1.74-.09 1.22-1.72.98-2.2 1.04-1.51.41 4.97 2.22 3.31 8.73 6.03 1.3 1.42-.34.62-3.13-.2-2.85-.88-3.01-2.05-2.8-2.52-2.72-1.86-2.79-.07-2.52 2.25-.04 3.02 2.56 6.75-2.68-1.31-1.24-3.17-.32-4.05.01-4.03-.81-3.47-2.06-2.71-2.73-1.68-3.55-.37-2.2 1.19-3.66 4.37-3.46 1.93-4.68 4.85-5.04 6.58-2.69 5.28-1.72 6.08-.7 10.71.03 2.95.59 2.56 1.58 2.37 2.13 1.64 5.73 2.4 10.53 1.6 2.79-.25 2.29-.94 3.87-2.49 2.35-.88-4.18 6.66-2.35 2.6-2.62 1.52-8.84-.71-1.01 1.88 3.14 3.79 5.92-1.61 9.94-5.51 0 1.18-2.54 1.17-1.82 1.75 0 1.61 2.95.75 2.55-.58 2.17-1.55 3.73-4.33.76 1.18-5.07 7.2-1.32 1.4-2.25.55-6.9-1.62-6.17 1.39-5.09-1.07-1.71-.07-.86 1.29-.25 3.3.16 1.75.38 1.26.8 1.92 1.79 5.86 1.37 1.73 3.44 2.88 1.5 1.84 3.8 2.09 10.45 0 2.42 1.7-3.73 1.6-15.25-2.69-3-2.78-4.89-7.92-3.16-3.02-3.87-1.22-8.17-.07-1.64.5-3.54 1.76-1.51-.21-1.25-1.69.24-1.78 1.07-1.65 1.28-1.33 0-1.07-2.75 0 1.84-1.18.75-2.24-.28-2.17-1.28-.96-.76.27-3.08 1.98-2.11 3.32-2.52 9.27-1.25 2.43-4.81 5.49-1.02 11.79-1.04.79-.64 1.85-.75 3.79-.92 2.91-.48 1.06-.78 1.38-3.77 4.45-1.8 2.65-1.38 5.54-4.37 7.76-1.11 6.16-.11 6.76-.72 6.44-2.92 5.23-1.94.66-3.2.22-3.19-.36-1.92-1.05-.88-1.08-1.76-1.54-.18-1.39-.12-1.75-.25-4.35-.71 0 .48 4.52-.07 1.73-.79 1.73-2.4 3.35-1.52 1.54-.69-.58.08-3.41-.11-1.08-2.72-1.41-2.55-1.87-.83-1.35-.2-2.1 1.4-3.41 2.94-4.26 3.16-3.66 2.06-1.56 2.64-1.13 2.87-2.76 2.67-3.5 2.04-3.29-3.56 1.42-17.25 15.06-14.68 10.31-9.66 8.36-2.02 2.4-.9 2.6.1 1.65-.73 2.06-.53 1.2-1.11 1.79-.54 1.17 2.68-.04 16.31-6.55 4.67-.93 9.75.64 10.35-1.36 11.47-4.11 2.42-.4 10.88 1.16 2.38 1.44 3.52 4.02 2.22.82 4.98-1.22 2.4.18 1.46 2.19 2.29-2.32 3.67-1.68 6.71-1.39 2.02.26 1.58.75.32 1.03-1.75 1.14-1.78.4-3.56.22-6.71 1.91-1.32.76-1.55 2.02-2.45 4.66-1.7 1.81-1.29.6-5.04 1.52-5.21 2.98-1.89.19 2.71-3.06 2.75-1.55 2.86-1.11 3.01-1.7 0-1.06-4.29.74-3.53 2.05-3.09 3.18-2.92 4.06-.83.61-2.18.43-.89.6-.76 1.51-.45 3.1-.49 1.31-4.16 6.09-1.82 1.84-5.94 4.35-1.8 2-2.57 3.91-1.62 1.72-5.52 2.59-6.16 8.94-3.27 3-17.16 9.84-7.57 6.66-6.36 7.8-.64 1.6-.42 1.72-.69 1.36-1.45.58-2.25-.18-1.16.13-.81.57-1 1.07-1.01.66-.8 1-.33 1.99.2 1.53.52.98 2.81 3.88.51 1.1.19 1.48.54.84 2.37 1.45.54.91.08 3.56.57 3.03 1.48 1.97 2.87.34-1.31 3.66-1.25 5.56-.51 5.65.95 3.95-.52 2.15.75 1.27 1.44.6 1.53.16 1.73.66.96 1.53.77 1.76 1.15 1.37 1.19.1 1.25-.51 1.34-.18 2.84 2.2 1.76.44 3.58.03 8.13-2.08 1.1-.3 2.34-1.38 1.16-.41 1.02.32.76.67.84.03 1.23-1.58 3-1.49 15.93.84 6.59-.88 5.7-3.76.96.1 1.14 2.09 2.5-1.22 2.43-2.29.96-1.18 3.55-.46.91-.82-1.64-1.95 1.15-.29.93.6.78 1.24.72 1.68 2-1.37 1.88-.05 1.89.89 1.98 1.47.76 0 2.56-2.75 1.36-3.36 1.71-6.43 2.21-3.25 2.65-1.52 6.47-.46-1.38.47-1.53.83-1.41 1.09-1.05 1.31-2.54 5.93-.28.92-.76.98-.71 2.16.03 2.16 1.44.98 1.07-.6 2.94-2.98.95-1.22 1.29-.15 3.98 2.38 1.48.47 1.33-.62 2.71-1.92 9.3-3.4 2.92-.32 0 .94-1.49 1.59.9.94 1.71-.17 1.71-3.49 1.68.74 1.6 1.6.53.89 5.17.73 1.55-.73.69-.91.31-.99.43-.82 1.06-.32 3.21 0-1.12.93-.94 1.89-1.46 4.4 4.14-.91 1.49-.05 1.72.61.96 1.13.86 1.3 1.39 1.14.82.04 1.26-1.08.67-.1.54.61 1.7 2.53.92-1.41.3-2.06.54-1.89 1.73-.82 1.34.39 4.14 2.13 1.24 1.1 1.45 3.42.89.97 1.88.35 4.99-3.66 1.2-1.55 1.2-1.06 1.3-.68 1.51-.45-.29.57-.15.47-.26 1.04 3.13.58 8.9-.58 1.07.23 1.89.76.94.15.53-.17.94-.79 1.62-.56 1.04-.61.84.05.34 1.52-.33 1.19-.63 1.11-.31 1.4.57 1.99 1.08 1.44 1.17.37 2.68-.67 3.28-1.83 1.32-.26 2.49.92 1.33.25 1.11-.7 2.49-5.79.76.62 2.06 3.56-.51 1.31-1.83 1.78-.16.67.98 1.05 1.32.83 1.41.52 1.26.2 14.1-2.96 2.73.55 2.22 1.89 1.9 2.07 2.43 1.52 2.46.37 2.02-1.35-.69 2.54.61.85 2.61-.27.99-.36.6-.55.68.03 1.27 1.4 1.45-.5 5.34-4.33 2.04-.9 0-1.04-2.57-1.16-1.36-2.12-.98-2.3-1.48-1.73.65-1.17.75-1.02 1.04 1.63 2.41 4.78 1.16 1 3.45 1.64.78-.08.64-.54 2.55-1.02-1.31-1.91-3.61-1.63-1.47-1.68 2.84-.68 10.95 1.63 5.34-.95 1.73.3 3.36 1.38 7.71.74 2.95-.25 2.62-1.22 1.72-2.81.83-4.1-.44-3.78-2.11-1.75 0-1.05 1.56-.65.5-1.98.18-2.52.57-2.27.05 5.12.6 2.01 1.46 1.34-1.18 1.84-.06 3 .21 3.17-.38 2.43 4.71.28 2.17-.72.93-2.21.44-1.38.96-.05.97.94.44 1.54.57 1.45 1.28-.09 1.41-.91.9-.93-2.81-2.1.63-.47.26-.47.17-.53.34-.71-.62-.21-1.42-.83 1.45-.8 1.48-.22 1.42-.48 1.28-1.54-.59-1.44-.8-1.08-1-.62-1.2-.1 3.38-3.63.7-2.01.21-3.26-.58-2.78-1.14-2.49-.81-2.35.42-2.43 1.35 2.53 2.17 7 1.62 3.1 1.19.34 3.52-3.44-1.62 2.74-2.22 2.93-1.36 2.46.98 1.29 0 1.14-1.5 1.07.82.63 3.14.4 1.35-.34 1.03-.85 4.12-5.23 1.97-1.89 2.24-1.27 8.57-2.77 2.62-2.04 1.1-2.98.54-3.96.87-4 1.64-2.71.28-1.32-1.21-1.23 2.52-2.56 2.09-1.29 1.03-1.71-.65-3.89 1.46.45 1.12 1.37 1.64 3.44-2.12 1.69-2.56 2.75-1.12 2.63 2.22 1.33-2.07 1.7-2.3 2.85-.85 2.96 2.34 2.02 0 .95-1.01.18-.4.73 0 2.85-.38.64-1.81 2.03-.63 1 .5.54.5.99.48.56-7.71 6.02-1.45 2.44.33 3.75 2.06 2.87 2.8 1.92 2.49.87 3.09-.45 8.24-5.91 5.48-2.24 3.06-.52 2.15.67-7.16 3.73-2.44.45-2.05.8-4.56 3.97-2.22 1.49-2.19.84-2.42.3-1.05.49-1.98 2.16-1.82.76-.35.64-.32.7-.5.47-.69.12-1.19-.19-.93.07-11.02 4.86-9.06 1.58-1.8.86-1.91 2.46.77 1.8 4.27 3.64 1.52.2 8.83-5 4.9-1.71 2.45-.26 1.44-1.07 2.07-2.05 2.15-1.31 1.73 1.21 2.76-3.71 1.7-1.31 1.87-.19-.18 1.75.78-.57 1.13-1.42.8-.8 1.09-.37 2.14-1.51 1.34-.21-2.55 2.35-6.6 9.21-5.69 5.18-2.66 3.22-.1 3.06 1.01-1.57 1.77-2.04 1.95-1.78 1.54-.85 1.91.69 1.72 1.39 1.68.36 1.8-2.44-.69-2.35.82-3.05 1.63-2.72 1.75-1.35-.58 1.94-.79 1.8-.46 1.76.43 1.88.62.75-.29 1.48-1.03 2.98 2.04-.59 2.03-.94 1.96-1.25 1.77-1.49-.57-.6-.29-.64-.61-1.88 1.66-.02 1.16.84.99.99 1.18.37 1.07-.71 1.32-1.54 1.19-1.73.64-1.33-.84-.11-.57-.19-.58-.03-.88.33 1.32-2.84 2.03.55 1.96 2.24 1.08 2.23-1.46.71-.87 1.27-2.6 6.36-.75.98-1.36.94-.7 1.2 2.13-.21 3.37-2.5 2.24-.41 0 1.04-.98.81-.18 1.02.46 2.33-.56 2.62.31 1.08 1.66-.49.75-1.08 1.33-3.83.73-1.52 3.18-2.59.34-.43 6.2-.13 2.37-.91 1.59-1.72 1.58-2.87.49-2.94-1.67-1.95 2.24-5.21-.08-.89-.43-.71 0-.71 1.15-.82 0-1.14-3.65 1.62-.57-.48.47-1.02 3.11-3.25-2.17-2.69-1.62.58-1.33 1.62-1.34.49-1.11-1.66.63-2.01 2.33-3.07 1.04-1.93.25-1.59-.26-4.85.43-.74.98.32.96 1.07.44 1.49.42.75.94-.22.96-.62.5-.43-.51-.75-.42-.96-.48-.48.77-1.01.85-.69.96-.37 1-.02-.5 1.49-.27.6 1.41 1.12-.41.86-1.08.81-.62.91-.11.42-.24.3-.25.48-.1.9.21.45.49.28.49.43.21.89-.03 1.53.13.47 2.08-.35.64-.34.36-.75.2-.72.15-.37.69.01.52.37.46.45.43.22 5.15.53 2.68.79 3.91 2.87 2.58-.53 2.42-1.7 1.69-1.96-1.52 4.9-.55 2.78-.04 1.81 1.98 2.78 2.33-.28 1.41-2.33-.79-3.3 4.5-5.54 7.79-14.15 4.66-5.6-.42 2.96-1.07 2.56-7.09 10.1-.63 1.74-.63 2.52-1.48 2.27-3.17 3.62-1.01 2.66 1.68.66 11.16-1.26 7.28-2.08 6.92-3.87 6.13-6-.71 2 2.06.02 3.57-.69 2.11.67-1.37.38-1.1.9-1.75 1.86-1.37.64-2.88.83-5.2 2.82-1.11.93-1.03 1.43-1.56 2.87-.99 1.02.76 1.43.81-.24 2.01-2.24-.13 2.61-1.03 1.66-4.04 3.65-1.52.42-3.58 0-.95.65.33 2.87-.76.65-3.16 0-1.67.65-3.1 1.81-1.63.66-1.2.18-3.73-.18-1.34.35-2.02 1.49-3.64.82-2.09 1.21-7.35 7.46-.96 2.32-.32 3.62-.28 1.68-1.33 3.36-.44 1.71-.03 1.54.19 3.31-.16 1.47-1.41 2.86-1.98 1.76-2.14 1.39-2.83 2.73-2.9 1.63-3.58 4.15-.98.59-1.16.36-.98.56-.4 1.17-.34 1.46-.83 1.9-1.05 1.63-.98.7-2.77.28-6.06 2.82-7.04 1.33-1.79 1.26-1.73.44-5.49-1.78-2.38-.22-2.25 1.02-3.97 2.53-2.55.5-2.44.98-1.99 2.45-3.7 6.05-4.01 4.54-1.65 2.81-.67 3.53.53 2.25 1.36 2.25 1.84 1.93 4.47 2.63 5.73 2.4 2.65.44 5.02.04 2.49.58 1.38 1.44 1.08-2.24 1.26-.26 3.29 1.38 1.7-.17 1.94-.74 3.4-2.19 1.99-2.33.82-.76.78-.48.59-.23 1.45-.22.57.32.19.7.34.21 1.01-1.23.34-1.11.06-1.36.21-1.43.79-1.35.38 3.34 1.55.35 4.48-1.72-.78 5.02 2.13 3.21 3.58 1.46 3.58-.23 2.48-1-.13-1.47-.97-1.77-.04-1.94.99-.12 5.02 1.05 2.97-.64 3.31-1.77 2.2-2.62-.35-3.21 2.06-1.16 1.32-2.32.7-3.04.21-3.33-.25-1.49-.92-3.53.08-1.18.59-.91.78-.75.88-.06.88 1.16-.02 1.06-.73 3.52.05 1.62.5.67.98.89.96.52.44-.48.42-3.31 1.18-1.5 4.1-1.86-.22-.72-.33-1.85-.22-.72 2.87.09.3-2.11-1.77-5.13.05-1.43.42-1.55.17-1.6-.64-1.62-.86-.31-4 .31 1.26-2.02 1.78-2.24 1.92-1.28 1.67.84.41 2.5-.57 2.45-.05 1.69 2.03.12 1.44-.89 1.36-1.6 1.02-1.8.4-1.45-.76-2.08-1.38-.57-.68-.95 1.35-3.18 2.37-4.14 1.57-2.18 1.37-.94 1-.27 2.84-2.32 1.01-1.19.16-1.17-.06-1.18.36-1.23 1.39-1.76 3.2-3.08 1.43-1.96 1.79-4.3 1.12-1.74 1.63-.67-1.09 1.84-.8 2.15 0 1.97 1.25 1.32 1.47-4.84 1.29-2.35 1.46-.09.25 1.88-1.11 2.58-2.72 3.86 1.42-.07 1.24-.52 2.33-1.58.37 2.55 1.08.56 1.4-.7 1.37-1.28.27 2.06.82.97 1.15-.02 1.28-.83-.32-.72-.16-.55-.27-.46-.65-.45.69-1.37.78-1.15.96-.92 1.15-.63-.04 1.56.17 1.04.45.75.76.72.82-1.42 5.51-3.78 6.09-8.85 4.1-9.53 3.26-2.92 3.99-6.77 1.7-2.34.3.66.33.48-2.68 7.05-14.21 24.3-3.66 2.92-.56 1.24 1.05 2.51 2.71-1.04 5.45-3.64.33 1 1.59-.85 3.65-3.09-.7-1.13-.62 1.1-.66.61-.7.02-.77-.6 1.14-1.91 1.93-4.17 1.09-1.29 1.53-.55.68.77-.08 1.69-.72 2.25 1.44-.98 3.55-3.18-1.41-1.3-.71-1.91-.56-2.14-.91-2.05-.64 2.09-.66-.45-.35-.35-.2-.45-.2-.84 3.14-2.67 1.74-2.1 1.52-4.4 3.39-4.93.77-2.09.56-2.04 2.46-4.42.56-2.99-.82-4.52.19-2.06 1.69 1.44 3.17.43 3.2-4.93 2.56-6.52 2.68-9.31.47-2.99-.4-2.53-1.55-1.33-2.15-.58-2.09-.93-1.31-2.42 6.33 3.15 2.68.62.83.54.32.64.16 1.77.23.72 2.38 2.97 1.65 1.17 1.6-.03 1.16-1.42.62-3.91 1.1-1.91.1 1.86.45 1.05.52.88.34 1.35.08.03.46 1.38.16.69-.29-.03-.58.45-.49.79-.04.98 1.43 2.1 1.92-.25 3.75-2.9-.77 2.1.55 1.9.73 3.63.9 1.8.5.11.59-.51.66-.43.71.36.37.86-.18.67-.35.66-.19.85 2.45 9.34.68 1.17-.35 1.58.11 2.24.39 2.17.53 1.41.39.76.35 1.17.37.59.53.08 1.05-1.21.53.09 1.12 2.63.08 3.27-1.2 6.71 1.82.92-.21 1.61-1 2.06-.61 2.24-.14 1.35-.39.98-1.25 1.88-.28 1.08.42.84.62.93.32 1.3.85.36 5.49-2.01-.21.29.49.72 1.13 1.16.6.19 2.21-.19 0 1.05-4.67 1.55-2.3 1.23-1.8 1.9-1.82 3.07-.39 1.41 1.14.37 2.74-.07-.78 1.89-1.13 1.31-2.96 1.89.17 2.25-1.7 1.23-2.33.28-1.77-.55.14-.04.47-.37.33-.46-.23-.27-1.69-.81-.84.39-.35 2.08.05 3.37.33 1.39.7 1.46 2.04 1.75 2.62 1.5 1.25 1.04-2 .37-5.32-1.03-.78.73-.5 1.69-.38 1.91-.48 1.43-1.74 3.16-6.18 18.19-1.26 2.48-3.9 5.76-.52 1.54-.5 3.19-.39 1.47-2.19 5.51-.9 3.09-.36 3.25.19 3.23.75 4.6-.01.82.38.35 1.43.78 5.36 1.12.56.3.93 1.37.61.29.59-.15 1.16-.63.72-.15 1.46-.02 1.05-.19 1.02-.63 1.39-1.31 2.46-3.27 1.13-.85 3.63-.68.94-.81.55-1.5.29-1.53.57-1.18 2.21-.86 2.38-1.88.69-.73.51-1.33.52-2.93.38-.99.83-.56 3.74-1.5.66-.77 4.46-10.46.87-1.24.78-.29 2.32-.26 1.18-.48 2.19-2.16.89-1.37-.94-1.12.92-1.06 1.24-.93.63-.09 1.47-5.69.66-1.52.72-1.26.91-.92 1.23-.44-.67 1.71-1.51 5.53 3.39-1.66 2.38-4 3.51-8.92-.2 1.89-1.08 4.56.16.89 1.52-.27 2.4-1.35 1.42-.44-.67 2.11.14 1.87.94 1.15 1.71.04-1.35 1.92-5.3 3.82-1.93 2.44 1.16 1.35-.77 2-2.79 3.46-2.08 3.51-1.86 4.23 3.59-.92.87.7-1.22 2.85-.34 1.37.68.82 1.02.42.71.11.41-.54 1.08-2.66.31-1.02.69 0 .46 1.31.16 1.27-.16 1.27-.46 1.3 1.37.46 1.27-.58 1.18-1.3 1.18-1.67-.2 2.97-2.67 2.48-5.32 3.36-.66 1.6-.78 3.97-.68 1.64-1.05 1.58-.7 1.35-.44 1.57-.45 4.08.14.69.68-.34 2.61-2.32 6.96-10.78 1.28-1.12 3.31-.81 1.43-.65-1.33 2.43-4.69 1.25-1.02 2.04-.88 2.81-3.88 5.09-.87 2.33.2 1.6.35 1.72.17 1.63-.37 1.32-1.35 2.17-1.88 4.46 0 2.61.16 1.22.86 3.44.39 1.07 3.38 4.46 3.65 1.17 3.75-1.53 3.74-3.63.99-.59 1.29-.41 1.14-.69.83-2.54.81-1 1.66-1.48 2.82-3.96 1.61-1.67 1.91-.63-2.85 6.07-.67 2.23 1.93-3.1 1.13-1.35 1.16-.58.52.76.59 1.56.67 1.28.71-.1 2.65-4.01 1.66-1.83 1.71-.93-.16 3.68 1.43 4.72 2.2 4.42 2.16 2.76 1.9 1.16 1.68.37 3.46-.6 5.31-3.07 2.54-2.4 3.67-10.59 2.26-2.41.25-.16 2.92-.86.68-1.03 1.13-2.58 2.04-1.28.39-1.82.14-2.06.61-1.52-.4-3.01.82-3.19 1.12-3.32.57-3.39 2.84-5.79-.38-.96-.83-.44-.48-.99.28-1.06 1.39-.6-1.31-2.66.6-1.7 3.59-2.96 0-1.03-.66-.59-.6-.94-.5-1.18-.35-1.33 1.92.61 1.03-.85-.3-1.26-1.98-.66-1.92-.2-5.21-1.87 1.78-.94 3.85-.28 1.46-.85.96-2.09.67-2.87.49-4.92.23-1.03.5-.7.51-.86.45-3.01.97-2.51.77-3.45.97-1.2.38-1.21-1.26-2.23 3.27-1.33 1.43-1.04.93-1.68-1.15.14-1.1-.06-1.03-.36-.94-.76 1.52-.69 3.41-.44 1.46-.95.83-1.81 1.27-5.52.72-2.2 1.01-1.45 2.74-2.94 1.17-1.76.69-2.05-.39-1.33-3.11-2.86 3.26-2.62 1.62-.88 1.52.27 1.19-4.12.04-1.52-1.26-.61z" /></g></g></svg>