<?xml version="1.0" encoding="UTF-8" standalone="no"?>
<svg
   xmlns:dc="http://purl.org/dc/elements/1.1/"
   xmlns:cc="http://creativecommons.org/ns#"
   xmlns:rdf="http://www.w3.org/1999/02/22-rdf-syntax-ns#"
   xmlns:svg="http://www.w3.org/2000/svg"
   xmlns="http://www.w3.org/2000/svg"
   xmlns:sodipodi="http://sodipodi.sourceforge.net/DTD/sodipodi-0.dtd"
   xmlns:inkscape="http://www.inkscape.org/namespaces/inkscape"
   version="1.0"
   width="1360"
   height="1360"
   viewBox="0 0 1020 1020"
   preserveAspectRatio="xMidYMid meet"
   id="svg74"
   sodipodi:docname="Novaja_Zemlja.svg"
   inkscape:version="1.0.1 (3bc2e813f5, 2020-09-07)">
  <defs
     id="defs78" />
  <sodipodi:namedview
     pagecolor="#ffffff"
     bordercolor="#666666"
     borderopacity="1"
     objecttolerance="10"
     gridtolerance="10"
     guidetolerance="10"
     inkscape:pageopacity="0"
     inkscape:pageshadow="2"
     inkscape:window-width="1920"
     inkscape:window-height="974"
     id="namedview76"
     showgrid="false"
     inkscape:zoom="0.35872474"
     inkscape:cx="126.55538"
     inkscape:cy="422.07579"
     inkscape:window-x="-11"
     inkscape:window-y="-11"
     inkscape:window-maximized="1"
     inkscape:current-layer="g72"
     inkscape:document-rotation="0"
     scale-x="0.75"
     units="px" />
  <metadata
     id="metadata2">
Created by potrace 1.10, written by Peter Selinger 2001-2011
<rdf:RDF>
  <cc:Work
     rdf:about="">
    <dc:format>image/svg+xml</dc:format>
    <dc:type
       rdf:resource="http://purl.org/dc/dcmitype/StillImage" />
    <dc:title></dc:title>
  </cc:Work>
</rdf:RDF>
</metadata>
  <g
     transform="matrix(0.1,0,0,-0.1,0,1024)"
     fill="#000000"
     stroke="none"
     id="g72">
    <g
       stroke="#000000"
       stroke-width="0.98"
       fill="#ffffff"
       id="g940"
       transform="matrix(12.894728,0,0,-12.894728,-2638.6589,10297.984)"
       style="fill:#000000;fill-opacity:1">
      <path
         d="m 303.48,663.36 -0.11,2.65 0.15,1.8 0.18,1.5 0.28,1.52 0.25,0.48 0.34,0.24 0.49,0.76 0.51,1.33 -0.08,0.48 -0.2,0.4 0.14,1.05 1.89,4.92 0.29,1.66 0.11,0.8 0.47,1.07 0.11,1.08 -0.1,0.9 -0.45,2.02 -0.14,1.08 0.59,0.6 1.72,2.51 2.75,1.23 0.91,0.8 2.57,3.23 0.43,0.9 0.36,1 0.42,0.88 0.62,0.51 0.73,-0.02 1.81,-1.01 1.56,-1.47 3.06,0.33 2.91,-0.9 4.7,0.9 -1.15,-1.51 -1.45,-1.23 -1.3,-1.7 -0.72,-2.88 1.02,-0.32 0.8,-0.88 1.63,-2.79 0.82,-0.53 0.08,1.62 -0.42,3.63 0.74,2.64 1.56,2.12 1.75,1.37 1.26,0.46 -0.38,-1.48 -0.53,-1.07 -0.49,-1.35 -0.21,-2.29 0.57,-1.56 2.81,-0.71 1.01,-1.03 0.42,-2.47 0.08,-2.38 0.23,-1.79 0.9,-0.71 0.47,0.73 v 3.8 l 0.42,1.76 1.68,1.82 0.68,1.35 0.19,2.24 -0.42,1.8 -0.67,2.27 -0.24,1.9 0.86,0.69 1.79,-2.51 0.99,-0.41 0.43,2.52 0.3,2.52 0.76,0.94 1.95,0.48 -0.76,-3.81 0.79,-0.55 1.15,1.37 0.32,1.9 -0.2,1.29 0.05,1.37 0.27,1.23 0.47,0.87 0.7,0.13 0.84,-1.81 0.58,0.03 0.77,0.46 0.12,-0.92 -0.11,-1.56 0.11,-1.44 0.58,-0.3 0.89,0.31 0.78,-0.05 0.28,-1.41 -0.32,-0.8 -0.6,-1.01 -0.43,-1.09 0.2,-1.08 0.57,-0.63 0.62,-0.29 0.3,0.43 -0.34,1.51 1.25,2.07 0.44,1.24 0.16,2.17 0.37,1.04 0.73,-0.4 0.52,-1.5 -0.26,-2.31 1.03,-2.82 1.1,-2.23 4.79,-6.13 0.58,-0.16 2.66,2.5 -2.89,3.25 -0.81,1.9 -0.13,0.75 0.01,0.56 -0.03,0.54 -0.31,0.68 -0.49,0.63 -1.28,1.02 -0.55,0.16 2.09,6.56 1.15,2.81 0.12,0.78 0.23,2.18 0.11,0.63 1.74,2.26 2.51,0.87 1.88,-1.41 -0.13,-4.59 0.47,-1.97 0.76,-1.23 8.57,-4.74 1.66,-3.07 0.66,-0.66 0.72,0.15 1.01,0.78 -0.87,2.72 -1.23,1.5 -5.49,1.16 -1.46,1.37 -0.62,2.91 -0.37,2.35 -1.59,2.68 -0.36,2.22 -0.68,0.79 -4.17,3.15 0.36,1 1.62,3.15 1.09,0.92 0.51,1 0.66,0.73 1.72,-0.98 0.75,0.25 0.64,0.63 1.3,0.51 0.56,0.71 -0.18,0.32 -0.49,1.11 0.96,0.33 2.11,1.71 0.83,-0.23 0.4,-1.31 -0.13,-1.57 -0.42,-1.48 -0.5,-1.08 1.65,0.32 0.75,0.75 0.7,1.45 0.8,1.19 0.88,-0.24 0.86,-1.06 0.79,-1.31 1.11,-2.62 0.54,-0.96 0.78,-0.38 0.88,0.5 1.68,2.08 0.8,0.28 -1.22,0.2 -1.62,-0.39 -0.78,0.26 1.3,2.13 -1.6,-0.06 -0.48,0.38 -0.34,0.79 -0.25,0.94 -0.3,0.72 -0.5,0.15 1,1.45 1.39,1.09 2.58,0.95 0.63,-0.26 1.18,-1.02 0.62,-0.15 0.44,0.38 0.45,0.76 0.19,0.73 -0.39,0.33 -5.2,2.07 -2.66,-0.65 -2.12,0.49 -0.64,-0.49 0.74,-2.53 1.39,-0.23 2.95,1.34 -1.99,-2.14 -2.27,-0.29 -4.52,0.94 0.89,2.53 3.48,5.21 -1.1,0.5 -3.47,-3.26 -0.63,-0.1 -1.27,0.22 -0.6,-0.31 -1.06,-1.11 -0.52,-0.07 -0.54,0.66 0.46,1.48 -3.17,-0.09 -1.53,-0.62 -1.22,-0.93 -0.18,1.78 -0.15,0.51 1.94,2.77 4.14,4.23 1.75,3.72 0.46,2.16 -0.3,1.18 -0.72,1.07 -0.81,1.86 -0.34,1.82 v 1.81 l 0.36,1.6 0.68,1.15 -0.47,1.2 -0.71,-0.32 -0.76,-1.1 -1.73,-3.54 -0.63,-0.64 -0.77,0.19 -0.4,0.55 -0.37,0.71 -0.36,0.52 -0.38,-0.02 -0.58,-0.38 -6.46,0.73 2.37,0.74 1.25,0.91 1.74,2.75 2,0.46 0.71,1.44 0.25,-0.77 -0.3,-1.64 -0.07,-1.62 0.28,-1.03 0.78,0.16 -0.14,0.96 -0.09,0.38 0.82,0.81 1.78,0.22 0.87,0.81 1.37,1.96 0.48,0.39 0.86,0.02 1.79,-0.77 0.77,0.43 1.13,1.37 0.59,0.37 0.61,0.05 -1.62,-2.36 -0.24,-0.79 0.21,-0.81 0.48,0.09 5.1,6.59 1.3,1.02 1.34,0.44 1.89,-1.36 0.55,0.28 1.1,1.56 1.18,0.95 1.19,-0.04 1.15,-1.39 -0.49,-0.97 -0.35,-1.08 0.01,-0.9 0.57,-0.47 0.69,0.37 4.9,5.7 0.79,0.48 1.65,0.28 0.75,0.77 -0.11,1.63 0.89,1.2 2.21,1.4 4.41,1.33 -1.12,-2.23 -1.23,-0.65 -1.26,-0.24 -1.26,-1.05 0.21,-0.45 0.2,-0.19 h 0.51 l -5.77,-4.16 0.31,-1.35 0.11,-1.6 0.04,-2 0.47,-0.32 2.08,1.08 -0.31,-1.55 -0.91,-1.75 -0.62,-1.66 0.66,1.27 0.59,1.02 1.33,2.47 3.4,1.13 0.71,1.03 0.09,1.53 -0.21,0.98 -0.05,1.13 0.63,2 0.57,1.23 0.6,1 0.65,0.77 0.73,0.54 2.3,0.69 0.38,0.46 0.67,1.19 0.35,0.43 0.62,0.28 1.25,-0.01 0.64,0.42 0.08,0.42 0.05,0.71 0.16,0.66 2.07,1.72 1.79,2.77 1.79,1.88 1.7,-1.23 -0.19,-1.55 0.58,-0.41 1.43,-0.06 0.19,-0.95 -0.04,-1.14 0.12,-0.62 0.69,0.58 -0.29,-1.37 -1.71,-3.17 -0.12,-1.58 0.58,-1.22 0.82,-0.77 0.56,-0.28 1.98,0.76 1.49,-0.72 0.37,-0.04 0.58,0.73 1.07,2.27 0.63,0.54 -0.67,-2.7 -1.08,-1.59 -1.23,-0.67 -1.16,0.03 0.47,-1.59 1.4,-1.86 -0.01,-1.43 0.81,0.05 0.53,0.64 0.94,2.1 0.76,1.04 5.64,2.41 1.63,1.58 1.2,2.62 -0.63,-3.02 -1.16,-2.15 -1.36,-1.29 -1.26,-0.43 -0.55,-0.59 0.29,-1.1 0.74,-0.52 1.37,2.13 2.26,0.9 0.66,1.39 0.87,2.56 0.56,2.46 -0.29,1.1 -1.61,-0.33 -1.51,-1.04 0.93,2.13 -0.93,0.58 -1.12,-0.77 -1.17,-1.01 -0.94,-1 0.76,1.44 3.16,2.26 1.1,0.29 2.21,-0.48 1.09,0.71 0.28,0.52 0.2,0.61 0.25,0.57 0.42,0.43 0.59,-0.01 1,-1.16 0.5,-0.27 0.87,0.74 0.81,1.26 0.82,0.6 0.92,-1.16 -1.81,-3.3 -4.8,-3.36 -1.45,-4.5 1.29,1.15 2.71,1.26 1.31,1.07 2.54,3.81 3.03,2.8 1.1,0.12 0.47,-1.53 -0.63,-1.97 -3.99,-1.9 1.65,-2.1 2.28,1.13 4.16,4.49 2.46,1.55 2.5,0.53 2.38,-0.72 1.2,0.3 0.93,1.8 -0.75,0.77 -0.86,0.18 -0.87,-0.3 -0.76,-0.65 v 0.76 l 1.17,1.32 -3.38,-0.54 2.54,1.61 1.28,0.31 1.01,-0.49 1.91,-1.81 1.48,-0.69 0.32,-0.7 0.01,-0.88 -0.42,-0.78 -2,-1.57 -4.36,-1.32 0.39,-1.25 0.67,-0.38 1.44,0.18 -1.51,-2.39 -1.65,-1.24 -3.52,-0.53 0.42,0.67 1.15,0.88 0.27,0.53 -0.18,1.03 -0.56,0.37 -3.14,-0.05 -1.03,-0.55 -0.6,-1.49 1.45,0.08 0.7,-0.38 0.6,-1.09 -1.97,-0.66 -0.99,-0.81 -0.49,-1.38 4.14,0.7 -0.51,-1.14 -0.74,-0.31 -0.82,-0.06 -0.74,-0.38 -0.6,-0.85 -0.17,-0.72 0.28,-0.52 0.77,-0.2 0.72,0.29 1.52,1.39 3.3,1.37 0.69,-0.2 0.35,-0.81 0.23,-1.19 0.33,-1.08 0.6,-0.47 2.53,-0.37 0.8,0.72 0.18,0.94 -0.63,0.52 -1.41,0.28 -0.24,0.43 -0.28,2.17 -0.39,0.94 1.04,2.98 2.05,2.4 2.23,1.26 1.59,-0.39 -1.95,-1.42 -0.98,-1.14 -0.51,-1.6 1.46,0.49 2.72,2.97 9.68,3.85 9.67,3.85 0.85,-0.05 0.75,-0.65 -1.35,-1.47 -3.03,-1.44 -1.39,-1.31 -0.14,-0.48 -0.05,-0.66 -0.01,-0.61 -0.04,-0.33 -0.42,-0.44 -0.41,-0.2 -0.87,-0.05 -1.81,1.22 -0.72,0.23 -6.24,-2.2 -0.44,-0.36 -1.53,-2.36 -1,-1.1 -0.47,-0.72 -0.37,-1.02 1.21,-0.82 1.53,1.16 2.8,3.2 2.17,0.87 0.59,-0.18 0.81,-1.1 0.34,-0.29 0.82,-0.13 0.81,0.31 6.38,4.55 6.51,2.21 -0.42,-0.76 -0.45,-0.5 -0.48,-0.22 -0.49,0.09 v -0.63 l 0.73,-0.11 0.69,-0.35 0.62,-0.68 0.51,-1.06 0.46,-1.79 0.03,-0.23 1.33,-1.39 0.39,-2.38 -1.15,-1.14 -1.57,-0.95 -0.87,-1.86 0.82,-0.5 0.8,0.41 1.58,1.48 0.91,0.27 2.83,-0.27 -5.35,-6.06 -0.44,-2.95 -5.22,0.85 -1.48,-1.23 -1.35,-1.64 -3.3,-1.97 -2.23,-0.56 -0.83,-0.76 -2.11,-2.86 -1.33,-0.98 -0.6,-0.73 -1.33,-3.07 -0.52,-0.89 -0.78,-0.74 -1.7,-0.84 -4.78,-4.64 -2.28,-4.52 -7.99,-10.53 -7.99,-10.57 -1.18,-2.23 -0.51,-2.27 -0.15,-1.99 -0.8,-5.26 -0.43,-1.73 -1.02,-1.94 -2.29,-2.76 -0.97,-2.19 -1.94,-6.64 -0.72,-1.72 -1.84,-2.76 -2.74,-5.74 -1.67,-7.59 -2.39,-7.04 -0.77,-4.04 -0.29,-5.14 0.1,-1.35 0.17,-0.96 -0.01,-1.03 -0.5,-2.11 -0.02,-0.56 -0.03,-0.52 -0.18,-0.52 -0.36,-0.44 -1.85,-0.87 -0.95,-1.07 -0.5,-0.25 -5.79,-0.73 0.2,-0.49 0.27,-0.37 0.7,-0.63 -0.46,-1.41 3.66,1.37 1.18,0.04 -0.19,-1.3 -0.32,-1.12 -0.4,-0.82 -0.46,-0.41 0.48,-1.08 0.25,-1.16 0.16,-1.16 0.25,-1.12 0.55,-1.27 1.21,-2 0.57,-1.2 -0.89,-0.64 -2.81,-0.11 0.68,-1.24 0.9,-3.37 0.48,-0.68 0.75,-0.56 2.26,-4.35 1.62,-1.43 0.79,-1.1 0.33,-1.98 -0.24,-0.96 -1.6,-3.14 -0.26,-2.48 -3.65,-2.94 -0.91,-1.86 0.38,-1.17 2.39,-4.13 0.26,-0.83 0.29,-1.4 0.25,-1.51 0.13,-1.22 -0.59,-0.64 -0.12,-1.36 0.06,-1.5 -0.06,-1.07 -0.8,-0.89 -2.13,0.88 -0.94,-0.19 -1.02,-0.64 -6.9,-0.75 1.23,-1.39 6.29,-0.15 0.69,0.46 0.61,0.19 1.93,-1.33 h 2.97 l 0.44,-0.25 0.1,-0.66 -0.01,-0.98 0.06,-1.17 0.39,-1.7 0.03,-0.83 -0.35,-0.74 -1.28,-1.01 -1.31,-0.31 -0.57,-2.78 -6.12,-2.66 6.39,0.54 1.05,0.79 1.34,2.83 0.8,0.82 1.59,0.46 0.65,-0.4 1.72,-2.28 0.52,-1.22 -1.22,-2.36 -0.57,-1.44 -0.3,-1.51 2.29,-0.9 1.1,-1.11 -0.14,-1.53 -3.46,-5.08 1.09,-0.82 3.88,3.2 6.13,0.78 -2.92,-7.58 -1.64,-2.56 -3.16,0.54 -3.84,-3.63 h -5.76 l 1.65,-2.31 0.77,-0.34 5.64,2.65 2.27,0.15 4.34,-2.03 6.57,2.76 2.54,-0.51 1.12,-3.06 0.22,-0.9 1.03,-0.58 0.39,-0.5 -0.03,-0.35 -0.01,-1.96 0.04,-0.73 0.6,-3.49 0.01,-1.63 -0.61,-1.2 1.18,-5.72 -0.11,-1.61 -1.33,-0.58 -3.24,0.9 -4.83,3.27 -5.3,-1.81 -3.68,0.78 -0.79,-0.17 -1.48,-1.28 -0.74,-0.12 0.87,-0.94 7.89,-0.88 1.61,-1.08 10.13,-2.31 3.25,1.41 1.86,-1.14 1.76,-2.26 1.24,-3.02 -2.67,-1.86 -9.14,0.68 -9.14,0.68 -1.2,-1.08 12.46,-3.21 12.45,-3.21 1.14,-0.93 -0.09,-2.58 -0.66,-1.67 -2.44,-3.59 -0.29,-0.77 -0.48,-1.58 -0.38,-0.77 -0.6,-0.74 -10.39,-3.51 -10.39,-3.52 -0.33,-0.28 -0.03,-0.43 0.06,-1.54 -0.03,-0.43 -1.69,-1.73 -9.03,0.86 -6.25,-2.2 -6.02,-6.4 -6.42,-3.72 -2.19,0.14 -1.75,1.31 -1.6,0.12 -2.55,2.43 -3.67,0.61 -1.8,1.15 -2.96,4.22 -1.02,2.18 -0.56,0.74 -2.39,0.93 -4.55,4.16 -3.75,-0.09 -7.33,-3.42 -3.66,0.38 -3.3,2.81 -3.17,4.7 -0.95,0.6 -3.33,-1.72 -0.74,0.37 -1.49,1.65 -1.51,0.72 -4.47,5.54 -0.66,1.27 -0.49,1.36 -0.03,0.44 0.18,0.63 0.11,1.92 -0.07,1.49 -0.25,0.65 -1.08,0.64 1,2.41 1.08,1.17 2.43,0.44 0.45,0.44 0.35,1.07 0.31,1.28 0.38,1.07 0.62,0.81 1.48,0.91 0.66,0.72 -6.41,-0.78 -1.31,0.47 -0.35,0.31 -0.18,0.93 0.07,0.81 0.09,0.83 -0.08,0.93 0.09,2.14 0.99,1.58 2.03,1.41 4.32,-0.4 1.2,1.18 -0.41,1.08 0.04,0.4 0.16,0.95 -2.43,-0.73 -0.81,0.73 1.47,1.53 1.52,0.74 -1.14,1.2 -1.34,0.06 -9.48,-5.42 -13.8,7.07 -0.7,1.23 -1.43,3.33 -1.8,1.73 -0.52,1.08 -0.23,1.04 -0.18,2.22 -0.16,0.93 -0.75,1.08 -0.88,-0.21 -0.85,0.23 -0.63,2.46 0.75,1.41 0.9,0.53 1.82,0.38 0.73,0.73 0.97,2.14 0.6,0.99 0.95,0.58 5.79,-0.2 1.57,-1.1 7.15,-0.12 2.78,2.09 3.62,0.86 0.74,0.98 -3.63,-0.16 -3.27,-2.68 -1.11,-0.26 -6.74,3.18 -0.84,1.05 -0.56,2.02 1.59,-0.75 0.42,0.12 0.38,0.7 0.08,0.67 -0.19,0.52 -1.16,0.66 -0.66,1.22 -0.55,1.74 -0.39,2.03 1.37,-0.15 5.03,-4.11 6.32,-0.42 -0.82,0.8 -2.67,0.74 -1.46,1.05 -1.52,0.49 0.5,1.23 0.19,0.37 -1.63,1.22 -0.46,1.08 0.03,2.22 -1.2,0.91 -2.53,0.7 -0.38,-0.73 h -0.57 l -0.59,0.56 -0.51,0.93 -0.29,0.92 -0.29,1.19 -0.03,0.81 1.7,-0.93 1.06,0.61 1.99,2.68 -1.2,0.47 -3.39,-0.08 -0.69,2.03 0.33,1.72 0.64,1.45 0.38,1.57 -0.46,2.11 0.76,0.07 2.25,1.37 2.31,-0.01 0.68,0.84 -4.89,0.17 -2.44,-1.11 -2.35,-2.1 0.66,2.08 2.33,1.11 0.5,2.53 -0.52,1.79 -2.53,1.71 -0.9,1.45 0.2,0.35 0.32,0.83 0.17,0.33 -1.35,-0.08 -2.74,-1.18 -1.21,-1.45 -0.45,-0.06 -0.22,0.98 0.12,1.2 0.56,0.59 0.58,0.07 0.54,0.31 0.5,0.66 0.44,1.16 -0.23,0.32 -0.44,0.88 -0.24,0.31 0.5,1.81 0.18,0.5 -1.34,-2.09 -0.67,-0.31 -0.77,0.91 2.73,5.4 0.23,1.09 -0.2,0.73 -0.66,0.29 -1.72,-1.44 -1.02,-0.4 -0.49,1.02 0.13,1.19 0.4,0.94 0.47,0.83 0.38,0.86 -0.68,1 -0.23,1.46 0.23,1.35 0.68,0.74 -1.38,1.18 -1.22,0.51 -1.19,-0.43 -1.31,-1.67 -0.64,-0.18 -0.7,0.63 -0.6,0.33 -0.36,-1.18 0.05,-0.9 0.21,-1.07 0.45,-1.77 -0.78,-0.18 -1.24,0.83 -1.15,1.54 -0.9,3.46 -0.78,0.19 -0.61,-1.13 0.15,-2.54 -2.13,0.08 -0.57,-0.26 -0.57,-0.61 -3.04,-4.79 -0.76,0.08 -3.21,3.89 -4.63,3.38 -1.93,4.28 0.25,0.81 -2.02,4.3 -2.04,6.91 -1.29,7.77 z"
         id="path936"
         style="fill:#000000;fill-opacity:1" />
      <path
         d="m 491.24,325.64 -14.52,0.87 -3.47,-2.5 -1.15,-0.1 -0.01,-2.1 -1.05,-0.11 -16.53,7.75 -1.11,-1.27 0.1,-0.49 0.15,-1.18 -3.87,-1.02 -2.37,1.51 -2.45,0.48 -2.78,2.7 -0.32,0.76 0.08,1.27 0.33,1.09 0.42,0.75 0.34,0.28 0.21,0.98 -2.07,6.02 5.3,-0.94 0.35,0.42 1.07,2.02 0.22,0.66 -0.21,0.98 -1.44,2.82 1.76,-0.33 3.52,-3.13 1.78,-0.77 3.72,0.91 3.54,3.32 -0.6,0.38 -0.61,0.71 -0.59,1.06 -0.48,1.37 5.97,-0.78 1.41,-0.86 0.7,-0.01 0.73,0.63 0.38,1.04 -0.25,0.87 -0.56,0.61 -5.34,0.28 -2.19,1.55 -2.25,-0.75 -0.81,0.28 -1.53,1.22 -8.07,0.01 -1.52,-0.81 -3.77,2.73 -3.98,-0.13 -1.3,1.41 -3.93,7.27 0.94,1.88 1.25,0.75 5.1,0.04 2.62,1.04 1.6,2.25 0.6,0.33 0.46,-0.26 0.45,-0.5 0.58,-0.34 0.79,0.58 2.4,3.07 0.51,1.07 -0.4,2.03 -0.87,1.14 -0.88,-0.23 -0.84,-4.02 -1.05,0.07 -2.03,2.04 -1.28,0.74 -4.18,-0.54 -3.98,1.5 -1.1,-0.65 0.12,-0.37 0.22,-0.87 0.12,-0.38 -0.68,-1.59 -0.62,-0.25 -0.65,0.66 -0.79,1.18 -1.19,0.77 -0.1,0.35 -0.08,0.57 -0.04,0.55 -0.01,0.23 -0.58,0.22 -1.14,-0.09 -0.56,0.71 0.5,0.59 0.87,1.47 0.45,0.56 0.6,0.34 3.03,-0.44 12.96,6.87 0.33,3.36 1.68,1.34 3.33,0.57 2.54,2.23 0.46,0.99 -0.2,1.89 -0.77,0.7 -0.92,-0.03 -11.02,-6 -3.14,1.05 -3.87,-1.73 -0.9,-0.78 -1.7,-2.58 -0.67,-0.63 -0.91,-0.16 -4.57,1.9 -10.22,11.83 -0.68,0.33 -0.57,0.74 -2.32,5.66 -0.21,0.25 -0.48,0.12 0.61,1.63 1.13,0.41 2.17,-0.37 2.17,1.09 1.03,1.33 0.06,1.83 -0.55,0.51 -2,-1.43 -3.3,3.23 -5.96,0.43 -4.54,2.06 -2.13,1.84 -3.04,4.31 -1.83,1.04 -1.01,1.18 -0.51,1.62 0.63,1.78 -7.17,6.67 -2.45,0.23 -1.24,-0.35 -1.16,-0.78 -1.58,-2.66 -0.81,-0.52 -0.34,1.98 -0.14,1.85 -0.23,1.29 -0.04,1.26 0.41,1.73 0.81,1.23 2.2,0.86 0.91,0.86 3.2,4.51 0.8,1.87 0.37,0.57 0.58,0.53 1.15,0.51 0.57,0.61 -0.66,0.74 -0.26,0.14 0.55,1.19 0.66,0.59 1.34,0.6 1.52,1.27 0.75,0.27 1.54,-1.01 5.43,1.99 -0.21,-0.37 -0.48,-1.34 1.19,-1.06 2.48,-0.98 1.15,-1.15 1.07,-2.22 0.92,-2.46 0.99,-2 1.28,-0.82 4.51,-0.07 2.03,-1.45 2.24,-0.05 0.68,-0.32 1.27,-1.31 0.71,-0.08 -0.23,1.45 -1.17,3.46 0.95,0.84 0.83,-0.6 1.69,-2.62 1.11,-0.8 9.65,-0.49 1.13,-0.5 h 1.13 l 1.06,0.97 -8.79,1.41 -1.41,0.86 -3.57,3.94 -5.24,0.73 -2.45,2.13 -1.05,1.39 -2.32,1.6 -2.38,0.66 -11.37,12.61 -0.64,1.61 3.24,2.43 1.15,0.24 3.44,-1.05 -2.69,2.06 -0.75,1.25 -0.21,0.57 -0.15,0.6 -0.09,0.71 -0.04,0.87 -0.23,1.03 -0.55,0.34 -4.95,0.56 -2.1,1.44 -1.17,2.73 7.3,5.45 1.49,-0.69 6.05,-6.66 3.17,-2.12 3.07,0.23 4.08,-3.45 4.02,-1.45 4.06,0.57 13.95,13.12 11.36,-1.87 1.67,0.88 2.32,2.72 1.11,0.63 1.21,-1.01 0.69,-1.06 0.01,-0.07 -0.23,-0.29 -0.03,-1.72 0.4,-3.34 0.06,-1.11 -0.52,-2.1 -1.17,-1.89 -2.22,-2.01 1.59,-1.45 1.81,1.07 1.5,3.19 0.61,4.83 0.41,4.82 1.06,3.07 1.45,1.64 15.42,3.42 2.21,1.63 1.44,0.41 1.43,-0.14 1.05,-0.83 -0.39,-0.88 -0.56,-0.75 -0.4,-0.85 0.08,-1.12 0.53,-1.34 1.89,-3.13 -1.13,-0.72 -0.51,-0.83 -0.2,-1.59 0.3,-1.66 0.6,-0.49 0.67,0.19 0.91,0.78 1.43,1.98 0.28,0.76 0.55,1.94 0.32,0.51 0.6,-0.18 1.72,-3.03 7.37,-9.71 v -2.24 l 0.73,-1.31 1,-0.52 0.81,0.04 -0.38,-1.36 0.08,-1.01 0.23,-0.84 0.07,-0.84 -0.26,-1.43 -0.29,-0.73 -0.89,-0.88 -4.41,-2.32 -5.39,-7.07 -1.45,-0.57 -2.99,0.62 -1.4,-1.41 1.79,0.27 0.91,-0.22 0.79,-0.94 -1.13,-1.75 -2.37,-2.26 -0.91,-2.45 0.53,-1.36 0.57,-0.33 1.22,0.81 7.81,10.99 11.1,3.67 -0.48,-1.89 -0.21,-0.55 8.09,-3.99 0.54,-0.75 0.55,-1.06 0.17,-1 -0.57,-0.53 0.16,-1.15 0.21,-1.01 0.55,-1.85 -0.33,-0.26 -0.42,-0.74 -0.3,-0.99 0.02,-0.98 0.12,-1.22 -0.35,-0.64 -2.43,-2.22 -0.24,-0.83 -0.1,-1.6 -0.27,-0.78 -3.6,-4.9 -0.42,-1.84 -0.69,-2.09 -4.38,0.27 -1.36,-0.63 -2.83,0.05 -5.51,-2.89 -10,-1.13 -2.66,-3.06 14.13,2.61 14.14,2.61 3.09,2.99 1.61,2.98 1.93,2.07 0.5,1.19 0.45,2.27 0.24,0.6 1.81,1.91 1.12,0.72 1.14,-0.32 6.64,-9.71 -0.32,-0.91 -0.23,-1.02 -0.05,-1.1 0.16,-1.17 -0.77,-0.22 -0.18,-1.27 0.06,-1.54 -0.04,-1.1 -0.73,-1.13 -1.76,-0.43 -0.73,-0.86 0.77,-1.32 0.9,-0.64 1.78,-0.52 -1.13,-2.24 -9.02,-11.67 -1.37,-2.83 -0.74,-0.95 -0.71,-0.53 -8.95,-1.86 2.23,-1.53 4.98,2.34 2.04,-2.49 -0.77,-3.62 -1.04,-2.7 -2.35,-4.77 2.58,-1.16 1.45,0.19 0.93,1.43 2.19,7.27 3.44,8 0.43,0.64 0.5,0.5 2.07,0.65 3.89,4.07 3.33,0.44 2.63,2.26 0.5,-0.07 1.54,-2.02 0.49,-0.24 0.72,-0.05 0.29,-0.33 0.03,-0.88 -0.03,-1.7 -0.5,-2.04 -1.16,-1.17 -2.25,-0.52 2.16,-3.68 0.39,-1.41 -0.09,-1.84 -0.4,-0.89 -0.45,-0.68 -0.21,-1.22 0.78,-1.4 1.75,0.89 1.87,2.11 1.12,2.18 -0.13,1.73 0.3,0.81 0.5,-0.04 0.48,-0.74 0.1,-0.87 0.04,-2.67 0.07,-0.73 1.4,-1.4 3.31,1.01 1.31,-2.14 -4.88,0.01 -2.58,-1.41 -1.76,-3.65 0.54,-2.04 0.94,-1.85 0.88,-0.65 0.4,1.58 0.1,2.62 0.3,0.34 1.21,-1.69 0.73,0.11 1.39,2.29 0.87,0.97 1.06,0.5 1.05,0.09 1.04,-0.43 1.02,-1.08 -0.73,-0.92 -0.72,-0.51 -0.68,-0.83 -0.64,-1.88 h 5.07 l -0.94,-1.18 -3.2,-1.43 h 6.46 l -0.35,-0.89 -0.4,-0.54 -0.43,-0.23 -0.42,0.04 0.44,-1.19 1.07,-0.81 0.53,-0.62 -1.15,-1.7 0.71,-1.69 -0.57,-0.82 -1.33,-0.38 -0.65,-0.5 0.15,-3.34 -0.86,-2.6 -2.04,-3.44 1.79,-3.06 0.5,-1.29 -5.56,-6.31 -1.59,-3.05 -0.02,-0.34 0.05,-1.13 -0.03,-0.33 -0.25,-0.25 -5.01,-2.31 -3.26,-3.55 0.13,-0.62 0.21,-1.37 0.12,-0.61 8.98,4.93 8.97,4.91 0.5,0.67 0.15,0.62 0.07,1.57 0.12,0.31 4.03,2.65 9.46,1.64 -0.24,-0.86 0.16,-1.65 -0.46,-0.91 -0.67,-0.6 -0.51,-0.66 -0.11,-1.72 0.54,-1.68 1.29,-2.24 -0.55,-1.82 0.14,-1.27 1.11,-2.08 0.51,-1.53 0.83,-3.33 0.51,-1.28 -0.93,-1.95 -3.71,-2.3 0.65,-1.17 0.99,-0.95 1.01,-0.22 0.71,0.96 0.76,1.72 0.94,0.59 1.88,-0.14 -0.68,-1.97 -1.52,-2.99 -3.71,-5.09 -0.8,-2.14 1.07,-1.09 1.19,1.13 2.36,3.37 3.03,2.69 1.94,3.05 1.93,1.32 2.84,4.4 2.86,3.09 3.62,1.94 1.54,-0.71 0.53,-0.87 0.77,-2.01 0.52,-0.88 1.49,-0.68 0.72,-0.76 0.04,-1.37 -0.13,-1.08 0.07,-2.56 -0.06,-1.14 -0.48,-1.75 -0.64,-0.72 -1.43,-1 -0.24,-0.49 -0.12,-0.5 -0.08,-0.57 -0.13,-0.67 -0.33,-0.55 -4.31,-0.15 -0.67,-1 -0.78,-2.45 -1.99,-4.21 -1.04,-1.66 1.71,1.7 2.4,1.37 2.17,3.69 0.94,0.69 3.17,-0.44 0.96,0.39 1.96,1.75 0.99,0.39 11.54,-3.12 1.8,-2.16 1.43,-3.46 -0.71,-1.5 -0.89,-1.11 -0.93,-0.67 -0.83,-0.22 -0.62,-0.45 -0.81,-1.12 -0.76,-1.41 -0.45,-1.42 0.99,-1.21 3.4,1.21 7.94,-1.46 1.04,-1.18 2.37,-4.9 0.87,-1.35 -2.23,-5.78 -10.27,-0.74 -10.27,-0.74 -1.85,-1.35 -0.98,-2.03 6.22,1.86 4.09,-3.63 0.98,1.77 -0.27,0.39 -0.66,1.47 1,-0.01 5.1,-2.52 0.97,-0.95 0.79,-1.85 -1.15,-1.87 0.18,-0.17 0.51,-0.8 -0.12,-0.39 -0.22,-0.92 -0.12,-0.4 2.07,-3.64 -0.41,-1.13 0.12,-0.85 0.44,-0.52 2.16,-0.48 0.79,0.48 0.58,1.68 -0.56,1.25 -0.53,1.83 -0.33,2.07 0.02,1.99 0.71,1.65 1.24,0.77 3.25,0.07 0.76,-0.71 0.66,-1.48 0.67,-2.53 0.57,-2.88 -0.25,-0.7 -0.71,-0.35 -0.86,-1.87 1.12,-0.91 0.51,-0.75 0.49,-3.32 0.67,-0.88 4.59,-2.28 2.31,-2.42 2.35,-1.19 5.53,-8.7 0.7,-2.15 0.11,-2.78 -0.64,-3.6 3.47,-0.84 -0.45,1.6 0.1,0.92 0.35,0.79 0.25,1.23 0.04,1.31 -0.03,1.28 -0.1,1.32 -0.16,1.43 0.86,3.09 1.22,1.52 1.35,0.18 1.25,-0.94 0.49,-0.98 0.27,-1.21 0.23,-1.31 0.34,-1.26 0.7,-1.13 0.86,-0.49 1.66,-0.1 -0.24,-1.54 -0.17,-0.6 -0.3,-0.57 0.45,-0.69 0.94,-0.63 0.47,-0.58 -0.68,-1.47 -0.26,-0.33 1.46,-2.78 0.31,-1.6 -0.62,-1.99 1.28,-0.66 2.62,3.17 1.2,-0.69 0.33,-2.53 4.63,-6.17 0.61,-1.87 0.59,-1.02 0.65,-0.21 0.79,0.59 0.86,0.12 1.93,-1.17 2.36,2.38 1.63,-0.55 11.73,-10.13 3.82,-0.44 9.94,-9.29 0.75,-0.23 3.99,1.22 1.69,-1.11 h 2.8 l 4.62,-4.46 1.37,-0.47 1.32,-1.05 2.99,-6.57 0.34,-1.36 -0.24,-1.54 -0.68,-0.65 -1.38,-0.6 2.17,-1.07 1.08,-0.03 0.91,2.04 -0.45,2.24 0.46,0.77 0.8,0.16 0.57,0.46 0.31,1.55 -0.03,1.13 -0.23,1.22 -0.28,1.83 1.75,-0.78 3.19,-3.75 5.91,-3.57 1.61,-2.62 0.81,-0.59 6.96,-0.49 9.74,-5.89 9.74,-5.92 4.72,0.9 1.64,-0.72 1.55,-1.54 3.11,-4.89 16.19,-7.43 16.19,-7.47 1.71,-1.64 2.11,-3.15 4.65,-0.33 3.12,-3.47 2.77,-1.71 2.74,-3.39 4.03,-0.35 5.86,-4.56 5.6,-1.3 7.39,-8.8 5.87,-4.58 2.07,0.23 10.45,-8.53 12.64,-3.24 1.34,-1.85 -0.88,-1.29 -3.01,-0.65 -1.16,-0.94 0.13,-1.17 0.86,-1.09 4.6,-2.77 1.61,-2.46 1.54,-4.23 -0.55,-0.13 -0.39,-0.48 -0.1,-0.89 0.36,-1.44 0.68,-0.9 h 2.56 l 1.22,-0.84 2.48,-3.44 4.18,-8.23 5.21,-6.07 1.22,-2.26 -1.15,-1.56 -3.92,-1.41 1.73,-5.5 0.16,-1.07 0.22,-2.49 0.16,-0.96 1.3,-3.17 4.72,-4.82 -1.06,-0.67 -2.42,-0.4 -0.93,-1.94 -0.32,-2.31 0.21,-1.85 1.05,-3.86 -1.11,-1.7 -3.77,-2.08 -0.9,-2.15 0.11,-2.21 0.69,-2.12 0.86,-1.84 -0.87,-1.31 -1.06,-0.25 -2.05,0.45 -0.57,-0.54 -1.61,-2.84 -1.09,-3.22 -0.8,-0.67 -2.73,-0.11 -0.35,-0.81 0.31,-1.3 0.88,-1.77 -1.7,-2.15 -5.68,1.13 -4.56,-1.26 -4.18,-4.62 -15.03,-2.23 -3.7,1.39 -2.66,2.7 -1.8,0.08 -4.53,4.96 -9,0.5 -0.85,0.64 -1.31,3.21 -7.59,3.33 -0.41,0.54 -0.17,0.61 -0.24,1.7 -0.24,0.73 -1.73,1.78 -3.68,0.6 -1.76,1.67 -0.48,0.96 -0.26,0.9 -0.53,2.73 -0.68,1.85 -0.8,0.69 -1.65,-0.08 -1.48,1.01 -2.82,4.69 -1.45,1.42 -5.51,0.5 -1.87,1.51 -2.2,4.39 -1.4,1.12 -0.7,1.23 -0.26,1.55 0.62,1.45 2.72,3.01 1.19,2.26 1.07,3.45 0.23,1.59 0.2,1.82 0.31,1.51 0.53,0.62 0.64,0.35 0.7,0.91 0.67,1.27 0.53,1.43 -1.15,2.06 h -0.25 l -12.81,-6.82 -4.24,0.8 -2.75,2.37 -0.7,1.59 -0.97,3.71 -0.5,1.27 -3.79,3 -1.93,2.45 -1.12,0.84 -1.13,-0.01 -0.97,-1.32 -0.17,-2.29 -1.24,-0.93 -1.51,-0.02 -5.4,2.45 -1.35,1.77 0.25,0.7 0.44,2.25 -2.04,0.21 -0.87,0.7 -1.02,2.04 -0.67,1.75 -0.5,1.83 -0.03,1.76 0.74,1.49 -1.67,1.18 -3.46,-3.75 -1.63,0.35 -0.31,0.98 -0.53,2.94 -0.48,1.15 -0.98,0.6 -3.16,-0.6 -1.72,1.2 -3.28,4.33 -2.48,1.65 -0.96,0.12 -0.94,-0.46 -0.67,-1.45 -0.91,-3.23 -0.54,-1.4 -0.52,-0.76 -0.77,0.13 -2.47,2.97 -4.73,-1.17 -0.83,0.35 -0.81,0.83 -0.76,1.36 -0.93,1.13 -2.08,0.27 -0.98,0.75 -1.55,3.55 -0.7,0.7 -8.15,3.43 -1.69,2.72 -7.19,5.17 -1.86,-1.64 0.67,-1.85 h -2.53 l 0.2,-0.4 0.5,-1.62 -0.79,-2.27 -1.05,-1.14 -1.11,-0.1 -3.58,4.03 -0.85,1.5 0.11,3.09 -0.86,0.34 -1.8,-1.58 -0.43,-0.14 -0.16,0.07 -0.56,1.46 -0.79,1.62 -0.26,1.07 -0.1,1.69 -1.17,-0.94 -1.45,-0.47 -1.24,-1.33 -0.53,-3.52 0.24,-1.39 0.49,-1.32 0.38,-1.42 -0.08,-1.72 -0.72,-1.11 -9.72,2.52 -3.89,-1.42 -1.71,-4.83 -0.81,0.61 -4.94,-0.17 -0.31,-0.29 -0.97,-2.14 -0.47,-0.45 -0.99,-0.08 -1.29,0.45 -0.56,1.02 -0.52,1.29 -0.67,1.26 -0.84,0.46 -2.62,-1.52 -10.14,2.03 -3.5,0.01 -1.12,0.95 -0.91,1.62 -0.7,2.19 -0.08,2.21 1,1.73 -0.95,2.65 -2.21,3.5 -1,2.5 0.68,1.84 0.93,0.49 5.78,-1.48 0.93,1.08 0.25,2.02 -0.29,1.82 -1.11,2.87 -0.92,1.56 -4.08,2.61 -2.24,-0.46 -2.67,1.26 -0.47,0.84 -0.26,0.95 -0.26,2.04 -0.17,0.82 -1.65,2.99 -2.19,1.29 -2.23,-0.37 -1.81,-2 0.25,-1.05 -0.72,-0.01 -2.27,1.06 0.44,-1.94 9.64,-10.87 0.87,-0.22 0.83,-0.6 0.68,-1.73 -9.6,0.9 -9.6,0.91 -6.21,5.65 -1.38,2.18 0.66,1.63 0.75,0.85 7.21,1.04 0.92,0.75 0.64,0.92 0.09,1.57 -0.86,1.03 -9.23,0.78 -1.64,0.89 -3.26,3.91 -2.58,1.34 -1.71,2.01 -0.88,0.46 -11.79,-0.95 -0.3,0.2 -0.8,1.09 -0.27,0.61 -0.11,0.81 -0.02,1.02 0.05,0.82 0.08,0.18 -0.82,1.6 -0.93,0.54 -1.92,-0.16 -0.69,0.32 -3.08,2.93 -6.94,-0.31 -6.09,4.77 -0.78,1.92 0.02,2.06 -0.13,1.63 -3.83,1.38 -1.23,1.14 -1.25,1.89 1.92,2.44 0.38,1.3 -4.87,0.7 -1.99,2.43 -3.17,0.99 -1.59,1.3 -8.08,1.57 -1.34,1.28 -1.18,2.32 -0.63,3.52 0.96,0.66 6.49,-0.65 1.11,1.3 0.53,2.18 -0.3,1.95 -0.74,1.41 -0.77,0.54 -2.99,-0.4 -16.48,7.78 -2.11,2.75 1.07,2.76 0.37,1.55 -0.04,2.1 1.1,1.06 1.13,-0.06 1.07,0.62 0.88,3.03 0.06,0.85 0.13,4.18 0.27,0.91 1.33,1.92 0.47,0.35 -0.13,0.4 -0.22,1 -0.11,0.42 0.53,1.43 0.18,0.39 -6.23,-0.84 -2.83,-2.57 -1.25,-0.45 -0.48,-0.74 0.17,-1.77 -9.33,-0.45 -2.49,-2.27 -0.96,-0.28 -7.07,5.73 -2.63,4.89 -0.83,2.9 0.92,1.27 2.94,-0.27 1.49,1.14 0.64,3.24 -0.14,2.09 -0.36,1.35 -0.52,0.88 -3.02,3.35 -6.02,11.95 -2.76,3.73 -2.85,1.45 0.86,-2.68 -0.6,-4.08 -2.36,-7.79 -0.16,-0.77 -0.25,-0.53 -0.5,-0.34 -0.64,0.14 -1.68,2.56 -2.51,2.32 -1.32,0.31 -1.23,-0.85 0.78,-1.48 1.9,-1.64 0.57,-2.26 -1.12,1.11 -1.46,0.44 -1.45,-0.33 -1.07,-1.22 0.18,-0.39 0.35,-1.01 0.18,-0.4 -1.08,-1.02 -1.12,0.18 -4.03,2.64 -0.4,0.95 -0.81,2.71 -0.4,0.84 -0.53,0.2 -1.05,-0.04 -0.51,0.72 -0.18,0.8 -0.11,1.96 -0.17,0.91 -0.36,0.78 -0.86,1.11 -0.39,0.8 -0.13,0.82 -0.04,1.01 -0.14,0.96 -0.38,0.71 0.72,0.79 2.98,-1.61 h 2.29 l 0.39,0.27 0.64,1.19 0.38,0.33 -1.86,5.43 0.1,1.39 -0.97,2.36 0.17,0.86 1.12,0.75 5.46,-0.74 3.85,-3.11 5.39,-0.55 1.93,-1.49 0.78,-0.1 0.76,0.6 0.78,1.32 0.01,1.27 -0.84,1.09 -1.77,1.42 -2.4,3.33 -0.77,0.39 h 2.99 l -0.89,3.11 0.31,0.1 1.48,-1.8 0.73,-0.52 2.77,1.27 0.89,-0.55 1.62,-1.74 1.63,-0.83 0.61,0.56 0.57,1.25 0.2,1.25 -0.46,0.56 -1.64,-0.15 -0.72,0.36 -1.74,2.31 -11.08,5.09 -11.07,5.07 -1.66,1.95 -0.67,1.78 0.04,1.27 0.53,0.94 1.71,1.6 1.83,0.88 8.89,-1.19 8.89,-1.2 1.18,0.74 -2.55,4.02 -0.28,1.16 0.43,0.58 0.71,0.08 1.25,-0.78 0.74,0.25 0.72,0.75 0.59,1.02 0.5,1.44 0.76,2.73 0.56,1.06 0.8,0.48 2.66,-0.48 1.63,0.64 0.83,-0.15 2.02,-2.04 1.83,-0.41 1.74,0.68 0.96,2.15 z"
         id="path938"
         style="fill:#000000;fill-opacity:1" />
    </g>
  </g>
</svg>
