<?xml version="1.0" encoding="UTF-8" standalone="no"?>
<svg
   xmlns:dc="http://purl.org/dc/elements/1.1/"
   xmlns:cc="http://creativecommons.org/ns#"
   xmlns:rdf="http://www.w3.org/1999/02/22-rdf-syntax-ns#"
   xmlns:svg="http://www.w3.org/2000/svg"
   xmlns="http://www.w3.org/2000/svg"
   xmlns:sodipodi="http://sodipodi.sourceforge.net/DTD/sodipodi-0.dtd"
   xmlns:inkscape="http://www.inkscape.org/namespaces/inkscape"
   version="1.1"
   width="1360"
   height="1360"
   viewBox="0 0 1360 1360"
   id="svg224"
   sodipodi:docname="Prince_of_Wales_Island.svg"
   inkscape:version="1.0.1 (3bc2e813f5, 2020-09-07)">
  <metadata
     id="metadata230">
    <rdf:RDF>
      <cc:Work
         rdf:about="">
        <dc:format>image/svg+xml</dc:format>
        <dc:type
           rdf:resource="http://purl.org/dc/dcmitype/StillImage" />
        <dc:title></dc:title>
      </cc:Work>
    </rdf:RDF>
  </metadata>
  <defs
     id="defs228" />
  <sodipodi:namedview
     pagecolor="#ffffff"
     bordercolor="#666666"
     borderopacity="1"
     objecttolerance="10"
     gridtolerance="10"
     guidetolerance="10"
     inkscape:pageopacity="0"
     inkscape:pageshadow="2"
     inkscape:window-width="1920"
     inkscape:window-height="974"
     id="namedview226"
     showgrid="false"
     inkscape:zoom="0.45192403"
     inkscape:cx="-179.49344"
     inkscape:cy="1189.377"
     inkscape:window-x="-11"
     inkscape:window-y="-11"
     inkscape:window-maximized="1"
     inkscape:current-layer="g894"
     inkscape:document-rotation="0" />
  <g
     id="g222"
     style="fill:#000000;fill-opacity:1"
     transform="translate(79.9836,279.99941)">
    <g
       stroke="#000000"
       stroke-width="0.98"
       fill="#ffffff"
       id="g220"
       style="fill:#000000;fill-opacity:1">
      <g
         stroke="#000000"
         stroke-width="0.98"
         fill="#ffffff"
         id="g894"
         transform="matrix(1.5937507,0,0,1.5937507,-1795.3679,336.61977)"
         style="fill:#000000;fill-opacity:1">
        <path
           d="m 1800.1865,100.05186 -0.2131,-5.754703 -1.0657,-3.83647 -2.5576,-6.18098 -0.4263,-2.34451 -0.4263,-2.34451 -0.6394,-2.13138 -1.0657,-1.49196 h -0.8525 l -2.5577,1.7051 -1.0657,0.42628 0.6394,-2.98393 1.7051,-2.98392 0.8526,-2.55765 -2.1314,-3.41019 -1.9182,-5.96785 -0.8526,-7.24666 0.4263,-7.03353 -11.0831,-14.49334 -1.492,-2.55764 1.7051,-2.34451 3.6233,-3.4102 1.7051,-2.77078 -0.8525,-1.7051 -0.6394,-2.98392 -0.8526,-3.83648 h -7.2466 l 1.9182,1.7051 -0.6394,2.77079 -3.1971,5.32843 -2.1313,1.91823 -4.6891,-0.21313 -20.4611,12.14882 -12.7883,19.18236 -3.4102,1.91823 -4.9021,0.21314 -3.1971,-2.34451 1.492,-6.18098 -0.8526,-1.91824 -0.4263,-0.42627 0.4263,-0.42628 1.0657,-1.27882 0.4263,-0.21314 -0.4263,-1.49196 -0.8525,-4.90216 5.3284,-6.60725 1.2788,-2.98392 7.673,-7.67294 0.4262,-1.49197 -0.8525,-3.83647 -3.8365,-11.0831298 -1.2788,-1.7051 -1.7051,-1.06569 -3.8365,1.27882 -1.2788,-1.06568 -0.6394,-5.32843 -0.6394,-2.77079 -2.7708,-7.0335302 -1.0657,-2.13137 -4.2627,-4.47588 -14.2802,-1.91824 v -2.13137 l 11.9356,-2.34451 1.492,-1.27883 1.0657,-2.98392 1.4919,-8.73862 -0.6394,-3.62334 0.2132,-2.34451 1.0657,-1.06568 1.2788,0.63941 -2.7708,-8.09922 -37.5122,-23.65824 -16.1984,-1.49196 -3.6233,-2.13137 -10.2306,1.27882 -2.5577,1.49196 -3.8364,4.04961 -1.9183,0.63941 -1.4919,-2.55764 -3.1971,6.18098 -8.9518,6.60725 -4.2627,4.68902 -4.2627,10.65687 -6.3942,10.01745 -1.0656,2.34451 -0.8526,2.55765 -0.4263,3.41019 -0.2131,4.47588 -0.6394,3.19706 -1.2788,-0.63941 -1.2789,-2.98392 -0.6394,-3.83647 v -8.52549 l 0.2132,-3.62333 1.0656,-2.98393 0.6395,-3.19706 -1.0657,-2.98392 -2.7708,-3.62333 2.3445,-4.90216 0.2131,-1.7051 -0.8525,-3.41019 -1.9183,-1.91824 -3.6233,-0.85255 1.9182,-4.26274 7.673,-5.96785 5.7547,-2.13137 10.87,-14.2802 3.8365,-9.164897 29.8392,-38.15157 0.8525,-1.91824 0.4263,-2.55764 v -2.77079 l 0.4263,-2.13137 1.9182,-4.04961 8.9518,-9.1649 4.9021,-0.85255 1.9183,-1.06569 -0.6394,-2.55764 h 7.0335 l 27.2816,-14.91961 2.7708,-0.21314 3.8364,5.32843 2.7708,-0.21314 1.9182,-2.55764 -0.4262,-4.90216 1.0657,-3.83647 0.6394,-1.49196 0.8525,-1.27883 -1.2788,-3.62333 -0.6394,-0.85255 h 0.6394 l -1.9182,-4.04961 -4.2628,-2.13137 -2.1314,-2.77078 6.181,-2.55765 2.1314,-1.91824 -1.7051,-7.24666 -3.4102,-1.7051 -11.9357,2.55765 -2.7708,-1.27883 -2.5576,-3.62333 0.8525,-2.13137 -4.4759,-3.83647 -4.9021,4.47588 -4.9022,6.82039 -4.4759,3.62333 -1.4919,-0.21313 -1.492,-0.85255 -1.4919,-1.7051 -1.2789,-2.77078 -0.6394,-2.55765 v -1.49196 l 0.4263,-1.27883 0.6394,-2.55764 0.8526,-3.19706 1.0656,-2.55765 0.4263,-3.19706 -1.2788,-4.47588 4.9022,-1.06569 10.0174,7.03353 4.9022,-3.62333 -0.6394,-3.62334 -1.7051,-6.82039 -0.2132,-4.26274 0.8526,-2.55765 2.3445,0.21314 13.6408,9.80431 5.3284,-0.42627 3.8365,-5.96785 0.6394,-4.90215 16.4115,-12.14883 2.3446,-4.90216 -0.4263,-7.24666 3.197,-7.88608 v -2.55765 l -0.6394,-6.39412 -1.0657,-7.67294 -2.5576,-3.83647 -5.3284,-3.4102 -2.5577,-3.83647 -8.5255,-21.31373 -2.9839,-4.26274 -6.181,-4.47589 -18.5429,-1.27882 -10.2306,-9.59118 -3.8365,-0.63941 -8.0992,4.47588 -6.3941,6.39412 -3.1971,1.27883 -2.9839,-2.98393 2.1314,-4.26274 5.1153,-5.54157 2.3445,-3.83647 -3.8365,-3.4102 -12.1488,5.75471 h 0.6394 l -2.9839,5.32843 -1.9183,6.82039 -2.3445,5.75471 -6.3941,3.62333 -4.689,6.39412 -40.7092,7.88608 -6.181,4.68902 -7.0335,0.85255 -0.8526,1.7051 h -0.2131 l -2.5577,0.42628 -2.7708,2.13137 -2.5576,3.62333 -1.2788,5.32843 h -0.6394 l -4.0496,-7.88608 -7.0336,-0.85254 -12.7882,4.26274 -4.689,-1.06569 -2.3445,0.85255 -1.7051,3.4102 -0.8526,5.32843 -0.2131,5.54157 -0.4263,4.47588 -1.492,1.49196 -1.0656,0.21314 -3.4102,-2.13137 h -1.9183 l 1.0657,-2.55765 1.2788,-2.34451 1.2789,-2.55765 0.2131,-4.0496 -1.0657,-2.77079 -12.5751,-12.36196 -3.6233,-7.45981 -1.492,-0.21313 -1.7051,0.85255 -1.7051,-0.63942 -1.7051,-2.77078 -2.7708,-6.39412 -1.9182,-2.34451 -17.2641,-4.47588 -2.5577,-1.91824 -2.5576,-6.18098 -1.492,-1.7051 -1.4919,2.98392 -1.0657,-3.41019 -2.7708,-6.18098 -0.6394,-1.7051 0.4263,-3.83647 0.8525,-2.98392 1.2788,-2.55765 0.6394,-2.34451 -18.3298,-4.26275 -2.1313,1.49197 -6.3942,0.63941 -2.1313,1.06568 -3.6234,4.68902 -5.5415,2.13138 -3.1971,3.62333 -2.7708,6.39412 -2.1313,9.59117 h 2.5576 l 1.2788,0.42628 1.2788,1.49196 -0.6394,1.06569 -0.2131,1.06568 -0.2131,1.06569 -0.2132,1.49196 16.1985,3.19706 5.3284,-3.19706 6.8204,-12.78824 3.8365,-2.98392 3.197,6.82039 -0.8525,-9.1649 0.4262,-0.21314 2.1314,0.21314 1.2788,2.34451 v 5.32843 l -0.6394,5.75471 -0.6394,3.62333 -1.9182,3.4102 -5.7547,3.62333 -2.3445,2.98393 v 1.27882 1.49196 1.7051 l -0.4263,1.49196 -0.4263,0.63941 -0.8525,0.85255 -1.2789,2.98392 -1.7051,3.19706 -0.8525,2.55765 1.2788,3.62333 v 3.62334 l -0.8525,1.91823 -1.7051,-2.34451 -1.2789,-2.98392 -0.4262,-2.13137 -0.2132,-2.77079 -0.6394,-1.49196 -9.5912,-8.95176 -11.9356,-3.19706 -10.4438,-11.29628 -20.8874,-3.4102 -2.9839,2.13138 -2.3446,5.7547 -2.3445,4.26275 -3.197,1.06569 -6.181,-1.91824 h 0.6394 l -4.2627,-3.83647 -2.1314,-0.21314 v 5.96785 l -7.4598,0.63941 -3.4102,3.41019 -2.3445,7.67295 1.0657,1.7051 1.0656,0.63941 2.3446,-0.21314 -2.7708,6.18098 -7.673,3.83647 -2.3445,5.96785 h 1.492 l 3.6233,-2.34451 1.0657,0.85255 2.1314,3.19705 1.2788,0.63942 v 2.34451 l -2.7708,0.63941 -1.0657,4.04961 0.8526,4.47588 2.9839,1.91823 h 7.2467 l 5.5415,2.55765 h 1.9183 l -0.6394,5.1153 -1.2789,3.41019 -1.4919,1.91824 -1.7051,0.63941 1.0657,3.19706 2.3445,2.13137 4.9021,1.27882 1.9183,0.85255 1.9182,1.7051 1.9182,0.63941 1.492,-1.91823 1.2788,-2.77079 1.7051,-1.49196 1.9183,-0.21313 1.2788,2.13137 2.7708,5.7547 2.9839,1.06569 6.181,-1.06569 -0.4263,3.83648 0.4263,1.91823 0.4262,1.7051 v 3.62333 l -0.4262,2.55765 -2.1314,5.54157 -1.0657,1.91823 -1.9182,5.96785 v 6.18098 l 1.2788,4.90216 10.0174,8.31235 4.0497,6.18098 1.7051,6.60726 -1.9183,3.62333 -3.8365,-1.27882 -3.4102,-3.62334 -0.2131,-4.26274 -3.4102,-5.75471 -8.9517,-2.55765 -3.6234,-5.11529 -0.6394,-2.55765 -1.2788,-6.18098 -0.6394,-2.55765 -4.4759,-11.08313 -5.3284,-4.68902 -1.7051,-2.13138 -3.6234,-8.95176 -1.2788,-2.13138 -1.9182,-0.85254 -5.5416,2.98392 -23.232,-3.83647 -2.3445,4.90215 -1.2788,10.01746 -3.1971,2.55764 -7.0335,-2.34451 -3.6233,0.85255 -1.7051,1.27883 -1.7051,1.70509 -1.492,2.34451 -4.689,10.87 -0.2131,2.13138 -0.6394,1.7051 -1.7051,1.49196 -1.9183,-0.21314 -3.197,-1.49196 -1.9183,1.7051 4.0496,4.0496 1.9183,3.4102 1.0657,3.62333 -1.0657,-1.06568 -0.6394,-0.42628 -0.6395,0.42628 -0.8525,1.06568 1.9182,2.55765 7.2467,1.91824 1.2788,1.27882 2.3445,6.39412 1.492,1.27882 7.4598,1.06569 3.1971,3.83647 -0.2132,8.52549 2.5577,4.68902 20.6743,11.29628 3.4102,-0.42628 v 1.91824 l -1.2788,2.98392 1.0656,2.77078 5.3285,6.60726 10.87,6.18098 18.3298,-5.96784 16.8378,-13.64079 13.0014,-0.85255 -1.0657,-1.7051 -2.5576,-2.55764 -1.0657,-0.42628 -0.2132,-1.06569 -1.4919,-7.67294 0.8525,-0.85255 1.7051,-3.62333 -1.2788,-4.26275 0.8525,-1.70509 1.9183,0.21313 1.7051,1.49196 4.9021,7.45981 2.7708,6.18098 5.1153,6.18098 0.8526,2.34451 2.3445,7.67294 1.0657,3.19706 6.3941,8.73863 3.4102,6.60726 5.1153,2.98392 6.8204,7.03353 9.8043,-1.27883 4.689,2.13138 -3.8365,5.11529 -17.051,1.49196 -4.0496,-1.06568 -9.378,-9.59118 1.492,-3.83647 1.7051,-2.77079 -7.0336,1.91824 -1.7051,-0.63941 -1.2788,-1.91824 -2.7708,-6.18098 -2.7708,-4.90216 -1.9182,-1.49196 -1.492,0.42628 -2.9839,3.41019 -1.4919,-0.21313 -0.6395,-3.83648 1.2789,-2.13137 -2.7708,0.63941 -4.2628,7.67295 -2.5576,2.77078 0.2131,1.27882 0.2132,2.13138 0.2131,1.06568 -2.3445,1.91824 -7.6729,2.13137 v 2.55765 l 1.9182,-0.21314 2.3445,1.49196 2.1314,2.34451 1.7051,2.98392 -3.6234,2.13138 -1.4919,1.49196 0.2131,2.77078 h -4.0496 l -1.0657,1.27882 -1.0657,2.13138 -1.0657,5.32843 -1.0656,2.34451 5.9678,5.54157 2.5576,4.68902 -1.0656,7.246667 4.2627,2.13137 2.3445,0.21314 1.0657,-1.27883 0.6394,-3.83647 1.492,-1.918227 1.4919,-1.06569 4.0496,-7.03353 4.6891,-2.55765 h 4.4758 l 3.4102,2.34451 -1.4919,1.7051 -3.1971,0.63941 -1.4919,1.7051 3.197,2.34451 -1.4919,1.49196 -2.984,1.06569 -1.2788,1.705097 3.1971,2.77078 7.4598,-1.91824 3.197,5.96785 -2.7707,3.41019 -2.3446,5.1153 2.3446,2.13137 4.689,-2.13137 1.9182,2.13137 -1.2788,3.19706 -0.6394,1.06569 h 3.8364 l -1.0656,2.77078 -0.4263,2.77079 0.4263,2.55764 1.0656,2.77079 -3.6233,-2.13137 -1.7051,0.42627 -1.0657,4.04961 12.1489,8.52549 -0.2132,2.34451 -0.2131,0.85255 -0.2132,1.27882 1.9183,1.91824 v 2.34451 l -3.1971,1.27882 -0.6394,0.85255 -1.0657,3.4102 0.2132,0.85255 0.6394,0.63941 0.2131,1.70509 0.2131,-0.21313 0.6395,0.85255 0.2131,1.70509 0.2131,1.91824 -0.8525,2.13137 -1.2788,0.21314 -4.4759,-2.77078 -6.181,4.90215 -9.5912,1.91824 -1.0657,-0.85255 -1.0657,-2.13137 -0.4262,-3.4102 0.2131,-4.26275 1.7051,-3.19705 4.2627,-1.27883 1.0657,-3.19706 -1.2788,-8.52549 -2.3445,-0.63941 -1.2788,3.62333 2.3445,4.47589 -2.7708,-0.42628 -2.9839,-1.7051 -2.7708,-2.55764 -2.3445,-4.04961 -1.7051,-4.47588 0.2131,-2.98393 2.9839,-6.82039 0.2132,-0.21314 -0.2132,-0.21313 -0.6394,-0.21314 -0.2131,-0.42627 -0.4263,-0.63942 -0.8525,-1.49196 v 0 l 1.0657,1.27883 0.2131,0.42627 0.4263,0.42628 0.2131,0.21313 h 0.2131 0.2132 l 0.2131,0.21314 v 0 l 1.7051,-0.21314 1.9183,-1.27882 1.4919,-2.13137 1.2788,-3.19706 -0.8525,-2.13138 -1.0657,-2.13137 -1.0657,-1.49196 -0.8525,-0.63941 -1.0657,0.85255 -0.4263,1.27882 -0.2131,1.27883 -0.6394,1.70509 -0.2132,1.49196 -0.4263,1.27883 -0.8525,0.63941 v -0.63941 l -1.9182,-3.62334 h -0.6394 l 1.2788,2.13138 -1.492,-1.06569 -1.2788,0.63941 -2.9839,4.68902 0.6394,1.06569 0.8525,2.55765 0.4263,1.06568 -5.1153,12.78824 1.7051,3.19706 6.181,-0.63941 2.3445,1.91823 -3.8365,5.54157 -1.2788,3.19706 4.689,6.18098 0.4263,3.4102 -2.5576,5.32843 1.7051,2.77078 4.2627,1.7051 2.1314,3.19706 0.2131,2.55765 1.2788,11.2962702 -1.2788,5.96785001 -1.7051,3.41018999 -4.0496,4.47589 -2.3445,4.9021498 -1.2788,1.91824 -1.492,0.63941 -0.8525,-0.42627 -0.8526,-1.06569 -0.8525,-1.27882 -0.6395,-1.49197 -0.6394,2.34451 -0.2131,-1.70509 -0.4263,-0.85255 h -0.6394 -0.6394 l -7.4598,-1.9182398 -15.3459,2.5576498 -7.0335,-2.5576498 h 1.2788 l -0.8525,-1.06568 -0.8526,-0.63942 -0.8525,0.21314 -1.0657,1.49196 0.2131,2.5576498 -0.2131,1.06569 -0.4263,0.42627 -1.0657,0.42627 v 1.91824 l 4.4759,2.77078 1.2788,1.49197 -2.5576,5.11529 -3.4102,3.62333 -3.4102,1.91824 -3.1971,0.21314 -1.7051,-1.27883 -1.7051,-1.91823 -1.9182,-1.27883 -1.7051,1.27883 -1.7051,2.13137 -1.2788,0.63941 -1.7051,-0.63941 -5.7547,-5.75471 -14.9196,-2.13137 -3.4102,-2.13137 -6.181,-7.88608 -1.2788,-0.42628 4.2627,-2.1313698 1.0657,0.8525498 1.4919,2.77079 0.8526,0.85254 1.9182,-1.06568 0.8526,-2.55765 0.8525,-3.4101998 1.492,-3.83647 -1.9182,-3.83646999 -1.9183,-2.98392001 -2.1314,-1.7051 h -2.3445 l 0.8526,2.13138 2.1314,2.34451001 0.8525,1.91822999 -2.7708,2.34451 -4.0496,-1.49196 -3.8365,-3.62333 -2.7707,-3.62334 1.2788,-3.62333 -0.8526,-4.0496102 -2.7708,-7.03353 -2.5576,-8.73863 -1.2788,-2.34451 -4.4759,-4.04961 -1.2788,-2.34451 1.0657,-2.13137 1.2788,-1.49196 1.2788,-0.63941 h 1.492 l -2.3445,-1.7051 -2.7708,1.7051 -1.9183,3.19706 0.6394,3.19706 -1.4919,2.98392 -2.7708,-2.55765 -2.9839,-4.47588 -4.4759,-4.04961 -7.2467,-13.64078 1.492,-1.91824 5.9678,1.91824 -0.8525,-3.19706 -1.2788,-1.27883 h -2.7708 l 0.8525,-2.34451 0.6394,-2.77078 0.4263,-3.19706 0.4263,-2.55765 -0.8526,-1.7051 -1.0656,0.21314 -1.7051,1.49196 -1.9183,0.42628 -1.9182,-0.42628 -2.1314,-1.06568 -1.7051,-2.13138 -1.2788,-3.62333 -0.6394,-6.18098 -3.1971,2.13137 h -2.1314 l -1.7051,-4.04961 2.3446,-5.54157 0.8525,-1.06568 v -2.13137 l -9.1649,4.26274 -3.1971,-2.55765 -2.9839,-0.21313 -8.5255,3.19706 -7.2466,-2.55765 1.2788,4.47588 -2.5577,2.34451 -5.9678,-1.49196 -2.7708,1.27882 0.8526,1.27883 2.7707,0.63941 -3.6233,4.04961 -8.5255,1.91823 -3.4102,5.96785 -0.8525,2.55764 -2.5577,3.83647 -1.0657,2.34451 -0.6394,3.19706 -1.0657,6.60726 -0.8525,3.4102 v 1.70509 3.62334 4.04961 l -0.4263,3.62333 -6.3941,16.19843 -5.7547,8.95177 -2.1314,6.1809802 0.4263,2.13137 -0.2131,2.34451 -0.2132,2.77078001 V 3.2875372 l 0.4263,4.68902 0.6394,1.27883 1.0657,0.42627 1.492,2.1313698 -1.0657,3.83648 -0.6394,1.70509 -0.6395,1.06569 1.2789,3.83647 3.6233,4.04961 2.9839,7.4598 3.8365,6.18098 18.7561,18.96922 0.2131,0.85255 0.2132,1.91824 0.6394,2.13137 0.8525,1.49196 1.0657,0.63941 3.6233,-0.63941 7.2467,7.4598 0.6394,2.34451 1.2788,1.06569 2.5577,-0.21314 0.8525,0.63941 0.4263,1.27883 0.2131,1.27882 0.4263,0.85255 2.7708,0.85255 0.8526,-0.42627 -1.2789,-2.34451 2.7708,-0.85255 6.8204,8.95176 2.9839,2.34451 2.9839,0.63941 3.1971,1.7051 2.9839,3.19706 2.5577,4.90216 h -5.1153 l 0.8525,3.836473 2.984,6.82039 1.2788,4.04961 -0.4263,1.06569 -0.4263,2.34451 -0.4262,1.06568 7.4598,-1.91823 4.2627,0.63941 1.492,5.11529 -1.2789,0.63942 -7.0335,-1.91824 -2.3445,1.27882 1.492,1.7051 0.4262,2.77079 -0.6394,2.55764 -1.2788,1.7051 h 0.6394 l -0.6394,0.21314 -0.2131,0.42627 0.2131,1.27883 1.2788,0.85255 0.8526,2.13137 0.6394,2.77078 0.8525,2.77079 1.2789,1.91823 5.3284,5.32843 1.0657,0.63942 2.5576,0.42627 1.0657,-0.63941 0.6394,-1.06569 h 0.6394 l 0.8526,1.7051 -0.6394,1.91824 1.7051,2.13137 2.1313,-1.49196 1.9183,-2.98392 1.9182,-1.7051 2.7708,0.42627 6.8204,4.47589 2.5576,3.41019 h -0.8525 l 3.4102,3.83647 0.4263,1.49196 -0.2132,2.77079 -0.4263,1.7051 -0.8525,0.63941 h -0.8526 l 1.9183,2.13137 2.3445,0.42628 2.3445,-0.85255 2.1314,-1.7051 -0.2132,-8.73863 4.2628,-7.88608 5.7547,-5.96784 5.9678,-3.19706 1.2789,0.21314 1.4919,1.49196 2.9839,7.4598 2.984,2.98392 6.3941,2.13138 2.7708,3.19705 -1.0657,0.42628 -1.2788,0.85255 -2.1314,2.98392 1.4919,2.13137 2.7708,-0.63941 1.492,0.63941 v 1.91824 l -0.8526,0.63941 -2.3445,3.62333 1.0657,2.55765 1.0657,2.55765 0.4263,2.55765 v 2.55764 l 4.4759,7.24667 1.2788,1.06569 1.4919,-0.85255 1.0657,-2.13138 0.8526,-1.70509 1.7051,0.42627 -0.8526,-2.98392 -0.4262,-1.06569 2.7707,-1.91823 h 0.8526 l 0.6394,0.63941 1.0657,2.77078 0.6394,0.63942 1.9182,-1.06569 1.9183,-2.13137 1.9182,-1.49196 15.1327,7.67294 1.0657,5.32843 1.7051,0.21314 1.492,2.13137 1.0657,3.19706 1.4919,2.77078 1.492,1.49196 5.3284,2.55765 -1.7051,1.91824 -0.6394,0.21313 1.492,7.24667 2.3445,0.42628 2.5576,-1.49197 2.3446,1.91824 -0.4263,3.19706 -0.2132,2.98392 -0.4262,2.55765 -1.492,1.7051 4.9022,5.11529 1.4919,1.06569 h -0.6394 l 2.9839,4.26274 4.2628,11.50941 2.9839,5.75471 8.0992,7.24667 4.0496,5.32843 2.3445,9.1649 1.9183,1.49196 3.6233,4.90216 2.1314,1.49196 15.7721,2.34451 1.7051,2.77079 1.7051,11.29627 0.8526,1.7051 1.0657,1.06569 2.3445,4.47588 1.2788,1.06568 1.9182,0.63942 3.8365,2.55764 1.2788,1.91824 0.8526,2.77078 1.0657,4.26275 -0.4263,-0.21314 -0.2131,1.27883 v 2.13137 l 0.2131,1.7051 1.0657,2.13137 2.1313,1.27882 0.8526,1.49196 1.2788,3.19706 0.4263,3.19706 0.4263,2.98392 0.4262,2.98393 0.6395,7.67294 3.4102,6.39412 4.4758,4.26274 11.9357,5.75471 1.2788,2.98392 -0.4262,4.26274 -0.6394,3.19706 -1.2789,1.7051 -1.4919,-0.21314 4.2627,10.65687 4.689,9.37804 -0.8525,4.68902 0.6394,3.41019 2.1314,5.96785 0.2131,2.13137 0.4263,3.83647 0.6394,1.91824 2.1314,3.62333 0.6394,1.49196 0.8525,4.26275 v 3.41019 l 0.6394,2.13138 1.9183,0.85254 8.7386,-0.85254 2.5577,-1.7051 6.6072,-8.31236 2.5577,-0.85255 2.3445,1.27883 1.9182,2.55765 11.0831,21.31372 4.0497,4.90216 4.0496,1.7051 0.8525,1.7051 h 1.2788 l 2.3445,-1.7051 -0.2131,-1.06569 -0.2131,-1.91823 -0.2132,-1.27883 3.1971,-1.91823 11.2963,1.91823 2.9839,-2.98392 6.3941,-9.37804 2.7708,-1.27882 1.0657,-1.91824 7.8861,-11.93569 9.1649,-6.39411 2.3445,-4.47589 1.7051,-4.47588 3.8364,-7.4598 2.984,-8.52549 3.6233,-7.67295 1.7051,-2.98392 -1.9182,-1.49196 -4.0497,-1.27882 -0.4262,-1.27883 -1.2789,0.63942 -1.0656,-0.21314 -0.6394,-0.85255 -0.8526,-1.49196 -0.8525,-2.34451 -1.7051,-7.67294 -1.0657,-1.06569 -2.7708,-0.21314 -1.2788,-0.85255 -2.5577,-4.90215 -1.2788,-0.85255 -1.2788,-0.21314 -0.8526,-1.06569 -0.2131,-4.0496 -0.6394,-2.98393 -1.2789,-1.49196 -2.5576,-0.42627 -2.3445,-1.27882 -1.0657,-3.62334 -0.8525,-4.47588 -1.492,-4.90216 1.7051,-1.49196 -0.4263,-1.91823 -1.7051,-1.91824 -2.9839,-1.27882 -0.8526,-1.06569 -0.8525,-0.42627 -1.9182,1.70509 h -0.4263 l -0.4263,-0.42627 -0.4263,-1.06569 1.9183,-13.00137 3.8364,-10.87 9.3781,-17.05098 h -0.6394 l 1.9182,-1.49196 3.8365,0.21313 2.1313,-0.63941 -0.6394,-3.19706 -2.7707,-7.03353 3.8364,-1.91823 -0.2131,1.06568 v 0.21314 l -0.2132,0.21314 v 0.42627 l 1.2789,1.91824 h 1.4919 l 1.2789,0.42627 0.2131,3.83647 -0.6394,2.55765 -9.1649,18.11667 -1.7051,6.39412 -1.0657,13.21451 -0.6394,1.7051 -0.2132,1.49196 0.8526,3.41019 1.2788,2.98392 7.673,12.5751 2.9839,3.4102 7.0335,3.19706 h 4.0496 l 12.1488,-4.04961 1.9183,0.63941 4.0496,2.77079 13.0014,1.27882 3.8364,3.83647 1.7051,2.55765 1.7051,1.7051 20.8875,0.21313 2.1314,-0.85254 12.5751,-10.87001 8.3123,-2.77078 11.9357,-10.65686 0.4263,-4.47589 1.9182,-4.68902 4.0496,-7.03353 3.1971,-10.44372 1.7051,-4.04961 2.3445,-1.7051 6.6072,0.85255 3.1971,-1.06569 3.1971,-3.83647 2.5576,-4.26274 2.5576,-3.62334 2.984,-0.63941 2.7708,4.47589 -3.8365,1.49196 -1.7051,1.70509 -0.8526,3.83648 0.8526,4.90215 2.1314,0.63941 8.5254,-3.83647 3.1971,-3.19706 2.7708,-5.54156 6.181,-22.59256 -0.8526,-4.90215 -1.7051,-1.49196 -3.8364,0.21313 -4.9022,2.34451 -4.9022,4.47589 -4.689,2.55764 -4.4759,-3.19706 v -2.13137 l 6.181,-7.24667 3.1971,-1.49196 2.3445,-2.77078 1.2788,-0.63941 1.2788,0.63941 2.1314,2.77078 1.2788,0.63942 3.1971,-1.49197 2.3445,-4.90215 1.492,-7.67294 0.6394,-9.37804 -2.1314,-4.26275 -13.8539,7.24667 -2.7708,-0.85255 -5.1153,-4.47588 -2.5576,-0.85255 -4.2628,0.42627 -1.9182,-0.42627 -2.3445,-1.91824 31.5443,-11.08314 2.7708,-3.62333 0.8525,-4.68902 0.4263,-5.75471 -0.4263,-5.11529 -1.492,-2.98392 h 0.6395 l -1.492,-4.68902 -1.0657,-7.88608 -0.6394,-8.52549 v -5.96785 l -2.1314,1.49196 -1.7051,0.42628 -1.4919,-1.06569 -2.3445,-2.77078 4.2627,-2.34451 1.492,-1.7051 -0.4263,-2.55765 -0.6394,-1.7051 -0.6394,-1.27882 -0.8526,-0.85255 -2.3445,3.83647 -3.6233,-1.49196 -6.6073,-6.60725 -11.5094,-4.26275 -3.1971,-4.04961 h 12.5751 l 4.9022,2.77079 2.1314,-0.21314 13.4276,-11.08314 0.6394,-1.06568 0.2132,-1.27883 0.4262,-1.06568 0.8526,-0.42628 h 2.5576 l 0.8526,-0.63941 1.7051,-2.55765 1.7051,-3.19706 0.4263,-1.49196 0.4262,-1.91823 0.6395,-1.91824 0.8525,-1.49196 1.7051,-1.06569 3.6233,0.42628 1.7051,-1.06569 1.7051,-3.41019 -0.2131,-2.98393 -0.8526,-3.83647 z"
           id="path890"
           style="fill:#000000;fill-opacity:1;stroke-width:20.8875" />
      </g>
    </g>
  </g>
</svg>
