<?xml version="1.0" encoding="UTF-8" standalone="no"?>
<svg
   xmlns:dc="http://purl.org/dc/elements/1.1/"
   xmlns:cc="http://creativecommons.org/ns#"
   xmlns:rdf="http://www.w3.org/1999/02/22-rdf-syntax-ns#"
   xmlns:svg="http://www.w3.org/2000/svg"
   xmlns="http://www.w3.org/2000/svg"
   xmlns:sodipodi="http://sodipodi.sourceforge.net/DTD/sodipodi-0.dtd"
   xmlns:inkscape="http://www.inkscape.org/namespaces/inkscape"
   version="1.0"
   width="1024.000000pt"
   height="1024.000000pt"
   viewBox="0 0 1024.000000 1024.000000"
   preserveAspectRatio="xMidYMid meet"
   id="svg126"
   sodipodi:docname="Rhodos.svg"
   inkscape:version="1.0.1 (3bc2e813f5, 2020-09-07)">
  <defs
     id="defs130" />
  <sodipodi:namedview
     pagecolor="#ffffff"
     bordercolor="#666666"
     borderopacity="1"
     objecttolerance="10"
     gridtolerance="10"
     guidetolerance="10"
     inkscape:pageopacity="0"
     inkscape:pageshadow="2"
     inkscape:window-width="1920"
     inkscape:window-height="974"
     id="namedview128"
     showgrid="false"
     inkscape:zoom="0.315319"
     inkscape:cx="557.47563"
     inkscape:cy="958.17139"
     inkscape:window-x="-11"
     inkscape:window-y="-11"
     inkscape:window-maximized="1"
     inkscape:current-layer="g1103"
     inkscape:document-rotation="0" />
  <metadata
     id="metadata2">
Created by potrace 1.10, written by Peter Selinger 2001-2011
<rdf:RDF>
  <cc:Work
     rdf:about="">
    <dc:format>image/svg+xml</dc:format>
    <dc:type
       rdf:resource="http://purl.org/dc/dcmitype/StillImage" />
  </cc:Work>
</rdf:RDF>
</metadata>
  <g
     stroke="#000000"
     stroke-width="0.98"
     fill="#ffffff"
     id="g1103"
     transform="matrix(1.2902075,0,0,1.2902075,-353.12606,-59.414171)"
     style="fill:#000000;fill-opacity:1">
    <path
       d="m 956.12285,50.788401 h -0.3099 v -0.77963 h 0.6098 l 0.01,-0.75966 h -0.3099 v -0.38983 h -0.3098 v -0.38982 l -0.6198,0.0103 v -0.38983 h -0.9295 v 3.0786 h -0.3099 v 0.76966 h -0.2099 -0.1 v 0.76964 h -0.3099 v 0.38983 h -0.3098 v 0.37982 h -0.3099 v 0.38982 h -0.3098 v 0.37982 h -0.6198 v 0.38983 h -0.3098 v 0.37983 h -0.7597 -0.4697 v -0.37983 h -0.3099 v 1.53931 h -0.3099 v 0.87959 0.6597 h -0.3198 v 0.75965 h -0.2999 v 0.38983 h -0.3098 v 0.76964 h -0.3099 v 0.38983 h -0.3099 v 0.37982 h -0.3098 v 0.37983 h -0.3099 v 0.77964 h -0.3098 v 0.38982 h -0.3099 v 0.37984 l -0.3199,-0.0103 v 0.38981 h -0.2998 v 0.38983 h -0.3099 v 0.37983 h -0.3098 v 0.38981 h -0.1999 -0.1099 v 0.2299 0.14994 h -0.05 -0.5697 v 0.38983 h -0.3099 v 0.38982 l -0.3098,-0.0103 v 0.38983 h -0.6197 v 0.38981 l -0.6197,-0.0103 v 0.38983 h -0.6198 v 0.38983 l -0.3098,-0.0103 v 0.38982 h -0.2999 v 0.37982 h -0.3198 v 0.37984 h -0.3099 v 0.59972 0.17991 h -0.2499 -0.06 v 0.0401 0.33984 h -0.2999 v 0.76966 h -0.3198 v 0.77964 h -0.3099 v 0.36982 h -0.2999 v 0.38983 h -0.3098 v 0.77965 h -0.3199 v 0.75966 h -0.2998 v 1.54928 h -0.3099 v 0.37983 h -0.3098 v 0.37982 h -0.3099 v 0.38983 h -0.6197 v 0.76964 l -0.3099,-0.0103 v 1.17947 0.36982 h -0.3098 v 0.76956 h -0.3099 v 0.38983 h -0.3099 v 0.36983 h -0.3198 v 0.77963 h -0.2999 v 0.37984 h -0.3098 v 0.38983 h -0.3099 v 1.14946 h -0.3099 v 0.77965 h -0.3098 v 0.36983 l -0.6197,0.0103 v 0.37982 h -0.3099 v 0.38982 h -0.3098 v 0.37984 h -0.3099 v 1.15947 h -0.3099 v 0.37982 h -0.6197 v 0.76964 h -0.2998 v 0.37984 h -0.3099 v 1.15947 h -0.3199 v 0.37982 h -0.3098 v 0.38982 h -0.3099 v 0.38983 h -0.1799 -0.13 v 0.23989 0.52976 l -0.2998,-0.0103 v 0.05 0.33984 h -0.2299 -0.09 v 0.12002 0.26989 h -0.1699 -0.4397 v 0.37982 h -0.3099 v 0.37982 h -0.3099 v 0.38982 h -0.3098 v 0.38983 h -0.3199 v 0.38982 l -0.6097,-0.0103 v 0.38982 h -0.3099 v 0.37982 h -0.3198 v 0.77965 l -0.2999,-0.0103 v 0.38981 h -0.9295 v 0.37983 h -0.6198 v 0.38983 l -0.3098,-0.0103 v 0.38981 h -0.3099 v 0.38983 l -0.3098,-0.0103 v 0.38983 h -0.9296 v 0.38982 l -1.2395,-0.0103 v 0.3898 h -0.6197 v 0.76967 h -0.3098 v 0.37982 h -0.6197 v 0.37983 h -0.6198 v 0.39982 h -1.8491 v 0.37982 h -0.6297 v 0.379829 h -0.6098 v 0.37982 h -1.2294 v 0.38983 h -1.5593 v -0.38983 h -1.2394 v 0.38983 h -4.0282 v 0.38982 h -6.1872 v -0.38982 h -1.2394 v -0.38983 h -1.2294 v -0.37982 h -1.8592 v -0.379949 h -0.9396 l 0.01,-0.37984 h -2.179 v -0.39982 h -1.2294 v -0.37981 h -0.3099 v -0.37984 h -0.6197 v -0.37982 h -1.8591 v -0.38983 h -0.3099 v -0.38982 l -0.6197,0.0103 v -0.3898 h -1.5493 v -0.38982 l -0.6197,0.0103 v -0.38982 h -0.2999 v -0.38979 l -1.8691,0.0103 v -0.38982 h -2.7788 v 0.38982 l -0.9295,-0.0103 v 0.38982 h -0.6198 v -0.38982 h -0.3198 v 0.38982 h -0.9196 v -0.38982 h -1.8592 v 0.38982 h -1.8591 v 0.37982 h -0.6197 v 0.38983 h -1.2395 v 0.38982 l -1.2294,-0.0103 v 0.38981 h -0.9296 v 0.38982 h -1.2394 v 0.37984 h -2.169 v 0.37982 h -1.8592 v 0.37983 h -0.9295 v -0.37985 h -0.6198 v 0.37982 h -1.2394 v 0.39981 h -1.2394 v 0.37984 h -1.5493 v -0.37984 h -0.9196 v 0.37984 h -2.7887 v 0.379819 h -2.1591 v 0.37984 h -1.5592 v 0.38982 h -4.0282 v 0.38981 h -2.7887 l 0.01,-0.38981 h -0.6197 v 0.38981 h -1.8602 v 0.38983 h -2.4788 v 0.37983 h -0.9296 v 0.37982 h -0.6197 v 0.38983 h -0.3099 v 0.38982 l -0.6097,-0.0103 v 0.38981 h -0.6197 v 0.38982 l -1.5593,-0.0103 v 0.38983 h -0.6097 v 0.37982 h -0.6198 v 0.38983 h -2.7887 v 0.37983 h -0.3098 v 0.37982 h -0.2999 v 0.39982 h -0.3199 v 0.37983 h -0.9295 v 0.37982 h -0.2999 v 0.37984 h -0.3198 v 0.38981 h -0.3099 v 0.38982 h -0.3099 v 0.36983 h -1.2394 v 0.38983 h -0.6097 v 0.38982 h -1.2395 v 0.38983 h -0.6197 v 0.37982 h -0.9295 v 0.38982 h -0.9296 v 0.37982 l -0.3099,-0.0103 v 0.39981 h -0.3098 v 0.37984 h -0.3099 v 0.38983 h -2.4789 v 0.37981 h -0.6197 v 0.37984 h -0.3099 v 0.38981 h -2.4788 v 0.77965 l -0.2999,-0.0103 v 0.38983 l -1.8591,-0.0103 v 0.38971 h -0.9296 v 0.38983 l -1.2394,-0.0103 v 0.38981 h -2.1691 v 0.37983 h -2.4788 v 0.38983 h -0.6197 v 0.38981 h -0.6098 v -0.38981 h -1.2394 v 0.38981 h -0.3098 v 0.75965 h -0.6298 v 0.37984 h -0.9195 v 0.38983 h -0.6298 v 0.3898 h -0.6097 v 0.38983 h -0.6197 v 0.36983 h -2.4789 v 0.38983 h -0.6197 v 0.38982 h -0.9296 v 0.37982 h -2.169 v 0.38983 h -0.9196 v 0.37983 h -3.0985 v 0.38981 h -0.61975 v 0.37984 h -0.92958 v 0.38982 h -0.30987 v 0.37982 h -1.5493 v 0.38983 l -0.92957,-0.0103 v 0.38983 h -0.92958 v 0.38981 h -1.23942 v 0.37983 h -0.61973 v 0.38983 l -1.53929,-0.0103 v 0.38981 h -0.62971 v 0.38983 l -0.29986,-0.0103 v 0.38983 h -0.61972 v 0.37982 h -0.30987 v 0.38982 h -0.61971 v 0.38983 h -0.61972 v 0.37982 h -1.23943 v 0.37983 h -0.61972 v 0.37982 h -1.5493 v 0.38983 h -0.92957 v 0.38982 h -0.91959 v 0.38983 h -0.93956 v 0.37982 l -0.29986,-0.0103 v 0.38983 h -0.62972 v 0.38982 h -0.61972 v 0.37982 h -0.60971 v 0.38983 h -0.93959 v 0.37982 h -0.91956 v -0.37982 h -1.23945 v 1.14948 h -0.31986 v 0.38981 h -0.29986 v 0.37983 h -0.30985 v 0.28988 0.0999 l -0.61973,-0.0103 v 0.38981 h -0.6197 v 0.37984 h -0.61972 v 0.38982 h -0.30986 v 0.38981 l -0.29986,-0.0103 v 0.38982 h -0.62971 v 0.38983 h -0.30987 v 0.37982 h -0.30985 v 0.37983 h -0.60974 v 0.37982 h -0.46978 -0.45979 v 0.39982 h -0.30985 v 0.37983 h -0.31986 v 0.32985 0.05 h -0.0399 -1.19944 v 0.37984 h -0.29987 v 0.38982 h -0.31986 v 0.38981 h -0.29986 v 0.37984 h -0.61972 v 0.38982 h -0.61971 v 0.37982 h -0.30987 v 0.38983 h -0.6197 v 0.38983 l -1.23945,-0.0103 v 0.38982 h -0.92867 v 0.37984 h -0.91959 v 0.37982 h -0.31984 v 0.38983 h -0.61972 v 0.37981 h -0.61972 v 0.38983 h -0.92958 v 0.37984 h -0.30985 v 0.38981 h -0.60973 v 0.38982 l -0.62972,-0.0103 v 0.38983 l -0.60971,-0.0103 v 0.38983 h -1.23943 v 0.37984 h -1.23944 v 0.3898 h -0.30986 v 0.38983 h -0.61972 v 0.37984 h -0.61972 v 0.37982 h -0.30985 v 0.38982 h -0.61973 v 0.38983 h -0.30985 v 0.37982 h -1.5493 v 0.37983 h -0.61972 v 0.38981 h -0.60971 v 0.38983 h -0.31986 v 0.37983 h -0.30986 v 0.38981 h -0.92957 v 0.37984 h -0.92958 v 0.37982 h -2.77873 v 0.38982 h -0.61972 v 0.37982 h -0.30986 v -0.37982 h -2.78872 v 0.37982 h -0.61972 v 0.38983 h -0.61972 v 0.37983 h -0.30986 v 0.38981 h -0.30985 v 0.37984 h -0.30987 v 0.38983 l -0.61972,-0.0103 v 0.38983 h -0.30985 v 0.37983 l -0.60972,0.0103 -0.0103,0.37982 h -0.6197 v 0.38982 l -0.30987,-0.0103 v 0.38982 h -0.29986 v 0.76965 h -0.31985 v 0.38982 h -0.61972 v 0.36983 h -0.30985 v 0.38983 h -0.29988 v 0.38981 h -0.30985 v 0.38982 h -0.30986 v 0.38983 l -1.54929,-0.0103 v 0.37982 h -0.30986 v 0.38983 h -0.30987 v 0.37982 h -0.30985 v 0.38982 h -0.30985 v 0.37984 h -0.92958 v 0.38981 l -0.61972,-0.0103 v 0.38983 h -0.30987 v 0.38982 h -0.30985 v 0.37982 h -0.61972 v 0.38983 l -0.60972,-0.0103 v 0.38981 h -0.31986 v 0.38983 l -0.92957,-0.0103 v 0.38983 h -1.22944 v 0.37981 h -0.61972 v 0.37982 h -0.92958 v 0.39984 h -0.92957 v 0.37982 h -0.61971 l -0.0103,0.37981 h -0.60972 v 0.37984 h -1.23944 v 0.38983 h -0.92958 v 0.38982 h -0.30985 v 0.37982 h -1.23943 v 0.76965 h -0.30987 v -0.38983 h -0.14994 -0.15991 v 0.38983 h -1.85915 v 0.38982 h -0.92958 v 0.37982 h -1.22945 v 0.38983 h -0.92958 v 0.37983 h -1.23942 v 0.37982 h -1.23943 v 0.38983 h -1.23945 v 0.38982 l -0.92957,-0.0103 v 0.38982 h -1.85915 v 0.38983 l -0.60972,-0.0103 v 0.37982 h -0.93958 v 0.19991 0.18992 h -0.61972 l 0.0103,-0.38983 h -0.31986 v 0.39982 l -1.22944,-0.0103 v 0.38983 h -1.85915 v 0.37982 h -2.1688 v 0.37983 h -0.6197 v 0.38981 h -0.61972 v 0.37984 h -0.30986 v 0.38982 l -0.30987,-0.0103 v 0.38982 h -0.31984 v 0.38983 h -0.60973 v 0.76964 l -0.30985,-0.0103 v 0.38982 h -0.60974 v 0.38981 h -0.30985 v 0.37984 h -0.31986 v 0.38982 h -0.30985 v 0.37982 l -1.23943,-0.0103 v 0.38982 h -0.61972 v 0.38981 h -0.92958 v 0.38983 h -0.29986 v 0.37983 h -0.31986 v 0.38981 l -0.91958,-0.0103 v 0.76965 h -0.30986 v 0.38983 h -0.30985 v 0.37981 h -0.30987 v 0.38983 l -0.92957,-0.0103 v 0.38983 h -0.30986 v 0.38981 h -0.61972 v 0.37983 h -0.30985 v 0.38983 l -0.61972,-0.0103 v 0.38983 h -0.61973 v 0.38983 h -0.30985 v 0.75965 h -0.30985 v 0.37982 h -0.61972 v 0.39982 h -0.30986 v 0.37983 h -0.60973 v 0.37982 h -0.31986 v 0.37984 h -0.60971 v 0.38982 h -0.62972 v 0.38981 h -0.60971 v 0.37984 h -0.30987 v 0.38982 h -0.61971 v 0.37982 h -1.23944 v 0.37984 h -0.30985 v 0.77963 h -0.30987 v 0.37984 H 668.524 v 0.37982 h -0.62971 v 0.38982 h -0.29986 v 0.37982 h -0.30988 v 0.38983 l -0.61971,-0.0103 v 0.38983 h -0.61972 v 0.38981 h -0.92958 v 0.37983 h -0.92957 v 0.37982 h -0.61972 v 0.37984 h -1.84916 v 0.39982 h -1.23943 v 0.37981 h -0.93958 v 0.37984 h -1.23943 v 0.37982 h -0.60973 v 0.38982 h -2.47886 v 0.38983 h -0.61972 v 0.37982 h -0.61972 v 0.38983 h -0.92958 v 0.75965 h -0.30985 v 0.38983 h -0.61972 v -1.14948 h -0.61972 v 0.37981 l -0.30986,-0.0103 v 0.38982 h -0.30985 v 0.38983 h -0.30987 v 0.38981 h -0.30985 v 0.37984 h -0.30985 v 0.37981 h -0.30987 v 0.38983 h -2.47888 v -0.38983 h -2.77873 v -0.37981 h -3.09858 v 0.37981 h -0.29986 v 0.38983 h -0.31986 v 0.38923 l -1.5493,-0.0103 v 0.38981 h -0.29986 v 0.37983 h -0.62971 v 0.37982 h -0.29986 v 0.38983 h -0.61971 v 0.37984 h -0.61972 v 0.3898 h -0.92958 v 0.37984 h -0.61972 v 0.38983 h -0.61972 v 0.37981 h -0.61971 v 0.38983 l -0.30987,-0.0103 v 0.38981 h -0.6197 v 0.38983 h -0.92959 v 0.37984 h -0.61971 v 0.3898 h -0.30987 v 0.76967 h -0.6197 v 0.37982 h -1.23945 v -0.37982 h -0.60971 v -0.39982 l -0.30986,0.0103 v -0.37984 h -1.54929 v -0.38981 h -0.31986 v 0.38981 h -0.29987 v 0.37984 0.38982 h -0.30985 v 0.37982 h -1.24943 v 0.37984 h -1.84916 v 0.39981 l -0.61973,-0.0103 v 0.37983 h -0.6197 v 0.38983 H 620.226 v 0.37982 h -0.30985 v -0.37982 h -0.92957 v 0.37982 h -0.61973 v 0.38982 H 618.057 v 0.37982 h -1.53931 v -0.3733 h -0.6197 v -0.38982 h -0.61972 V 208.09 h -1.23945 v 0.37982 h -0.31984 v 0.38982 h -0.29986 v 0.37982 h -0.61973 v 0.38983 l -0.31986,-0.0103 v 0.38981 h -0.29986 v 0.38982 l -0.30985,-0.0103 v 0.77963 l -0.30985,-0.0103 v 0.38982 h -0.30987 v 0.38983 l -0.30986,-0.0103 v 0.38983 h -0.61972 v 0.37983 h -0.61972 v 0.76965 h -0.30985 v 0.38982 h -0.30986 v 0.37982 l -0.30986,-0.0103 v 0.38982 h -0.61971 v 0.38981 h -0.61972 v 0.38983 h -0.30986 v 0.38982 l -0.30986,-0.0103 v 0.37982 h -1.84916 v 0.38982 h -0.61971 v 0.37982 h -0.31986 v 0.38983 h -0.60971 v 0.37983 h -0.61973 v 0.38981 h -0.61972 v 0.37984 h -1.5493 v 0.37982 h -0.6197 v 0.38982 h -0.61972 v 0.37984 h -0.92958 v 0.38981 l -0.31986,-0.0103 v 0.38983 h -0.60971 v 0.38982 h -2.16902 v 0.37982 h -0.61971 v 0.38983 l -0.61972,-0.0103 v 0.77965 h -0.30985 v 0.37984 h -0.30987 v 0.76964 l -0.29987,-0.0103 v 0.38982 h -0.62971 v 0.38983 h -0.30985 v 0.37982 l -0.29986,-0.0103 v 0.27988 0.10988 h -0.13997 -0.17991 v 0.18992 0.1999 h -0.15991 -0.13997 v 0.23989 0.13997 h -0.0999 -0.2099 v 0.35984 l -0.30987,0.0299 v 0.38982 h -0.30985 v 0.59973 0.15991 h -0.14994 -0.15992 v 0.1899 0.19991 h -0.18991 -0.12002 v 0.12002 0.25988 h -0.25989 -0.05 v 0.05 0.71968 h -0.50977 -0.4198 v 0.38982 h -0.92958 v -0.38982 h -0.30987 v -0.38983 h -0.30985 v 0.38983 h -0.30985 v 0.37983 h -0.30987 v 0.38981 h -0.30985 v 0.76966 l -0.30986,-0.0103 v 0.38982 h -0.61972 v 0.37984 h -0.30987 v 0.38981 l -0.60971,-0.0103 v 0.38983 h -0.61973 v 0.38982 H 582.773 l -0.0103,-0.38982 h -0.61972 v -0.38983 h -1.5493 v 0.38983 h -0.60971 v 0.38982 h -0.61972 v 0.38981 h -0.92958 v 0.37984 h -0.6197 v 0.37982 h -0.30987 v 0.76966 h -0.30986 v 0.76964 h -0.30985 v 0.37982 h -0.30987 v 0.38983 h -0.60971 v -0.38983 h -1.24944 v 0.38983 h -1.23943 v 0.37982 h -0.30987 v 0.77965 h -0.30985 v 0.37982 h -0.29941 v 0.37983 h -0.31986 v 0.77964 l -0.30986,-0.0103 v 0.38983 l -0.29986,-0.0103 v 0.71966 0.43981 h -0.30987 v 0.37982 h -0.31984 v 0.37984 h -0.17993 -0.11985 v 0.23988 0.53975 l -0.26987,-0.0103 h -0.0401 v 0.0899 1.44932 h -0.30985 v 0.38983 h -0.30985 v 0.36983 h -0.30987 v 0.39981 h -0.31984 v 1.52932 h -0.29987 v 0.38964 h -0.30987 v 0.76966 h -0.30985 v 0.37982 h -0.30987 v 0.76964 h -0.31984 v 0.77966 l -0.29986,-0.0103 v 0.37984 h -0.30987 v 1.15947 h -0.30986 v 0.37982 l -0.30985,-0.0103 v 0.38982 h -0.29986 v 0.77964 h -0.28987 -0.0299 v 0.0899 0.66969 h -0.2499 -0.06 v 0.12999 0.25989 h -0.10987 -0.19991 v 0.43979 0.32985 h -0.15991 -0.14994 v 0.27988 0.47978 h -0.25989 -0.05 v 0.0799 0.30986 h -0.17993 -0.13 v 0.2099 0.16988 h -0.12999 -1.10949 v 0.38981 h -0.92957 v 0.37984 l -0.29986,0.0103 -0.0103,1.14948 h -0.29986 v 1.14948 h -0.62971 v 0.38981 l -0.30986,-0.0103 v 0.55974 0.2099 h -0.12002 -0.17991 v 0.42981 0.33984 h -0.13996 -0.17993 v 0.41981 0.34985 h -0.13997 l -0.16989,-0.0103 v 0.38983 0.38982 h -0.16988 -0.13997 v 0.2499 0.50976 h -0.29986 v 0.0399 0.33984 h -0.19991 -0.10987 v 0.18992 0.19991 h -0.13 -0.17991 v 0.27988 0.10988 h -0.07 -0.85961 v 0.37981 h -0.30987 v 0.38983 l -0.91957,-0.0103 v 0.77964 h -0.31986 v 0.37983 h -0.30985 v 0.76965 h -0.30987 v 0.37984 h -0.31986 v 0.77963 l -0.29986,-0.0103 v 1.00953 0.13997 h -0.10988 -0.19991 v 0.28986 0.0999 h -0.06 -0.55974 v 0.76966 l -0.29987,-0.0103 v 0.54976 0.2299 h -0.1999 -0.10988 v 0.14994 0.22989 h -0.0899 -0.22989 v 0.61972 0.14994 h -0.05 l -0.25989,-0.0103 v 0.38982 h -0.30985 v 0.38983 H 551.817 v 0.37982 l -0.62971,-0.0103 v 0.38983 h -0.60974 v 0.38981 h -0.31986 v 0.37983 h -0.6197 v 0.38983 h -0.29986 v 0.38981 h -0.31986 v 0.37983 h -0.29987 v 0.37982 h -0.31986 v 0.38983 h -0.6197 v 0.37984 h -0.91959 v 0.3898 l -0.30987,-0.0103 v 0.38982 h -0.6197 v 0.76965 h -0.30987 v 1.14948 h -0.30985 v 0.76964 l -1.5493,-0.0103 v 0.38982 h -0.30985 v 0.76965 h -0.30986 v 0.75965 h -0.30987 v 0.38981 h -0.30985 v 0.38983 h -0.30987 v 0.37983 h -0.30985 v 0.38981 h -0.30985 v 0.37984 l -0.30987,-0.0103 v 0.77964 h -0.61971 v 0.76964 h -0.30987 v 0.37984 h -0.30985 v 0.38982 h -0.30985 v 0.76965 h -0.29986 v 0.76964 l -0.31986,-0.0103 v 0.38982 h -1.23945 v 0.37982 h -0.29986 v 0.76965 h -0.31984 v 0.76966 h -0.29987 v 0.37982 h -0.62971 v -0.37982 h -0.30987 v -0.37984 h -0.30985 v 0.37984 h -0.29986 v 0.76964 l -0.30986,-0.0103 v 0.38981 h -0.61972 v 0.38982 h -0.31986 v 0.75966 h -0.60971 v 0.38982 h -0.30987 v 0.37982 h -0.61971 v 0.38983 h -0.61972 v 0.38982 l -0.30985,-0.0103 v 0.37983 h -2.16902 v -0.37983 h -0.61973 v 0.37983 h -0.6197 v 0.38983 h -1.5493 v 0.37982 h -0.91958 v 0.38982 h -0.30986 v 0.37982 h -0.30987 v 0.38983 l -0.30985,-0.0103 v 0.38983 h -0.62971 v 0.38981 l -0.60972,-0.0103 v 0.38983 h -1.23944 v 0.37982 h -0.30985 v 0.37983 h -0.30986 v 0.38983 h -0.30987 v 0.37982 h -0.30985 v 0.38982 l -0.30987,-0.0103 v 0.3898 h -0.30985 v 0.38983 h -0.30985 v 0.38983 h -0.61973 v 0.74966 h -0.30985 v 0.38981 h -0.30987 v 0.38983 h -0.29986 v 0.38982 h -0.31984 v 0.38654 l -0.30987,-0.0103 v 0.77965 h -0.30986 v 0.37982 h -0.30985 v 0.38983 h -0.61972 v 0.37981 h -0.29986 v 0.37984 h -0.92958 v 0.38983 h -1.5493 v -0.38983 h -0.30985 v -0.75965 h -0.61972 v -0.38983 h -0.30987 v 0.38983 h -3.72829 l 0.0103,-0.38983 h -1.5493 v 0.38983 h -0.30985 v 0.37981 h -0.30986 v 0.37984 h -0.30987 v -0.37984 h -0.92957 v -0.37981 h -0.30985 v -0.38983 h -0.30986 v -0.37982 h -2.47887 l 0.0103,-0.38983 h -0.92958 v -0.38982 l -0.30985,0.0103 v -0.37981 h -1.23944 v 0.37981 l -0.30986,-0.0103 v 0.38982 h -0.30987 v 1.91913 h -0.30985 v 0.70967 0.06 h -0.30985 v 0.38983 h -1.3194 -0.53975 v 0.37981 h -0.60973 v 0.37984 h -0.93957 v 0.38981 h -0.89958 -1.5693 v 0.37984 h -0.92957 v 0.38982 l -0.30986,-0.0103 v 0.77966 h -0.31986 l 0.0103,1.15947 v 1.05951 0.08 l 0.30987,-0.0103 v 0.38983 h 0.30985 v 1.15947 h 0.30987 v 1.14948 h 0.29986 v 0.38981 l -0.29986,-0.0103 v 2.68878 h -0.30987 v 0.38982 h -0.30985 v -0.38982 h -0.31986 v 0.38982 h -0.38983 -0.21989 v 0.17991 0.19991 h -0.30987 v 0.39983 0.36983 l -0.6197,-0.0103 v 0.77965 h -0.31986 v 0.75965 h 0.31986 v 0.30986 1.60927 h 0.30985 v 0.38982 h 0.30985 v 0.37982 H 490.206 v 1.14948 h -0.30985 v 1.15948 h -0.30987 v 0.76964 l -0.61971,-0.0103 v 0.38981 h -0.30987 v 0.37984 h -0.47977 -0.13996 v 0.25988 0.13 h -0.07 l -0.23988,-0.0103 v 0.38983 h -0.61971 v 0.38982 h -0.92959 v 0.37982 h -0.30985 v 0.37984 h -0.61973 v -0.37984 h -0.30985 v 0.37984 h -1.22944 v 0.37981 h -0.30985 v 0.38983 h -0.31986 v -0.38983 h -0.30985 v 0.38983 h -1.22946 v 1.53931 h -0.31984 v 0.37982 h 0.31984 v 0.94957 0.19991 h -0.1899 -0.12999 v 0.16988 0.59973 h -0.29986 v 1.53931 h -0.30987 v 0.3898 l -0.30986,-0.0103 v 2.68877 h 0.30986 v 0.76964 h -0.30986 v 1.53931 h -0.61972 v 0.37982 h -0.30985 v 0.37983 H 479.061 v 1.5493 l 0.30985,-0.0103 v 0.76966 h -0.62971 v 0.76964 h -0.60974 v 0.37982 h -0.43979 -0.17991 v 0.38983 l -0.61972,-0.0103 v 0.38983 h -0.07 -0.54975 v 0.38981 l -0.30985,-0.0103 v 0.38982 h -1.23943 v 0.37982 h -0.30987 v 2.72877 1.88914 l -0.61972,-0.0103 v 1.53931 h -0.30986 v 0.76964 l 0.31986,-0.0103 v 0.38982 h -0.31986 v 1.90912 h -0.30985 v 0.77965 l 0.30985,-0.0103 v 1.5393 h 0.30986 v 1.14948 h 0.30987 v 0.38981 h 0.61972 v 1.05952 0.85961 h 0.30985 v 0.75965 h -0.30985 v 2.30895 h -0.30987 v 0.37984 h -0.30985 v 0.38981 l -0.29987,-0.0103 v 0.77966 h -0.31986 v 0.37981 h -0.30985 v 0.37982 h -0.30987 v 0.76966 h -0.30985 v 0.13997 0.24988 h -0.05 -0.24989 v 0.36984 h -0.31986 v 0.38981 h -0.30986 v 0.41982 0.34985 h -0.30985 v 3.44842 h 0.61971 v 0.38983 h 0.31986 v 0.37982 h 0.29986 v 0.38982 l 0.30985,-0.0103 v 0.38983 h 0.30987 v 0.76966 h 0.30985 v 0.37982 h 0.31986 v 0.37982 h 0.29987 v 1.53931 h -0.29987 v 0.76964 h -0.31986 v 0.75966 h -0.61972 v 0.38982 h 0.30987 v 0.76965 h -0.30987 v 1.14948 h -0.30985 v 0.38983 h -0.29986 v 0.3898 l -0.31986,-0.0103 v 0.37983 h -0.55975 -0.06 v 0.1899 2.11904 l -0.29986,-0.0103 v 0.38983 h -0.93958 v 0.76964 l -0.29987,-0.0103 v 0.3898 h -0.30985 v 0.76967 h -0.30987 v 0.75965 h -0.31984 v 0.38981 h -0.36983 -0.2399 v 0.38983 h -0.30986 v 0.38982 l -0.30985,-0.0103 v 0.37981 h -0.30987 v 0.38983 h -0.30985 v 0.37982 h -0.30985 v 1.35938 0.93958 h -0.9296 v 0.38983 h -0.28985 -0.32985 v 0.31984 0.06 h -0.07 -0.54975 v 1.5293 h 0.12999 0.17991 v 2.30895 h -0.30985 v 2.68877 h -0.30985 v 0.37984 h -0.30987 v 0.76964 h -0.61971 v 0.37982 h -0.4698 -0.13996 v 0.38983 h 0.0401 l 0.26989,-0.0103 v 0.38983 h -0.31986 -0.30985 v -0.38983 h -0.61972 v 0.38983 h -0.29987 v 0.37982 h -0.62971 v 0.38982 h -0.60973 v 0.37982 h -0.30985 v 0.37984 h -0.93957 v 0.38981 h -0.30987 v 1.91912 h -0.29986 v 0.6797 0.46978 l -0.30985,-0.0103 v 0.77963 h -0.31986 v 0.38983 l -0.29986,-0.0103 v 1.14948 h -0.30986 v 0.76965 h -0.30987 v 0.76964 h -0.30985 v 0.76965 h -0.30985 v 0.37983 h -0.30987 v 0.76965 h -0.30985 v 1.14948 l -0.30986,-0.0103 v 0.38983 h -0.30987 v 0.38982 l -0.30985,-0.0103 v 0.38981 l -0.30985,-0.0103 v 0.38982 h -0.4498 -0.47978 v 0.38983 h -0.92959 v 0.37982 h -0.92957 v 0.38983 h -0.30986 v 2.35892 0.31986 h -0.30985 v 1.5293 h -0.30987 v 0.38982 h -0.29986 l -0.0103,0.37982 h -0.61972 v 0.38983 h -0.4398 -0.16988 v 0.37982 h -0.30987 v 0.76966 h -0.30985 v 0.37982 h -0.61973 v -0.37982 h -0.30985 v -0.38983 h -0.62971 v -0.37983 h -1.22944 v -0.37982 h -0.92957 v -0.76965 h -1.5493 v -0.38982 h -2.169 v 0.38982 h -0.9296 v 0.76965 h -0.30985 v 0.37982 h -0.30985 v 0.37983 h -0.29986 v 1.14948 h -0.30987 v 0.57973 0.19991 h -0.31985 v 0.37983 h -0.51976 -1.01954 v -0.37983 h -0.30986 v -0.38983 h -0.30985 v -0.38981 l -0.30987,0.0103 v -0.38983 h -0.92957 v 0.38983 l -0.61973,-0.0103 v 0.38981 h -0.62971 v 0.38983 h -0.29986 v 0.36983 l -0.30985,0.0103 v 0.36983 h -0.30986 v 0.38983 h -0.30987 v 0.38981 h -0.30985 v 0.37983 h -0.30985 v 0.38983 h -0.92959 v 0.36983 h -0.61971 v 0.38982 h -0.30987 v 0.76965 h -0.30985 v 0.38982 h -0.29986 v 0.37982 h -0.31986 v 0.37982 h -0.30985 v 0.37984 h -0.61973 v 0.39981 l -0.6197,-0.0103 v 0.37982 h -0.60973 v 0.38982 l -0.30986,-0.0103 v 0.3898 h -0.61972 v 0.38983 l -0.30985,-0.0103 v 0.38983 h -0.61972 v 0.76965 l -0.30986,-0.0103 v 0.38981 h -0.30987 v 0.37983 h -0.30985 v 0.38983 l -0.31986,-0.0103 v 0.38983 h -0.60971 v 0.38982 h -0.31986 v 0.37982 h -0.60972 v 0.75966 H 421.477 v 0.38982 h -0.30987 v 0.76965 h -0.30986 v 0.37984 l -0.30985,-0.0103 v 0.77965 h -0.30987 v 0.38983 l -0.6197,-0.0103 v 0.38983 h -0.61973 v 0.37983 h -0.91958 v 0.37982 h -0.31986 v 1.91913 h 0.31986 l -0.0103,0.28987 v 0.0899 h 0.30985 v 0.76964 h 0.30986 v 1.15947 h -2.78873 v -0.38982 h -0.29986 -0.31984 v 0.37983 h -0.61973 v 0.38981 l -0.30987,-0.0103 v 0.37981 h -0.29986 v 0.39984 h 0.30987 l -0.0103,0.37982 h -0.29987 v 1.14948 h -0.30985 v 0.4298 0.72967 l -0.92957,-0.0103 v -0.37982 h -0.16989 -0.13997 v -0.38982 h -2.16902 v 0.38982 h -0.61972 v -0.38982 h -0.30985 v -0.37982 h -0.92958 v -0.38983 h -0.92957 v 0.38983 h -1.23943 v 0.76964 h -1.22945 v 0.37982 h -0.31985 v 0.37984 h -0.30987 v 0.77963 l -0.29986,-0.0103 v 0.37983 h -0.30985 v 0.76965 h -0.62971 v 0.38982 l -0.60972,-0.0103 v 0.38982 h -0.92959 v 0.37984 h -0.62971 v 0.76964 h -0.29987 v 0.38983 l -0.6197,-0.0103 v 0.38983 h -1.23945 v -0.76965 h -0.30985 v -0.38982 h -1.22944 v -0.37982 h -0.31986 v 0.37982 h -0.91958 v 0.38982 h -0.31984 v 0.37982 h -0.30987 v 0.38983 l -0.30986,-0.0103 v 0.37982 h -0.30985 v 0.39982 h -0.30987 v 0.75965 l -1.85915,-0.0103 v 0.38983 h -1.53929 v 0.38981 h -1.55929 v 0.37984 h -1.84938 v 0.38982 h -0.61972 v -0.38982 h -4.95774 l 0.0103,-0.37984 h -1.85916 v -0.38981 h -1.23943 v 0.38981 h -0.30985 v 0.37984 h -0.61972 v 0.38982 h -0.61973 v 0.37982 h -0.30985 v 0.37984 h -0.30985 v 0.38981 h -0.30987 v -0.76965 h -3.08859 v 0.37984 h -0.31986 v 0.76964 h -0.30985 v 0.38983 l -0.60972,-0.0103 v 0.38983 h -2.16902 v 0.37983 h -0.31986 v 0.76965 h -0.30985 v 0.76964 l -0.29986,-0.0103 v 0.38982 h -0.62971 v 0.38981 l -0.60972,-0.0103 v 0.38983 h -0.30987 v 0.37982 h -0.30985 v 0.37984 h -0.30987 v 0.76964 h -0.30985 v 0.37982 h -1.23943 v -0.37982 h -1.23945 v 0.37982 h -0.6197 v 0.37983 H 363.273 v 0.38983 h -0.30985 v 0.76965 h -0.30987 v 0.37981 h 0.61972 v 0.38983 h -0.30985 v 0.37984 h -0.61973 l 0.0103,-0.37984 h -0.31984 v 0.37984 h -0.61972 v -0.37984 h -0.61973 v -0.38983 h -0.52975 -1.63925 v 0.38983 h -0.29986 v 0.75966 h -0.30987 v 0.38982 h -0.31984 v 0.37982 h -0.30987 v 1.88914 l -0.29987,0.0299 v 0.08 1.06951 h -0.6197 v 3.06861 h 0.30985 v 0.76964 l 0.30985,-0.0103 v 0.3898 h 0.30987 l -0.0103,0.37984 h 0.30987 v 0.38983 h 0.31984 v 0.37982 l 0.30987,-0.0103 v 0.38983 h 0.6197 l -0.0103,1.15947 h -0.60972 v 1.5293 h 0.30986 v 0.37981 h 0.61972 v 0.38983 l 0.30985,-0.0103 v 0.38981 h 0.61972 l -0.0103,0.38983 0.92957,-0.0103 v 0.38983 h 0.30985 v 0.37982 h 0.61973 v 0.37983 h 0.62971 v 0.38981 h 0.29986 v 0.37984 h 0.61972 v 0.76964 l 0.31985,-0.0103 v 0.38982 h 1.5293 v -0.38982 h 0.31986 v -0.37984 h 1.54929 v 0.37984 h 0.61972 v 0.38982 h 0.30986 v 0.38981 h 0.61972 v 0.36985 h 1.01952 0.20992 v -0.2299 -0.13997 h 0.31984 v -0.38981 h 0.30987 v -0.76966 h 0.30985 v -0.37982 h 0.29986 v -0.37983 h 0.93959 v -0.38981 h 0.60971 v -0.37984 h 0.62971 v 0.37984 h 0.29987 v -0.19991 l 0.0103,-0.17993 h 1.84916 v -0.37982 h 0.61973 v 0.37982 h 0.30985 v -0.37982 h 2.16902 v 0.37982 h 0.05 0.25988 v -0.37982 h 0.92957 v -0.76966 h 0.31986 0.29987 v -0.76964 l 0.29986,0.0103 v -0.77965 h 0.31986 v -0.75965 h 0.6197 v -0.37982 h 0.29987 v 2.67876 h -0.29987 v 0.76966 h -0.31984 v 0.75966 h -0.30987 v 1.14946 h -0.30985 v 1.15947 h 0.30985 v 1.13949 h 0.30987 v 1.15948 h 0.31984 v 0.75965 h 0.29987 v 0.76964 h 0.30987 v 0.38983 l 0.30985,-0.0103 v 2.30896 h 0.62971 l -0.0103,0.75965 h 2.16901 v 0.37984 h 1.54929 v 2.30893 h 0.30986 v 0.37984 h 1.05951 0.17993 v 0.37982 h 1.23943 v 1.5393 h 0.30987 v 0.37982 h -0.61972 v 0.37984 h -0.31986 v 0.38981 h 0.30987 v 0.38982 l -0.29987,-0.0103 v 0.38982 h 0.30986 v 0.37982 l 0.61972,-0.0103 v 0.38983 h 0.60971 v 0.38981 l 0.62972,-0.0103 v 0.38983 h 0.30985 v 0.37982 h 0.29986 v 1.15947 l -0.29986,-0.0103 v 2.29895 h 0.29986 v 1.5393 h -0.29986 v 0.37982 h -0.30985 v 0.37984 h -0.30986 v 0.77963 l 0.30986,-0.0103 v 0.76964 l -0.30986,-0.0103 v 0.38983 h -0.30987 v 0.37982 h -0.6197 v 0.38983 h -0.30987 v 0.76964 l -0.31984,-0.0103 v 0.38983 h -0.2499 -0.05 v 0.37982 h -0.30987 v 0.53976 0.60972 h -0.30986 v 1.53929 h -0.62971 v 0.37983 h -0.29986 v -0.37983 h -0.30987 v 0.37983 h -0.69968 -1.15947 v -0.37983 h -0.92958 v 0.37983 h -0.30985 v 0.37982 h -0.30987 v 1.14948 h -0.30985 v 0.38983 h -0.60972 v 0.38983 l -0.62971,-0.0103 v 0.37984 l -0.29986,0.0103 v 0.29986 l -0.0103,1.22944 h 0.61972 v 0.37984 h 0.62972 v 0.37982 h 0.30985 l -0.0103,0.38982 h 0.30985 v 0.37982 h 0.30987 v 0.38983 l 0.31985,-0.0103 v 0.37982 h 0.29988 v 0.38983 h 0.92957 v 0.37983 h 0.61971 v 0.38981 l 0.61972,-0.0103 v 0.38983 h 0.30985 v 1.13947 h -0.30985 v 0.38983 h -0.30985 v 0.38983 h -0.30987 v 0.37981 h -0.30986 v 0.76967 l -0.30985,-0.0103 v 1.5493 l 0.30985,-0.0103 v 0.38981 l 0.30986,-0.0103 v 0.38983 h 0.61972 v 0.38982 l 4.02817,-0.0103 v 0.38982 h 1.23943 v 0.37984 h 1.5393 v -0.37984 h 1.54928 v -0.38982 h 1.5493 v 0.38982 h 0.61972 v 0.37984 h 0.61973 v 0.37982 h 0.6197 v 0.76964 h 0.30987 v 0.37984 h 0.61971 v 0.38983 l 2.46888,-0.0103 v 0.37983 h 0.31986 v 0.77964 l 0.30985,-0.0103 v 0.38983 l -0.30985,-0.0103 V 530.81 h 2.15901 v -0.38983 l 0.61971,0.0103 v -0.38983 h 1.54929 v 0.38983 l 0.31986,-0.0103 V 530.81 h 0.29987 v 0.38982 h 0.61972 v 0.37982 h 0.30985 v 1.52932 h 0.30985 v 0.38981 h 0.92958 v 0.37983 h 1.85916 v 0.37982 h 1.23943 v 0.37984 h 0.92958 v -0.37984 h 1.23944 v 0.37984 h 0.60972 v 0.39982 l 0.30985,-0.0103 v 1.91912 h -0.29986 v 0.37982 l -0.30986,-0.0103 v 0.77963 h 1.23943 v -0.38981 h 0.30987 v -0.38982 l 0.60972,0.0103 v -0.37982 h 0.61972 v -0.38982 h 0.30985 v 0.38982 h 0.61972 v 0.75966 h 0.30986 v 0.38981 h 0.30987 v -0.38981 h 0.92957 v -0.38983 h 0.92958 v 0.38983 h 0.30985 v -0.38983 l 0.30985,0.0103 v -0.37982 h 0.92958 v -0.38982 l 0.91958,0.0103 v -0.38982 h 0.62971 v -0.38981 h 0.61973 v 0.38981 h 0.30985 v -0.38981 h 2.77873 v 0.38981 h 0.30987 v -0.38981 h 0.93957 v 0.38981 h 1.53929 v 0.38982 l 0.30987,-0.0103 v 0.38982 h 0.30985 v 0.37982 l 0.30987,-0.0103 v 0.38983 h 0.61971 v 0.38981 h 0.61972 v 0.37983 h 0.30985 v 0.37982 h 0.29986 v 0.37984 h 0.62972 v 0.76964 h 0.30987 v 0.76965 l 0.29986,-0.0103 v 0.77964 h 0.30985 v 0.37983 h 0.31986 v 0.38983 h 1.23943 v 0.75965 h 0.30987 v 0.37982 h 0.31128 l -0.0103,0.76965 h 0.30985 v 0.37983 h 0.31986 l -0.0103,0.76965 h 0.30987 v 1.14948 h 0.31984 v 0.76964 h 0.29986 v 1.14949 h 0.30987 v 0.75965 h 0.30985 v 0.76965 h 0.30986 v 1.52929 h 0.30987 v 1.14949 h 0.30985 v 1.14946 h 0.30987 v 1.91913 h 0.30985 v 0.76966 l 0.30985,-0.0103 v 1.91913 h 0.31986 v 2.29896 h 0.29987 v 4.21807 h 0.30985 v 12.25441 h -0.30985 v 4.59791 h -0.30986 v 6.1272 h -0.30987 v 3.44843 h 0.31986 l -0.0103,0.37983 h 0.30985 v 0.76965 h 0.18992 0.11985 v 1.5293 h -0.18991 -0.12002 v 2.29894 l -0.29986,-0.0103 v 0.38982 h 0.29986 v 1.91913 h -0.30985 v 1.14948 h -0.30987 v 3.06859 l -0.30985,-0.0103 v 1.14948 h 0.30985 v 1.5293 h -0.30985 v 1.14948 h -0.30985 v 0.38981 h -0.30987 v 0.75966 l -0.30986,-0.0103 v 0.38983 h -0.30987 v 0.3898 h -0.30985 v 1.1395 h -0.30985 v 0.76964 h 0.30985 v 1.14948 h 0.30985 v 0.37982 h 0.30987 v 0.76966 h 0.30986 v 0.76965 h 0.30987 v 0.37982 h 0.30985 v 0.38982 h 0.17991 l 0.43981,-0.0103 v 0.76965 h 0.30985 v 0.37982 h 0.30986 v 0.76966 h -0.30986 v 0.76965 l -0.29986,-0.0103 v 0.76964 h 0.29986 v 0.37982 h -0.29986 v 1.53931 h 0.29986 v 0.75965 h 0.30986 v 0.38981 h -0.30986 v 0.76967 l -0.30985,-0.0103 v 1.91912 l 0.30985,-0.0103 v 0.38982 h -0.29986 v 0.38983 h -0.31986 v 0.37982 l -0.30985,-0.0103 v 2.68877 h -0.30985 v 0.76965 h -0.30987 v 0.37983 h 0.30987 v 1.5293 h 0.30985 v 0.75966 h -0.30985 v 0.77963 l -0.30987,-0.0103 v 0.38982 h -0.30986 v 1.5293 h 0.30986 v 0.37982 h -0.30986 v 1.52932 h -0.30987 v 1.90912 h -0.30985 v 1.54929 l -0.30985,-0.0103 v 1.5293 h -0.30987 v 0.37981 h -0.30985 v 1.14948 h -0.30986 v 3.06861 h -0.30987 v 0.37982 h -0.30985 v 0.37984 l -0.60971,-0.0103 v 1.91912 h 0.31097 v 0.76967 h 0.29986 v 1.14946 h 0.31986 v 1.52932 h -0.31986 v 1.5293 h -0.30985 v 1.91912 l -0.29987,-0.0103 v 1.15947 h -0.30986 v 1.14948 h -0.30986 v 0.37983 h -0.30985 v 0.38981 h -0.30987 v 0.75966 h 0.30987 v 0.37983 h 0.30985 v 3.06859 l -0.30985,-0.0103 v 1.5293 h -0.30987 v 1.15947 l -0.30985,-0.0103 v 0.76964 h -0.31986 v 2.29897 h -0.30986 v 1.5293 h -0.29986 v 0.76964 h -0.30987 v 0.37984 h -0.30985 v 0.76964 l -0.30985,-0.0103 v 0.76966 h -0.30987 v 1.5293 h -0.30985 v 1.14948 h -0.30986 v 1.5293 h -0.30987 v 0.38982 h -0.30985 v 0.75964 h -0.30985 v 0.76966 h -0.30987 v 1.13948 h -0.30985 v 0.38982 h 0.30985 v 1.5293 h -0.30985 v 0.37984 h -0.30987 v 0.37982 h -0.30986 v 0.38982 l -0.30985,-0.0103 v 0.38982 h -0.61972 v 0.37984 h -0.29986 v 0.76964 l -0.31986,-0.0103 v 1.91912 h -0.30986 v 1.14947 h -0.30985 v 0.75965 l -0.30987,0.0199 v 0.36983 h -0.30985 v 0.37983 h -0.30985 v 0.38981 h -0.21991 -0.38983 v 0.37984 h -0.31986 v 0.75965 h 0.26989 0.05 l -0.0103,1.5293 h -0.29987 v 0.76965 h -0.30987 v 0.76964 l -0.30985,-0.0103 v 1.14948 h -0.31986 v 0.37982 h -0.29986 v 1.15947 h -0.30985 v 0.75966 h -0.30986 v 1.14948 H 424.575 v 0.75965 h -0.31984 v 0.77964 l -0.29986,-0.0103 v 1.14948 h -0.30987 v 0.75966 h -0.30985 v 0.76964 h -0.31986 v 0.76965 l -0.29987,-0.0103 v 0.38983 l -0.30985,-0.0103 v 0.77965 h -0.26987 -0.0401 v 0.15992 0.21988 h -0.06 -0.24989 v 0.58974 0.16988 h -0.07 -0.23988 v 0.6797 0.47978 l 0.30985,-0.0103 v 0.38982 h -0.61972 v 1.90912 l -0.30985,-0.0103 v 0.38982 h -0.30986 v 0.38983 l -0.30987,-0.0103 v 1.14948 h -0.31984 v 0.76965 l -0.29986,-0.0103 v 0.38983 h -0.0899 -0.0999 l -0.12002,-0.0103 v 0.26987 0.11985 h -0.05 -0.25989 v 0.59973 0.16988 h -0.07 -0.2399 v 0.52976 0.22988 h -0.10988 -0.18992 v 0.38983 0.37983 h -0.17991 -0.13996 v 0.31985 0.06 h -0.30987 v 0.38982 h -0.30986 v 1.41936 0.48978 h -0.20989 -0.0999 v 0.22989 0.14994 0.37984 h -0.29986 v 0.76964 h -0.27988 -0.0401 v 0.11985 0.25989 h -0.07 -0.23988 v 0.62971 2.04907 h -0.30987 v 1.91912 h -0.30986 V 723.373 H 415.289 v 0.76965 h -0.30985 v 0.37983 h -0.31986 v 1.14948 h -0.30987 v 0.76965 h -0.29986 v 0.76964 l -0.30986,-0.0103 v 0.76964 h -0.30985 v 0.89959 0.24989 h -0.13997 l -0.17992,-0.0103 0.0103,0.32985 v 0.43981 h -0.30985 v 1.14946 h -0.30985 v 0.38983 h -0.30987 v 0.74966 h -0.26988 -0.0401 v 0.13 0.6397 h -0.24989 -0.06 v 0.14994 0.60971 h -0.30987 v 0.76965 h -0.30986 v 0.38982 h -0.15991 -0.14994 v 0.47979 0.28986 h -0.08 l -0.53974,-0.0103 v 1.14948 h -0.30987 v 0.76965 l -0.30986,-0.0103 v 1.14947 h -0.30985 v 0.73967 l -0.30987,0.0199 v 0.70968 1.20944 h -0.30985 v 0.38983 h -0.30985 v 0.06 1.0795 h -0.30987 v 1.15947 l -0.30986,-0.0103 v 1.14948 h -0.30985 v 0.75965 h -0.29986 v 0.76965 h -0.31986 v 0.37982 h -0.30985 v 0.76966 l -0.29988,-0.0103 v 0.76967 h -0.31985 v 0.76964 l -0.29986,-0.0103 v 0.38981 h -0.30987 v 0.37984 h -0.31984 v 0.38982 l -0.30987,-0.0103 v 0.38982 h -0.23989 -0.67968 l -1.85917,-0.0103 v 0.37982 h -0.92957 v 0.38982 h -0.31984 v 0.38983 h -0.29987 v 1.13947 h -0.30987 v 0.37984 h -0.30985 v 0.38981 h -0.30985 v 0.37983 h -1.5493 v 0.37982 h -0.61972 v 0.76966 h 0.30985 v 0.37982 h 0.30987 v 0.76965 l 0.30985,-0.0103 v 1.07952 0.44978 h -0.60971 v 0.38983 h -0.31986 v 0.37981 h -0.26988 -0.0401 v 0.07 1.45933 h -0.30987 v 0.15991 0.2299 h -0.6197 v 0.36985 H 395.468 v 0.38981 h -0.30986 v 0.37983 h -0.30985 v 0.38983 h -0.61972 v 1.13947 h 0.30985 v 0.37982 h 0.92958 v 0.2399 0.14994 h 0.30987 v 1.13949 h 0.30985 v 0.38981 h 0.30985 v 0.75966 h 0.61972 v -0.37982 h 0.30986 v -0.37984 h 0.92959 v -0.38981 h 1.23943 v 0.38981 h 0.61972 v 0.37984 h 1.54928 v 0.37982 h 0.60973 v 0.76966 l 0.31986,-0.0103 v 0.38983 h 0.30985 v 0.37983 h 0.29986 v 0.76965 h 0.30986 v 1.5293 h 0.31986 v 0.75965 h 0.30985 v 0.37982 h 0.29986 v 0.38983 h 0.30987 v 1.51931 l -0.60973,0.0103 v 0.75965 h -0.30985 v 0.38983 l 0.30985,-0.0103 v 0.38981 h 0.29986 v 0.37983 h 0.30987 v 0.37982 h 0.31984 v 0.38983 l 0.29987,-0.0103 v 2.29895 l 0.31986,-0.0103 v 0.38983 h 0.30985 v 0.76964 h 1.53931 v 0.36983 h 0.30985 v 1.5493 l 0.30987,-0.0103 v 0.75965 h 0.30985 v 0.38981 h 0.61972 v 0.37984 h 0.30986 v 0.37982 h 0.61972 v 1.52931 h 0.30985 v 0.76965 l 0.30987,-0.0103 v 0.38983 h 0.30985 v 0.37983 h 0.30986 v 0.76965 l 0.61972,-0.0103 v 0.37982 h 0.30985 v 0.38983 h 0.61972 v 0.37982 h 1.84916 v 0.76966 l -0.30987,-0.0103 v 0.38983 h -0.60971 v 0.38982 h -0.62971 v 1.13948 h -0.29987 v 0.76964 h -0.4298 -0.18992 v 1.13949 h -0.30985 v 1.43934 1.23944 h 0.30985 v 0.37982 h 0.30987 v 0.76965 h 0.30985 v 0.75965 h 0.29987 v 1.13949 h 1.23942 v 0.38983 h 1.23945 v 0.37982 h 0.30985 v 0.38982 h 0.62971 l -0.0103,0.75966 h 0.31986 v 0.37982 h 0.60971 v 0.38982 h 0.62971 l -0.0103,0.37982 h 0.30985 v 0.37984 h 0.61972 v 0.38982 h 0.61972 v 0.36983 h 2.78873 v 0.38983 h 2.47887 v 0.37982 h 1.23943 v 0.37983 h 0.92957 v 0.38981 l 0.61973,-0.0103 v 0.76964 h 0.29986 v 0.37984 h 0.30985 v 0.37982 h 1.5493 v 0.37786 h 0.30985 v 0.38981 h 0.30987 v 0.38983 l 0.30985,-0.0103 v 0.37982 h 0.30986 v 0.37983 h 0.30987 v 0.38983 h 0.30985 v 0.37982 h 0.30987 v 0.76964 l 0.30985,-0.0103 v 2.67878 h 0.92958 v 0.38982 h 0.61972 v 0.37982 h 0.6197 v 0.37984 h 0.60974 v 0.37982 h 0.93956 v 0.37983 h 3.70831 v 0.38981 h 0.30985 v 0.37984 h 0.30987 v 0.37982 h 0.31986 v 0.38982 l 0.29987,-0.0103 v 0.38982 h 0.30992 v 0.75966 h 0.30985 v 0.38981 h 0.31986 l -0.0103,0.37983 h 0.30986 v 0.75966 h -0.29987 v 0.37982 h 0.29987 v 0.77965 l 0.30985,-0.0103 v 0.75966 l 0.30987,0.0103 v 0.37982 h 0.30985 v 0.37984 h 0.30985 v 0.76964 h 0.30987 v 0.75966 h 0.30986 v 0.38982 l 0.30985,-0.0103 v 1.13949 h -0.30985 v 3.0586 h 0.30985 v 0.38982 h 1.23944 v 0.37982 h 0.61973 v 0.37984 l 1.23942,-0.0103 v 0.38983 h 1.23943 v -0.38983 h 0.60973 v -0.36983 h 1.85915 v 0.36983 h 0.31986 v 0.38983 h 0.44979 0.15991 v 0.38982 h 0.61972 v 0.37982 h 0.61973 v 0.38983 l 0.30985,-0.0103 v 0.38983 h 0.30985 v 0.36982 h 1.23945 v 0.38983 h 0.30985 v 0.37982 h 0.61972 v 0.37984 h 2.46887 v 0.3898 l 0.30987,-0.0103 v 0.37982 h 1.54928 v 0.38982 h 0.93958 v 0.37984 h 0.91958 v 0.38981 l 0.62971,-0.0103 v 0.37984 h 0.29987 v 1.14946 h 0.30985 v 0.75965 h 0.31986 v 0.38983 h 0.29986 v 0.37984 h 0.30985 v 0.37982 h 0.30986 v 0.37981 h 0.30987 v 0.38983 h 0.92957 v -0.38983 h 0.30985 v -0.37981 h 0.61973 v -0.37982 l 0.30985,0.0103 v -0.77965 h 0.61972 v -0.37982 h 1.5493 v -0.37983 h 1.22944 v 0.37983 h 0.31986 v 0.37982 h 0.30985 v 0.38983 h 0.29986 v 0.38982 l 0.92958,-0.0103 v 0.37982 h 1.16946 1.30941 v -0.37982 l 0.31986,0.0103 v -0.64971 -0.50976 h -0.31986 v -0.37983 h 0.30985 v -0.75966 h 0.92958 v -0.38981 h 1.23944 v -0.37983 h 1.22944 v 0.37983 h 0.62971 v 0.38981 h 1.23943 v -0.38981 h 0.60973 v -0.37983 l 0.31984,0.0103 v -0.3898 h 1.22946 v -0.37984 h 0.30985 v -0.38983 h 0.2299 0.0899 v -0.37982 l 0.29986,0.0103 v -0.27986 -0.10988 h 0.6197 v -0.37983 h 0.61973 v -0.37982 h 0.72966 0.19991 v -0.17993 -0.2099 h -0.30985 v -0.36983 h -0.30987 v -0.38982 h 0.92957 v -0.37993 h 0.30987 v -0.37982 h 0.92958 v -0.77965 h 0.92957 v -0.36983 h 0.30986 v -0.37982 h 0.30987 v -0.38983 h 0.30985 V 826.597 h 0.29986 v -0.75966 h 0.62971 v -0.38982 l 0.92958,0.0103 v -0.76964 h 0.30985 v -0.37984 h 0.18992 0.12002 v -0.0999 -0.28986 h 0.31986 0.28985 v -0.37982 l 0.48978,0.0103 h 0.13997 v -0.38981 h 0.91959 v -0.37984 h 0.31986 v -1.13947 h 0.29986 v -0.38983 l 2.47887,0.0103 v -0.38981 h 0.45978 0.4698 v -0.37984 h 0.30985 v -0.38982 h 0.61972 v -0.38981 l 0.61971,0.0103 v -0.37983 l 0.30987,0.0103 v -1.15948 h 0.30985 v -0.12002 -1.01954 h -0.30985 v -1.14946 h 1.23942 v -0.38983 h 0.97956 0.25989 v 0.67969 0.0899 h 0.0899 l 0.20991,-0.0103 v 0.13997 0.24989 h 0.31985 v 0.38981 h 0.91958 v 0.37983 h 0.18992 0.12999 v 0.36983 h 0.91959 v -0.36983 h 0.30985 v -0.37983 h 0.62971 v -0.77964 l 0.29986,0.0103 v -3.43844 h -0.29986 v -0.76964 h -0.31986 v 0.38983 h -0.6197 v 0.37981 h -0.30987 v 0.37984 h -0.60972 v -1.52932 h -0.31986 v -0.32983 -0.4298 h -0.30985 v -1.53931 h 0.30985 v -0.75966 h 0.31986 v -0.37981 h 0.30985 v -0.38983 h 0.60974 v -0.37984 h 0.31984 v -0.37982 h 0.29986 v -0.37983 h 0.62971 v -0.76965 h 0.29987 v -0.37981 h 0.61972 v -0.37984 h 0.31986 v -0.37982 h 0.29986 v -0.38983 l 0.30985,0.0103 v -0.38981 h 0.92958 v -0.37983 l 2.16902,0.0103 v -0.77963 h 0.30985 v -0.75966 l 0.30985,0.0103 v -1.15947 h 0.30987 v -0.37982 l 0.30986,0.0103 v -0.38983 h 0.30985 v -0.37982 h 0.30987 v -0.38982 -0.37982 h 0.29986 v -0.38983 l 2.17901,0.0103 v -0.37982 h 0.91957 v -0.37984 h 0.62971 v -0.77963 l 0.29988,0.0103 v -0.37984 h 0.30985 v -0.37982 h 0.61973 v -0.38983 h 1.85915 v 0.38983 h 0.92957 v -0.38983 h 1.5493 v -0.37981 h 1.85915 v -0.37984 h 0.6197 v -0.38981 h 0.61973 v 0.38981 h 0.61972 v 0.37984 h 0.30985 v 0.37981 h 0.30987 v 0.38983 h 0.60971 v -0.38983 h 0.31986 v -0.37981 h 0.91957 v -0.37984 h 1.5493 v 0.37984 h 0.30987 v 1.90911 h 0.17991 0.13997 v 0.76967 h 0.29986 v 0.75965 h 0.30987 v 0.76965 h 0.30985 v 0.37981 h 0.62971 l -0.0103,0.75966 h 0.30985 v 0.76964 h 0.30985 v 0.38983 l 0.30987,-0.0103 v -0.37983 h 0.30985 v -0.37982 h 1.5493 v 0.37982 h 0.91959 v 0.37983 h 0.31984 v 0.38983 h 0.29986 v -0.76966 h 0.30987 v -0.76965 h 0.31984 v -0.75965 h -0.62971 v -0.37982 h -0.92957 l 0.0103,-0.38983 h -0.61972 v -0.37982 h -0.61972 v -0.38982 h -0.30985 v -0.36983 h -0.92958 v -1.90914 h -0.30987 v -1.91912 h 0.30987 v -0.75966 h 0.30985 v -0.60971 -0.53977 l 0.30987,-0.0103 v -0.74967 h 0.56974 0.05 v -0.06 -0.32985 h 0.30987 v -0.37984 h 0.30985 v -0.38982 h 0.29986 v -1.5293 h 0.30986 v -0.37982 l 0.30986,0.0103 v -0.38983 l 0.61971,0.0103 v -0.38983 h 0.93958 v -0.38982 l 0.30986,0.0103 v -0.76964 h 0.30985 v -0.37982 h 0.29988 v -0.37984 h 0.62971 v -0.38982 l 0.29986,0.0103 v -0.38982 h 0.30985 v -0.37982 h 0.92958 v -0.37984 h 0.61972 v -0.37982 h 0.62971 v -0.38982 l 0.29987,0.0103 v -0.38982 h 0.30985 v -0.37982 h 0.92957 v -0.37984 h 0.30987 v -0.38981 h 0.61971 v -0.38982 l 0.92957,0.0103 v -0.37982 l 0.30987,0.0103 v -0.38982 h 0.30986 v -0.38983 h 0.60973 v -0.37982 h 0.31984 v -0.38982 h 0.61972 v -1.13948 h 1.23943 v 0.38983 h 1.22944 v 0.37982 h 0.61972 v 1.91912 l 3.40845,-0.0103 v 0.37982 h 0.19991 l 1.03953,-0.0103 v 0.38982 h 0.30986 v -0.75965 h 0.30985 v -0.37984 h 0.29986 v -0.38982 h 0.31986 v -1.13948 h 0.30985 v -1.53929 l -0.30985,0.0103 v -0.2099 -0.55974 h -0.31986 v -0.28988 -0.0999 h -0.05 l -0.24989,0.0103 v -2.63628 h 1.23944 v 0.37984 h 0.61971 v 0.36983 l 0.30987,0.0199 v 0.37983 h 0.6197 v 0.37982 h 0.29987 v -0.37982 h 0.61972 v -1.5293 h -0.29986 l -0.0103,-0.37983 -0.30987,-0.0103 v -0.75966 h 0.61972 v -0.37981 h 0.92958 v -0.37984 h 0.30987 v -0.38983 h 0.6197 v -0.37982 h 0.30987 v -0.37983 h 0.30985 v -1.14947 h 0.30986 v -1.52929 h -0.30986 v -0.37984 h -0.30985 v -0.76965 h -0.29986 v -0.37983 h -0.30987 v -1.14947 h 0.30987 v -0.37983 h 0.60971 v -0.37982 h 0.30986 v -0.37984 h 0.30987 v -0.76964 h 0.30985 v -0.37982 h 0.30985 v -0.37984 h 0.30987 v -0.37981 h 0.30985 v -0.62972 -0.13996 h 0.0999 0.2199 v -0.33984 -0.05 h 0.0299 0.26988 l 0.0103,-0.36985 0.29987,-0.0103 v -0.37982 h 0.30987 v -0.52976 -0.23991 h 0.1899 0.12002 v -0.15991 -0.2199 h 0.17991 0.12999 v -0.18992 -0.18992 h 0.12002 0.18992 v -0.27986 -0.0999 h 0.06 0.24988 v -0.4098 -0.35984 h 0.18991 0.11985 v -0.21991 -0.15991 h 0.0899 0.21991 v -0.30985 -0.07 h 0.05 0.24989 v -0.38982 l 0.31984,0.0103 v -0.52975 -0.23989 h 0.10988 0.19991 v -0.37982 h 0.30985 v -0.38983 h 0.30987 v -0.75965 l 0.29986,0.0103 v -0.46979 -0.30985 h 0.19991 0.11985 v -0.15991 -0.21991 h 0.14994 0.15991 v -0.21989 -0.16988 h 0.14994 l 0.15991,0.0103 v -0.13 -0.24989 h 0.27987 l 0.0199,-0.0199 v -0.35984 h 0.31986 v -0.38982 h 0.29987 v -0.38983 h 0.31984 v -0.37982 l 0.2299,0.0103 h 0.08 v -0.12999 -0.63971 h 0.29999 v -0.37983 h 0.44979 0.17993 v -0.2099 -0.55975 h 0.29986 v -0.37982 h 0.30985 v -1.14948 h 0.92958 v -0.37983 h 0.30987 v -0.37982 h 0.30985 v -0.38983 h 0.30985 v -0.37982 h 0.30987 v -0.37983 h 0.30985 v -0.37982 h 0.70969 0.21989 v -0.25989 -0.12999 h 0.08 0.8496 v -0.37982 h 0.30987 v -1.07951 -0.44981 h 0.30985 v -1.13947 h 0.30985 v -0.38983 h 0.29986 v -0.38982 h 0.31986 v -0.37982 l 0.30986,0.0103 v -0.38981 l 0.61972,0.0103 v -0.77965 h 0.30985 v -0.37982 l 0.29986,0.0103 v -0.38983 h 0.62973 v -0.37981 h 1.53929 l 0.0103,-0.38983 h 3.39846 v 0.77965 l 0.38982,-0.0103 h 0.2299 v -0.37981 h 0.30985 v -0.38983 h 2.47887 v -0.75965 l 0.29987,0.0103 v -1.15947 h 0.31986 v -0.37982 h -0.30987 v -0.37982 h -0.30986 v -0.37983 h -0.61972 v -0.76965 h 0.30986 v -1.5293 h 0.30986 v -0.38982 h 0.29987 v -0.37984 h 0.31986 v -0.75965 h 0.30985 v -0.38981 l 0.30985,0.0103 v -0.76964 h 0.30987 v -1.14948 h 0.30985 v -1.14948 h 0.30986 v -0.75966 h 0.30987 v -0.37982 h 0.60971 v -1.14948 h 0.30985 v -0.37982 h 0.31986 v -0.38982 h 0.29987 v -0.37984 h 0.30987 v -0.76931 h 0.61968 v -1.13948 h 0.31986 v -0.76964 h 0.60972 v -0.75966 h 0.30987 v -0.76966 h 0.30985 v -0.37982 h 0.30985 v -0.38982 l 0.31986,0.0103 v -0.76964 h 0.29986 v -0.37982 h 0.30986 v -0.76964 h 0.30987 v -0.75966 h 0.30985 v -0.76966 h 0.29986 v -0.76965 h 0.31986 v -0.36982 h 0.30985 v -0.38983 h 0.30987 v -0.37982 h 0.31985 v -0.76966 h 0.29986 v -0.39198 h 0.30987 v -0.36983 h 0.30985 v -0.76966 h 0.30985 v -0.38981 h 0.30987 v -0.74966 h 0.30986 v -0.38983 h 0.30985 v -0.38982 l 0.30987,0.0103 v -0.76966 h 0.30985 v -0.37982 l -0.0103,-0.76964 0.31986,0.0103 v -0.59972 -1.3194 l 0.30986,0.0103 V 705.061 h 0.30985 v -0.38983 h 0.60973 v -0.75965 h 0.30985 v -0.76965 h 0.31986 v -0.38982 l 0.30986,0.0103 v -0.75959 h 0.30985 v -0.77965 l 0.30987,0.0103 v -0.38981 l 0.29986,0.0103 v -0.76964 h 0.30985 v -1.14948 h 0.30986 v -0.37982 h 0.30987 v -0.38983 h 0.30985 v -0.37983 l 0.30987,0.0103 v -0.76966 h 0.30985 v -0.76964 h 0.31986 v -0.38983 l 0.30985,0.0103 v -0.37984 h 0.29987 v -0.76964 h 0.30985 v -0.76965 h 0.30987 v -0.75965 h 0.30985 v -0.38983 l 0.30985,0.0103 v -0.76965 h 0.30987 v -0.76964 l 0.30986,0.0103 v -0.76964 h 0.30985 v -0.37984 h 0.30987 v -0.38981 h 0.30985 v -0.75965 h 0.30987 v -1.14948 h 0.30985 v -0.75966 h 0.30986 v -0.38982 h 0.29986 v -0.76965 h 0.31986 v -0.37982 h 0.30985 v -0.75965 h 0.29986 v -0.38983 h 0.30987 v -0.76964 l 0.31985,0.0103 v -0.38983 h 0.30987 v -0.37982 h 0.30985 v -0.76966 h 0.31986 v -1.13947 h 0.29986 v -0.38983 h 0.30985 v -1.13947 h 0.60974 v -1.07952 -0.07 h 0.0399 l 0.57972,0.0103 v -1.09949 -0.81961 h 0.30987 v -0.76967 h 0.31985 v -0.38981 h 0.29986 v -0.36984 l 0.31986,-0.0103 h 0.29986 v -0.37982 h 0.30985 v -0.37983 h 0.31986 v -0.76965 h 0.29987 v -0.62971 -0.12999 h 0.07 0.2399 v -0.46979 -1.06952 l 0.52976,0.0103 h 0.0999 v -0.21991 -0.16989 h 0.07 0.53975 v -0.37981 h 0.61972 v -1.67924 -0.2299 h 0.12999 0.17991 v -0.40981 -0.35983 h 0.15992 0.14994 v -0.31986 -0.06 h 0.0299 0.27988 v -0.38982 h 0.30985 v -0.37982 h 0.30985 v -0.76965 h 0.29988 v -0.37983 h 0.31984 v -0.38983 h 0.61973 v -1.13947 h 0.29986 v -0.38983 h 0.30985 v -0.37982 h 0.30987 v -0.75965 -0.76965 h 0.31984 v -0.75965 h 0.60974 v -0.38983 h 0.30985 v -0.37983 h 0.28987 l 0.0299,-0.0299 v -0.34985 h 0.26988 0.0399 v -0.06 -0.31986 h 0.2199 0.08 v -0.13997 -0.24987 h 0.16989 0.13996 v -0.19991 -0.17993 h 0.10988 0.19991 v -0.32985 -0.81961 h 0.31986 v -0.76966 h 0.57972 0.33984 v -0.38981 h 0.93959 v -1.52932 h 0.29986 v -0.4298 -0.31985 h 0.22989 0.08 v -0.12002 -0.6597 l 0.30985,0.0103 v -0.38981 h 0.30987 v -0.75966 h 0.30986 v -0.38982 l 0.30985,0.0103 v -0.38981 l 0.30987,0.0103 v -0.76964 h 0.30985 v -0.38983 h 0.30987 v -0.37983 h 0.30985 v -0.37982 h 0.33984 0.27989 v -0.37984 h 0.30985 v -0.38981 h 0.31986 v -0.69968 -0.07 h 0.05 l 0.24989,0.0103 v -0.37984 h 0.31984 l -0.0103,-0.57973 v -0.18973 h 0.10987 0.19991 v -0.34985 -1.17945 h 0.30987 v -0.77966 l 0.30985,0.0103 v -0.37983 h 0.61972 v -0.76965 h 0.30986 v -0.38983 l 0.47979,0.0103 h 0.13996 v -0.19991 -0.17991 h 0.13 0.17991 v -0.26987 -0.12002 h 0.08 0.06 0.15992 v -0.31986 -0.06 h 0.05 0.26988 v -0.38983 l 0.30985,0.0103 v -0.38983 l 0.29986,0.0103 v -0.54976 -0.2199 h 0.14994 0.15992 v -0.25987 -0.4298 -0.4598 h 0.30985 v -0.37983 h 0.15991 0.14994 v -0.27987 -0.48978 h 0.26989 0.34983 v -0.38982 h 0.2299 0.0899 v -0.11985 -0.2499 h 0.16988 0.13 v -0.1999 -0.56974 h 0.30985 v -0.38983 h 0.30987 v -0.37982 h 0.61971 v -0.75965 h 0.30987 v -0.38983 l 0.6197,-0.0103 v -0.36985 h 0.2299 0.0799 v -0.16989 -0.20989 h 0.13997 0.16989 v -0.30986 -0.08 h 0.0399 l 0.26987,0.0103 v -0.47979 -0.29986 l 0.16989,0.0103 h 0.13997 v -0.21989 -0.54976 h 0.30985 v -0.76964 h 0.30987 v -0.37984 h 0.56973 0.05 v -0.07 -0.30985 l 0.17993,0.0103 h 0.12999 v -0.21989 -0.16988 h 0.10988 0.19991 v -0.2299 -0.54974 l 0.30985,0.0103 v -0.37982 l 0.61972,0.0103 v -0.38983 h 0.30985 v -0.38982 h 0.30987 v -0.37982 h 0.29987 v -0.38983 h 0.62971 v -0.38982 l 0.29986,0.0103 v -0.37983 h 0.30985 v -0.37982 h 0.30987 v -0.38983 h 0.30986 v -0.38982 l 0.30985,0.0103 v -0.38982 h 0.30987 v -0.36983 h 0.30985 v -0.38983 h 0.30985 v -0.38983 l 0.30987,0.0103 v -0.38981 h 0.30986 v -0.37983 h 0.30985 l 0.0103,-0.37982 h 0.60971 v -0.38983 l 0.61972,0.0103 v -0.38983 l 1.85915,0.0103 v -0.76966 h 0.30986 v -0.38981 h 0.30987 v -0.37984 h 0.30985 v -0.37982 h 0.29986 v -0.76964 h 0.30985 v -0.38983 h 2.47888 v -0.37983 h 0.31986 v -0.37982 h 0.29986 v -0.37984 h 0.62971 v -0.38981 h 0.60972 v -0.37983 h 0.31986 v -0.38899 h 1.5393 v 0.37982 h 2.169 v -0.37982 h 0.61973 v -0.37983 h 0.30985 v -0.38983 l 0.30987,0.0103 v -0.76966 h 0.30985 v -0.38981 h 1.85915 v 0.38981 h 0.61972 v 0.37983 h 0.30986 v 0.37982 h 0.91958 v 0.38983 h 2.17901 v 0.19991 0.17992 h 0.29986 v 0.37982 h 0.30986 v 0.37984 h 1.24943 v -1.30941 -0.21991 h -0.30987 v -1.90912 h 0.29988 v -0.37983 h 0.30985 v -0.38981 h 0.31986 v -0.37984 h 1.70921 0.13997 v -0.13996 -0.2499 h 0.25988 0.6697 v 0.77965 l 0.92957,-0.0103 v -0.37984 h 0.30987 v -0.38983 h -0.92957 v -0.37981 l -0.30987,0.0103 v -0.29986 -0.0899 l -0.30986,0.0103 v -0.77965 h 0.30986 v -0.76965 l 0.30987,0.0103 v -0.37982 h 0.30985 v -0.38983 h 0.29986 v -0.37983 h 0.31986 v -0.38981 h 0.30985 v -0.38983 l 0.30987,0.0103 v -0.37982 h 0.30986 v -0.37984 h 0.61972 v -0.38981 h 0.6197 v -0.38982 l 0.30987,0.0103 v -0.38983 h 0.61971 v -0.37982 l 0.30987,0.0103 v -0.38983 h 0.29986 v -0.38981 l 0.30985,0.0103 v -0.38983 h 0.31986 v -0.37982 l 0.30986,0.0103 v -0.77965 l 0.30987,0.0103 v -0.38983 h 0.29986 v -0.37984 h 0.30985 v -0.38981 h 0.92957 v -0.37983 h 1.5493 l -0.0103,0.37983 h 0.62971 v -0.37983 h 0.30985 v -0.37982 h 0.30985 V 600.95 h 0.30987 v -0.38982 h 0.61971 v -0.37982 h 2.47887 v -0.37982 h 1.5493 v -0.38983 h 1.53929 v -0.37983 h 0.30987 v -0.37982 h 0.30985 v -0.76965 h 0.30987 v -0.38982 l 0.30985,0.0103 v -0.38983 h 0.61972 v -0.37982 h 1.85915 v -0.38983 h 0.61971 v -0.37981 l 0.30987,0.0103 v -0.38982 h 0.61972 v -0.37982 h 0.30985 v -0.38983 h 0.61973 v -0.37983 h 0.2099 2.26895 v 0.37983 h 0.92958 v -0.37983 h 0.30987 v -0.70967 -0.05 h 0.30985 v -0.76966 h 0.30987 v -0.76965 h -0.31986 v -0.37982 h -0.29986 v -0.37983 h -1.5493 v -1.14948 h 0.30985 v -0.37982 h 2.77874 v 0.37982 h 0.92957 v 0.38982 l 0.30987,-0.0103 v -0.37984 h 0.92958 0.61972 v -0.37982 h 0.30985 v -0.38983 h 0.30985 v -0.38982 h 0.30987 v -0.36983 l 0.30986,-0.0103 v -0.37983 h 0.30985 v -0.37982 h 0.30987 v -0.76965 h 0.30985 v -0.37983 h 1.23943 v 0.37983 h 1.5493 v -0.37983 h 0.61972 v -0.37982 h 0.60971 v -0.38983 h 0.31986 v -0.37982 h 0.60972 v -0.37983 h 0.93958 v 0.37983 h 2.46887 v -0.37983 h 0.30987 v -0.38983 l 0.31984,0.0103 v -0.38983 h 0.29986 v -0.38982 l 0.30987,0.0103 v -0.37982 h 0.30985 v -0.38982 h 0.30987 v -0.37982 h 0.30986 v -0.38983 h 0.92957 v -0.37983 h 0.30985 v -0.37982 h 0.30987 v -0.37984 h 0.30985 v -0.38981 h 0.30986 v -1.5293 h 0.30987 v -0.38982 h 0.30985 v -0.37984 h 0.30985 v -0.37982 h 0.61972 v -0.37983 h 0.30986 v -0.38981 h 0.92959 v -0.37984 h 1.22944 v -0.38982 l 0.92957,0.0103 v -0.38982 l 0.61971,0.0103 v -0.38982 h 0.92959 v -0.38981 h 1.54928 v -0.37984 l 0.61972,0.0103 v -0.38981 h 0.30985 v 0.38981 l 0.61973,-0.0103 v 0.37984 h 0.92957 v -0.37984 l 2.78873,0.0103 v -0.38981 h 0.61972 v 0.38981 l 0.61972,-0.0103 v 0.37984 h 0.91959 v 0.38981 h 0.92957 v -0.38981 h 0.93957 v -0.37984 l 0.29986,0.0103 v -0.38981 h 4.02817 v 0.38981 l 0.29986,-0.0103 v 0.37984 h 0.31984 v -0.37984 l 0.9296,0.0103 v -0.38981 h 0.92957 v 0.38981 h 0.92958 v -0.38981 h 0.91956 v -0.37984 h 1.23945 v 0.37984 h 1.85915 v -0.37984 h 0.92957 v 0.37984 h 1.5493 v 0.38981 l 0.30985,-0.0103 v 0.37984 h 1.85915 v 0.38981 h 2.16902 v 0.38982 l 0.61972,-0.0103 v 0.38982 l 0.30986,-0.0103 v 0.38982 h 0.60971 v 0.37984 h 0.62971 v 0.38981 h 0.29987 v 0.75965 h 0.30987 v 1.53931 h -0.30987 v 0.37982 l -0.29987,-0.0103 v 0.38983 h -0.30985 v 0.38981 h 0.30985 l -0.0103,0.75965 h 0.61972 v 0.37984 h 0.31984 v -0.37984 h 1.84916 v 0.76966 h 0.30987 l 0.0103,0.38981 0.29986,-0.0103 v 0.38983 h 0.61972 v 0.37982 l 0.92958,-0.0103 v 0.77966 l 0.30985,-0.0103 v 0.38982 h 0.30989 v 0.37984 h 0.29987 v 0.76965 h 0.31986 v 0.37981 h 0.30987 v 0.76967 l 0.30985,-0.0103 v 0.76964 h 0.30985 v 2.29897 H 769.136 v 0.37981 h -0.30985 v -0.75965 h -0.30987 v -0.37982 h -1.5493 v 0.37982 h -0.40981 -0.2099 v 0.37984 h -0.61972 v 0.76964 h -0.30985 v 0.37984 h -0.30987 v 1.14946 h 0.30987 l 0.0103,0.37984 h 0.60971 v -0.37984 h 1.23945 v 0.37984 h 0.11984 0.49977 v 0.38982 h 0.61973 v -0.38982 h 0.61972 v -0.37984 h 0.61972 v -0.37982 h 0.61971 v -0.38982 l 0.91958,0.0103 v -0.38981 h 0.92958 v 0.38981 l 0.62971,-0.0103 v 0.38982 h 0.29986 v 1.90912 h 0.31986 v 0.37984 h 0.60972 v 0.38982 h 0.30987 v 0.37982 h 0.6197 v 0.38983 l 0.30987,-0.0103 v 0.37982 h 0.61971 v 0.38983 h 0.30987 v -0.38983 h 0.92957 v 0.38983 h 0.92958 v 0.38982 l 0.61972,-0.0103 v 0.38983 h 1.23943 v -0.38983 h 0.30985 v -0.37981 h 0.30987 v -0.38983 h 0.30985 v -0.37982 l 0.30985,0.0103 v -0.38983 h 0.30987 v -0.37982 h 0.30986 v -0.38982 h 1.23944 v 0.38982 h 0.29986 v 0.76965 l 0.30986,-0.0103 v 0.37982 h 0.30985 v 0.38983 h 0.62971 l -0.0103,0.37981 h 0.61973 v 0.38983 l 0.62971,-0.0103 v 0.38983 h 0.60971 v 0.37982 h 0.61973 v 0.38982 h 0.30985 v 0.37982 h 2.78874 v 0.37984 h 0.92958 v 0.38983 h 0.61975 v 0.37981 h 0.6197 v 0.37982 h 0.3098 v 0.38983 h 0.3099 v 0.75965 h 0.3098 v 0.37984 h 0.3099 v 0.38981 h 0.6197 v -0.38981 h 0.6098 v -0.37984 h 1.2394 v 0.37984 h 1.2494 l -0.01,0.38981 h 0.9296 v -0.38981 h 0.3198 l -0.01,0.38981 h 0.9296 v 0.37983 h 0.9296 v 0.38983 l 0.3098,-0.0103 v 0.38983 h 0.3099 v 0.76965 l 0.3098,-0.0103 v 0.38982 l 0.3099,-0.0103 v 2.30893 h 0.3099 v 0.37984 h 0.6197 v 0.37982 h 1.0395 l 1.1195,-0.0103 V 607.454 h 0.6297 v -0.37983 h 0.3099 v -0.77964 l 0.3098,0.0103 V 605.915 h 0.2999 v -0.37982 l -0.3099,0.0103 v -0.38983 h 0.3099 v -1.14946 l -0.3099,0.0103 0.01,-0.38983 h -0.3098 v -0.38983 l -0.3099,0.0103 v -0.38983 h -0.3198 v -0.37983 h -0.3099 l 0.01,-2.29895 h -0.3098 v -1.14948 h 0.2999 l 0.01,-0.37982 h -0.3099 v -0.38982 h -0.3099 v -0.37982 h -0.3198 l 0.01,-1.14948 h -0.3098 v -0.38983 l -0.3099,0.0103 v -0.76965 l -0.3198,0.0103 v -0.77963 h -0.2999 v -0.37984 h -0.3099 v -0.37982 h -0.6197 v -0.37982 h -0.3098 v -0.38982 h -0.6198 v -0.37984 h -0.3098 v -0.37982 h -0.3099 v -0.38982 h -0.3098 v -0.37982 h -0.6198 v -0.76966 h -0.3098 v -0.75966 h -1.2394 v -0.76964 h -0.2999 v -0.38983 h 0.2999 v -0.75966 h -0.2999 v -0.76964 h -0.3199 v -0.37982 h -0.3098 v -0.37983 h 0.3098 v -0.37982 h -0.3098 v -0.38983 h -0.3099 v -0.37982 h -0.3098 v -0.37983 h -0.9296 v -1.15948 l -0.2999,0.0103 v -0.76964 h -0.3198 v -0.76965 h -0.2999 v -0.37983 h -0.6197 v -0.37982 h -0.3099 v -0.37984 h -0.3098 v -0.38981 h -0.6198 v -0.24989 -0.13997 l -0.3098,0.0103 v -0.37982 h 0.7496 0.18 v -0.38983 h 0.3098 v -0.37982 h 0.3099 v -0.31986 -1.20945 h 0.3098 v -0.76965 h 0.6098 v -1.14948 h 0.6197 v -0.38981 l 0.9296,-0.0103 v -0.74965 h 0.3098 v -0.37984 h 0.3099 v -0.38982 h 0.6197 v -0.75964 h 0.3099 v -0.76966 h 0.3098 v -0.75966 h 0.3099 v -0.38981 h 1.2494 l -0.01,-0.37983 h 2.4788 v -0.37982 h 0.3099 v -0.38983 h 0.3099 v -0.38982 h 0.2998 v -0.36983 h 0.3099 v -0.38983 h 0.6297 v -0.38982 h 0.3098 v -0.37982 l 0.6198,0.0103 v -0.38946 h 0.9196 v -0.37982 h 1.2394 v 0.37982 h 0.6197 v 0.38982 l 0.3199,-0.0103 v 0.37982 h 0.2998 v 0.77965 h 0.3099 v 0.37982 h 0.1 l 1.4493,-0.0103 v -0.36983 h 0.3099 v -0.77968 h -0.3099 v -1.90912 h 0.3099 v -0.75965 h 0.3098 v -0.76965 h 0.3099 v -0.76966 h -0.3099 v -1.5293 l -0.6197,0.0103 v -0.38981 h -0.3098 l 0.01,-0.38983 h -0.3199 v -0.76964 h -0.3098 v -0.75964 h -0.3099 v -1.90913 h -0.2999 v -0.36983 -0.40981 l 0.2999,0.0103 v -0.38983 l 0.3099,0.0103 v -0.76965 h 0.3098 v -0.38982 h 0.3199 l -0.01,-0.76965 0.3098,0.0103 v -0.14994 -0.23989 h 0.3099 v -0.37983 -0.37982 h 0.6197 v -0.37984 h 0.6197 v -0.38982 h 0.3099 v -0.76965 h 0.3098 v -0.37982 l 0.6098,0.0103 v -0.73966 -0.31986 -0.48978 l -0.6098,0.0103 v -0.37984 h -0.3098 v -0.38982 h -0.8496 -1.0096 v -0.37982 h -0.9295 v 0.37982 h -0.6298 -0.2998 v 0.38982 h -0.2999 v 1.14948 h -1.5593 v -0.38982 h -0.3098 l 0.01,-0.75966 h -0.6197 v -0.38982 h -0.3499 -0.2798 v -1.14947 h -0.2999 v -0.37983 h 0.1499 0.4598 v -1.15947 l 0.3199,0.0103 v -0.19991 -0.17991 h 0.2998 v -0.38982 l 0.6198,0.0103 v -0.77963 l 0.3198,0.0103 v -1.53929 h -0.3198 v -0.75966 h 0.3198 v -0.38982 h 1.8492 v 0.38982 h 0.6197 v 0.37982 h 0.9296 v 1.14948 h -0.3099 v 0.37982 h 0.6197 v 0.38983 l 0.3099,-0.0103 v 0.38983 h 1.8591 v -0.38983 l 0.6197,0.0103 v -0.76965 h 0.3099 v -0.38982 h 0.6197 v -0.75966 h 0.3099 v -0.37982 h 0.3098 v -0.38982 h 0.9196 v 0.38982 h 0.6297 v 0.37982 h -0.3098 v 0.37984 h 0.2199 0.7097 v -0.33986 -0.80962 h 0.2998 v -0.37982 h 0.2199 0.09 v -0.4598 -0.29986 h 0.3099 v -0.38982 h 0.3199 v -0.4398 -0.71967 h 0.2998 v -0.37984 h 0.3099 v -0.37982 h 0.3098 v -0.37984 h 0.3199 v -0.3898 h 0.3099 v -0.37984 h 0.2998 v -0.37982 h 0.3099 v -0.37984 h 0.3098 v -0.3898 h 0.3099 v -0.75966 h -0.6197 v -0.38982 h -1.5493 v 0.38982 h -0.6097 v 0.37982 l -2.7888,-0.0103 v 0.38983 h -0.6197 v 0.38981 h -0.9296 v 0.37983 h -0.9295 v 0.37982 h -0.9296 v 0.37984 h -0.9296 v -0.37984 h -0.3698 -0.2499 v -0.37982 h -0.6197 l 0.01,-0.37983 h -0.3199 v -0.38981 h -0.3098 v -1.14948 l -0.3099,0.0103 v -0.38983 h -0.6197 v -0.38981 l -1.2394,0.0103 v -0.38983 h -0.9196 v -0.37982 h -0.6197 v -0.38982 h -0.3199 v -0.37984 h -0.2999 v -0.37982 h -0.3098 v -0.37983 h -0.6297 l 0.01,-0.38981 h -2.169 v -0.37984 h -0.3099 v 0.37984 h -0.6197 v 0.38981 h -1.2394 v 0.37983 h -1.5493 v 0.37982 h -1.5493 v 0.37984 h -0.3099 v -0.37984 h -0.6197 v -0.37982 h -0.9296 v 0.37982 h -0.2998 v 0.37984 h -0.6198 v 0.39981 l -0.3098,-0.0103 v 0.37981 h -0.6197 v 0.38983 l -0.6297,-0.0103 v 1.15947 h -1.22949 v 0.37982 h -1.85915 v -0.37982 h -1.23942 v -0.38982 l -0.92958,0.0103 v -0.38983 h -0.30987 v -0.76965 h -0.6197 v -0.37981 h -0.9296 v -0.38983 h -0.30985 v -1.13949 h -0.29986 v -1.15947 h -0.31986 v -0.75966 h -0.61971 v -0.47977 -1.82916 h 0.30986 v -0.37984 l 0.31986,0.0103 v -0.76966 h 0.29986 v -0.38981 h 0.31984 v -0.37984 h 0.29986 v -0.37982 h 0.30987 v -0.37983 h 0.30986 v -1.15947 l 0.30987,0.0103 v -0.38981 l -0.30987,0.0103 v -0.76964 h 0.30987 v -1.14948 h -0.30987 v -1.15948 h 0.31986 v -1.91912 l -0.31986,0.0103 v -0.76965 h 0.62971 v -0.76964 l -0.31984,0.0103 v -0.76964 h 0.30985 v -1.53931 l 0.30985,0.0103 v -1.91913 h 0.30987 v -1.53931 h 0.30985 v -1.91912 h 0.30986 v -1.5293 h 0.30987 v -1.91913 h 0.30985 v -1.5293 h 0.30985 v -1.5293 h 0.30987 v -1.5393 h 0.30985 l 0.0103,-0.37982 0.29986,-0.0103 v -2.67878 h 0.30987 v -0.37984 h 0.30986 v -1.53929 l 0.30987,0.0103 v -2.29894 h 0.30985 v -0.76966 h 0.31986 l 0.0199,-0.38981 h 0.27989 v -1.5293 h 0.30982 v -1.91913 h 0.29986 l 0.01,-1.52932 h 0.2999 v -0.38981 l 0.3198,0.0103 v -0.76964 h 0.3099 v -0.56976 -0.57972 h 0.3099 v -1.5293 h 0.3098 v -0.76965 h 0.6197 v -0.38982 h 0.3099 v -0.37984 l 0.2998,-0.0103 0.01,-0.37982 -0.3099,0.0103 v -0.76964 h -0.04 -0.2698 v -0.38983 l 0.3098,0.0103 v -1.14948 h 0.6097 v -0.76965 h 0.3099 l 0.01,-0.37982 h 0.2999 v -0.38982 h 0.3098 v -0.37984 h 0.3099 v -0.38981 l 0.3098,0.0103 v -0.38983 l 0.3099,0.0103 v -0.77965 h 0.3099 v -0.75966 h 0.3098 v -0.76964 h 0.3099 v -0.37984 h 0.3098 v -0.38981 h 0.3099 v -0.75965 h 0.3099 v -0.38983 h 0.3098 v -0.37984 h 0.3099 v -0.3898 l 0.6097,-0.0103 0.01,-0.37982 0.1699,0.0103 h 0.14 v -0.37982 h 0.2798 0.03 v -0.06 -0.4498 -0.6497 l 0.3098,0.0103 v -0.38983 h 0.3099 v -0.1999 -0.56974 l 0.3098,0.0103 v -0.59973 -0.16989 h 0.3099 v -0.37981 h 0.3099 v -0.12002 -0.64971 h 0.3098 v -0.37982 h 0.3099 v -0.19991 -0.18992 h 0.3098 l -0.01,-0.40981 v -0.35983 h 0.1799 0.13 v -0.37984 h 0.3199 v -0.37982 h 0.4597 0.16 v -0.49977 -0.64971 h 0.3098 v -0.38983 h 0.2799 l 0.02,-0.0401 v -0.33984 h 0.1999 0.1099 v -0.23989 -0.13996 h 0.06 0.2599 v -0.6697 -0.10987 h 0.04 l 0.2599,0.0103 v -0.72967 -0.0401 h 0.3098 v -0.37984 h 0.3099 v -0.76965 h 0.3198 v -0.76964 l 0.3099,0.0103 v -0.70967 -0.07 h 0.04 l 0.2599,0.0103 v -0.38983 h 0.3099 v -0.37981 h 0.3198 v -0.38983 h 0.2999 v -0.75965 h 0.3099 v -0.38983 l 0.3098,0.0103 v -0.25989 -0.12999 h 0.2399 0.07 v -0.0401 -0.72966 h 0.3099 v -0.75966 h 0.3098 v -0.38982 h 0.3099 v -0.37984 h 0.3098 v -0.38981 h 0.3099 v -0.38926 h 0.9296 v -0.36983 h 2.4788 v -1.15947 l 0.3099,0.0103 v -0.38982 l 0.3099,0.0103 v -0.38982 h 0.3098 v -0.38983 h 0.3099 v -0.37982 h 0.3098 v -0.37983 h 1.5493 v 0.37983 h 0.2999 v 0.37982 h 0.3098 v 0.77965 l 0.3199,-0.0103 v 0.76966 l 0.2999,-0.0103 v 0.39982 h 0.3098 v 0.37983 h 0.3099 v 0.36983 h 0.7296 0.2 v -0.36983 h 0.9295 v -0.37983 h 0.3099 v -0.39982 h 0.3099 v -0.37982 l 0.3098,0.0103 v -2.30895 l -0.3098,0.0103 v -0.24989 -0.13997 h 0.07 0.2399 v -1.14948 h 0.3099 v -1.14948 l 0.9296,0.0103 v -1.93912 h -0.3099 v -0.36983 h -0.6197 v -0.37982 h -1.8592 v 0.37982 h -0.6197 v -0.37982 h -0.2999 v -0.39983 h 0.3099 v -0.37982 l -0.3099,0.0103 v -0.38981 h 0.2999 v -2.92867 -0.51977 h -0.6197 v -0.38981 l -0.6197,0.0103 v -0.38983 h -0.2999 v -0.75965 h 0.2999 v -1.15947 h 0.3098 v -0.38983 h 0.9396 v 0.38983 h 0.6097 v 0.38982 h 1.5493 v -0.38982 h 0.6197 v -0.38983 l 0.3099,0.0103 v -0.37984 h 0.2199 0.7097 v -0.38982 h 0.3098 v -0.37982 h 0.6197 v -0.38983 h 0.3099 v -0.38982 l 0.3099,0.0103 v -1.2994 -0.61972 l -0.3099,0.0103 v -1.15947 h 0.3099 v -0.37982 h 0.2399 0.3798 v -0.38982 h 0.3098 v -0.37973 h 1.8592 v 0.76966 h 0.9196 v 0.37982 h 1.2394 v -0.37982 h 0.3099 v -0.38982 l 0.3198,0.0103 v -0.77963 l 0.2999,0.0103 v -0.38983 h 0.6197 v -0.37982 l 3.7083,0.0103 v -0.39982 h 0.3199 v -0.37983 h 0.9196 v -0.37982 h 0.3198 v 0.37982 h 0.3099 v -0.37982 h 0.9295 v -0.37982 h 0.3099 v -0.38983 h 0.3099 v -0.37983 h 1.5093 0.3398 v -0.38981 h 0.3099 v -0.13 -0.62971 h 0.3098 v -0.76966 h 0.3199 v -0.77964 l 0.2999,0.0103 v -0.38983 l 0.3098,0.0103 v -0.37983 h 0.3099 v -0.38983 h 2.179 v -0.38981 l 1.8491,0.0103 v -0.38983 h 0.6198 v -0.37982 h 1.2394 v 0.37982 h 0.6197 v 0.38983 l 0.9296,-0.0103 v 0.38981 h 0.3098 v 0.38983 h 0.3099 l -0.01,0.37983 0.3099,-0.0103 v 0.38983 l 0.3198,-0.0103 v 0.38983 h 0.3099 v 0.38981 h 0.6097 v 0.37983 h 0.3198 v 0.38983 h 0.9196 v -0.38983 h 0.3099 v -0.37983 h 0.3098 v -0.38981 h 1.2395 v 0.38981 h 0.3098 v -0.38981 h 0.9296 v -0.38983 h 1.5493 v 0.38983 h 0.6197 v 0.38981 h 0.3099 v 0.37983 h 0.3098 v 0.38983 h 0.3099 v 0.36983 h 0.3099 v 0.38983 h 0.3298 0.5997 v -0.38983 l 0.2999,0.0103 v -0.37982 h 0.3198 v -0.38983 -0.37983 h 0.2999 v -0.99955 -0.91958 h 0.3099 v -0.38981 l 0.3098,0.0103 v -0.38983 l 0.3199,-0.0199 v -0.74967 h 0.1099 l 0.1999,0.0103 v -1.53929 h 0.6097 v -0.38983 h 0.3199 v -0.37983 h 0.2998 v -1.14947 h 0.6197 v -0.37983 h 0.3099 v -2.68877 h -0.3099 v -0.76965 h -0.3098 v -0.15991 -0.60972 l -0.2999,0.0103 v -0.77965 h -0.3098 v -1.5293 h 0.3098 v -0.37982 h 0.2999 v -0.76966 h -0.3099 v -0.37982 h -0.2998 v -0.76965 l -0.3199,0.0103 v -0.69968 -0.08 h -0.3099 v -1.14948 l 0.3099,0.0103 v -1.16946 h 0.3199 v -0.37984 l 0.2998,0.0103 v -0.38983 h 2.3089 0.08 0.3998 v 0.38983 h 1.2394 v -0.38983 l 0.2999,0.0103 v -0.38982 h 0.3199 v -1.53929 l -0.3199,0.0103 v -2.69876 l -0.2999,0.0103 v -0.38983 h -1.8591 v -0.37982 h -0.6197 v -0.38982 h -0.3099 v -0.37982 h -0.3098 v -1.14948 h -0.3099 v -3.57837 -0.25988 h 0.2099 0.1 v -0.12002 -0.6497 h 0.3099 V 393.198 h 0.3098 v -0.37982 h 0.6197 v -0.37982 h 0.3099 v -0.76966 h 0.6097 v -0.38981 h 0.3199 v -0.37983 l 0.3098,0.0103 v -0.76964 h -0.3098 v -1.15947 h -0.3199 v -0.21991 -0.53975 h 0.1 0.2199 v -0.77963 h 0.3099 v -0.75966 h 0.3098 v -0.37983 h 0.2999 v -0.38983 h 0.3199 v -0.38981 l 0.6197,0.0103 v -0.38983 h 0.3098 v -0.76964 h 0.3099 v -1.5293 h 0.2099 0.1 v -0.17993 -0.2099 l 0.2699,0.0103 h 0.04 v -0.05 -0.33984 h 0.2799 l 0.03,-0.0199 v -0.35983 h 0.1899 0.4298 v 0.37983 h 1.2694 0.5798 v -0.37983 h 0.6197 v -0.37982 h 0.3098 v -1.14948 h -0.3098 v -0.38983 h -0.3099 v -0.37982 h -0.2998 v -0.77965 l 0.2998,0.0103 v -0.76965 h 0.3199 v -1.15947 h 0.2998 v -1.14948 h 0.3099 v -0.3796 h 0.3099 v -0.37982 h 0.3098 v -0.38983 l 0.3099,0.0103 v -0.77965 l -0.6197,0.0103 v -0.38983 l -2.1691,0.0103 v -0.77964 h -0.2998 v -1.14948 h 0.3098 v -1.5293 l 0.2999,0.0103 v -0.77964 h 0.3199 v -0.76966 h 0.2998 v -0.47977 -0.27988 h 0.2399 0.08 v -0.0899 -0.68969 h 0.2998 v -0.37984 h 0.3099 v -0.75964 h 0.3199 v -0.38982 h 0.3098 v -0.38983 l 0.2999,0.0103 v -0.38981 h 0.3098 v -0.37984 h 0.3099 v -0.76964 h 0.3099 v -0.37984 h 0.3098 v -0.38981 l 0.3099,0.0103 v -0.38982 h 0.3098 v -0.76965 h 0.3099 v -0.37984 h 0.3098 v -0.3898 h 1.8592 l -0.01,0.3898 1.5693,0.0103 -0.01,-0.39982 h 0.1799 0.13 v -0.37983 h 1.8591 v 0.37983 h 0.9196 v 0.38981 h 0.3099 v 0.37984 h 0.05 0.2599 v 0.37982 h 0.3099 v 0.38982 h 0.6197 v -0.38982 h 0.3098 v -0.37982 l 0.3099,0.0103 v -1.5493 h 0.3098 v -0.75966 h 0.3099 v -0.3898 h -0.3099 v -0.38983 h 0.3099 v -0.37984 h 0.3099 v -0.75965 h 0.3098 v -0.77964 l 0.3099,0.0103 v -0.76964 h 0.07 0.2399 v -0.76965 l 0.3098,0.0103 v -0.53975 -0.2299 h 0.3099 v -0.76964 h 0.3098 v -0.38983 l 0.3099,0.0103 v -0.38983 h 0.6197 v -0.37982 h 0.3099 v -0.38982 h 0.3098 v -0.76965 h -0.3098 v -0.37983 l 0.3098,0.0103 v -0.38982 h -0.3098 v -0.38983 h -0.6197 v -0.38982 h -0.9196 v -3.06859 l 0.2998,0.0103 v -0.76964 h -0.06 -0.2499 v -0.38983 l 0.3099,0.0103 v -0.38981 h 0.3099 v 0.34983 l 0.3098,0.0299 v -0.35984 -0.78964 l 0.6197,0.0103 v -0.77966 h 0.3099 v -0.37982 h 0.3099 v -0.76966 h 0.3098 v -0.37955 h 0.2999 v -0.38982 h 0.3098 v -0.37982 h 0.3199 v -0.38983 h 0.2999 v -0.37983 h 0.3198 v -0.76965 h 0.3099 v -0.38982 h 0.2998 v -0.37982 h 0.3099 v -0.37984 h 0.3198 v -0.37982 h 0.3099 v -0.38982 h 0.2999 v 0.38982 h 0.6297 v 0.37982 h 0.2998 v 0.37984 h 1.8592 v -0.37984 h 0.3099 v -0.76964 h -0.3099 v -0.38983 l 0.3099,0.0103 v -0.38983 h 0.3098 v -0.37984 h 0.9296 v 0.37984 h 0.6197 v 2.30895 l 0.3199,-0.0103 v 0.38982 h 0.2998 v 0.38983 h 0.6697 0.5598 v -0.38983 h 0.3098 0.6297 v -0.38982 h 0.2999 v -0.37982 h 0.3199 v -0.37984 h 0.3098 v -0.37982 h 0.3099 v -1.59926 -1.47934 h 0.3098 v -0.37981 h 0.3099 v -0.76967 h 0.3099 v -1.91912 l -0.3199,0.0103 0.01,-0.38983 h -0.3098 v -0.38983 h -1.2495 v -0.37982 h -0.6097 v -0.38982 h -1.8591 v 0.38982 h -1.8492 v -0.38982 h -2.179 v -1.14948 h -0.3099 v -1.91913 h -0.3098 v -2.29894 h -0.2999 v -1.53931 l -0.3198,0.0103 v -0.77966 h -0.3099 v -0.76964 h -0.2999 v -3.06861 h 0.3099 v -1.14948 h 0.2999 v -0.76959 h 0.3198 v -1.14948 h 0.2999 v -1.14947 h 0.3098 v -0.76964 h 0.3099 v -1.14948 h 0.3198 v -1.15947 h 0.2999 v -0.75966 h 0.3199 v -1.15947 h 0.2998 v -0.75966 h 0.3099 v -0.77965 l 0.3098,0.0103 v -0.76966 h 0.3199 v -0.76965 h 0.2999 v -0.76964 l 0.3098,0.0103 v -0.77963 h 0.3099 v -0.75966 h 0.3098 v -0.76964 h 0.3199 v -0.77965 h 0.2999 v -0.75966 h 0.3098 v -0.77963 l 0.3099,0.0103 v -0.75965 h 0.3098 v -0.77965 l 0.3099,0.0103 v -0.77965 l 0.3099,0.0103 v -0.77964 l 0.3098,0.0103 v -0.76964 h 0.3099 v -0.76965 h 0.3098 v -0.76966 l 0.2999,0.0103 v -0.77966 h 0.3198 v -0.76964 h 0.3099 v -0.75966 h 0.3099 v -0.76964 h 0.2998 v -0.76965 h 0.3099 v -0.76966 h 0.3198 v -0.76964 h 0.2999 v -0.75966 h 0.3199 v -0.77963 l 0.3098,0.0103 v -0.76964 h 0.3099 v -0.76966 h 0.2998 v -0.76965 h 0.3199 v -0.37982 h 0.2998 v -0.76966 l 0.3099,0.0103 v -0.77965 h 0.3099 v -0.38983 h 0.3098 v -0.75966 h 0.3199 v -0.76964 h 0.2998 v -0.38983 h 0.3099 v -0.76964 h 0.3099 v -0.75966 h 0.3198 v -0.38981 h 0.2999 v -0.76966 l 0.3098,0.0103 v -0.77965 h 0.3099 v -0.37982 h 0.3099 v -0.76966 h 0.3098 v -0.48977 -0.27988 l 0.1899,0.0103 h 0.1199 v -0.16989 -0.21989 h 0.1499 0.1599 v -0.20991 -0.49977 -0.06 h 0.03 0.2798 v -0.46979 -0.28987 h 0.1599 0.15 v -0.26987 -0.11985 h 0.06 0.2499 v -0.4498 -0.31986 h 0.1699 0.1399 v -0.25987 -0.12999 h 0.07 0.2399 v -0.38983 h 0.3099 v -0.97956 -0.16989 h 0.05 l 0.2599,0.0103 v -0.67968 -0.0899 h 0.03 0.2699 v -0.37982 h 0.3198 v -0.77965 l 0.3099,0.0103 v -0.38983 h 0.3099 v -0.37984 h 0.3098 v -1.14946 h 0.3099 v -0.38983 h 0.3098 v -0.37983 h 0.3099 v -0.38981 h 0.3098 v -0.58974 -0.16988 h 0.09 0.2199 v -0.33986 -0.05 h 0.03 l 0.2799,0.0103 v -0.38983 h 0.3098 v -0.58971 -0.18992 h 0.09 l 0.21,0.0103 v -0.38983 l 0.3098,0.0103 v -0.51977 -0.25989 h 0.14 0.1699 v -0.38982 h 0.3098 v -0.62971 -0.13 h 0.08 0.2299 v -0.35982 -1.17947 h 0.3098 v -0.37983 h 0.3099 v -0.38981 h 0.3099 v -0.37984 h 0.3098 v -0.37982 h 0.3099 v -0.38982 l 0.5297,0.0103 h 0.09 v -0.0799 -0.30986 h 0.3098 v -0.38982 l 0.2499,0.0103 h 0.06 v -0.05 -0.33986 h 0.2099 0.1 v -0.13997 -0.23988 h 0.1699 0.14 v -0.17993 -0.2099 h 0.1599 0.15 v -0.17991 -0.20992 h 0.1899 0.12 v -0.10987 -0.26988 h 0.2699 0.04 v -0.0399 -0.72966 h 0.6097 v -0.37984 h 0.3198 v -0.38983 h 0.3099 v -0.38981 l 0.3099,0.0103 v -0.37983 h 0.2998 v -0.38981 h 0.3199 v 0.38981 h 0.3098 v -0.38981 h 2.169 v 0.38981 h 0.2999 v -0.76965 h 0.3199 v -0.38983 h 0.3098 v -0.3898 l 1.6193,0.0103 h 0.2299 v -0.38982 l 0.3098,0.0103 v -0.62971 -0.14994 h 0.1099 0.1999 v -0.38983 l 0.3099,0.0103 v -0.37982 h 0.3098 v -0.32985 -0.06 h 0.04 l 0.2699,0.0103 v -0.39982 h 0.3099 v -0.76964 -0.75966 h 0.3098 v -0.38982 h 0.3099 v -0.37982 h 0.12 0.1899 v -0.15991 -0.60972 h 0.6197 v -0.37984 h 0.3099 v -0.3898 h 0.4498 0.1699 v -0.37962 h 0.4298 0.4997 v -0.43979 -0.26988 -0.06 h 0.03 0.2698 v -0.37984 h 0.3199 v -0.26987 -0.12999 h 0.04 0.2698 v -0.75966 h 0.3099 v -1.15947 l 0.6197,0.0103 v -0.38983 h 0.1599 0.4598 v -1.5293 h -0.3198 v -0.76966 h 0.3198 v -0.38981 l 0.6197,0.0103 v -0.38983 h 0.9196 v 0.76965 h 0.3099 v 0.76966 h 0.3098 v 0.37982 h 0.3199 v 0.18992 0.1999 h 0.1099 l 0.4997,-0.0103 v -0.37984 h 0.9296 v -0.37982 h 0.6197 v 0.37982 h 0.9096 0.3299 v -0.37982 h 0.6197 v -0.38982 l 0.3099,0.0103 v -0.38982 h 0.3098 v -0.38981 l 0.3099,0.0103 v -0.76964 h 0.3098 v -0.38983 h 0.3099 v -0.37983 h 0.3098 v -1.53929 h -0.4597 -0.7797 v -0.38983 h -0.3098 v -0.37982 h -0.6198 v 0.37982 h -0.3098 v 0.38983 h -0.3099 v 0.37982 h -0.3098 v 1.15947 h -1.8592 v -0.51975 -0.63972 h 0.3099 v -1.5293 h 0.6197 v -0.38981 h 0.3198 v -0.38983 h 0.2999 v -0.37983 h 0.6197 v -0.37982 h 0.9296 v -0.37984 h 0.6197 v -0.38981 h 0.9296 v -0.38982 h 0.3098 v -0.38983 h 0.18 l 0.4398,0.0103 v -0.38981 l 0.3098,0.0103 v -0.38982 h 0.3099 v -0.38983 h 0.3098 v -0.37982 h 0.3099 v -0.37983 h 0.2999 v -0.76965 h 0.3198 v -0.76964 l -0.3198,0.0103 0.01,-0.77963 h -0.6297 l 0.01,-0.37984 h -0.3099 v 0.37984 h -0.6197 v 0.38981 h -0.3098 v 0.37983 h -1.2395 v -0.37983 h -0.3098 v -0.76965 h -0.6198 v -0.37982 h -0.6197 v -1.54929 h 0.6197 v -1.14948 h -0.3098 v -0.42176 h -0.3099 v -0.37982 h -0.3098 v -0.37982 h -1.5493 v -0.37983 h -0.6197 v -0.38983 h -0.6098 v -0.38983 l -0.3098,0.0103 v -0.38983 h -0.3199 v -0.37981 h -0.3098 v -0.38983 h 0.3098 v -0.76965 h 0.3199 v -0.37983 h 0.6097 v -0.38983 h 0.3099 v -0.37982 h -0.3099 v -0.37983 h -0.3099 l 0.01,-0.76965 h -0.3099 v -0.38982 h -2.169 v -0.37982 h -0.6297 v -0.38983 h -0.2999 v -0.75965 h -0.3198 v -0.77964 h -0.2999 v -0.38982 h -0.3099 v -0.36983 h -0.3098 v -1.53931 h 0.3098 v -0.38983 h -0.3098 v -2.68877 h -0.3099 v -0.38013 h -0.3098 v -1.5393 l 0.2998,0.0103 v -0.77965 h 0.3199 v -0.37982 h 0.3098 v -0.39981 h 0.3099 v -1.52932 h -0.3099 v -0.05 -0.71967 h -0.3098 v -1.91913 h 0.3098 V 201.17 h 0.9296 v 0.38983 h 0.1899 0.4298 V 201.17 l 0.3099,0.0103 v -1.26943 -1.03952 h 0.3098 v -0.37984 h 0.2999 v -0.38981 h 0.3199 v -0.77965 l 0.2998,0.0103 v -1.14946 h 0.3099 v -0.38983 h 0.3098 v -0.76965 h 0.3199 v -0.37983 h 0.2999 v -0.37982 h 0.6197 v -0.39982 h 0.3098 v -0.37983 h -0.3098 v -0.75966 h 0.3098 v -0.38981 h 0.3099 v -0.38982 l 0.3099,0.0103 v -0.38982 h 0.3098 v -0.37982 h 0.3099 v -0.76965 h 0.6197 V 190.036 h 0.3099 v -0.77964 h 0.3098 v -0.37983 h 0.3099 v -0.37982 h 0.3098 v -0.38983 h 0.3099 v -0.37983 h 0.2998 v -0.38981 h 0.3199 v -0.38983 h 0.3099 v -0.37983 h 0.3098 v -0.75966 h 0.6197 v -0.39982 h 0.3099 v -0.37981 l 0.3099,-0.0199 v -1.12948 h 0.9195 v -0.38983 l 0.3199,0.0103 v -0.38983 h 0.3099 v -0.37984 h 0.2798 0.03 v -0.0399 -0.73965 l 0.3099,0.0103 v -0.38982 h 0.3099 v -0.37982 h 0.2998 v -0.76965 h 0.3199 v -0.38982 l 0.6097,0.0103 v -0.38981 h 0.5797 0.04 v -0.07 -0.30985 h 0.1899 0.5897 0.15 v -0.31986 -0.45978 h 0.3098 v -0.2199 -0.75966 -0.93956 h 0.3199 v -0.38983 l 0.2998,-0.0199 v -0.34974 h 0.1899 0.1201 v -0.24989 -0.13997 h 0.06 0.2498 v -0.38982 l 0.2899,-0.0899 0.02,-0.29986 0.1399,0.0103 h 0.1699 v -0.38982 h 0.3099 v -0.37984 h 0.3098 v -0.34983 -0.0401 h 0.07 0.5498 v -0.37984 h 0.3098 v -0.33984 -0.42981 h 0.2699 l 0.3499,0.0103 v -0.64969 -0.13 h 0.07 l 0.2399,0.0103 v -0.38982 h 0.3099 v -0.47978 -0.28987 l 0.3098,-0.0199 v -0.36982 h 0.3099 v -0.37982 h 0.3099 v -0.37984 h 0.3098 v -1.5493 h 0.6097 v -0.37981 h 2.7888 v 0.37981 h 1.2394 v 0.38983 h 0.6197 v 0.19991 0.18992 h 1.2395 v 0.37982 h 2.169 v -0.37982 h 0.3098 v -0.38983 h -0.3098 v -0.76964 h -0.2599 -0.3598 v -0.37982 h -0.3099 v -1.53931 h 0.3099 v -0.37982 h 1.2394 v 0.37982 h 0.6197 v -0.37982 h 0.9296 v -0.39983 h 0.6097 v -0.37982 h 0.09 0.5398 v -0.37982 h 0.6197 v -0.26989 -0.11985 l 0.5497,0.0103 0.07,-0.0199 v -0.75964 l 0.2999,0.0103 v -0.76965 h 0.3199 v -0.38982 h 0.2998 v -0.27988 -0.10988 h 0.3199 v -0.37982 h 0.6097 v -0.37983 h 0.6197 v -0.38983 h 0.6197 v -0.37982 h 0.3099 v -1.14948 h -0.3099 v -0.38983 h -0.9296 l 0.01,-1.14946 0.2998,-0.0103 v -0.37982 h 0.3099 v -0.76964 h 0.3098 v -1.53931 h 0.3099 v -0.38982 l 0.3099,0.0103 v -0.38982 h 0.1999 0.1099 v -0.37984 h 0.3098 v -1.92911 h 0.3099 v -0.37982 h 1.2394 v 0.37982 h 1.5493 v -0.37982 h 0.3099 v -0.37984 h 0.6197 v -0.38981 h 0.2998 v -0.37983 h 0.2799 0.04 v -0.38983 h 0.3099 v -0.38981 h 0.3098 v -0.37984 l 0.2999,0.0103 v -0.38981 h 0.3198 v -0.38982 h 0.6098 v -0.38983 l 0.3098,0.0103 v -0.76965 h -0.3098 l 0.01,-0.38982 h -0.3099 v -0.38981 h -0.9395 v -0.37984 h -0.6098 v -0.38982 l -0.3198,0.0103 v -0.38982 l -0.2999,0.0103 v -0.38982 h -0.3198 l 0.01,-0.37982 -0.1,-0.0103 -0.2099,0.0103 v -0.77965 h -0.3099 v -0.37982 h -0.3099 v -0.76965 h -0.6197 v -0.37983 h -0.9295 v -0.38983 h -0.9296 v -0.37982 h -0.3099 v -0.38983 h -0.3098 v -0.37981 l -0.3099,0.0103 v -0.77959 h -0.6197 v -0.38981 h -0.6197 v -0.38982 h -0.6098 v 0.38982 h -0.3198 v -0.38982 h -2.169 v -0.37984 h -0.9296 v -0.37982 h -0.3099 v -0.77965 h -0.2998 v -1.5293 h 0.2998 v -0.38983 l 0.3099,0.0103 v -1.92912 h -0.6097 v -0.37982 h -0.9396 l 0.01,-0.38982 h -0.6197 v -0.37984 h -1.2394 v -0.3955 l -0.6197,0.0103 v -0.77965 h 0.3098 v -0.37978 h 0.3099 v -0.38983 h 0.6197 v -0.38982 h 0.3098 v -0.75966 h 0.3099 v -1.15947 h -0.3099 v -0.37982 h -0.3098 v -0.37984 h -0.3099 v -0.3898 h -1.5393 v 0.3898 h -1.8691 v -0.3898 h -0.6197 v -0.38983 h -0.3099 v -0.37984 h -0.3098 v -0.38981 l -0.3099,0.0103 v -0.38982 h -0.3099 v -0.76965 h -0.3098 v -1.44934 -0.0899 h 0.2399 l 0.07,-0.0199 v -0.35984 h 0.3099 v -0.76964 h 0.3099 v -0.38983 h 0.2499 0.06 v -0.37976 l 0.3098,0.0103 v -0.39981 h 0.3099 v -0.37984 h 1.2394 v -0.38979 h 0.3099 v -0.38983 l 0.3098,0.0103 v -1.15947 h -0.3098 v -1.5293 h 0.3098 v -0.77965 h -1.2394 v 1.91912 h -0.9296 v -2.80872 -0.64969 l 0.3099,0.0103 v -0.38982 h 0.6197 0.3099 v -0.38978 h 0.6197 v 0.38983 h 0.6197 v 0.38981 h 0.3099 v -0.38981 l 0.3098,0.0103 v -0.77966 h -0.3098 v -1.14948 h 0.3098 v -0.76964 h 0.3099 v -3.46843 h -0.3099 v -1.5293 h -0.3098 v -1.54929 l -0.2999,0.0103 v -0.77963 l 0.2999,0.0103 v -0.38983 h -0.3099 v -1.53929 l 0.3099,0.0103 v -1.55929 h -0.2999 v -1.919039 h 0.2999 v -0.37984 h 0.3098 v -0.37982 h 0.9296 v -0.38982 h 0.3099 v -0.38983 h 0.3098 v -1.53929 l -0.3098,0.0103 v -0.76965 h -0.3099 v -1.5393 h 0.3099 v -1.15947 h 0.3098 v -0.76965 l -0.3098,0.0103 v -0.33984 -1.21945 h 0.3098 v -0.75965 h 0.3099 v -0.38983 h 0.9296 v -0.37982 h 1.2294 v -0.37984 h 0.2699 0.9795 v 0.37984 h 0.9296 v 0.37982 h 0.6097 v -0.37982 h 0.3099 v -0.37984 h 0.3198 v -0.77963 l 0.2999,0.0103 v -0.76967 h 0.3099 v -0.3898 h 0.3098 v -1.53931 l -1.2394,0.0103 v -0.38983 h -0.3099 l 0.01,-0.38981 h -0.6197 v -1.53931 h -0.3198 v -1.91912 h 0.6197 v -0.38983 h 0.3099 v -0.38972 h 0.3098 v -0.75966 h 0.3199 v -2.31894 h -0.3199 v -2.68877 h 0.3099 v -0.37984 h 0.3098 v -0.38982 h -0.3098 v -0.37982 l -0.3099,0.0103 v -0.38983 h -0.3098 v -0.77963 h -0.3099 v -0.75966 l 0.3099,-0.0103 v -0.37983 h 0.3098 v -1.91913 h 0.3199 v -0.77963 h 0.3098 v -1.14948 h -0.3098 v -0.38983 l -0.3199,0.0103 v -0.38983 h -0.2999 v 0.38983 l -1.2394,-0.0103 v 0.38983 h -0.3198 v 0.38982 l -0.2499,-0.0103 h -0.05 v 0.76965 h -0.2598 -0.05 v 0.77965 h -0.3099 v 0.75966 h -0.3198 v 0.37982 h -0.3099 v 0.77965 h -0.2998 v 0.90958 0.62971 h -0.5897 -0.6498 v -0.38983 h -0.3098 v -0.75965 l 0.3098,-0.0103 v -0.37982 h 0.3099 v -1.53931 h -0.3099 v -1.53929 h -0.3098 v -0.76964 h -0.3099 v -1.92913 h 0.6197 v -0.37982 l 0.2999,0.0103 v -1.56384 l -0.2999,0.0103 v -0.37984 h -0.6197 v 0.37984 l -0.9296,-0.0103 v 0.38983 h -0.3098 v 0.77963 l -0.3099,-0.0103 v 0.76965 h -0.3098 v 0.38983 h -0.3099 v 0.76964 h -0.3098 v 1.91913 h -0.3099 v 0.37983 h -0.4198 -0.1999 v 0.39982 h -0.8696 -0.06 v -0.77965 h -0.3099 v -0.37982 h -0.2998 v -0.76965 h -0.3199 v -0.76966 h -0.3099 v -0.76964 h -0.3098 v -6.54706 h -0.3099 l 0.01,-0.37983 h -1.5593 v 1.52931 h 0.3099 v 0.38981 h 0.3099 v 1.53931 h -0.9196 v -0.38983 l 0.3099,0.0103 v -0.76965 h -0.3099 v -1.15947 h -0.3099 v -0.38982 l -0.3098,0.0103 v -0.38977 l -0.3099,0.0103 v -0.77966 h 0.3099 v -1.14946 h 0.6197 v -0.38983 h 0.3099 v -1.14948 h -0.6198 v 0.37984 h -0.9295 v -0.37984 h -0.3099 v -0.38982 h -0.6197 v -0.37982 h -0.9296 v -0.38983 h -0.6197 v -0.37982 h -0.6197 v -0.38982 h -0.6298 v -0.76965 h -0.1198 -0.1799 z"
       id="path831"
       style="fill:#000000;fill-opacity:1;stroke:#000000;stroke-width:0.979554" />
  </g>
</svg>
