<?xml version="1.0" encoding="UTF-8" standalone="no"?>
<svg
   xmlns:dc="http://purl.org/dc/elements/1.1/"
   xmlns:cc="http://creativecommons.org/ns#"
   xmlns:rdf="http://www.w3.org/1999/02/22-rdf-syntax-ns#"
   xmlns:svg="http://www.w3.org/2000/svg"
   xmlns="http://www.w3.org/2000/svg"
   xmlns:sodipodi="http://sodipodi.sourceforge.net/DTD/sodipodi-0.dtd"
   xmlns:inkscape="http://www.inkscape.org/namespaces/inkscape"
   version="1.1"
   width="1024"
   height="1024"
   viewBox="0 0 1024 1024"
   id="svg8"
   sodipodi:docname="Sachalin.svg"
   inkscape:version="1.0.1 (3bc2e813f5, 2020-09-07)">
  <metadata
     id="metadata14">
    <rdf:RDF>
      <cc:Work
         rdf:about="">
        <dc:format>image/svg+xml</dc:format>
        <dc:type
           rdf:resource="http://purl.org/dc/dcmitype/StillImage" />
        <dc:title></dc:title>
      </cc:Work>
    </rdf:RDF>
  </metadata>
  <defs
     id="defs12" />
  <sodipodi:namedview
     pagecolor="#ffffff"
     bordercolor="#666666"
     borderopacity="1"
     objecttolerance="10"
     gridtolerance="10"
     guidetolerance="10"
     inkscape:pageopacity="0"
     inkscape:pageshadow="2"
     inkscape:window-width="1920"
     inkscape:window-height="974"
     id="namedview10"
     showgrid="false"
     inkscape:zoom="0.667192"
     inkscape:cx="368.91592"
     inkscape:cy="397.89616"
     inkscape:window-x="-11"
     inkscape:window-y="-11"
     inkscape:window-maximized="1"
     inkscape:current-layer="svg8" />
  <g
     id="g6"
     style="fill:#000000;fill-opacity:1"
     transform="matrix(1.2944628,0,0,1.2944628,-264.69848,-5.8255776)">
    <g
       stroke="#000000"
       stroke-width="0.98"
       fill="#ffffff"
       id="g4"
       style="fill:#000000;fill-opacity:1">
      <path
         d="m 560.45,18.16 -3.76,2.51 -1.31,0.33 -4.62,-0.75 -1.2,-0.52 -2.37,-2.05 -1.32,-0.21 v 0.69 l 3.93,2.56 2,1.94 1.58,2.14 0.95,2.06 1.52,4.53 0.96,2.09 4.53,5.71 2.63,4.44 4.59,5.62 2.49,4.13 0.6,4.11 -0.73,4.31 -1.55,4.71 -2.8,6.17 -0.62,2.72 -0.87,1.94 -0.19,1.15 0.58,0.15 2.7,-1.25 0.8,-0.57 1.16,-3.83 1.21,-5.66 1.53,-3.66 2.19,2.15 0.54,1.84 0.39,2.24 0.28,4.5 0.13,0.98 0.23,1.1 0.11,1.07 -0.26,0.94 -4.83,5.73 -1.21,0.2 -1.1,-1.29 -1.38,-2.53 -0.87,-0.53 -1.1,0.41 -1.14,0.73 -0.97,0.38 -1.13,-0.25 -1.03,-0.46 -1.02,-0.26 -1.06,0.35 -1.04,1.44 -0.3,2.02 0.31,2.24 0.83,2.11 -0.19,0.32 -0.04,2.71 0.03,0.42 0.32,1.41 0.73,-0.46 1.37,-2 2.17,-0.55 2.52,0.68 2.21,1.63 1.25,2.32 -0.71,1.11 -0.93,-0.27 -1.01,-0.61 -1.02,0.11 -2.88,2.57 -0.76,1.17 -1.76,4.16 -0.76,2.59 -3.89,3.98 -1.24,0.21 -2.48,-0.03 -2.69,1.19 -1.16,0.15 -1.18,-0.15 -1.34,-0.49 -1.23,-0.86 -0.91,-1.26 -0.48,-1.33 -0.2,-1.37 0.23,-1.21 0.85,-0.77 -0.77,-1.35 0.13,-1.03 0.45,-1.05 0.19,-1.38 -0.45,-1.18 -0.72,-1.08 -0.34,-0.97 0.66,-0.85 -8.69,3.49 -5.07,3.3 -3.03,0.47 -0.85,0.58 -3.39,3.76 -5.28,2.54 -1.62,1.52 1.9,2.4 0.53,0.98 0.01,0.65 -0.15,0.83 0.02,0.95 0.55,1.01 -0.79,1.69 -0.02,1.42 1.79,5.3 0.18,0.79 0.05,1.24 -0.08,1.13 -0.12,0.85 -0.02,0.79 0.22,0.96 0.61,1.17 1.84,2.74 0.64,2.11 1.13,1.85 0.26,0.6 0.18,1.65 0.18,1.04 0.22,0.67 0.31,1.83 -0.49,2.23 -1.42,3.35 -0.21,0.84 -0.04,1.08 0.06,2.1 -0.2,1.07 -0.85,1.66 -0.19,0.62 -0.07,0.97 -0.29,1.83 -0.05,0.91 0.08,1.05 0.27,1.67 0.06,0.62 -0.23,2.16 -1.1,3.15 -0.33,2.1 -0.05,7.05 -0.5,3.38 -1.46,2.94 v 0.61 l 1.47,0.59 0.54,0.08 -0.78,2.37 -0.21,0.34 -0.47,0.36 -0.12,0.83 -0.03,0.97 -0.19,0.77 -0.5,1.3 -0.78,3.58 -0.52,1.48 -1.5,2.17 -5.71,6.06 -0.37,0.67 -0.16,0.76 0.05,1.76 -0.05,0.88 -0.6,2.16 0.53,1.24 0.81,1.27 0.5,1.61 -0.07,1.52 -0.76,4.17 2.42,4.92 -0.72,2.92 -0.27,0.43 -0.37,0.31 -1.13,1.59 -0.34,0.67 -0.42,1.87 0.05,1.55 0.23,1.58 0.14,1.96 1.42,7.61 -0.03,3.86 -2.16,2.67 3.26,2.59 3.95,2.07 2.88,2.84 0.01,4.92 0.53,0.41 0.25,0.6 -0.03,0.77 -0.32,0.88 -0.53,0.58 -0.6,-0.06 -0.64,-0.32 -2.1,-0.4 -3.84,-1.75 0.99,2.22 6.72,4.94 2.07,3.41 0.86,2.29 1.26,0.16 2.27,-0.59 0.76,0.49 0.15,0.63 -0.1,0.71 -0.13,1.78 -0.27,0.42 -0.04,0.42 0.6,1.05 8.06,8.35 1.11,2.66 -1.22,2.31 2.22,4.4 2.61,3.84 0.42,0.87 0.26,0.34 0.28,0.16 0.21,0.32 0.09,0.8 -0.13,0.78 -0.57,1.12 -0.14,0.68 0.42,1.89 4.86,9.38 0.66,2.21 0.17,2.19 -0.14,3.59 -1.01,4.09 -1.43,3.72 -1.47,2.97 -4.28,6.11 -0.18,0.94 0.23,2.17 -0.05,0.44 -0.33,0.41 -1.19,2.04 -0.33,0.8 -0.07,1.08 0.17,1.02 0.23,0.92 0.11,0.81 -0.69,6.25 -1.78,5.24 -0.36,3.81 0.07,2.09 -0.04,1.23 -0.23,0.85 -0.71,1.99 0.23,2.12 3.2,8.78 1.07,1.5 1.28,3.55 0.38,1.44 0.27,1.68 0.05,1.71 -0.24,1.71 -0.68,1.63 1.2,4.77 1.08,14.14 -0.47,3.49 -0.42,1.86 -0.08,1.29 0.13,3.48 -0.19,0.71 -0.86,1.39 -0.19,1.09 0.06,0.46 0.28,0.86 0.06,0.54 -0.11,0.56 -0.54,1.02 -0.15,0.62 h -0.41 l 1.03,3.38 0.56,3.24 0.15,3.23 -0.12,5.16 0.43,5.11 -0.13,1.68 -0.58,3.34 -0.32,5.02 -0.83,6.16 -0.19,3.47 -0.32,1.33 -1.38,3.35 -0.51,3.08 -1.47,5.64 0.94,7.51 0.08,1.45 -0.17,1.61 -0.99,2.82 -1.36,2.96 -0.8,3.16 0.73,3.4 -0.7,1.8 -0.55,1.9 -0.37,3.3 -0.51,1.58 -0.22,2.12 -0.29,0.77 -1.06,1.04 -0.48,0.69 -0.3,1.01 0.08,0.71 0.24,0.98 0.17,1.07 -0.09,0.98 -0.42,0.52 -1.71,1.56 -0.48,0.32 -3.88,5.52 -0.05,3.49 0.97,4.19 2.75,7.11 10.5,18.95 2.13,5.62 0.33,1.39 2.09,14.81 -0.48,3.15 0.38,1.54 1.11,11.64 -0.24,1.98 -0.57,1.23 -2.33,3.47 -1.91,1.43 -0.75,1.7 -1.79,6.66 -1.36,2.65 -0.21,0.63 -0.17,0.84 -0.43,0.89 -0.85,1.36 -0.37,0.89 -0.1,0.94 v 0.99 l -0.13,1.02 -2.11,4.51 -0.32,1.81 -0.52,9.7 0.21,2.99 0.5,2.73 0.82,1.99 0.57,1.06 0.24,0.98 -0.03,1.08 -0.17,1.35 -0.7,2.7 -0.05,1.15 0.54,1.27 2.62,4.4 0.93,2.44 0.73,3.03 0.36,2.65 0.06,2.6 -0.24,2.49 -0.18,2.34 -10.13,27.88 -1.15,5.27 -1.02,2.22 -0.51,1.58 -0.79,1.41 -0.26,0.66 -0.31,1.86 -0.17,3.64 0.78,7.56 0.6,2.99 2.79,8.3 0.85,3.39 2.19,15.34 -0.21,5.44 0.56,0.97 3.52,3.95 2.26,4.56 0.8,0.71 1.18,0.52 0.71,0.77 0.53,-0.17 1.01,-4.08 0.51,-3.52 0.78,-1.19 3.33,-1.08 0.45,-0.25 0.28,-0.76 0.07,-1.81 0.23,-0.69 -0.17,-1.67 0.62,-1.62 0.8,-1.65 0.41,-1.78 0.13,-0.87 0.55,-1.65 0.13,-1 0.03,-1.03 0.78,-6.32 0.7,-2.92 0.1,-0.8 0.36,-1.54 2.5,-5.27 4.87,-14.14 3,-6.64 4.25,-4.57 5.28,-3 2.02,-0.53 h 1.84 l 0.43,-0.28 0.56,-1.22 0.63,-0.26 0.8,0.38 0.34,0.98 0.29,2.76 1.16,5.1 1.03,2.45 1.44,1.32 1.85,0.13 4.61,-1.07 1.65,-0.82 1.78,1.06 2.01,0.72 4.1,0.57 5.47,-0.92 1.38,0.63 0.72,0.64 1.62,0.86 0.76,0.6 1.38,2.09 1.9,2.16 0.74,0.23 0.42,-0.95 -2.01,-2.99 3.92,-0.22 1.54,0.63 1.44,1.94 -0.78,2.88 -0.4,0.64 -0.7,0.02 -0.82,-0.37 -0.69,-0.12 -0.28,0.79 0.33,1.5 0.61,1.55 0.23,1.72 -0.76,2 2.45,6.17 0.19,1.77 2.29,8.01 0.25,1.63 0.09,2.05 -0.12,0.84 -0.24,0.95 -0.11,0.92 0.58,1.78 -0.23,0.94 -0.69,1.27 -0.02,1.38 0.13,2.2 0.34,2.03 0.56,0.9 0.4,-0.29 0.32,-0.7 0.22,-0.88 0.29,-1.99 0.45,-0.52 0.54,-0.33 0.41,-0.59 0.21,-1.7 -0.57,-5.63 0.41,-1.43 2.05,-2.78 0.76,-1.33 0.72,-2.4 0.09,-0.82 0.28,-0.71 0.61,-0.53 0.68,-0.41 0.42,-0.39 0.23,-0.9 0.17,-2.14 0.26,-0.81 0.57,-0.76 2.03,-1.83 -0.95,-0.81 -2.11,-0.45 -0.97,-0.6 1.32,-1.87 -0.2,-2.51 -1.52,-5.05 -0.82,-5.18 -0.45,-1.03 -0.21,-0.6 0.05,-0.47 0.31,-0.61 0.24,-0.8 0.06,-0.85 -0.95,-2.77 -0.28,-2.62 0.03,-5.38 -0.31,-2.42 -0.8,-2.64 -1.17,-2.4 -1.39,-1.71 -1.09,1.38 -0.48,1.56 -0.55,1.26 -1.32,0.52 -4.47,-0.18 -1.42,-0.41 -4.53,-3.04 -1.37,-0.44 -1.15,0.72 -0.28,1.63 0.39,1.77 0.84,1.13 0.66,0.16 1.47,-0.18 0.7,0.02 0.86,0.39 1.81,1.19 2.19,0.47 1.49,0.61 1.32,0.93 0.85,1.18 0.24,1.44 -0.46,1.12 -1,0.72 -1.4,0.25 -0.61,-0.27 -1.33,-1.22 -0.69,-0.28 -0.88,-0.16 -1.61,-0.76 -0.78,-0.2 -0.87,0.16 -1.42,0.78 -0.98,0.18 -0.8,-0.3 -0.37,-0.76 -0.4,-1.93 -1.32,-2.98 -0.11,-0.56 -0.78,-0.31 -0.96,-0.76 -0.87,-0.95 -0.45,-0.87 0.37,-2.17 1.65,-0.29 1.96,0.2 1.31,-0.75 0.05,-1.25 -0.61,-0.83 -0.74,-0.13 -0.76,1.59 -0.93,-0.17 -0.96,-0.73 -0.52,-0.84 1.3,0.06 0.02,-1.06 -0.54,-1.67 -0.34,-1.79 -0.18,-1.78 -1.93,-6.23 -2.19,-4.45 -0.07,-1.08 0.61,-3.9 0.08,-1.84 -1.02,-5.43 -0.15,-2.06 -0.4,-1.59 -6.24,-9.74 -1.91,-2.11 -3.8,-2.63 -1.61,-0.76 -1.63,-0.27 -1.44,0.66 -0.72,-0.6 -0.53,-0.58 v -0.66 l 1.52,-0.07 0.49,0.07 -6.86,-11.95 -2.36,-5.34 -2.77,-10.95 -0.64,-10.86 0.08,-1.79 0.18,-0.93 0.63,-2.39 v -3.61 l -0.13,-0.52 -0.27,-0.24 -0.28,-0.17 -0.13,-0.28 0.09,-0.68 0.23,-0.18 0.26,-0.16 0.23,-0.54 3.81,-15.07 2.64,-7.05 3.82,-12.37 4.11,-13.73 5.55,-15.58 1.99,-6.39 2.9,-6.36 1.14,-3.43 v -3.83 l -0.7,-4.27 -0.12,-3.55 0.59,-3.34 1.43,-3.62 1.72,-3.03 1.92,-2.56 4.44,-4.35 1.7,-1.19 11.65,-4.82 15.85,-0.58 1.64,-0.84 -2.81,-0.83 -14.98,0.15 -0.64,0.21 -0.72,0.38 -0.69,0.17 -0.6,-0.42 -0.13,-0.5 0.22,-0.26 0.33,-0.19 0.16,-0.29 -0.09,-0.81 -0.23,-0.09 -0.39,0.11 -0.51,-0.16 -2.75,-1.58 -0.84,-1.19 0.53,-1.83 1.07,-0.8 1.49,-0.27 6.01,0.43 1.34,0.65 1.07,1.2 1.08,1.57 1.01,0.88 1.15,0.35 13.55,1.26 -2.42,1.18 0.14,0.9 0.74,0.57 17.97,3.33 3.07,1.45 2.55,2.01 8.57,9 0.59,0.79 0.42,0.96 0.59,2.15 0.42,0.92 0.6,0.79 0.73,0.68 0.77,0.48 0.72,0.18 2.25,3.08 0.95,0.61 2.08,0.71 0.99,0.53 0.69,0.81 1.48,2.38 0.5,0.5 1.46,0.94 7.63,12.63 0.88,2.5 0.45,2.75 0.14,2.33 0.35,2.08 1.08,2.02 -0.26,1.94 1.31,1.23 1.9,0.43 1.48,-0.48 -0.81,-1.42 -1.23,-1.16 -1.13,-1.49 -0.5,-2.41 -0.39,-3.67 0.16,-1.03 0.8,-1.25 0.24,-1.1 -0.08,-0.8 -0.55,-2.02 -0.18,-0.91 -0.08,-1.77 -0.13,-0.78 -0.37,-0.82 -1.06,-1.48 -13.33,-11.19 -1.83,-2.29 -1.5,-3.02 -6.05,-16.05 -3.61,-17.08 -0.12,-2.14 0.52,-5.03 -0.38,-1.41 -3.37,-6.74 -0.93,-1.45 -0.72,-1.57 -0.29,-1.94 -0.36,-7.87 -0.52,-1.92 -1.58,-3.36 -0.64,-3 -2.11,-5.54 -2.46,-10.59 -5.42,-12.72 -5.97,-11.26 -1.17,-3.38 -5.25,-27.51 -1.33,-12.24 -5.46,-25.7 -2.88,-21.58 -0.97,-4.29 -1.55,-2.27 0.82,2.69 0.71,3.2 -0.25,2.52 -2.01,0.62 0.47,-1.4 0.26,-0.47 -0.34,-0.16 -0.52,-0.41 -0.35,-0.14 0.15,-0.67 0.11,-0.27 0.22,-0.35 -0.29,-0.84 -0.02,-1.7 -0.17,-0.74 -0.52,-0.72 -0.58,-0.39 -0.62,-0.31 -0.7,-0.46 -0.07,-0.31 0.07,-0.43 0.02,-0.39 -1.24,-0.82 -0.58,-0.6 -0.92,-0.7 -0.51,-0.63 2.21,-1.7 0.61,-0.24 0.91,0.31 1.92,2.28 -0.78,-11.98 -0.83,-3.68 -3.16,-5.36 -0.51,-1.44 -0.36,-3.6 -0.38,-1.8 -0.48,-0.8 -1.09,0.86 -0.85,2.04 -0.42,2.06 0.16,0.95 0.44,1 0.52,2.26 0.18,2.4 -0.54,1.43 -1.16,-0.09 -1.32,-0.7 -1.35,-0.39 -1.86,1.25 -0.6,-0.48 -0.44,-0.91 -0.18,-0.9 0.18,-0.58 0.81,-1.95 0.22,-1.04 -0.01,-1.14 -0.28,-2 -0.08,-1.12 0.19,-0.81 0.81,-1.82 0.52,-3.49 0.9,-2.13 1.2,-1.2 1.26,0.64 -0.44,-4.58 -3.27,-7.92 -0.99,-5.21 -0.41,0.43 -0.42,1.21 -0.19,1.33 -0.48,0.55 -1.09,-0.35 -1.17,-0.78 -0.69,-0.71 -0.16,-1.24 0.26,-1.41 v -1.15 l -0.93,-0.48 -0.41,-0.6 -0.65,-2.95 -0.34,-1.09 1.4,-0.05 0.64,-1.11 -0.03,-1.59 -0.61,-1.51 -0.63,-1.13 -0.09,-0.69 0.12,-0.69 0.01,-1.11 -0.32,-1.87 -0.01,-1.09 0.33,-0.97 -2.45,-1.38 0.37,-0.96 0.25,-0.99 0.14,-1.08 0.05,-1.25 0.25,-0.42 0.57,0.66 1.33,2.56 0.21,-0.05 0.26,-8.06 1.04,-6.22 -0.04,-0.77 -0.18,-0.83 -0.02,-0.96 0.4,-1.16 0.09,-0.7 -0.55,-1.85 -0.1,-1.11 h -0.4 l -0.78,1.6 -1.02,0.12 -0.63,-1.08 0.49,-2.04 1.94,-3.18 0.34,-1.17 0.79,-4.18 0.88,-2.62 2.11,-4.43 0.72,-2.23 -0.06,-0.23 -0.15,-0.32 -0.16,-0.4 v -0.44 l 0.13,-0.07 0.26,-0.07 0.26,-0.16 0.16,-0.31 0.08,-2.43 -0.08,-0.28 0.36,-0.43 0.37,-0.23 0.41,-0.08 0.48,0.07 0.82,0.26 0.19,0.31 -0.1,0.53 -0.1,0.89 -0.22,1.16 -2.48,7.44 -0.54,0.76 1.63,0.91 0.56,0.8 -0.38,1.27 -0.65,0.32 -0.87,-0.14 -0.97,0.05 -0.97,0.82 -0.57,1.32 0.07,0.99 0.31,0.9 0.19,1.07 -0.1,1.28 -0.71,4.37 1.82,-2.4 1.62,-2.7 1.43,-2.98 1.23,-3.23 0.46,-1.72 1.19,-11.31 0.37,-1.58 -0.25,-1.81 0.66,-7.93 -0.05,-5.43 -0.23,-2.47 -0.49,-2.41 1.65,-3.94 0.45,-2.14 -0.74,-2.4 -0.71,-1.72 -0.53,-2.24 -0.54,-4.47 -0.08,-4.53 -0.25,-2.09 -0.72,-1.75 -0.46,-1.65 -0.13,-6.72 -0.59,-2.07 -1.52,-4.21 -0.45,-4.06 -2.14,-10.55 -0.83,-2.47 -0.81,-1.08 -0.81,0.09 -0.8,0.29 -2.23,1.59 -0.51,0.14 -0.5,-0.06 -0.4,-0.35 -0.08,-0.65 0.37,-0.56 0.49,-0.57 0.24,-0.66 -0.05,-1.32 -0.14,-0.53 -0.26,-0.28 -0.36,-0.58 -0.53,-0.52 -0.65,-0.36 -0.46,-0.59 0.05,-1.24 0.73,-1.24 0.93,0.14 0.91,0.54 0.66,-0.12 0.36,-0.99 -0.04,-0.9 -0.2,-0.88 -0.12,-0.96 -0.26,-1.25 -0.6,-1.9 -0.7,-1.67 -0.5,-0.59 -1.99,2.09 -0.84,0.26 -0.74,-0.38 -1.61,-1.76 -0.86,-0.52 v -0.74 l 0.58,-0.14 0.49,-0.4 0.35,-0.64 0.23,-0.85 0.83,0.56 h 0.84 l 0.81,-0.47 0.74,-0.84 -1.07,-0.9 -2.24,-1.04 -1.12,-0.78 0.44,-0.66 0.49,-0.57 0.52,-0.48 0.52,-0.34 -0.67,-1.42 -0.83,-0.58 -2.13,-0.04 1.22,-2.79 -1.43,-0.51 -1.45,-5.01 -1.56,-1.24 -0.41,-0.47 -0.35,-2.37 -0.62,-2.27 0.48,-1.01 1.69,-0.66 1.76,4.86 2.7,8.06 -0.35,-1.61 -1.24,-3.85 -1.62,-5.46 -0.44,-1.37 -0.29,-2.57 -0.11,-0.85 -1.02,-1.65 -1.17,-0.25 -2.65,0.46 0.33,-1.1 0.23,-0.52 0.25,-0.44 0.46,-0.31 0.49,0.08 0.41,0.18 0.22,0.05 0.48,-0.91 0.33,-1.03 1.25,-6.38 0.62,-1.57 2.12,-3.74 0.89,-1.92 0.67,-2.06 0.53,-2.36 0.25,-2.83 -0.54,-1.66 -2.72,-3.5 -3.67,-7.63 -3.14,-3.55 -1.36,-2.15 -0.85,-3.75 -0.65,-0.93 -1.28,-1.42 -0.37,-0.94 -0.5,-2.29 -0.37,-0.93 -1.08,-1.87 -0.61,-0.43 -1.13,-0.12 -0.79,0.3 -0.55,0.8 -0.32,1.13 -0.17,1.3 0.76,1.22 0.05,1.11 -0.41,1.05 -0.6,1.06 -1.01,1.02 -0.96,0.44 -0.65,0.68 -0.01,1.73 0.56,1.43 0.66,0.59 0.19,0.7 -0.83,1.75 -0.52,-0.2 -1.02,-0.72 -1.21,-0.54 -1.1,0.4 1,2.99 -0.98,1.24 -1.6,-0.25 -0.84,-1.51 -0.17,-1.38 -0.3,-1.09 -0.06,-0.92 0.53,-0.82 0.47,-0.29 z"
         id="path2"
         style="fill:#000000;fill-opacity:1" />
    </g>
  </g>
</svg>
