<?xml version="1.0" encoding="UTF-8" standalone="no"?>
<svg
   xmlns:dc="http://purl.org/dc/elements/1.1/"
   xmlns:cc="http://creativecommons.org/ns#"
   xmlns:rdf="http://www.w3.org/1999/02/22-rdf-syntax-ns#"
   xmlns:svg="http://www.w3.org/2000/svg"
   xmlns="http://www.w3.org/2000/svg"
   xmlns:sodipodi="http://sodipodi.sourceforge.net/DTD/sodipodi-0.dtd"
   xmlns:inkscape="http://www.inkscape.org/namespaces/inkscape"
   version="1.0"
   width="1024.000000pt"
   height="1024.000000pt"
   viewBox="0 0 1024.000000 1024.000000"
   preserveAspectRatio="xMidYMid meet"
   id="svg14"
   sodipodi:docname="Sardinia.svg"
   inkscape:version="1.0.1 (3bc2e813f5, 2020-09-07)">
  <defs
     id="defs18" />
  <sodipodi:namedview
     pagecolor="#ffffff"
     bordercolor="#666666"
     borderopacity="1"
     objecttolerance="10"
     gridtolerance="10"
     guidetolerance="10"
     inkscape:pageopacity="0"
     inkscape:pageshadow="2"
     inkscape:window-width="1920"
     inkscape:window-height="974"
     id="namedview16"
     showgrid="false"
     inkscape:zoom="0.50731339"
     inkscape:cx="226.0202"
     inkscape:cy="737.14421"
     inkscape:window-x="-11"
     inkscape:window-y="-11"
     inkscape:window-maximized="1"
     inkscape:current-layer="g890"
     inkscape:document-rotation="0" />
  <metadata
     id="metadata2">
Created by potrace 1.10, written by Peter Selinger 2001-2011
<rdf:RDF>
  <cc:Work
     rdf:about="">
    <dc:format>image/svg+xml</dc:format>
    <dc:type
       rdf:resource="http://purl.org/dc/dcmitype/StillImage" />
  </cc:Work>
</rdf:RDF>
</metadata>
  <g
     transform="translate(0.000000,1024.000000) scale(0.100000,-0.100000)"
     fill="#000000"
     stroke="none"
     id="g12">
    <g
       stroke="#000000"
       stroke-width="0.98"
       fill="#ffffff"
       id="g889"
       transform="matrix(26.330856,0,0,-26.330856,-433.94557,19599.402)">
      <g
         stroke="#000000"
         stroke-width="0.98"
         fill="#ffffff"
         id="g890"
         transform="matrix(0.36604782,0,0,0.36504259,-314.86618,403.98106)">
        <path
           d="m 1709.5732,187.37839 -1.8441,-4.47864 -0.3293,-3.88588 -1.3173,-2.70036 -4.6103,-1.05379 -2.2394,-1.31725 -1.6465,-3.42484 -1.1197,-4.47864 -1.6465,-27.39873 -1.3173,-5.92761 -10.1428,-20.68077 -1.3172,-8.10106 -2.1076,-6.125202 -9.4842,-12.97488 -1.9759,-5.66416 -0.3293,4.87381 -3.6883,-4.21518 1.3173,-4.01761 4.281,-2.17345 5.1373,1.38311 v -2.76622 l -2.9638,-5.66416 3.359,-2.89794 11.0648,-3.82002 -4.4127,-0.85621 -3.8201,-1.44897 -3.2272,-2.56863 -2.2393,-4.21519 -3.8859,2.9638 -2.8321,0.19759 -1.8441,-2.50277 -0.6587,-5.40071 -1.91,-1.51483 -12.0528,-6.19106 v -2.76622 l 3.2931,-0.46103 2.5687,-1.84415 1.91,-2.9638 1.6465,-4.01761 -6.5862,-1.44897 -5.0055,2.6345 -5.0056,3.55656 -6.5203,1.5807 -2.0418,-0.92208 -5.9934,-3.88587 -3.4907,-1.51484 -3.359,0.59276 -3.0297,1.84415 -2.7003,-0.0659 -2.5687,-5.20313 2.7662,-0.46103 -0.3951,-0.65863 0.1976,-2.17345 15.28,1.38311 4.6104,-1.64656 -1.5807,-6.05934 4.1493,-5.9276101 1.2514,-8.03519997 1.7124,-7.04727003 5.5983,-3.0296699 5.1373,1.7124299 5.4665,2.83208 5.1373,0.59276 3.82,-5.1372699 -6.1252,-4.0176 -9.6159,-3.55656 -9.2207,-0.46104 -5.0055,5.00554 h -1.5807 l -0.988,-0.65863 -2.0417,-2.37104 -0.461,1.18552 0.1317,1.11966 -0.2635,0.72449 h -1.7124 l 1.6466,-6.91555 -1.1197,-4.28105 -3.7541,-1.0538 -6.1911,2.89795 2.5686,6.32278 h -6.8496 l 3.1613,-6.84968 5.9277,-26.87183 0.5927,2.10759 0.988,2.1076 0.7244,2.17345 3.5566,-4.5445 1.9759,-4.08346 0.922,-4.47864 0.4611,-5.46657 -1.1855,-0.85621 -0.3952,0.0659 -0.1976,-0.32931 -0.5269,-1.91001 h -2.3052 l -2.2393,2.37105 -1.7783,-0.92208 -2.1734,-2.30518 -3.2273,-2.17346 2.5686,-3.29311 -2.832,-4.14933 -1.8442,0.46104 -1.5148,2.30518 -1.9759,1.38311 -4.5445,-0.85621 -4.3469,-1.44897 -4.1493,-0.26345 -4.2152,2.56863 1.9759,1.25138 0.8562,1.38311 0.5927,1.64656 1.1197,2.04173 -3.2273,2.50277 -2.1734,3.82002 -3.7542,8.89141 -2.0417,-10.40625 0.066,-4.47864 1.9759,-3.35898 -3.359,-3.4907 -2.1076,-3.75415 -2.1734,-3.22726 -3.82,-1.71242 1.1196,-1.91 0.7904,-1.5807 0.8562,-1.51483 1.8441,-1.31725 v -2.76622 h -3.4248 l -2.7662,-0.46103 -2.4369,-0.98794 -2.898,-1.64656 v 3.09553 l -12.1186,-11.855218 -5.6642,-1.97587 -0.7245,10.735558 -5.5324,-3.95174 -1.3173,-2.10759 -2.371,1.44897 -1.9759,0.65862 -4.8079,0.65863 v -2.76622 l 0.9879,-2.041728 0.3293,-1.31725 -1.3172,-5.79588 h -2.3711 l -1.1196,4.14932 -0.4611,3.22726 0.3952,2.502768 1.1855,2.04173 -3.6224,-3.09553 0.1976,-15.477648 -3.4249,-5.79588 -3.6882,0.85621 -2.898,-0.5269 -1.8441,-2.1076 -0.7245,-4.0176 -6.1252,3.02967 -7.5083,2.10759 -6.3228,3.62243 -2.7662,7.83762 0.1976,18.375588 -1.9759,6.84968 -5.269,7.17899 -2.1076,-3.35898 -9.3524,9.28659 -4.9397,1.91001 -22.9201,2.83208 -6.4545,3.09553 -4.9397,10.93315 -5.0714,6.52037 -5.6641,5.66416 -4.2152,2.37104 -2.0418,1.51483 -3.6224,7.83762 -2.2393,3.02967 -3.2273,1.84414 -10.7355,4.0176 1.3831,0.85621 0.1976,0.26345 v 0.46104 l 0.7245,1.71242 -4.2811,3.62243 -11.9869,20.6807699 -5.7301,6.3227801 -19.4952,14.95075 -4.4128,-2.37104 -5.7959,-0.98794 -8.3645,0.32931 -22.8542,10.73556 -2.2393,6.58624 -5.3349,6.84968 -6.7179,5.86174 -26.1474,11.52591 -6.5862,1.11966 -7.7059,-0.79035 -18.8366,-5.59829 -37.4757,-5.26899 -10.8673,-6.52037 -15.0166,-19.82456 -1.3172,-5.13726 0.7903,-5.73002 1.3173,-5.33485 0.2634,-3.68829 -2.4369,-3.4248401 -3.0297,0.0659 -2.5027,-0.46104 -0.9221,-5.26898 h -2.5686 l -3.0297,5.07139 -3.6224,8.2328001 -1.1197,7.64003 4.4128,3.35897 5.9276,2.70036 2.2393,6.58623 -0.3293,8.10107 -1.91,7.11313 -25.4887,60.527482 4.0176,1.25138 2.5027,2.83208 4.9397,8.03521 1.9759,2.04173 1.7124,0.92207 4.4128,0.32931 1.7783,1.25139 -0.5928,2.63449 -1.5148,2.17346 -0.8562,-0.0659 -1.1197,10.60384 -3.82,6.65209 -5.4007,4.08347 -5.73,3.16139 v 2.70035 l 2.2393,11.46005 1.91,6.78382 2.9638,6.19106 1.449,-10.01108 3.4907,-8.89141 5.6641,-4.80795 7.7059,2.30518 -3.6883,6.38865 -3.1614,8.69382 6.8497,3.29312 17.1242,-10.34038 8.1011,-0.59277 6.8497,7.64003 2.5686,9.94522 1.449,10.93314 2.6345,8.89142 6.0593,3.68829 5.269,4.5445 4.8079,10.34038 3.5566,11.59177 1.3831,8.16693 -3.6883,22.98595 0.7904,8.75969 7.5083,6.19106 2.5027,-3.29312 8.5621,6.05934 7.2449,7.44244 4.4786,9.87935 0.066,13.17247 -5.5983,20.28559 1.2514,23.2494 1.3172,8.10107 5.9935,11.65763 1.5807,5.99347 -0.8562,6.58624 -2.8321,6.71795 -3.4907,5.26899 -2.9638,2.10759 -2.4369,0.5269 -5.9276,2.23932 -10.2087,0.65863 -0.9879,-0.13173 -5.6642,3.4907 -2.4369,3.55657 0.9221,1.64656 4.8738,-2.70036 4.2152,6.1252 -0.1976,5.40071 -4.0176,9.41831 -0.3293,5.0714 2.6345,16.13627 -0.5269,2.96381 -1.1855,2.76621 -0.9221,2.83208 0.3293,3.42485 1.2514,3.16139 0.7903,0.79034 0.988,0.26345 4.9396,4.67623 4.2811,3.09553 2.1735,3.68829 -2.9638,4.93967 2.2393,3.22726 3.0955,-11.13074 2.4369,-4.08346 3.8859,-2.70036 -2.5686,0.26345 -1.9759,-0.26345 -1.449,0.39518 -1.1196,2.37104 -2.3052,-2.76622 9.2866,-6.58623 10.4721,0.72449 9.8135,5.92761 7.3107,8.89141 2.7662,6.38865 0.5928,4.93967 -1.0538,13.96281 -1.1197,5.92761 -2.7004,7.83762 -3.6883,7.31072 -3.8858,4.34691 2.2393,-1.44897 1.91,-1.97587 1.5807,-2.50277 1.1197,-2.9638 h 2.2393 l -3.2931,5.26898 -5.2032,6.71796 -4.4127,7.44244 -0.7904,7.37662 3.359,3.4248 17.2559,5.4666 -9.2866,2.2393 -7.1131,-2.7004 -5.7959,-6.1252 -10.4721,-16.92657 -2.9638,-2.37104 -4.6104,-0.92208 -0.6586,2.43691 0.8562,11.39418 -1.4489,4.0835 v 2.9638 l 1.5148,4.6103 0.9879,19.7587 4.2152,18.178 0.5269,8.4304 -2.6345,5.8617 2.5028,3.2932 -3.9518,8.0352 -5.4665,14.4238 -4.5445,7.2449 -9.1549,11.8552 -2.5686,5.0055 -0.3293,1.8442 1.1855,1.3831 4.8079,11.5259 0.3952,3.7541 -1.1855,6.4546 -1.91,3.5565 -5.8618,7.0473 -1.4489,3.9517 2.7003,8.2987 11.8552,9.0231 -0.5269,6.6521 5.5325,9.4842 -1.9759,8.0352 -16.6632,19.6928 -1.6465,3.0956 0.3293,3.7541 2.4369,6.2569 1.8441,1.3831 2.3711,0.1318 2.0417,1.2513 0.9221,4.808 0.3293,3.82 0.8562,2.9638 1.5148,2.2393 2.1076,1.449 -1.0538,-4.2152 2.0418,-0.7245 3.2272,1.7783 2.3711,3.1614 1.1196,5.5324 -0.2634,10.6697 1.449,4.4787 4.0176,-2.898 3.6882,2.3052 2.7004,5.269 1.449,7.3107 1.5148,2.7004 0.2635,1.6465 7.2448,-4.5445 4.6104,3.2273 -3.0956,6.7179 -1.5148,2.1735 5.5324,0.8562 7.8377,4.1493 2.6345,-2.371 h 2.5027 l 4.2811,18.639 2.6345,22.9201 7.7717,-1.8441 4.0835,7.4424 -0.1317,10.6039 -5.1373,7.3765 v 2.9638 l 5.269,1.3173 5.9276,0.1976 3.2272,2.4369 -2.7003,8.101 2.1076,2.898 4.7421,-2.898 -1.1855,-8.8255 5.7958,-8.2328 8.628,-6.3228 7.3766,-3.1614 7.7059,0.8562 9.089,4.4128 8.2328,6.9156 4.8079,8.1669 v -8.8256 l 7.5742,7.3766 4.5445,3.5566 3.9517,1.1196 2.7004,-1.7782 3.6883,-5.9935 1.7124,-1.3173 3.5566,-0.3293 2.2393,-1.0538 34.1167,-34.7753 2.832,-5.4007 2.4369,2.0417 1.0538,0.3952 3.5566,-2.4369 h -2.5028 l 3.6883,-15.0825 5.269,-9.089 -0.3952,-3.0955 -2.0417,-2.2393 -1.91,-2.6345 -2.5028,-7.1131 -1.9758,-7.7059 -0.9221,-8.628 0.7903,-9.6159 2.6345,-8.2328 4.1494,-5.9935 13.5676,-14.4238 0.3293,-1.8441 v -3.4908 l -1.6465,-2.3051 -8.3646,1.8441 -3.82,-0.9879 -0.2634,0.3293 -0.9221,-2.1735 -2.7662,-1.5148 -1.9759,-2.0417 1.5807,-3.4907 v -3.2932 l -4.4128,-1.9758 0.4611,-1.449 3.4907,-0.3952 4.8079,1.1856 2.9638,2.6344 2.7004,3.6883 2.7662,1.9759 3.0955,-2.371 13.5677,16.0045 7.9034,7.4425 9.7477,3.1613 1.2514,-2.7003 3.7541,-5.9935 5.5324,-6.0593 6.3228,-2.9638 12.1846,1.1855 6.2569,2.0417 4.7421,2.898 2.3052,-3.2273 2.5027,2.898 4.2152,2.8979 4.6762,2.2393 3.5566,0.8562 2.8321,1.8442 7.64,8.3645 3.2931,1.91 1.91,1.5148 8.4963,10.0111 6.7838,3.2273 3.0297,2.3051 1.6465,3.8859 h 2.5028 l 5.0714,-3.2272 5.1372,-1.6466 5.269,0.8562 5.2032,4.0176 -1.449,3.4907 -0.1976,2.1076 1.2514,1.5149 2.6345,1.4489 1.3831,-8.7597 5.6641,-3.9517 6.1252,-2.5028 2.898,-4.0834 0.7245,-4.4128 3.0955,-8.6938 0.7245,-3.2932 -1.3173,-2.9638 -2.4369,-2.3051 -1.0538,-2.5028 2.5687,-3.82 -1.91,-10.538 4.8079,-12.1845 8.4962,-9.8794 9.1549,-3.4248 v -2.7004 l -7.7059,-5.7959 -2.7003,-4.2151 -1.0538,-6.3887 0.5269,-6.3886 4.0834,-18.9684 8.3645,-23.1177 1.9759,-13.6335 -5.5324,-7.7717 8.2328,-28.3208 0.922,-12.0528 -2.3051,-19.3636 0.7903,-5.9276 1.5148,-4.5445 1.5807,-3.4248 0.7245,-2.6345 0.7245,-6.3228 3.1614,-7.2448 0.7245,-4.4128 -0.461,-6.1252 -1.7125,-10.66969 -0.3293,-5.5983 0.4611,-10.6697 1.7782,-10.99901 2.898,-9.15486 4.1493,-5.26899 v -2.70035 l -1.5807,-0.85621 -1.3831,-1.51484 -1.5148,-0.85621 v -2.70035 h 2.2393 l -2.0417,-4.74209 0.1975,-5.13726 1.7125,-5.40071 2.371,-5.66416 1.6466,-1.11966 2.2393,-0.0659 2.1734,-0.98794 1.0538,-4.08346 -0.7244,-2.76622 -1.9759,-0.0659 -2.4369,1.38311 -1.9759,1.44897 -3.0955,-11.98695 2.0417,-13.89695 12.3821,-33.12875 0.6586,-6.78382 -7.3765,-5.46657 -7.5083,-10.6697 -2.7663,-2.37104 -4.9396,-2.37105 -3.4907,-5.73002 -7.8376,-22.65664 -0.7245,-4.14932 -1.3831,-18.57318 0.3951,-6.71796 2.8321,-8.5621 3.6883,-5.92761 8.2987,-7.31072 4.3469,-5.0714 5.9276,-12.71143 3.8859,-5.92761 5.0055,-2.4369 7.3766,-2.30518 4.1493,-5.92761 5.5324,-16.13627 7.4425,-12.44798 2.8321,-6.71796 1.1196,-9.55004 1.0538,-4.47864 3.82,-7.57416 -0.066,-4.41278 -1.9759,-2.9638 z"
           id="path854"
           style="fill:#000000;fill-opacity:1;stroke:#000000;stroke-width:6.45451;stroke-opacity:1" />
      </g>
    </g>
  </g>
</svg>
