<?xml version="1.0" encoding="UTF-8" standalone="no"?>
<svg
   xmlns:dc="http://purl.org/dc/elements/1.1/"
   xmlns:cc="http://creativecommons.org/ns#"
   xmlns:rdf="http://www.w3.org/1999/02/22-rdf-syntax-ns#"
   xmlns:svg="http://www.w3.org/2000/svg"
   xmlns="http://www.w3.org/2000/svg"
   xmlns:sodipodi="http://sodipodi.sourceforge.net/DTD/sodipodi-0.dtd"
   xmlns:inkscape="http://www.inkscape.org/namespaces/inkscape"
   version="1.1"
   width="1360"
   height="1360"
   viewBox="0 0 1360 1360"
   id="svg224"
   sodipodi:docname="Shikoku.svg"
   inkscape:version="1.0.1 (3bc2e813f5, 2020-09-07)">
  <metadata
     id="metadata230">
    <rdf:RDF>
      <cc:Work
         rdf:about="">
        <dc:format>image/svg+xml</dc:format>
        <dc:type
           rdf:resource="http://purl.org/dc/dcmitype/StillImage" />
        <dc:title></dc:title>
      </cc:Work>
    </rdf:RDF>
  </metadata>
  <defs
     id="defs228" />
  <sodipodi:namedview
     pagecolor="#ffffff"
     bordercolor="#666666"
     borderopacity="1"
     objecttolerance="10"
     gridtolerance="10"
     guidetolerance="10"
     inkscape:pageopacity="0"
     inkscape:pageshadow="2"
     inkscape:window-width="1920"
     inkscape:window-height="974"
     id="namedview226"
     showgrid="false"
     inkscape:zoom="0.47177599"
     inkscape:cx="411.0218"
     inkscape:cy="476.84394"
     inkscape:window-x="-11"
     inkscape:window-y="-11"
     inkscape:window-maximized="1"
     inkscape:current-layer="g220" />
  <g
     id="g222"
     style="fill:#000000;fill-opacity:1"
     transform="translate(79.9836,279.99941)">
    <g
       stroke="#000000"
       stroke-width="0.98"
       fill="#ffffff"
       id="g220"
       style="fill:#000000;fill-opacity:1">
      <path
         d="m 1234.1815,241.04194 v -4.03338 l 4.1947,-0.80667 4.84,-2.42002 4.1947,-0.64534 v -3.71071 l -27.2656,0.96801 -7.0987,-4.03337 7.9054,-13.22947 5.3241,-3.38803 6.4534,-2.74269 1.936,-5.48539 5.9694,-6.13073 -0.3227,-8.71209 0.1613,-9.51876 -6.1307,-2.90403 2.904,-5.64672 -16.1334,-9.84143 -5.8081,-10.00277 -6.7761,-14.52014 -5.0014,1.45201 -1.1293,6.29206 -6.1307,0.32267 -3.2267,-2.42002 -2.42,-4.84005 -2.5814,-11.93878 -0.1613,-5.80806 0.484,-3.7107 3.2267,-10.32544 2.7427,-2.25869 -1.4521,-10.164099 0.3227,-15.16549 8.5508,-13.8748 -1.1294,-3.38803 1.452,-6.13073 5.1627,-9.03476 3.8721,-7.74408 -6.7761,0.80668 -4.356,-2.42003 -5.6467,-1.29067 9.5187,-2.25869 -0.8067,-3.2267 0.1614,-4.35605 0.6453,-5.16271 6.6147,-9.1960997 2.9041,-8.06674001 -9.1961,3.54937001 -8.5508,10.0027597 -7.9054,1.29068 3.2267,-8.3894197 5.1627,-6.61473001 -1.936,-6.61472999 -6.292,10.97078 -6.1308,1.45201 -10.0027,4.8400497 -31.9444,-1.7746897 -12.9068,9.8414397 -14.0361,-0.48401 -11.6161,-9.1960897 -4.8401,-6.13073 -1.936,-4.84005 -2.42,-3.87204 -6.1307,-0.32267 -12.9068,2.09736 -6.7761,-2.58136 -10.4868,-10.6481103 -5.9694,-2.42002 -6.1307,-1.29068 -19.0375,-11.13211 6.6147,-16.94017 -5.324,-6.61473 -10.9708,-3.87204 -10.1641,-8.38942 -2.2587,4.67872 -10.4868,12.74546 -3.872,2.74269 -7.9054,-2.42002 -2.2587,-5.80806 v -16.29483 l -1.6133,-7.26007 -2.5814,-6.29207 -4.5174,-3.54936 -7.9054,1.12934 -1.452,5.16272 -0.8067,8.38942 -2.904,3.7107 -7.7441,-9.35743 -5.9694,12.58413 -3.5494,4.19471 -16.9401,-4.35605 -4.5174,0.32267 -7.5827,3.2267 -4.5174,0.16134 -5.1627,-1.93602 -5.9694,-5.16272 -8.8735,-2.25869 -7.0987,-5.48539 -4.6787,-1.29068 -4.5174,0.64534 -7.9054,2.7427 -4.1947,0.64534 -6.1307,3.06536 -4.3561,7.09874 -3.7107,8.06674 -4.1947,5.9694 -14.8428,9.35742 -30.0083,14.19748 -13.2295,10.6481 -10.9707,11.1321103 -14.8429,11.61612 -14.0361,4.84005 -8.7121,-9.35743001 -8.2281,3.06537001 -13.7134,-3.06537001 -14.5202,-6.13072999 -10.1641,-5.9693903 6.7761,10.1641003 7.4214,6.13073 7.9054,5.00138 7.9054,6.7760697 6.1307,7.90541 4.0334,7.90542 2.2587,10.1641 1.1294,25.00691 -3.3881,26.7816 -3.5493,10.648109 -6.2921,9.03475 -16.2948,14.68148 -7.2601,8.38942 -5.1627,7.42141 -6.2921,7.26007 -8.0667,5.80806 -10.3255,3.38803 -11.9388,-0.80667 -23.2322,-8.87342 -11.4548,-2.25869 -26.6202,1.77468 -9.1961,-4.35604 -8.8735,-0.32267 -11.1321,5.64672 -10.0027,-1.29068 -14.6815,5.32405 -2.42,10.48678 -16.9402,5.16271 -17.2628,3.87204 -12.9068,5.32405 -9.5188,-0.968 -9.35742,-4.67872 -10.32544,-4.67871 -4.51738,-6.13073 -3.87204,-8.55075 -4.35604,-10.00277 -13.71347,-35.81635 -26.94293,-32.750999 -4.84005,-3.38803 -2.42003,-4.03337 -3.54937,-2.42003 -5.64672,-9.35742 -6.61473,12.58412 -6.4534,-0.32267 -8.71209,-1.45201 -1.12934,5.64672 h 5.32405 l 9.6801,0.96801 1.93602,10.00277 -3.7107,5.64672 -1.61335,9.680089 -27.58828,7.26008 -7.42141,9.35742 -23.39356,15.64949 -14.03614,9.84143 1.29068,23.71624 -7.26007,12.26146 -1.29068,14.35881 -20.65088,3.38803 -2.90403,16.13349 -3.54936,15.48816 -4.35605,21.29621 2.58136,16.13349 0.80668,17.26284 -10.00277,24.03891 -15.00415,15.16548 -13.06813,8.87342 -8.22808,8.06675 -49.04582,20.65087 -10.1641,9.6801 -4.35605,3.7107 -14.03614,16.94017 -3.06536,5.48539 -3.38804,9.35743 -7.74407,7.26007 -57.596578,28.87895 -14.03614,12.42279 -11.61611,-0.32267 -9.19609,6.13073 -10.64811,-0.64534 -13.8748,5.48539 -7.7440804,5.00138 0.80667,4.84005 4.6787204,5.00138 -6.4534004,2.7427 -8.71209,-2.7427 -20.0055296,6.77607 -20.65087,18.87619 -10.64811,6.29206 -9.19609,9.35743 7.09874,2.42002 23.39356,-13.22946 17.90818,-11.13211 -4.35604,9.68009 6.13073,3.54937 8.0667396,0.32267 4.19471,-6.13073 5.16272,-8.71208 14.3588104,-10.48677 16.94017,-9.1961 18.87619,-10.32543 12.26145,-3.87204 14.03614,-9.84143 7.09874,3.87204 5.48539,-2.7427 5.32405,-2.74269 8.873418,-0.64534 8.87342,1.29068 19.3602,12.42279 -4.51738,1.45201 -3.71071,2.58136 -2.90402,3.71071 -1.77469,4.51737 h 6.61473 v 4.03338 l -8.22808,10.80944 -0.16133,13.3908 5.64672,7.09874 9.03476,-7.42141 -1.77469,16.29483 -0.96801,3.38803 -3.7107,3.06537 -7.90541,0.80667 -3.54937,2.25869 -2.58136,6.61473 5.48539,1.93602 5.32405,4.03337 9.19609,2.90403 32.42832,-6.77606 18.71486,0.80667 -1.61335,4.03337 -8.38942,2.25869 -9.84143,7.58275 v 8.22808 l 3.54937,3.38803 5.16272,2.42003 2.58136,5.00138 7.90541,-2.90403 8.38941,0.16133 -8.22808,7.26008 5.9694,4.35604 5.64672,9.03476 -5.96939,5.48538 -10.80945,2.42003 -5.48538,8.55075 1.29068,10.1641 -9.51877,6.9374 -3.7107,-7.09873 -8.06675,-5.80806 -0.80667,-7.26007 -6.9374,-0.64534 -12.26146,-2.7427 -12.26145,3.38804 1.93602,9.68009 8.06674,-1.12934 4.03338,-5.80806 6.9374,4.51738 5.48539,3.7107 4.51737,6.61473 -10.00276,3.06537 -1.29068,7.26007 2.58136,7.74408 4.67871,3.38803 14.19748,0.32267 5.16271,1.93602 -1.29068,4.19471 -3.54936,4.19471 -2.09736,1.93602 -2.09735,0.484 -10.97078,-0.484 v 3.54937 l 6.61473,1.93597 3.06537,5.4854 -0.16134,7.9054 -2.90403,8.3895 h 10.00277 l -5.64672,7.0987 -9.51876,1.452 -21.45755,-9.5187 -5.32405,6.6147 1.77468,8.2281 -8.71209,13.8748 6.93741,1.936 11.13211,-20.4895 10.32543,4.6787 14.84282,1.7747 4.67871,10.0027 9.84143,17.4242 -2.58136,4.6787 -6.45339,8.5508 5.32405,12.4227 -10.48677,8.8735 8.87342,18.7148 6.61473,5.4854 8.06675,1.452 8.22808,-3.872 -2.74269,-1.936 -4.19471,-4.3561 -2.90403,-1.452 3.2267,-12.1001 5.96939,-0.484 7.90541,3.5494 9.35743,1.1293 -6.29206,-7.9054 7.90541,2.7427 20.81221,14.5201 4.35604,0.3227 6.13073,-1.6134 33.55766,-0.1613 -1.93602,7.0987 -5.96939,7.4215 -14.35881,15.8108 -8.38941,17.9082 -10.97078,15.1654 -1.61335,15.3269 3.7107,12.1001 17.90818,-15.4882 22.74823,-6.1307 8.71209,8.8734 13.71347,12.5841 6.9374,3.5494 9.51876,3.2267 10.00277,0.1613 8.38941,-4.84 6.77607,-7.0987 7.26007,-5.0014 6.61473,0.484 4.35605,9.5187 5.80806,-12.7454 10.6481,-2.0974 11.77745,4.3561 8.55075,6.776 2.42003,4.3561 4.67871,11.2934 2.42003,4.0334 3.87203,2.904 8.71209,4.5174 12.42279,-5.1627 -0.16133,-10.9708 -5.00139,-10.4868 -6.45339,-8.3894 -9.35743,-8.5507 -3.87204,-4.5174 -3.38803,-6.9374 -6.93741,-4.356 1.12935,-11.9388 -1.29068,-10.0028 2.90403,-6.6147 14.03614,0.8066 5.96939,-3.872 3.38803,-19.6829 -7.26007,-26.2976 3.54937,-21.9415 8.06675,-21.4576 16.77883,-9.0347 10.48677,6.2921 7.42141,5.4853 3.87204,-2.42 0.484,-5.324 -0.80667,-9.0348 5.00138,-7.4214 12.10016,-16.1335 15.8108,-27.91094 12.2614,-15.16548 6.6148,0.32267 2.904,6.77607 7.5827,-4.67872 -3.7107,-3.87204 -1.2906,-12.58412 5.6467,-4.03338 6.9374,-6.61473 5.808,-7.58274 2.5814,-13.3908 0.968,-2.09735 2.2587,-1.61335 2.0974,-2.25869 0.6453,-4.19471 -0.484,-2.7427 -1.936,-1.93601 -0.484,-2.90403 -1.9361,-4.19471 -2.904,-3.87204 -1.2907,-4.84005 3.0654,-6.9374 -1.936,-11.29345 7.2601,-11.93878 11.1321,-10.32544 9.6801,-6.29206 3.2267,2.25869 3.388,1.61335 -1.452,10.1641 2.5813,-1.29068 8.8735,-12.74546 4.84,-4.51738 4.0334,-2.58136 5.1627,-0.96801 7.7441,-0.32267 11.2934,-1.77468 12.1001,-5.00139 7.4215,-7.58274 -2.2587,-9.51876 7.5827,-13.55213 39.2044,-18.55352 20.6509,-9.19609 8.8734,-8.06675 31.299,-7.58274 32.5896,-5.00139 11.4548,10.32544 44.6898,11.45478 34.0417,3.7107 8.228,20.16687 12.9068,13.55214 13.5522,6.45339 14.0361,5.32406 6.9374,18.23085 19.3602,26.13626 13.7135,14.03614 -0.968,11.93878 10.3254,2.7427 6.9374,-1.29068 7.9054,12.74546 9.0348,19.52152 6.6147,-7.09873 0.484,-13.22947 2.42,-14.84281 1.1294,-7.74408 4.5174,-16.77883 3.2267,-21.78022 14.6814,-48.88449 13.7135,-27.58827 11.4548,-13.55214 8.2281,-6.77606 0.968,-7.09874 -1.6134,-10.00277 6.7761,-4.51738 6.4534,1.77469 6.4534,-2.58136 3.7107,-4.19471 1.6133,-6.9374 12.1002,-13.3908 -6.1308,-6.9374 13.5522,-10.97078 25.8136,-9.6801 39.3657,-26.7816 3.872,-9.03475 11.7775,-2.42003 4.1947,-16.13349 13.7135,-1.12935 4.5173,-9.68009 16.9402,-2.09736 6.2921,-7.09873 18.0695,-8.87343 14.6815,-7.09873 9.196,-5.32406 -5.4853,-3.06536 -8.7121,3.54937 z"
         id="path6"
         style="fill:#000000;fill-opacity:1;stroke-width:15.8108" />
    </g>
  </g>
</svg>
