<?xml version="1.0" encoding="UTF-8" standalone="no"?>
<svg
   xmlns:dc="http://purl.org/dc/elements/1.1/"
   xmlns:cc="http://creativecommons.org/ns#"
   xmlns:rdf="http://www.w3.org/1999/02/22-rdf-syntax-ns#"
   xmlns:svg="http://www.w3.org/2000/svg"
   xmlns="http://www.w3.org/2000/svg"
   xmlns:sodipodi="http://sodipodi.sourceforge.net/DTD/sodipodi-0.dtd"
   xmlns:inkscape="http://www.inkscape.org/namespaces/inkscape"
   version="1.0"
   width="1024.000000pt"
   height="1024.000000pt"
   viewBox="0 0 1024.000000 1024.000000"
   preserveAspectRatio="xMidYMid meet"
   id="svg14"
   sodipodi:docname="Sicily.svg"
   inkscape:version="1.0.1 (3bc2e813f5, 2020-09-07)">
  <defs
     id="defs18" />
  <sodipodi:namedview
     pagecolor="#ffffff"
     bordercolor="#666666"
     borderopacity="1"
     objecttolerance="10"
     gridtolerance="10"
     guidetolerance="10"
     inkscape:pageopacity="0"
     inkscape:pageshadow="2"
     inkscape:window-width="1920"
     inkscape:window-height="974"
     id="namedview16"
     showgrid="false"
     inkscape:zoom="0.52959847"
     inkscape:cx="226.0202"
     inkscape:cy="737.14421"
     inkscape:window-x="-11"
     inkscape:window-y="-11"
     inkscape:window-maximized="1"
     inkscape:current-layer="g889"
     inkscape:document-rotation="0" />
  <metadata
     id="metadata2">
Created by potrace 1.10, written by Peter Selinger 2001-2011
<rdf:RDF>
  <cc:Work
     rdf:about="">
    <dc:format>image/svg+xml</dc:format>
    <dc:type
       rdf:resource="http://purl.org/dc/dcmitype/StillImage" />
  </cc:Work>
</rdf:RDF>
</metadata>
  <g
     transform="translate(0.000000,1024.000000) scale(0.100000,-0.100000)"
     fill="#000000"
     stroke="none"
     id="g12">
    <g
       stroke="#000000"
       stroke-width="0.98"
       fill="#ffffff"
       id="g889"
       transform="matrix(26.330856,0,0,-26.330856,-433.94557,19599.402)">
      <path
         d="m 388.46631,426.01637 -1.87283,0.77254 -4.77572,4.51821 -4.65868,2.22399 -1.42803,1.31098 -2.64538,1.82602 -9.38758,3.27745 -3.48815,0.58527 -2.10694,-0.0702 -1.96647,-0.39797 -1.45145,-1.07688 -0.56185,-1.98989 0.6789,-3.65202 -0.39797,-1.59191 h -0.70231 l 0.42138,0.49162 -0.4448,1.24075 -0.11705,0.37457 0.18729,0.32774 0.37456,1.17052 -4.47139,8.77891 -3.09017,4.09682 -6.53151,2.31763 -2.06012,1.14711 -2.08352,0.79596 -2.29422,-0.46821 -0.65549,-0.65549 -1.21735,-1.91966 -0.4682,-0.53844 -1.19394,-0.21069 -3.79248,0.21069 -3.04336,-0.98323 -1.42803,-0.14047 -0.79596,-0.63208 -2.15376,-2.78584 -1.17052,-0.63208 -3.3711,-0.25751 -1.14711,0.25751 -1.1237,0.51503 -1.66214,1.05347 -9.05983,2.31763 -2.45809,0.16387 -3.90954,-0.32774 -1.31099,0.58526 -4.51821,5.54827 -3.3711,3.30087 -3.93295,2.69219 -14.67833,5.61851 -5.66532,1.10028 -3.86272,-1.84942 -5.64191,2.99654 -6.36763,1.75578 -6.90608,0.42138 -14.53786,-2.08352 -3.65203,0.95982 -1.73237,0.18729 -2.76243,-0.37457 -2.45809,-0.95983 -5.00983,-2.90289 -1.59191,1.68555 -8.19365,1.40463 -1.63873,1.05347 -1.49826,1.40462 -1.66214,1.24075 -4.91621,1.17052 -5.31417,2.85607 -2.59855,0.6555 -7.65521,-1.10029 -2.57515,0.0702 0.25752,-0.53844 0.0702,-0.16387 0.49162,-0.4448 -1.68555,-0.84278 -5.57168,-1.1237 -3.41792,-2.15376 -4.21388,-3.62861 -3.53497,-1.52168 -1.21734,-1.07688 -0.77255,-1.70896 -0.18728,-1.40462 0.2341,-2.62197 -3.30086,-2.4815 -14.58469,1.10029 -1.75579,-4.2607 -0.39797,-1.42804 -0.16388,-4.86936 -0.6789,-1.03006 -4.51821,-3.11359 -0.28092,-0.70231 -0.11706,-1.05347 -0.21069,-0.95982 -0.60867,-0.39798 -0.95983,0.16387 -1.61532,0.77255 -2.34104,0.60867 -1.31098,0.79595 -1.38122,0.39798 -1.84942,-0.6789 -1.03006,3.41792 -2.76243,1.28757 -3.32428,-0.0234 -2.66878,-0.51503 -4.12024,-1.73237 -1.17052,-0.25752 -1.381209,0.39798 -1.35781,1.03006 -0.70231,1.31098 0.6789,1.31099 -4.14364,3.67543 0.25751,1.38122 1.10029,1.47485 0.25752,1.38122 0.16387,1.89624 0.2107,0.8896 -0.2107,0.65549 -0.98324,1.17052 -4.05,3.18382 -9.92602,4.4948 -5.15029,0.72572 -3.74566,-2.20058 -0.0937,-1.33439 -1.42803,-1.10029 -3.34769,-1.70896 -1.26416,-1.21735 -3.27746,-5.94624 -2.94971,-6.90607 -0.60868,-2.78584 -1.38121,-0.16388 -1.38121,0.16388 -0.72573,-1.7792 -1.40462,2.62197 0.46821,3.8159 0.16387,3.69884 -2.45809,2.29423 -1.52168,-0.2107 -1.89625,-0.56185 -1.61531,-0.0468 -0.6555,1.33439 -0.63208,2.41128 -1.54508,1.82601 -3.62862,2.57515 -3.8159,-1.40463 -3.18381,2.55174 -3.137,3.55838 -3.62862,1.52168 1.3344,1.54508 -0.14046,2.13035 -0.77255,2.50492 -0.72572,4.02659 -2.78584,5.71214 -0.30434,0.30434 -0.0468,0.18728 0.0936,1.05347 0.35115,1.33439 1.05347,1.68555 0.2341,0.72573 -0.11705,1.31098 -0.63208,2.76243 -0.25751,0.11705 -0.84278,4.19046 0.2107,0.4448 -0.53844,0.56185 -1.70896,1.10029 -0.18729,-0.63208 -2.0367,1.00665 -0.0468,1.84942 1.10029,2.10694 1.40463,1.77919 0.98324,1.75578 0.35115,1.8026 0.14047,1.98989 0.53844,2.22399 1.1237,2.55174 1.75578,3.04335 2.0367,2.59856 2.08353,1.07688 4.75231,0.0936 1.70897,0.86618 2.0367,2.13035 4.9396,8.38093 2.76243,2.57515 4.58844,0.35115 9.92602,-1.73237 9.69191,-0.32775 9.59827,1.19394 3.74567,1.66214 3.09017,3.30086 0.49162,1.26417 0.74914,3.04335 0.77254,1.40463 1.14711,0.65549 1.24075,-0.25752 1.75578,-0.86618 14.608099,2.06011 0.63208,0.46821 1.19394,2.13035 0.63208,0.46821 1.38121,0.39798 0.93642,0.88959 1.3578,1.8026 2.62197,1.52168 0.70231,0.60867 2.94971,5.73555 1.3344,0.67891 1.54509,0.51503 1.10029,0.72572 2.17716,2.20058 5.08006,3.01994 5.89943,4.75232 3.69885,2.34104 4.30751,1.54509 5.45463,0.95982 4.14364,1.28758 3.53498,2.52832 10.1133,10.08989 3.86272,2.6922 4.26069,1.84942 5.12688,1.07688 4.54162,1.82601 7.37431,5.80579 5.26734,0.72572 1.19393,-0.42139 2.22399,-1.40462 1.07688,-0.32775 13.41417,-1.10029 4.4948,0.81937 9.80897,4.65867 8.38093,5.54827 10.86243,10.60492 2.94971,4.19046 9.69192,20.88209 1.38121,1.73238 9.38758,2.2474 1.91965,-0.4448 2.15376,1.3578 7.02313,2.73902 1.49826,1.49827 1.54509,2.62196 7.14018,1.03006 1.96647,1.91966 1.49827,-0.56185 0.32774,0.35115 0.56185,1.24076 7.8659,-4.00319 4.21388,-0.65549 4.35434,1.59191 4.61185,3.30087 2.99653,1.31098 1.35781,-1.05347 0.49162,-0.913 1.10029,-0.0936 1.66214,0.51503 1.42803,0.79595 0.91301,0.93642 1.73237,2.41127 2.20058,1.82601 2.43468,0.63208 2.45809,-0.72572 2.34105,-2.29422 0.0936,-1.84942 -2.13035,-8.84914 -2.17717,-4.82255 -0.58526,-2.99653 1.49827,-1.33439 0.14046,-1.73238 6.03989,-15.5211 1.94306,-2.94971 2.55174,-1.28758 1.87283,-0.58526 1.8026,-1.21734 2.10694,-1.10029 2.80925,-0.14046 v -1.1237 l -0.49162,-0.98324 0.25752,-0.35116 1.05347,-0.60867 -0.81937,-1.03006 4.21388,-2.34104 0.65549,-0.25751 0.63208,0.81936 1.26416,0.58526 0.91301,-0.4682 -0.35116,-2.41128 -1.00665,-1.87283 -1.05347,-0.56185 -2.43468,0.30433 -0.95983,-0.95982 -0.21069,-1.87284 0.70231,-1.21734 1.77919,0.98324 0.60868,-3.6052 -0.56185,-2.20058 -1.70897,-1.05347 -2.87948,-0.30434 -2.15375,-1.17052 -1.7792,-2.50491 -0.30433,-2.20058 2.20058,-0.32775 V 598.598 l -1.70896,-0.913 -2.0133,1.42803 -2.59856,-3.1604 -1.33439,-4.65868 1.87283,-3.01994 -0.74913,-1.84942 1.49827,-0.70232 h 1.24075 l 0.70231,1.07688 -0.18728,2.59856 1.03006,-1.52168 0.81936,-1.75578 1.10029,-0.63208 1.94307,1.84942 -1.10029,-3.58179 -1.82602,-2.55174 -2.29422,-1.52167 -4.47139,-0.86619 -8.26387,-4.65867 -0.84278,-1.19393 -0.81936,-2.10694 -0.56185,-2.52833 -0.30434,-14.8422 0.25752,-2.71561 0.60867,-2.55174 2.29422,-4.19046 5.71214,-6.83584 1.75578,-5.50145 0.72572,-3.25405 1.45145,-4.40116 0.28092,-3.11358 0.35116,-1.45145 1.66214,-1.70896 0.49162,-1.52168 -0.18728,-1.70896 -1.24076,-2.85607 -0.18728,-1.61532 0.77254,-2.06011 3.34769,-5.15029 2.99654,-2.48151 2.06011,-3.18381 2.29422,-4.75232 10.72198,-16.87891 12.85231,-16.48093 3.18382,-7.8659 5.8292,-9.62169 -1.89625,0.0468 0.35116,-2.20057 0.79595,-1.91966 1.68555,-2.0367 4.84596,-3.23064 1.21734,0.11705 0.93642,-0.21069 0.70231,-0.67891 0.39798,-1.31098 -4.2607,-0.74913 -6.76561,-3.01995 z"
         id="path837"
         style="fill:#000000;fill-opacity:1;stroke:#000000;stroke-width:2.29422;stroke-opacity:1" />
    </g>
  </g>
</svg>
