<?xml version="1.0" encoding="UTF-8" standalone="no"?>
<svg
   xmlns:dc="http://purl.org/dc/elements/1.1/"
   xmlns:cc="http://creativecommons.org/ns#"
   xmlns:rdf="http://www.w3.org/1999/02/22-rdf-syntax-ns#"
   xmlns:svg="http://www.w3.org/2000/svg"
   xmlns="http://www.w3.org/2000/svg"
   xmlns:sodipodi="http://sodipodi.sourceforge.net/DTD/sodipodi-0.dtd"
   xmlns:inkscape="http://www.inkscape.org/namespaces/inkscape"
   version="1.1"
   width="1360"
   height="1360"
   viewBox="0 0 1360 1360"
   id="svg224"
   sodipodi:docname="Somerset_Island.svg"
   inkscape:version="1.0.1 (3bc2e813f5, 2020-09-07)">
  <metadata
     id="metadata230">
    <rdf:RDF>
      <cc:Work
         rdf:about="">
        <dc:format>image/svg+xml</dc:format>
        <dc:type
           rdf:resource="http://purl.org/dc/dcmitype/StillImage" />
        <dc:title></dc:title>
      </cc:Work>
    </rdf:RDF>
  </metadata>
  <defs
     id="defs228" />
  <sodipodi:namedview
     pagecolor="#ffffff"
     bordercolor="#666666"
     borderopacity="1"
     objecttolerance="10"
     gridtolerance="10"
     guidetolerance="10"
     inkscape:pageopacity="0"
     inkscape:pageshadow="2"
     inkscape:window-width="1920"
     inkscape:window-height="974"
     id="namedview226"
     showgrid="false"
     inkscape:zoom="0.45192403"
     inkscape:cx="-179.49344"
     inkscape:cy="1189.377"
     inkscape:window-x="-11"
     inkscape:window-y="-11"
     inkscape:window-maximized="1"
     inkscape:current-layer="g894"
     inkscape:document-rotation="0" />
  <g
     id="g222"
     style="fill:#000000;fill-opacity:1"
     transform="translate(79.9836,279.99941)">
    <g
       stroke="#000000"
       stroke-width="0.98"
       fill="#ffffff"
       id="g220"
       style="fill:#000000;fill-opacity:1">
      <g
         stroke="#000000"
         stroke-width="0.98"
         fill="#ffffff"
         id="g894"
         transform="matrix(1.5937507,0,0,1.5937507,-1795.3679,336.61977)"
         style="fill:#000000;fill-opacity:1">
        <path
           d="m 1796.5183,-274.35977 -4.4816,-2.73876 -0.7469,1.49387 -0.9959,3.98365 -31.1223,-14.19175 -38.5916,-20.91417 -40.8324,-3.73467 -21.9101,-6.97139 -21.9101,6.47343 -4.2326,-4.97956 -21.9101,10.70606 -2.9877,2.98774 -1.4939,0.74693 -4.2326,-0.74693 -0.9959,0.74693 -0.747,3.23672 -0.4979,7.46934 -0.498,2.98774 h 0.9959 l -1.9918,2.48978 -21.9101,2.98774 0.747,-2.48978 h -0.747 l 5.4775,-11.20402 1.2449,-5.47752 -4.9795,-12.69788 -5.9755,-9.2122 -6.2245,-5.72649 -9.2122,-2.98774 -13.6938,-12.94687 -2.4897,0.49796 -5.4776,5.47752 -0.7469,1.74285 -2.4898,-0.74694 -1.9918,-3.23671 1.4939,-5.7265 -1.9919,-6.22446 -3.2367,-3.23671 -23.6529,-3.73468 -27.6366,-14.44073 h -20.4162 l -22.159,1.99183 -6.7225,4.73058 -3.9836,9.95913 1.2449,5.47752 v 5.97547 l 0.4979,4.73059 2.7388,2.73876 -3.4857,4.23263 -3.9836,-0.24898 -3.4857,-3.98365 -6.2245,-16.43256 -3.9836,-4.23263 -49.0487,2.98774 -2.4898,1.49387 -1.2449,2.48978 -1.9918,5.97548 -1.2449,2.2408 -2.7388,1.74285 -20.6652,1.24489 -7.2203,-2.98774 -1.9919,1.49387 -8.4652,12.19993 -4.4816,3.98365 -9.4612,3.73467 -10.4571,8.21628 -22.408,6.47343 -4.7306,6.97139 -2.2408,7.22037 -1.4939,10.70606 -0.249,11.453 1.2449,9.95912 1.9919,4.73059 2.9877,4.73058 2.7388,3.4857 4.9795,3.48569 4.9796,8.71424 h 2.7387 l 0.747,-1.49387 0.7469,-4.48161 0.7469,-1.99182 3.2368,-3.73467 3.4857,-1.49387 2.4897,0.99591 4.7306,5.22854 2.4898,1.49387 v 2.73876 l -17.1795,7.71832 1.7429,8.46526 2.7387,5.47752 6.2245,6.97139 1.2449,1.99182 1.9918,5.22855 6.7224,8.96321 1.4939,3.23672 7.7183,7.22036 16.9305,2.48979 6.7224,11.20401 -19.6693,2.73876 -23.6529,-8.46525 -7.2204,-7.71833 -16.9305,-26.64066 -3.4857,-3.23672 -3.2367,0.24898 -4.9795,5.97548 -1.2449,-1.2449 -0.747,-2.48978 -0.7469,-2.73876 -1.4939,-2.2408 -1.9918,-0.74693 h -2.2408 l -1.4939,0.99591 -14.6897,13.94278 -6.2244,0.99591 -2.4898,1.74285 -2.4898,5.22854 2.2408,3.98365 0.7469,0.99591 -1.4938,2.48978 -3.4857,1.24489 -1.7429,1.49387 3.2367,5.47752 0.498,3.23672 -4.4816,10.2081 8.9632,4.23263 4.7306,5.97548 4.7306,8.21628 1.7428,4.97956 -1.4938,2.2408 -1.7429,-0.24897 -1.7428,-2.24081 -1.4939,-3.73467 -1.4939,-1.99183 -2.2408,0.49796 -3.9836,2.98774 1.2449,3.98365 0.7469,1.99183 0.9959,1.74284 -1.7428,1.99183 -1.4939,0.74693 h -3.4857 l 5.7265,7.22037 1.7428,4.73058 -2.2408,6.22446 0.996,0.24898 0.7469,0.49795 1.2449,1.99183 -2.4898,3.23672 -2.4898,5.47751 -0.9959,7.220369 1.2449,8.71424 3.2367,13.19584 1.7429,4.73059 2.7387,1.49387 -1.7428,7.71832 -0.498,3.48569 0.7469,4.48161 -0.7469,2.48978 -0.9959,1.74285 -0.9959,0.99591 h -0.9959 l 0.9959,3.98365 3.7347,3.98365 1.4938,3.73468 0.249,2.48978 -0.4979,2.98774 -0.249,2.98773 0.9959,2.98774 -0.7469,5.22854 0.4979,4.23263 1.4939,2.73876 1.7428,0.49796 v 2.4897804 l -2.9877,0.49796 v 7.46934 l 0.7469,9.95913 v 7.9672996 l 0.9959,1.49387 2.7388,0.74693 0.9959,1.74285 0.7469,2.98774 0.747,2.48978 0.9959,1.24489 -1.9918,2.73876 -7.4694,-1.49387 -3.4857,1.49387 -1.9918,2.98774 -4.2326,11.70197 1.9918,4.48161 1.7428,2.98774 0.996,3.48569 -0.249,6.72241 -1.4939,6.22446 -2.2408,1.49387 -2.2408,0.24897 -1.4939,2.24081 0.249,5.47752 1.9918,2.98774 2.4898,2.2408 1.2449,3.23672 0.249,5.72649 0.9959,4.48161 1.4939,3.4857 1.7428,2.738761 -2.4898,5.97547 -1.9918,10.45708 -0.9959,11.95096 -0.498,10.70606 0.9959,7.71832 2.2409,3.98365 2.7387,1.74285 h 6.4734 l 0.498,1.49387 -1.7428,3.98365 4.7305,10.2081 1.9919,1.99183 -5.7265,-2.2408 -2.7388,0.24897 -1.9918,4.73059 1.4939,2.2408 h 0.7469 l -0.498,9.2122 4.9796,3.48569 10.2081,2.2408 0.498,1.99183 -0.249,2.48978 0.249,2.73876 1.2448,2.2408 5.7265,3.23672 2.2408,3.23672 2.9878,7.9673 2.2408,3.73467 -2.2408,1.49387 -0.9959,1.24489 -0.498,1.99183 0.249,2.2408 0.4979,2.48978 0.747,1.99183 0.4979,0.74693 0.249,1.24489 0.9959,6.47343 0.498,2.48979 1.4939,1.99182 1.4938,0.49796 5.4775,0.49795 2.2408,1.74285 1.7429,3.23672 1.4939,10.95504 1.7428,3.98365 3.7347,6.47343 -1.7429,1.99183 -1.7428,0.74693 -3.4857,-0.24898 4.4816,4.97957 1.4939,2.2408 -7.9673,-2.73876 -1.9919,1.74285 v 2.98773 l 0.747,4.48161 1.9918,8.21628 1.4939,3.73467 1.4938,2.48979 1.2449,3.23671 0.747,5.22854 v 3.73468 l -0.9959,7.46934 -0.249,4.97956 0.4979,4.73059 v 2.48978 l -0.2489,2.73876 -1.4939,2.2408 -0.498,2.48979 v 5.97547 l -0.7469,3.73468 -0.7469,3.48569 -0.498,4.73058 -0.249,4.48161 v 2.73876 l 1.9919,6.22446 2.7387,3.98365 0.7469,2.48978 -1.4938,1.99182 6.7224,5.7265 29.6284,-9.71015 5.4775,2.24081 -31.3712,10.45708 -3.2368,4.23263 -2.2408,1.49387 -6.2244,-0.49796 -1.4939,1.74285 0.747,3.73467 h 11.4529 l -6.7224,8.46526 -3.9836,2.48978 -0.498,3.23672 v 3.7347 2.4898 l -0.2489,4.4816 -1.4939,7.4693 -0.249,4.7306 1.4939,0.7469 9.4611,-1.9918 v 2.7388 l -5.4775,3.2367 -1.4938,2.7387 2.9877,2.4898 42.8242,-17.1795 h 14.1918 l 1.9918,-0.9959 v 2.4898 l 2.4898,-2.9877 25.1468,-2.2409 5.9755,7.9674 10.706,-0.498 7.2204,6.7224 3.9837,1.9918 2.9877,-1.4938 -0.249,-1.2449 -0.249,-2.4898 -0.2489,-1.2449 1.9918,-0.7469 1.7428,-1.4939 -4.4816,-6.9714 5.2286,-14.44073 -3.4857,0.99591 -2.4898,4.48162 -2.4898,5.2285 -2.7388,3.7347 -3.7346,0.9959 -4.7306,-0.4979 -2.9878,-3.2368 1.7429,-7.2203 14.1918,-3.73469 2.2408,-6.97139 0.2489,-0.24898 0.747,-1.49387 0.7469,-2.2408 0.498,-1.99183 v -1.74285 -3.73467 -1.74285 l 0.7469,-6.72241 0.498,-2.2408 0.9959,-3.23672 8.9632,-19.17132 1.2449,-6.22445 0.4979,-3.98365 0.9959,-2.48978 2.9878,-4.23263 1.7428,-2.98774 0.747,-2.2408 1.9918,-7.22037 3.9836,-8.46526 4.4816,-2.98774 4.7306,-0.74693 4.4816,-2.98774 6.7224,-8.21628 2.7388,-5.22854 2.4898,-8.21628 1.7428,-7.9673 0.9959,-2.73876 1.7429,-1.24489 2.2408,-0.24898 2.2408,-1.49387 1.7428,-2.98774 1.2449,-5.22854 -0.7469,-2.48978 h 0.7469 l -3.9836,-18.92234 -6.4734,-17.92643 -7.2204,-12.69789 -3.7347,-4.73058 -13.1958,-5.7265 -3.4857,-5.47752 -0.747,-4.97956 0.996,-3.73467 1.4938,-3.73468 0.747,-4.97956 -0.747,-9.21219 0.498,-3.4857 1.7428,-0.99591 -0.7469,-3.73467 -1.4939,-1.24489 -1.4938,0.99591 -0.996,2.73876 -0.7469,1.99182 -0.4979,0.49796 -0.498,0.24898 -0.9959,0.74693 -2.7388,4.73059 -0.249,0.49795 -15.4366,-0.74693 -18.1754,-8.96321 h -4.4816 l -3.9837,2.2408 -3.4857,4.48161 -1.7428,0.49795 -1.7429,-2.73876 -0.4979,-3.73467 v -3.98365 l 0.4979,-3.73467 0.996,-3.4857 3.7346,-5.47752 4.7306,-0.24897 9.2122,3.48569 30.3753,-2.2408 30.1264,-2.48979 10.2081,-4.97956 10.7061,1.24489 5.4775,-3.48569 3.9836,-4.73059 1.7429,-0.49795 2.2408,2.2408 5.2285,8.96321 2.2408,0.74694 h 10.4571 l 2.2408,1.24489 4.9796,4.73058 45.314,10.70607 4.9796,4.97956 12.4489,1.74285 8.9632,4.23262 23.4039,-7.46934 7.9673,-5.7265 2.4898,-3.23671 4.2327,-11.70198 2.2408,-4.23263 16.6815,-17.92643 2.4898,-5.97547 4.2326,-15.18767 2.7388,-6.47343 11.9509,-20.914171 0.9959,-1.99182 0.249,-2.73876 v -5.97548 l 0.249,-5.22854 0.7469,-1.74285 1.2449,-0.74693 4.2326,-9.46117 6.7225,-10.20811 3.2367,-6.97139 2.4898,-10.70606 v -1.74285 l 10.457,-25.6447496 v -3.98365 l -27.8855,-6.72241 4.2326,-4.4816104 14.4407,-0.24898 8.9633,-5.22854 5.2285,1.74285 2.9877,-0.99591 2.7388,-2.48978 2.2408,-3.4857 2.2408,-6.72241 3.9837,-16.93051 2.7387,-7.22037 7.7183,-8.96322 0.996,-2.73876 0.7469,-4.73058 1.2449,-3.98365 1.7428,-2.24081 1.4939,-0.74693 h -0.7469 l 0.9959,-1.49387 0.4979,-1.49387 v -2.2408 -3.98365 l 0.747,-1.49387 10.457,-15.187669 1.4939,-5.47752 -5.7265,-12.94686 -2.2408,-7.22037 1.2449,-3.23672 1.4939,0.74694 2.2408,3.73467 0.9959,0.74693 h 10.2081 l 6.4734,-4.23262 16.4326,-32.36717 4.9796,-6.22445 8.4652,-15.43665 3.7347,-12.44891 3.4857,-5.97547 7.4693,-18.17541 1.2449,-6.72241 v -6.72241 l -0.7469,-5.22854 -1.9918,-2.73876 0.9959,-4.23263 1.7428,-3.73467 2.2408,-2.48979 1.7429,-0.49795 1.4938,1.74285 0.498,2.98773 0.4979,3.23672 1.2449,2.98774 2.9878,0.99591 2.7387,-5.22854 4.7306,-16.93052 -5.2285,-5.72649 -2.7388,-1.99183 z"
           id="path892"
           style="fill:#000000;fill-opacity:1;stroke-width:24.3999" />
      </g>
    </g>
  </g>
</svg>
