<?xml version="1.0" encoding="UTF-8" standalone="no"?>
<svg
   xmlns:dc="http://purl.org/dc/elements/1.1/"
   xmlns:cc="http://creativecommons.org/ns#"
   xmlns:rdf="http://www.w3.org/1999/02/22-rdf-syntax-ns#"
   xmlns:svg="http://www.w3.org/2000/svg"
   xmlns="http://www.w3.org/2000/svg"
   xmlns:sodipodi="http://sodipodi.sourceforge.net/DTD/sodipodi-0.dtd"
   xmlns:inkscape="http://www.inkscape.org/namespaces/inkscape"
   version="1.1"
   width="1360"
   height="1360"
   viewBox="0 0 1360 1360"
   id="svg830"
   sodipodi:docname="Southhampton_Island.svg"
   inkscape:version="1.0.1 (3bc2e813f5, 2020-09-07)">
  <metadata
     id="metadata836">
    <rdf:RDF>
      <cc:Work
         rdf:about="">
        <dc:format>image/svg+xml</dc:format>
        <dc:type
           rdf:resource="http://purl.org/dc/dcmitype/StillImage" />
        <dc:title></dc:title>
      </cc:Work>
    </rdf:RDF>
  </metadata>
  <defs
     id="defs834" />
  <sodipodi:namedview
     pagecolor="#ffffff"
     bordercolor="#666666"
     borderopacity="1"
     objecttolerance="10"
     gridtolerance="10"
     guidetolerance="10"
     inkscape:pageopacity="0"
     inkscape:pageshadow="2"
     inkscape:window-width="1920"
     inkscape:window-height="974"
     id="namedview832"
     showgrid="false"
     inkscape:zoom="0.30611178"
     inkscape:cx="-565.95211"
     inkscape:cy="692.14283"
     inkscape:window-x="-11"
     inkscape:window-y="-11"
     inkscape:window-maximized="1"
     inkscape:current-layer="g826"
     inkscape:document-rotation="0" />
  <g
     id="g828"
     style="fill:#000000;fill-opacity:1">
    <g
       stroke="#000000"
       stroke-width="0.98"
       fill="#FFFFFF"
       id="g826"
       style="fill:#000000;fill-opacity:1">
      <path
         d="m 1342.1817,1023.4673 2.7507,-3.0257 -2.7507,-9.3524 -1.6504,-4.9512 -2.2005,-3.3008 -3.3008,-0.5501 -7.1518,3.5759 -3.851,-0.2751 -18.7046,-17.60433 -50.0623,-13.4784 -5.7764,-5.2263 -5.5014,-10.4525 16.229,7.4268 7.7019,1.3753 8.5271,-2.7506 6.6016,-5.7765 -9.6273,-6.6016 1.6504,-11.2778 3.3008,-4.4011 -4.126,-6.6016 -13.4783,-9.6274 -15.4038,-3.8509 -1.3754,-2.7507 -0.8252,-3.3008 -1.1003,-3.5759 -9.3523,-15.1287 -11.2777,-12.6531 -12.3781,-8.5271 -11.5528,-3.3008 1.1002,3.0257 2.7507,8.5271 -1.6504,3.851 -2.2005,4.126 -5.5014,7.1517 4.4011,7.977 6.6016,8.5271 3.3008,8.252 -4.9512,7.7019 -8.252,-0.275 -15.954,-14.0285 -35.2086,-13.4783 -10.1775,-9.9025 -14.0285,2.7507 -6.8767,-3.5759 1.3753,-1.1002 3.851,-4.9512 -3.3008,-2.2006 -3.851,1.1003 -3.5759,3.3008 -2.2005,3.8509 2.7507,9.3523 1.1003,2.4757 -4.9513,7.4268 -8.5271,2.2005 -16.504,-1.1002 -11.5529,3.0257 -24.206,11.2778 -18.9796,-0.8252 -17.3293,4.4011 -3.8509,-2.2006 -1.65053,-4.9512 1.10033,-3.8509 2.2006,-3.0258 1.6504,-3.5759 -0.8252,-5.7764 1.1002,-2.4756 1.9255,-4.126 2.2005,-1.9255 1.1003,3.851 0.8252,2.7506 2.2006,-1.6504 3.5758,-5.2263 4.9513,-4.4011 5.2263,-2.7506 16.7791,-3.851 11.0027,-8.252 15.4038,-4.6762 3.8509,-4.4011 -0.5501,-7.4268 1.3754,-2.7507 2.7506,-12.1029 -3.8509,-10.4526 -2.7507,-5.2263 -8.252,-4.126 -4.6762,-4.126 -4.4011,-5.7765 -8.8021,-16.7791 -2.4756,-7.1518 -1.1003,-7.4268 1.1003,-6.6016 2.4756,-4.126 1.3753,-4.6762 -1.1003,-7.1518 1.3754,-2.7506 -3.3008,-14.3036 -0.8252,-6.87665 V 730.245 l 0.8252,-3.57589 2.4756,-4.67615 0.8252,-3.57588 v -3.85095 l -0.5502,-3.02574 -0.5501,-1.92548 -0.2751,-1.65041 -2.2005,-6.87669 -4.9512,-5.22629 -5.7765,-3.30081 -3.8509,-1.37534 -40.15993,-51.16261 -0.8252,-2.20054 -1.3753,-5.77643 -1.1003,-2.75068 -3.851,-5.22628 -4.4011,-1.92548 -17.8794,0.27507 v -3.30081 l 2.2006,-9.35231 -2.7507,-1.65041 -8.8022,-1.10027 -1.9254,-1.37534 -5.7765,-9.62737 -5.5013,-4.67615 -5.5014,-3.02575 -5.5013,-0.8252 -5.5014,1.10027 -9.0772,5.22629 -10.7277,3.57588 -1.6504,1.65041 -2.2005,-1.65041 -9.9025,-12.10298 -4.126,-2.75068 -17.0542,0.27507 -6.0515,-3.57589 -5.2263,-4.95122 -3.8509,-5.77642 -10.1775,-21.45529 -3.0258,-4.67615 -3.5758,-3.57588 -11.2778,-3.57588 -2.4756,-1.65041 -3.0258,-3.02575 -3.5759,-5.77642 -1.9254,-2.20054 -2.4756,-0.82521 -6.8767,-0.55013 -11.0028,-7.15176 -18.7046,-5.50136 -0.8252,-2.47561 -0.5501,-3.30081 -1.3753,-4.12602 -15.954,-17.32927 -6.0515,-12.10298 0.5502,-17.87941 -4.4011,-8.25204 -3.3008,-10.1775 -3.851,-8.80217 -5.7764,-3.57589 -7.977,-1.6504 -14.3035,-6.32656 -33.8333,-0.27507 -9.3523,-7.7019 -12.9282,6.60163 h -7.4269 l -3.5758,-1.92547 -3.0258,-3.85095 7.7019,-6.60163 -18.15445,-3.30081 -13.75339,1.10027 -4.40109,-1.10027 -5.50136,-4.12602 -15.12872,-18.70461 -6.8767,-3.85095 -2.75068,-3.57588 -0.55013,-6.60163 1.37534,-2.47561 7.42683,-9.62737 0.8252,-1.92548 v -1.6504 l 0.55014,-1.92548 1.37533,-2.20054 1.65041,-1.37534 1.10027,-0.27507 0.82521,-1.10027 0.27506,-3.57588 -1.6504,-3.30081 -11.27778,-3.02575 -14.30353,-10.72764 -12.92818,-3.30082 -2.20055,-2.47561 -5.22629,-7.97696 -1.6504,-1.65041 -2.75068,-0.27507 -2.47561,-0.8252 -0.8252,-2.47561 1.6504,-4.40109 1.65041,-9.3523 -4.40108,-5.77643 -12.10299,-5.22628 -7.7019,-5.50136 -4.12601,-1.37534 -3.02575,2.20054 -3.57588,10.17751 -2.20054,4.95122 -5.50136,5.77643 -10.17751,24.20596 -4.40108,8.25204 -2.75068,6.87669 -1.65041,7.42683 -0.27506,10.17751 0.27506,1.37534 0.55014,1.10027 0.55013,1.92548 v 3.30081 l -0.55013,2.20054 -2.47561,1.92548 -0.8252,1.92547 -2.75068,14.30353 -1.10027,4.12601 -5.22629,9.07724 -6.05149,3.30081 h -13.20326 l -2.75068,-1.92547 v -4.95122 l 1.10028,-6.05149 0.27506,-5.22629 -1.10027,-4.67615 -12.92818,-28.05692 -3.57589,-11.55285 1.37534,-5.50135 1.92548,-14.5786 v -4.12601 l -1.37534,-4.67616 -2.20054,-4.40108 -10.72765,-14.02846 -16.229,-12.10298 -12.65312,-4.67615 -5.77642,-6.60163 -10.72764,-15.4038 3.02574,-6.87669 2.75068,-1.37534 6.87669,2.20054 26.13145,-12.10298 6.05149,-5.22629 5.22628,-9.62737 -0.27506,-7.42683 -3.85095,-8.80217 -17.60434,-27.23172 -3.30081,-7.97696 3.57588,-3.57588 2.47561,-1.10027 -0.55014,-3.30082 -1.92547,-4.12601 -1.10027,-3.85095 v -3.30082 l 1.10027,-1.37534 0.27506,-2.47561 -1.37533,-5.77642 -5.50136,-9.35231 -23.38076,-12.92818 -8.52711,-1.10027 -3.02574,1.37534 -2.20054,3.30081 -3.30082,9.07724 -2.20054,3.57588 -5.77642,3.85095 -5.77643,-1.37534 -0.27506,-10.72765 -3.30082,-8.5271 2.75068,-9.352298 5.50136,-9.90244 -4.40109,-20.07995 -10.17751,1.10027 -13.20325,4.95122 -22.00543,21.73036 -40.15989,46.211388 -9.62738,23.38076 -7.15176,21.73035 0.8252,17.32928 -0.8252,9.62737 -7.15176,9.07724 -3.30082,11.00271 -3.85095,21.73035 -3.02574,31.6328 -1.65041,7.15176 -1.37534,3.57588 -1.6504,5.50136 -1.10027,5.77642 -0.27507,5.22629 2.20054,4.12602 6.05149,3.57588 2.20054,4.95122 -3.57588,4.67615 -8.80217,18.42955 -2.20054,8.80217 1.10027,7.70189 1.92548,7.15177 1.10027,7.15176 0.55013,6.05149 1.65041,10.72765 0.55014,8.25203 v 30.80759 l -1.37534,8.25204 -3.30082,6.05149 -3.85095,5.50135 -3.30081,6.0515 -1.92547,6.05149 -1.92548,8.25203 -1.37534,8.80217 v 7.7019 l 2.47561,6.32656 7.97697,8.25203 2.47561,6.60163 0.27507,8.5271 -2.20055,5.50136 -3.85095,4.12601 -4.40108,3.30082 4.95122,10.45257 1.10027,5.22629 -4.95122,2.47561 1.37534,3.57588 1.37534,2.20055 3.85095,3.30081 -2.20054,4.67615 -2.47561,1.65041 -5.77643,-0.27507 -1.92547,1.65041 -1.37534,3.57588 -20.35502,67.94175 -5.50135,13.20325 -6.8767,10.45258 5.77642,15.95393 1.10028,6.60163 -1.10028,31.08266 -0.8252,8.25203 -2.47561,7.7019 5.50136,6.87669 6.32656,4.95127 -1.92548,7.1517 -2.47561,4.4011 -1.65041,4.4011 -0.55013,7.977 0.8252,4.6761 1.37534,4.9512 1.10027,5.2263 -0.8252,5.7764 2.47561,6.6017 2.47561,5.2263 3.57588,3.5758 4.40109,2.4756 -1.10028,3.5759 -1.37533,3.851 -1.10028,3.5759 -0.27506,3.8509 3.30081,6.6016 12.65312,10.7277 4.12602,5.2263 2.75067,7.4268 1.92548,8.5271 0.55013,9.0772 -1.92547,8.8022 -4.67615,7.1518 -6.0515,3.3008 -18.70461,2.7507 -12.65311,8.252 -14.30353,13.2032 -13.20325,3.0258 -6.8767,8.252 -56.113827,28.6071 -11.00271,14.3035 -42.08537,71.24263 -6.0515,14.5786 -2.75067,15.4038 1.6504,15.6788 7.42683,16.229 9.62738,9.0773 11.27778,3.8509 37.13415,-3.0257 12.37805,-5.5014 11.552847,-11.8279 9.62737,-16.5041 5.50136,-6.8767 5.50135,-3.0257 25.85637,-2.7507 39.60977,10.7276 13.47832,-2.2005 48.96207,-20.6301 25.30624,-2.4756 4.95122,-3.3008 5.50135,-8.252 9.62737,-17.8794 v 3.0257 l 0.27507,6.0515 -0.55013,7.7019 v 8.252 l 1.6504,6.8767 4.67616,4.126 6.32656,2.4756 5.77642,3.851 2.47561,8.8022 0.55013,4.401 1.65041,8.5271 0.55014,4.4011 -0.82521,2.7507 -4.12601,8.8022 -1.10027,1.9255 -1.65041,3.5758 1.10027,7.977 1.92547,8.5271 1.92548,5.5014 h -1.10027 l 0.55013,8.8021 -2.47561,9.0773 -3.57588,9.0772 -2.47561,7.977 -0.55013,8.8021 0.8252,18.7047 -0.27507,7.1517 0.82521,5.2263 0.8252,20.9052 -0.27507,8.252 0.55014,2.7507 0.55013,7.1517 0.82521,3.3008 5.77642,13.2033 2.20054,11.2778 1.37534,4.6761 14.30353,18.4296 10.1775,3.0257 34.38348,-0.5501 33.55827,-14.0285 26.68158,-15.4038 31.90786,-25.5813 5.22629,-6.6016 6.60163,-2.7507 7.42683,-9.6274 12.10298,-2.7506 5.50136,-3.5759 13.20325,-25.0312 4.95122,-3.5759 2.47561,-4.126 6.60163,-27.7818 -1.37534,-8.8022 9.07724,-20.0799 v -11.5529 l 2.47561,-2.2005 7.97696,-9.3523 7.42683,-6.8767 2.20055,-3.5759 1.37534,-4.126 0.55013,-2.7507 0.8252,-1.6504 1.65041,-1.6504 2.75068,0.275 6.05149,2.7507 8.25203,-3.0257 11.82792,8.252 6.05149,0.5501 4.95122,-4.6761 10.72765,-21.4553 2.47561,-2.7507 9.0772,-3.0257 2.4756,-1.9255 1.6505,-1.6504 3.0257,-6.6016 1.9255,-3.5759 21.4553,-22.0054 5.2262,-3.851 5.2263,-1.9255 5.5014,0.2751 6.0515,5.5014 3.3008,1.3753 3.0257,-2.4756 1.1003,-3.3008 2.2006,-12.9282 -0.8252,-3.0258 0.5501,-1.9254 1.6504,-0.82523 2.4756,0.27503 -2.2005,-4.67613 -6.6017,-10.1775 -1.6504,-5.5014 0.5502,-3.0257 1.3753,-3.0258 2.7507,-4.4011 1.6504,-9.9024 0.8252,-2.4756 1.1003,-1.6504 0.5501,-1.6504 -0.5501,-1.9255 -1.1003,-2.7507 -0.5501,-1.6504 v -1.6504 l -0.5502,-1.6504 -9.0772,-14.8537 -2.2006,-4.9512 -1.1002,-6.6016 5.7764,-7.977 3.3008,-2.7506 3.5759,-1.1003 3.0257,-1.6504 1.6504,-4.126 1.9255,-9.0773 3.851,-8.5271 4.401,-6.3265 4.9513,-4.4011 10.7276,-1.9255 1.9255,0.5501 1.3753,1.3754 2.7507,3.8509 1.1003,1.1003 h 3.0257 l 2.4756,-1.6504 3.5759,-4.6762 6.6016,-4.9512 6.3266,-2.2005 6.0515,0.8252 6.8767,4.9512 5.5013,2.2005 3.3009,-5.2263 3.0257,-8.5271 3.5759,-7.7019 6.0515,-5.5013 6.6016,-2.4756 13.2033,-0.8252 0.8252,2.4756 7.1517,12.103 1.1003,4.9512 v 4.126 l -0.8252,4.126 -1.6504,4.6762 -12.9282,23.3807 -5.2263,5.2263 -6.6016,12.9282 -5.2263,6.0515 -0.5501,3.0258 3.3008,2.7506 -0.5502,1.6504 -0.5501,2.7507 -0.2751,1.6504 8.8022,9.0773 4.6762,1.6504 6.0514,-5.2263 6.6017,0.275 7.4268,-4.9512 15.9539,-4.126 h 4.9513 l 19.5298,5.7764 h 38.7845 l 1.3754,1.3754 3.8509,6.3265 2.4756,1.1003 2.4756,0.8252 16.7792,11.5529 3.5759,4.6761 3.0257,6.8767 -1.3753,3.5759 0.275,4.126 0.5502,5.2263 0.5501,6.0515 -1.1003,0.275 -1.9254,4.6762 -1.6505,4.9512 0.8253,0.5502 -1.9255,1.9254 -1.1003,0.82523 h -3.5759 l -4.4011,1.6504 -8.5271,5.7765 -3.8509,1.3753 -3.3008,2.2005 -2.4756,5.2263 -3.851,11.5529 -0.2751,6.0515 3.851,4.6761 7.4268,5.2263 0.2751,2.4756 -0.2751,7.7019 0.5502,3.0258 1.3753,1.3753 23.6558,11.0027 h 7.1518 l 6.0515,-10.7276 4.9512,8.5271 -0.2751,-6.0515 3.5759,-3.3008 31.9079,-2.2006 5.7764,3.0258 10.17753,9.6273 9.0773,3.0258 5.2262,5.7764 3.3009,1.9255 2.7506,0.2751 9.0773,-3.3009 6.3265,-0.5501 6.8767,1.9255 6.3266,4.126 5.5013,7.4268 3.851,7.977 3.8509,5.5014 4.6762,2.7506 19.5298,-2.2005 6.6016,1.9255 7.977,11.0027 44.0108,20.6301 18.1545,15.9539 20.08,5.5014 3.5759,-0.2751 2.7506,-1.9255 9.6274,-10.1775 -0.2751,-1.9255 v -5.2263 l 0.2751,-5.7764 0.8252,-4.6761 2.2006,-3.5759 3.0257,-1.3754 7.7019,-0.5501 1.6504,0.2751 1.6504,-0.2751 1.1003,-1.3753 1.9255,-4.9513 1.3753,-1.6504 1.3753,-0.5501 2.4756,-1.9255 4.9513,-7.9769 8.5271,-4.4011 18.9796,-17.8794 5.7765,-2.7507 2.4756,-2.4756 4.126,-7.4268 5.7764,-6.3266 1.9255,-1.1003 1.6504,-2.2005 1.6504,-4.6762 2.4756,-7.9769 2.4756,-4.1261 2.2006,-2.2005 34.9336,-6.3266 9.3523,-4.9512 6.6016,0.2751 2.7507,-1.3753 z"
         id="path400"
         style="fill:#000000;fill-opacity:1;stroke-width:26.9566" />
    </g>
  </g>
</svg>
