<?xml version="1.0" encoding="UTF-8" standalone="no"?>
<svg
   xmlns:dc="http://purl.org/dc/elements/1.1/"
   xmlns:cc="http://creativecommons.org/ns#"
   xmlns:rdf="http://www.w3.org/1999/02/22-rdf-syntax-ns#"
   xmlns:svg="http://www.w3.org/2000/svg"
   xmlns="http://www.w3.org/2000/svg"
   xmlns:sodipodi="http://sodipodi.sourceforge.net/DTD/sodipodi-0.dtd"
   xmlns:inkscape="http://www.inkscape.org/namespaces/inkscape"
   version="1.0"
   width="1360"
   height="1360"
   viewBox="0 0 1020 1020"
   preserveAspectRatio="xMidYMid meet"
   id="svg74"
   sodipodi:docname="Spitsbergen.svg"
   inkscape:version="1.0.1 (3bc2e813f5, 2020-09-07)">
  <defs
     id="defs78" />
  <sodipodi:namedview
     pagecolor="#ffffff"
     bordercolor="#666666"
     borderopacity="1"
     objecttolerance="10"
     gridtolerance="10"
     guidetolerance="10"
     inkscape:pageopacity="0"
     inkscape:pageshadow="2"
     inkscape:window-width="1920"
     inkscape:window-height="974"
     id="namedview76"
     showgrid="false"
     inkscape:zoom="0.35872474"
     inkscape:cx="126.55538"
     inkscape:cy="422.07579"
     inkscape:window-x="-11"
     inkscape:window-y="-11"
     inkscape:window-maximized="1"
     inkscape:current-layer="g72"
     inkscape:document-rotation="0"
     scale-x="0.75"
     units="px" />
  <metadata
     id="metadata2">
Created by potrace 1.10, written by Peter Selinger 2001-2011
<rdf:RDF>
  <cc:Work
     rdf:about="">
    <dc:format>image/svg+xml</dc:format>
    <dc:type
       rdf:resource="http://purl.org/dc/dcmitype/StillImage" />
    <dc:title></dc:title>
  </cc:Work>
</rdf:RDF>
</metadata>
  <g
     transform="matrix(0.1,0,0,-0.1,0,1024)"
     fill="#000000"
     stroke="none"
     id="g72">
    <path
       d="m 7494.3154,5701.8473 6.3178,23.9816 131.7703,-5.802 8.5096,-5.0284 25.7868,-35.3278 h 43.7085 l 15.8589,9.67 7.0913,25.6578 4.8995,38.8091 8.3807,47.5765 29.9127,65.6273 98.5054,-45.2557 6.9624,7.2203 4.6416,7.736 4.2548,-2.5787 11.3462,-39.9694 6.8335,-16.3746 7.0913,-12.1198 5.931,-4.8995 28.4944,1.8051 28.6233,-29.1391 -0.2579,-13.4091 35.8436,-13.1512 15.8588,16.1167 0.5158,59.8253 82.7755,26.5603 39.9694,-47.3187 14.5695,-8.6385 12.7645,9.4121 6.3177,38.5512 -2.3208,15.9878 -12.3776,51.7025 -5.2863,13.7959 10.5726,36.1015 16.3746,33.3938 17.535,24.6264 27.5918,20.8872 14.6984,28.8812 13.796,40.2273 11.604,44.3533 -10.3147,22.3055 -9.5411,13.2802 -5.5442,20.8873 1.0315,44.4821 5.931,24.3685 8.7675,23.4659 5.9309,28.4944 -2.5787,38.8091 -11.0883,20.5005 -33.9095,-2.063 -13.667,7.2203 -29.1391,36.2304 -275.0157,119.9084 -275.0158,120.1663 -147.1134,168.3875 -71.3004,23.5949 -26.8182,36.3593 -11.733,-3.868 -14.5695,-17.535 -46.5451,0.7736 3.2233,40.0984 10.7015,56.8598 2.3208,40.3563 -5.9309,16.1167 -47.5766,68.9796 -8.1228,26.6893 -6.3178,34.8121 -4.2548,35.5857 -2.9655,9.799 -4.2548,9.1543 -1.5472,12.7644 4.6416,20.1137 5.6731,12.1198 4.8995,7.2203 4.6416,10.5726 4.8995,22.0476 -30.2994,42.806 -69.6243,-45.1268 -32.3624,8.5097 -112.1723,94.7663 -7.4782,3.4812 -49.6395,14.1827 -19.2111,-12.2487 -13.796,-30.2994 -11.2172,-35.07 -12.1198,-28.8812 -16.5035,-12.1198 -62.1461,-1.1604 -19.9847,18.4376 -65.7562,0.2578 -16.5036,35.7147 -0.9025,39.7116 16.3746,79.6811 2.5787,42.2902 -9.0254,23.3371 -51.1867,83.4201 -112.6881,-17.535 -35.199,39.067 20.7584,34.6832 91.2851,21.5319 55.9573,115.6536 -17.4061,46.1583 -6.0599,31.7177 -0.7736,51.7024 6.3178,48.737 11.9908,33.0071 13.9248,20.1136 12.1198,8.2518 -9.7989,27.0761 -11.862,11.733 -10.0568,17.406 -4.2548,42.4192 5.4152,44.6111 9.2833,8.2518 2.8365,6.1888 -13.9249,38.1644 -11.8619,22.0477 -24.3684,29.6548 -11.733,25.6578 -3.2234,23.8527 -5.4152,84.0649 -3.3523,35.4568 -16.5035,69.6242 -98.3765,140.0221 -63.0486,40.872 -30.0416,38.1644 -31.073,60.47 -61.3725,-5.5442 -38.0354,-39.5827 -21.532,-39.0669 -19.8558,-50.671 -16.7614,-62.275 -7.736,-66.143 -12.2487,-63.8222 -9.5411,-69.8822 -4.5127,-41.9035 -2.0629,-31.8466 -7.6071,-90.3826 -18.1797,-49.1238 -20.7583,-33.6517 -32.2335,-90.8983 -22.4345,-19.3401 -43.1928,-11.604 -43.9664,-65.1116 -23.5949,-5.2862 -12.6355,70.3978 71.4293,56.473 12.7645,52.2182 -0.7736,34.5542 -4.2548,21.9188 -4.6417,17.9218 -2.3208,23.5949 1.5472,36.4882 3.997,30.4284 10.7015,53.5075 -7.9939,52.4761 -1.934,91.9298 -9.9279,30.9441 -10.1858,4.5127 -34.1674,-24.3685 -48.2213,19.8558 27.2051,36.1014 30.2994,1.5472 27.5918,21.6609 19.0822,97.0872 -11.604,22.1766 39.0669,62.9197 20.6294,79.81 11.3462,27.3339 24.7553,31.8467 60.8567,40.4852 30.2995,53.2496 17.406,107.0151 -39.7116,90.3826 -21.6609,31.8466 -30.0415,23.0792 -24.7553,79.4232 -121.5846,212.6118 -32.6202,23.4659 -24.8842,46.0294 -18.1797,56.9887 -94.8953,54.7969 -76.3288,104.5653 -178.3154,57.1176 -46.0293,-71.945 -9.2833,-26.0446 -3.3523,-47.4477 4.1259,-24.4974 17.9218,-52.0892 6.3178,-12.2488 -15.4721,-63.0486 -18.9532,-11.7329 -19.8558,19.0822 -66.5299,120.0373 -7.736,35.8436 2.7076,24.8842 11.3462,30.6863 1.934,24.4974 -4.7706,27.205 -9.67,19.469 -17.7929,22.0477 -28.6233,60.7278 -13.7959,42.2903 -11.4751,48.3505 -2.8365,24.11 -3.868,57.505 -3.3523,22.047 -8.3807,16.375 -101.5998,30.299 -22.3056,27.076 -20.5004,9.928 -23.466,-18.695 -66.4009,-100.568 -35.9725,-17.922 -22.4345,-31.589 -11.3462,-7.091 2.8366,-28.108 4.7705,-20.629 5.802,-13.7961 6.4467,-6.5757 -37.7776,-57.6334 -10.0568,-36.1014 -8.2518,-46.803 -2.3208,-25.9157 2.3208,-20.6294 5.931,-31.3309 22.6923,-66.6587 54.668,-51.5736 20.7583,-78.5206 -20.3715,-36.2304 -226.4078,57.5044 -21.1451,-26.6893 -16.3746,-62.5328 -5.6731,-61.1147 0.9026,-55.8283 6.3177,-47.9633 10.4436,-38.5512 -4.3837,-13.4092 -11.604,-54.1522 7.6071,-13.6669 7.9938,-27.0761 7.2203,-34.8121 5.1574,-36.6172 1.8051,-10.3147 1.934,-3.6102 2.1918,-7.2203 2.063,-21.5319 -1.4183,-13.667 -7.8649,-42.0324 -2.7077,-11.6041 27.2051,-57.2466 7.6071,-32.1045 -10.8305,-23.8527 7.9939,-38.938 30.8152,-85.6121 11.604,-42.9349 4.7706,-34.0385 3.3523,-49.7685 3.739,-27.8497 11.0883,-33.007 26.0447,-4.2548 12.3776,-17.7929 -29.3969,-46.4161 -5.802,-19.7269 -2.7076,-43.1928 3.2233,-19.8558 6.5757,-13.1513 6.5756,-24.7553 13.667,-105.21 5.5441,-60.9857 9.1543,-158.4596 13.667,-114.2353 9.4122,-109.2069 -5.5442,-92.8323 29.139,-41.7746 67.5613,-158.9753 9.6701,-15.8589 5.4152,-20.8873 0.9025,-48.608 -0.2578,-54.1522 2.0629,-38.2933 5.802,-38.0355 9.6701,-80.3257 6.4466,-38.938 10.0569,-37.3908 33.9096,-70.269 10.0568,-36.7461 20.3715,-143.2454 7.9939,-26.5604 9.9279,-18.9533 8.6386,-27.5918 9.2832,-116.0404 13.7959,-32.2335 32.3624,-18.5664 -0.9025,-10.8305 -0.5157,-9.5411 -0.9026,-9.5411 -1.6761,-11.7329 21.9187,-68.9796 -8.3807,-40.872 -24.2395,-17.9218 -51.0578,14.6984 -10.8304,16.5036 -11.4752,30.2994 -1.4182,10.7015 -3.868,40.6142 -2.7076,14.9563 -8.2518,12.8934 -19.469,5.4152 -8.5096,12.1197 -11.6041,23.7239 -24.6263,34.2963 -11.8619,25.5289 -9.9279,35.8436 -2.5787,27.9787 0.7736,30.1705 -0.1289,43.0638 -3.0945,70.7847 -4.2548,28.8812 -9.1543,28.2365 -36.3593,48.8659 -11.733,23.208 -37.7776,100.3106 -43.8375,88.4485 -44.611,14.9564 -54.7969,-164.7774 -17.1482,-1.6762 -12.7644,40.6142 -1.1604,80.7125 10.9593,59.8253 39.8406,92.0587 17.535,61.1146 2.3208,2.9655 5.5441,-1.0315 -9.4121,68.4639 -15.9878,31.9756 -34.8122,27.8497 -14.4405,34.6832 -19.3401,88.8353 -13.0223,33.9096 -40.4852,29.139 -22.9502,30.0416 -9.9279,52.3471 -5.5442,47.4477 -11.0883,39.7116 -7.6071,42.806 4.2548,55.9572 -9.0253,33.5228 -12.1198,80.8415 -7.0914,38.1644 -18.8243,61.1146 -2.8366,35.07 5.6731,58.7938 -23.5948,37.3908 -11.6041,30.6863 -8.7675,41.6456 4.5127,41.3877 -2.3208,22.8213 -5.4152,17.2772 -4.6416,26.5603 -4.2549,42.806 -1.0314,18.5665 13.1512,51.0578 -8.7675,27.4629 -10.4436,21.274 -31.7177,28.4944 -21.0162,47.1898 -28.2365,25.7867 -19.469,38.1644 -97.2161,292.9376 -38.938,73.6212 -180.8941,124.6789 -12.2487,-7.2202 -7.736,-18.9533 -13.2802,-55.5705 -51.5735,-157.2992 -74.2659,-148.1449 -17.6639,-48.0923 8.1228,-17.6639 9.0254,-5.6731 18.8243,3.2233 -22.9502,-30.6862 -54.4101,-38.938 -18.5664,-63.9512 19.7268,-0.7736 40.3563,-41.1299 19.8558,-4.3837 -16.2456,-24.8842 -103.9207,-11.2173 -71.8161,-96.4424 -30.2994,-89.0933 -10.0569,-21.1451 9.4122,-40.2274 30.9441,-91.543 -9.9279,-18.1796 5.802,-37.5198 12.7645,-36.875 25.1421,-34.1675 6.9624,-39.4537 5.6731,-44.4822 9.7989,-31.4598 -5.673,-9.799 -5.1574,-13.667 -4.7706,-18.4375 -4.2548,-23.466 12.2487,-24.8842 26.8183,-33.3938 12.6355,-30.4284 22.8213,-92.3166 9.5411,-15.7299 -31.202,-170.4505 -18.5665,-61.6303 -18.3086,-11.6041 -25.271,52.734 -12.7644,14.5695 -18.1797,-11.733 -14.5695,2.3208 -12.8934,29.5259 -4.3838,39.0669 11.4752,30.9441 -3.0945,39.7116 0.9026,38.0355 6.4467,75.2973 -6.8335,0.5157 -4.6416,10.9594 -11.733,70.011 -2.8366,10.8305 -38.6801,56.7308 -13.0223,28.7523 -2.8365,39.3248 -12.2488,24.4974 -48.4791,44.869 -18.6954,6.5756 -8.1228,11.2172 -2.9655,14.1827 -2.3208,38.938 -2.7076,14.3117 -22.0477,30.8152 -30.4283,12.1197 -30.2995,-9.4121 -22.0476,-33.5228 24.4974,-67.1745 4.1259,-22.0477 -4.6417,-38.1644 -12.5065,-4.7705 -91.672,101.7287 -23.9816,6.7046 1.934,30.2994 3.3522,21.403 4.8995,11.8619 6.1889,2.1919 -5.6731,48.0923 -6.4467,41.3878 11.0883,-1.1604 21.7898,-19.598 11.2172,-3.2233 9.9279,8.3807 19.9848,30.9441 10.0568,6.7046 11.604,16.8903 36.6172,113.0749 -9.1543,56.3441 -14.9563,19.2111 -32.2334,-5.4152 -63.5644,37.5197 -61.8882,-35.1989 -86.9014,18.9533 -77.1024,-81.3572 -115.2668,-10.0569 -55.3126,-57.7623 -18.9532,-8.3807 -18.9533,11.2172 -36.6172,47.5766 -18.1797,7.3492 10.4437,66.143 17.535,18.1797 37.7776,-14.1827 48.2212,11.8619 212.9986,255.031 9.799,19.7269 -7.9939,46.803 103.7917,-0.9026 27.9786,24.8842 13.667,-22.6923 278.368,41.7745 92.8324,102.5024 44.2242,123.2607 -6.9624,33.007 -1.2893,30.1705 0.7736,32.3624 -0.5157,39.4538 -2.7077,47.0608 -2.4497,23.337 -37.7776,96.8293 -25.3999,37.7776 -26.4315,13.4091 -125.0657,-81.2283 -132.8018,3.2234 -62.0172,-71.8162 -111.012,-27.205 -58.5359,-57.8913 -25.9157,-42.5481 -86.6435,-82.3887 -48.8659,6.4467 -86.2567,-95.1531 -25.5289,27.4629 23.337,36.3593 5.2863,28.3654 -4.6416,47.8345 -4.3838,12.7644 -12.1197,18.3086 -5.6731,24.2395 -4.2548,13.667 -21.7899,45.7715 -35.3278,35.1989 -109.2069,10.1858 -18.5665,-67.4324 -5.4152,-25.142 0.1289,-52.3472 5.802,-34.0385 8.8965,-19.34 9.1543,-6.7046 -3.997,-22.6924 11.9909,-19.0822 -7.9939,-25.9156 58.0202,-58.2781 26.9471,-63.6933 -2.4497,-113.8485 -5.1574,-41.3878 -3.3522,-5.1573 -19.7269,-11.0883 -9.0254,7.736 -48.2212,120.1663 -16.7614,16.3746 -16.2456,-27.9787 7.3492,-39.7116 3.868,-17.2771 4.7705,-13.7959 -15.9877,-16.8903 -20.1137,10.4436 -36.1015,53.2497 8.7675,51.9603 3.2234,14.8274 -5.8021,-1.0315 -4.6416,5.0284 -9.5411,20.5005 -2.9654,43.9664 -39.3249,90.2536 -13.6669,43.3218 1.0314,14.3116 3.2234,15.2142 -1.0315,22.4345 -11.2172,35.8436 -29.1391,45.6426 -8.8964,36.4882 -21.2741,60.8568 -26.3025,6.1888 -62.9196,-36.8751 -9.4122,-14.9563 -8.6386,-25.5289 -7.736,-35.8436 -11.9908,-23.0791 -31.9756,26.3025 -14.3117,-14.5695 19.9848,-67.5613 -21.2741,-71.6872 -27.7208,0.7736 -112.817,72.4608 -32.7492,-4.1259 -21.7898,-42.2903 28.3654,-46.9319 -12.2487,-49.8974 -4.1259,-13.538 1.8051,-12.8934 1.4183,-22.5634 1.1604,-11.4751 -3.2234,-3.6102 -5.802,-12.6355 -2.9655,-3.9969 9.5411,-42.935 11.2173,-30.8151 69.8821,-120.1663 44.8689,-27.0761 15.3431,-26.3025 1.2894,-44.4822 -14.3117,-13.7959 -245.361,72.9765 -72.5897,-102.3734 -13.0223,-29.6548 -7.2203,-39.9694 169.9348,-74.6527 22.3055,-35.4568 -278.2391,-4.8995 -18.1797,-61.2435 9.799,-64.4669 12.6355,-33.0071 14.9563,-12.5066 27.2051,-5.5441 31.4598,-39.9695 23.2081,-57.1177 6.7045,-8.6385 4.5127,-9.2833 2.9655,-21.7898 1.934,-24.8842 2.4497,-19.5979 2.1919,-33.5228 -5.802,-28.1076 -14.1827,-35.3278 -6.3178,-10.0569 -6.3177,-4.3837 -3.0944,-13.1513 3.868,-37.6486 5.1573,-11.9909 26.6893,-33.2649 -10.3147,-21.1451 -33.6517,-22.3056 41.6456,-131.3835 42.2903,-43.1928 9.67,-18.3086 5.5442,-16.3746 16.7614,-94.2506 7.2203,-31.202 8.7675,-23.7238 27.0761,-23.8527 16.3745,-41.2588 12.2488,-64.5959 4.7705,-84.5805 2.3208,-93.8638 1.4183,-23.0792 13.9248,-41.3877 2.8366,-26.4314 -12.5066,-16.6325 26.0446,-72.5897 29.7837,-3.4813 246.3925,212.4829 12.8934,60.8568 -18.8244,91.414 -57.1176,175.2211 -23.0792,28.1075 15.0853,22.1766 7.2203,16.5036 5.9309,25.7867 -3.9969,23.466 56.344,39.7116 v -39.7116 l 8.2518,-18.6954 3.9969,-27.4629 2.8366,-29.5259 4.6416,-22.9502 27.7208,-63.4354 8.8964,-11.733 -4.3838,-21.403 15.9878,-37.6487 26.6893,-29.7837 25.6578,-1.5472 11.733,47.5766 -6.3177,31.202 -41.5167,142.3429 87.8039,-23.466 56.2151,46.5451 19.7269,-3.4812 -7.736,-33.6517 -3.868,-9.4122 4.5126,-44.3532 3.0944,-22.0477 3.997,-19.34 -8.7675,-7.865 -23.2081,-56.473 8.5096,-39.7116 26.9472,-6.7046 8.7675,-38.938 -26.5604,-23.5948 -55.0547,1.805 -26.5603,-20.6294 -9.1543,-17.7928 -5.8021,-20.1137 -10.9593,-59.9542 -7.2203,-25.5289 -26.6893,-46.803 5.802,-0.5157 5.2863,-7.736 4.7705,-14.5695 4.1259,-21.6609 -15.2142,-27.4629 -28.6233,-21.7898 -27.3339,-89.8669 -14.3117,-23.0792 -31.073,-27.8497 16.1167,-23.337 34.5543,-10.3147 135.7672,-136.0251 32.7492,1.1604 15.4721,-11.3462 14.0537,-31.8466 -38.5512,-2.1919 -20.3715,-14.6985 -17.0192,-24.8842 50.1552,-38.6801 190.6931,85.3542 19.5979,-16.7614 15.8588,-50.9289 2.4498,-16.7614 1.1604,-15.7299 0.3868,-39.4537 1.4183,-13.2802 10.5725,-39.7116 12.3777,-59.6964 3.868,-23.4659 -18.9533,-28.8812 -131.7703,-2.3208 -199.3316,126.8709 -199.3317,127.3865 -136.283,-35.8435 6.9625,-58.1492 14.3116,-39.4537 41.6456,-78.1339 37.6487,-32.2334 34.1674,-54.1522 170.8373,-95.5399 26.4314,-34.1675 20.7584,-66.0141 -29.1391,-16.2456 -62.4039,25.6578 -28.3655,-39.5827 -39.1958,-157.1703 -12.8934,-38.809 7.0914,-33.2649 15.3431,-33.7807 17.6639,-26.3025 13.9249,-10.3147 41.1298,-6.4467 21.6609,-23.0791 15.3431,-50.2842 -10.8304,-36.7461 5.2863,-47.1898 13.1512,-41.0009 12.5066,-17.1482 22.4345,-12.8934 45.9004,-57.2466 191.0799,-55.4415 17.0192,-36.2304 -4.3837,-22.0477 12.2487,-72.7187 23.337,-21.1451 158.5886,-13.4091 158.5885,-13.4091 66.5298,50.7999 35.199,8.3807 30.4283,-37.3908 -114.6221,-100.5684 -275.2736,-3.4812 -98.6344,-58.0202 8.5097,-29.0101 31.4598,-32.8781 26.3025,-70.14 17.9218,-19.7268 36.1015,-88.8354 52.2181,-79.939 117.2008,-51.3156 16.6325,-34.5543 10.1858,-72.3318 h -27.5919 l 55.4416,-78.9075 -7.4782,-19.469 2.9655,-13.7959 5.4152,-33.5228 3.0944,-13.4091 -6.5756,-18.6954 -20.8873,-40.2273 9.2833,-32.2335 19.7268,-44.869 28.4944,-46.674 13.2802,0.5158 28.8811,43.3217 39.067,25.7868 206.8098,-21.9188 206.9387,-21.9187 -9.799,59.3095 -38.938,50.671 -15.601,46.9319 15.2142,10.1858 15.2142,-1.8051 58.7938,-65.1116 14.9563,-27.5918 11.9909,-33.5228 0.1289,98.2476 3.4812,31.8466 8.7675,28.7522 9.1543,14.8274 7.2203,-1.8051 7.0914,-7.9939 8.6385,-5.0284 44.3532,19.7269 -9.0253,-29.268 -10.1858,-23.0791 -8.8964,-26.6893 -4.7706,-40.6141 20.7584,-11.862 15.0852,22.1767 14.3117,36.6171 91.1561,120.1663 23.466,9.799 -9.0254,65.3694 -3.0944,15.2142 -8.1228,21.532 -16.8903,30.4283 -7.2203,27.2051 11.604,41.2588 11.6041,27.5918 14.1827,13.2802 18.9532,-2.7076 34.9411,-50.0263 17.7929,-14.5696 15.472,24.8843 -4.2548,19.8558 123.3896,-9.1543 41.3878,29.0101 -15.601,72.3318 -18.0507,64.0801 -20.7584,45.2558 -23.8527,17.1482 -69.2375,11.7329 -36.2304,35.7147 -21.0162,74.5237 52.2182,121.9714 17.1482,10.7015 35.1989,-6.3178 15.8589,34.0385 -7.2203,21.532 -9.2833,15.8588 -7.9938,20.2426 -3.4813,34.1675 0.6447,17.4061 2.4498,28.4943 0.6446,14.4406 -1.4182,17.4061 -2.5787,7.8649 -2.8366,5.1574 -1.1604,9.1543 1.6762,33.9096 3.2233,23.208 1.8051,22.4345 -2.4498,31.9756 -9.4121,18.9533 -46.803,21.6608 v 20.3716 l 24.8842,24.3685 51.0578,10.1857 31.4599,81.6151 29.5258,39.067 28.1076,15.3431 50.9288,-5.6731 0.1289,-37.3908 15.8589,-62.7908 4.3837,-42.5481 -2.9654,-46.1583 -7.865,-26.9472 -9.5411,-21.403 -7.9939,-29.3969 69.3664,-108.4333 36.7461,-30.2994 34.4253,37.7776 -8.3807,16.3746 -3.6101,3.6101 21.5319,90.3826 88.5775,26.1736 30.4284,27.205 -5.2863,21.403 -5.802,13.538 -6.1888,6.0599 -6.8335,-2.0629 3.0944,32.3624 v 26.5603 l -3.6101,17.9218 -7.4782,6.5756 11.9908,40.7431 -5.802,4.2548 -4.8995,12.1198 -3.4812,19.0822 -2.0629,25.7868 9.4122,15.2141 2.7076,37.133 1.805,44.2243 6.3178,36.6172 39.9695,124.2921 29.2679,58.9228 17.1482,17.406 11.4751,-13.538 11.6041,-38.8091 26.3025,-40.6141 12.1197,-35.7147 -17.2771,-39.5827 -9.5411,-15.3431 -9.1543,-6.7045 4.1259,-27.8497 5.5441,-15.601 14.4406,-28.3655 2.9655,-22.0476 0.9025,-30.8152 1.2894,-27.4629 13.7959,-33.7807 -3.2233,-51.1867 -7.7361,-58.278 -8.7675,-104.3075 -11.0883,-55.6994 -13.7959,-40.3562 -12.2487,-15.8589 -98.3765,-19.9847 -3.2233,-18.0508 -7.2203,-7.736 -6.8335,-14.4406 -6.4467,-20.6294 17.1482,-12.3776 11.604,-21.6609 8.2518,-39.7116 3.0944,-65.3694 47.4476,-170.8373 56.7309,-75.6841 164.5195,35.5857 164.3906,35.5857 26.8182,34.8122 -3.3523,76.7156 161.1673,138.4748 5.1573,14.1828 2.7076,19.9847 4.1259,46.0294 2.3208,11.604 9.9279,26.5604 7.9939,38.4222 1.2893,34.9411 -10.1857,16.3746 4.8995,39.9694 8.5096,17.2772 19.5979,17.9218 24.1106,44.8689 22.8213,80.7126 16.7614,36.7461 18.3086,4.3837 28.2365,-56.344 4.8995,-13.4091 2.9655,-21.532 0.9025,-40.872 6.5756,-10.0568 93.8638,22.3055 23.2081,-17.2771 -1.0315,-75.1684 -10.3147,-24.4974 -44.0953,-5.0284 -9.0254,-13.5381 -8.8964,-21.0162 -8.5096,-26.8182 -7.4782,-30.8152 -16.8903,-47.3187 -88.8354,-134.7358 -8.7675,-19.3401 -7.4782,-26.1735 -4.7705,-28.3654 -7.736,-56.602 -5.8021,-31.5888 -4.7705,-20.1136 -16.1167,-34.1675 -20.3716,-28.6233 -10.7015,-7.4781 h -10.1857 v -19.9848 l 12.7644,-5.2863 22.8213,-42.1613 11.733,-10.4436 67.3034,37.9065 25.7867,-0.6447 3.997,-9.2832 0.7736,-12.5066 3.3523,-35.9725 1.5472,-11.3462 10.5726,-31.5888 13.4091,-14.5695 130.6099,-60.8567 202.6839,166.4535 36.6172,6.4467 21.1451,-34.0385 -1.5472,-35.5858 -12.5066,-18.9532 -43.1928,-17.7929 -30.2994,-39.8405 -28.7522,-16.5036 -94.1217,-104.8231 -187.8565,-17.2772 -187.9855,-17.406 -89.48,67.1745 -21.9188,0.6447 -7.8649,-7.6071 -14.8274,-26.3025 -95.54,-46.0294 -21.274,2.9655 -21.2741,14.4406 -19.469,2.3208 -89.9958,-85.3542 -18.1796,-31.073 -11.733,-40.3563 15.9878,-66.0141 9.9279,-24.3685 44.0953,-35.4568 11.6041,-31.3309 -5.6731,-42.4192 -15.4721,-12.3776 -46.1583,23.0791 -33.3938,48.2212 -82.0019,-3.2233 -71.4293,-46.9319 -32.3624,-53.5075 -29.0101,-27.8497 -29.6548,-68.206 -15.472,-15.472 -16.6325,-6.5757 -37.7776,-42.4192 -15.3431,-28.8811 18.3086,-38.8091 5.6731,-19.469 -234.5306,-32.8781 -234.4016,-32.8781 -5.802,-40.4853 17.1482,-47.3187 42.1613,-66.7876 12.6355,-53.1208 1.4183,-40.4852 3.0944,-47.0608 3.4812,-23.0792 -6.8335,-34.1674 -10.4436,-11.3462 -24.8842,4.1259 -6.9624,15.0853 -4.2548,33.6517 -3.2234,33.5228 -3.6101,15.3431 -9.799,9.4121 -96.5714,186.6962 -38.1644,50.9288 -30.2994,21.403 -53.5076,3.3523 -8.1228,-6.5756 -13.538,-27.7208 -26.0447,-12.7644 -50.542,-51.4446 -49.5106,4.3837 -14.3116,-21.9187 10.4436,-35.07 19.7269,-44.2243 9.2832,-38.1644 8.2518,-57.5045 -4.6416,-17.406 -10.1858,-18.1797 -8.6386,-60.2121 1.5472,-27.3339 10.8305,-88.1907 5.2862,-28.6233 5.8021,-39.4537 0.9025,-48.737 -3.7391,-44.9979 -8.6385,-29.268 25.6578,-25.142 27.3339,-11.2173 25.7868,-26.5603 21.1451,-71.3004 -11.8619,-44.9979 -15.8588,-27.0761 -32.6203,-20.6294 10.8305,-49.5106 9.1543,-28.8812 10.7015,-14.0537 15.472,-3.3523 34.9411,30.0416 16.5035,1.4182 16.7614,-40.0984 25.0132,-27.7207 31.8466,38.938 57.5045,110.3673 38.4222,28.1075 20.3716,-5.4152 29.6547,-62.0171 18.1797,0.3868 37.6487,21.7898 59.1806,-27.0761 82.6465,4.5127 18.4376,22.5634 -63.9512,37.5197 27.7208,33.136 59.4384,-67.4324 28.1076,1.1604 29.5258,31.5888 187.9855,27.8497 127.9023,182.0545 143.6322,65.3694 23.8528,-7.736 111.1409,-116.6851 262.3803,42.5482 262.5091,42.6771 18.6954,30.9441 7.7361,72.8476 19.34,24.3684 144.2769,74.1369 -6.4466,-16.7613 -6.8335,-12.2487 -7.0914,-7.4782 -7.2203,-1.8051 3.3523,-20.1136 4.6416,-15.0853 5.5442,-11.4751 6.4466,-8.8964 -15.3431,-13.9249 -41.0009,-63.5643 -15.9878,2.7076 -16.7614,21.6609 -16.5035,9.5411 -14.6985,-33.9096 34.4253,-107.0151 19.598,-46.2872 22.3055,-19.3401 61.3725,-20.1136 31.9756,-28.6233 26.4314,-44.0954 -10.8304,-17.2771 -14.8274,4.7705 -15.3431,17.9218 -11.2173,22.1766 -13.1512,12.5066 -34.6832,-6.7045 -48.8659,49.2527 -156.9124,-18.9533 -156.9124,-19.0822 -54.4101,-69.2374 -219.3164,-63.8223 -219.1874,-63.5643 -219.3164,-63.5644 -48.2212,-51.3156 -101.9866,-4.6416 -68.9796,-50.9289 7.3492,-27.9786 11.8619,-14.0538 24.2396,-12.2487 11.3462,-15.3431 18.8243,-42.935 10.1858,-16.3746 15.7299,-4.2548 32.3624,21.1452 257.2229,-60.47 257.2229,-60.4699 31.073,-24.8842 21.403,-49.1238 9.0254,-26.8182 22.4345,-28.2365 22.9502,-45.6426 40.0984,-39.7116 101.4709,-33.136 22.8212,-57.2466 -52.7339,21.7898 -15.601,-21.7898 16.5036,-50.542 0.1289,-17.664 -12.5066,-6.9624 -43.8375,11.8619 -12.2487,17.2772 -39.1958,88.4485 -22.0477,34.1675 -33.9096,20.8873 -27.4629,38.4222 -9.9279,19.8558 -14.0538,20.8873 -208.0991,18.8243 -207.9702,18.8244 -58.1491,57.6334 -26.6893,-6.5757 -54.0233,-43.7085 -76.1998,1.5472 -5.4153,-7.865 -2.3208,-22.4344 v -65.4984 l -12.7644,-42.5482 -16.3746,-8.6385 -35.07,14.1827 -39.7116,-22.4345 -20.7583,2.9655 -11.733,39.5827 10.3147,5.0284 11.4751,14.5695 10.4436,23.5949 7.7361,30.8152 -43.5797,104.9521 -47.7055,35.0699 -212.9986,-47.4476 -72.074,-81.4861 -24.3684,-11.0883 3.6101,-22.4345 2.5787,-22.9502 0.5157,-23.9817 -2.4497,-24.7553 20.1136,-30.9441 41.3878,-39.1959 18.3086,-56.9887 -12.7645,-14.4406 -43.0638,14.4406 v -18.3086 l 4.1258,-1.934 2.7076,-4.6416 2.1919,-6.4467 3.2234,-7.0914 -8.8965,-27.9786 -3.3522,-7.0914 8.6385,-41.2588 14.4406,-28.8811 97.0871,-134.3491 -8.7675,-31.5887 -6.4466,-49.1238 0.2578,-44.9979 11.0883,-19.8558 96.0557,-36.3593 -7.2203,-50.2842 -1.1604,-12.1198 0.5157,-28.2365 1.2894,-6.8335 2.5786,-1.5472 3.997,-11.2172 30.1705,-106.6282 14.3117,-8.3807 29.0101,-37.133 14.6984,-8.5096 80.1968,18.0507 251.5498,-132.286 20.6294,-48.8659 -4.5127,-8.6386 -3.868,-11.733 -7.0913,-33.2649 10.0568,-16.5035 11.2173,-4.6416 22.5634,3.2233 8.6385,-7.9939 2.7076,-18.1796 -3.0944,-17.9218 -8.6385,-7.7361 17.1482,-54.1522 24.4974,-39.7116 25.7867,-24.2395 35.3279,-14.1827 27.3339,-25.4 201.2657,-5.1573 17.406,-12.6355 12.3777,-1.6762 40.0984,32.8781 45.1268,4.8995 14.6985,13.0223 -25.1421,51.1867 -9.799,34.4254 3.3523,40.743 15.2142,2.3208 43.5796,-21.5319 0.7736,35.1989 10.3147,15.7299 15.2142,10.5726 h 15.0852 l 9.5411,-16.3746 2.4498,-7.9939 5.2863,-8.7675 2.7076,-9.1543 0.6446,-11.8619 -1.2893,-33.007 0.6447,-11.8619 16.5035,-52.0893 19.5979,-16.5035 21.6609,-4.1259 22.0477,-14.8274 25.5289,-48.3501 8.3807,-6.4467 12.7644,5.4152 21.403,24.4974 97.0872,8.1228 27.205,-18.6954 -12.2487,-36.4882 -23.466,-9.2832 -65.1115,9.2832 -15.9878,-8.1228 -6.5756,-30.9442 7.2203,-67.6902 -51.9604,-31.58884 -12.3776,15.4721 9.1543,20.50054 1.4183,19.5979 -4.6416,18.5665 -8.8965,16.7614 -15.8588,17.6639 -81.3573,7.6071 -62.5328,-34.1675 -29.268,-31.073 -17.4061,-9.6701 -33.9095,15.4721 -17.2772,-5.802 -19.5979,-44.22434 -8.2518,-12.8934 -86.7724,-27.5918 -29.7837,-34.1675 -15.2142,-76.8445 105.3389,-64.338 116.6851,-147.5002 35.3278,-85.2252 34.6832,-31.202 70.2689,-25.1421 33.0071,-39.1959 62.4039,-38.938 7.865,-15.601 1.4183,-28.3654 -6.3178,-49.6395 13.0223,-25.271 7.3492,-7.9939 7.4782,-1.4183 -4.5127,-29.139 -2.7076,-28.8812 0.7736,-25.6578 6.4467,-19.9848 -18.0507,-35.1989 -5.802,-16.3746 12.3776,-42.161298 15.601,-17.2771 11.4751,3.2233 0.7736,20.2426 2.4497,16.503498 3.4812,11.0883 4.3838,6.3178 5.6731,2.0629 3.7391,7.0914 1.4182,15.9878 0.9026,17.406 1.934,11.0883 14.6984,15.0853 13.4091,-5.0284 27.4629,-27.334 26.6893,2.9655 10.0569,-10.3147 -2.5787,-36.3593 3.2233,-22.563398 15.0853,-13.2802 128.0312,-28.2365 31.5888,24.7553 25.9157,34.296398 49.3816,24.6263 6.5757,15.9878 -5.0285,25.3999 9.5411,45.6426 37.9066,17.9218 16.3746,22.9502 -2.9655,12.2487 -5.0284,39.5827 40.872,34.0385 18.5664,31.3309 4.7706,56.0862 -4.7706,15.0853 -19.34,31.5888 -13.4091,35.5857 -31.5888,36.3593 -81.6151,38.0355 -13.667,34.941 9.799,53.3786 25.7867,26.9472 48.3502,26.5603 -3.868,46.803 19.0822,52.3471 116.2983,203.45754 21.1451,67.4324 -34.1674,39.4537 -34.0386,59.6964 -54.6679,56.0862 -9.5411,41.9034 131.3835,-29.139 9.1543,9.799 5.0285,23.7238 0.7736,21.1451 -3.0944,17.0193 -6.8335,10.8304 4.7705,14.8274 15.2142,29.9126 V 1430.4 l 1.1604,14.4406 2.9655,13.2802 10.8304,22.5634 23.466,30.9441 9.9279,37.6487 -10.9594,58.9227 -2.7076,55.4415 5.802,52.8629 15.4721,50.542 20.1136,39.9695 3.3523,18.0507 0.9025,40.872 -3.2233,36.3593 -5.5442,30.9442 -2.1918,26.8182 7.3492,24.6263 -4.3837,16.6325 13.538,42.9349 34.2964,40.6142 14.0538,36.4882 13.9248,82.1309 7.2203,19.469 6.8335,13.2801 5.931,15.73 3.9969,26.5603 -6.9624,0.5158 -6.1888,8.7675 -4.5127,18.3086 -2.3208,27.5918 46.8029,18.3086 18.0508,38.5512 -4.6417,71.8161 11.4751,15.7299 38.5512,-15.7299 74.137,54.0233 11.8619,-0.3868 18.9532,-46.9319 11.3462,-9.0254 11.8619,-0.1289 37.5198,21.1451 56.9887,-27.5918 26.9472,13.2802 34.941,67.8191 6.3178,94.1217 -16.3746,74.2658 41.2588,130.2232 4.8995,28.7522 -8.2518,70.011 3.4812,44.0954 53.6365,203.3286 5.5441,49.2527 -1.0314,50.671 -9.2833,87.8039 6.3178,50.542 -6.8335,40.0984 -10.5726,16.5035 -11.8619,7.4782 -10.9594,13.667 -7.3492,20.2426 -21.0162,76.3288 9.799,7.4781 10.0568,18.4376 6.3178,29.0101 -1.934,38.9379 18.8243,24.2396 21.9187,13.7959 20.3716,23.8528 15.2142,54.7968 -44.4822,71.6872 -11.733,43.5796 50.5421,75.942 52.7339,19.9847 133.4465,-75.2973 147.1134,165.0353 20.8873,45.7715 -17.1482,65.1115 -43.9664,38.8091 -35.199,82.7755 -7.736,28.2365 3.7391,30.0415 13.2802,19.2112 47.0608,9.7989 7.4782,9.0254 10.8304,22.1766 9.67,28.6233 4.2548,28.1076 -3.9969,36.3593 -9.2832,18.3086 -18.9533,14.0538 -37.5197,58.1491 -6.7046,22.1766 1.1604,37.3908 7.4782,21.0162 9.2832,15.9878 6.3178,22.3056 h -8.3807 l 7.2203,37.1329 22.9502,21.6609 10.1857,21.7898 6.8335,60.0831 2.4498,40.4852 -20.6294,97.2161 -13.2802,50.7999 -27.334,69.1085 18.3086,42.5482 201.2657,69.6242 201.1367,69.7532 -13.2802,36.6172 -32.7492,58.9227 -10.3147,43.1928 -3.0944,39.3248 1.934,19.0822 53.5075,84.8385 51.8314,41.6456 156.5256,-60.0832 0.7736,47.0609 11.4751,28.8811 27.7208,25.2711 15.8588,-0.6447 31.9756,-20.6294 z"
       id="path958"
       style="fill:#000000;stroke:#000000;stroke-width:12.6355;fill-opacity:1" />
  </g>
</svg>
