<?xml version="1.0" encoding="utf-8"?><svg xmlns="http://www.w3.org/2000/svg" version="1.1" baseProfile="tiny" width="1200" height="800" viewBox="0 0 1200 800"><g><g stroke="#000000" stroke-width=".98" fill="#FFFFFF"><path d="m371.53 282.44l-2.29-1.69-1.6-2.62-1.88-5.88-3.86-7.91-.54-2.64-1.62-4-.16-.76-.96.57-2.2 2.91-1.19 1.28-2.38 1.1-1.14.74-.49 1.05.36.63 2.54 2.63-5.05 4.4-3.3 1.38-.44.43-1.27 2.53-1.44 1.07-.78.44-3.06 1.74-1.29 1.1-.75 1.72-1.01 4.45-.82 1.44-1.17 1.45-.78 1.85-.88 6.09-1.5 3.9-.72 4.1-1.01 1.76-1.52 1.19-1.84.45-1.35.53-1.03 1.24-.85 1.42-.81 1.09-2.47 2.14-2.34 2.69-1.56 3.32-.08 4.13 1.89 4.82.27 2.11-.51 1.1-2.43 2.11-.73.78-.44 1.2.03.66.23.63.58 8.73.71 1.15 2.56 7.3-.46 2.09-2.02 3.91-.47 2.32.32 4.55 2.16 9.14.73 1.8 1.53 1.91 1.06.88.54.34.19.56.04 1.51-1.42 9.28-.74 2.61-1.12 1.14-1.85-.33-1.58-.59-1.77-.32-2.43.51-3.16 2.01-1.96 2.94-3.23 11.76-1.52 3.03-3.94 5.73.83 1.4-.37 1.52-.76 1.41-.43 1.16.34 10.54.76 2.63.41 6.62-.6 1.3-5.54 4.33-1.98.84-1.84 1.05-1.68 2.07-1.12 3.72-.64 1.03-1.11.84-2.41 1.3-2.46 2.26-4.67 3.14-2.1.81-2.49-.22-1.65-1.31-1.48-1.47-1.99-.68-1.75.91-1.47 2.14-1.04 2.43-.49 1.82 0 4.74-.35 1.11-1.5 2.13-.33 1.11.3 2.23 1.15 4.5.07 2.42 4.38-1.9 2.26-.34 2.76.79 1.27.66.87.68.52.9.23 1.37-.2 2.91-.35 1.47-1.96 2.04-.75 3.17-.38 8.54-.52 1.53-1.3.62-1.44-.23-2.48-1.03-.82-.17-.68.46-1.82 2.09-.38.71.23 1.25.98 2.07.24 1.04.43 1.31 1.07.76 1.21.53.89.64.56.98.66 2.28 1.18 7.07 1.91 3.79-.23 1.78-.7 1.77-.42 2.02.26 2.15.71 2.35 1.05 2.21 2.25 3.37 3.89 11.01 1.05 2.04 1.28.84 1.13-.53 1.32-2.43.87-.67.95.25 1.4 1.55 1.28.32-.61-3.69 3-1.62 7.67-.49 1.94-.57 2.45-1.87 1.81-.39 1.91.31 1.71.59 1.79.31 2.19-.48 1.66-.97 4.09-3.21.82-1.26.63-.65 1.5-.17 3.72.45 2.75 1.27 3.19 2.02 3.11 1.43 2.59-.43.94.66 2.14.67.86.52.38.73 1.52 5.55.22 1.64-.54 1.56-1.58 2.11-1.1 1.84-1.45 5.8-1.66 3.24.26 1.53 3.07 4.2 1.24 4.22 2.38 3.45 4.9 12.05 2.02 3.24.27 4.09.6 1.87.66-2.37.08-1.82.71-1.19 2.49-.42 1.73.65-.41 1.57-2.38 3.58-.23 1.28.28 1.97-.05 1.04-.36 1.05-.96 1.75-.2 1.21.25.32.52.57.52.85.89 4.46-.37 2.21-2 4.15-.46 2.08.34.97 1.5 1.43.33 1.23.11 1.09.44 1.87.11 1.07-.37 4-1.81 7.24-1.61 15.28-.64 1.6-4.57 7.83-.32 1.46-1.45 3.33-.65.59-1.79 1.07-.53.46-.63 3.84 3.6 13.72-.57 3.57-3.87 7.4-1.41 3.61-.45 3.76-.61 1.91-1.48 2.01-.91.68-2.16 1.13-.9.68-.51.88-.95 3.48-1.57 3.7-.49 2.12-.59 6.94-.96 3.27-.83 5.12.8 4.34 2.1 4 3.66 5.14 1.07 2.01.8.97.55 1.21-.45 1.11-.78 1.02-.4 1.01.28 2.35.9 1.55 1.58.76 2.3.07-1.55-2.32 1.99-1.39 3.04-.53 1.57.24.38 1.54.82.76 1 .59.77 1.11.21 1.33-.05 2.51.56 1.23 1.86 1.35 1.04-1.46 1.11-2.31 2.06-1.21 2.57.88.89 2.08.17 2.46.42 1.99 3.07 1.94 4.95.72 5.14-.27 3.55-.93 1.88-1.4 2.12-1.95.5-.96.32-2.29.63-1.1 4.45-4.35 1.66-1.1 1.88-.45 2.98-.23 2.74.17 1.21.83 1.3.62 6.65 1.17 1.57.05.65.16.68.52 1.93-.82 4.05-1.18 1.98-.84 2.51-1.96.79-.3 4.79-.72 2.28-.91 2.58-1.43 2.69-1.01 2.57.44.8.93 1.72 3.35.31 1.21.58 1.18 3.89 4.31 1.5-.3 2.94 1.29.56-.63-.45-1.94-1.99-2.98-.45-.93-.36-4-4.66-16.6-.11-2.07-.72-1.58-4.68-5.7-.91-1.6-1.42-4.23-.88-1.87-4.48-6.53 1.2-1.71.89-2.37 2.39-12.63.3-12.93 1.8-3.1 1.8-.49 2.43-.2 2.14-.67.92-1.95.1-2.52 2.08-10.45.36-.87 2.04-1.66.86-.9.36-1.07-.62-2.12-3.17-3.59-1.28-1.95-.53-1.84-.43-2.71-.03-2.7.62-1.82.42-1.81-1.15-2.04-2.58-3.03-.54-3.98 2.54-6.13.17-3.74-1.28-3.27-.17-1.49.11-1.22.56-2.1.11-1.09-.02-4.3-.44-1.54-2.29-3.85-.39-1.72.17-18 .66-3.88 1.24-3.59 1.74-3.46 4.46-6.48 1.75-4.05-.3-4.03-1.97-1.88-.32-.7-.02-8.91-.43-2-1.87-4.86-.13-1.79.45-5.45.48-1.72.05-1.02-.2-1.21-.91-2.14-.26-1.06.8-3.88.61-1.76-.17-1.13-.31-1.19-.2-1.1.75-1.35 1.31-1.76.45-1.21-1.87.34-.82-.89-.69-1.45-.48-1.48-.16-.92-.51-.59-3.1-1.99-4.98-1.78-2.27-1.17-2.23-2.18 1.05-1.33.47-.44.71-.33-1.06-2.07-1.48-5.55-1.44-1.14-.83-.39-.59-1-.34-1.29-.1-1.34-.41-1.45-1.84-1.87-.59-1.35 2.99-.78 2.25-1.47 4.17-3.55 26.56-16.52 1.78-1.71.94-1.84.64-1.89 1.04-1.47 2.12-.6 2.35-.18 1.63-.47 5.74-2.98 1.72-.56 2.26-.21 1.57-.46 1.3-.91 1.6-.75 2.46.01 1.48.31 1.08.38.99.67 1.16 1.14 1.06.8.93.05 1.05-.27 1.33-.19 12.8 1.96 1.01.55 1.48 1.32.76.85-.06.39 1.3.94 3.41 6.37-.38-.17-.33-.09-.32-.14-.4-.32-1.53 2.69-1.14.66-1.74-.52-.68 2.43-1.48.69-1.5.35-.67 1.3.26.92.65.97.92.67 1.06.04.54-.59.81-2.14.88-.9.88 1.08.75 2.85.54 1.15.65 0 1.21-1.18 1.16 2.27.58 3.41-.36 2.32-.46 1.09.1 4.35-.38 1.25-.88 1.97-.17 1.5-1.48 2.9-.51 1.77.87.79.74.54.53 1.24.5 2.57.04 2.63-.71 5.77-.78 1.88-.79.52-1.22.48-1.12.62-.48.87-.3.94-.76.82-1.03.6-1.13.22-1.68.82-1.16 1.98-1.89 4.44-1.99 2.16-2.43 2.09-2.02 2.24-.86 2.6-.2 1.09-.97 2.36-.27 1.3 0 1.22.72 3.13 2.04 4.26 22.39 20.29 5.85 7 1.67.88 2.55.3 4.24.06 1.58.83 1.03 2.01-.41 1.76-1.03 2.43-.55 2.14 1.01.93 1.8-.51 1.25-.88 1.24-.33 1.75 1.12 1.38 1.61.61 1.12.25 1.2.33.97 1.5 1.57.34 1.08 8.03 3.26 13.25 2.36 4.17 2.05 3.52 4.93-1.12 8.48-3.41 7.41-3.39 1.66.77-.98.31-1.13-.38-.77-1.36 0-1.11.57-.32.79.03 1.03-.45 3.16.39 8.36-.39 4.4-.93 4.47-2.35 6.42-1.89 8.58-.29 4.48.73 3.55.36.5.34.02.33-.04.42.26.54 1.23 5.38 7.32 1.31.94 6.24 2.57 1.45.34 1.91.77 3 3.74 2 1.36 1 0 1.22-.31 1.01-.43.44-.39.36-.9.89-.01 1.98.59 2.41-.3 1.75-.5 1.53-.1 1.86.9 3.05 2.05 1.89.58 11.05 1 2.06-.22 4.66-.99 2.35-.24 1.44-.57 2.08-2.5 1.94-.57 0-.78-1.84-.5-.4-.23-2.65-2.49-2.48-2.95-1.73-3.69-.37-4.72.94-3.98 1.83-4.63 2.28-4.16 2.18-2.47.9-.26 3.87-.47.65-.33 1.86-1.51 2.43-.59 1.01-.6 1.71-1.32.86-.44.76-.22 6.95-.45 4.7-.93 4.4-1.58 4.08-2.25 3.52 1.48 3.59.47 3.59-.78 3.42-2.23 3.75-1.08 4.38 1.24 3.14 2.53.01 2.78 1.28 2.34.94.36 1.39-1.24-.47-.64-.27-.87.28-.65 1.18-.01 2.6 3.26 1.08.44 1.31-.18 1.13-.68.45-1.06-.01-1.95-.21-.8-.5-1.29-.04-.68.3-.37.16-.4-.42-.71-.43-.11-1.36.19-.45-.08-.74-1.01-1.1-2.07-.65-.92-4.32-4.07-1.13-2.08 3.13.39 2.45 1.51 3.81 3.89 7.26 5.37 1.55 1.96 1.27-1.5.54-1.45.82-1.06 2.07-.42 1.46-.81.54-1.97-.18-4.46-1.02-4.48-.16-2.13 1.57-3.24.18-1.99-.2-2.21-1.61-6.32-2.02-4.59-2.95-3.77-3.98-1.81-3.41.8 1.5 2.74 5.58 5.82-2.71.9-4.05-.03-4.15-.82-2.96-1.48.04.86-.13.92-.26.74-.37.36-1.71-.44-1.39-1.66-.9-2.15-.35-1.9.25-4.5-.19-2.03-.78-1.75-1.52-1.37-2.04-.92-2.34-.52-5.11-.4-.13-.59 1.54-.73 2.37-.67 2.66-.12 1.17-.44.8-1.71.67-.63.84-.52 2.24-.7.18-1.08-.6-1.22-.73-.83-.97-.47-1.1-.15-7.22-.06-2.12-.45-2.03-1.41-6.21-8.4-1.86-4.25-1.27-1.62-2.3-.66-4.58.46-2.25-.14-2.14-1.04-1.21-1.46-.89-1.71-1.03-1.4-1.6-.57-2.28-.4-1.94-1.02-1.58-1.39-1.11-1.48-2.09-3.75-.79-2.35.28-1.61 1.07-.64 2.51-.67 1.19-.47 1.17-.67.62-.47.44-.65 1.7-3.2.83-2.27.17-2.18-.92-1.78-1.29-1.25-1.06-1.31-.73-1.57-.28-2.02 1.39.53.81-.52.46-1.05.3-1.14 1.63.9 1.69.48 1.5.71 1.04 1.54-.31.4-.48 1.03 1.98.13 1.67.94.73 1.32-.77 1.24 1.78.14.55-2.14-.32-2.87-.85-2.05-1.4-.93-4.5-1.98-1.41-.38-.84-3 2.72-5.93 1.91-2.07 1.97-2.12 2.62 2.19.33-.35.43-.34.58-.16.77.19 1.15.74.57.51-.27.2 1.37.02.4-.29.07-.91.32-1.79.06-.69-.19-1.57.13-.64.63-.54 1.75-.55.59-.34.79-1.6.08-1.13-.57-.31-1.08.86-1.19-.74-.78-.98-.52-1.22-.36-1.48-1.09.52-1.39.86-1.34.62-.9-.16-7.64-7.62-2.85-1.64-.76-.54-.93-3.98 2.5-3.98 1.91-4-2.69-4.04-2.22-1.02-2.2-.41-3.99-.01-1.6-.94-.78-2.18-.38-2.42-.47-1.71-.8-.58-.97-.28-.83-.49-.35-1.22-.39-.41-.92-.35-4.03-.55-1.61-.67-2.53-2.03-4.69-5.44-.24-1.33.62-4.83-.02-2.16-1.03-2.28-3.33-4.2-1.31-3.79-3.79-5.85-4.99-5.27-.81-1.55-.31-1.95-.77-2.31-1.81-3.99-2.62-3.56-5.93-4.84-2.96-3.25-4.04-3.25-4.34-.39-4.48.14-4.56-1.64-2.07-3.03-2.09-7.97-2.48-2.8-2.17.32-1.44-1.6-1.19-2.05-3.21-2.2-2.3-5.6-1.33-1.9-1.44.82-.63 1.25-.31 1.49-.51 1.5-.64 1-.83.98-1.01.88-1.14.76 0-4.74-.23-.95-.98-1.03-.23-.94.47-2.27.92-2.33.59-2.11-.54-1.69-3.85.76-.86-3.21 1.67-3.58 3.77-.41.75.7 1.06 1.77.72.37 4.76 0 2.61.82.45 1.28-.01 1.69 1.23 2.05 3.68 1.14.39.24 1.02.3.72.72 2.01 2.63.42.87.59.73 1.37.6 1.01.16 6.91-.35 3.54-.71 3.28-1.32 2.74-2.11 2.23-2.81 1.71-2.97 2.63-6.53 1.06-3.78.91-1.96 1.25-.83 1.03-.27 1.18-.6 1.74-1.24.89-.23.56-1.94 4.24.61 1.89-.26 2.54-1.14 1.22.16 2-.89 3.36-2.17.52-.56.39-.64.49-.58.78-.39 1.12-.05 1.86.62 1.03.15 2.09-.47 4.29-2.04 2.04-.38 1.76.66 1.27 1.02 1.28.46 1.76-1.06 3.45-3.16 7.75-5.3 6.62-3.34 1.41-1.5 2.53-3.44 7.66-6.89.49-.64 1.4-2.35.28-1.03.42-1 .98-.76 1.86-1.12 4.51-6.66 1.7-1.71 4.06-1.97 1.26-1.3 1.05-4.95 1.41-1.76 3.08-2.31 1.06-.44 1.21-.27.94-.56.4-1.27.05-1 .19-.96.37-.91.54-.78 2.66-3 .95-1.54 4.45-10.14 2.86-2.64 3.97 1.02 4.32-.97 9.8-.62 3.24-1.38 2.2-.02 3.75-4.82 2.4.84 2.33 2.04 1.06 1.14.62 1.55-.13 1.11-.82 2.63.23 1.33 4.91 3.7.5.7 1.05.67 2.95 4.4 3.28 2.09 4.39.72 4.36-1.24 3.28-3.82.67-2.12 1.12-9.41 1.03-1.54 2.96-2.83.74-2.17-.47-4.26 1.48-3.67-1.68-2.95.65-2.21-1.12.12-.93-.24-.62-.6-.23-1.05-.21-.62-.99-.96-.23-.57.23-.44 1.2-1.43-1.46-1.29-6.54-2.38-7.21-3.92-3.62-1.35-17.34-1.49-1.62.24-1.11.88-1.25 2.4-1.26 1.07-1.42.5-1.98.38-1.93-.09-1.24-.79-2.26.56-9.33.58-.25.51-.65.42-.8.13-1.68-.88-.6.35-.49.71-.57.57-2.97 1.98-1.45.38-1.37-.91-1.92.75-.14 1.02.89 1.07 1.17.84 1.46.74 1.44.38 9.3.66 1.6.33.35.37.82 1.39.35.41 6.66 1.5-.05.69-1.61 1.43-1.64.88-1.76.42-13.24 1.15-5.13 1.88-2.39.1-1.86-.79-1.65-.99-2.85-.83-2.19-1.48-1.42-.34-1.05.17-.71.46-.54.52-.6.35-4.01.36-7.38-1.95-3.86.09-4.33.73-21.44.77-1.5.45-3.95 3.17.33 2.23-.7 3.52-1.21 3.56-1.32 2.33-2.5 1.85-2.08.02-2.04-.73-2.46-.48-2.61.19-2.02.56-3.79 2.21-3.99 1.31-4.14-.42-4.4-1.1-4.81-.58-9.09 0-.74-.4-.77-.88-1.04-1.55-2.89-2.24-.23-1.53-.11-6.42-.51-.24-.65-.5-.85-.49-1.22-.22-.96.16-2.67.83-.77.46-.26.97.08 1.18-.07 1.04-.79.43-4.41 0-2.14.37-1.62.96-5.11 4.91-2.38 2.98-5.87 9.21-5.95 4.92-2.78 3.53-1.62 3.44-1.07 1.66-1.18.7-1.55.64-1.92 1.5-1.73 1.69-1 1.22-.78 1.96-1.19 4.96-.48 3.95-.74 1.85-3.86 6.03-2.65 2.76-3.42 1.64-4.29-.59-1.09-.79-2.56-2.38-1.11-.5-1.19.1-1.99.51-7.19.89-2.35-.06-2.47-.55-1.31-.54-.57-.72.65-3.48-.29-.5-2.77.29-7.05 1.88 0 .73-6.5 2.89-1.5-1.05-1.37-2.17-1.03-2.45-.88-4.32-1.22-2.12-4.97-5.59-.74-1.29.15-1.49.7-2.66.2-1.38.01-.95.16-.81.72-.91.44-1.01-.12-1.27-.47-1.21-6.81-9.96-1.05-2.56-.83-1.25-1.33-.52-2.39-.14-1.07-.32-.88-.63-1.26-2.08-.96-2.16-1.42-1.59-2.6-.39-2.01 1.03-2.22 1.74-2.38 1.18-2.41-.67-4.99-3.49-1.24-1.24-16.39-24.4-1.71-4.6-1.67-10.25-1-2.48-.22-1.14.25-1.08.99-2.16.2-1.1-.68-2.4-2.97-3.74-.67-2.18-2.33-13.68-.1-2.66.62-1.81 1.11-1.79.73-2.41.62-4.84-.26-2.66.07-1.13.59-.97 3.64-2.9 1.33-1.91.93-2.41 1.06-4.78.45-4.83.57-2.14 1.45-2.07.41-.89.75-3.81.51-1.07 2.64-3.87 5.97-6.8 6.19-9.13 4.42-4.77 2.69-1.98 1.13-1.07 1.17-1.45 1.42-1.28 1.73-.54 1.83-.31 8.18-4.08 1.76-.49 18.73-.18 2.02.68 3.35 3.25 2.19 1.13.97.02 1.82-.58 1.23-.16.96.33.5.75.3.75.41.33 3.21.54.8.25.5.64.51 1.58.42.68 1.68 1.05 1.69.12 6.66-.9 3.35-1.61 1.9-.17 1.58.7 2.92 2.45 1.67.52 3.81.7.93.03 1.19-.46.62-.65 1.07-1.78 1.57-1.58 1.48-.86 1.68-.38 2.17-.08 2.15-.44 4.25-1.75 2.68-.04 1.11.45 2.47 1.46 1.13.32 1.24-.22 2.04-.99 3.78-.56 1.73-.49 1.42.08 1.79 1.39 1.11-.65 1.19-.45 1.39-.26 1.76-.08 1.35-.42.51-1.09.24-1.41.4-1.42 1.02-1.44.8-.11.92.5 1.28.33 1.89-.02 1.4-.22.95-.65.55-1.35 1.04 1.09.6 1.07.68.93 1.29.66.96-.09 3.33-.64 1.45-.06 2.69.92 1.81 1.61 4.96 7.07.73.53 1.5.18 4.27-.84 5.52-.11 9.77-1.38 2.01-.68 1.65-2.36 1.92-.53 7.04.16 4.27 1 2.31.21.69-.18 1.63-.93.93-.33 1.07-.11 8.08.11 1.03-.24 2.05-1.03 1.26-.24 25.58.06 1.81.23 1.47.52 1.19.91 1.5.45 1.82.13 1.46-.53.25-1.32-.63-3.28 1.41.86 2.05 2.87 1.25.61 4.68.12 9.8-1.13 15.58 1.01 5.79-.9 2.28-1.02 1.41-1.63.73 0 1.6 2.34 4.58 4.94 3.09 4.9.19.48.44.4 2.01-.09.45.38 2.61 3.98.68.75.54.32.84 1.45.4.47.78.26 1.38.13 3.48 1.32 10.39 1.12 1.82-.28 3.96-1.1 2.29-.16 11.1.92 1.4.64 3.41 2.71 1.01.58.69.01 1.53-1.61 1.01-.7 3.52-.66 3.7-1.52 2.24-.21 1.3.35 1.32.58 1.21.37.91-.29 1.77-1.01 1.88-.79 3.59.13 1.1-.13 4.41-1.45 2.17-.45 6.87-.27 1.05-.28 1.88-1.38 1.05-.52.8.02 2.88.77 3.05-2.94 1.27-.8 4.37 1.84 5.2-.45 12.94-2.63 2.91-2.53 2.54-.57 2.05-.72 2.32-1.4 2.59-.88 2.84.83 1.81-3.63 1.26-1.42 2.05-.74 0-.72-1.52-.89.39-1.64 4.31-5.69.45-.46.84-.1 2.28.14.5-.4-.04-1.94-.3-.77-.77-.91-.29-.98.41-1.09.65-.96.91-1.99 3.82-3.3 1.28-1.79.07-.71-.03-1.58.36-1.25 1.53-2.07 1.01-2.93 1.58-1.56 3.54-2.64 3.62-3.81 2.13-1.46 2.6-.59.85-.54 1.64-2.75.8-1.04.93-.53 3.41-.92 3.78-1.89.56-.71.2-.89 1.1-2.64.52-.81 3.51-3.48 3.42-4.18 4.99-8.74 6.62-18.44 2.03-3.78 3.07-3.83 3.46-2 4.58-2 3.07-2.72-1-4.13-2.61-2.14-2.89-1.76-2.12-2.57-.27-4.51 1.55-4.25-.49-1.14-2.93-.41-6.98.81-2.12-.02-2.01-.63-.83-1.22-.05-4.39-.99-1.13-2.16.33-2.21 1-1.16.91-.21 1.04.21 3.7-.46.47-1.98-.93-.46.46-.95 1.34-10.56 8.14-1.16 1.69-.41 2.58.82 2.22 1.5 2.02.69 1.99-1.56 2.18-2.12.91-4.4.57-1.86 1.06-2.56 3.13-1.61 1.04-2.7.47-7.57-1.67-1.12.68-.84 1.12-5.66 4.27-.91 1.85-.72 2.96.15 2.74 1.8 1.2 4.18-.16 1.65.58 1.01 1.75-.1 2.04-.87 2.41-1.38 2.01-1.56.84-1.29-.44-.65-.95-.5-1.01-.81-.56-1.25.13-.75.63-.64.79-.99.62-2.1.34-7.03-.34-2.14.27-1.94.71-1.63.96-1.19 1.02-1.72 2.95-1.78 7.32-1.57 3.47-2.6 2.16-7.07 1.97-3.48 1.66-2.56 2.77-1.44 1.17-3.47.72-11.89 4.34-1.73 1.85-4.16 1.35-1.58.95 1.12.63.35.73-.37.76-1.1.72-.88.07-2.04-.67-1.01-.19-7.27.79-14.9-2.18-2.01-.76-4.25-2.3-2.09-.49-1.66.47-3.56 1.58-1.32-.31-3.26-1.78-7.92-1.73-2.94-1.98-1.31.67-.82-.27-.64-.63-.83-.43-1.55.05-.96.42-.8.56-1.09.42-1.11.15-2.89.05-1.06-.2-1.26-.8-.32-.86-.08-.94-.52-1.08-1.96-1.24-3.09 1.18-1.9-.99-2.24-1.57-.45 1.44.45 2.32.45 1.09-1.62.57-4.36-1.74-2.37.81-1.57.23-.17.02-2.58-.62-7.02-2.61-1.5-.26-2.42-.08-.77.57-.27 1.22 0 1.89-.46.68-1.15.95-.51.54-2.09 5.07-1.22.72-1.81.48-4.34 3.2-1.92-.73-2.62-2.43-2.65-.85-.23-1.5-.97-.34-1.36-.2-.61-.52-.44-.7-.84-.75-4.09-1.53-2.23-1.13-.97-1.32-.78-1.71-1.86-1.24-2.28-.77-6.2-.53-4.35-.91-4.08-1.7-3.34-2.61-1.31-.11-4.9 1.14-2.07.12-5.05-1.54-1.54.03-.58.31-.9.99-.32.21-.64-.12-.98-.54-.56-.13-1.22.13-2.04.54-1.06.12-1.33-.27-2.7-1.62-.68-.41-1.38-.44-3.02-.22-6.53-2.53-2.54-.36-1.58.56-2.3 2.73-1.58 1.05-2.33.23-2.12-.8-1.53-1.71-1.33-4.83-1.81-.8-31.28 3.9-4.67.02-4.24-1.14-1.92-1.14-5.07-3.99-1.04-1.71-.27-.98-1.9-2.24-.52-1.25-.1-.81.05-.69-.15-.94-.43-1.04-.87-1.48-.14-.73.53-.25 2.59-.78.85-.45.42-1.03.05-1.41-.26-1.37-.57-.92-1.35-.64-1.03.32-2.03 1.83-2.48 1.58-1.85.61-4.71-.02-2.07.31-5.59 2.58-8.69-4.44-2.56-3.32-2.63-1.25-5.66-1.84-2.03.51-9.95-2.02-1.89.25-1.16.7-2.05 2.34-1.13.39-.25-1.36.32-3.11-2.62 2.44-1.05.52-1.05.06-2.29-.34-1 .28-1.35 1.66-.12 2.03.74 3.94.1 4.2-.18 1.84-.64 2.31-.31.23-.83 1.05-.7 1.14 0 .54-.32.52-.08 1.19.48 6.61-.16 1.67-.98 1.58-.93.61-2.19.63-.93.57-.71 1.07-.8 2.27-.65 1-1.19.31-1.24-.71-1.2-.94-1-.39-.72.43-2.23 2.45-4.71 7.44-1.65 4.55 1.29 2.49-3.15 3.67-1.76 1.63-1.24.15-1.63-1.68-1.42-1-1.71-.49-2.51-.12-.54.4-.62.75-.77.44-1.71-.88-3.32-.71-2.04-1.05-1.67-1.3-1.25-1.56-.83-1.88-.59 0-1.63 1.15-.65-1.78-.02-4.82.7-4.79-.54-2.09-2.33-1.4-4.36.19-2.33 2.68-1 3.78-1.22 10.78-.9 1.76-2.09 1.83-2.2 1.44-6.96 3.15-1.09.31-1.39.11-2.66.67-1 .12-1.81.9-1.23 2.18-.7 2.64-.3 2.3.52 4.14 1.14 4.24.51 4.03-1.37 3.57-2.1 1.22-5.07.39-1.91.82-1.1.74-1.31.59-1.27.76-1.05 1.26-.37 1.08-.12 2.17-.24 1.1-1.21 2.19-2.63 3.79-.5 2.33.54 2.47.9 1.79.19 1.58-1.63 1.82-6.31 2.09-.99 1.14.05 1.95.24 1.34.64 1.25 8.04 9.63 1.95 3.65-1.09 2.73-2.24 9.16-1.02 2.18-1.53 2.42-.72.58-1.01.01-1.86-.45-2.17-1-1.32-1.38-2.3-3.41-3-3.46-1.88-1.62-2.42-1.43-.41.68-.26.81-.1.98.05 1.15-.96-.24-.93-.33-1.71-.94-.72 3.05 1.17 3.45 2 3.1 1.87 2.03 2.62 1.56 3.23.77 3.4-.2 3.12-1.34.84 1.8.68 3.2.21 3.05-.65 1.35-1.24 1.4-1 3.24-2.46 24.43.39 2.19 1.47 3.39.31 1.32.44 3.6 1.01 4.03 2.51 4.91.38 1.27.5 1.02 2.43 2.78.75 1.6.13 1.14-.13 3.58.22.87.94 1.45.23.58-.14 2.67-.37 2.18-1.68 4.29z" /></g></g></svg>