<?xml version="1.0" encoding="UTF-8" standalone="no"?>
<svg
   xmlns:dc="http://purl.org/dc/elements/1.1/"
   xmlns:cc="http://creativecommons.org/ns#"
   xmlns:rdf="http://www.w3.org/1999/02/22-rdf-syntax-ns#"
   xmlns:svg="http://www.w3.org/2000/svg"
   xmlns="http://www.w3.org/2000/svg"
   xmlns:sodipodi="http://sodipodi.sourceforge.net/DTD/sodipodi-0.dtd"
   xmlns:inkscape="http://www.inkscape.org/namespaces/inkscape"
   version="1.1"
   width="1360"
   height="1360"
   viewBox="0 0 1360 1360"
   id="svg8"
   sodipodi:docname="Sulawesi.svg"
   inkscape:version="1.0.1 (3bc2e813f5, 2020-09-07)">
  <metadata
     id="metadata14">
    <rdf:RDF>
      <cc:Work
         rdf:about="">
        <dc:format>image/svg+xml</dc:format>
        <dc:type
           rdf:resource="http://purl.org/dc/dcmitype/StillImage" />
        <dc:title></dc:title>
      </cc:Work>
    </rdf:RDF>
  </metadata>
  <defs
     id="defs12" />
  <sodipodi:namedview
     pagecolor="#ffffff"
     bordercolor="#666666"
     borderopacity="1"
     objecttolerance="10"
     gridtolerance="10"
     guidetolerance="10"
     inkscape:pageopacity="0"
     inkscape:pageshadow="2"
     inkscape:window-width="1920"
     inkscape:window-height="974"
     id="namedview10"
     showgrid="false"
     inkscape:zoom="0.333596"
     inkscape:cx="-95.794806"
     inkscape:cy="725.74049"
     inkscape:window-x="-11"
     inkscape:window-y="-11"
     inkscape:window-maximized="1"
     inkscape:current-layer="svg8" />
  <g
     id="g6"
     transform="matrix(1.7193061,0,0,1.7193061,-351.62319,-7.6939987)">
    <g
       stroke="#000000"
       stroke-width="0.98"
       fill="#000000"
       id="g4">
      <path
         d="m 371.53,282.44 -2.29,-1.69 -1.6,-2.62 -1.88,-5.88 -3.86,-7.91 -0.54,-2.64 -1.62,-4 -0.16,-0.76 -0.96,0.57 -2.2,2.91 -1.19,1.28 -2.38,1.1 -1.14,0.74 -0.49,1.05 0.36,0.63 2.54,2.63 -5.05,4.4 -3.3,1.38 -0.44,0.43 -1.27,2.53 -1.44,1.07 -0.78,0.44 -3.06,1.74 -1.29,1.1 -0.75,1.72 -1.01,4.45 -0.82,1.44 -1.17,1.45 -0.78,1.85 -0.88,6.09 -1.5,3.9 -0.72,4.1 -1.01,1.76 -1.52,1.19 -1.84,0.45 -1.35,0.53 -1.03,1.24 -0.85,1.42 -0.81,1.09 -2.47,2.14 -2.34,2.69 -1.56,3.32 -0.08,4.13 1.89,4.82 0.27,2.11 -0.51,1.1 -2.43,2.11 -0.73,0.78 -0.44,1.2 0.03,0.66 0.23,0.63 0.58,8.73 0.71,1.15 2.56,7.3 -0.46,2.09 -2.02,3.91 -0.47,2.32 0.32,4.55 2.16,9.14 0.73,1.8 1.53,1.91 1.06,0.88 0.54,0.34 0.19,0.56 0.04,1.51 -1.42,9.28 -0.74,2.61 -1.12,1.14 -1.85,-0.33 -1.58,-0.59 -1.77,-0.32 -2.43,0.51 -3.16,2.01 -1.96,2.94 -3.23,11.76 -1.52,3.03 -3.94,5.73 0.83,1.4 -0.37,1.52 -0.76,1.41 -0.43,1.16 0.34,10.54 0.76,2.63 0.41,6.62 -0.6,1.3 -5.54,4.33 -1.98,0.84 -1.84,1.05 -1.68,2.07 -1.12,3.72 -0.64,1.03 -1.11,0.84 -2.41,1.3 -2.46,2.26 -4.67,3.14 -2.1,0.81 -2.49,-0.22 -1.65,-1.31 -1.48,-1.47 -1.99,-0.68 -1.75,0.91 -1.47,2.14 -1.04,2.43 -0.49,1.82 v 4.74 l -0.35,1.11 -1.5,2.13 -0.33,1.11 0.3,2.23 1.15,4.5 0.07,2.42 4.38,-1.9 2.26,-0.34 2.76,0.79 1.27,0.66 0.87,0.68 0.52,0.9 0.23,1.37 -0.2,2.91 -0.35,1.47 -1.96,2.04 -0.75,3.17 -0.38,8.54 -0.52,1.53 -1.3,0.62 -1.44,-0.23 -2.48,-1.03 -0.82,-0.17 -0.68,0.46 -1.82,2.09 -0.38,0.71 0.23,1.25 0.98,2.07 0.24,1.04 0.43,1.31 1.07,0.76 1.21,0.53 0.89,0.64 0.56,0.98 0.66,2.28 1.18,7.07 1.91,3.79 -0.23,1.78 -0.7,1.77 -0.42,2.02 0.26,2.15 0.71,2.35 1.05,2.21 2.25,3.37 3.89,11.01 1.05,2.04 1.28,0.84 1.13,-0.53 1.32,-2.43 0.87,-0.67 0.95,0.25 1.4,1.55 1.28,0.32 -0.61,-3.69 3,-1.62 7.67,-0.49 1.94,-0.57 2.45,-1.87 1.81,-0.39 1.91,0.31 1.71,0.59 1.79,0.31 2.19,-0.48 1.66,-0.97 4.09,-3.21 0.82,-1.26 0.63,-0.65 1.5,-0.17 3.72,0.45 2.75,1.27 3.19,2.02 3.11,1.43 2.59,-0.43 0.94,0.66 2.14,0.67 0.86,0.52 0.38,0.73 1.52,5.55 0.22,1.64 -0.54,1.56 -1.58,2.11 -1.1,1.84 -1.45,5.8 -1.66,3.24 0.26,1.53 3.07,4.2 1.24,4.22 2.38,3.45 4.9,12.05 2.02,3.24 0.27,4.09 0.6,1.87 0.66,-2.37 0.08,-1.82 0.71,-1.19 2.49,-0.42 1.73,0.65 -0.41,1.57 -2.38,3.58 -0.23,1.28 0.28,1.97 -0.05,1.04 -0.36,1.05 -0.96,1.75 -0.2,1.21 0.25,0.32 0.52,0.57 0.52,0.85 0.89,4.46 -0.37,2.21 -2,4.15 -0.46,2.08 0.34,0.97 1.5,1.43 0.33,1.23 0.11,1.09 0.44,1.87 0.11,1.07 -0.37,4 -1.81,7.24 -1.61,15.28 -0.64,1.6 -4.57,7.83 -0.32,1.46 -1.45,3.33 -0.65,0.59 -1.79,1.07 -0.53,0.46 -0.63,3.84 3.6,13.72 -0.57,3.57 -3.87,7.4 -1.41,3.61 -0.45,3.76 -0.61,1.91 -1.48,2.01 -0.91,0.68 -2.16,1.13 -0.9,0.68 -0.51,0.88 -0.95,3.48 -1.57,3.7 -0.49,2.12 -0.59,6.94 -0.96,3.27 -0.83,5.12 0.8,4.34 2.1,4 3.66,5.14 1.07,2.01 0.8,0.97 0.55,1.21 -0.45,1.11 -0.78,1.02 -0.4,1.01 0.28,2.35 0.9,1.55 1.58,0.76 2.3,0.07 -1.55,-2.32 1.99,-1.39 3.04,-0.53 1.57,0.24 0.38,1.54 0.82,0.76 1,0.59 0.77,1.11 0.21,1.33 -0.05,2.51 0.56,1.23 1.86,1.35 1.04,-1.46 1.11,-2.31 2.06,-1.21 2.57,0.88 0.89,2.08 0.17,2.46 0.42,1.99 3.07,1.94 4.95,0.72 5.14,-0.27 3.55,-0.93 1.88,-1.4 2.12,-1.95 0.5,-0.96 0.32,-2.29 0.63,-1.1 4.45,-4.35 1.66,-1.1 1.88,-0.45 2.98,-0.23 2.74,0.17 1.21,0.83 1.3,0.62 6.65,1.17 1.57,0.05 0.65,0.16 0.68,0.52 1.93,-0.82 4.05,-1.18 1.98,-0.84 2.51,-1.96 0.79,-0.3 4.79,-0.72 2.28,-0.91 2.58,-1.43 2.69,-1.01 2.57,0.44 0.8,0.93 1.72,3.35 0.31,1.21 0.58,1.18 3.89,4.31 1.5,-0.3 2.94,1.29 0.56,-0.63 -0.45,-1.94 -1.99,-2.98 -0.45,-0.93 -0.36,-4 -4.66,-16.6 -0.11,-2.07 -0.72,-1.58 -4.68,-5.7 -0.91,-1.6 -1.42,-4.23 -0.88,-1.87 -4.48,-6.53 1.2,-1.71 0.89,-2.37 2.39,-12.63 0.3,-12.93 1.8,-3.1 1.8,-0.49 2.43,-0.2 2.14,-0.67 0.92,-1.95 0.1,-2.52 2.08,-10.45 0.36,-0.87 2.04,-1.66 0.86,-0.9 0.36,-1.07 -0.62,-2.12 -3.17,-3.59 -1.28,-1.95 -0.53,-1.84 -0.43,-2.71 -0.03,-2.7 0.62,-1.82 0.42,-1.81 -1.15,-2.04 -2.58,-3.03 -0.54,-3.98 2.54,-6.13 0.17,-3.74 -1.28,-3.27 -0.17,-1.49 0.11,-1.22 0.56,-2.1 0.11,-1.09 -0.02,-4.3 -0.44,-1.54 -2.29,-3.85 -0.39,-1.72 0.17,-18 0.66,-3.88 1.24,-3.59 1.74,-3.46 4.46,-6.48 1.75,-4.05 -0.3,-4.03 -1.97,-1.88 -0.32,-0.7 -0.02,-8.91 -0.43,-2 -1.87,-4.86 -0.13,-1.79 0.45,-5.45 0.48,-1.72 0.05,-1.02 -0.2,-1.21 -0.91,-2.14 -0.26,-1.06 0.8,-3.88 0.61,-1.76 -0.17,-1.13 -0.31,-1.19 -0.2,-1.1 0.75,-1.35 1.31,-1.76 0.45,-1.21 -1.87,0.34 -0.82,-0.89 -0.69,-1.45 -0.48,-1.48 -0.16,-0.92 -0.51,-0.59 -3.1,-1.99 -4.98,-1.78 -2.27,-1.17 -2.23,-2.18 1.05,-1.33 0.47,-0.44 0.71,-0.33 -1.06,-2.07 -1.48,-5.55 -1.44,-1.14 -0.83,-0.39 -0.59,-1 -0.34,-1.29 -0.1,-1.34 -0.41,-1.45 -1.84,-1.87 -0.59,-1.35 2.99,-0.78 2.25,-1.47 4.17,-3.55 26.56,-16.52 1.78,-1.71 0.94,-1.84 0.64,-1.89 1.04,-1.47 2.12,-0.6 2.35,-0.18 1.63,-0.47 5.74,-2.98 1.72,-0.56 2.26,-0.21 1.57,-0.46 1.3,-0.91 1.6,-0.75 2.46,0.01 1.48,0.31 1.08,0.38 0.99,0.67 1.16,1.14 1.06,0.8 0.93,0.05 1.05,-0.27 1.33,-0.19 12.8,1.96 1.01,0.55 1.48,1.32 0.76,0.85 -0.06,0.39 1.3,0.94 3.41,6.37 -0.38,-0.17 -0.33,-0.09 -0.32,-0.14 -0.4,-0.32 -1.53,2.69 -1.14,0.66 -1.74,-0.52 -0.68,2.43 -1.48,0.69 -1.5,0.35 -0.67,1.3 0.26,0.92 0.65,0.97 0.92,0.67 1.06,0.04 0.54,-0.59 0.81,-2.14 0.88,-0.9 0.88,1.08 0.75,2.85 0.54,1.15 h 0.65 l 1.21,-1.18 1.16,2.27 0.58,3.41 -0.36,2.32 -0.46,1.09 0.1,4.35 -0.38,1.25 -0.88,1.97 -0.17,1.5 -1.48,2.9 -0.51,1.77 0.87,0.79 0.74,0.54 0.53,1.24 0.5,2.57 0.04,2.63 -0.71,5.77 -0.78,1.88 -0.79,0.52 -1.22,0.48 -1.12,0.62 -0.48,0.87 -0.3,0.94 -0.76,0.82 -1.03,0.6 -1.13,0.22 -1.68,0.82 -1.16,1.98 -1.89,4.44 -1.99,2.16 -2.43,2.09 -2.02,2.24 -0.86,2.6 -0.2,1.09 -0.97,2.36 -0.27,1.3 v 1.22 l 0.72,3.13 2.04,4.26 22.39,20.29 5.85,7 1.67,0.88 2.55,0.3 4.24,0.06 1.58,0.83 1.03,2.01 -0.41,1.76 -1.03,2.43 -0.55,2.14 1.01,0.93 1.8,-0.51 1.25,-0.88 1.24,-0.33 1.75,1.12 1.38,1.61 0.61,1.12 0.25,1.2 0.33,0.97 1.5,1.57 0.34,1.08 8.03,3.26 13.25,2.36 4.17,2.05 3.52,4.93 -1.12,8.48 -3.41,7.41 -3.39,1.66 0.77,-0.98 0.31,-1.13 -0.38,-0.77 h -1.36 l -1.11,0.57 -0.32,0.79 0.03,1.03 -0.45,3.16 0.39,8.36 -0.39,4.4 -0.93,4.47 -2.35,6.42 -1.89,8.58 -0.29,4.48 0.73,3.55 0.36,0.5 0.34,0.02 0.33,-0.04 0.42,0.26 0.54,1.23 5.38,7.32 1.31,0.94 6.24,2.57 1.45,0.34 1.91,0.77 3,3.74 2,1.36 h 1 l 1.22,-0.31 1.01,-0.43 0.44,-0.39 0.36,-0.9 0.89,-0.01 1.98,0.59 2.41,-0.3 1.75,-0.5 1.53,-0.1 1.86,0.9 3.05,2.05 1.89,0.58 11.05,1 2.06,-0.22 4.66,-0.99 2.35,-0.24 1.44,-0.57 2.08,-2.5 1.94,-0.57 v -0.78 l -1.84,-0.5 -0.4,-0.23 -2.65,-2.49 -2.48,-2.95 -1.73,-3.69 -0.37,-4.72 0.94,-3.98 1.83,-4.63 2.28,-4.16 2.18,-2.47 0.9,-0.26 3.87,-0.47 0.65,-0.33 1.86,-1.51 2.43,-0.59 1.01,-0.6 1.71,-1.32 0.86,-0.44 0.76,-0.22 6.95,-0.45 4.7,-0.93 4.4,-1.58 4.08,-2.25 3.52,1.48 3.59,0.47 3.59,-0.78 3.42,-2.23 3.75,-1.08 4.38,1.24 3.14,2.53 0.01,2.78 1.28,2.34 0.94,0.36 1.39,-1.24 -0.47,-0.64 -0.27,-0.87 0.28,-0.65 1.18,-0.01 2.6,3.26 1.08,0.44 1.31,-0.18 1.13,-0.68 0.45,-1.06 -0.01,-1.95 -0.21,-0.8 -0.5,-1.29 -0.04,-0.68 0.3,-0.37 0.16,-0.4 -0.42,-0.71 -0.43,-0.11 -1.36,0.19 -0.45,-0.08 -0.74,-1.01 -1.1,-2.07 -0.65,-0.92 -4.32,-4.07 -1.13,-2.08 3.13,0.39 2.45,1.51 3.81,3.89 7.26,5.37 1.55,1.96 1.27,-1.5 0.54,-1.45 0.82,-1.06 2.07,-0.42 1.46,-0.81 0.54,-1.97 -0.18,-4.46 -1.02,-4.48 -0.16,-2.13 1.57,-3.24 0.18,-1.99 -0.2,-2.21 -1.61,-6.32 -2.02,-4.59 -2.95,-3.77 -3.98,-1.81 -3.41,0.8 1.5,2.74 5.58,5.82 -2.71,0.9 -4.05,-0.03 -4.15,-0.82 -2.96,-1.48 0.04,0.86 -0.13,0.92 -0.26,0.74 -0.37,0.36 -1.71,-0.44 -1.39,-1.66 -0.9,-2.15 -0.35,-1.9 0.25,-4.5 -0.19,-2.03 -0.78,-1.75 -1.52,-1.37 -2.04,-0.92 -2.34,-0.52 -5.11,-0.4 -0.13,-0.59 1.54,-0.73 2.37,-0.67 2.66,-0.12 1.17,-0.44 0.8,-1.71 0.67,-0.63 0.84,-0.52 2.24,-0.7 0.18,-1.08 -0.6,-1.22 -0.73,-0.83 -0.97,-0.47 -1.1,-0.15 -7.22,-0.06 -2.12,-0.45 -2.03,-1.41 -6.21,-8.4 -1.86,-4.25 -1.27,-1.62 -2.3,-0.66 -4.58,0.46 -2.25,-0.14 -2.14,-1.04 -1.21,-1.46 -0.89,-1.71 -1.03,-1.4 -1.6,-0.57 -2.28,-0.4 -1.94,-1.02 -1.58,-1.39 -1.11,-1.48 -2.09,-3.75 -0.79,-2.35 0.28,-1.61 1.07,-0.64 2.51,-0.67 1.19,-0.47 1.17,-0.67 0.62,-0.47 0.44,-0.65 1.7,-3.2 0.83,-2.27 0.17,-2.18 -0.92,-1.78 -1.29,-1.25 -1.06,-1.31 -0.73,-1.57 -0.28,-2.02 1.39,0.53 0.81,-0.52 0.46,-1.05 0.3,-1.14 1.63,0.9 1.69,0.48 1.5,0.71 1.04,1.54 -0.31,0.4 -0.48,1.03 1.98,0.13 1.67,0.94 0.73,1.32 -0.77,1.24 1.78,0.14 0.55,-2.14 -0.32,-2.87 -0.85,-2.05 -1.4,-0.93 -4.5,-1.98 -1.41,-0.38 -0.84,-3 2.72,-5.93 1.91,-2.07 1.97,-2.12 2.62,2.19 0.33,-0.35 0.43,-0.34 0.58,-0.16 0.77,0.19 1.15,0.74 0.57,0.51 -0.27,0.2 1.37,0.02 0.4,-0.29 0.07,-0.91 0.32,-1.79 0.06,-0.69 -0.19,-1.57 0.13,-0.64 0.63,-0.54 1.75,-0.55 0.59,-0.34 0.79,-1.6 0.08,-1.13 -0.57,-0.31 -1.08,0.86 -1.19,-0.74 -0.78,-0.98 -0.52,-1.22 -0.36,-1.48 -1.09,0.52 -1.39,0.86 -1.34,0.62 -0.9,-0.16 -7.64,-7.62 -2.85,-1.64 -0.76,-0.54 -0.93,-3.98 2.5,-3.98 1.91,-4 -2.69,-4.04 -2.22,-1.02 -2.2,-0.41 -3.99,-0.01 -1.6,-0.94 -0.78,-2.18 -0.38,-2.42 -0.47,-1.71 -0.8,-0.58 -0.97,-0.28 -0.83,-0.49 -0.35,-1.22 -0.39,-0.41 -0.92,-0.35 -4.03,-0.55 -1.61,-0.67 -2.53,-2.03 -4.69,-5.44 -0.24,-1.33 0.62,-4.83 -0.02,-2.16 -1.03,-2.28 -3.33,-4.2 -1.31,-3.79 -3.79,-5.85 -4.99,-5.27 -0.81,-1.55 -0.31,-1.95 -0.77,-2.31 -1.81,-3.99 -2.62,-3.56 -5.93,-4.84 -2.96,-3.25 -4.04,-3.25 -4.34,-0.39 -4.48,0.14 -4.56,-1.64 -2.07,-3.03 -2.09,-7.97 -2.48,-2.8 -2.17,0.32 -1.44,-1.6 -1.19,-2.05 -3.21,-2.2 -2.3,-5.6 -1.33,-1.9 -1.44,0.82 -0.63,1.25 -0.31,1.49 -0.51,1.5 -0.64,1 -0.83,0.98 -1.01,0.88 -1.14,0.76 v -4.74 l -0.23,-0.95 -0.98,-1.03 -0.23,-0.94 0.47,-2.27 0.92,-2.33 0.59,-2.11 -0.54,-1.69 -3.85,0.76 -0.86,-3.21 1.67,-3.58 3.77,-0.41 0.75,0.7 1.06,1.77 0.72,0.37 h 4.76 l 2.61,0.82 0.45,1.28 -0.01,1.69 1.23,2.05 3.68,1.14 0.39,0.24 1.02,0.3 0.72,0.72 2.01,2.63 0.42,0.87 0.59,0.73 1.37,0.6 1.01,0.16 6.91,-0.35 3.54,-0.71 3.28,-1.32 2.74,-2.11 2.23,-2.81 1.71,-2.97 2.63,-6.53 1.06,-3.78 0.91,-1.96 1.25,-0.83 1.03,-0.27 1.18,-0.6 1.74,-1.24 0.89,-0.23 0.56,-1.94 4.24,0.61 1.89,-0.26 2.54,-1.14 1.22,0.16 2,-0.89 3.36,-2.17 0.52,-0.56 0.39,-0.64 0.49,-0.58 0.78,-0.39 1.12,-0.05 1.86,0.62 1.03,0.15 2.09,-0.47 4.29,-2.04 2.04,-0.38 1.76,0.66 1.27,1.02 1.28,0.46 1.76,-1.06 3.45,-3.16 7.75,-5.3 6.62,-3.34 1.41,-1.5 2.53,-3.44 7.66,-6.89 0.49,-0.64 1.4,-2.35 0.28,-1.03 0.42,-1 0.98,-0.76 1.86,-1.12 4.51,-6.66 1.7,-1.71 4.06,-1.97 1.26,-1.3 1.05,-4.95 1.41,-1.76 3.08,-2.31 1.06,-0.44 1.21,-0.27 0.94,-0.56 0.4,-1.27 0.05,-1 0.19,-0.96 0.37,-0.91 0.54,-0.78 2.66,-3 0.95,-1.54 4.45,-10.14 2.86,-2.64 3.97,1.02 4.32,-0.97 9.8,-0.62 3.24,-1.38 2.2,-0.02 3.75,-4.82 2.4,0.84 2.33,2.04 1.06,1.14 0.62,1.55 -0.13,1.11 -0.82,2.63 0.23,1.33 4.91,3.7 0.5,0.7 1.05,0.67 2.95,4.4 3.28,2.09 4.39,0.72 4.36,-1.24 3.28,-3.82 0.67,-2.12 1.12,-9.41 1.03,-1.54 2.96,-2.83 0.74,-2.17 -0.47,-4.26 1.48,-3.67 -1.68,-2.95 0.65,-2.21 -1.12,0.12 -0.93,-0.24 -0.62,-0.6 -0.23,-1.05 -0.21,-0.62 -0.99,-0.96 -0.23,-0.57 0.23,-0.44 1.2,-1.43 -1.46,-1.29 -6.54,-2.38 -7.21,-3.92 -3.62,-1.35 -17.34,-1.49 -1.62,0.24 -1.11,0.88 -1.25,2.4 -1.26,1.07 -1.42,0.5 -1.98,0.38 -1.93,-0.09 -1.24,-0.79 -2.26,0.56 -9.33,0.58 -0.25,0.51 -0.65,0.42 -0.8,0.13 -1.68,-0.88 -0.6,0.35 -0.49,0.71 -0.57,0.57 -2.97,1.98 -1.45,0.38 -1.37,-0.91 -1.92,0.75 -0.14,1.02 0.89,1.07 1.17,0.84 1.46,0.74 1.44,0.38 9.3,0.66 1.6,0.33 0.35,0.37 0.82,1.39 0.35,0.41 6.66,1.5 -0.05,0.69 -1.61,1.43 -1.64,0.88 -1.76,0.42 -13.24,1.15 -5.13,1.88 -2.39,0.1 -1.86,-0.79 -1.65,-0.99 -2.85,-0.83 -2.19,-1.48 -1.42,-0.34 -1.05,0.17 -0.71,0.46 -0.54,0.52 -0.6,0.35 -4.01,0.36 -7.38,-1.95 -3.86,0.09 -4.33,0.73 -21.44,0.77 -1.5,0.45 -3.95,3.17 0.33,2.23 -0.7,3.52 -1.21,3.56 -1.32,2.33 -2.5,1.85 -2.08,0.02 -2.04,-0.73 -2.46,-0.48 -2.61,0.19 -2.02,0.56 -3.79,2.21 -3.99,1.31 -4.14,-0.42 -4.4,-1.1 -4.81,-0.58 h -9.09 l -0.74,-0.4 -0.77,-0.88 -1.04,-1.55 -2.89,-2.24 -0.23,-1.53 -0.11,-6.42 -0.51,-0.24 -0.65,-0.5 -0.85,-0.49 -1.22,-0.22 -0.96,0.16 -2.67,0.83 -0.77,0.46 -0.26,0.97 0.08,1.18 -0.07,1.04 -0.79,0.43 h -4.41 l -2.14,0.37 -1.62,0.96 -5.11,4.91 -2.38,2.98 -5.87,9.21 -5.95,4.92 -2.78,3.53 -1.62,3.44 -1.07,1.66 -1.18,0.7 -1.55,0.64 -1.92,1.5 -1.73,1.69 -1,1.22 -0.78,1.96 -1.19,4.96 -0.48,3.95 -0.74,1.85 -3.86,6.03 -2.65,2.76 -3.42,1.64 -4.29,-0.59 -1.09,-0.79 -2.56,-2.38 -1.11,-0.5 -1.19,0.1 -1.99,0.51 -7.19,0.89 -2.35,-0.06 -2.47,-0.55 -1.31,-0.54 -0.57,-0.72 0.65,-3.48 -0.29,-0.5 -2.77,0.29 -7.05,1.88 v 0.73 l -6.5,2.89 -1.5,-1.05 -1.37,-2.17 -1.03,-2.45 -0.88,-4.32 -1.22,-2.12 -4.97,-5.59 -0.74,-1.29 0.15,-1.49 0.7,-2.66 0.2,-1.38 0.01,-0.95 0.16,-0.81 0.72,-0.91 0.44,-1.01 -0.12,-1.27 -0.47,-1.21 -6.81,-9.96 -1.05,-2.56 -0.83,-1.25 -1.33,-0.52 -2.39,-0.14 -1.07,-0.32 -0.88,-0.63 -1.26,-2.08 -0.96,-2.16 -1.42,-1.59 -2.6,-0.39 -2.01,1.03 -2.22,1.74 -2.38,1.18 -2.41,-0.67 -4.99,-3.49 -1.24,-1.24 -16.39,-24.4 -1.71,-4.6 -1.67,-10.25 -1,-2.48 -0.22,-1.14 0.25,-1.08 0.99,-2.16 0.2,-1.1 -0.68,-2.4 -2.97,-3.74 -0.67,-2.18 -2.33,-13.68 -0.1,-2.66 0.62,-1.81 1.11,-1.79 0.73,-2.41 0.62,-4.84 -0.26,-2.66 0.07,-1.13 0.59,-0.97 3.64,-2.9 1.33,-1.91 0.93,-2.41 1.06,-4.78 0.45,-4.83 0.57,-2.14 1.45,-2.07 0.41,-0.89 0.75,-3.81 0.51,-1.07 2.64,-3.87 5.97,-6.8 6.19,-9.13 4.42,-4.77 2.69,-1.98 1.13,-1.07 1.17,-1.45 1.42,-1.28 1.73,-0.54 1.83,-0.31 8.18,-4.08 1.76,-0.49 18.73,-0.18 2.02,0.68 3.35,3.25 2.19,1.13 0.97,0.02 1.82,-0.58 1.23,-0.16 0.96,0.33 0.5,0.75 0.3,0.75 0.41,0.33 3.21,0.54 0.8,0.25 0.5,0.64 0.51,1.58 0.42,0.68 1.68,1.05 1.69,0.12 6.66,-0.9 3.35,-1.61 1.9,-0.17 1.58,0.7 2.92,2.45 1.67,0.52 3.81,0.7 0.93,0.03 1.19,-0.46 0.62,-0.65 1.07,-1.78 1.57,-1.58 1.48,-0.86 1.68,-0.38 2.17,-0.08 2.15,-0.44 4.25,-1.75 2.68,-0.04 1.11,0.45 2.47,1.46 1.13,0.32 1.24,-0.22 2.04,-0.99 3.78,-0.56 1.73,-0.49 1.42,0.08 1.79,1.39 1.11,-0.65 1.19,-0.45 1.39,-0.26 1.76,-0.08 1.35,-0.42 0.51,-1.09 0.24,-1.41 0.4,-1.42 1.02,-1.44 0.8,-0.11 0.92,0.5 1.28,0.33 1.89,-0.02 1.4,-0.22 0.95,-0.65 0.55,-1.35 1.04,1.09 0.6,1.07 0.68,0.93 1.29,0.66 0.96,-0.09 3.33,-0.64 1.45,-0.06 2.69,0.92 1.81,1.61 4.96,7.07 0.73,0.53 1.5,0.18 4.27,-0.84 5.52,-0.11 9.77,-1.38 2.01,-0.68 1.65,-2.36 1.92,-0.53 7.04,0.16 4.27,1 2.31,0.21 0.69,-0.18 1.63,-0.93 0.93,-0.33 1.07,-0.11 8.08,0.11 1.03,-0.24 2.05,-1.03 1.26,-0.24 25.58,0.06 1.81,0.23 1.47,0.52 1.19,0.91 1.5,0.45 1.82,0.13 1.46,-0.53 0.25,-1.32 -0.63,-3.28 1.41,0.86 2.05,2.87 1.25,0.61 4.68,0.12 9.8,-1.13 15.58,1.01 5.79,-0.9 2.28,-1.02 1.41,-1.63 h 0.73 l 1.6,2.34 4.58,4.94 3.09,4.9 0.19,0.48 0.44,0.4 2.01,-0.09 0.45,0.38 2.61,3.98 0.68,0.75 0.54,0.32 0.84,1.45 0.4,0.47 0.78,0.26 1.38,0.13 3.48,1.32 10.39,1.12 1.82,-0.28 3.96,-1.1 2.29,-0.16 11.1,0.92 1.4,0.64 3.41,2.71 1.01,0.58 0.69,0.01 1.53,-1.61 1.01,-0.7 3.52,-0.66 3.7,-1.52 2.24,-0.21 1.3,0.35 1.32,0.58 1.21,0.37 0.91,-0.29 1.77,-1.01 1.88,-0.79 3.59,0.13 1.1,-0.13 4.41,-1.45 2.17,-0.45 6.87,-0.27 1.05,-0.28 1.88,-1.38 1.05,-0.52 0.8,0.02 2.88,0.77 3.05,-2.94 1.27,-0.8 4.37,1.84 5.2,-0.45 12.94,-2.63 2.91,-2.53 2.54,-0.57 2.05,-0.72 2.32,-1.4 2.59,-0.88 2.84,0.83 1.81,-3.63 1.26,-1.42 2.05,-0.74 v -0.72 l -1.52,-0.89 0.39,-1.64 4.31,-5.69 0.45,-0.46 0.84,-0.1 2.28,0.14 0.5,-0.4 -0.04,-1.94 -0.3,-0.77 -0.77,-0.91 -0.29,-0.98 0.41,-1.09 0.65,-0.96 0.91,-1.99 3.82,-3.3 1.28,-1.79 0.07,-0.71 -0.03,-1.58 0.36,-1.25 1.53,-2.07 1.01,-2.93 1.58,-1.56 3.54,-2.64 3.62,-3.81 2.13,-1.46 2.6,-0.59 0.85,-0.54 1.64,-2.75 0.8,-1.04 0.93,-0.53 3.41,-0.92 3.78,-1.89 0.56,-0.71 0.2,-0.89 1.1,-2.64 0.52,-0.81 3.51,-3.48 3.42,-4.18 4.99,-8.74 6.62,-18.44 2.03,-3.78 3.07,-3.83 3.46,-2 4.58,-2 3.07,-2.72 -1,-4.13 -2.61,-2.14 -2.89,-1.76 -2.12,-2.57 -0.27,-4.51 1.55,-4.25 -0.49,-1.14 -2.93,-0.41 -6.98,0.81 -2.12,-0.02 -2.01,-0.63 -0.83,-1.22 -0.05,-4.39 -0.99,-1.13 -2.16,0.33 -2.21,1 -1.16,0.91 -0.21,1.04 0.21,3.7 -0.46,0.47 -1.98,-0.93 -0.46,0.46 -0.95,1.34 -10.56,8.14 -1.16,1.69 -0.41,2.58 0.82,2.22 1.5,2.02 0.69,1.99 -1.56,2.18 -2.12,0.91 -4.4,0.57 -1.86,1.06 -2.56,3.13 -1.61,1.04 -2.7,0.47 -7.57,-1.67 -1.12,0.68 -0.84,1.12 -5.66,4.27 -0.91,1.85 -0.72,2.96 0.15,2.74 1.8,1.2 4.18,-0.16 1.65,0.58 1.01,1.75 -0.1,2.04 -0.87,2.41 -1.38,2.01 -1.56,0.84 -1.29,-0.44 -0.65,-0.95 -0.5,-1.01 -0.81,-0.56 -1.25,0.13 -0.75,0.63 -0.64,0.79 -0.99,0.62 -2.1,0.34 -7.03,-0.34 -2.14,0.27 -1.94,0.71 -1.63,0.96 -1.19,1.02 -1.72,2.95 -1.78,7.32 -1.57,3.47 -2.6,2.16 -7.07,1.97 -3.48,1.66 -2.56,2.77 -1.44,1.17 -3.47,0.72 -11.89,4.34 -1.73,1.85 -4.16,1.35 -1.58,0.95 1.12,0.63 0.35,0.73 -0.37,0.76 -1.1,0.72 -0.88,0.07 -2.04,-0.67 -1.01,-0.19 -7.27,0.79 -14.9,-2.18 -2.01,-0.76 -4.25,-2.3 -2.09,-0.49 -1.66,0.47 -3.56,1.58 -1.32,-0.31 -3.26,-1.78 -7.92,-1.73 -2.94,-1.98 -1.31,0.67 -0.82,-0.27 -0.64,-0.63 -0.83,-0.43 -1.55,0.05 -0.96,0.42 -0.8,0.56 -1.09,0.42 -1.11,0.15 -2.89,0.05 -1.06,-0.2 -1.26,-0.8 -0.32,-0.86 -0.08,-0.94 -0.52,-1.08 -1.96,-1.24 -3.09,1.18 -1.9,-0.99 -2.24,-1.57 -0.45,1.44 0.45,2.32 0.45,1.09 -1.62,0.57 -4.36,-1.74 -2.37,0.81 -1.57,0.23 -0.17,0.02 -2.58,-0.62 -7.02,-2.61 -1.5,-0.26 -2.42,-0.08 -0.77,0.57 -0.27,1.22 v 1.89 l -0.46,0.68 -1.15,0.95 -0.51,0.54 -2.09,5.07 -1.22,0.72 -1.81,0.48 -4.34,3.2 -1.92,-0.73 -2.62,-2.43 -2.65,-0.85 -0.23,-1.5 -0.97,-0.34 -1.36,-0.2 -0.61,-0.52 -0.44,-0.7 -0.84,-0.75 -4.09,-1.53 -2.23,-1.13 -0.97,-1.32 -0.78,-1.71 -1.86,-1.24 -2.28,-0.77 -6.2,-0.53 -4.35,-0.91 -4.08,-1.7 -3.34,-2.61 -1.31,-0.11 -4.9,1.14 -2.07,0.12 -5.05,-1.54 -1.54,0.03 -0.58,0.31 -0.9,0.99 -0.32,0.21 -0.64,-0.12 -0.98,-0.54 -0.56,-0.13 -1.22,0.13 -2.04,0.54 -1.06,0.12 -1.33,-0.27 -2.7,-1.62 -0.68,-0.41 -1.38,-0.44 -3.02,-0.22 -6.53,-2.53 -2.54,-0.36 -1.58,0.56 -2.3,2.73 -1.58,1.05 -2.33,0.23 -2.12,-0.8 -1.53,-1.71 -1.33,-4.83 -1.81,-0.8 -31.28,3.9 -4.67,0.02 -4.24,-1.14 -1.92,-1.14 -5.07,-3.99 -1.04,-1.71 -0.27,-0.98 -1.9,-2.24 -0.52,-1.25 -0.1,-0.81 0.05,-0.69 -0.15,-0.94 -0.43,-1.04 -0.87,-1.48 -0.14,-0.73 0.53,-0.25 2.59,-0.78 0.85,-0.45 0.42,-1.03 0.05,-1.41 -0.26,-1.37 -0.57,-0.92 -1.35,-0.64 -1.03,0.32 -2.03,1.83 -2.48,1.58 -1.85,0.61 -4.71,-0.02 -2.07,0.31 -5.59,2.58 -8.69,-4.44 -2.56,-3.32 -2.63,-1.25 -5.66,-1.84 -2.03,0.51 -9.95,-2.02 -1.89,0.25 -1.16,0.7 -2.05,2.34 -1.13,0.39 -0.25,-1.36 0.32,-3.11 -2.62,2.44 -1.05,0.52 -1.05,0.06 -2.29,-0.34 -1,0.28 -1.35,1.66 -0.12,2.03 0.74,3.94 0.1,4.2 -0.18,1.84 -0.64,2.31 -0.31,0.23 -0.83,1.05 -0.7,1.14 v 0.54 l -0.32,0.52 -0.08,1.19 0.48,6.61 -0.16,1.67 -0.98,1.58 -0.93,0.61 -2.19,0.63 -0.93,0.57 -0.71,1.07 -0.8,2.27 -0.65,1 -1.19,0.31 -1.24,-0.71 -1.2,-0.94 -1,-0.39 -0.72,0.43 -2.23,2.45 -4.71,7.44 -1.65,4.55 1.29,2.49 -3.15,3.67 -1.76,1.63 -1.24,0.15 -1.63,-1.68 -1.42,-1 -1.71,-0.49 -2.51,-0.12 -0.54,0.4 -0.62,0.75 -0.77,0.44 -1.71,-0.88 -3.32,-0.71 -2.04,-1.05 -1.67,-1.3 -1.25,-1.56 -0.83,-1.88 h -0.59 l -1.63,1.15 -0.65,-1.78 -0.02,-4.82 0.7,-4.79 -0.54,-2.09 -2.33,-1.4 -4.36,0.19 -2.33,2.68 -1,3.78 -1.22,10.78 -0.9,1.76 -2.09,1.83 -2.2,1.44 -6.96,3.15 -1.09,0.31 -1.39,0.11 -2.66,0.67 -1,0.12 -1.81,0.9 -1.23,2.18 -0.7,2.64 -0.3,2.3 0.52,4.14 1.14,4.24 0.51,4.03 -1.37,3.57 -2.1,1.22 -5.07,0.39 -1.91,0.82 -1.1,0.74 -1.31,0.59 -1.27,0.76 -1.05,1.26 -0.37,1.08 -0.12,2.17 -0.24,1.1 -1.21,2.19 -2.63,3.79 -0.5,2.33 0.54,2.47 0.9,1.79 0.19,1.58 -1.63,1.82 -6.31,2.09 -0.99,1.14 0.05,1.95 0.24,1.34 0.64,1.25 8.04,9.63 1.95,3.65 -1.09,2.73 -2.24,9.16 -1.02,2.18 -1.53,2.42 -0.72,0.58 -1.01,0.01 -1.86,-0.45 -2.17,-1 -1.32,-1.38 -2.3,-3.41 -3,-3.46 -1.88,-1.62 -2.42,-1.43 -0.41,0.68 -0.26,0.81 -0.1,0.98 0.05,1.15 -0.96,-0.24 -0.93,-0.33 -1.71,-0.94 -0.72,3.05 1.17,3.45 2,3.1 1.87,2.03 2.62,1.56 3.23,0.77 3.4,-0.2 3.12,-1.34 0.84,1.8 0.68,3.2 0.21,3.05 -0.65,1.35 -1.24,1.4 -1,3.24 -2.46,24.43 0.39,2.19 1.47,3.39 0.31,1.32 0.44,3.6 1.01,4.03 2.51,4.91 0.38,1.27 0.5,1.02 2.43,2.78 0.75,1.6 0.13,1.14 -0.13,3.58 0.22,0.87 0.94,1.45 0.23,0.58 -0.14,2.67 -0.37,2.18 z"
         id="path2" />
    </g>
  </g>
</svg>
