<?xml version="1.0" encoding="UTF-8" standalone="no"?>
<svg
   xmlns:dc="http://purl.org/dc/elements/1.1/"
   xmlns:cc="http://creativecommons.org/ns#"
   xmlns:rdf="http://www.w3.org/1999/02/22-rdf-syntax-ns#"
   xmlns:svg="http://www.w3.org/2000/svg"
   xmlns="http://www.w3.org/2000/svg"
   xmlns:sodipodi="http://sodipodi.sourceforge.net/DTD/sodipodi-0.dtd"
   xmlns:inkscape="http://www.inkscape.org/namespaces/inkscape"
   version="1.1"
   width="1360"
   height="1360"
   viewBox="0 0 1360 1360"
   id="svg8"
   sodipodi:docname="Sumatra.svg"
   inkscape:version="1.0.1 (3bc2e813f5, 2020-09-07)">
  <metadata
     id="metadata14">
    <rdf:RDF>
      <cc:Work
         rdf:about="">
        <dc:format>image/svg+xml</dc:format>
        <dc:type
           rdf:resource="http://purl.org/dc/dcmitype/StillImage" />
        <dc:title></dc:title>
      </cc:Work>
    </rdf:RDF>
  </metadata>
  <defs
     id="defs12" />
  <sodipodi:namedview
     pagecolor="#ffffff"
     bordercolor="#666666"
     borderopacity="1"
     objecttolerance="10"
     gridtolerance="10"
     guidetolerance="10"
     inkscape:pageopacity="0"
     inkscape:pageshadow="2"
     inkscape:window-width="1920"
     inkscape:window-height="974"
     id="namedview10"
     showgrid="false"
     inkscape:zoom="0.333596"
     inkscape:cx="727.75775"
     inkscape:cy="716.08262"
     inkscape:window-x="-11"
     inkscape:window-y="-11"
     inkscape:window-maximized="1"
     inkscape:current-layer="svg8" />
  <g
     id="g6"
     transform="matrix(1.7193436,0,0,1.7193436,-351.54014,-7.7220365)">
    <g
       stroke="#000000"
       stroke-width="0.98"
       fill="#000000"
       id="g4">
      <path
         d="m 621.05,266.12 -1.64,-0.65 -1.17,-1.5 -0.72,-1.99 -0.23,-2.18 -0.4,-1.56 -0.94,-2.11 -1.14,-1.86 -1.01,-0.8 -0.59,-0.37 -1.33,-1.59 -1.61,-0.6 -8.38,-5.86 -3.3,0.37 -3.87,-1.9 -3.67,-2.88 -4.97,-5.06 -1.98,-2.69 -1.61,-2.88 -4.64,-13.59 v -0.02 l -0.1,-0.57 -0.26,-0.45 -0.6,-0.17 -1.77,-1.24 -0.33,-0.45 -0.13,-0.4 -0.6,-1.12 -0.24,-0.56 -0.22,-1.87 -0.2,-0.5 -0.41,-0.29 -1.2,-0.51 -0.5,-0.34 -0.28,-0.59 -0.06,-0.7 -0.13,-0.58 -0.49,-0.25 -1.65,0.1 -1.35,0.32 -1.06,0.59 -0.87,0.9 -0.68,1.25 -0.25,1.25 v 2.83 l 0.27,1.06 1.09,2.47 0.07,0.96 -0.86,0.53 -1.1,-1.06 -0.94,-1.69 -0.4,-1.34 -0.11,-0.78 -0.78,-2.26 -0.07,-0.93 0.12,-1.88 -0.05,-0.92 -1.5,-2.59 -2.49,-0.3 -2.24,0.9 -0.8,1.05 0.43,0.39 2.18,1.27 0.16,0.49 0.07,2.28 0.23,0.5 0.42,0.43 0.21,0.47 -0.39,0.7 -0.58,0.39 -0.41,-0.07 -0.14,-0.45 0.2,-0.76 -1.44,-2.33 v -0.43 l 0.27,-0.23 0.07,-0.31 -0.58,-0.68 -0.51,-0.25 -0.62,-0.13 -0.57,-0.24 -0.39,-0.57 0.06,-0.52 0.7,-1.06 0.17,-0.53 0.24,-1.24 0.57,-0.96 0.65,-0.86 0.5,-0.92 0.14,-0.93 -0.53,-7.86 -0.73,-2.32 -1.51,-1 -1.83,-0.84 -1.31,-1.68 -1.45,-1.24 -2.19,0.46 -0.34,-2.44 -1.29,-1.71 -3.58,-3.3 -2.1,-4.07 -0.9,-0.58 -1.23,-0.18 -2.33,-0.9 -6.54,-1.58 -2.13,-1.13 -2.08,-1.84 -1.48,-1.67 -0.57,-0.92 -0.54,-1.82 -0.74,-0.67 -1.7,-1.02 -1.41,-1.49 -0.84,-0.59 -2.52,-0.5 -1.08,-0.62 -6.69,-5.23 -6.15,-4.21 -5.35,-2.47 -1.87,-1.8 -1.47,-0.87 -1.74,-0.53 -1.2,-0.4 -2.14,-1.54 -1.39,-0.91 -4.15,-0.69 -6.82,-3 -5.87,-5.34 -0.74,-2.06 0.04,-2.82 -1.61,-2.68 -4.52,-1.48 -1.06,-0.5 -1.04,-0.7 -0.8,-0.86 -0.69,-2.34 -0.92,-0.3 -1.22,0.13 -1.25,-0.09 -0.71,-0.68 -1.39,-2.16 -0.99,-0.46 -1.44,-0.31 -2.44,-1.46 -1.46,-0.51 -1.46,-0.08 -3.91,0.5 -0.42,-0.6 -2.49,-6.02 -0.14,0.29 -0.28,0.09 -1.17,1.23 -0.18,0.31 -1.36,0.35 -1.04,0.81 -1.56,1.64 -0.06,-2.3 0.13,-1.11 0.4,-0.79 0.7,-0.37 3.03,-1.02 1.56,-0.87 0.2,-0.59 0.08,-5.21 0.02,-0.32 1,-4.93 -0.27,-3.45 -0.2,-0.67 -0.5,-0.48 -0.96,-0.75 -0.93,-0.91 -1.47,-1.91 -0.9,-0.91 -0.26,0.27 -0.46,0.34 -0.21,0.32 h -0.43 l -0.66,-1.39 -1.12,-1.19 -1.47,-0.83 -1.68,-0.31 -0.53,0.08 -0.8,0.32 -0.3,0.02 -0.46,-0.22 -0.27,-0.3 -0.2,-0.41 -1,-0.57 -0.5,0.11 -0.41,0.97 -0.63,-0.88 -0.86,-0.09 -2,0.46 -0.29,-0.5 0.29,-1.12 0.7,-1.87 0.12,-1.77 -0.13,-0.7 -1.58,-3.04 -0.57,-1.89 -0.83,-5.68 -0.49,-1.26 -3.2,-5.57 -1.04,-1.1 -1.36,-0.89 -2.99,-1.36 -11.3,-9.18 -9.42,-11.52 -2,-0.65 -15.58,6.6 -2.86,0.6 -2.14,-0.71 -1.31,-0.31 -0.67,-0.85 -1.14,-1.71 -2.71,-1.05 -2.4,-1.64 -3.01,-0.89 -3.88,-1.51 -3.44,0.27 -1.07,0.46 -0.88,0.04 -3.12,-0.99 -1.38,-0.24 -2.95,1.38 -6.83,2.35 -2.34,0.63 -5.66,0.53 -2.74,-0.19 -1.39,-0.5 -1.41,-0.74 -1.37,-0.42 -1.21,0.48 -1.3,0.7 -1.56,0.07 -3.03,-0.56 -1.21,-0.47 -2.76,-1.5 -0.91,-0.32 -11.21,-1.55 -2.6,-0.93 -2.26,-1.24 -8.49,-6.88 -1.83,-2.47 -0.63,-2.94 -0.46,-1.25 -1.02,-0.52 -1.17,-0.16 -1.08,-0.44 -5.28,-3.29 -10.27,-3.4 -2.42,-0.31 -2.89,0.62 -0.85,0.88 -0.68,0.42 -0.59,-0.14 -0.57,-0.49 -1.17,-0.77 -1.87,-1.77 -1.21,-0.35 -1.3,0.35 -2.98,1.93 -0.7,0.3 -0.93,0.11 -0.68,0.21 -1.33,0.97 -0.74,0.41 -1.13,0.9 -0.59,0.3 -0.68,-0.01 -0.64,-0.21 -0.67,-0.1 -0.8,0.32 -1.02,-0.41 -0.76,0.49 -1.05,1.83 0.43,0.86 1.46,1.93 -0.08,1.08 0.88,1.06 0.59,0.92 -0.92,0.67 1.21,1.76 0.27,0.91 -0.13,1.09 -0.44,1.12 -0.78,1.35 -0.13,1 -0.67,1.25 -1.14,1.28 -0.44,1 1.53,0.41 0.72,0.31 0.52,0.79 0.3,1 0.11,0.99 0.21,0.72 0.5,0.52 1.16,0.83 1.25,1.34 0.7,1.31 -0.17,1.5 -1.32,1.9 1.17,0.42 0.62,0.87 0.47,1.12 0.79,1.15 0.98,1.14 0.69,1.1 2.11,5.25 0.42,1.73 0.96,1.67 0.38,1.56 0.87,1.72 0.37,1.02 0.08,0.7 -0.03,0.34 0.11,0.34 0.55,0.69 0.47,0.45 1.28,0.91 0.58,0.53 1.41,1.84 1.77,3.34 0.8,1.11 1.86,1.43 0.37,0.11 0.49,-0.04 0.39,0.1 0.19,0.49 -0.16,0.4 -0.66,0.62 -0.16,0.4 0.31,0.56 0.73,0.2 1.56,-0.04 1.2,0.46 2.72,3.31 4.73,3.29 2.26,3.22 3.28,2.61 0.48,0.91 6.09,6.01 7.27,8.12 1.41,0.55 1.29,0.22 1.06,0.63 3.31,3.95 0.78,0.73 0.34,-0.13 0.35,-0.23 0.81,-0.05 0.85,0.08 0.55,0.2 0.52,0.38 1.06,0.47 0.47,0.31 0.28,0.42 0.39,1 0.26,0.45 4.63,4.65 10.3,13.67 3.35,3.17 2.76,1.63 2.72,0.57 13.68,-0.15 1.2,0.39 2.03,1.29 0.67,0.28 0.77,0.23 0.63,0.27 0.27,0.4 1.63,1 0.48,0.19 0.72,0.47 0.58,1.09 0.78,2.17 1.24,1.97 5.32,4.08 1.28,1.58 10.08,17.37 0.36,0.9 0.75,0.6 1.64,0.36 2.31,0.18 2.06,1.61 0.98,2.46 1.07,5.8 0.86,2.16 1.27,2.06 4.98,6.01 1.16,1.02 1.33,0.43 1.52,0.17 1.41,0.45 3.46,1.69 2.87,0.84 1.05,0.15 0.68,0.51 0.42,1.2 2.39,12.25 1.17,9.66 -0.2,7.89 0.37,1.33 0.87,1.1 2.02,2.03 2.62,4.44 0.88,0.64 0.77,-0.09 1.19,-0.34 0.59,0.01 0.59,0.4 0.44,0.57 0.54,0.32 0.8,-0.36 1.45,0.89 1.1,0.25 0.97,-0.19 3.56,-1.33 1.54,-0.13 1.89,1.86 7.23,3.31 4.29,2.66 3.88,3.2 2.33,1.53 0.85,0.97 0.33,1.69 0.57,0.71 1.33,0.05 1.57,-0.16 1.23,0.1 0.77,0.33 0.41,0.3 0.15,0.52 0.02,0.96 0.33,0.24 0.78,0.06 1.5,-0.04 1.3,0.1 1.3,0.3 1.23,0.44 6.21,3.73 2.8,3.3 5.59,8.47 2.22,1.88 1.39,0.72 0.62,-0.53 0.09,-0.38 0.35,-0.71 0.03,-0.48 -0.15,-0.02 -0.67,-0.49 -0.16,0.01 -0.11,-1.04 0.26,-0.4 0.83,-0.47 2.25,1.89 0.94,1.06 0.62,1.29 0.1,1.22 -0.05,0.87 0.3,0.52 1.21,0.17 0.9,0.45 0.31,1.07 -0.07,2.47 -0.25,0.73 -1.41,1.41 -0.66,0.86 -1.51,2.55 -0.89,0.91 -0.41,-0.88 -0.14,-0.52 -0.33,-0.53 -0.46,-0.4 -0.45,-0.16 -1.08,0.18 -0.11,0.37 0.72,1.28 0.38,1.48 0.3,0.63 0.46,0.25 0.64,0.12 0.69,0.31 0.56,0.38 0.23,0.36 0.15,1.29 0.35,1.57 0.9,2.58 0.72,1.03 2.79,2.86 0.31,0.74 -0.11,0.85 -0.28,0.82 -0.13,0.68 0.14,0.69 0.79,1.64 4.55,10.92 3.99,13.39 0.31,2.36 -0.25,2.65 0.31,1.06 1.1,0.43 0.59,0.46 2.44,2.84 0.38,2.55 -0.5,6.08 0.58,2.08 1.65,-0.74 1.17,0.6 0.71,1.38 0.24,1.59 -0.44,3.26 0.07,1.12 0.83,-0.65 0.82,1.01 0.31,1.68 0.35,4.93 -0.24,1.38 -1.24,3.15 1.43,0.35 1.15,0.5 0.68,0.9 v 1.51 l -0.36,0.73 -0.94,0.91 -0.1,0.73 0.3,0.33 1.35,0.88 0.45,0.18 0.93,-0.1 0.44,-0.1 0.34,0.17 0.64,0.71 0.55,0.48 0.73,0.36 0.78,0.23 0.74,0.07 1.12,-0.27 2.45,-1.21 1.34,-0.34 1.7,0.27 1.06,0.89 1.47,2.57 0.98,1.11 1.06,0.53 1.28,0.17 1.59,0.01 2.74,0.4 2.97,1.03 5.24,2.85 1.5,1.19 3.86,4.16 3.94,3.4 0.99,1.53 0.34,1.58 -0.19,1.4 -0.4,1.36 -0.22,1.46 0.08,1.19 0.24,0.93 0.43,0.88 0.65,0.97 0.72,0.76 0.77,0.63 0.59,0.81 0.25,1.32 0.04,1.79 0.25,1.45 0.7,1.28 1.33,1.28 3.09,1.73 1.46,1.2 0.63,1.56 0.74,0.78 4.84,3.19 2.29,2.16 3.8,4.73 2.96,5.28 1.75,2.26 9.66,10.13 1.81,2.89 1.1,3.41 0.61,4.66 1.83,3.64 0.76,0.76 1.49,-0.17 0.24,0.59 0.09,0.57 -0.09,0.58 -0.24,0.59 -0.68,-0.32 -0.74,-0.11 -0.75,0.11 -0.66,0.32 0.82,1.6 0.11,0.49 -0.13,0.51 -0.29,0.25 -0.31,0.17 -0.2,0.23 -0.23,0.87 -0.13,1.14 0.28,0.71 1.01,-0.39 2.89,2.55 0.4,0.97 0.03,1.49 -0.13,0.4 -0.36,0.64 -1.14,1 -0.25,0.4 0.64,0.69 0.7,0.1 1.69,-0.28 0.2,-0.15 0.14,-0.27 0.19,-0.13 0.4,0.3 0.64,0.7 0.38,0.31 1.34,0.49 2.8,1.64 1.37,0.36 0.63,0.77 0.52,1.69 0.51,2.66 -0.16,-0.07 -0.31,0.31 -0.31,0.43 -0.15,0.27 0.18,-0.05 0.58,0.61 0.17,-0.06 -0.3,1.1 -0.23,0.4 -0.4,0.33 0.96,1.21 2.7,2.53 0.56,0.72 0.28,2.96 0.61,2.91 0.61,1.6 0.94,1.51 3.42,3.99 3.15,5.04 0.46,1.6 0.32,0.69 0.54,0.67 3.89,3.74 1.13,1.47 0.48,1.39 0.41,2.8 0.73,2.83 0.4,2.89 -0.61,2.92 -2.22,2.68 -0.97,1.49 0.17,1.22 0.38,0.56 5.7,11.33 6.46,9.17 5.93,8.12 2.38,2.04 2.63,1.66 5.74,2.86 2.51,1.66 1.89,2.16 5.52,9.97 0.75,2.86 9.95,16.02 1.34,0.99 1.83,3.25 1.78,1.78 16.33,11.64 12.87,8.81 10.67,6.3 0.83,1.12 0.42,1.31 0.15,2.46 0.17,0.91 0.38,0.67 0.47,0.62 0.38,0.79 v 0.44 l -0.1,0.52 -0.05,0.64 0.15,0.77 0.74,1.18 2.08,2.36 0.43,1.38 -0.29,1.32 -1.28,2.09 -0.29,1.06 0.56,2.35 1.41,1.78 1.83,1.35 1.83,1.04 11,8.5 11.84,8.13 11.95,10.24 0.92,1.35 0.99,2.55 1.09,1.01 8.84,3.44 8.38,5.11 7.61,6.62 1.3,1.3 0.89,2.9 0.84,1.19 1.06,0.44 1.01,-0.9 1.29,0.79 0.53,0.41 0.51,0.63 1.12,3.13 0.32,0.63 0.7,0.11 0.83,-0.31 0.88,-0.45 0.8,-0.28 0.9,0.03 0.89,0.21 0.83,0.33 0.68,0.36 0.57,0.43 1.05,1 0.71,0.47 0.25,0.27 0.15,0.29 0.24,0.24 0.53,0.1 1.59,-0.05 0.5,0.05 1.7,0.65 0.93,1.03 1.6,3.01 1.21,-1.2 0.67,-0.47 0.71,-0.19 0.91,0.22 0.83,0.46 0.63,0.47 0.42,0.21 0.18,0.42 -0.66,1.98 0.01,0.67 0.74,0.47 0.77,0.19 h 1.75 l 1.25,0.3 1.05,0.75 1.69,1.78 4.01,2.47 1.18,1.3 0.23,0.51 0.11,0.58 0.04,1.42 -0.21,0.83 -0.93,1.32 -0.21,0.67 0.49,1.16 1.18,0.31 1.53,-0.01 1.46,0.15 0.85,0.5 1.11,0.95 0.76,1.13 -0.18,0.96 -0.8,1.32 0.35,1.11 3.11,3 4.91,6.11 1.08,1.06 1.24,0.83 2.23,0.64 0.5,0.71 0.33,0.79 0.38,0.57 0.78,0.46 0.61,0.16 0.62,0.09 0.78,0.22 1.48,0.85 2.97,3.13 0.89,1.32 -1.62,1.39 0.47,1.22 4.78,2.89 1.11,0.46 4.45,4.1 0.51,1.33 0.43,0.73 1.07,0.51 0.68,0.46 3.62,3.06 0.81,1.24 0.32,1.6 -0.34,2.43 0.54,0.63 9.39,0.14 0.81,-0.18 0.35,-0.46 -0.15,-0.75 -0.78,-1.57 -0.32,-2.84 -0.61,-2.56 -10.61,-16.91 -0.32,-1.32 0.39,-1.13 1.18,-1.05 1.1,-0.5 1.33,-0.13 h 1.77 l -0.34,-1.09 -0.13,-0.3 h 0.47 l 0.66,0.8 1.33,0.49 2.66,0.62 1.17,0.59 0.77,0.7 4.06,4.51 1.47,1.19 3.26,0.96 4.26,3.26 11.72,5.12 3.1,2.44 0.83,0.35 2.23,-0.08 1.38,-0.27 1.27,-0.58 0.9,-1 -0.9,-0.37 -1.65,-0.22 -1.36,-0.51 -0.22,-1.09 1.41,-0.77 1.8,-0.6 0.98,-0.6 -0.17,-0.34 -0.48,-0.41 -0.51,-0.55 -0.23,-0.75 v -1.88 l -0.41,-1.57 -0.66,-1.39 -0.01,-1.12 1.51,-0.79 1.15,0.4 0.8,0.1 0.37,-0.3 0.18,-0.2 0.62,-1.89 -0.06,-0.25 0.68,-1.38 -0.73,-2.63 0.29,-1.34 1.98,-1.01 2.12,1.48 4.45,6.25 1.52,1.61 3.51,2.88 2.31,2.42 0.7,0.37 0.47,0.18 0.45,0.39 0.52,0.34 0.71,0.07 0.33,-0.22 0.66,-0.88 0.36,-0.34 1.6,1.55 0.83,2.23 0.37,5.3 1.08,1.3 5.38,0.62 2.18,0.9 0.45,1.13 0.02,2.62 0.68,0.65 0.26,-0.44 2.1,-2.32 1.24,-1.89 0.75,-2.25 0.81,-5.26 0.4,-1.47 1.24,-2.87 0.26,-1.43 -0.04,-2.81 -0.59,-4.24 0.82,-2.63 0.24,-1.56 -0.43,-5.84 0.42,-3.15 1.71,-5.56 0.19,-3.01 -0.38,-5.79 0.38,-5.81 0.83,-2.3 1.18,-2.21 0.88,-2.19 -0.09,-2.23 -2.46,-4.21 -0.34,-1.64 0.09,-2.98 0.9,-5.77 0.59,-1.26 0.99,-0.52 -0.98,-3.46 -0.19,-1.2 0.34,-1.14 0.67,-1.32 0.46,-1.3 -0.73,-2.37 0.51,-2.9 -0.31,-1.2 -0.29,0.19 -0.03,0.06 -0.15,0.2 -1.07,-2.28 -0.75,-0.88 -1.01,-0.56 0.28,-1.54 -0.77,-1.91 -1.13,-1.96 -0.72,-1.66 -0.32,-1.84 -0.1,-2.35 1.03,-5.51 0.23,-1.21 1.63,-4.72 0.37,-2.33 0.65,-2.22 4.48,-6.44 1.16,-2.78 -0.03,-2.4 -1.29,-2.15 -5.62,-4.02 -1.73,-2.17 -0.42,-2.66 4.2,-15.1 1.3,-2.99 1.97,-2.85 2.29,-2.5 2.36,-1.95 4.49,-2.28 0.67,-0.76 0.09,-0.74 0.35,-1.43 0.02,-0.84 -0.22,-0.72 -0.87,-1.43 -0.3,-0.68 -0.4,-2.82 0.04,-5.57 -0.58,-2.36 -1.16,-2.01 -0.88,-0.91 -1.01,-0.39 -0.67,-0.13 -1.08,-0.62 -0.82,-0.17 -0.77,0.05 -1.27,0.34 -0.72,0.12 -2.96,-0.45 -2.66,-1.43 -2.09,-2.12 -1.22,-2.52 0.22,-9.42 -1.15,-2.31 -0.68,-0.37 -0.75,-0.12 -1.61,0.02 -0.75,-0.15 -1.4,-0.66 -1.97,-0.57 -1.27,-0.98 -1.09,-1.22 -0.72,-1.07 -0.65,-1.37 -0.43,-1.42 -0.25,-1.49 -0.07,-1.6 0.26,-1.56 1.23,-2.82 0.38,-1.47 -0.1,-1.83 -0.65,-0.98 -1.04,-0.38 -1.26,-0.07 -0.76,0.48 -1.03,0.87 -1.01,0.42 -0.72,-0.83 0.23,-0.01 0.48,0.03 0.22,-0.02 v -0.47 l -1.16,-0.5 -1.62,-0.27 -3.03,-0.16 -5.91,-0.93 -3.35,-0.11 -1.62,-0.3 -2.59,-1.46 -1.53,-0.31 -1.59,0.04 -1.46,0.27 -4.35,1.97 -1.48,0.28 -0.36,-0.18 -0.98,-0.84 -0.71,-0.29 -0.78,0.02 -1.45,0.38 -0.6,0.02 -1.09,-0.6 -0.87,-0.95 -0.98,-0.86 -1.48,-0.38 -1.5,0.14 -1.15,0.53 -0.72,1.02 -0.13,1.61 -1.18,-0.99 -0.2,-1.57 v -1.68 l -0.52,-1.35 -1.21,-0.54 -1.41,0.26 -1.14,0.92 -0.94,2.94 -1.08,1.33 -2.18,2.07 -0.86,1.3 -0.24,1.08 0.17,2.98 -0.15,1.43 -1.25,4.47 -1.28,2.07 -1.95,1.28 -4.72,2.24 -2.3,1.46 -1.01,0.95 -0.42,1.08 -0.31,1.43 -0.79,1.63 -1.06,1.44 -1.1,0.9 0.14,-0.69 0.15,-0.36 0.14,0.12 -0.1,-2.71 0.87,-2.35 1.42,-1.94 2.27,-2.03 2.05,-1.46 0.74,-0.3 1.18,-0.2 1.35,-0.47 1.22,-0.6 0.72,-0.56 0.26,-1.1 v -3.16 l 0.93,-2.28 0.23,-1.73 -0.06,-2.98 -1.34,-2.6 -2.29,0.06 -4.76,2.07 1.17,-1 2.31,-1.56 0.97,-0.91 0.91,-0.37 2.87,-0.09 1.13,-0.22 0.92,-0.73 4.86,-5.72 2.15,-3.22 1.12,-2.37 0.45,-2.66 -0.58,-3.11 -1.64,-2.88 -2.43,-2.01 -2.86,-0.72 -2.96,0.94 -1.28,1.22 -0.32,0.19 -0.4,0.14 -0.21,0.32 -0.15,0.32 -0.19,0.15 -0.41,-0.08 -0.2,-0.16 -0.14,-0.15 -0.2,-0.08 -0.96,-0.52 -0.23,-1.26 -0.04,-1.55 -0.36,-1.37 -0.82,0.79 -1.5,1.96 -0.98,0.55 -1.18,0.07 -0.1,-0.46 0.5,-0.66 0.55,-0.57 0.78,-1.13 1.05,-1.98 0.5,-1.88 -0.92,-0.83 -1.21,-0.71 -1.3,-1.48 -1.52,-1.33 -1.84,-0.25 -0.69,0.91 -0.94,3.49 -1.12,1.18 -0.7,-1.74 -0.19,-0.91 -0.04,-1.06 0.38,-1.46 1.59,-2.63 0.35,-0.83 1.09,-1.77 0.27,-0.77 0.01,-0.78 -0.28,-1.38 -0.13,-0.43 -0.97,-3.12 -2.6,-4.95 -1.12,-2.88 -0.57,-2.9 0.11,-10.36 -0.46,-4.3 -0.29,-0.78 -2.05,-2.23 -0.29,-0.64 -0.64,-2.16 -0.26,-2.69 0.88,-4.3 -1.95,-5.97 -0.32,-0.62 -3.92,0.13 -3.88,1.16 -0.62,0.36 -2.81,1.19 -1.57,-0.35 -4.26,-2.49 -1.3,-0.18 -3.48,-0.1 -1.1,-0.4 -1.26,-0.92 -4.53,-2.13 -0.92,0.34 -2.86,0.59 -1.49,0.59 -1.52,0.99 -1.17,1.3 -0.7,2.77 -0.55,-0.71 -1.08,-2.61 -0.74,-1.05 -0.96,-0.72 -1.22,-0.41 -1.52,-0.15 -1,-0.34 -1.52,-1.74 -0.96,-0.75 -2.62,-0.42 -0.38,-0.3 -0.28,-0.66 -0.42,-0.65 -1.49,-0.53 -0.54,-0.55 -0.44,-0.62 -0.43,-0.46 -0.1,-0.17 -0.21,-0.55 -0.11,-0.17 -0.33,-0.06 -0.81,0.13 -0.3,-0.07 -0.83,-0.92 -1.02,-2.1 -0.71,-0.98 -1.35,-0.75 h -1.5 l -3.01,0.52 0.43,-0.9 1.18,-1.12 0.25,-1.03 -0.37,-0.69 -0.85,-0.52 -0.81,-0.27 -0.18,-0.06 -2.47,-0.44 -1.63,-0.82 -1.33,-1.05 -0.75,-1.06 1.63,-0.18 1.12,-0.84 0.21,-1.02 -1.09,-0.75 v -0.47 l 1.41,-1.09 1.02,-1.85 0.53,-2.02 -0.12,-1.6 -0.55,-0.75 -1.48,-1.23 -0.3,-0.58 -0.51,-4.43 1.18,2.8 0.78,1.3 1.11,0.56 6.67,-1.23 2.14,-0.67 1.78,-0.99 1.28,-1.3 0.44,-1.33 -0.54,-0.83 -2.59,-1.68 -1.5,-0.19 -0.72,-0.4 -0.58,-0.53 -0.6,-0.34 -0.66,-0.21 -0.74,-0.12 -3.59,0.09 -0.79,0.17 -1.18,0.48 -1.45,-0.29 -2.31,-0.91 v -0.47 l 4.37,-0.7 1.86,-0.8 0.76,-1.55 0.6,-1.79 2.58,-2.42 0.55,-1.58 -0.91,-1.29 -2.05,0.47 -2.35,1.13 -1.89,0.62 -1.12,0.2 -2.1,0.9 -1.18,0.25 -1.09,-0.07 -2.01,-0.35 -1.13,-0.01 2.11,-1.36 7.71,-1.42 1.94,-1 1.62,-1.3 1.11,-1.61 0.41,-1.95 0.36,-0.85 0.93,-0.27 2.47,-0.05 0.96,-0.2 1.2,-0.43 0.77,-0.64 -0.61,-1.43 0.14,-0.72 0.27,-0.71 0.11,-0.57 -0.34,-0.48 -0.51,-0.04 -0.44,-0.13 -0.15,-0.75 0.27,-0.39 0.57,-0.31 0.62,-0.2 0.4,-0.02 0.6,0.42 0.75,1.36 0.55,0.54 0.63,0.25 0.49,-0.03 0.57,-0.14 0.88,-0.08 0.46,-0.29 -0.04,-1.28 0.51,-0.29 5.82,-0.46 1.49,0.16 0.9,-0.04 0.69,-0.36 0.65,-1.07 0.19,-0.71 -0.39,-0.31 -0.53,-0.76 -2.76,-13.97 -1.13,-2.58 -0.89,-1.1 -1.31,-1.23 -1.43,-0.99 -1.73,-0.6 -0.62,-0.38 -0.72,-0.34 -0.75,-0.02 -0.63,0.4 -0.51,0.65 -0.76,1.32 -1.28,-4.48 -3.18,-3.96 -4.09,-3.25 -4.07,-2.32 -2.14,-0.93 -1.89,-0.43 -1.8,0.31 -1.89,1.26 -1.91,1 -3.85,0.69 -1.51,1.31 -1.37,2.92 -1.03,1.26 -1.55,0.53 -1.43,0.15 -1.62,0.42 -1.56,0.6 -1.25,0.69 -3.41,3.29 -1.03,0.43 -1.34,0.36 -4.78,3.09 -1.15,0.43 -4.62,0.53 -3.73,1.69 -1.49,0.15 -3.14,-0.37 -1.21,0.45 -0.69,0.43 -1.59,0.66 -0.77,0.54 -0.35,0.41 -0.61,0.95 -0.48,0.55 -2.32,1.03 -2.19,-0.73 -1.91,-1.59 -1.5,-1.6 -0.63,-0.88 -0.4,-0.37 -0.59,-0.14 -1.54,-0.01 -0.67,-0.19 -0.63,-0.48 0.47,-0.19 1.55,0.11 1.76,0.33 1.15,0.43 2.31,2.5 1.25,0.91 1.84,0.36 0.68,-0.35 1.37,-2.45 0.54,-0.5 0.53,-0.33 1.25,-0.57 4.75,-1.02 1.15,-0.6 0.94,-0.77 7.86,-3.96 2.56,-0.57 1.51,-0.9 2.74,-2.03 5.17,-2.29 2.56,-1.47 1.2,-1.84 -0.59,-3.16 -1.87,-2.91 -6.99,-8.02 -2.43,-2.17 -2.8,-1.27 -6.53,-0.31 -7.78,-1.33 -1.31,0.15 -2.16,0.68 -1.46,0.15 -2.93,-0.14 -1.35,-0.29 -1.54,-0.55 -3.12,-1.62 -2.64,-2.06 -7.1,-7.7 -5.52,-4.42 -2.15,-2.86 -0.98,-2.86 -0.07,-2.61 0.54,-5.28 -0.26,-1.22 -0.68,-1.21 -0.97,-0.93 -1.11,-0.37 -0.65,-0.78 -0.02,-1.73 0.44,-2.61 -0.69,-3.16 -1.71,-1.96 -6.59,-3.5 -16.57,-14.08 -2,-1.17 -2.56,-0.66 -2.6,0.11 -5.59,1.01 -1.65,-0.08 -2.57,-1.02 -2.4,-0.53 -4.6,-2.09 -2.03,-1.85 -1.34,-2.51 -1.79,-5.92 -1.68,-3.85 -0.23,-1.53 0.25,-2.89 -0.08,-1.42 -0.59,-1.53 -1.17,-1.5 -8.06,-6.71 -7.8,-5.1 -0.75,-1.46 0.15,-2.68 -0.57,-0.75 -9.71,-0.55 -1.5,0.09 -3.05,1.19 -1.94,2.11 -0.87,2.79 0.22,3.21 1.38,3.13 4.23,5.43 1.38,3.13 0.69,3.12 0.56,1.49 0.89,1.25 0.76,1.48 -0.15,1.46 -0.28,1.33 z"
         id="path2" />
    </g>
  </g>
</svg>
