<?xml version="1.0" encoding="UTF-8" standalone="no"?>
<svg
   xmlns:dc="http://purl.org/dc/elements/1.1/"
   xmlns:cc="http://creativecommons.org/ns#"
   xmlns:rdf="http://www.w3.org/1999/02/22-rdf-syntax-ns#"
   xmlns:svg="http://www.w3.org/2000/svg"
   xmlns="http://www.w3.org/2000/svg"
   xmlns:sodipodi="http://sodipodi.sourceforge.net/DTD/sodipodi-0.dtd"
   xmlns:inkscape="http://www.inkscape.org/namespaces/inkscape"
   version="1.0"
   width="1360"
   height="1360"
   viewBox="0 0 1020 1020"
   preserveAspectRatio="xMidYMid meet"
   id="svg74"
   sodipodi:docname="Tasmania.svg"
   inkscape:version="1.0.1 (3bc2e813f5, 2020-09-07)">
  <defs
     id="defs78" />
  <sodipodi:namedview
     pagecolor="#ffffff"
     bordercolor="#666666"
     borderopacity="1"
     objecttolerance="10"
     gridtolerance="10"
     guidetolerance="10"
     inkscape:pageopacity="0"
     inkscape:pageshadow="2"
     inkscape:window-width="1920"
     inkscape:window-height="974"
     id="namedview76"
     showgrid="false"
     inkscape:zoom="0.35872474"
     inkscape:cx="126.55538"
     inkscape:cy="422.07579"
     inkscape:window-x="-11"
     inkscape:window-y="-11"
     inkscape:window-maximized="1"
     inkscape:current-layer="g72"
     inkscape:document-rotation="0"
     scale-x="0.75"
     units="px" />
  <metadata
     id="metadata2">
Created by potrace 1.10, written by Peter Selinger 2001-2011
<rdf:RDF>
  <cc:Work
     rdf:about="">
    <dc:format>image/svg+xml</dc:format>
    <dc:type
       rdf:resource="http://purl.org/dc/dcmitype/StillImage" />
    <dc:title></dc:title>
  </cc:Work>
</rdf:RDF>
</metadata>
  <g
     transform="matrix(0.1,0,0,-0.1,0,1024)"
     fill="#000000"
     stroke="none"
     id="g72">
    <path
       d="m 8907.4895,1469.1902 -6.958,35.9495 -18.296,28.8627 -27.832,29.507 6.442,39.5573 15.978,21.1316 17.781,14.0448 12.885,19.07 12.37,61.0755 -9.921,35.4341 -33.115,16.7506 -56.437,4.5098 31.311,56.6946 5.154,23.7086 -2.448,39.5573 -10.695,30.2801 -59.4,86.8457 39.299,43.1652 -3.221,171.3721 25.384,78.3416 34.145,23.4509 32.986,11.7255 22.936,26.028 4.509,66.8737 -8.89,17.2661 -17.138,13.4005 -17.266,10.6947 -8.375,7.4734 2.964,30.1512 12.885,26.0279 13.658,21.0028 4.896,16.7506 -12.498,28.2185 -32.084,25.3837 -6.958,29.378 -2.062,28.4762 -6.7,17.7814 -13.529,10.0504 -20.23,3.0925 -27.703,-10.0504 -24.74,-13.6583 -18.039,6.7003 -6.958,50.252 -39.686,66.4872 -69.58,-40.8458 -28.862,-73.7029 84.784,-31.8263 v -25.6414 l -40.717,-16.4929 -53.602,1.4173 -48.706,15.0756 -28.218,25.6414 -6.572,50.8963 15.076,49.0923 42.65,87.3611 19.456,-11.9831 11.597,-3.9944 9.406,9.535 12.756,29.8935 -19.714,49.8654 0.644,78.9858 20.616,72.6721 40.588,32.3417 37.625,15.0756 49.092,38.7842 33.115,53.0867 -9.019,58.885 14.56,38.14 5.154,43.4229 -0.773,93.4171 -5.026,8.8907 -10.565,12.2409 -11.468,16.7507 -7.345,20.6162 -2.448,22.1624 2.448,60.0447 -16.364,66.7449 -121.12,156.4254 31.826,8.3754 23.322,16.3641 12.886,27.703 -1.16,42.5209 31.697,-26.4145 37.625,-77.6973 26.157,-16.6218 31.182,14.9467 38.397,65.843 35.048,14.6891 28.089,36.0783 12.628,84.1399 1.288,156.6831 -21.131,162.7391 5.154,98.0558 63.395,66.745 1.159,50.8962 -21.26,49.2212 -44.583,18.2969 -27.445,-16.6218 -45.227,-61.9775 -30.022,-14.3025 49.092,70.4817 72.415,139.8036 14.818,46.1287 -7.989,20.2297 39.428,11.5966 9.664,29.5069 0.644,38.3977 10.566,38.14 89.423,89.5516 13.529,39.1708 -2.319,159.6467 9.02,78.3415 26.285,52.3136 66.487,29.8935 245.462,-6.7002 -123.311,32.5993 -32.599,13.7871 -20.23,13.7871 -14.173,14.0448 -25.126,32.2128 -3.093,22.0335 21.519,14.9468 27.058,10.1792 14.045,8.2465 -6.314,57.0811 -14.56,54.5041 0.644,45.0979 38.913,30.2801 32.858,-10.9524 27.058,-25.8991 18.684,1.1597 7.087,71.7701 -34.404,68.0335 -4.638,41.2324 38.397,18.6834 15.334,-22.2912 6.829,-48.0616 15.333,-48.448 78.599,-47.1596 -1.804,-55.7926 -24.61,-55.1483 -28.863,-25.3837 -36.851,-10.437 -40.46,-23.7086 -68.549,-60.5601 161.193,-54.6329 44.583,-35.8207 76.538,-92.644 45.226,-21.5182 68.807,0.5154 -15.333,-51.7982 -33.631,-30.6666 -71.125,-39.6861 24.352,-18.5546 28.219,-29.7647 23.322,-31.182 9.793,-23.5797 -7.989,-39.6862 -17.782,-32.084 -17.781,-24.8683 -7.989,-19.07 -12.241,-19.5854 -51.669,-33.759 -6.314,-29.2492 16.751,-20.4874 86.33,-27.5741 5.799,-15.591 24.61,-34.2745 26.93,-16.8795 12.885,34.9187 10.437,17.3949 47.546,54.1176 10.566,19.9719 25.384,123.826 -9.02,67.3893 -112.487,48.5769 8.633,45.2268 68.678,99.3443 24.61,28.2184 18.813,12.112 -0.387,18.168 -162.095,202.4254 2.448,165.8315 33.115,178.8456 33.759,111.0697 -20.616,15.4622 -5.798,14.8179 -1.547,17.9103 -7.859,23.0644 -59.272,75.6357 -7.989,29.1203 -4.896,28.4762 -26.028,83.4956 -12.628,26.4145 -19.07,75.2491 33.759,68.8066 50.897,57.3388 29.507,41.4901 -50.897,206.4197 7.345,60.0447 32.47,64.039 22.807,76.4088 9.793,78.2127 -5.798,68.4201 -11.855,37.238 -67.131,130.3974 -0.387,27.0588 7.345,27.9607 4.767,43.1652 -5.154,81.434 -9.664,55.6637 -1.417,53.2156 129.753,428.4304 58.112,104.1118 -52.571,-2.4482 -189.283,-182.3245 -9.664,69.322 44.841,59.0139 111.714,89.9381 12.885,43.2941 -13.272,44.0671 -86.073,111.5852 -11.338,21.2604 -13.014,43.4229 -8.633,70.2239 v 99.9886 l 14.689,89.1651 36.078,39.0419 3.608,23.4509 39.944,135.6804 -10.437,26.5433 -19.586,19.5854 -26.285,13.014 -29.378,9.2773 16.879,30.6666 34.275,37.6246 40.717,32.3416 36.722,13.2717 19.972,28.7338 -14.431,65.0699 -27.832,70.2239 -68.549,128.3359 -196.24,273.68 -25.9,12.3698 -84.139,-6.4426 -54.633,13.5294 -31.955,33.5013 -42.908,91.3555 -50.381,67.2604 -32.857,30.9243 -29.12,12.8851 -43.81,-19.7142 -23.064,0.2577 -17.008,58.1119 -16.751,18.0392 -22.807,10.0504 -58.627,3.7367 -14.947,4.3809 -17.008,15.9776 -37.625,-24.0952 -27.703,-24.6106 -16.493,-37.4957 -13.529,-109.7813 -35.563,-82.7225 -7.86,-28.605 -32.342,-78.7281 -76.537,-70.0951 -91.227,-49.7366 -74.476,-15.7198 -53.216,30.0223 -56.823,54.8907 -56.308,37.6245 -91.871,-35.6918 -42.521,44.7114 -41.361,60.5601 -37.238,32.7282 -46.258,-8.8907 -133.618,-60.9467 -27.575,-31.0531 -12.756,-51.9271 -153.462,-266.9797 -89.809,-113.0026 -100.117,-74.6049 -91.614,16.7507 -20.1,31.5686 -6.572,29.5069 -12.241,21.3893 -68.9351,11.3389 -18.4258,11.4678 -9.1484,24.0951 -2.0616,40.8459 -27.4454,33.6302 -118.4143,-49.8655 -24.3528,52.5713 -190.571,-161.7083 -98.4424,-55.406 -333.7247,55.6637 -13.2717,9.4062 -7.6022,29.3781 -14.9468,7.2156 -16.3641,-2.0616 -11.4678,-6.8291 -10.0503,-8.1176 -35.563,-15.4622 -20.8739,-13.014 -18.5546,-15.7198 -15.8487,-18.4257 -101.2771,-61.0755 -128.4647,-26.2857 -110.0389,-45.2268 -46.2576,-118.9297 12.2408,-81.434 34.7899,-53.4732 51.927,-28.2185 123.5684,-22.2912 36.4649,-31.0532 29.5069,-37.4957 38.9131,-32.084 -31.9551,-14.5602 -26.1568,8.8908 -24.9972,17.1372 -28.7338,9.2773 -35.1764,0.5154 -23.7086,-2.7059 -22.0336,-13.6582 -31.9551,-29.8935 -42.0055,21.7759 -47.2884,3.8655 -41.6189,14.0448 -23.8375,53.8598 34.7898,28.2184 -10.5658,65.1988 -31.182,69.5796 -27.3165,42.2632 -20.8739,15.4622 -28.4761,15.591 -29.5069,11.3389 -23.9664,2.7059 -33.8878,-10.0504 -40.2016,-37.4957 -30.2801,-18.1681 -32.2128,-7.6022 -57.983,-1.8039 -30.0224,-16.1064 -15.591,-21.1316 -31.6974,-64.1679 -23.1932,-28.2185 -89.8093,-67.6469 -21.5182,-46.5153 44.196,-47.8038 -36.3361,-15.7198 -34.0167,11.3389 -24.0952,28.3473 -10.3081,34.5321 -8.1176,66.8738 -22.1624,17.0084 -137.8709,-61.3332 -170.599,-50.252 -175.882,-5.7983 -350.4754,41.8766 -238.1171,115.7084 -102.3079,21.0028 -25.3837,15.4621 -16.6218,14.6891 -52.1848,35.0475 -62.6217,23.5798 -95.7364,75.378 -58.3697,21.7759 -51.6693,-8.3754 -24.224,8.1177 -10.0504,35.8206 -14.0448,22.549 -32.3417,10.0504 -125.5011,5.6694 -56.4369,10.8235 -51.5405,21.1316 -46.6441,33.1148 -74.7337,78.0839 -44.3249,60.6889 -19.7142,54.2464 -17.1372,66.6161 -44.4537,28.7338 -227.9379,26.2857 -122.7952,43.5517 -96.5096,81.1763 -24.6106,130.5263 -132.9745,-63.6525 -70.3528,-10.0504 -94.9633,58.7561 -42.3921,10.5658 -81.6917,4.381 -34.661,7.4734 -24.6106,18.168 -35.1764,40.5881 -99.8597,67.7758 -21.647,27.0587 -7.9888,41.3613 8.7619,35.4341 18.8123,24.8683 75.5068,38.3977 -31.9551,60.4312 -65.1987,56.1791 -47.675,13.2717 23.0644,-48.7058 11.2101,-73.7029 -6.056,-75.1203 -28.2185,-53.7309 -59.1427,-20.2297 -234.3804,20.2297 31.9551,-53.2156 -22.6778,-34.661 -46.2576,-10.8235 -59.4004,30.5378 -26.5434,7.3445 -23.3221,9.6638 -42.7786,75.7646 -79.2435,37.238 -32.2128,21.1316 -36.0784,42.6497 -37.6245,30.0224 -42.1344,0.7731 -92.5152,-18.6834 -91.4844,17.9103 -166.73346,77.6973 -86.8458,17.9103 -17.1372,-8.3753 -19.07,-17.6526 -17.7814,-12.6275 -15.4622,3.7367 -8.5042,19.972 -9.5349,58.3696 -6.3138,24.482 -54.1175,79.63 -25.5125,47.546 -9.0196,55.793 -57.3388,-66.101 -23.451,-70.095 v -76.667 l 49.0924,-351.7637 -1.2885,-94.5768 -11.2101,-107.7196 -17.1372,-51.6694 -30.7955,-21.9047 -45.7422,-5.4118 -25.3837,-15.7198 -39.6861,-72.0279 -41.7478,-11.8543 -16.8796,-15.2044 13.916,-29.7647 44.7114,-68.2911 -6.1849,-50.3809 -17.1372,-38.0111 -27.703,-25.5125 -36.5938,-10.8235 127.4339,-174.0781 47.2884,-106.6888 -20.2296,-133.3611 43.9382,-60.56 16.3641,-97.5404 -4.5098,-103.8541 -19.5853,-80.0167 47.0307,-64.6833 168.4086,-311.5623 34.6609,-99.2155 1.9328,-88.3919 -63.5237,-30.2801 -3.0924,-12.7563 -0.6442,-11.4677 -3.0925,-10.9524 -10.1792,-10.5658 39.6862,-54.3752 27.8318,-27.5742 26.1568,-11.7254 18.4258,-14.4314 41.1035,-100.2463 139.93246,-229.2263 120.347,-358.7219 -4.6386,-94.1903 4.6386,-31.5685 14.8179,-47.9327 14.6891,-20.8739 20.8739,-3.479 34.9187,1.2885 28.8626,-14.5602 18.4258,-31.4397 13.7871,-31.3108 49.0923,-47.4173 96.7673,-199.4617 25.7702,-24.7395 22.6778,-13.1428 15.3333,-20.3585 11.339,-88.9073 14.3024,-18.9412 18.5546,-10.1792 203.8427,-194.6943 130.784,-171.6298 112.8737,-253.3216 37.4957,-277.9321 -93.9325,-245.0751 83.4956,-85.0418 19.7142,-10.0504 33.5013,26.5433 -2.8347,34.5322 -14.1736,39.5573 0.6442,40.8458 11.5966,17.1372 31.8263,20.3585 9.4061,8.8908 15.3333,38.6554 0.5155,5.2829 49.2211,43.0363 23.8375,3.2213 31.3109,-18.4258 -10.9524,-56.308 11.8543,-62.364 33.5013,-92.2575 17.2661,-95.0922 14.3025,-12.112 44.5825,-30.4089 40.0728,-70.8682 144.6999,-191.9884 48.0615,-42.5209 16.3642,14.3025 3.0924,31.0532 6.7002,25.3837 27.0588,-1.0308 23.3221,-22.1625 3.7367,-24.8682 -1.6751,-25.2549 9.0196,-22.9355 2.8347,-11.5966 -3.2213,-14.9468 -0.9019,-12.2408 9.9215,-5.0252 8.5042,1.9327 12.8851,5.7983 8.3754,6.7003 -4.5098,6.056 7.4733,16.3641 33.1148,20.7451 28.605,5.5406 -7.9888,-30.9243 -50.1231,-90.3248 -19.8431,-57.5965 -18.4257,-111.714 -25.8991,-5.2829 -68.4201,44.3248 v -245.3327 l -7.6022,-75.8934 -18.168,-10.437 -22.2913,34.9187 -31.6974,122.9241 -18.6834,122.2798 -7.0868,133.8765 -13.7871,40.717 -25.8991,29.3781 -165.8316,137.8708 -69.7085,24.3529 -13.2717,24.8683 -7.4734,29.8935 -10.5658,25.5125 -21.7758,41.2324 -14.4314,13.5294 -33.759,17.1372 -91.4844,21.5182 -32.9859,24.8683 -13.014,58.1119 -13.5293,40.9747 -32.3417,57.4676 -39.2996,51.2828 -33.3725,26.028 2.3193,-57.9831 25.2549,-76.7953 6.8291,-40.9747 v -197.4001 l 14.689,-107.462 25.6414,-113.0025 62.7506,-199.9772 -22.6779,-120.6047 32.3417,-135.6804 61.5909,-118.2855 65.7141,-67.7757 -84.7841,-124.4703 3.3502,-30.6666 72.1567,-9.9216 29.5069,-15.0756 15.3333,-37.238 12.6274,-45.871 18.8123,-42.0055 10.9524,-3.3502 50.8962,3.3502 9.0196,-8.8908 44.9691,-182.8399 14.8179,-18.4257 25.126,-16.493 -5.5406,-36.2072 -32.7283,-63.3948 -9.6638,-10.9523 -6.7003,-14.6891 3.7367,-22.0336 13.4005,-16.4929 38.9131,-15.591 16.3641,-14.5602 13.5294,-23.5798 27.0588,-60.3023 50.8962,-173.8204 49.7366,-124.2126 57.0811,-111.9717 95.0922,-148.6944 23.9664,-13.4005 157.1985,-4.2521 38.2688,-28.4761 91.2267,-182.7111 52.829,-48.1904 29.8935,-17.266 29.3781,-7.0868 24.7394,-12.6275 -6.3137,-27.9607 -17.5238,-27.4453 -10.3081,-12.3697 -10.0504,-75.8934 8.6331,-26.8011 35.8206,-26.1568 26.5434,-5.5406 29.1204,5.0252 27.0587,11.2101 22.0336,12.8851 -7.9888,-50.5097 3.0924,-54.6329 16.6219,-44.0671 30.7954,-17.9104 13.5294,-11.9831 5.4117,-27.8319 1.9328,-31.4397 5.0252,-22.9355 16.8795,-22.549 27.3165,-19.07 70.3528,-69.5797 7.3445,-17.9103 -3.7367,-83.4956 3.7367,-22.6778 65.7141,-167.5066 31.3109,-27.5742 39.6862,-14.0448 93.546,-5.0252 42.2632,18.5546 29.5069,39.9439 6.958,40.4593 -27.1876,18.5545 -91.4844,-14.689 -30.2801,11.2101 10.0504,50.6385 13.4006,14.0448 20.8739,8.3753 22.8066,4.5098 20.2297,1.1597 29.2492,12.112 5.1541,28.3473 -8.6331,51.6693 -2.7058,78.0839 9.9215,17.3949 52.7002,-52.1848 52.0559,-39.9438 11.4677,-15.0756 1.5463,-80.1455 8.2464,-62.364 20.2297,-54.2464 36.8514,-53.3444 37.4957,-42.7786 51.5406,-45.2268 45.7421,-3.7367 19.8431,79.8878 5.0252,34.9187 14.0448,26.4145 21.5182,10.9523 29.5069,-13.2717 3.8656,-19.0699 7.731,-76.5377 4.1233,-21.9047 63.7813,-56.308 47.5461,36.0784 70.6105,151.7867 25.7703,14.0448 28.2184,-20.2296 40.3305,-55.0195 69.0642,-53.9887 16.493,-16.3641 10.9523,-48.0615 10.3081,-89.1651 -0.3865,-86.20148 -19.07,-38.9131 -20.2296,13.014 -38.9131,60.3024 -28.2184,21.3893 -15.2045,6.4426 -23.3221,5.28288 -11.8543,-12.36978 17.3949,-46.6441 -27.5741,7.8599 -10.437,5.0252 -14.8179,13.014 -4.6386,-37.238 15.9775,-65.843 -11.3389,-40.5882 -48.0615,52.9579 -32.9859,65.843 -40.4593,59.65808 -68.9354,36.0784 -230.6438,30.9243 -45.6133,-9.535 56.0503,-81.30518 14.1736,-36.8514 -44.196,11.21 -57.0811,33.7591 -50.7674,14.04478 -21.1316,-45.87108 22.8067,-28.7338 141.7364,-114.0334 59.5293,-112.3583 17.266,-106.9465 -16.6218,-242.1115 138.7728,45.2268 16.493,-4.5098 16.6218,-13.5294 17.1372,-10.8235 18.4257,5.1541 3.479,17.5237 -6.056,60.3024 2.577,18.6834 21.9047,11.8544 86.7169,32.7282 28.8627,2.8347 25.7703,-25.3837 21.5181,-40.717 22.6778,-54.1175 28.8627,25.8991 6.8291,44.5825 1.1597,50.8963 13.4005,43.9382 31.8263,22.0336 40.9747,3.0924 39.0419,-9.2772 25.6414,-15.8488 19.1989,-38.913 7.3445,-42.2632 11.4677,-36.2072 31.9551,-22.0336 34.7899,5.4117 32.8571,26.2857 52.1847,62.6217 48.5769,-53.6021 48.4481,-28.4761 279.4784,-30.2801 61.462,11.3389 61.7198,53.6021 14.4313,-10.6946 36.7226,-12.4986 -20.8739,72.801 -4.8963,77.3107 16.3641,43.1652 43.8094,-30.1512 24.9971,-57.5965 22.9356,-142.1229 22.4201,-58.2408 20.8739,-22.0336 167.8932,-98.8289 44.5825,-73.7029 19.07,-52.3136 25.7702,-18.683397 122.9241,55.663697 55.0195,15.591 54.6329,-6.8291 57.7254,-38.3977 14.689,-28.862697 -4.5098,-21.3893 3.3502,-13.6582 37.6245,-4.7675 23.1933,5.9272 179.2321,96.638397 38.2688,46.6442 -0.2577,59.6581 -40.4593,36.7226 -50.1232,13.014 -30.28,31.0531 19.1988,89.6805 25.3837,-15.2045 35.8207,-6.7002 34.9187,3.6078 24.224,18.2969 14.4313,49.2212 -14.0447,29.2492 -22.8067,23.1932 -11.5966,25.8991 18.4257,64.2968 47.8038,14.689 139.4171,-19.7142 -42.0055,77.8262 -148.9521,41.1035 -50.8962,49.0923 99.602,-5.9271 50.1231,5.9271 40.5882,23.5798 19.4565,31.3109 40.8459,94.5768 25.6414,41.4901 59.9158,63.00828 -0.3866,25.2548 -42.392,29.8935 -42.7786,10.6947 -147.5347,-10.6947 33.3724,49.7366 52.4425,32.084 56.8234,15.2044 47.675,-2.577 16.2352,-12.8851 7.7311,-18.2969 12.8851,-14.3025 30.5378,-1.6751 18.5546,11.7255 28.4761,26.1568 26.5433,31.3108 13.5294,24.7395 -9.6638,57.3388 -36.7226,53.9887 -47.9327,46.6441 -178.5878,136.4535 -28.3473,14.5602 -33.8879,37.6245 -9.6638,84.7842 7.3445,91.9998 18.4257,57.2099 33.2436,39.2996 42.9075,33.6302 36.8515,-8.5042 15.7198,-88.0054 v -142.5094 l 11.0812,-20.2297 59.1428,-49.8654 21.5181,-6.8291 46.6442,33.759 47.0307,58.3696 22.0335,69.5797 15.591,-83.1091 15.591,-35.5629 -2.4481,-26.9299 -37.238,-56.4369 -27.8319,-64.0391 27.4453,-23.5797 104.3695,2.7058 35.563,-10.5658 0.3865,-25.8991 -11.8543,-30.9243 0.7731,-24.7394 23.5798,-19.07 52.9578,-22.1624 19.4566,-17.7815 40.3304,-17.3949 54.2464,21.647 47.8038,42.3921 20.8739,47.8038 1.4174,135.6804 -3.8656,61.462 -24.4817,127.4339 -4.8963,53.8598 7.0868,53.2156 24.7394,51.0251 48.0615,47.1595 42.7786,28.2185 19.07,32.2128 -22.6778,58.885 -73.7029,74.9914 -21.5182,58.2408 43.6806,54.8906 78.4704,-79.5012 52.1848,-40.8459 23.8375,12.6275 -9.4062,153.5907 3.479,66.6161 23.0644,75.1202 50.7674,108.2351 -2.7059,49.4789 -56.6946,97.4115 -42.7786,122.0221 -38.2688,60.5601 -46.1287,56.6946 -13.7871,11.3389 -31.3109,32.084 -20.2296,33.759 32.4705,25.6414 27.0588,14.3025 26.4145,-0.3866 12.2408,-34.7898 137.3555,-248.0387 51.7982,-37.3668 50.5097,-19.5854 38.398,-35.6918 15.333,-82.9802 16.235,-50.3809 40.331,11.8543 50.252,33.7591 47.932,16.4929 -28.218,-127.1761 1.031,-60.689 34.79,-25.3837 8.504,-25.7702 -10.18,-56.1792 -26.801,-56.8234 -39.428,-25.5125 -26.286,30.28 -31.053,56.1792 -34.79,31.0531 -36.594,-47.0307 3.479,-41.8767 24.74,-51.2828 32.084,-45.871 25.384,-25.5125 45.613,26.9299 143.411,45.6133 45.098,34.661 26.415,36.4649 48.448,93.1595 -100.118,201.5233 -41.103,125.1146 2.448,95.4788 28.734,31.3108 45.742,29.2492 131.042,52.7002 25.384,-0.7731 28.218,-16.7507 18.941,-30.4089 6.185,-34.0167 2.448,-31.3108 8.375,-23.451 17.395,-9.535 49.093,-5.0252 19.07,-6.9579 20.874,-25.126 14.173,-26.8011 18.426,-25.126 32.47,-18.6834 77.827,21.2604 25.254,2.1905 23.838,-9.7927 42.907,-28.7338 20.488,-8.1176 155.266,27.703 33.759,-27.703 -3.608,-49.9943 -18.426,-52.5713 5.669,-43.2941 67.518,-20.3585 v -21.647 l -27.445,-19.1988 -15.72,-5.9272 -25.126,1.6751 28.992,-86.3303 35.305,-64.6834 50.639,-36.0783 75.378,-2.577 -55.664,-53.9887 -29.121,-22.4201 -37.238,-17.6526 -5.025,1.675 -44.453,-1.9327 -1.675,0.2577 -16.365,-5.0252 -26.543,-15.0756 -17.266,-3.3502 -76.924,14.8179 -57.21,38.0111 -116.224,111.4564 26.157,59.0138 9.019,38.2689 -0.902,102.9521 -11.596,21.7759 -26.801,10.6946 -56.952,4.1233 -35.95,-10.3081 -3.092,-26.2857 10.05,-30.4089 4.123,-26.9299 v -16.4929 l 5.67,-12.2409 2.834,-16.493 -8.504,-26.9299 -9.019,-6.4426 -32.729,-10.3081 -81.691,-40.3304 -23.322,-24.3529 -9.149,-51.1539 16.493,-67.5181 27.703,-63.7814 24.095,-39.815 42.135,-30.7954 209.512,-82.336 -35.177,-43.1652 -63.781,-40.7169 -32.599,-14.3025 11.725,-98.4424 180.392,-186.5766 51.669,-93.8037 43.294,44.3248 29.507,58.3696 40.46,42.7786 75.378,-3.9943 -25.384,51.1539 -9.277,54.8906 7.602,55.6638 27.059,49.8654 38.397,35.0476 12.885,-22.1625 4.381,-52.1847 13.014,-54.8907 24.353,-38.7842 149.596,-145.3442 35.177,-19.9719 z"
       id="path976"
       style="fill:#000000;fill-opacity:1;stroke:#000000;stroke-width:12.6274" />
  </g>
</svg>
