<?xml version="1.0" encoding="UTF-8" standalone="no"?>
<svg
   xmlns:dc="http://purl.org/dc/elements/1.1/"
   xmlns:cc="http://creativecommons.org/ns#"
   xmlns:rdf="http://www.w3.org/1999/02/22-rdf-syntax-ns#"
   xmlns:svg="http://www.w3.org/2000/svg"
   xmlns="http://www.w3.org/2000/svg"
   xmlns:sodipodi="http://sodipodi.sourceforge.net/DTD/sodipodi-0.dtd"
   xmlns:inkscape="http://www.inkscape.org/namespaces/inkscape"
   version="1.0"
   width="1024.000000pt"
   height="1024.000000pt"
   viewBox="0 0 1024.000000 1024.000000"
   preserveAspectRatio="xMidYMid meet"
   id="svg126"
   sodipodi:docname="Teneriffa.svg"
   inkscape:version="1.0.1 (3bc2e813f5, 2020-09-07)">
  <defs
     id="defs130" />
  <sodipodi:namedview
     pagecolor="#ffffff"
     bordercolor="#666666"
     borderopacity="1"
     objecttolerance="10"
     gridtolerance="10"
     guidetolerance="10"
     inkscape:pageopacity="0"
     inkscape:pageshadow="2"
     inkscape:window-width="1920"
     inkscape:window-height="974"
     id="namedview128"
     showgrid="false"
     inkscape:zoom="0.30205063"
     inkscape:cx="557.47563"
     inkscape:cy="958.17139"
     inkscape:window-x="-11"
     inkscape:window-y="-11"
     inkscape:window-maximized="1"
     inkscape:current-layer="g1103"
     inkscape:document-rotation="0" />
  <metadata
     id="metadata2">
Created by potrace 1.10, written by Peter Selinger 2001-2011
<rdf:RDF>
  <cc:Work
     rdf:about="">
    <dc:format>image/svg+xml</dc:format>
    <dc:type
       rdf:resource="http://purl.org/dc/dcmitype/StillImage" />
  </cc:Work>
</rdf:RDF>
</metadata>
  <g
     stroke="#000000"
     stroke-width="0.98"
     fill="#ffffff"
     id="g1103"
     transform="matrix(1.2902075,0,0,1.2902075,-353.12606,-59.414171)"
     style="fill:#000000;fill-opacity:1">
    <path
       d="m 594.60926,739.56471 v -0.3086 h 1.09247 v -0.3085 h 1.08414 v -0.3086 h 0.55041 v -0.3086 h 0.35026 0.19181 v -0.3085 h 2.46016 v 0.3085 h 0.26687 v 0.3086 h 2.18495 v 0.3086 h 1.09247 v -0.3086 h 0.54208 v -0.3086 h 1.35934 v -0.3085 h 0.81728 v -0.3086 h 0.81726 v -0.3085 h 2.72703 v 0.3085 h 1.09247 v 0.3086 h 0.81728 v -0.3086 h 4.63678 v -0.3085 h 0.2752 v -0.3086 h 0.81727 v -0.3086 h 0.26687 v -0.3085 h 0.2752 v -0.3086 h 0.27521 v -0.3085 h 1.09247 v 0.3085 h 0.26687 v -0.3085 h 0.81728 v -0.3086 h 2.4518 v -0.3086 h 0.27521 v -0.3085 h 0.2752 v 0.3085 h 0.27521 v 0.3086 h 0.54207 v 0.3086 h 0.54206 v 0.3085 h 0.27521 v 0.6171 h 0.2752 v 0.6172 h 3.81117 v -0.3086 h 0.55041 v -0.3086 h 0.26687 v -0.3085 h 0.2752 v -0.3086 h 0.81727 v -0.3085 h 0.2752 v -0.6172 h 0.54207 v -0.3085 h 0.27521 v -0.3086 h 0.54207 v -0.3086 h 1.09247 v -0.3169 h 0.81728 v -0.3002 h 2.45181 v 0.3002 h 1.36769 v 0.3169 h 1.35934 v 0.3086 h 0.27521 v 0.3086 h 0.2752 v 0.6171 h 0.26687 v 0.3086 h 0.27521 v 0.6171 h 0.2752 v 0.3085 h -0.2752 v 0.3086 h 0.2752 v 0.3086 h 0.26686 v 0.3085 h -0.26686 v 2.7771 h 0.26686 v 0.3085 h 0.2752 v 0.2252 0.4003 h 0.2752 v -0.3169 h 0.54208 v 0.3169 h 0.2752 v 0.1418 0.467 h 0.26686 v 0.3169 h 0.2752 v -0.3169 h 0.40031 0.41697 v 0.3169 h 0.20015 2.25168 v -0.3169 h 0.2752 v -0.3086 h 0.27521 v -0.3002 h 0.26685 v -0.3169 h 0.27521 v -0.3086 h 0.2752 v -0.6171 h 0.26687 v -0.3086 h 0.27521 v -0.3085 h 0.2752 v -0.3086 h 0.54206 v -0.3086 h 0.55041 v -0.3085 h 0.26687 v -0.3086 h 0.27521 v -0.3085 h 0.2752 v -0.6172 h 0.26687 v -0.6171 h 0.2752 v -0.3086 h 0.27521 v -0.3085 l 0.26685,-0.075 v -0.5421 h 0.27521 v -0.3086 h 0.2752 v -0.9257 h -0.2752 v -0.9257 h 0.2752 v -0.6171 h -0.2752 v -1.2426 h -0.81727 v -0.3085 h -0.2752 v -1.5345 h -0.54207 v -0.3169 h -0.27521 v -0.6171 h -0.26687 v -0.3419 -1.2009 h -0.2752 v -0.9257 h 0.2752 v -0.9257 h 0.26687 v -0.6171 h 0.27521 v -0.6172 h 0.2752 v -0.6171 h 0.26687 v -0.6171 h 0.2752 v -0.3169 h 0.27521 v -0.3086 h 0.54206 v -0.3085 h 0.81728 v -0.3086 h 3.00222 v -0.3086 h 0.2752 v 0.3086 h 0.54208 v 0.6171 h 0.81728 v 0.3086 h 0.54206 v -0.3086 h 0.2752 v -0.3085 h 0.27521 v -0.6172 h 0.26687 v -0.9256 h -0.26687 v -2.4686 h -0.27521 v -1.2342 h 0.27521 v -0.3169 h -0.27521 v -0.3002 h 0.27521 v -0.9341 h 0.26687 v -0.3085 h 0.2752 v -0.3086 h 0.26686 v -0.6171 h 0.55041 v -0.3086 h 0.2752 v -0.3085 h 0.26687 v -0.3086 h 0.55041 v -0.3085 h 1.09247 v 1.8513 h 0.26687 v 0.3086 h 0.2752 v 0.3085 h 0.54208 v 0.3086 h 0.54206 v -0.3086 h 0.28354 v -0.3085 h 1.90141 v -0.3086 h 0.55041 v -0.3085 h 0.26687 v -0.9257 h 0.27521 v -0.3086 h 0.2752 v -0.3085 h 0.54206 v -0.3086 h 0.81728 v -0.3086 l 0.81728,-0.01 v -0.3002 h 0.15844 0.11678 v -0.3086 h 0.54206 v -0.3085 h 0.2752 v -0.3086 h 0.27521 v -0.6171 h 0.26687 v -0.6171 h -0.26687 v -0.1918 -0.1168 h -0.27521 v -0.3086 h -0.2752 v -0.3085 h -0.26686 v -0.6255 h 0.26686 v -0.6171 h 0.2752 v -0.6172 h 0.27521 v -0.6171 h 0.26687 v -0.6171 h 0.2752 v -0.3086 h 0.27521 v -0.3085 h 0.26685 v -0.3086 h 0.27521 v -0.2168 -0.4003 h 1.09248 v -0.3086 h 1.35934 v -0.3085 h 0.55041 v -0.3086 h 0.54208 v -0.3086 h 0.54206 v -0.3085 h 0.2752 v -0.6172 h 0.27521 v -0.3085 h 0.26687 v -0.6255 h 0.2752 v -0.6171 h 0.27521 v -0.3086 h 0.26685 v -0.3085 h 0.27521 v -0.3086 h 0.2752 v -0.6171 h 0.27521 v -0.6171 h 0.26686 v -0.3086 h 0.54206 v -0.3086 h 0.28356 v -0.3085 h 0.26685 v -0.3086 h 0.27521 v 0.3086 h 1.90975 v -0.3086 h 0.54207 v -0.3086 h 0.54208 v -0.3085 h 0.55041 v -0.3086 h 0.26685 v -0.3085 h 0.55041 v -0.3086 h 0.54208 v -1.5428 h -0.27521 v -1.2426 h 0.27521 v -0.6171 h 0.2752 v -0.6171 h 0.27521 v -1.234 h 0.26685 v -0.6171 h 0.55041 v -1.2426 h 0.26687 v -0.6088 h 0.27521 v -0.6171 h 0.2752 v -0.3169 h 0.26687 v -0.3003 h 0.2752 v -0.6254 h 0.27521 v -0.3086 h 0.26686 v -0.6171 h 0.2752 v -0.6171 h 0.2752 v -0.3086 h 1.90975 v 0.3086 h 2.17662 v -0.3086 h 1.09249 v -0.3086 h 0.27519 v -0.3085 h 0.26687 v -0.3086 h 0.2752 v -0.6171 h 1.35934 v -0.3086 h 2.72703 v -0.3085 h 0.2752 v -0.6172 h 0.26687 v -0.3169 h 0.27521 v -0.9257 h 0.2752 v -0.9256 h 0.27519 v -0.9257 h 0.26687 v -0.9257 h 0.27521 v -0.9257 h 0.2752 v -0.3086 h 0.27521 v 0.3086 h 0.26687 v -0.3086 h 0.2752 v -0.6171 h 0.27521 v -0.934 h -0.27521 v -0.6171 h -0.2752 v -0.3003 h -0.26687 v -0.3169 h -0.27521 v -0.3085 h -0.2752 v -0.3086 h -0.27521 v -1.5428 h 0.27521 v -0.3086 h 0.2752 v -0.3085 h 0.27521 v -0.3086 h 0.26687 v -0.3086 h 0.2752 v -0.3168 h 0.27521 v -0.3003 h 0.26685 v -0.3169 h 0.55041 v -0.3085 h 0.26687 v -0.3086 h 0.27521 v -0.3086 h 0.26685 v -0.3085 h 0.28356 v -0.3086 h 0.54206 v -0.3086 h 1.90975 v -0.3085 h 0.54207 v -0.3086 h 0.27521 v -0.3085 h 0.26686 v -0.3086 h 0.27521 v -0.3086 h 0.54206 v -0.3085 h 0.55041 v -0.3086 h 0.26687 v -0.3085 h 0.2752 v -0.3086 h 0.27521 v -0.3086 h 0.2752 v -0.6171 h 0.26686 v -0.8673 -0.9924 h 0.2752 v -1.8514 h 0.27521 v -0.3085 h 0.26687 v -0.3086 h 1.63454 v -0.3086 h 0.27521 v -0.3085 h 0.54207 v -0.3169 h 0.27521 v -0.3086 h 0.55041 v -0.3086 h 0.26685 v -0.6171 h 0.27521 v -0.3085 h 0.2752 v -0.3086 h 0.26687 v -0.3086 h 0.27521 v -0.3085 h 0.54206 v -0.3086 h 0.2752 v -0.3086 h 0.27521 v -0.3085 h 0.2752 v -0.3086 h 0.26687 v -0.3085 h 0.2752 v -0.3086 h 0.26687 v -0.3086 h 0.27521 v -0.9257 H 718.643 v -2.4768 h 0.27521 v -0.3086 h 0.55039 v -0.3085 h 1.35936 v -0.3086 h 1.09247 v -0.3086 h 0.2752 v -0.3085 h 0.26687 v -0.3086 h 0.27521 v -0.3085 h 0.2752 v -0.6172 h -0.2752 v -0.6254 h 0.2752 v -0.3086 h 0.26686 v -0.3085 h 0.2752 v 0.3085 h 0.26687 v 0.3086 h 1.09249 v -0.3086 h 0.55039 v -0.3085 h 1.09249 v 0.3085 h 0.26687 v 0.3086 h 0.2752 v -0.3086 h 0.54206 v -0.3085 h 0.2752 v -0.6172 h 0.26687 v -0.6171 h 0.27521 v -0.3086 h 0.2752 v -0.3085 h 0.27521 v -0.3086 h 0.26685 v -0.6171 h 0.27521 v -0.3169 h 0.2752 v -0.3086 h -0.2752 v -0.3002 h -0.1251 -0.15012 v -0.3086 h -0.26686 v -0.3169 h -0.2752 v -0.6171 h 0.2752 v -0.3002 h -0.2752 v -0.3169 h -0.55041 v -0.3086 h -0.26687 v -0.3085 h -0.2752 v -0.3086 h -0.26686 v -1.5428 h 0.26686 v -0.3086 h 0.2752 v -0.3085 h 0.26687 v -0.3169 h 0.27521 v -0.3086 h 0.2752 v -0.3086 h 0.2752 v -0.3085 h 0.26686 v -0.6172 h 0.2752 v -0.3085 h 0.54208 v -0.30857 h 0.55041 v -0.30856 h 0.81726 v -0.30856 h 0.27521 v -0.30858 h 0.26687 v -0.30856 h 0.2752 v -0.30856 h 0.27521 v -0.30856 h 0.26687 v -0.30856 h 0.81726 v -0.31691 h 0.27521 v -0.30856 h 0.54207 v -0.30856 h 0.27521 v -0.30856 h 0.2752 v -0.30856 h 0.54206 v -0.30857 h 0.55041 v -0.30856 h 1.35936 v -0.30856 h 0.55039 v -0.30856 h 0.54208 v -0.30856 h 0.26686 v -0.61713 h 0.27521 v -0.30856 h 0.2752 v -0.30856 h 0.26686 v -0.3169 h 0.2752 v -0.30022 h 0.27521 v -0.31691 h 0.54207 v -0.30856 h 0.27521 v -0.3586 -0.25852 h 0.54206 v -0.30856 h 0.2752 v -0.61714 h 0.27521 v -2.77705 h 0.26687 v -0.25854 -0.98405 h -0.26687 v -0.61714 h 0.26687 v -0.30856 h 0.2752 v -0.30856 h 0.27521 v -0.30855 h 1.35934 v -0.30856 h 0.82561 v 0.92567 h 0.26687 v 0.30856 h 0.54206 v -0.30856 h 0.27521 v -0.30856 h 0.2752 v -0.30855 h 0.26687 v 0.30855 h 1.36768 v -0.30855 h 0.3586 0.18347 v -0.30856 h 0.2752 v -1.85973 h -0.2752 v -0.61712 h -0.26687 v -0.30856 h -0.11678 -0.15845 v -1.23425 h 0.2752 v -1.54282 h 0.26687 v -0.62545 h 0.81728 v -0.30856 h 0.27519 v -0.61714 h 0.27521 v -0.30856 h 0.26687 v -0.61712 h 0.2752 v -0.30856 h 0.27521 v -0.30856 h 0.26686 v -0.30857 h 0.55041 v -0.30856 h 0.27521 v -0.30856 h 0.54206 v 0.30856 h 0.54207 v 0.30856 h 0.55041 v 0.30857 h 0.26686 v 0.30856 h 0.81728 v 0.30856 h 0.2752 v 0.61712 h 0.27521 v 0.30856 h 0.26687 v 0.61714 h 0.2752 v 0.30856 h 0.27519 v 0.31689 h 1.09249 v -0.31689 h 0.26687 v -0.61712 h 0.2752 v -0.61714 h 0.27521 v -0.61712 h 0.81726 v -0.30856 h 0.43366 0.10846 v -0.15845 -0.15011 h 0.11678 0.15845 v -0.30857 h 0.27521 v -0.30856 h 0.26685 v -0.34191 -0.59212 h 0.43366 0.10846 v -0.1501 -0.15846 h 0.11678 0.15845 v -0.30856 h 0.55041 v -0.30856 h 0.26687 v -0.30856 h 0.27519 v -0.30856 h 0.54208 v -0.30857 h 0.2752 v -0.30856 h 0.27521 v -0.61712 h 0.2752 v -0.30856 h 0.26687 v -0.30856 h 0.27521 v -0.30858 h 0.26685 v -1.55115 h 0.27521 v -0.30856 h 0.2752 v -0.61712 h 0.54208 v -0.30856 h 0.2752 v -1.54281 h -0.54207 l -0.009,-0.31691 h -0.81728 v -0.30856 h -0.26686 v -0.30856 h -0.2752 v -0.30856 h -1.35935 v -0.30856 h -0.27521 v -0.30857 h -0.81726 v -0.30856 h -0.55041 v 0.30856 h -2.45183 v -0.61712 h -0.26685 v -0.30856 h -0.27521 v -0.30856 h -0.2752 v -0.30716 h -0.26687 v -0.30858 h -0.27521 v -0.93401 h -0.26687 v -1.23426 h -0.28354 v -0.61712 h 0.28354 v -0.62547 h 0.26687 v -0.30022 h 0.27521 v -0.30856 h 0.26687 v -0.31691 h 0.2752 v -0.61712 h 0.27521 v -1.54281 h 0.26685 v -0.61712 h 0.27521 v -0.61712 h 0.2752 v -0.30858 h 0.27521 v -0.30856 h 0.26687 v -0.72553 -0.2085 h -0.26687 v -0.92568 h 0.26687 v -0.30856 h 0.2752 v -0.30856 h 0.54206 v -0.30857 h 0.54208 v 0.30857 h 0.82561 v 0.30856 h 1.08413 v -0.30856 h 0.47535 1.4344 v -0.30857 h 0.27521 v -0.30856 h 0.26687 l 0.009,-1.24259 h 0.26687 v -1.85138 h -0.26687 l -0.009,-2.16826 h -0.54208 v -0.30856 h -0.2752 v -0.30856 h -0.54206 v -0.30858 h -0.26687 v -0.30856 h -0.27521 v -0.30856 h -0.2752 V 579.179 h -0.27521 v -0.30856 h -0.26686 v -0.30857 h -0.27521 v -0.30856 h -0.27519 v -0.3169 h -0.26687 v -0.30022 h -0.2752 v -0.3169 h -0.27521 v -0.30857 h 0.27521 v -0.61712 h 0.2752 v -0.61712 h 0.26687 v -0.61714 h 0.27519 v -1.24259 h 0.27521 v -0.61712 h 0.26686 v -2.46849 h 0.27521 v -0.93403 h 0.55041 v -0.30856 h 0.54207 v 0.30856 h 0.26686 v -0.30856 h 0.2752 v -0.30022 h 0.54208 l 0.009,-0.31691 h 0.26687 v -0.92568 h -0.26687 l -0.009,-0.30856 h -0.26687 v -0.30856 h -0.27521 v -0.30858 h -0.2752 v -0.30856 h -0.26686 v -0.31689 h -0.2752 v -1.85138 h -0.26687 v -0.92569 h -0.27521 v -3.09396 h 0.54208 V 560.315 h 0.2752 v -0.30856 h 0.26686 v -0.30856 h 0.2752 v -0.31691 h 0.27521 v -0.92568 h 0.26687 l 0.009,-0.30856 h 0.26687 v -0.9257 h 0.2752 v -0.2752 l 0.54206,-0.0334 v -0.30856 h 0.27521 v -0.30856 h 0.2752 v -0.31691 h 0.26687 v -0.61705 h 0.2752 v -0.61713 h 0.27521 v -0.30856 h 0.2752 v 0.30856 h 0.26686 v 0.30857 h 0.2752 v -0.30857 h 0.26687 v -1.5428 h 0.55041 v -0.30858 h 0.27521 v -0.30855 h -0.27521 v -0.3169 h -0.2752 v -0.61713 h 0.2752 v -0.30856 h 0.27521 v -2.4685 h -0.27521 v -0.31689 h -0.2752 v -0.30858 h -0.54208 v -0.30856 h -0.2752 v -0.30856 h -0.54206 v -0.61712 h -0.27521 v -0.30856 h -0.2752 v -0.30857 h -0.26687 v -0.62546 h -0.2752 v -2.46851 h 0.2752 v -0.30856 h 0.26687 v -0.93402 h 0.2752 v -0.30856 h 0.27521 v -0.30856 h 0.54206 v -0.30856 h 0.2752 v -0.61712 h 0.26687 v -0.61714 h 0.27521 v -0.61712 h 0.2752 v -0.31691 h 0.27521 v -0.30021 h 0.26687 v -0.93403 h 0.2752 v -0.61713 h 0.54206 v -0.30856 h 0.27521 v -0.93403 h 0.2752 v -0.61712 h 0.26687 v -0.30856 h 0.27521 v -0.61712 h 0.26685 v -0.61714 h 0.28356 v -0.30856 h 0.26685 v -0.30856 h 0.27521 v -0.30856 h 0.2752 v -0.93402 h 0.26687 v -0.30856 h 0.27521 v -0.61714 h 0.2752 v -0.30856 h 0.26687 v -0.61712 h 0.27519 v -0.30856 h 0.27521 v -0.30856 h 0.26687 v -0.31691 h 0.2752 v -0.60878 h 0.27521 v -0.3169 h 0.26687 v -0.30857 h 0.2752 v -0.61712 h 0.27521 v -0.61712 h 0.26685 v -0.31691 -0.30023 h 0.27521 v -0.0917 -0.22516 h 0.15011 0.1251 v -0.17513 -0.44199 h 0.27521 v -0.30856 l 0.26687,-0.0334 v -0.27521 h 0.2752 v -0.1251 -0.49203 h 0.27521 v -0.30856 h 0.26685 v -0.31691 h 0.22518 0.32523 v -0.30856 h 0.27521 v -0.30856 h 0.26687 v -0.30856 h 0.2752 v -0.30856 h 0.26687 v -0.61713 h 0.27519 v -0.61712 h 0.27521 v -0.93403 h 0.26687 v -0.92568 h 0.2752 v -0.9257 h 0.27521 v -0.93403 h 0.2752 v -1.23424 h 0.26687 v -1.54281 h 0.27521 v -1.24259 h 0.2752 v -0.80059 -0.43366 h 0.26686 v -1.24262 h 0.2752 v -1.23424 h 0.27521 v -0.81728 -0.10846 h 0.2752 v -0.30856 h 0.26687 V 507.409 h 0.27521 v -0.30856 h 0.26685 v -0.61712 h 0.27521 v -0.30856 h 0.2752 v -0.61713 h 0.27521 v -0.3169 h 0.26686 v -0.61713 h 0.27521 v -0.30856 h 0.2752 v -0.30856 h 0.26686 v -0.30856 h 0.2752 v -0.30856 h 1.09249 v -0.30856 h 0.26687 v -0.30858 h 0.2752 v -3.11063 -0.60045 h 0.27521 v -0.31689 l 0.2752,-0.0584 v -0.25019 h 0.13342 0.13342 v -0.23351 -0.69218 h 0.27521 v -0.92568 h 0.2752 v -0.62547 h 0.26687 v -0.30856 h 0.27521 v -0.61714 h 0.2752 v -0.30856 h 0.54206 v -0.30855 h 0.27521 v -0.1251 -0.18347 h 0.10013 0.442 v -0.30856 h 0.2752 v -0.30856 h 0.26687 v -1.24259 h 0.27519 v -0.30857 h 0.27521 v -0.30856 h 0.2752 v -0.30856 h 0.26687 v -0.30856 h 0.27521 v -1.11751 -0.1251 h 0.2752 v -0.36693 -0.25019 h 0.13342 0.13342 v -0.23351 -1.00074 h 0.27521 v -0.62547 h 0.2752 v -0.30856 h 0.26686 v -0.92568 h 0.2752 v -0.30858 h 0.27521 v -0.92568 h 0.26687 v -0.62547 h 0.2752 v -0.92567 h 0.27521 v -0.30856 h 0.26685 v -0.30858 h 0.27521 v -0.62545 h 0.2752 v -0.30856 h 0.27521 v -0.30023 h 0.26687 v -0.31691 h 0.55041 v -0.30856 h 0.26685 v -0.30856 h 0.27521 v -0.30856 l 0.2752,-0.0584 v -0.25018 h 0.14174 0.1251 v -0.31691 h 0.27521 v -0.30023 h 0.2752 v -0.30856 h 0.27521 v -0.62545 h 0.26687 v -0.30858 h 0.2752 v -0.30856 h 0.26686 v -0.62545 h 0.2752 v -0.30023 h 0.27521 v -0.30856 h 0.2752 v -0.62547 h 0.26687 v -0.30856 h 0.27521 v -0.30856 h 0.2752 v -0.61713 h 0.26686 v -1.32598 -2.07654 h 0.2752 v -0.93403 h 0.27521 v -0.61712 h 0.26687 v -0.30856 h 0.2752 v -0.30856 h 0.27521 v -0.30858 h 0.26685 v -0.30856 h 0.27521 v -0.31689 h 0.11677 0.15845 v -0.30856 h 0.2752 v -0.30858 h 0.54207 v -0.30856 h 0.26687 v -0.30856 h 0.27521 v -2.47684 h -0.27521 v -0.30856 h 0.27521 v -1.24259 h 0.2752 v -0.30856 h 0.27521 v -0.30022 h 0.26685 v -0.93403 h 0.27521 v -0.30856 h -0.27521 v -0.3169 h -0.54206 v -0.30856 h -0.2752 v -0.30856 h -0.54208 v -3.09396 h 0.26687 v -1.23426 h -0.26687 v -0.30855 -1.85973 h 0.26687 v -0.30856 h 0.27521 v -0.30856 h 0.2752 v -1.24259 h 0.27521 v -0.30856 h 0.26685 v -0.61712 h 0.27521 v -0.30857 h 0.54207 v -0.30856 h 0.27521 v -0.3169 h 0.54206 v -0.30022 h 0.2752 v -0.31691 h 0.55041 v -0.30856 h 0.54207 v -0.30856 h 0.27521 v -0.61712 h 0.26685 v -1.24259 h 0.27521 v -0.30856 h 0.2752 v -0.30857 h 0.26687 v -0.61711 h 0.27521 v -0.30856 h 0.26687 v -0.61712 h 0.28354 v -0.31691 h 0.26687 v -0.30856 h 0.2752 v -0.30856 h 0.54206 v -0.30856 h 0.55041 v -0.30858 h 0.26687 v -0.30856 h 0.27521 v -0.31689 h 0.81726 v -0.30856 h 0.54208 v -0.30856 h 0.2752 v -0.30858 h 0.81727 v -0.30856 h 0.2752 v -0.30856 h 0.26687 v -0.61712 h 0.27521 v -0.62547 h 0.2752 v -0.30856 h 0.27521 v -0.61712 h 0.26687 v -0.61713 h 0.2752 v -0.30856 h 0.2752 v -0.62547 h 0.26686 v -0.30021 h 0.55041 v -0.31691 h 0.54207 v -0.30856 h 0.27521 v -0.30856 h 0.54206 v -0.30856 h 0.54207 v -0.30857 h 1.09247 v -0.3169 h 0.82562 v -0.30844 h 0.54207 v -0.30023 h 0.26687 v -0.31691 h 0.27521 v -0.30856 h 0.2752 v -0.61712 h 0.27521 v -0.30856 h 0.26685 v -0.31691 h 0.27521 v -0.30856 h 0.26687 l 0.009,-0.30022 h 0.26687 v -0.3169 h 0.2752 v -0.61713 h 0.27521 v -0.30856 h 0.26685 v -0.62546 h 0.27521 v -1.23425 h 0.2752 v -1.55115 h 0.26687 v -1.23425 h -0.26687 v -0.30856 h 0.26687 v -0.62547 h 0.27521 v -0.92568 h 0.2752 v -0.61712 h 0.26686 v -0.93403 h 0.1668 0.10846 v -0.9257 h 0.2752 v -1.85971 h -0.1501 -0.1251 v -1.24259 h 0.2752 v -0.55041 -1.60952 h -0.2752 v -1.77633 -0.70051 h 0.2752 v -0.3169 h -0.2752 v -0.92569 h -0.27521 v -0.30856 h -0.26685 v -0.61712 h -0.27521 v -0.30858 h -0.2752 v -0.31689 h -0.15012 -0.11678 v -0.30856 h -0.2752 l -0.0417,-0.77558 -0.009,-0.15012 h -0.22517 v -0.61712 h -0.26685 v -0.61712 h -0.27521 v -0.62547 h -0.2752 v -0.30856 h -0.26687 l -0.009,-0.92569 h -0.26687 v -1.351 -2.36842 h 0.26687 l 0.009,-0.61713 h 0.26687 v -1.85971 h 0.2752 v -1.24259 h -0.2752 v -0.92568 h -0.54208 v -0.61714 h -0.2752 v -0.62545 h -0.26686 v -0.61713 h -0.2752 v -0.30856 h -0.27521 v -0.20015 -0.41697 h -0.2752 v -0.62547 h -0.26687 v -0.61712 h -0.27532 v -1.24259 h -0.26687 v -0.61712 h -0.27521 v -1.23426 h -0.2752 v -0.93403 h -0.27521 v -0.61712 H 822.787 v -1.23425 h -0.27521 v -1.55115 h -0.2752 v -1.85971 h -0.27521 v -0.93403 h -0.26687 v -0.30856 h -0.2752 v -1.85972 h -0.2752 v -0.30856 h -0.26686 v -0.92568 h -0.27521 v -3.13567 -3.67773 h 0.27521 v -0.62547 h 0.26686 v -0.30021 h 0.2752 v -0.62547 h 0.2752 v -0.30856 h 0.26687 v -0.62547 h 0.27521 v -0.30856 h 0.2752 v -0.30856 h 0.27521 v -0.61713 h 0.26685 v -0.30856 h 0.27521 v -0.62546 h 0.2752 v -0.30857 h 0.27521 v -0.30856 h 0.26687 v -0.30856 h 0.2752 v -0.30856 h 0.26687 v -0.62547 h 0.27521 v -0.30856 h 0.2752 v -0.61712 h 0.27521 v -0.92569 h 0.26685 v -2.16827 h 0.27521 v -0.31691 h 0.26687 l 0.009,-0.92568 h 0.26687 v -0.61712 h 0.2752 v -0.21683 -0.40864 h 0.27521 v -0.30856 h 0.26685 v -0.30856 h 0.81728 v -7.12196 h -0.10846 -0.15845 v -1.55115 h 0.26687 v -0.93403 h 1.09247 v -0.30856 h 0.2752 v -0.30856 h 0.27521 v -0.61713 H 829.601 v -0.30856 h -0.2752 v -0.62547 h 0.2752 v -1.5428 h 0.54208 v -0.30857 h 1.36769 v 0.30857 h 1.08413 v -0.30857 h 0.27521 v -0.3169 h 0.2752 v -0.92569 h 0.26686 v -1.55115 h 0.2752 v -0.30856 h 0.27521 v -0.30856 h 1.09248 v -0.30856 h 0.26686 v -0.31691 h 0.54207 v -0.30856 h 0.55041 v -0.30856 h 0.2752 v -0.30856 h 0.54208 v -0.30856 h 0.2752 v -0.30858 h 0.54206 v -0.31689 h 0.55041 v -0.30856 h 0.54208 v -0.30856 h 0.2752 v -0.30858 h 1.08414 v -0.30856 h 0.81726 v -0.30855 h 0.55041 v -0.30856 h 0.26687 v -0.3169 h 0.27521 v -0.30857 h 0.2752 v -0.30856 h 0.27521 v -0.30856 h 0.26687 v -0.30856 h 0.2752 v -0.30856 h 0.27521 v -0.31691 h 0.26685 v -0.61712 h 0.27521 v -0.30856 h 0.2752 v -0.61714 h 0.26687 v -0.30856 h 0.2752 v -0.31689 h 0.27521 v -0.30856 h 0.2752 v -0.30858 h 0.26686 v -0.30856 h 0.2752 v -0.30856 h 0.27521 v -0.62547 h 0.54207 v -0.30856 h 0.54206 v -0.30856 h 0.27521 v -0.30856 h 0.54207 v -0.30856 h 0.27521 v -0.30856 h 0.2752 v -0.30857 h 0.26687 l 0.0166,-0.37527 0.25854,0.0584 v -0.30856 h 0.2752 v -0.30856 h 0.27519 v -0.30858 h 0.26687 v -0.31689 h 0.81728 v -0.30023 h 0.81727 v -0.31689 h 0.2752 v -0.30857 h 0.81728 v 0.30857 h 0.27521 v -0.30857 h 1.09246 V 327.192 h 0.26687 v -0.31691 h 0.27521 v -0.30856 h 0.2752 v -1.55115 h 0.26687 v -0.30023 h 0.27521 v -0.31689 h 0.54206 v -0.30856 h 0.55041 v -0.30858 h 0.26687 v -0.30856 h 0.55041 v -0.31689 h 0.54206 v -0.61714 h 0.2752 v -0.30856 h 0.26687 v -0.30856 h 1.09247 v -0.30856 h 0.81728 v 0.61712 h 0.55041 v 0.30856 h 0.81728 v 0.61714 h 1.9014 v 0.31689 h 0.55041 v 0.61714 h 0.54207 v 0.30856 h 0.27521 v 0.31689 h 2.17662 v -0.31689 h 0.8256 v -0.30856 l 0.81728,-0.0584 v -0.25019 h 0.26687 v -0.30856 h 0.2752 v -0.31689 h 0.27521 v -0.30856 h 0.26685 v -0.30858 h 0.27521 v -0.61712 h 0.2752 v -1.24259 h 0.27521 v -0.92568 h 0.26687 v -0.30857 h 0.54206 v -0.3169 h 0.55041 v -0.30856 h 0.2752 v -0.30856 h 0.54207 v -0.30857 h 0.54208 v -0.30856 h 0.2752 v -0.30856 h 1.36768 v -0.31689 h 0.26687 v -0.30023 h 0.2752 v -0.31691 h 0.54206 v -0.30856 h 1.09249 v -0.30857 h 0.54206 v -0.30856 h 0.2752 v -0.31691 h 0.54208 v -0.30856 h 0.55041 v -0.30856 h 0.54207 v -0.30856 h 0.38361 0.16679 v -0.13342 -0.17513 0 0 l 0.26687,-0.075 v -0.24185 l 0.2752,-0.009 v -0.30022 h 0.27521 v -0.30856 h 0.26687 v -0.30856 h 0.43364 0.11678 v -0.10014 -0.20848 h 0.21681 0.32525 v -0.30857 h 0.2752 v -0.30856 h 0.26687 v -0.19181 -0.1251 h 0.13342 0.14175 v -0.13342 -0.17513 h 0.18346 0.0917 v -0.30857 l 0.26685,-0.0166 v -0.90901 h 0.55041 v -0.31691 h 0.27521 v -0.30856 h 0.54207 v -0.30856 h 0.54208 v -0.30856 h 0.40029 0.1501 v -0.14174 -0.16679 h 0.17514 0.36694 v -0.30856 h 0.2752 v -0.31691 h 0.54207 v -0.30856 h 0.27521 v -0.30856 h 0.26685 v -0.30856 h 0.27521 v -0.30858 h 0.2752 V 306.426 h 0.27521 v -0.31689 h 0.10846 0.15845 v -0.14174 -0.16679 h 0.15846 l 0.075,-0.0584 0.0418,-0.2502 0.2752,-0.0334 v -0.89232 h 0.26686 v -0.31691 h 0.2752 v -0.30856 h 0.27521 v -0.30856 h 0.2752 v -0.30856 h 0.26687 v -0.30856 h 0.27521 v -0.31691 h 0.2752 v -0.30856 h 0.26687 v -0.0917 -0.21683 h 0.13342 0.14174 v -0.30856 h 0.27521 v -0.30856 h 0.26687 v -0.30856 h 0.2752 v -0.62546 h 0.27521 v -0.30856 h 0.26687 v -0.67551 -0.25019 h 0.1501 0.1251 v -0.31689 h 0.27521 v -0.35027 -0.57543 h 0.26685 v -0.30856 l 0.27521,-0.0417 v -0.57543 h 0.2752 v -0.3169 l 0.26687,-0.025 v -0.28354 h 0.17512 0.10014 v -0.17512 -0.442 h 0.27521 v -0.30856 h 0.2752 v -0.30857 h 0.26686 v -0.3169 h 0.2752 v -0.30856 h 0.54208 v -0.30856 h 0.2752 v -0.30857 h 0.27521 v -0.3169 h 0.26687 v -0.30856 h 0.55039 v -0.30856 h 0.26687 v -0.30857 h 0.27521 V 292.474 h 0.2752 v -0.30856 h 0.26687 v -0.30856 h 0.2752 v -0.30856 h 0.81727 v -0.31691 h 0.2752 v -0.30833 h 0.7172 l 0.0667,-0.0501 0.0333,-0.25852 h 0.2752 0.26686 v -0.30856 h 0.55042 v -0.30856 h 0.2752 v -0.31691 h 0.26687 v -0.30856 h 0.10846 0.43366 v -0.30856 h 0.8256 v -0.30856 h 0.26687 v -0.30856 h 0.2752 v -0.30857 h 0.27521 v -0.3169 h 0.26687 v -0.30856 h 0.55041 v -0.30856 h 0.54206 v -0.30857 h 0.2752 v -0.30856 h 0.27521 v -0.30856 h 0.26687 v -0.3169 h 0.2752 v -0.30857 h 0.54206 v -0.30856 h 0.27521 v -0.30856 h 0.2752 v -0.30856 h 0.26687 v -0.31691 -0.30856 h 0.27521 v -0.30022 h 0.2752 v -0.62546 h 0.26687 v -0.30856 h 0.27519 v -0.30857 h 0.27521 v -0.3169 h 0.2752 v -0.30856 h 0.28356 0.25852 v -0.30856 h 0.26687 v -0.30857 h 0.2752 v -0.62546 h 0.27521 v -0.30856 h 0.2752 v -0.30857 h 0.26686 v -0.30856 h 0.2752 v -0.92568 h 0.27521 v -0.31691 h 0.26686 v -0.30856 h 0.27521 v -0.61712 h 0.2752 v -0.31691 h 0.26686 v -0.70885 -0.21683 h 0.14174 0.13342 v -0.30856 h 0.26687 v -0.30856 h 0.28354 v -0.62547 h 0.26687 v -0.30856 h 0.27521 v -0.47535 -0.14174 h 0.26687 v -0.30856 -0.30856 h 0.28354 v -0.14174 -0.17513 h 0.1 0.16679 v -0.30824 h 0.2752 v -0.30856 h 0.26687 v -0.30856 h 0.27521 v -0.62547 h 0.2752 v -0.18346 -0.1251 h 0.26687 0.27521 v -0.11678 -0.19181 h 0.2752 v -0.30856 h 0.26686 v -0.31691 h 0.55041 v -0.30856 h 0.2752 v -0.30856 h 0.26687 v -0.30856 h 0.27521 v -0.30856 h 0.54206 v -0.30856 h 1.09248 v -0.30857 h 0.54208 v -0.3169 h 2.18495 v -0.30856 h 0.81726 v -0.30856 h 0.54208 v -0.30857 h 1.09247 v -0.30856 h 0.7172 0.37528 v 0.30856 h 0.54208 v 0.30857 h 1.63454 v 0.30856 h 1.90975 v -0.30856 h 0.81727 v -0.30857 h 0.2752 v -2.16827 h 0.2752 v -0.3169 h 0.26687 v -0.30857 h 0.27521 v -0.30856 h 0.2752 v -0.17513 -0.13342 h 0.26687 v -0.30856 h 0.27519 v -0.31691 h 0.54208 v -0.30856 h 0.55041 v -0.30856 h 0.2752 v 0.30856 h 0.10014 0.16679 v 0.30856 h 0.55041 v -0.30856 h 0.26686 v -0.92568 h 0.2752 v -1.24259 h 0.2752 v -0.92569 h 0.26687 v -0.3169 h 0.27521 v -0.30856 h 0.2752 v -0.61713 h 0.26686 v -0.30856 h 0.2752 v -0.31689 h 0.81728 v -0.30858 h 0.27521 v -3.71942 h 0.2752 v -0.92569 h 0.26686 v -1.86805 h 0.2752 v -0.61713 h 0.27521 v -0.3169 h 1.0758 0.28355 v -0.30022 h 0.27521 v -0.62547 h 0.2752 v -0.5087 -0.10846 h 0.26686 v -0.30856 h 0.2752 v -0.62547 h 0.26687 v -0.36694 -0.25018 h 0.15011 0.1251 v -0.22517 -0.39195 l 0.2752,-0.0833 v -0.23352 h 0.13342 0.13342 v -0.2335 -0.38362 h 0.27521 v -0.0917 -0.52539 h 0.2752 v -0.30857 h 0.27521 v -0.10846 -0.51704 h 0.26687 v -0.30856 h 0.2752 v -0.11678 -0.19181 h 0.11678 0.15845 v -0.27521 -0.35025 h 0.26687 v -0.1251 -0.18346 h 0.10846 0.16679 v -0.28355 -0.64214 h 0.27521 v -0.38362 -0.24185 h 0.15845 0.38362 v -0.15011 -0.15845 h 0.27521 v -0.3169 -0.30022 h 0.17512 0.36695 v -0.62547 h 0.27521 v -0.30856 h 0.26685 v -0.30856 h 0.27521 v -0.62547 h 0.2752 v -0.30022 h 0.27521 v -0.3169 h 0.26686 v -0.61712 h 0.27521 v -0.62547 h -0.81728 v 0.3169 h -0.2752 v 0.30857 h -0.27521 v 0.30856 h -0.54206 v 0.62546 h -0.26687 v 0.30022 h -0.2752 v 0.31691 h -0.27521 v 0.61712 h -0.2752 v 1.24259 h -0.26705 v 0.30856 h -0.2752 v 0.61713 h -0.27519 v 0.62546 h -0.54208 v 0.30856 h -0.54207 v 0.61713 h -0.2752 v 0.30856 h -0.27521 v 0.62547 h -0.2752 v 0.93402 h -0.26686 v 0.61713 h -0.2752 v 0.30856 h -0.27521 v 0.30856 h -0.26687 v 0.50037 0.1251 h -0.2752 v 0.27521 l -0.26686,0.0333 v 0.30856 h -0.2752 v 0.30856 h -0.27521 v 0.30856 h -0.2752 v 0.31691 h -0.26687 v -0.62547 h -0.55041 v -0.30856 h -0.26687 v -0.30856 h -0.27521 v -0.30852 h -0.2752 v -1.60954 -1.1842 h 0.2752 v -1.24259 h 0.27521 v -0.30857 h 0.26687 v -0.61712 h 0.2752 v -0.31689 h 0.27521 v -0.30858 h 0.26687 v -0.30856 h 0.55041 v -0.16679 -0.45033 h 0.2752 v -0.10846 -0.20849 h 0.0917 0.17513 v -0.35025 -0.26687 h 0.13342 0.40864 v -0.30856 h 0.55041 v -0.30856 h 0.54206 v -0.31691 h 0.55041 v -0.30023 h 0.26687 v -0.31689 h 0.2752 v -1.85971 h 0.27521 v -0.30857 h 0.26686 v -0.3169 h 0.2752 v -0.92568 h 0.2752 v -0.93403 h 0.26687 v -0.30856 h 0.2752 v -0.92569 h 0.27521 v -0.30856 h 0.26687 l 0.009,-0.31691 h 0.54207 v -0.30856 h 0.26686 v -0.30856 h 0.2752 v -0.61712 h 0.81728 v -0.31691 h 0.27521 v -0.30856 h 0.26685 v -0.30856 h 0.27521 v -0.30856 h 0.55041 v -0.30856 h 1.09248 v 0.30856 h 0.26687 v 0.30856 h 0.2752 v 0.30856 h 0.27521 v 0.30856 h 1.08415 v -0.30856 h 1.29261 0.34193 v -0.13342 -0.17513 h 0.27521 v -0.30856 h 0.2752 v -0.30856 h 0.27521 v -0.62547 h 0.54206 v -0.30856 h 0.2752 v -0.30856 h 0.26687 v -0.30857 h 0.2752 v -0.62546 h 0.27521 v -0.30856 h 0.26685 v -0.30857 h 0.55041 v -0.30856 h 0.27521 v -0.62545 h 0.80894 v -0.30856 h 0.27521 v -0.30858 h 3.8195 v 0.30858 h 0.26687 v 0.30856 h 0.27519 v 0.31689 h 0.81728 v 0.30856 h -0.26687 v 0.20849 0.50037 0.21683 h -0.27521 v 0.3169 h -0.2752 v 0.30856 h -0.54206 v 0.30857 h -0.27521 v 0.30856 h -0.4837 -0.33358 v 0.26686 l -0.2752,0.0418 v 0.17512 0.13342 h -0.16679 -0.1 v 0.31691 h -0.27521 v 0.30856 h -0.2752 v 0.30856 h -0.26687 v 0.30856 h -0.55041 v 0.30856 h -0.49204 -0.32523 v 0.31691 h -0.075 -0.20014 v 0.15844 0.15012 h -0.18348 -0.62547 v 0.30856 h -0.55041 v 0.30856 h -0.54206 v 0.30856 h -0.2752 v 0.62547 h 0.80059 0.56708 v -0.30856 h 0.80895 v -0.31691 h 0.82561 v -0.30856 h 0.26686 v -0.30856 h 0.55041 v -0.30856 h 0.26687 v -0.16679 -0.14174 h 0.28354 0.26687 v -0.14174 -0.17514 h 0.26685 v -0.30856 h 0.55041 v -0.30856 h 0.26687 v -0.30856 h 0.27521 v -0.30856 h 0.54207 v -0.31691 h 0.27519 v -0.30856 h 0.27521 v -0.30856 h 0.2752 v -0.30856 h 0.54208 v -0.30857 h 0.2752 v -0.30856 h 0.27521 v -0.3169 h 0.26687 v -0.92569 h 0.26685 v -0.93402 h 0.27521 v -1.24259 h 0.2752 v -0.30857 h 0.55041 v -0.30856 h 0.54207 v -0.30856 h 0.54206 v -0.3169 h 0.27521 v -0.30857 h 0.54207 v -0.30856 h 0.55041 v -0.30856 h 0.26686 v -0.30856 h 0.82561 v -0.30856 h 0.54208 v -0.31691 h 0.54207 v -0.30023 h 0.55041 v -0.62545 h 0.81727 v -0.30856 h 0.54207 v -0.31691 h 0.81727 v 0.62547 h -0.54206 v 0.30856 h -0.55041 v 0.31689 h -0.26687 v 0.9257 h 0.26687 v 0.30856 h 0.81726 v -0.30856 h 0.27521 v -0.30856 h 0.54207 v -0.31691 h 0.82562 v -0.30023 h 0.26685 v -0.31689 h 0.81728 v -0.30856 h 0.2752 v -0.30856 h 0.26687 v -0.31691 h 0.82562 v -0.30856 h 0.57541 0.24185 v -0.30856 h 0.81728 v -0.30856 h 0.26686 v -0.30857 h 0.82561 v -0.3169 h 0.54208 v -0.30856 h 0.2752 v -0.30856 h 0.81727 v -0.30857 h 0.54207 v -0.30856 h 0.81728 v -0.3169 h 1.09247 v -0.30856 h 0.27521 v -0.30856 h 0.26687 v -0.30857 h 0.2752 v -0.30856 h 0.81726 v -0.30856 h 0.27521 v -0.3169 h 0.54207 v -0.30857 h 0.81727 v -0.30856 h 0.2752 v -0.30856 h 0.54208 v -0.30856 h 0.81728 v -0.31691 h 0.2752 v -0.30856 h 0.27521 v -0.30856 h 0.26685 v -0.93403 h 0.27521 v -0.30856 h 0.81728 v -0.30856 h 0.2752 v -0.61712 h 0.27521 v -0.10846 -0.20016 h 0.26685 v -0.31689 h 0.27521 v -0.30856 h 0.81728 v -0.30856 h 0.26685 v -0.30858 h 0.55041 v 0.30858 h 0.27521 v -0.30858 h 0.26687 v -2.1766 h 0.2752 v -0.30858 h 0.2752 v -0.30857 h 0.27521 v -0.30856 h 0.26687 v -0.3169 h 0.2752 v -0.30856 h 0.27519 v -0.30857 h 0.54208 v -0.62546 h 0.2752 v -0.30022 h 0.54205 v -0.31691 h 0.2752 v -0.30856 h 0.2669 v -0.30856 h 0.5504 v -0.30856 h 0.2668 v 0.30856 h 0.5505 v -0.30856 h 1.3593 v -0.30856 h 0.8173 v -0.31691 h 0.2752 v -0.30856 h 0.2752 v 0.30856 h 0.2668 v 0.31691 h 0.5505 v 0.30856 h 0.2668 v 0.30856 h -0.2668 v 0.61712 h -0.5505 v 1.24259 h 1.3677 v -0.30856 h 0.2669 v -0.61712 h 0.2752 v -0.31691 h 0.5504 v -0.30856 h 1.0841 v -0.30856 h 0.2752 v -0.61712 h 0.2752 v -1.54281 -0.32525 h 0.2669 v -0.61712 h 0.2752 v -0.30856 h 0.8173 v -0.30857 h 1.3677 v -0.3169 h 0.2668 v -0.30856 h 0.2752 v -0.61713 h 0.2753 v -0.62546 h 0.2668 v -0.30856 h 0.8173 v -0.30857 h 0.8256 v -0.30856 h 0.5421 v -0.3169 h 1.0924 v -0.30856 h 0.2669 v -0.30856 h 0.2752 v -0.30857 h 0.2752 v -0.3169 h 0.2669 v -0.30856 h 0.2752 v -0.30856 h 0.5421 v -0.30857 h 0.2752 v -0.30856 h 2.4518 v -0.31689 h 0.2752 v -0.61714 h 0.5421 v -0.30856 h 0.2752 v -0.30856 h 0.542 v -0.30856 h 0.8256 v 0.30856 h 1.3594 v -0.30856 h 0.542 v -0.31691 h 0.5505 v -0.30856 h 0.542 v -0.30856 h 0.2752 v -0.30856 h 0.2669 v -0.31691 h 0.8256 v -0.30856 h 1.6346 v -0.30856 h 2.4518 v -0.30856 h 0.8173 v -0.30856 h 0.542 v -0.30856 h 0.5504 v -0.31691 h 1.0925 v -0.30856 h 0.2669 v 0.62547 h 1.3676 v 0.30856 h 1.0842 v 0.30856 h 0.2752 v 0.61712 h 2.1849 v 0.30856 h 0.5421 v 0.31691 h 0.2752 v 0.30856 h 1.6346 v -0.30856 h 0.2668 v -0.31691 h 0.1501 0.1251 v -0.30856 h 0.2752 v -0.30856 h 0.2669 v -0.30856 h -0.2669 l -0.017,-0.30856 h -0.2585 v -2.79375 h 1.1259 0.2418 v -0.30856 h 0.2669 v -0.3169 h 0.8172 v -0.30856 h 0.5504 v -0.30857 h 0.5421 v -0.30856 h 0.2752 v -1.24259 h 0.2669 v -0.30856 h 0.5504 v -0.62545 h 0.2752 v -0.30858 h -0.2752 v -0.30856 h -0.2752 v -0.30856 h -0.2753 v -0.62547 h -0.2668 v -0.40029 -0.52539 h 0.2668 v -0.62547 h 0.2753 v -0.61712 h 0.8172 v -0.30856 h 0.2752 v -0.31691 h 0.2669 v -0.30856 h 0.5504 v -0.61712 h 0.2752 v -0.30856 h 0.5421 v -0.30857 h 0.2752 v -0.3169 h 0.542 v -0.30856 h 1.0925 v -0.30856 h 0.2669 v -0.30857 h 1.0925 v -0.31689 h 0.5504 v -0.30856 h 0.8172 v 0.62545 h 0.2752 v 0.30857 h 0.5421 v 0.30856 h 0.2669 v 0.30856 h 0.2752 v 0.3169 h 0.2752 v 0.30857 h 0.2752 v 0.30856 h 0.2669 v 0.30856 h 0.2752 v 0.30856 h 0.2668 v 0.30856 h 0.6172 0.2084 l 0.067,0.31691 h 1.0175 v -0.31691 h 0.5504 v -0.30856 h 0.2668 v -1.85971 h -0.2668 v -0.30856 h -0.2752 v -0.30857 h -0.5504 v -0.31689 h -0.2669 v -0.30856 h -0.8173 v -0.30856 h -0.2752 v -0.30858 h -0.8173 v -0.31689 h -0.2668 v -0.30023 h -0.2752 v -0.13342 -0.18347 h -0.2752 v -1.55115 h 0.2752 v -0.30856 h 0.1251 0.1501 v -0.30856 h 0.2668 v -0.30856 h 0.2752 v -1.86806 h 0.2669 v -0.30856 h 0.2752 v -0.61712 h 0.2752 v -0.31691 h 0.2752 v -0.30856 h 0.2669 v -2.79374 h -0.2669 v -0.30856 h -0.2752 v -1.24259 h 0.2752 v -0.61712 h 0.2669 v -0.93403 h 0.2752 v -0.45033 -0.16679 h 0.1084 l 0.1585,-0.009 v -0.30022 h 0.2752 v -0.31691 h 0.2752 v -0.30857 h 0.2752 v -0.61714 h 0.2669 v -0.30826 h 0.5504 v -0.31689 h 0.5421 v -0.30856 h 0.8172 v -0.30858 h 0.5504 v -0.30856 h 0.2669 v -0.31689 h 0.2752 v -0.30856 h 0.2669 v -0.30858 h 0.5504 v -0.30856 h 0.2752 v -0.30856 h 0.2668 v -0.31689 h 0.2752 v -0.30856 h 0.2753 v -0.93403 h 0.2752 v -3.71943 h -0.2752 v -1.24259 h -0.2753 v -0.62547 h -0.2752 v -0.30856 h -0.2668 v -0.62546 h -0.2752 v -0.30022 h -0.5504 v -0.31691 h -0.2669 v -0.30023 h -0.5421 v -0.31689 h -0.2752 v -0.30856 h -0.2752 V 144.823 h -0.2668 v -0.30856 h -0.2752 v -0.30856 h -0.2752 v -0.30856 h -0.2669 v -1.55115 h -0.2752 v -0.93403 h -0.2752 v -0.30856 h -0.2752 v -0.30857 h -0.5421 v -0.3169 h -0.2752 v -2.16828 h 0.2752 v -0.30856 h 0.2752 v -0.3169 h 0.2669 v -0.61713 h -0.2669 v -0.30856 h -0.2752 v -1.55115 h -0.5504 v -1.55115 h 0.2752 v -0.94237 h -0.2752 v -0.30022 h -0.2669 v -0.30856 h -0.2752 v -0.31691 h -0.2668 v -0.30856 h -0.8257 v -0.30856 h -0.542 v -0.3169 h -0.8173 v -0.30022 h -0.2752 v -0.31691 h -1.0841 v -0.30856 h -1.3677 v -0.30856 h -0.2669 v -0.31691 h -0.8256 v -0.30856 h -0.2669 v -0.30856 h -0.2752 v -0.30856 h -0.2752 v -0.30856 h -0.2668 v -0.62547 h -0.2752 v -0.30856 h -0.2752 v -0.30856 h -0.2669 v -1.86806 h 0.2669 v -3.1023 h -0.2669 v -0.30856 h -0.5504 v -0.30856 h -0.2669 v -0.3169 h -0.2752 v -0.30856 h -0.8173 v -0.30856 h -0.2752 v -0.30856 h -0.2668 v -0.30858 h -1.3677 v -0.31689 h -0.5421 v -0.61712 h -0.2752 v 0.30856 h -1.0924 v -0.30856 h -0.8173 v -0.30856 h -1.3594 v -0.31691 h -0.2752 v -0.30856 h -0.8172 v 0.30856 h -0.2752 v -0.30856 h -1.0842 v -0.30856 h -1.0925 v -0.30856 h -0.8172 v -0.31691 h 0.2668 v -0.30856 h -1.0841 v -0.30856 h -0.2752 v -0.30856 h -0.5421 v -0.31691 h -0.2752 v -0.30023 h -0.8173 v -0.31689 h -1.3676 v -0.30856 h -0.2669 v 0.62545 h -0.2752 v 0.30023 h -0.2752 v -0.30023 h -2.7187 v -0.31689 h -0.5504 v -0.61714 h -2.1766 v -0.62545 h -0.2752 v -0.30856 h -1.0925 v 0.30856 h -0.8173 v 0.30856 h -0.542 v 0.31689 h -0.2752 v 0.30858 h -0.2669 v 0.30856 h -0.8256 v 0.31689 h -0.5504 v 0.30023 h -0.1168 -0.9674 v 0.31691 h -1.0925 v 0.30856 h -0.5421 v 0.30856 h -0.2752 v 0.30856 h -0.542 v 0.31691 h -0.2752 v 0.30856 h -0.2669 v 0.30856 h -0.5504 v 0.30856 h -0.2752 v 0.31691 h -0.5421 v 0.30856 h -0.2752 v 0.30856 h -0.542 v -0.30856 h -0.2752 v -0.30856 h -1.6346 v -0.31691 h -0.2669 v -0.30856 h -1.9097 v 0.30856 h -0.2752 v 0.93403 h -0.2752 v 0.62545 h -0.2669 v 0.30858 h -0.2752 v 0.30856 h -0.2752 v 0.30856 h -1.0841 v 0.30856 h -1.9181 v 0.62546 h -0.2669 v -0.30856 h -0.2669 v 0.30856 h -0.5504 v 0.30856 h -0.5504 v 0.30856 h -1.3593 v 0.62547 h -0.2752 v 0.61712 h 0.2752 v 0.30856 h -0.2752 v 1.24259 h -0.2669 v 0.31691 h -0.2752 v -0.31691 h -0.2752 v 0.31691 h -0.2669 v 0.30856 h -0.8172 v 0.30856 h -1.0925 v 0.30856 h -0.2752 v 0.30856 l -0.5421,0.009 v 0.30857 h -0.2752 v 0.30856 h -0.2752 v 0.30856 h -0.2668 v 0.30856 h -0.81731 v 0.31691 h -1.36767 v 0.30856 h -1.09249 v 0.30856 h -2.17662 v 0.30856 h -0.2752 v 0.30856 h -0.26686 v 0.62547 h -0.2752 v 0.62546 h -0.27521 v 0.30022 h -0.26686 v 0.31691 h -0.27521 v 0.30856 h -0.2752 v 0.30856 h -1.63455 v -0.30856 h -4.91198 v 0.30856 h -1.35934 v 0.31691 h -0.81728 v 0.30856 h -0.81726 v 0.30023 h -0.81728 v 0.31689 h -0.55041 v 0.30856 h -0.2672 v 0.62547 h -0.27521 v 0.93403 h -1.09248 v 0.30856 h -0.26686 v 0.30856 h -0.2752 v 0.30856 h -0.55041 v 0.30856 h -0.26687 v -0.30856 h -1.09249 v -0.30856 h -0.54206 v -0.30856 h -0.55041 v 0.30856 h -0.54207 v -0.30856 h -0.2752 v 0.30856 h -0.76723 -0.31691 v 0.11678 0.19181 h -0.2752 v -0.0833 -0.22517 h -0.27521 v 0.30856 h -1.08413 v 0.30856 h -1.36769 v 0.31691 h -1.35934 v 0.30856 h -1.90975 v 0.30856 h -0.82562 v 0.30856 h -0.53372 v 0.30856 h -1.36769 v 0.31691 h -1.09247 v 0.30856 h -0.54207 v 0.61712 h -4.08637 v -0.30856 h -1.36768 v -0.30856 h -0.54207 v 0.30856 h -1.64288 v -0.30856 h -0.80893 v -0.30856 h -1.36769 v -0.31691 h -1.09248 v -0.30856 h -1.09247 v -0.30856 h -0.26687 v -0.30856 h -0.27521 v -0.30856 h -2.18495 v -0.31691 h -0.26686 v -0.30856 h -0.54207 l -0.009,-0.30856 h -0.81728 v -0.30856 h -0.54208 v -0.30856 h -0.81727 v -0.62547 h -0.2752 v -0.30856 h -1.09249 v -0.30856 h -0.54206 v -0.31691 h -0.2752 v -0.30856 h -0.54208 v -0.31691 h -1.09247 v -0.30021 h -0.26687 V 132.106 h -0.2752 v 0.30857 h -0.54207 v 0.30021 h -0.55041 v 0.31691 h -0.26686 v 0.30856 h -1.09248 v -0.30856 h -0.55041 v 0.30856 h -1.9014 v -0.30856 h -0.27521 v 0.30856 h -0.54207 v -0.30856 h -1.36769 v -0.31691 h -0.27519 v 0.31691 h -0.54208 v 0.30856 h -0.54207 v 0.31691 h -1.63455 v 0.30856 h -1.90974 v -0.30856 h -0.55041 v -0.31691 h -0.54208 v -0.30856 h -0.55039 v -0.31691 h -0.26687 v -0.30021 h -0.55041 V 132.106 h -0.54208 v -0.3169 h -0.54206 v -0.30856 h -0.55041 v -0.30856 h -0.54207 v -0.31691 h -0.55041 v -0.30019 h -0.54206 v -0.31691 h -0.27521 v 0.31691 h -1.35935 v -0.31691 h -1.35934 v -0.30856 h -0.2752 v -0.30856 h -0.27521 v 0.30856 h -0.26685 v -0.30856 h -1.6429 v -0.31691 h -0.26685 v -0.30856 h -0.27521 v -0.30856 h -0.2752 v -0.30856 h -0.26687 v -0.30856 h -0.27521 v -0.31691 h -0.2752 v -0.30856 h -0.26687 v -0.30856 h -0.54206 v -0.30856 h -0.28354 v -0.30856 l -0.54208,-0.009 v -0.30856 h -0.55041 v -0.30857 H 913.838 v 0.30857 h 0.26687 v 1.6679 1.7513 H 913.838 v 0.30856 h -0.2752 v 0.30857 h -0.2752 v 0.3169 h -0.26686 v 0.30022 h -0.14174 -0.13342 v 0.3169 h 0.2752 v 0.30857 h 0.26686 v 0.30856 h -0.26686 v 0.3169 h -0.2752 v -0.3169 h -0.10846 l -0.65049,2.45181 5.05375,33.54991 -1.00907,4.4116 -0.50039,2.18495 -4.38657,1.90142 -4.6618,2.01816 4.6618,-2.01816 4.38657,-1.90142 0.50039,-2.18495 1.00907,-4.41995 -5.05375,-33.54156 0.65049,-2.45181 h -0.16679 v -0.30856 h -0.2752 v 0.30856 h -0.26687 v 0.3169 h -0.81728 v -0.3169 h -0.27521 v 0.62546 h -0.27519 v -0.30856 h -0.26687 v 0.30856 h -0.2752 v 0.30857 h -0.27521 v -0.30857 h -0.26687 v 0.30857 h -0.2752 v -1.24259 h -0.27521 v -0.62547 h -0.2752 v -0.30024 h -1.35934 v -0.31691 h -0.26686 v -1.55115 h -0.2752 v -0.30856 h -0.27521 v -0.30856 h -0.54207 v -0.31691 h -0.55041 v -0.30856 h -0.54208 v -0.30856 h -0.27519 v -0.30856 h -0.2752 v -0.30856 h -1.08415 v 0.30856 h -0.55041 v 0.30856 h -0.26685 v 0.93403 h -0.27521 v 0.30856 h -0.54207 v 0.30856 h -0.55041 v 0.30856 h -0.26686 v 0.30023 0.32524 h -0.2752 v 1.23426 h -0.27521 v 0.62545 h -0.2752 v 0.62547 h -0.26687 v 0.30856 h -0.55041 v 0.30856 h -0.26687 v 0.30856 h -0.81727 v 0.30858 h -0.17512 -0.37529 v 0.55874 l -0.26687,0.0667 v 0.30856 h -0.2752 v 0.30856 h -0.27521 v -0.30856 h -0.26685 v -0.3086 h -0.55041 v -0.62547 h -0.81728 v -0.30856 h -1.35934 v -0.30856 h -0.2752 v 0.92568 h -0.27521 v 0.31691 h -0.54207 v 0.30856 h -0.54206 v 0.30856 h -0.27521 v 0.30856 h -0.2752 v -0.30856 h -0.26687 v -0.30856 h -0.27521 v -0.30856 h -2.46016 v -0.31689 h -0.26685 v -0.30856 h -0.27521 v -0.30858 h -0.54207 v -0.30856 h -0.27521 v 0.30856 h -0.81726 v 0.30858 h -0.27521 v -0.30858 h -0.26687 v 0.30858 H 885.208 v 0.30856 h -0.26687 v -0.30856 h -0.2752 v -0.30858 h -0.27521 v -0.30856 h -0.2752 v -0.30856 h -0.54206 v -0.30856 h -0.2752 v -0.31691 h -0.26687 v -0.30856 h -0.27521 v -0.30856 h -0.2752 v -0.93403 h -0.26686 v -0.30856 h -0.2752 v -0.30856 h -0.27521 v -0.31691 h -1.63454 v 0.62547 h -0.26687 v 0.30856 h -0.27521 v 0.61714 h -0.2752 v 0.31689 h -0.54208 v -0.31689 h -0.2752 v -0.30023 h -0.54206 v 0.30023 h -0.27521 v 1.25092 h -0.54207 v 0.30856 h -0.55041 v -0.30856 h -1.08414 v 0.30856 h -0.2752 v -0.30856 h -0.55041 v 0.30856 h -0.54206 v 0.30856 h -0.54207 v -0.30856 h -0.27521 v -0.30856 h -0.2752 v -0.62547 h -0.26687 v -0.62545 h -0.27521 v -0.30023 h -0.2752 v -0.31691 h -0.27521 v -0.61712 h -0.26685 v -0.62547 h -0.27521 v -0.30856 h -0.26687 v -0.30856 h -0.2752 v -0.93403 h -0.27521 v -0.61712 h -0.2752 v -0.30856 l -0.26686,-0.009 v -0.30856 h -0.2752 v -0.61714 h -0.27521 v -0.62545 h -0.26687 v -0.30858 h -1.09247 v -0.30856 h -0.81728 v -0.30857 h -0.81728 v 0.30856 h -1.90974 v 0.30856 h -0.26686 v 0.30856 h -0.55041 v 0.30856 h -0.81728 v 0.31691 h -0.2752 v 0.30856 h -0.81727 v 0.30856 h -1.90976 v 0.30856 l -0.81727,0.009 v 0.30857 h -0.54207 v 1.85971 h -0.27521 v 0.30856 h -0.54206 v 0.30856 h -0.2752 v 0.31691 h -0.27521 v 0.30856 h -0.54207 v 0.30856 h -0.27521 v 0.95905 0.5921 h -0.26687 v 0.62547 h -0.27519 v 0.30856 h -0.54207 v -0.30856 h -0.27521 v 0.61712 h 0.27521 v 1.24259 h 0.26687 v 0.61712 h -0.26687 v 0.62547 h 0.26687 v 0.30856 h 0.2752 v 0.93402 h -0.2752 v 0.30856 h 0.2752 v 1.24259 h 0.27519 v 1.24259 h 0.26687 v 0.9257 h -0.26687 v 0.93401 h -0.27519 v 0.30858 h -0.2752 v 2.79374 h -0.26687 v 0.93402 h 0.26687 v 0.30856 h -0.26687 v 0.61712 h -0.55041 v 0.31691 h 0.2752 v 0.30856 h -0.2752 v 0.30856 h -0.26687 v 0.30856 h -0.2752 v 0.93403 h -0.27521 v 0.30856 h -0.54206 v 0.30856 h -0.54207 v 0.31691 h -0.27521 v 0.30856 h -1.90975 v -0.30856 h -0.94236 -1.78467 v -0.31691 h -0.2752 v 0.31691 h -1.35934 v -0.31691 h -1.63454 v 0.31691 h -1.09247 v 0.30856 h -0.27521 v 0.30856 h -0.26687 v 0.30856 h -0.2752 v 0.30856 h -0.27521 v 0.31691 h -0.2752 v 0.30856 h -0.54208 v 0.30856 h -0.27493 v 0.30856 h -0.54206 v 0.31691 h -0.27521 v 0.30856 h -0.54207 v 0.30856 h -0.54206 v 0.30856 h -0.81728 v -0.30856 h -0.2752 v 0.30856 h -1.09247 v -0.30856 h -1.36769 v 0.30856 h -0.80893 v 0.30856 h -0.27521 v 0.31691 h -0.2752 v 1.55115 h -0.26687 v 0.75055 0.49204 h -1.09247 v 0.30856 h -1.36769 v 0.61715 h -0.26686 v 0.31689 h -0.2752 v 0.30856 h -0.81728 v -0.62545 h -0.58376 -0.50872 v 0.31689 h -0.27521 v 0.30856 h -1.9014 v 0.61714 h -0.2752 v 0.30856 h -0.54208 l -0.009,-0.30856 h -1.08413 v 0.93403 h -0.27521 v 0.61712 h -0.2752 v 0.30856 h -1.08415 v 0.30856 h -0.27521 v -0.30856 h -0.2752 v 0.30856 h -1.09247 v -0.30856 h -0.26687 v -0.30856 h -0.55041 v 0.30856 h -0.26685 v -0.30856 h -0.27521 v -0.30856 h -1.63454 v -0.30856 h -0.81728 v 0.30856 h -2.18496 v 0.30856 h -0.81728 v -0.61712 h -2.71868 v -0.30858 h -3.00223 v 0.30858 h -0.2752 v 0.30856 h -0.27521 v 0.30856 h -0.26685 v 0.30856 h -0.27521 v -0.30856 h -0.2752 v 0.30856 h -1.90975 v 0.30856 h -0.26687 v 0.62547 H 805.34 v -0.30856 h -0.55041 v -0.31691 h -0.27521 v -0.30856 h -0.81726 v 0.30856 h -0.26687 v 0.31691 h -0.27521 v 1.55115 h -0.2752 v 0.30856 h -0.26686 v 0.30856 h -0.55041 v -0.30856 h -0.26687 v -0.30856 h -1.09246 v 0.30856 h -0.27521 v 0.93402 h -0.54207 v 0.30856 h -0.27521 v 0.30856 h -0.2752 v 0.31691 h -0.81728 v 0.30856 h -0.26686 v 0.30856 h -0.2752 v 0.30856 H 797.701 v 0.30856 h -1.63454 v 0.30856 h -0.27521 v 0.31691 h -0.26687 v 0.30856 h -0.55041 v -0.30856 h -0.26685 v 0.30856 h -0.27521 v 1.55115 h -0.2752 v 0.30856 h -0.26687 v 0.30858 h -0.81728 v 0.31689 h -0.27521 v 0.30856 h -0.2752 v 0.30856 h -0.27519 v 0.30858 h -0.26687 v 0.48368 1.06747 h -0.27521 v 0.31689 h -0.2752 v 0.30856 h -0.26687 v 0.92569 h 0.26687 v 0.93403 h -0.26687 v 0.30856 h -0.2752 v 0.30856 h -0.27521 v 0.3169 h -0.26685 v -0.3169 h -0.55041 v -0.30856 h -2.45183 v 0.30856 h -0.2752 v 0.3169 h -0.26687 v 1.85972 h -0.27521 v 0.30856 h 0.27521 v 0.61712 h -0.55041 v 0.30856 h -0.62546 -1.28429 v 0.31691 h -0.26686 v 0.30856 h -0.2752 v 0.30856 h -0.26687 v 0.30856 h -0.27521 v 0.31691 h -0.55041 v 0.30856 h -0.54206 v 0.30856 h -0.54207 v 0.30856 h -0.2752 v 0.30858 h -0.81728 v 0.31689 h -0.5504 v 0.30856 h -0.80894 v 0.30856 h -0.27521 v 0.61713 h -0.2752 v 1.16753 l -0.14174,0.0417 -0.13342,0.0334 v 0.93403 h -0.54206 v 0.30856 h -0.27521 v 0.30856 h -0.54207 v 0.31691 h -0.27521 v 0.30856 h -0.54206 v 0.30856 h -0.2752 v 0.30856 h -0.81728 v 0.30856 h -0.27521 v 0.62547 h -0.26687 v 0.61712 h -0.35025 -0.20014 v 0.30856 h -0.26687 v 0.30856 h -0.55041 v 0.31691 h -0.26664 v 0.30856 h -0.27521 v 0.30856 h -0.2752 v 0.30856 h -0.26686 v 0.31691 h -0.28355 v 0.30856 h -0.26686 v 0.30856 h -0.81728 v 0.62546 h -0.81726 v 0.61712 h -0.27521 v 0.30856 h -0.26687 v 0.30858 h -0.2752 v 1.55115 h 0.2752 v 1.24259 h 0.26687 v 2.79374 h 0.27521 v 0.61712 h -0.54208 v 0.30856 l -0.2752,0.009 v 0.61712 h -0.27521 v 0.61712 h -0.54207 v 0.31691 h -0.2752 v 0.30856 h -0.54206 v 0.30856 h -0.27521 v 0.30856 h -0.2752 v 0.9257 h -0.26687 v 0.31689 H 766.353 v 1.24259 h -0.2752 v 1.55115 h -0.54206 v 0.30856 h -0.27521 v 0.30858 h -0.26687 v 0.31689 h 0.26687 v 0.30023 h -0.26687 v 0.31689 h -0.2752 v 0.30857 h -0.27521 v 1.55115 h -0.2752 v 0.61712 h 0.2752 v 0.30856 h 0.27521 v 0.62547 h 0.2752 v 0.30856 h -0.2752 v 0.61712 h -0.27521 v 0.31691 h -0.2752 v 1.23426 h -0.26686 v 4.962 h -0.2752 v -0.30856 h -0.26687 v 0.30856 h -0.27521 v 0.62547 h 0.27521 v 0.62546 h -0.27521 v 0.61713 h 0.27521 v 0.92568 h -0.27521 v 0.30856 h 0.27521 v 0.62547 h 0.26687 v 0.30856 h -0.26687 v 0.30856 h -0.27521 v 0.30858 h -0.2752 v 0.31689 h -0.54208 v 0.30856 h -0.55039 v 0.30856 h -0.26687 v 0.61714 h -0.55041 v 0.31689 h 0.2752 v 0.30856 h -0.55041 v 0.61714 h -0.26687 v 0.62545 h -0.2752 v 0.30856 h -0.26686 v 0.30857 h -0.2752 v 0.30856 h -0.54208 v 0.30856 h -0.2752 v 0.30856 h -0.55041 v 0.31691 h -0.26686 v 0.92568 h -0.5504 v 0.30856 h -0.26687 v 0.62547 h -0.34192 -0.4837 v 0.30856 h -0.26687 v 0.30856 h -0.27519 v 0.30856 h -0.2752 v 0.31691 h -0.26687 v 0.30856 h -0.27521 v 0.30856 h -0.81728 v 0.30832 h -0.2752 v 0.30857 h -0.26686 v 0.30856 h -1.36769 v 0.3169 h -0.81726 v -0.34192 -0.28354 h -0.27521 v 0.30856 h -0.54207 v 0.3169 h -0.27521 v 0.30856 h -0.26687 v 0.15845 0.15012 h -0.2752 v 0.30856 h -0.50871 -0.58376 v 0.30856 h -0.26687 v 0.20015 0.10845 h -0.2752 v 0.3169 h -0.45033 -0.0917 v 0.61713 h -0.2752 v 0.93403 h 0.2752 v 0.30856 h 0.26686 v 0.30856 h -0.26686 v 0.93403 h 0.26686 v 0.30856 h 0.2752 v 0.30856 h -0.81726 v 0.30856 h -0.27521 v 0.62547 h 0.55041 v 0.30856 h -0.55041 v 0.30856 h -0.54207 v 0.61714 h -0.27521 v 0.31689 h -0.54206 v 0.30856 h -0.82561 v -0.30856 h -0.26687 v -0.31689 h -0.27521 v -1.85973 h -1.5011 -0.13343 v 0.95072 0.60043 h -1.09248 v -0.30856 h -0.26685 v -0.30856 h -0.27521 v -0.62547 h -0.2752 v -0.30856 h -0.27521 v -0.30856 h -0.26687 V 238.835 h -0.2752 v -0.30856 h -0.81727 v 0.92568 h 0.27521 v 0.30856 h 0.26685 v 0.31691 h 0.27521 v 0.30856 h 0.2752 v 0.30856 h 0.54208 v 0.93403 h 0.2752 v 1.54282 h -0.2752 v -0.61712 h -0.27521 v -0.30858 h -0.54207 v 0.30858 h -0.27521 v 0.75889 0.17512 h -0.26685 v 0.30858 h -0.81728 v 0.30856 h -0.54208 v 0.30856 h -0.2752 v 0.31689 h -0.5504 v 0.30857 h -0.54214 v 0.30856 h -0.54208 v 0.30856 h -0.2752 v 0.30856 h -0.55041 v 0.30856 h -0.54206 v 0.31691 h -0.27521 v 0.92568 h -0.26687 v 0.40031 0.22516 h -0.2752 v 0.30856 h -0.27521 v 0.61712 h 0.27521 v 0.30856 h 0.2752 v 1.24259 h 0.26687 v 1.24259 h 0.27521 v 1.24259 h 0.2752 v 0.9257 h 0.26686 v 0.61712 h 0.2752 v 0.62546 h 0.27521 v 0.30856 0.30856 h -0.55041 v 0.30856 h 0.2752 v 0.31691 h -0.54206 v 0.61712 h -0.2752 v 0.61712 h -0.27521 v 0.62547 h -0.54207 v -0.31689 h -0.54206 v 0.31689 h -0.27521 v 0.30856 h -0.81728 v 0.30856 h -0.26687 -0.2752 v 0.30858 h -1.09247 v 0.30856 h -0.55041 v -0.30856 h -1.35934 v -0.30858 h -0.2752 v -0.30856 h -0.81728 v -0.30856 h -0.26686 v -0.31689 h -0.55041 v -0.30858 h -0.81728 v -0.30856 h -1.35934 v 0.30856 h -0.2752 v 1.55117 h -0.27521 v 0.62545 h -0.2752 v 0.30856 h 0.2752 v 0.9257 h -0.2752 v 0.30856 h -0.26687 v 0.62547 h -0.27521 v 0.30856 h -0.26685 v 0.30856 h -0.55041 v 0.30856 h -0.51706 -0.57543 v -0.30856 h -0.26685 v -0.30856 h -0.27521 v -0.30856 h -1.35935 v 0.30856 h -0.27519 v 0.30856 h -0.55041 v 0.30856 h -0.26687 v 0.62547 h -0.2752 v 0.30856 h -0.26687 v -0.30856 h -0.27521 v 0.30856 h -0.55041 v 0.30856 h -0.26685 v 0.30856 h -0.27521 v 0.93402 h 0.14174 0.13342 v 0.30856 h 0.26686 v 0.30858 h 0.2752 v 0.30856 h 0.27521 v 0.62545 h 0.2752 v 0.30856 h 0.26687 v 0.9257 h 0.54208 v 0.31689 h 0.55041 v 0.30858 h 0.27519 v -0.30858 h 0.26687 v 0.30858 h 0.82561 v 0.30856 h 0.54208 v 0.30856 h 0.26685 v 1.85971 h -0.26685 v 0.30856 h -0.54208 v 0.31691 h -0.28354 v 1.23425 h -0.26687 v 0.3169 h -0.2752 v 0.61712 h -0.26687 v -0.3169 h -0.27518 v 0.3169 h -0.55041 v -0.3169 h -0.26687 v 0.62547 h -0.47535 -0.89234 v 0.93401 h -0.26686 v 0.61714 h 0.14174 0.1251 v 0.30856 h -0.26685 v 1.55115 h -0.81728 v 0.30856 h -0.55041 v 0.30856 h -0.13342 -0.13342 v -0.30856 h -0.27521 v 0.30856 h -0.2752 v 0.18347 0.1251 h -0.81728 v -0.30857 h -1.35934 v 0.30857 h -0.2752 v 0.30856 h -0.27521 v 0.3169 h -1.63454 v -0.62546 h -2.45183 v 0.30856 h -0.54207 v 0.93402 h -0.27519 v 0.30857 h -0.27521 v -0.30857 h -0.26687 v 0.30857 h -0.82561 v 0.30856 h -0.26687 v 0.30856 h -0.82562 v 0.3169 h -0.26685 v 0.61713 h -0.27521 v -0.30856 h -0.26686 v -0.30857 h -0.27521 v -0.3169 h -0.54206 v -0.30856 h -0.2752 v 0.30856 h -1.36769 v -0.30856 h -0.54206 v -0.30856 h -0.27517 v 0.30856 h -0.30022 l 0.025,-0.30856 h -0.54207 v -0.30857 h -0.81728 v -0.93402 h -0.81727 v 0.3169 h -0.26687 v 0.30856 h -0.2752 v 0.30856 h -0.27521 v 0.30857 h -0.2752 v 0.30856 h -0.26686 v 0.62546 h -0.55041 v 0.61713 h -0.26687 v 0.30856 h -0.2752 v 0.3169 h -0.2752 v 0.30857 h -0.54207 v 0.30856 h -0.2752 v 0.30022 0.3169 h 0.2752 v 0.61712 h -0.5504 v 0.31691 h -0.26687 v 0.30856 h 0.26687 v 0.30856 h -0.26687 v 0.61713 h -0.55041 v 0.3169 h 0.2752 v 0.30856 h -0.2752 v 0.30856 h 0.2752 v 0.30857 h -0.81728 v 0.30856 h 0.27521 v 0.62546 h 0.26687 v 0.30857 h 0.2752 v 0.92568 h -0.54207 v 0.30856 h -0.27521 v 0.93403 h 0.27521 v 0.30856 h -0.27521 v 0.30856 h -0.26685 v -0.3086 h -0.27521 v 0.30856 h -0.2752 v 0.62547 h -0.27521 v 0.30856 h -0.81728 v 0.30856 h -0.26685 v 1.23425 h -0.95905 -0.13342 v -0.30856 h -0.55041 v 0.62546 H 688.662 v 0.30857 h 0.54206 v 0.39196 0.85063 h -0.2752 v 0.93402 H 688.662 v 0.61713 h -0.40864 v 0 h -0.14174 l 0.0166,0.31689 v 0 l -2.19329,-0.009 v 0.30856 h -0.2752 v 0.30856 h -0.81728 v 0.30856 h -0.2752 v 0.93403 h -0.54207 v 0.30856 h -0.2752 v 0.61713 h -0.81728 v 0.30856 h -0.26687 v 0.3169 h -0.55039 v 0.30857 h -0.26687 v 0.30856 h -0.27521 v 0.1251 0.18347 h -0.45033 -0.36695 v 0.15011 0.15845 h -0.37527 -0.45034 v 0.18348 0.1251 h -0.30021 -0.24185 v 0.30856 l -0.54208,0.009 v 0.30856 h -0.7172 -2.55189 v -0.30856 l -0.81727,-0.009 v -0.30856 h -1.36768 v 0.30856 l -0.2752,0.009 v 0.61712 h -0.26687 v 0.30856 h -0.27521 v 0.30856 h -0.2752 v 0.30856 h -1.35934 v 0.31691 h -0.54206 v -0.93403 h -0.27521 v 0.30856 h -0.2752 v 0.30856 h -0.27521 v 0.31691 h -0.54207 v 0.30856 h -2.00983 l 0.42532,1.34266 -0.42532,-1.34266 h -0.442 v -0.62547 h -1.09247 v -0.30856 h -0.54207 v 0.30856 h -0.82561 v -0.30856 h -0.26686 v 0.30856 h -2.45182 v 0.31691 h -0.81728 v 0.30856 h -0.27521 v 0.30856 h -0.55041 v 0.30856 h -0.54206 v 0.30857 h -0.81728 v -0.30857 h -1.09247 v -0.30856 h -0.80894 v 0.30856 h -0.27521 v -0.30856 h -0.81726 v -0.30856 h -0.55041 v 0.30856 h -0.26687 v -0.30856 h -0.2752 v 0.30856 h -0.27521 v 0.30856 h -1.63454 v -0.30856 h -0.27521 v -0.30856 h -0.26685 v -0.62547 h -0.27521 v -0.92568 h -0.2752 v -0.93403 h -0.26687 v -0.61712 h -0.27521 v -0.61712 h -0.2752 v -0.30858 h -0.54208 v -0.31689 h -1.63454 v 0.62547 h -0.27521 v 0.30856 h -0.2752 v 0.92568 h -0.26686 v 0.62547 h -0.2752 v 0.30856 h -0.27521 v 0.30856 h -0.26687 v 0.61712 h -1.63454 v -0.30856 h -0.55041 v -0.30856 h -0.2752 v -0.30856 h -0.26687 v -0.30856 h -1.36768 v -0.30856 h -0.81728 v 0.30856 h -3.54429 v 0.30856 h -0.54208 v 0.30856 h -0.55039 v 0.30856 h -0.54208 v 0.30856 h -0.2752 v 0.31691 h -0.26687 v 0.30856 h -0.2752 v 0.30856 h -0.26686 v 0.30856 h -0.2752 v 0.61713 h -0.27521 v 0.31689 h -0.54207 v 0.61714 h -0.27521 v 0.30856 h -0.2752 v 0.30856 h -0.26686 v 0.30856 h 0.26686 v 0.62547 h -0.26686 v 0.30856 h -0.2752 v 0.30856 h -0.27521 v 0.30856 h -0.2752 v 0.30856 h -0.26687 v -0.30856 h -0.27521 v 0.30856 h -0.2752 v 0.62547 h -0.54208 v 0.30856 h -0.27519 v 0.30856 h -0.26687 v 0.30857 h -0.2752 v 0.30856 h -1.90975 v -0.30856 h -0.26687 v -0.30857 h -0.27521 v -0.30856 h -0.2752 v -0.30856 h -0.27521 v -0.30856 h -0.26685 v 0.30856 h -0.55041 v -0.62547 h -0.26687 v 0.31691 h -0.27521 v 1.23425 h 0.27521 v 0.30856 h -0.27521 v 0.62546 h -0.2752 v 0.26687 0.65882 h -0.26687 v 0.30856 h -0.8256 v 0.30856 h -0.26687 v 0.62547 h -0.2752 v 0.30856 h -1.09249 v 0.30856 h -0.26685 v 0.30856 h -0.24185 -0.30856 v 0.31691 h -0.26687 v 0.29187 0.32525 h -0.27521 v 0.62547 h -0.2752 v 0.92568 h -0.26686 v 0.30856 h -0.2752 v 0.30857 h -0.27521 v 0.30856 h -0.54207 v 0.30856 h -0.27521 -1.63454 v -0.30856 h -0.54208 v -0.30849 h -0.54206 v -0.30857 h -1.09248 v -0.30856 h -1.36767 v 0.30856 h -0.27521 v 0.61713 h -0.54207 v 0.30856 h -0.27521 v 0.62547 h -0.26687 v 0.30856 h -0.2752 v 0.30856 h -0.26686 v 0.30856 h -0.28354 v 0.30856 h -0.26687 v 0.31691 h -0.55041 v 0.61712 h -0.54207 v 0.30856 h -0.54206 v 0.30856 h -0.27521 v 0.30858 h -0.54207 v 0.30856 h -0.55041 v 0.31689 h -0.26686 v 0.30856 h -0.2752 v 0.30858 h -0.27521 v 0.30856 h -0.54207 v 0.31689 h -0.27521 v 0.30023 h -0.2752 v 0.31691 h -0.26687 v 0.30856 h -0.2752 v 0.30856 h -0.81727 v 0.30856 h -0.81728 v -0.30856 h -1.35934 v 0.30856 h -1.09247 v 0.30856 h -1.90976 v -0.30856 h -0.27519 v 0.30856 h -0.26687 v -0.61712 h -0.27521 v -0.30856 h -0.54207 v -0.30856 h -0.27521 v -0.31691 h -0.2752 v -0.30023 h -0.26686 v -0.31689 h -0.2752 v -0.30856 h -0.27521 v -0.30858 h -0.81728 v -0.30856 h -0.2752 v 0.30856 h -1.35934 v 0.30858 h -0.2752 v 0.30856 h -0.26687 v 0.93403 h -0.27521 v 0.35025 0.88399 h -0.27519 v 1.24259 h -0.26687 v 0.30856 h -0.2752 v 0.30856 h -0.27521 v 0.30857 h -0.2752 v 0.31689 h -0.81728 v 0.30023 h -0.26686 v 0.31689 h -0.2752 v 0.30858 h -0.27521 v 0.30856 h -0.3586 -0.18347 v 0.25018 l -0.55041,0.0584 v -0.30856 h -0.54206 v 0.30856 h -0.27521 v 0.3169 h -0.54207 v -0.3169 h -2.17662 v 0.3169 h -0.55041 v -0.3169 h -0.2752 v 0.3169 h -0.81727 v 0.30857 h -0.54207 v -0.30857 h -1.35934 v -0.62546 h -1.36768 v 0.30856 h -1.90976 v -0.30856 h -0.27521 v -0.30856 h -0.80893 v 0.30856 h -0.2752 v 0.30856 h -2.45182 v -0.30856 h -0.81727 v 0.30856 h -0.55041 v -0.61712 h -0.54207 v -0.30857 h -0.27521 v -0.3169 h -0.81726 v -0.30022 h -0.54208 v -0.3169 h -0.82561 v -0.30857 h -0.80893 v 0.30857 H 570.616 v -0.30857 h -0.81726 v 0.30857 h -0.40864 -0.40864 v -0.30857 h -2.99388 v 0.30857 h -3.54431 v -0.30857 h -0.55041 v 0.30857 h -0.26681 v 0.3169 h -0.27521 v 0.30022 h -0.2752 v 0.3169 h -1.08414 v 0.30857 h -1.09248 v 0.30856 h -1.36768 v 0.30856 h -0.26687 v -0.30856 h -1.36769 v -0.30856 h -0.26685 v -0.30857 h -0.27521 v -0.3169 h -0.2752 v -0.30022 h -0.27521 v -0.93403 h -0.26686 v -0.30856 h -0.27521 v -0.30856 h -0.26686 v -0.30856 h -1.09248 v -0.62547 h -1.36767 v -0.30856 h -0.54208 v -0.30856 h -1.36769 v 0.30856 h -0.54206 v 0.30856 h -0.26687 v 0.62547 h -0.2752 v 0.30856 h -0.55041 v 0.30856 h -0.26686 v 0.30856 h -0.81728 v 0.30856 h -0.82561 v -0.30856 h -0.54206 v 0.30856 h -0.27521 v 0.30857 h -1.35935 v -0.30857 h -0.54206 v -0.30856 h -0.76724 -0.32524 v 0.30856 h -1.36768 v -0.30856 h -0.54207 v -0.30856 h -0.27521 v -0.30856 h -0.26687 v -0.30856 h -0.55039 v -0.31691 h -0.26687 v -0.30856 h -0.27521 v -0.30856 h -0.2752 v -0.61712 h -0.26687 v -0.30856 h -0.27521 v -0.31691 h -0.2752 v -0.61712 h -0.26686 v -0.61713 h -0.2752 v -0.30856 h -0.27521 v -0.3169 h -0.81728 v -0.30856 h -1.63454 v 0.30856 h -0.2752 v 0.93403 h -0.26687 v 0.30856 h -0.27519 v 0.3169 h -0.27521 v 0.30022 h -0.2752 v 0.31691 h -1.35936 v -0.31691 h -0.81726 v -0.30022 h -0.54208 v -0.3169 h -0.82561 v -0.30856 h -0.26686 v 0.30856 h -0.2752 v -0.30856 h -0.54208 v -0.30857 h -0.2752 v -0.93402 h -1.09247 v -0.30857 h -0.26687 v 0.30857 h -1.64289 v 0.30856 h -0.26686 v 0.3169 h 0.26686 v 0.30856 h -0.26686 v 0.61713 h -0.55041 v 0.3169 h -0.26687 v 0.30022 h -0.55041 v -1.23425 h -0.26685 v -0.30856 h -1.09249 v -0.3169 h -1.90975 v -0.30856 h -0.2752 v 0.62546 h 0.2752 v 1.24259 h 0.26687 v 0.30022 h 0.28354 v 0.31691 h 0.26687 v 0.92568 h -0.55041 v -0.30856 h -0.26687 v -0.30856 h -0.2752 v -0.30856 h -1.35934 v 1.23424 h -0.27521 v 0.62547 h -0.26687 v 0.30856 h -0.2752 v 1.23425 h 0.2752 v 0.3169 h 0.26687 v 0.30022 h 0.27521 v 0.3169 h 0.2752 v 0.30857 h 0.21683 l 0.0501,0.93402 h -0.26685 v 0.92569 h -0.27521 v 0.30856 h -0.13342 -0.40864 v 0.30856 h -0.55041 v 0.30856 h -0.54206 v 0.31691 h -0.55041 v 0.30856 h -0.54207 v 0.30856 h -0.54206 v 0.30856 H 514.733 v 0.30858 h -1.63456 v -0.30858 h -0.26686 v -0.30856 h -1.36769 v -0.30856 h -0.54206 v -0.30856 h -1.64289 v -0.31691 h -1.7096 -0.46702 v -0.30856 h -0.54206 v -0.30856 h -0.81728 v -0.30856 h -1.36767 v -0.30856 h -2.45183 v -0.30856 h -0.2752 v -0.93403 h 0.2752 v -0.61713 h -0.81727 v 0.30857 H 500.831 v 0.30856 h -0.54206 v 0.30856 h 0.27521 v 1.24259 h 0.26685 v 0.30856 h 0.27521 v 0.93403 h 0.2752 v 0.30856 h -0.2752 v 0.30856 H 500.831 v 1.85973 h -0.26685 v 3.41085 h -1.2843 -1.17586 v 0.30856 h -0.54208 v 0.30856 h -0.81726 v 0.30856 h -0.27521 v 0.30858 h -0.26687 v 0.93401 h -0.2752 v 0.61714 h -0.27521 v 0.30856 h -0.2752 v 0.30856 h -0.81728 v 0.30856 h -2.99389 v 0.31691 h -4.91198 v -0.31691 h -0.54206 v 0.31691 h -0.54207 v -0.93403 h -0.27521 v -0.30856 h -0.54206 v -0.30856 h -0.2752 v -0.30858 H 484.202 v 0.9257 h -0.54207 v -0.61712 h -0.27521 v -0.30858 h -1.35934 v -0.31689 h -0.5504 v -0.30856 h -0.80893 v -0.30856 h -0.55041 v 0.30856 h -0.27521 v -0.30856 h -0.54207 v -0.30858 h 0.26687 v -0.30856 h -1.08414 v -0.30856 h -1.09248 v -0.30856 h -0.55041 v -0.62547 h -0.26687 v -0.30856 h -0.54206 v 0.30856 h -0.27521 v 0.30858 h -0.2752 v 1.64288 0.84228 h -0.27521 v 0.30858 h -0.26687 v 0.30856 h -0.2752 v 0.30856 h -0.27521 v 0.30856 h -0.54206 v -0.30856 h -0.46701 -1.16753 v 0.61712 h -0.27521 v 0.31691 h -0.26686 v 0.92568 h 0.54207 v 0.30856 h 0.14174 0.13342 v 0.30857 h 0.26686 v 0.62546 h -0.26686 v 0.30856 h -0.70886 -0.10846 l -0.0334,0.30857 h -0.24185 v 0.30856 h -0.2752 v 0.30856 h -0.27521 v 0.93403 h 0.27521 v 0.92568 h 0.2752 v 0.30856 h 0.27521 v 0.30857 h -0.27521 v 0.93402 h -0.81728 v 0.30857 h -0.55041 v 0.30856 h -0.56708 -0.79226 v -0.30856 h -0.81726 v -0.30857 h -0.27521 v -0.30856 h -0.2752 v -0.30856 h -0.54208 v -0.3169 h -1.09246 v -0.30857 h -0.26687 v -0.30856 h -0.55041 v -0.30856 h -0.27521 v -0.30856 h -0.26687 v -0.61712 h -0.2752 v -1.85972 h -0.27519 v -0.93403 h -0.26687 v -0.30856 h -0.55041 v -0.30856 h -0.54208 v 0.30856 h -0.81726 v 0.30856 h -0.27521 v 0.30857 h -0.26687 v 0.3169 h -0.2752 v 0.30856 h -0.27521 v 0.79226 0.44199 h -0.26685 v 0.3169 H 459.667 v -0.3169 h -0.62547 -0.19181 v -0.30856 h -0.27521 v 0.30856 h -0.26687 v -0.30856 h -0.81726 v -0.30856 h -0.27521 v 0.30856 h -0.2752 v 0.30856 h -1.08413 v 0.3169 h -0.55041 v 0.30857 h -0.26687 v 0.66716 0.25852 h -0.27521 v 0.61712 h -0.80059 -0.56708 v 0.30857 H 452.854 v 0.3169 h -0.2752 v 0.51705 0.40864 h -0.27521 v 0.30856 h -0.26687 v 0.30856 h -0.2752 v 0.3169 h -0.26686 v 0.30857 h -0.2752 v 0.61712 h -0.27521 v 0.30856 h -0.26687 v 0.30856 h -0.55041 v 0.30856 h -0.2752 v 0.31691 h -0.26686 v 0.61712 h -0.2752 v 0.30856 h -0.27521 v 0.30856 h -0.54207 v 0.30858 h -0.27521 v 0.30856 h -0.26685 v 0.31689 h -0.27521 v 0.30856 h -0.2752 v 0.30857 h -0.27521 v 0.30856 h -0.26686 v 0.3169 h -1.36768 v 0.30856 h -1.08415 v -0.30856 h -0.22516 -0.32525 v -0.3169 h -0.81726 v -0.30856 h -0.54208 v -0.61713 h -1.36767 v -0.62545 h -0.54208 v -0.61714 h -0.2752 v -0.30856 h -0.26677 v -0.61712 h -0.27521 v -0.31691 h -0.27519 v -0.30856 h -2.45182 v 0.30856 h -0.2752 v -0.30856 h -0.54208 v 0.30856 h -0.2752 v -0.30856 h -0.26686 v 0.30856 h -0.2752 v -0.30856 h -0.54208 v -0.61712 h -1.09248 v -0.30856 h -1.90975 v 0.30856 h -0.54206 v 0.61712 h -0.55041 v 0.30856 h -0.15012 -0.11678 v 0.31691 h -0.2752 v 0.30856 h -0.27521 v 0.61712 h -0.2752 v 0.30856 h -1.90142 v 0.30858 h -0.2752 v -0.30858 h -0.5504 v -0.30856 h -0.26687 v -0.61712 h -0.2752 v 0.30856 h -0.81728 v -0.30856 h -0.54206 v -0.30856 h -0.27521 v -0.31691 h -6.27132 v 0.31691 h -0.54207 v 0.30856 h -0.27521 v 0.30856 h -0.2752 v 0.61712 h -0.54206 v -0.92568 h -0.81728 v -0.30856 h -0.27521 v -0.31691 h -0.26687 v -0.61712 h -0.2752 v -0.30856 h -0.81727 v 0.30856 h -2.45182 v -0.61712 h -0.55041 v -0.30856 h -2.99388 v 0.61712 h -0.27521 v 0.30856 h -0.2752 v 0.30856 h -0.54208 v 0.30856 h -0.2752 v 0.31691 h -0.26686 v 0.92568 h -0.2752 v 0.30856 h -0.55041 v -0.30856 h -0.26687 v -0.30856 h -0.27521 v -0.30856 h -0.26685 v 0.30856 h -0.82562 v -0.30856 h -0.26687 v -0.93403 h -0.27517 v -0.61712 h -0.54208 v -0.61712 h -0.27519 v -0.30857 h -0.2752 v -0.3169 h -0.26687 v -0.30856 h -0.27521 v -0.30856 h -1.63454 v -0.30857 h -1.36769 v -0.30856 h -1.90975 v 0.30856 h -0.54206 v 0.30857 h -0.55041 -1.90141 v -0.61713 h -0.54208 v -0.30856 h -0.2752 v -0.3169 h -0.54206 v -0.92569 h -1.09249 v 0.30856 h -0.2752 v 0.93403 h -0.27521 v 0.30856 h -0.26687 v 0.30856 h -0.25018 -0.30021 v 0.30857 h 0.2752 v 0.30856 h -0.2752 v 0.30856 h -0.81728 v -0.30856 h -1.90975 v -0.30856 h -0.54207 v -0.30857 h -0.54206 v -0.30856 h -0.27521 v -0.30856 h -0.2752 v -0.3169 h -0.81728 v -0.30857 h -0.54206 v -0.61712 h -0.54208 v -0.30856 h -0.2752 v -0.30856 h -0.27521 v -0.61713 h -0.54207 v -0.3169 h -0.27521 v -0.30856 h -0.2752 v -0.92569 h -0.26686 v -0.30856 h -0.82561 v -0.3169 h -0.81728 v -0.30857 h -0.54206 v -0.61712 h -0.27521 v -1.24259 h -1.08414 v -0.30856 h -0.27519 v -0.30856 H 378.157 v -0.30856 h -0.26687 v -0.30858 h -1.36769 v -0.31689 h -0.54206 v -1.23426 h -0.2752 v -0.30856 h -0.27521 v -0.62545 h -0.26687 v -0.30858 h -0.55041 v -0.30856 h -0.81726 v 0.30856 h -0.26687 v 0.30858 h -0.27521 v -0.30858 h -0.26687 v -0.61712 h 0.26687 v -0.30856 h -0.54207 v -0.62546 h -0.27519 v -1.54282 h -0.27521 v -2.16827 h -0.2752 v -0.31691 h -0.81728 v -0.30856 h -1.08413 v -0.30856 h -0.27521 v -0.30856 h -0.2752 v -0.30856 h -1.08414 v 0.30856 h -3.27744 v 0.30856 h -0.50037 -0.31691 v 0.30856 h -1.09247 v 0.62547 h -0.26687 v -0.31691 h -0.55041 v 0.31691 h -0.26685 v 0.30856 h -0.27521 v 0.30856 h -1.63454 v 0.68385 0.24185 h -0.80059 -0.29189 v 0.31689 h -0.54208 v 0.30856 h -0.55041 v -0.20014 -0.10846 h -0.81726 v 0.36693 0.55876 h -0.27521 v 0.30856 h -0.54207 v 0.30856 h 0.2752 v 0.30856 h 0.26687 v 0.93403 h -0.26687 v 0.30856 h -0.2752 v 0.30856 h -0.27521 v 0.30858 h -1.9014 v -0.61714 h -0.9674 -0.40029 v -0.30856 h -1.09248 v 0.30856 h -0.54206 v -0.30856 h -0.81728 v 0.30856 h -1.63454 v 0.61714 h -0.27521 v 0.31689 h -0.26687 v 0.30856 h -0.27519 v 0.68385 0.24184 h -0.2752 v -0.30857 h -0.27521 v 0.30857 h -0.26687 v 0.30856 h -0.55041 v 0.30856 h -0.26687 v 0.3169 h -0.2752 v -0.3169 h -0.81727 v 0.3169 h -0.2752 v 0.30857 h -0.27521 v 0.30856 h -0.54207 v 0.92568 h -0.26686 v 0.62547 h -0.2752 v 0.30856 h -0.27521 v 0.30856 h -0.2752 v 0.30856 h -0.26687 v 0.30858 h -0.27521 v 0.31689 h -0.2752 v 0.30856 h -0.26686 v 0.61714 h -0.2752 v 0.30856 h -0.81728 v 0.30856 h -0.2752 v 0.31689 h -0.27521 v 0.30858 h -0.26687 v 0.30856 h -1.63454 v 1.23424 h -0.27521 v 0.93403 h -0.2752 v 0.30856 h -0.26686 v 0.30857 h 0.26686 v 0.30856 h 0.2752 v 0.62545 h -0.2752 v 0.30858 h -0.54206 v 0.30856 h -0.26687 v -0.30856 h -0.28354 v 0.30856 h -2.17662 v -0.30856 h -0.34192 -0.20016 v -0.30858 h -0.2752 v -0.31689 h -0.5504 v 0.31689 h -0.26687 v 0.30858 h -0.81728 v -0.30858 h -0.54206 v 0.30858 h -0.2752 v 0.30856 h -0.2752 v 0.30856 h -0.27521 v 0.30856 h -0.26687 v -0.30856 h -1.63454 v -0.30856 h -0.81728 v 0.92568 h 0.26687 v 1.16753 l -0.26687,0.075 v 0.61712 h -0.27521 v 0.93403 h -0.2752 v 0.92569 h -0.81727 v 0.3169 h -0.81728 v 0.30856 h -0.54206 v 0.30857 h -0.81728 v 0.30856 h -0.2752 v 0.30856 h -0.27521 v -0.61712 h -0.26685 v -0.30857 h -0.55041 v -0.30856 h -0.41698 -0.1251 v 0.19181 0.42532 h -0.2752 v 0.30856 h -0.2752 v -0.30856 h -0.54208 v 0.30856 h -0.55039 v 0.30856 h -0.80895 v 0.30856 h -0.55041 v 0.30856 h -0.2752 v 0.62547 h -0.26686 v 0.30856 h -0.81728 v 0.30856 h -0.81726 v 0.30856 h -0.82562 v 0.30858 h -0.26687 v 0.30856 h -0.54207 v -0.30856 h -0.55041 v -0.30858 h -0.27519 v -0.30856 h -0.26687 v -0.30856 h -0.55041 v -0.30856 h -0.26687 v 0.61712 h -0.27521 v 0.30856 h -0.2752 v 1.55117 h -0.54206 v 0.30856 h -0.81728 v 0.30855 h -0.81726 v -0.30855 h -0.27521 v 0.30855 h -0.54207 v 0.30856 h -0.55041 v 0.31691 h -0.26687 v 0.30021 h -0.27521 v 0.31691 h -0.26685 v 0.30856 h -0.27521 v 0.30856 h -1.31765 -0.31689 v 0.30856 h -0.17514 -0.37527 v 0.23352 l -0.1251,0.0333 -0.15011,0.0417 v 0.61712 h -0.26687 v 0.31689 h -1.09247 v 0.30856 h -0.45034 -0.90901 v -0.30856 h -0.27521 v 0.30856 h -0.54206 v -0.62545 h -1.36768 v -0.30856 h -0.54206 v -0.30856 H 300.466 v -0.30857 h -0.2752 v -0.30856 h -0.26687 v 0.61713 h -0.27521 v -0.30857 h -1.90975 v -0.30856 h -0.54207 v 0.30856 h -0.27521 v -0.30856 h -0.81726 v -0.30856 h -0.27521 v 0.61712 h -0.26687 v -0.30856 h -0.2752 v -0.30856 h -0.27521 v -0.30856 h -0.2752 v 0.30856 h -0.26686 v 0.30856 h -0.81728 v 0.30856 h -0.5504 v 0.61713 h -0.26686 v 0.30856 h -1.36769 v 0.31689 h -0.26687 v 0.30856 h -1.09247 v 0.30858 h -1.63454 v 0.30856 h -0.81728 v 0.30856 h -0.55041 v -0.30856 h -0.26686 v 0.30856 h -0.55041 v 0.30856 h -1.08415 v 0.30856 h -1.09247 v 0.30857 h -0.82561 v 0.3169 h -0.80893 v 0.30856 h -0.55041 v 0.30856 h -0.2752 v 0.61713 h -0.26687 v 0.93402 h -0.27521 v 0.30857 h -0.26685 v 0.30856 h -0.28356 v 0.61712 h -0.26685 v 0.31691 h -0.27521 v 0.30856 h -0.26687 v 0.30856 h -0.55041 v 0.30856 h -0.54207 v 0.31691 h -0.27519 v 0.30021 h -0.27521 v 0.30858 h -0.26687 v 0.31689 h -0.81728 v 0.30856 h -0.2752 v 0.92569 h -0.27521 v 0.30856 h -0.26685 v 2.79374 h -0.27521 v 0.30856 h -0.2752 v 1.85971 h 0.10846 0.16679 v 0.61714 h 0.2752 v 1.24259 h 0.26686 v 1.23424 h 0.2752 v 0.92569 h 0.27521 v 0.93403 h 0.26687 v 1.23424 h 0.2752 v 0.93403 h 0.27521 v 0.30856 h 0.26687 v 0.62547 h -0.26687 v 0.30022 h -1.63455 v 0.3169 h -0.2752 v 0.30857 h -0.27521 v 0.61712 h 0.27521 v 0.30856 h 0.54206 v -0.30856 h 0.55041 v -0.30856 h 0.26687 v -0.30856 h 0.81728 v 0.30856 h 0.2752 v -0.30856 h 0.54206 v -0.30857 h 0.27521 v -0.61712 h 0.5504 v -0.3169 h 2.17662 v 0.3169 h 1.09247 v 0.30022 h 0.26687 v 0.3169 h 0.27521 v 0.30857 h 0.2752 v 0.30856 h 1.09247 v 0.30856 h 0.54208 v 0.30856 h 0.55041 v 0.30856 h 0.81728 v 0.31691 h 0.54206 v 0.61712 h 0.2752 v 0.30856 h 1.35934 v 0.30856 h 1.09248 v 0.30858 h 0.54206 v -0.30858 h 0.55041 v -0.30856 h 0.54208 v 0.30856 h 0.2752 v 0.30858 h 1.08414 v 0.30856 h 0.55041 v 0.30856 h 0.81728 v 0.31689 h 0.26685 v 0.61713 h 0.55041 v 1.24259 h 0.27521 v 0.30856 h 0.26687 v 0.30856 h 0.2752 v 0.30856 h 0.27521 v 0.61712 h 0.2752 v 0.61714 h 0.26686 v 0.31689 h 1.09248 v 0.9257 h 0.26687 v 0.30856 h 0.55041 v 0.61712 h 0.26686 v 0.31691 h 0.2752 v -0.31691 h 0.2752 v 0.31691 h 1.09249 v 0.30856 h 0.54206 v 0.30856 h 0.2752 v 0.30856 h 0.26687 v 0.61713 h 0.27521 v 0.30856 h 1.09247 v 0.62546 h 0.2752 v 0.30857 h 0.26687 v 0.30856 h 0.27521 v 0.62546 h -0.27521 v 0.92569 h -0.26687 v 1.55115 h 0.54208 v 0.30022 h 0.54207 v 0.3169 h -0.26687 v 0.30857 h 0.26687 v 1.23424 h -0.26687 v 0.93403 h 0.26687 v 0.61712 h 0.27521 v 0.30858 h 0.2752 v 0.30856 h 0.26686 v 1.24259 h 0.2752 v 0.30856 h 0.27521 v 0.61712 h 0.26687 v 0.61712 h 0.82561 v 0.30857 h 1.08414 v -0.30857 h 0.2752 v 0.62546 h 0.2752 v 0.61712 h 0.54206 v 0.30858 h 0.27521 v 0.30856 h -0.27521 v 0.61712 h 0.27521 v 0.30856 h 0.26687 v 0.62547 h 1.36769 v 0.30856 h 0.2752 v 0.30856 h 0.26686 v -0.30856 h 1.36769 v 0.30856 h 0.26685 v 0.61713 h 0.27521 v 0.3169 h 0.2752 v 0.30022 h 0.26687 v 0.3169 h 0.55041 v 0.30857 h 0.26687 v 0.30856 h 0.8256 v 0.30856 h 0.26687 v 0.30856 h 0.54208 v 0.30856 h 0.2752 v 0.31691 h 0.55041 v 0.30856 h 0.26686 v 0.30856 h 0.55041 v 0.61712 h 0.26686 v 0.30858 h -0.26686 v 0.93401 h 0.54207 v 0.30857 h 0.2752 v 1.85138 h -0.55041 v 0.31689 h -0.54207 v 1.54282 h -0.2752 v 0.93403 h 0.2752 v 0.30856 h -0.2752 v 0.92568 h -0.26686 v 0.30856 h 0.26686 v 0.30857 h -0.26686 v 0.30856 h 0.26686 v 0.93403 h 0.55041 v 0.62546 h 0.26686 v 0.92569 h 0.27521 v 0.30856 h 0.81726 v 0.30856 h 0.55041 v 0.61712 h 0.26687 v 0.31691 h 0.82562 v 0.30022 h 0.54206 v 0.30856 h 0.26687 v 0.3169 h 0.55041 v 0.30857 h 0.2752 v 0.30856 h 0.26687 v 0.30856 h 0.81727 v 0.30856 h 0.81728 v 0.31691 h 0.2752 v -0.31691 h 3.00222 v 0.9257 h 0.26687 v 0.31689 h -0.26687 v 0.30856 h -0.2752 v 0.9257 h 0.2752 v 0.30856 h 0.26687 v 0.30856 h -0.26687 v 0.62547 h 1.08415 v 0.30856 h 0.55041 v 0.30856 h -0.27521 v 0.30856 h -0.2752 v 0.30856 h 0.2752 v 0.30857 h 0.27521 v 0.30856 h 0.54206 v 0.30856 h 0.2752 v 0.3169 h 0.26687 v 0.61713 h 0.82562 v 0.30856 h 0.26685 v 0.61712 h 0.27521 v 0.31691 h 0.2752 v 0.61712 h 0.26687 v 0.30856 h 0.54208 v 0.30856 h 0.27519 v 0.61713 h -0.54206 v 0.30856 h 0.26687 v 0.3169 h 0.8256 v 1.23425 h 0.54207 v -0.30856 h 0.27521 v 0.61712 h 0.26687 v 1.23426 h 0.2752 v 0.62545 h 0.27521 v 0.61714 h -0.10014 -0.17513 v 0.30856 h 0.11678 0.15846 v 1.55114 h 0.26685 v 1.23426 h 0.27521 v 0.61712 h 0.54207 v 0.93403 h 0.28354 v 0.61712 h -0.28354 v 0.30856 h -0.26687 v 0.30857 h 0.81728 v 0.30856 h -0.55041 v 0.30856 h 0.28354 v 0.3169 h 0.26687 v 0.92569 h 0.27521 v 0.61712 h 0.26685 v 0.31691 h -0.54206 v 0.30023 h 0.27521 v 0.30856 h 0.26685 v 0.62545 h 0.55041 v 0.30856 h 0.27521 v 0.93403 h 1.35934 v 0.30022 h 0.54207 v 0.30856 h -0.27521 v 0.31691 h -0.54207 v 0.30856 h 0.81728 v 0.30856 h 0.55041 v 0.30856 h 1.08413 v 0.30856 h 0.27521 v 0.61714 h 1.36769 v 0.30856 h 1.08413 v -0.30856 h 0.81727 v 0.30856 h 0.2752 v -0.0833 -0.22517 h 0.10014 l 0.14174,-0.32524 1.09248,-2.45183 0.93403,-2.11823 -0.93403,2.11823 -1.09248,2.45183 0.57543,0.0166 v 0.30856 h 0.54207 v 0.30856 h 1.09247 v -0.30856 h 0.27521 v 0.62545 h 0.2752 v 0.9257 h 0.81728 v 0.30856 h -0.2752 v 0.61712 h -0.27521 v 1.55116 h -0.26687 v 0.30856 h -0.2752 v 0.61712 h -0.81727 v 0.30856 h 0.27519 v 0.30856 h 0.54208 v 0.31691 h 0.2752 v -0.31691 h 1.08414 v 0.93403 h 0.81728 v 0.61713 h 0.55041 v 0.30856 h 0.26685 v 0.30856 h 0.27521 v 0.30856 h 0.81728 v -0.30856 h 0.2752 v 0.92568 h 0.54208 v -0.30856 h 0.81726 v 0.30856 h 0.27521 v 0.31691 h 0.81728 v 0.30856 h 1.90974 v 0.30856 h 0.27521 v 0.30856 h 0.26685 v 0.9257 h -0.26685 v 0.93403 h 0.26685 v 0.30022 h -0.26685 v 0.3169 h 1.09247 v -0.3169 h 0.26687 v 1.86805 h 0.2752 v 0.30856 h -0.2752 v 0.30022 h 0.54207 v 0.31691 h 0.27521 v -0.31691 h 0.2752 v 0.62547 h 0.54206 v 0.61712 h -0.2752 v 0.62547 h 0.2752 v 0.92568 h 0.27521 v 3.09396 h 0.26687 v 0.30856 h -0.54208 v 0.61714 h 0.27521 v 0.30856 h 0.26687 v 0.61712 h -0.81728 v 1.55115 h -0.26686 v 0.61713 h -0.2752 v 0.93403 h -0.27521 v 0.30856 h -0.26687 v 0.30856 h -0.2752 v 0.30856 h 0.2752 v 0.30856 h -0.2752 v 0.30856 h -0.54208 v 0.93403 h -0.2752 v 0.61713 h -0.27521 v 0.30856 h -1.90974 v -0.30856 h -0.81727 v 0.30856 h -0.26687 v 0.61712 h -0.2752 v 0.93403 h 0.2752 v 0.30023 h 0.26687 v 0.62545 h 0.27521 v 0.61714 h -0.27521 v 0.30856 h -0.26687 v 0.30856 h -0.2752 v 0.61712 h 0.2752 v 0.30857 h 0.26687 v 0.30856 h 0.27521 v 1.85971 h -0.27521 v 0.30856 h -0.26687 v 1.24259 h -0.81726 v 0.30856 h -0.55041 v 0.30856 h -0.81728 v 0.30857 h -0.26692 v 2.47683 h 0.26687 v 0.30856 h 1.09249 v 0.30858 h 0.54206 v 0.61712 h 0.2752 v 0.62547 h 0.27521 v 0.30021 h 0.26687 v 0.62547 h 0.2752 v 0.92569 h 0.27521 v 0.30856 h 0.26685 v 2.47683 h 0.27521 v 1.23425 h 0.2752 v 1.24259 h -0.55041 v 0.30856 h -0.26685 v 0.30856 h -0.55041 v 1.23426 h 0.2752 v 0.31691 h 0.27521 v 0.30021 h 0.54206 v 0.31691 h 0.81728 v 0.30856 h 1.09247 v 0.30856 h 0.2752 v 0.30856 h 0.27521 v 0.61713 h 0.26687 v 0.61712 h 0.2752 v 1.55115 h -0.2752 v 0.92569 h -0.26687 v 0.61712 h -0.27521 v 0.61712 h 0.27521 v 1.55117 h 0.54207 v 0.61712 h 0.54208 v 0.30856 h 0.54206 v 0.31689 h 0.2752 v 0.30858 h 0.2752 v 0.92568 h 0.25019 l 0.60045,-1.00908 -0.60045,1.00908 0.0166,1.85137 h -0.26687 v 0.31691 h 0.81728 v 2.15993 h -0.26687 v 3.09397 h 0.26687 v 0.92568 h -0.26687 v 1.55115 h -0.28354 v 0.61713 h -0.26687 v 0.30856 h -0.2752 v 0.92568 h 0.2752 v 0.31691 h 0.26687 v 0.30856 h 0.28354 v 0.30856 h 0.26687 v 0.30856 h 0.27521 v 0.30857 h 0.54206 v 0.30856 h 0.2752 v 0.61712 h 0.26687 v 0.30856 h 0.27521 v 0.30856 h 0.2752 v 1.24259 h 0.27521 v 0.9257 h 0.26685 v 0.30856 h 0.81728 v 0.61712 h 0.2752 v 0.30857 h 0.26687 v 0.30856 h 0.27521 v 0.3169 h 0.55039 v 0.30856 h 1.35936 v 0.30857 h 0.81726 v 0.61712 h 0.0918 0.18346 v 0.61712 h 0.2752 v 0.93403 h 0.26687 v 0.30022 h 0.27521 v 0.50037 0.1251 h 0.2752 v 0.25854 0.66716 h 0.26686 v 0.92568 h 0.2752 v 1.24259 h 0.27521 v 0.6088 h -0.27521 v 0.31689 h 0.27521 v 0.30856 h -0.27521 v 0.61712 h 0.27521 v 0.30858 h 0.26687 v 0.30856 h 0.2752 v 0.30856 h 0.27521 v 0.30856 h 0.26687 v 0.31691 h 0.2752 v 0.30856 h 0.27521 v 0.61712 h 0.27519 v 0.30856 h 0.2752 v 0.30856 h 0.54208 v 0.30857 h 0.26687 v 0.30856 h 0.2752 v 0.30856 h 0.27521 v 0.30856 h 0.26685 v 0.30856 h 0.27521 v 0.31691 h 0.2752 v 0.30856 h 0.26687 v 0.61712 h 0.27521 v 0.30856 h 0.2752 v 0.30857 h 0.27521 v 0.30856 h 0.26685 v 2.16827 h 0.26687 v 0.61714 h 0.27521 v 0.92568 h 0.2752 v 0.61712 h 0.2752 v 0.61713 h 0.27521 v 0.93403 h 0.26687 v 0.61712 h -0.26687 v 0.30856 h 0.26687 v 0.93403 h 0.2752 v 0.30022 h 0.81727 v 0.30856 h 0.54207 v 0.3169 h 1.36768 v 0.30857 h 0.54207 v -0.30857 h 1.90975 v -0.3169 h 0.37529 0.17512 v -0.30856 h 0.54208 v 0.30856 h 0.26685 v 0.3169 h 0.27521 v 0.30857 h 0.2752 v 0.30856 h 0.26687 v 0.30856 h 0.27521 v 0.30856 h 0.55041 v 0.30856 h 0.26685 v 0.30856 h 0.27521 v 0.30858 h 0.2752 v 0.30856 h 0.26687 v 0.30856 h 0.2752 v 0.62547 h 0.26686 v 0.30021 h 0.28355 v 0.31691 h 0.26686 v 0.30856 h 0.2752 v 0.30856 h 0.27521 v 0.30856 h 0.26687 v 0.30857 h 0.2752 v 0.30856 h 0.27521 v 0.30856 h -0.27521 v 1.23425 h 0.27521 v 0.3169 h 0.54207 v 0.1251 0.17512 h 0.27519 v 0.3169 h 0.54208 v 0.30856 h 0.2752 v 0.30857 h 0.26687 v 0.92568 h 0.27521 v 0.61714 h 0.2752 v 0.61712 h -0.2752 v 1.24259 h -0.54208 v 0.30856 h -0.2752 v 0.61712 h 0.2752 v 0.30856 h 0.26687 v 5.56247 h 0.27521 v 1.24259 h 0.2752 v 0.30856 h 0.27521 v 0.61712 h 0.26685 v 0.61713 h 0.27521 v 1.24259 h 0.2752 v 0.30021 h 0.26687 v 0.62547 h -0.26687 v 0.9257 h 0.26687 v 0.30856 h 0.27521 v 0.30856 h 0.2752 v 0.30856 h 0.54206 v 0.30856 h 0.27521 v 0.30856 h 0.26687 v 0.30857 h 0.2752 v 0.31689 h 0.27521 v 0.61712 h 0.26686 v 0.30858 h 0.27521 v 0.30856 h 0.27519 v 0.61712 h 0.26687 v 0.30856 h 0.2752 v 0.30856 h 0.27521 v 0.30857 h 0.2752 v 0.30856 h 0.26687 v 0.30856 h 0.27521 v 0.30856 h 0.2752 v 3.71109 h 0.26686 v 0.61713 h 0.2752 v 0.62546 h 0.27521 v 0.30857 h -0.27521 v 0.30856 h 0.27521 v 0.14174 0.16679 h 0.26687 v 0.30856 h 1.09247 v 0.30856 h 0.2752 v 0.30856 h 0.26687 v 0.30857 h 0.55041 v 0.30856 h 0.27521 v 1.54282 h 0.26687 v 0.62545 h 0.2752 v 1.23426 h 0.27519 v 0.92568 h 0.26687 v 0.30857 h 0.27521 v 0.61712 h 0.2752 v 0.3169 h 0.26687 v 0.60878 h 0.27521 v 0.31691 h 0.2752 v 0.30856 h 0.27521 v 0.30856 h 0.54206 v 0.30856 h 1.09248 v 0.30856 h 0.26686 v 0.30858 h 0.5504 v 0.30856 h 0.26687 v 0.30856 h 0.27521 v 0.30856 h 0.2752 v 0.3169 h 0.26687 v 0.60879 h 0.27521 v 0.31689 h 0.27519 v 0.61712 h 0.2752 v 0.30858 h 0.26687 v 0.61712 h 0.27521 v 0.61712 h 0.2752 v 2.46851 h 0.26687 v 0.61712 h 0.27521 v 0.62547 h 0.2752 v 0.30856 h -0.55041 v 0.30856 h -0.26687 v 0.30856 h 0.26687 v 0.30856 h 0.27521 v 0.30856 h 0.81726 v 0.30857 h 0.27521 v 0.61712 h 0.54207 v 0.30856 h 0.26686 v 0.30856 h 0.28355 v 0.31691 h 0.26686 v 1.54281 h 0.2752 v 0.30856 h 0.54208 v -0.30856 h 0.2752 v -0.30857 h 0.27521 v -0.30856 h 0.26687 v 0.30856 h 0.27519 v 0.61713 h 0.2752 v 0.61712 h 0.26687 v 0.61712 h 0.27521 v 0.30858 h 0.2752 v 0.61712 h -0.2752 v 1.24259 h 0.2752 v 0.30856 h 0.2752 v 0.61712 h 0.26687 v 0.30857 h 0.27521 v 0.30856 h 0.26685 v 0.30856 h 0.27521 v 0.3086 h 0.2752 v 0.6171 h 0.26687 v 0.6172 h 0.27521 v 0.3085 h 0.2752 v 0.3086 h 0.27521 v 0.3169 h 0.54206 v 0.3085 h 0.2752 v 0.3086 h 0.26687 v 0.9257 h 0.27521 v 0.3086 h 0.2752 v 0.3085 h 0.54208 v -0.3085 h 1.35934 v 2.1599 h 0.2752 v 0.6254 h 0.27521 v 0.9174 h 0.2752 v 0.6255 h 0.26686 v 0.6171 h 0.2752 v 0.3086 h 0.26687 v 0.3085 h 0.82562 v 0.3086 h 0.81726 v -0.3086 h 0.54207 v -0.3085 h 0.54208 v -0.3086 h 0.55039 v -0.3086 h 0.54208 v 0.3086 h 0.2752 v -0.3086 h 0.26687 v 1.2343 h -0.26687 v 0.6254 h -0.2752 v 0.9174 h -0.26687 v 0.6671 0.5755 h 0.26687 v 0.3085 h 0.21683 1.41771 v -0.3085 h 4.63678 v 0.3085 h 0.27521 v 0.6172 h 0.2752 v 0.6171 h 0.26687 v 0.3086 h 0.2752 v 0.3085 h 0.54207 v 1.5428 H 435.683 v 1.0508 0.492 h 0.26686 v 0.3169 h 0.5504 v -0.3169 h 0.26687 v 0.3169 h 0.55041 v 0.3086 h 0.26686 v 0.6171 h 0.2752 v 0.9257 h -0.2752 v 0.3086 h -0.26686 v 0.3085 h -0.2752 v 0.6172 h 0.2752 v 0.6254 h 0.26686 v 0.3002 h 0.2752 v 0.3086 h 1.90975 v 0.3086 h 0.81728 v 0.3169 h -0.2752 v 0.3085 h 0.54207 v 0.6172 h -0.26687 v 0.3085 h -0.2752 v 0.3086 h 0.2752 v 0.3085 h 0.77558 1.95145 v 0.3086 h 0.54206 v 0.3086 h 0.55041 v 0.3085 h 0.26687 v 0.6172 h 0.27521 v 0.6171 h 0.2752 v 0.3086 h 0.26687 v 0.3085 h 0.27519 v 0.6255 h 0.2752 v 0.3085 h 0.27521 v 0.3086 h 0.26687 v 0.6171 h 0.2752 v 0.3086 h 0.26687 v 0.3085 h 0.27521 v 0.2419 l 0.10846,0.025 0.16679,0.042 v 0.1168 0.1918 h 0.2752 v 0.3086 h 0.26686 v 0.3085 h 0.2752 v 0.3086 h 0.54208 v 0.3085 h 0.2752 v 0.3086 h 1.0341 l 0.0584,0.3086 h 0.41698 1.21757 v 0.3085 h 0.26687 v 0.3086 h 0.55041 v 0.6255 h 0.2752 l 0.0667,0.3002 h 0.20016 v -0.3002 h 1.36768 v 0.3002 h 0.2752 v 0.3169 h 0.54208 v 0.3085 h 0.2752 v 0.3086 h 0.26686 v 0.3086 h 0.2752 v 0.3085 h 0.54208 v 0.3086 h 0.2752 v 0.3086 h 0.27521 v 0.3085 h 0.26687 v 0.3086 h 0.27519 v 0.3085 h 0.2752 v 0.3086 h 0.26687 v 0.6255 h 0.27521 v 0.3002 h 0.2752 v 0.3085 h 0.27521 v 0.6255 h 0.26686 v 0.9257 h 0.55041 v 1.8514 h 0.26686 v 0.3085 h -0.26686 v 0.6172 h 0.26686 v 0.6171 h -0.54206 v 0.3085 h -0.27521 v 0.6172 h 0.0834 0.19181 v 1.2426 h -0.54208 v 0.3002 h -0.82561 v 0.3169 h -0.26687 v 1.2342 h 0.26687 v 0.6172 h 0.2752 v 0.3085 h 0.27521 v 0.6172 h 0.2752 v 0.3085 h 0.81728 v 0.3086 h 0.26686 v 0.3085 h 0.2752 v 0.3086 h 0.27521 v 0.3086 h 0.26687 v 0.3169 h 0.2752 v 0.6171 h 0.27521 v 0.3085 h 0.26685 v 0.3086 h 0.27521 v 0.9174 h 0.2752 v 0.3169 h 0.26687 v 0.9257 h 0.27521 v 1.8513 h 0.2752 v 0.6171 h -0.55041 v 0.3086 h 0.27521 v 2.1683 h 0.2752 v 0.3085 h 0.26687 v 0.6172 h -0.26687 v 0.492 0.4337 h 0.26687 v 0.6171 h -0.26687 v 2.4685 h -0.2752 v 0.3086 h -0.54208 v 0.3085 h -0.2752 v 0.3169 h -0.27521 v 0.3002 h -0.26685 v 0.3086 h -0.27521 v 0.3169 h -0.2752 v 0.6171 h -0.26687 v 0.3086 H 460.76 v 0.6171 h -0.2752 v 0.3086 h -0.26686 v 1.0174 0.5254 h -0.2752 v 0.3085 h -0.27521 v 2.16 h 0.27521 v 0.3169 h -0.27521 v 0.3002 h 0.27521 v 0.3169 h 0.54206 v 0.3086 h 0.55041 v 0.3085 h 0.26687 v 0.3086 h 0.55041 v 0.3086 h 0.54206 v 0.3085 h 0.54207 v 0.3086 h 0.81728 v 0.3085 h 0.81726 v 0.3086 h 0.55041 v 0.3086 h 0.27521 v 0.3085 h 0.81728 v 0.3086 h 0.32523 0.21683 v 0.3086 h 0.54207 v -0.3086 h 1.91809 v -0.3086 h 0.54207 v -0.3085 h 2.45183 v 0.3085 h 0.2752 v 0.3086 h 0.54206 v 0.3086 h 0.27521 v 0.3085 h 0.26686 v 0.3086 h -0.26686 v 0.3085 h 0.26686 v 0.3086 h 0.81727 v 0.3086 h 0.2752 v 0.3085 h 0.54208 v 0.3086 l 0.40029,-0.01 0.96738,-0.025 v -0.2752 h 0.26687 v -0.3085 h 0.55041 v -0.3086 h 0.81728 v -0.3086 h 0.27521 v 0.3086 h 1.63454 v 0.6171 h 0.27521 v 0.3086 h 0.2752 v 0.3085 h 0.26686 v 0.3086 h 0.2752 v 0.3086 h 0.54208 v 0.3085 h 0.54206 v 0.3169 h 0.55041 v 0.3086 h 0.26686 v 0.3002 h 0.27521 v 0.3169 h 0.54207 v 0.3086 h 0.55041 v 0.6171 h 0.27521 v 1.2343 h -0.27521 v 0.9256 h 0.27521 v 0.9257 h 0.26685 v 0.3086 h 0.27521 v 0.3086 h 0.2752 v 0.3085 h 0.54208 v 0.3086 h 0.2752 v 1.2342 h 0.26686 v 0.3169 h -0.26686 v 0.6172 h 0.26686 v 0.6171 h 0.2752 v 0.3085 h -0.2752 v 0.6172 h 0.2752 v 0.6171 h 0.27521 v 0.6171 h -0.27521 v 0.6171 h -0.2752 v 0.3086 h 0.2752 v 0.6171 h -0.2752 v 0.3086 h -0.54206 v 0.3086 h -0.27521 v 0.3085 h 0.27521 v 2.4685 h 0.2752 v 2.1599 h 0.26686 v 0.317 h 0.2752 v 0.3085 h 0.27521 v 0.3086 h 0.2752 v 0.6171 h 0.26687 v 0.3086 h 0.54208 v 0.3085 h 0.27519 v 0.3086 h 0.2752 v 0.3085 h 0.27521 v 0.6172 h 0.26687 v 0.3085 h 0.2752 v 0.3086 h 0.27521 v 0.3086 h 0.54207 v 1.2342 h 0.27521 v 0.3086 h 0.26685 v 0.3085 h -0.26685 v 0.3086 h -0.27521 v 1.5428 h -0.2752 v 1.8597 h -0.26687 v 0.9257 h -0.27521 v 0.3086 h -0.2752 v 0.9257 h -0.15846 -0.10846 v 1.2342 h -0.2752 v 0.3086 h 0.2752 v 2.777 h 0.14175 0.12509 v 0.6255 h 0.27521 v 0.3002 h 0.2752 v 0.3086 h -0.55041 v 0.934 h -0.10013 -0.16679 v 0.3002 h -0.27521 v 0.6255 h -0.2752 v 1.5428 h -0.27519 v 1.2343 h 0.27519 v 0.3085 h 0.2752 v 0.3086 h -0.2752 v 1.5428 h 0.2752 v 0.9257 h 0.27521 v 0.6171 h 0.23351 l 0.0334,0.6171 h 0.2752 v 0.6172 h 0.27521 v 0.3085 h 0.26687 v 0.3086 h 0.55041 v 0.3085 h 0.26685 v 0.3169 h 0.55041 v 0.3003 h 0.27521 v 0.3085 h 0.26687 v 0.3086 h 0.2752 v 0.6171 h 0.26686 v 0.3169 h 0.55041 v 0.3002 h 0.26687 l 0.009,0.3169 h 0.26687 v 0.3086 h 0.27521 v 0.3002 h 0.54206 v 0.3169 h 0.55041 v 0.3086 h 0.26687 v 0.3086 h 0.82561 v 0.3085 h 0.26687 v 0.3086 h 0.81727 v 0.3085 h 0.55041 v 0.3086 h 0.81728 v 0.3086 h 0.54206 v 0.3085 h 0.54207 v 0.3086 h 0.27521 v 0.3085 h 0.2752 v 0.6172 h 0.27521 v 0.3085 h 1.08413 v 1.2343 h 0.27521 v -0.3086 h 1.09248 v -0.3085 h 1.08413 v 0.3085 h 0.27521 v 0.6172 h 0.54206 v -0.3086 h 1.09248 v 0.3086 h 1.09247 v 0.3085 h 1.09249 v 0.3086 h 1.08413 v 0.3085 h 1.36769 v -0.3085 h 2.45181 v -0.3086 h 1.36769 v 0.3086 h 1.35934 v 0.3085 h 1.35934 v -0.3085 h 0.55041 v -0.3086 h 0.54207 v -0.3085 h 0.27521 v -0.3086 h 0.54206 v -0.6171 h 0.55041 v -0.6172 h 0.54207 v -0.3085 h 0.26687 v -0.3086 h 0.28354 v -0.3086 h 0.26687 v -0.9256 h 0.27521 v -0.6172 h 0.27519 v -0.3085 h 0.26687 v -0.3086 h 0.2752 v -0.3085 h 0.2752 v -0.3086 h 0.26687 v -0.3086 h 0.55041 v -0.3169 h 0.26686 v -0.3002 h 0.2752 v 0.3002 h 0.27521 v -0.3002 h 0.54207 v -0.3086 h 0.27521 v 0.3086 h 1.63454 v 0.3002 h 0.27521 v 0.3169 h 0.26687 v 0.3086 h 1.09247 v -0.3086 h 0.2752 v -0.6171 h 0.26687 v -3.7111 h 0.27521 v -0.3085 h -0.27521 v -0.3086 h 0.27521 v -0.3086 h 0.2752 v -0.3085 h 3.81116 v -0.3086 h 2.46016 v 0.6171 h 0.26686 v 0.3086 h 0.2752 v 0.3086 h 0.55041 v 0.6171 h 0.26687 v 0.3085 h 0.27521 v 0.3169 h 0.2752 v 0.3003 h 0.26686 v 0.3085 h 0.2752 v 0.3086 h 1.90975 v 0.3169 h 2.17662 v -0.3169 h 0.2752 v -0.9174 h 0.27521 v -0.934 h 0.26687 v -0.3085 h 1.09247 v 0.3085 h 0.2752 v -0.3085 h 0.54208 v 0.3085 h 0.54207 v 0.3086 h 0.27521 v 0.6254 h 0.2752 v 0.6088 h 0.26686 v 0.3086 h 0.2752 v 0.6171 h 0.27521 v 0.3169 h 0.2752 v 0.3002 h 0.26687 v 0.3169 h 0.55041 v 0.6088 h 0.26686 v 0.3169 h 0.82561 v 0.3086 h 2.17662 v -0.3086 h 0.81728 v -0.3169 h 0.27519 v -0.3002 h 0.26687 v -0.3086 h 0.55041 v -0.3169 h 2.17662 v -0.3002 h 0.2752 v -0.3169 h 0.81727 v -0.3002 h 0.26687 v -3.094 h 0.2752 v -0.3085 h 0.27521 v -0.3086 h 3.27743 v 0.3086 h 1.9014 v -0.3086 h 0.27521 v -0.3086 h 0.2752 v -0.3085 h 0.26687 v -1.8514 h 0.27521 v -1.2342 h 0.2752 v -0.9257 h 0.26687 v -0.3086 h 0.27521 l 0.0417,-0.3086 h 0.2335 v -0.3085 h 0.54207 v -0.3086 h 0.54207 v -0.3085 h 0.55041 v -0.3086 h 0.54206 v -0.3086 h 0.55041 v -0.3169 h 0.26687 v -0.2999 h 0.55041 v -0.3169 h 0.26686 v -0.3086 h 0.2752 v -0.6171 h 0.27521 v -1.5345 h 0.26687 v -0.3169 h 3.55264 v -0.3085 h 2.71868 v -0.3086 h 1.36767 v -0.3086 h 0.54208 v -0.3085 h 0.54207 v -0.3086 h 0.55041 v -0.3085 h 0.27521 v -0.3086 h -0.27521 v -0.3086 h 0.54206 v -0.3085 h 1.09249 v -0.3086 h 0.81726 v -0.3086 h 0.27521 v -0.3085 h 1.08415 v -0.3086 h 1.36767 v -0.3085 h 0.54208 v -0.3086 h 1.36767 v -0.3169 h 0.81728 v -0.3002 h 1.09247 v -0.3086 h 0.26687 v -0.3086 h 0.55041 v -0.3168 h 0.54206 v -0.3003 h 0.2752 v -0.3169 h 0.26687 v -0.3002 h 0.81728 v -0.3169 h 0.55041 v -0.3086 h 0.54206 v -0.3002 h 0.54208 v -0.3169 h 0.55041 v -0.3086 h 0.81726 v -0.3085 h 0.81728 v -0.3086 h 0.27521 v -0.3085 h 0.2752 v -0.3086 z"
       id="path831-5"
       style="fill:#000000;fill-opacity:1;stroke:#000000;stroke-width:0.817274" />
  </g>
</svg>
