<?xml version="1.0" encoding="UTF-8" standalone="no"?>
<svg
   xmlns:dc="http://purl.org/dc/elements/1.1/"
   xmlns:cc="http://creativecommons.org/ns#"
   xmlns:rdf="http://www.w3.org/1999/02/22-rdf-syntax-ns#"
   xmlns:svg="http://www.w3.org/2000/svg"
   xmlns="http://www.w3.org/2000/svg"
   xmlns:sodipodi="http://sodipodi.sourceforge.net/DTD/sodipodi-0.dtd"
   xmlns:inkscape="http://www.inkscape.org/namespaces/inkscape"
   version="1.0"
   width="1024.000000pt"
   height="1024.000000pt"
   viewBox="0 0 1024.000000 1024.000000"
   preserveAspectRatio="xMidYMid meet"
   id="svg126"
   sodipodi:docname="Teneriffa.svg"
   inkscape:version="1.0.1 (3bc2e813f5, 2020-09-07)">
  <defs
     id="defs130" />
  <sodipodi:namedview
     pagecolor="#ffffff"
     bordercolor="#666666"
     borderopacity="1"
     objecttolerance="10"
     gridtolerance="10"
     guidetolerance="10"
     inkscape:pageopacity="0"
     inkscape:pageshadow="2"
     inkscape:window-width="1920"
     inkscape:window-height="974"
     id="namedview128"
     showgrid="false"
     inkscape:zoom="0.28934058"
     inkscape:cx="557.47563"
     inkscape:cy="958.17139"
     inkscape:window-x="-11"
     inkscape:window-y="-11"
     inkscape:window-maximized="1"
     inkscape:current-layer="g1103"
     inkscape:document-rotation="0" />
  <metadata
     id="metadata2">
Created by potrace 1.10, written by Peter Selinger 2001-2011
<rdf:RDF>
  <cc:Work
     rdf:about="">
    <dc:format>image/svg+xml</dc:format>
    <dc:type
       rdf:resource="http://purl.org/dc/dcmitype/StillImage" />
  </cc:Work>
</rdf:RDF>
</metadata>
  <g
     stroke="#000000"
     stroke-width="0.98"
     fill="#ffffff"
     id="g1103"
     transform="matrix(1.2902075,0,0,1.2902075,-353.12606,-59.414171)"
     style="fill:#000000;fill-opacity:1">
    <path
       d="m 758.7868,581.96753 -0.2643,-17.8183 8.63386,-43.22072 32.11268,-53.0291 6.68097,-23.0971 8.92023,-8.6853 9.5589,-7.2242 3.1936,-10.0949 -2.4448,-9.8452 -5.4695,-16.6584 0.3303,-20.80646 10.1463,-18.49378 13.729,-10.07285 17.5468,-6.06425 27.4653,-20.07961 27.1643,-25.2702 20.432,-17.62012 16.4455,-26.99551 73.18956,-35.67342 29.9983,-19.12518 9.2212,-27.96461 -23.3393,-11.23283 -60.70136,19.1986 -96.3968,-2.57695 -16.0562,-5.38882 -6.2772,18.42772 -18.1121,6.80577 -22.0619,3.502 -17.66415,8.6926 -8.09057,5.43287 -18.67734,8.8174 -3.66352,6.0349 -2.29796,14.36775 -6.03488,8.49436 -19.31607,15.21206 -46.46576,36.57644 -20.01351,13.98597 -20.82847,2.0043 -10.62345,4.18478 -25.27021,2.51086 -19.94012,14.08143 -19.55834,1.41694 -39.55718,3.20833 -19.56569,-4.25085 -22.75932,7.85564 -32.08332,9.41942 -21.70947,9.67639 -28.25093,7.12147 -12.27536,0.24228 -11.51182,-3.0615 -23.33199,-14.27964 -19.4629,-7.43717 -53.90291,22.18668 -23.86059,13.53814 9.34603,19.60235 32.84684,29.5798 12.06979,23.1044 13.80977,19.1619 3.21568,9.3388 6.76172,43.6316 10.22702,13.07572 16.10039,13.729 14.96977,16.4235 6.64426,21.2469 7.96576,15.7407 38.60277,33.6838 13.56015,15.0578 1.93821,7.0408 1.80607,18.5966 3.01744,8.0905 7.73084,6.1597 9.05967,3.2597 -1.64454,11.8496 2.17315,9.2139 10.75562,13.6849 16.16647,2.7238 18.69201,-6.4827 22.76667,-7.9218 54.12316,-18.4717 33.5737,6.2698 9.33865,-12.3414 14.61737,-20.8725 64.07118,-57.2656 15.57915,-17.1061 z"
       id="path831"
       style="fill:#000000;fill-opacity:1;stroke:#000000;stroke-width:0.719489" />
  </g>
</svg>
