<?xml version="1.0" encoding="UTF-8" standalone="no"?>
<svg
   xmlns:dc="http://purl.org/dc/elements/1.1/"
   xmlns:cc="http://creativecommons.org/ns#"
   xmlns:rdf="http://www.w3.org/1999/02/22-rdf-syntax-ns#"
   xmlns:svg="http://www.w3.org/2000/svg"
   xmlns="http://www.w3.org/2000/svg"
   xmlns:sodipodi="http://sodipodi.sourceforge.net/DTD/sodipodi-0.dtd"
   xmlns:inkscape="http://www.inkscape.org/namespaces/inkscape"
   version="1.1"
   width="1240"
   height="1240"
   viewBox="0 0 1240 1240"
   id="svg8"
   sodipodi:docname="Tierra_del_Fuego.svg"
   inkscape:version="1.0.1 (3bc2e813f5, 2020-09-07)">
  <metadata
     id="metadata14">
    <rdf:RDF>
      <cc:Work
         rdf:about="">
        <dc:format>image/svg+xml</dc:format>
        <dc:type
           rdf:resource="http://purl.org/dc/dcmitype/StillImage" />
        <dc:title></dc:title>
      </cc:Work>
    </rdf:RDF>
  </metadata>
  <defs
     id="defs12" />
  <sodipodi:namedview
     pagecolor="#ffffff"
     bordercolor="#666666"
     borderopacity="1"
     objecttolerance="10"
     gridtolerance="10"
     guidetolerance="10"
     inkscape:pageopacity="0"
     inkscape:pageshadow="2"
     inkscape:window-width="1920"
     inkscape:window-height="974"
     id="namedview10"
     showgrid="false"
     inkscape:zoom="0.333596"
     inkscape:cx="-460.15974"
     inkscape:cy="731.45416"
     inkscape:window-x="-11"
     inkscape:window-y="-11"
     inkscape:window-maximized="1"
     inkscape:current-layer="svg8" />
  <g
     id="g6"
     style="fill:#000000;fill-opacity:1"
     transform="matrix(1.041079,0,0,1.041079,-4.689024,203.58606)">
    <g
       stroke="#000000"
       stroke-width="0.98"
       fill="#ffffff"
       id="g4"
       style="fill:#000000;fill-opacity:1">
      <path
         d="m 588.36,705.04 -0.27,-0.32 -6.97,-2.79 -3.77,-2.45 -1.19,-2.93 2.13,-0.93 10.09,4.55 1,0.44 7.11,8.05 5.28,8.3 3.17,2.87 4.5,1.17 33.3,-2.96 2.35,-2.94 0.55,-2.55 -0.64,-6.85 2.27,-2.77 5.19,2.06 9.21,5.9 16.53,1.61 7.97,6.66 25.25,4.93 45.79,5.47 22.02,-1.82 36.05,5.32 52.3,3.9 14.81,7.07 19.87,2.36 4.87,1.84 15.35,11.42 2.88,3.47 2.96,4.57 3.62,4.16 5.13,3.12 15.52,6.04 15.57,0.29 4.45,-1.72 9.25,-2.59 0.58,-4.6 -0.58,-5.16 9.46,-3.17 20.91,-0.64 13.76,0.8 9.72,-3.49 11.72,-3.5 4.26,-4.61 3.11,-5.18 -3.76,-4.27 -2.61,-4.56 3.7,-2.59 11.18,2.78 4.26,-3.47 11.48,4.76 7.12,-2.92 3.43,0.25 3.15,0.25 2.25,0.52 0.85,1.64 0.65,1.92 0.31,2.43 -0.41,4.32 0.1,1.5 1.92,3.9 2.33,2.36 2.88,0.79 3.54,-0.86 2.41,-2.07 1.14,-2.82 0.83,-3.05 1.43,-2.55 5.98,-1.77 14.03,1.43 3.86,-5.67 -1.39,-5.92 3.94,-3.06 5.91,-0.12 4.67,2.91 1.08,3.76 -0.22,3.38 0.65,2.43 3.76,0.91 2.13,-0.54 2.53,-1.55 2.1,-2.33 4.54,-18.56 1.51,-2.06 5.53,-5.14 3.82,-2.2 -0.24,-2.92 -0.96,-3.37 -0.2,-2.82 1.34,-2.2 5.88,-5.6 -0.76,-1.66 -0.98,-3.08 -0.75,-1.61 5.28,-16.02 1.23,-2.59 3.01,-1.9 3.27,-4.25 1.47,-4.24 -2.37,-1.9 -26.64,-4.19 -12.2,5.46 -4.6,0.14 -8.78,-1.41 -41.81,6.53 -12.1,-3.56 -13.23,-0.92 -1.83,-0.81 -5.91,-5.33 -2.43,-0.78 -4.76,-0.49 -2.39,-0.78 -59.5,-30.07 -15.5,-10.15 -7.13,-2.53 -5.24,-1.07 -5.88,-2.27 -1.75,-7.29 -6.23,-3.48 -4.5,-7.52 -17.3,-17.22 -8.27,-17.32 -11.24,-11.4 -24.39,-10.98 -6.2,-3.82 -3.17,-5.4 -11.43,-7.65 -19.68,-9.6 -27.2,-20.57 -47.45,-42.98 -2.05,-4.34 -0.76,-7.03 1.86,-5.16 4.82,-1.28 -1.57,-3.29 -12.48,-6.76 -5.18,-3.85 -3.91,0.96 -4.52,0.36 1.76,-4.24 -0.66,-4.51 -3.8,-4.46 -12.03,-9.48 -32.9,-36.81 -1.53,-3.76 -9.57,-19.04 -1.4,-5.88 -1.83,-13.47 -2.16,-5.49 -0.65,-2.37 1.06,-10.03 -2.69,-5.72 -3.38,-9.24 -13.51,-8.72 -18.5,1.86 -11.91,-3.25 -7.95,-2.62 -7.05,-0.64 -9.94,-8.57 -7.29,-8.58 -2.22,-10.56 1.52,-10.12 5.91,-13.42 10.51,-9.9 8.68,-10.9 5.04,-5.05 5.43,-4.28 4.26,-2.34 3.49,-0.4 4.23,2.52 4.79,20.69 1.99,6.11 1.87,2.96 0.82,-4.65 -0.59,-4.37 -6.37,-30.75 -3.45,-10.68 -4.43,-9.05 -5.27,-7.51 -11.87,-10.73 -3.09,-3.99 -11.2,-20.57 -11.28,-16.78 -1.42,-2.67 -3.42,-9.19 -1.58,-2.44 -5.67,-4.19 -0.14,-0.09 -4.84,-3.67 -3.04,-3.14 -12.49,-16.69 -3.72,-2.42 -2.01,-0.05 -2.36,2.73 -1.39,4.87 -2.17,4.67 -3.92,3.89 -7.26,5.23 -7.45,4.84 -7.84,3.07 -9.42,-0.22 -11.84,8.63 -8.96,0.98 -7.92,-4.58 -6.93,-8.14 -8.72,-16.97 -3.65,-4.72 -3.63,-6.68 -1.7,-4.31 -2.86,-5.29 -5.13,-10.2 -3.84,-4.14 -3.69,-1.21 -2.08,0.96 -1.9,1.16 -2.03,1.73 -3.3,1.67 -6.18,5.02 -13.34,6.07 -3.46,3.23 -2.47,4.66 -0.95,6.49 0.99,5.53 1.85,4.92 1,5.34 1.81,7.49 -2.36,3.71 -2.37,3.71 -3.83,5.12 -5.62,8.84 -3.25,4.56 -1.51,4.3 -2.37,3.71 -3.53,3.97 -8.67,1 -6.94,1.31 -5,4.81 -10.08,13.94 -6.65,0.44 -8.9,-2.21 -7.89,-8.83 -11.77,-15.56 -2.44,-6.97 -5.46,-0.71 -6.68,2.14 -13.18,-0.48 -16.3,2.88 -8.21,3.55 -1.69,2.38 0.06,2.94 1.74,0.6 13.8,-0.49 9.22,6.14 2.69,7.86 1.72,12.18 -5.02,4.21 -3.03,5.41 0.48,3.78 4.41,-2.5 2.12,-3.7 3.25,-4.08 2.57,-2.9 1.78,-1.12 2.52,0.33 4.67,1.84 0.93,0.82 1.84,2.43 1.22,0.54 1.02,-0.42 0.9,-0.84 0.98,-0.68 1.29,0.12 3.51,2.36 3.69,6.68 -1.55,10.1 -1.89,4.85 -1.27,5.18 -3.1,8.9 -8.54,5.03 -10.39,9.32 -9.28,-1.1 -4.67,1.05 -1.96,-2.96 2.98,-2.82 0.4,-4.35 -2.54,-2.67 -2.17,-3.13 2.35,-3.82 2.71,-3.71 -0.2,-3.48 -2.3,-0.92 -2.06,1.39 -3.88,3.96 -5.63,4.2 -4.18,3.95 -1.28,4.32 -1.02,5.19 0.08,7.56 -1.45,10.13 0.69,6.43 0.39,6.7 -0.14,4.96 -2.15,3.73 -0.99,3.77 -1.68,7.54 0.14,14.92 -2.04,10.76 1.17,5.88 1.33,4.53 2.87,5.04 3.98,3.8 4.53,2.37 4.55,0.9 3.9,1.44 2.8,3.57 4.6,8.85 3.78,4.62 4.07,3.1 4.47,1.71 4.89,0.52 4.01,-1.37 7.03,-6.49 3.91,-2.09 10.01,-2.17 6.43,2.7 5.98,-5.37 6.38,-5.36 9.09,-3.71 16.1,-1.23 22.44,-6.99 36.77,-0.58 11.35,-0.63 7.83,0.45 0.31,2.17 3.07,7.71 0.69,7.45 1.83,10.23 -0.93,12.15 -6.39,8.57 -50.36,33.44 -26.92,8.56 -12.57,-2.22 -6.33,1.05 -1.68,5.08 -9.51,2.55 -13.58,7.19 -13.56,7.78 -6.63,6.4 -1.75,14.9 1.23,6.49 3.86,11.84 1.53,14.29 1.88,4.53 2.66,3.88 3.04,5.49 3.53,12.62 1.63,11.82 2.92,10.24 7.4,7.84 7.08,1.54 8.21,5.58 0.8,0.8 1.54,0.75 4.97,5.46 46.25,18.06 5.52,0.05 2.85,0.7 1.87,3.76 3.29,4.78 1.32,0.99 4.2,0.92 39.39,18.27 8.16,7.21 6.68,7.74 3.86,3.15 13.93,2.67 8.77,4.7 8.97,7.22 -0.46,2.72 -0.88,3.1 0.06,2.43 0.25,2.79 -2.55,0.9 -5.39,-0.63 -5.1,-4.91 -2.11,-1.26 -2.73,-0.43 -8.56,0.43 -1.73,1.31 -1.19,2.82 -0.92,2.76 -0.9,1.27 -0.05,3.49 2.61,16.26 0.45,4.89 -2.15,5.88 -2.03,-1.6 -3.56,-9.46 -3.86,-4.16 -4.01,-0.53 -3.79,2.06 -3.19,3.77 -2.67,5.5 -2.3,5.98 -2.63,4.87 -3.64,2 -3.53,2.85 0.09,6.65 0.74,7.51 -1.55,5.51 -1.9,-1.66 -1.2,-2.34 -0.2,-2.88 1.04,-3.36 -4.72,-7.22 6.45,-10.18 1.14,-2.96 1.46,-5.65 1.59,-2.77 1.93,-1.85 6.36,-4.08 2.92,-4.04 2.62,-4.76 2.97,-3.98 3.96,-1.7 1.67,-1.75 -0.21,-3.93 -1.08,-4.23 -1.02,-2.47 -1.66,-1.46 -6.63,-2.61 -36.86,-25.44 -3.89,-1.4 -3.58,1.11 -3.76,4.41 -0.97,4.98 2.1,4.8 5.33,7.66 1.03,6.49 -2.41,1.68 -3.92,-1.68 -3.47,-3.56 -0.59,-1.62 -0.37,-3.62 -0.8,-1.76 -0.97,-0.85 -1.92,-0.8 -0.78,-0.58 -3.35,-3.39 -1.37,-1.8 -1.08,-2.76 0.93,-3.24 -2.49,-4.43 -6.84,-6.89 -9.58,-3.87 -5.09,-3.58 -10.16,-3.79 -4.16,0.12 -3.07,5.02 -0.89,4.57 0.72,1.24 1.66,0.36 1.95,2.15 1.05,2.28 0.34,1.4 -0.09,3.43 0.9,3.22 4,2.55 1.29,3.26 0.67,0.59 0.33,0.84 -2.46,5.87 1.15,5.09 2.82,3.58 3.5,3.06 3.17,3.64 2.43,3.83 0.95,2.82 0.17,3.5 -0.93,2.69 -3.13,6.27 -0.08,2.33 1.31,2.65 0.44,1.95 -0.58,1.68 -1.75,1.89 h -1.35 l -2.59,-4.16 -1.98,-1.02 1.39,-4.18 1.55,-6.17 -0.08,-5.59 -4.62,-3.05 -1.11,-1.17 -1.14,-0.49 -1.94,2.09 -2.21,1.87 -0.76,0.37 -0.83,0.92 -2.82,4.08 -1.63,1.12 -0.06,-12.68 0.65,-1.55 1.28,-1.89 0.39,-4.22 -0.74,-4.22 -2.11,-1.89 -2.99,-1.17 -0.57,-2.76 0.15,-3.39 -0.85,-3.05 -2.26,-1.8 -2.41,-0.16 -4.9,1.96 2.48,-8.09 -3.71,-2.18 -0.52,-4.04 0.69,-5.05 -0.01,-5.18 -1.77,-3.98 -2.92,-3.41 -5.97,-4.59 -3.63,-2 -3.04,-0.41 -2.98,1.3 -3.47,2.95 -2.87,3.91 -1.07,3.29 -1.2,2.75 -3.25,2.42 -5.93,2.03 -1.08,2.66 2.39,5.42 3.38,3.12 12.11,2.98 3.66,3.12 0.33,2.32 -2.28,1.67 -8.61,1.53 -1.55,0.9 1.35,10.81 -2.35,-1.12 -7.23,-6.83 -6.01,-9.45 -3.32,-3.58 -7.42,-2.33 -1.93,-2.18 -1.8,-2.66 -2.11,-2.32 -17.7,-9.57 -20.08,-10.85 -67.98,-42.35 0.77,3.9 1.89,4.72 2.5,3.9 2.6,1.61 3.23,1.18 8.06,8.94 -6.15,-2.09 -3.2,-1.88 -2.59,-2.27 -1.19,2.19 1.91,5.07 1.22,6.97 2.06,7.04 4.39,5.03 6.25,1.88 25.85,-1.59 13.92,3.18 4.38,3.73 7.3,9.96 2.12,5.97 -2.7,5.45 2.06,2.32 7.4,4.79 0.12,7.08 0.47,2.76 1.1,2.45 3.76,3.93 30.36,14.44 7.59,7.82 9.56,5.27 3.96,4.5 -7.81,-1.36 -14.63,-10.6 -7.25,-2.52 1.98,6.41 2.53,4.3 3.26,3.06 4.16,2.56 -2.82,7.22 -5.41,-4.08 -8.44,-13.35 -2.93,-3.02 -8.58,-6.07 -7.63,-2.43 -3.31,-3.2 -6.17,-7.86 -5.96,-3.15 -2.34,-2.62 -2.19,-1.84 -0.73,-0.34 -0.51,-0.58 -0.29,-3.18 -0.35,-1.43 -3.35,-1.99 -4.38,2.52 -4.23,4.54 -2.88,4 -4.41,8.78 -3.47,11.24 -0.73,11.54 3.88,9.58 4.88,4.96 1.58,2.14 1.29,3.29 -1.29,0.76 -7.41,-2.54 -3.62,-3.84 -6.08,-9.05 -1.38,3.43 -1.6,9.17 -1.21,1.85 -1.31,-1.39 -0.96,-3.23 -0.55,-3.75 -0.2,-2.87 1.34,-5.33 9.42,-14.21 1.41,-4.72 -0.17,-3.39 -0.77,-3.21 -0.47,-4.05 -0.34,-0.94 -0.68,-0.88 -0.48,-1.21 0.21,-2.13 0.64,-0.59 2.72,-1.5 0.89,-0.78 15.98,-23.58 -1.52,-1.21 -1.53,-0.68 -3.52,-0.29 -1,-0.44 -1.83,-1.5 -1.26,0.1 -0.65,0.73 -1.11,2.61 -0.61,0.68 -6.8,2.39 -3.58,-0.46 -0.37,-4.11 -4.12,-3.56 -5.07,-1.08 -10.34,0.58 -4.09,1.83 -3.95,3.58 -3.92,2.42 -4.02,-1.59 2.8,14.96 0.38,7.99 -2.69,3.5 -2.05,1.06 -0.81,2.77 v 7.57 l -1.08,0.92 -6.66,-6.07 -19.81,-4.51 -3.42,0.49 0.92,4.82 8.55,17.75 -7.04,-5.78 -3.3,-4.32 -3.02,-10.63 -3.81,-3.83 -19.3,-11.39 -5.33,-1.72 -3.59,-2.76 -2.16,-0.66 -1.91,1.02 -1.3,1.89 -1.45,0.94 -2.33,-1.81 -0.72,2.39 -1.1,1.89 -1.39,1.31 -1.65,0.71 4.67,3.58 10.6,1.38 3.78,2.99 -2.22,3.25 -5.4,1.74 -3.86,3.83 -1.33,-0.02 -1,-1.31 -0.38,-2.33 -0.26,-2.4 -0.72,-0.51 -1.15,0.22 -3.06,-0.66 -2.97,0.47 -1.32,-0.05 -6.41,-3.3 -4.06,-4.32 -2.65,-0.72 1.57,1.81 1.43,2.77 0.69,3.34 -0.68,3.35 -1.9,1 -2.65,-1.46 -2.59,-2.47 -1.79,-2.23 -3.09,-6.65 -1.9,-1.28 -2.75,2.93 -0.64,2.91 0.51,3.35 1,3.05 0.86,1.94 4.24,4.01 10.91,0.87 3.89,3.28 -0.16,5.29 -11.66,-0.58 -0.13,5.68 -8.95,-2.82 -12.88,-18.25 -7.86,-3.73 V 592 l 3.35,-1.98 -1.7,-2.79 -4.18,-2.47 -3.98,-1.09 -2.49,0.92 -1.35,1.98 -0.77,2.14 -0.72,1.26 -1.91,0.46 -6.38,-0.46 1.35,1.33 1.02,1.75 0.74,2.15 0.45,2.72 -2.82,-0.07 -1.12,1.45 0.38,2.55 1.73,3.4 1.74,0.92 8.48,2.09 3.96,-1.22 3.66,-1.91 3.66,-0.85 4,1.99 0.4,6.58 5.83,6.63 12.91,9.38 -8.42,0.53 -13.69,-10.84 -6.5,0.1 1.37,2.24 4.06,8.87 1.84,2.04 4.02,2.65 1.94,2.39 -5.9,-0.83 -15.62,-7.15 -6.21,-0.78 -3.1,-1.26 -1.33,-3.19 -0.39,-4.4 -1.07,-3.4 -3.38,-5.53 -4.64,-2.04 -0.52,-0.93 -0.41,-1.33 -0.69,-1.24 -3.52,-1.21 -5.5,-3.45 -5,3.11 2.13,5.82 8.68,9.62 -1.96,0.34 -3.02,-0.44 L 8.7,617.36 6.62,615.4 5.64,615.1 5,617 l 0.18,2.33 1.44,1.17 3.02,4.28 -1.49,2.43 -1.24,2.55 -0.76,3.06 -0.06,4.02 9.28,-6.5 2.66,0.37 -3.59,4.08 1.15,1.71 5.98,0.34 1.78,-0.51 1.4,-0.9 0.7,0.34 -0.32,3.31 -0.68,1.75 -1.18,1.65 -2.88,2.68 0.77,1.03 1.6,3.06 -3.75,-1.75 -2.97,-0.68 -2.9,0.53 -3.5,1.9 1.29,6 2.01,4.16 3.05,2.22 4.4,0.1 8.33,-2.32 3.66,0.13 4.69,2.19 2.34,-1.9 0.81,-2.44 -0.49,-2.83 -1.59,-3.26 4.32,0.95 5.55,-0.12 3.31,-2.58 -2.43,-6.43 2.56,0.63 4.47,2.63 2.45,0.83 2.11,-0.2 4,-1.63 2.17,-0.22 -4.83,6.68 -0.89,3.85 1.63,4.9 1,0.87 1.51,0.56 1.57,0.1 1.2,-0.39 0.99,-1.46 -0.01,-1.56 -0.19,-1.61 0.49,-1.71 4.1,-5.11 0.98,-2.44 -0.13,-1.85 -0.26,-1.75 0.59,-2.15 1.65,-2.48 0.62,0.66 0.53,1.82 1.39,1.03 1.41,-0.49 0.89,-0.97 0.93,-0.81 1.51,0.22 -2.35,4.14 -2.56,5.72 -1.3,5.97 1.47,4.83 1.42,-1.85 1.48,-0.59 1.48,0.59 1.43,1.85 0.41,-6.7 2.27,-5.97 3.3,-4.29 3.61,-1.65 -3.42,8.4 -1.35,5.09 0.13,6.97 2.51,6.74 3.24,1.17 1.82,-3.3 -1.76,-6.46 3.33,-0.1 1.73,-2.24 1.12,-2.68 1.56,-1.32 2.42,1.51 1.07,2.64 0.98,1.12 2.11,-3.22 0.87,-3.75 0.2,-4.05 0.71,-3.16 2.35,-1.32 2.16,1.17 1.52,2.05 1.63,0.95 2.5,-2.12 -2.58,-3.41 -3.64,-2.24 -7.03,-2.48 2.11,-6.91 2.99,0.82 3.77,2.83 4.38,-0.83 -1.32,-1.7 -1.86,-2.97 -1.35,-3.48 0.22,-3.21 2.39,-3.08 1.58,1.31 2.59,7 4.35,4.28 2.9,-2.82 3.15,-4.65 5.1,-0.89 -1.1,2.67 -2.57,2.89 -1.18,2.56 -0.65,3.01 0.06,1.95 0.36,1.68 1.24,9.91 2.67,2.14 3.82,0.22 4.44,1.54 -2.02,3.46 -2.44,1.75 -12.34,0.78 -2.44,1.66 0.19,4.58 2.25,2.61 3.39,0.3 6.32,-0.66 2.6,1.85 4.59,5.25 2.16,1.1 2.95,-1.32 2.49,-3.27 7.53,-14.95 0.26,-1.1 2.3,0.37 0.63,1.88 0.06,2.36 0.56,1.73 1.82,1.46 2.01,0.74 1.86,-1.44 1.42,-5.05 -0.08,-3.65 -1,-3.27 -1.37,-3.36 -1.11,-4.04 3.17,0.97 5.01,5.85 1.93,1.36 3.1,0.24 1.59,-0.24 3.08,-2.34 1.33,1.24 0.62,2.07 -0.3,1.08 -1.93,1.53 -6.94,8.7 -0.17,4.05 0.64,3.76 0.42,3.9 -0.89,4.64 -1.98,3.06 -2.78,2.81 -2.47,3.32 -1.06,4.42 1.1,4.4 2.56,0.44 2.98,-1.93 10.44,-14.78 1.79,-5.79 -3.49,-3.9 2.63,-5.08 3.19,-0.63 7.31,3.46 4.86,-0.05 9.79,-2.29 4.4,2.34 -5.89,3.44 -14.31,1.54 -5.42,4.32 -0.89,7.69 6.11,3.23 13.19,0.44 2.83,-1.03 2.39,-2.29 2.17,-2.74 2.19,-2.15 3.18,-1.17 2.27,0.78 2.21,1.49 2.97,0.95 4.82,-0.95 5.77,-2.81 5.52,-4.08 4.12,-4.41 -2.08,-1.88 -4.24,-2.61 -2.07,-1.91 15.24,-13.26 9.02,-2.87 6.61,5.94 -16.06,19.17 -13.7,10.16 -15.37,6.7 -11.51,1.9 -4.39,2.2 -3.88,2.99 -1.67,3.08 0.51,6.8 1.58,3.35 6.29,4.19 5.18,1.57 3.81,-2.79 3.32,-3.99 3.77,-2.06 7.56,-0.91 4.37,-1.88 2.88,-3.38 -0.01,-3.01 5.08,-0.51 6.58,1.49 6.55,4.68 7.49,2.96 5.43,0.93 8.03,3.74 0.5,0.74 1.24,1.47 1.59,0.9 1.52,-0.88 0.24,-1.57 -0.33,-4.99 0.09,-1.84 0.34,-1.98 0.32,-4.16 0.4,-2.08 0.89,-1.73 1.23,-1.42 1.09,-1.61 0.45,-2.2 1.2,-2.2 5.73,-5.82 2,-1.22 2.55,-2.34 1.5,-4.64 1.72,-3.22 3.16,1.8 -2.13,5.81 -5.67,11.09 -6.42,8.58 -2.68,5.29 -0.49,5.87 2.98,6.47 5.47,4.38 6.61,1.42 6.84,-0.93 6.14,-2.64 3.55,-5.54 0.25,-6.17 0.72,-2.98 4.95,4.23 0.74,-5.12 1.63,-3.98 1.63,-0.71 0.73,4.79 -0.67,3.58 -1.27,4.25 -0.72,4.46 0.94,4.12 2.22,0.24 15.04,-4.46 1.91,-1.17 0.65,-2.7 -0.23,-5.36 -0.83,-5.26 -2.27,-9.26 -0.46,-6.82 0.89,-6.35 2.08,-6.59 2.37,-4 1.76,1.41 0.23,3.66 -0.87,2.44 -1.16,2.25 -0.56,2.98 v 12.48 l 1.11,5.26 2.76,5.33 3.49,4.38 3.28,2.38 5.32,1.07 6.72,-0.34 5.75,-3.03 2.44,-7 -0.25,-13.79 0.96,-6.11 2.84,-1.76 2.21,3.52 0.19,6.6 -1.21,13.59 1.09,2.74 2.51,0.64 2.77,-0.78 1.91,-1.52 0.89,-1.91 0.29,-2.1 0.12,-6.02 -1.56,-19.98 0.91,-2.73 3.17,3.22 0.97,14.97 2.31,4.52 2.65,-3.37 4.23,-16.76 2.09,-1.68 -0.58,13.4 0.29,2.06 0.61,2.42 0.15,2.76 -1.05,3.03 -1.87,0.88 -2.8,0.24 -2.6,1.01 -1.12,2.91 0.19,3.4 0.57,1.74 2.25,3.08 2.28,2.25 2.56,0.42 2.69,-0.17 2.7,0.46 1.72,1.25 5.37,5.1 9.64,4.68 38.69,11.32 26.44,12.99 10.94,2.01 48.36,-8.64 4.81,-2.7 3.88,-4.56 -1.15,-2.92 -8.64,-3.95 -3.26,-2.4 -4.38,-4.32 -3.84,-4.8 -1.65,-4.01 -2.23,-4.21 -14.34,-5.12 v -1.88 l 6.44,-1.79 32.71,20.64 9.3,9.7 3.52,2.14 2.03,-0.05 11.59,-0.27 3.3,-2.11 -0.63,-4.71 -1.5,-2.4 -3.28,-4.02 -1.72,-2.74 -3.98,-8.1 z"
         id="path2"
         style="fill:#000000;fill-opacity:1" />
    </g>
  </g>
</svg>
