<?xml version="1.0" encoding="UTF-8" standalone="no"?>
<svg
   xmlns:dc="http://purl.org/dc/elements/1.1/"
   xmlns:cc="http://creativecommons.org/ns#"
   xmlns:rdf="http://www.w3.org/1999/02/22-rdf-syntax-ns#"
   xmlns:svg="http://www.w3.org/2000/svg"
   xmlns="http://www.w3.org/2000/svg"
   xmlns:sodipodi="http://sodipodi.sourceforge.net/DTD/sodipodi-0.dtd"
   xmlns:inkscape="http://www.inkscape.org/namespaces/inkscape"
   version="1.1"
   width="1360"
   height="1360"
   viewBox="0 0 1360 1360"
   id="svg8"
   sodipodi:docname="Timor_all.61654ef9-559c-43db-8345-1c55908083b8.Svg"
   inkscape:version="1.0.1 (3bc2e813f5, 2020-09-07)">
  <metadata
     id="metadata14">
    <rdf:RDF>
      <cc:Work
         rdf:about="">
        <dc:format>image/svg+xml</dc:format>
        <dc:type
           rdf:resource="http://purl.org/dc/dcmitype/StillImage" />
        <dc:title></dc:title>
      </cc:Work>
    </rdf:RDF>
  </metadata>
  <defs
     id="defs12" />
  <sodipodi:namedview
     pagecolor="#ffffff"
     bordercolor="#666666"
     borderopacity="1"
     objecttolerance="10"
     gridtolerance="10"
     guidetolerance="10"
     inkscape:pageopacity="0"
     inkscape:pageshadow="2"
     inkscape:window-width="1920"
     inkscape:window-height="974"
     id="namedview10"
     showgrid="false"
     inkscape:zoom="0.166798"
     inkscape:cx="1409.8601"
     inkscape:cy="1565.6194"
     inkscape:window-x="-11"
     inkscape:window-y="-11"
     inkscape:window-maximized="1"
     inkscape:current-layer="svg8" />
  <g
     id="g6"
     style="fill:#000000;fill-opacity:1"
     transform="matrix(1.1418409,0,0,1.1418409,-5.1141384,223.24842)">
    <g
       stroke="#000000"
       stroke-width="0.98"
       fill="#ffffff"
       id="g4"
       style="fill:#000000;fill-opacity:1">
      <path
         d="m 308.93,348.82 -0.1,0.03 -7.76,0.4 -6.15,1.18 -2.62,3.49 -3.42,1.84 -30.33,5.79 -20.6,6.38 -9.42,4.39 -2.93,3.22 -6.8,9.75 -3.9,2.02 -5.44,0.63 -25.01,10.06 -5.67,1.56 -6.17,0.61 -5.77,1.3 -3.7,3.27 -6.45,8.48 -14.26,12.69 -1.66,2.29 -3.55,2.28 -10.13,14.88 -1.36,0.34 -3.7,-0.57 -1.44,0.23 -1.66,1.46 -3,3.78 -1.69,1.38 -3.77,1.33 -2.55,0.35 -2.27,0.82 -3.04,2.76 -8.54,12.95 -2.92,2.17 -10.91,5.52 -7.08,6.23 -3.78,5.73 -1.56,6.43 -0.5,28.37 -1.89,6.64 -1.44,1.54 -2.04,1.17 -1.89,1.49 -0.98,2.45 0.76,4.4 4.53,6.21 1.06,3.35 -0.03,7.41 -1.03,6.42 -3.17,5.7 -6.53,5.32 -11.38,7.06 -2.65,4.78 -2.34,21.97 0.38,6.42 3.32,5.04 5.42,1.22 10.12,-7.64 6.83,-2.18 7.41,0.62 6.65,1.79 6.27,2.68 6.09,3.51 5.85,7.72 -4.99,7.17 -25.64,14.27 -2.7,1.03 -11.33,2.07 -2.5,1.07 -4.45,3.23 -15.72,6.32 -9.83,8.27 -4.91,5.55 -2.16,4.56 0.75,11.62 -0.48,6.22 -2.39,6.91 -4.11,6.69 -1.18,3.48 1.06,2.74 2.97,0.38 3.5,-1.69 2.87,-2.38 4.08,-5.56 6.53,-1.12 7.1,0.56 4.66,1.23 8.54,7.48 4.76,1.53 6.88,-3.53 5.94,-1.82 6.15,2.31 6.27,3.38 6.22,1.38 11.76,-3.56 6.53,-0.67 2.84,3.15 3.71,2 8.36,-3.38 32.95,-21.74 26.92,-4.35 4.36,-1.54 2.97,-4.09 1.57,-4.25 2.74,-3.35 6.42,-1.36 2.88,-2.82 6.27,-13 4.56,-3.71 3.62,-0.13 6.05,2.1 3.45,0.57 9.9,-2.15 23.27,-2.38 33.71,1.35 11.64,-2.1 10.37,-5.47 14.66,-10.83 3.3,-4.93 4.54,-4.05 4.98,-14.73 6.05,-6.7 14.79,-8.96 10.27,-9.46 11.51,-8.34 17.36,-9.61 4.1,-4.19 3.3,-11.13 27.38,-32.2 8.62,-7.39 29.7,-19.57 2.79,-4.19 2.12,-22.51 4.76,-12.88 8.92,-9.04 9.44,-6.74 0.1,-0.08 10.78,-7.71 5.32,-5.26 5.24,-3.34 5.99,-1.77 14.46,-1.07 4.49,-1.61 3.37,-2.68 3.38,-3.72 5.74,-8.69 3.78,-4.44 8.54,-3.72 15.94,-13.35 11.13,-6.87 33.81,-12.61 19.85,-7.4 6.34,-3.6 6.33,-5.05 5.06,-1.07 15.72,2.3 5.69,-0.16 19.85,-11.2 6.5,-1.63 h 12.84 l 3.63,-1.23 6.75,-5.69 3.45,-1.83 6.12,-0.49 18.22,2.81 5.76,-1.84 31.09,-21.45 23.02,-15.92 4.96,-2.06 8.64,-3.62 81.82,-10.56 13.07,-3.72 10.96,-9.69 11.23,-19.3 12.12,-13.92 3.17,-1.2 6.8,-0.36 2.65,-0.58 2.26,-1 9.07,-6.78 3.63,-1.73 6.75,-1.63 47.05,-3.41 8.87,-4.41 19.92,-14.5 21.69,-4.84 3.68,-0.31 2.11,-3.21 20,-19.52 28.39,-22.16 14.18,-14.31 22.62,-16.99 3.1,-5.35 -2.24,-6.26 -5.92,-4 -14.03,-3.82 -6.55,-3.94 -2.09,-3.06 -0.83,-2.75 -1.51,-2.01 -4.01,-0.89 -2.11,0.84 -9.53,6.8 -5.44,2.67 -7.53,0.71 -7.66,-0.71 -5.97,-1.6 -21.76,-10.47 -4.76,-3.51 -5.21,-1.22 -6.96,3 -31.71,22.66 -13.25,5.96 -13.55,2.83 -2.24,-0.33 -5.27,-1.66 -3.42,0.03 -2.52,1.17 -5.87,4.15 -8.14,2.21 -23.75,11.26 -12.77,4.33 -11.41,-10.85 -4.53,-1.58 -7.23,-0.48 -7.13,-1.51 -6.58,-2.64 -5.59,-4.1 -3.25,1.45 -6.17,0.1 -3.42,0.59 -10.28,5.78 -9.88,2.85 -13.65,9.7 -6.4,3.21 -12.44,1.76 -13.93,0.2 -4.08,0.56 -2.59,0.36 -13.13,4.12 -6.8,1.38 -8.31,-0.87 -12.39,-6.06 -32.35,-5.73 -14.58,0.84 -36.35,11.82 -16.8,2.75 -9.17,-0.25 -5.69,-2.5 -8.46,8.56 -3.63,0.2 -8.01,-2.34 -7.56,0.91 -16.72,7.6 -6.35,1.37 -20.38,-1.37 -6.22,0.68 -20.5,5.94 -9.17,5.45 -3.48,0.97 -11.33,-1.68 -2.5,0.61 -5.92,3.21 -14.18,2.19 -6.2,2.09 -5.06,4.43 -4,6.37 -2.65,7.14 -1.89,28.03 -1.21,5.5 -4.56,3.93 -13.87,5.15 -2.88,2.78 -1.36,4.82 -14.98,22.89 -6.5,6.43 -10.61,6.07 -0.07,0.02 -6.85,3.9 -8.44,6.22 -9.15,2.09 -4.76,2.2 -11.18,3.42 -6.65,7.49 -2.87,1.59 -20.58,6.22 -1.11,0.53 -1.36,1.66 -3.22,7.68 -0.63,2.58 -0.99,1.73 -19.69,13.58 -12.72,4.54 -14.06,2.19 -16.1,0.49 z"
         id="path2"
         style="fill:#000000;fill-opacity:1" />
    </g>
  </g>
</svg>
