<?xml version="1.0" encoding="UTF-8" standalone="no"?>
<svg
   xmlns:dc="http://purl.org/dc/elements/1.1/"
   xmlns:cc="http://creativecommons.org/ns#"
   xmlns:rdf="http://www.w3.org/1999/02/22-rdf-syntax-ns#"
   xmlns:svg="http://www.w3.org/2000/svg"
   xmlns="http://www.w3.org/2000/svg"
   xmlns:sodipodi="http://sodipodi.sourceforge.net/DTD/sodipodi-0.dtd"
   xmlns:inkscape="http://www.inkscape.org/namespaces/inkscape"
   version="1.1"
   width="1360"
   height="1360"
   viewBox="0 0 1360 1360"
   id="svg224"
   sodipodi:docname="Vancouver_Island.svg"
   inkscape:version="1.0.1 (3bc2e813f5, 2020-09-07)">
  <metadata
     id="metadata230">
    <rdf:RDF>
      <cc:Work
         rdf:about="">
        <dc:format>image/svg+xml</dc:format>
        <dc:type
           rdf:resource="http://purl.org/dc/dcmitype/StillImage" />
        <dc:title></dc:title>
      </cc:Work>
    </rdf:RDF>
  </metadata>
  <defs
     id="defs228" />
  <sodipodi:namedview
     pagecolor="#ffffff"
     bordercolor="#666666"
     borderopacity="1"
     objecttolerance="10"
     gridtolerance="10"
     guidetolerance="10"
     inkscape:pageopacity="0"
     inkscape:pageshadow="2"
     inkscape:window-width="1920"
     inkscape:window-height="974"
     id="namedview226"
     showgrid="false"
     inkscape:zoom="0.11298101"
     inkscape:cx="-1374.2085"
     inkscape:cy="2634.765"
     inkscape:window-x="-11"
     inkscape:window-y="-11"
     inkscape:window-maximized="1"
     inkscape:current-layer="g894"
     inkscape:document-rotation="0" />
  <g
     id="g222"
     style="fill:#000000;fill-opacity:1"
     transform="translate(79.9836,279.99941)">
    <g
       stroke="#000000"
       stroke-width="0.98"
       fill="#ffffff"
       id="g220"
       style="fill:#000000;fill-opacity:1">
      <g
         stroke="#000000"
         stroke-width="0.98"
         fill="#ffffff"
         id="g894"
         transform="matrix(1.5937507,0,0,1.5937507,-1795.3679,336.61977)"
         style="fill:#000000;fill-opacity:1">
        <path
           d="m 1905.4316,307.69835 -2.5507,-2.9151 -1.4576,-3.6439 -1.4576,-9.1097 -5.4658,-14.2111 -0.7288,-2.1863 0.7288,-1.0932 v -2.9151 l -0.7288,-2.5507 -0.3643,-1.0932 v -2.9151 l -0.3644,-1.8219 -1.0932,-1.0932 -1.8219,-1.0932 -1.822,-0.3643 h -2.5507 l -2.9151,0.7287 -1.4576,1.0932 v 2.9151 l 1.822,2.1863 3.6439,3.2795 -6.559,3.2795 0.7288,3.6439 -0.7288,7.2878 1.0931,3.6438 -6.5589,6.559 -3.2795,1.822 -1.0932,-3.6439 1.0932,-2.5507 1.4575,-1.4576 1.0932,-2.1863 0.7288,-3.2795 -0.3644,-4.0083 -1.4576,-2.1863 -1.4575,-1.8219 -1.0932,-1.822 v -3.6439 l 0.7288,-1.4575 1.0931,-1.822 0.3644,-3.2795 -0.3644,-1.4575 -3.6438,-5.1014 -1.0932,-1.4576 -11.296,-7.2878 -2.9151,-2.5507 v -1.8219 l 2.1863,-0.7288 h 2.9151 l 2.9151,1.0932 2.1863,2.1863 1.822,0.7288 1.0931,-3.2795 0.3644,-5.1015 -0.7288,-2.9151 -1.0931,-1.0931 h -1.0932 l -1.0932,0.7288 -1.4575,0.3643 -0.3644,-0.7287 v -1.822 l 0.7288,-1.8219 0.7288,-0.7288 1.8219,-1.4575 -2.1863,-4.0083 -19.677,-20.0414 -2.1863,-3.2795 -1.0932,-2.1863 -7.6521,-5.1014 -7.6522,-8.381 v -1.8219 l 3.2795,-1.4576 1.8219,1.822 1.4576,2.9151 2.1863,1.8219 2.5507,-0.3644 0.7288,-2.1863 -0.7288,-2.9151 -1.4575,-2.9151 3.6439,-1.8219 -1.0932,-3.2795 -4.737,-6.559 -1.4576,-4.3727 -1.0932,-4.0082 -1.4575,-3.6439 -2.5507,-2.9151 -1.822,0.7287 -6.9233,-2.1863 -3.2795,0.7288 -1.822,-0.3644 -2.1863,-2.1863 -3.2795,-9.8385 -1.8219,-2.9151 -0.3644,-1.4576 2.9151,-1.4575 v -1.4576 l -0.3644,-1.8219 -1.0932,-1.822 -3.6439,-2.5507 -4.737,-1.4575 h -9.8385 l -2.1863,-0.7288 -3.6439,-2.1863 -2.5507,-0.3644 -4.3727,1.0931 h -2.1863 l -2.1863,-1.0931 2.5507,-2.9151 5.8302,-0.7288 2.5507,-1.0932 -7.6521,-7.6521 -2.5508,-1.0932 -1.8219,0.3644 -1.8219,1.0932 -1.822,0.3644 -17.4906,-6.559 -1.4576,-1.0932 -1.4575,-1.4576 -3.6439,-2.5507 -4.3727,-1.093096 -9.1097,-0.7288 -15.6687,-3.2795 -8.0165,-3.6439 -6.559,-4.737 -0.7288,-1.4576 -2.5507,-5.1014 -1.8219,-1.0932 -3.6439,-1.4575 -1.4576,-1.4576 -3.6438,-2.5507 -7.6522,0.7288 -3.6439,-2.5508 -0.7288,-1.8219 -0.7287,-4.737 -0.7288,-1.822 -1.4576,-1.0931 -2.9151,-1.4576 -11.296,-25.5072 -1.4576,-2.1863 -3.6438,-4.0083 -1.4576,-1.4575 -1.4575,-1.4576 -1.4576,-0.7288 -1.4576,-1.4575 -0.3643,-3.2795 1.0931,-0.7288 13.118,2.9151 2.1863,-1.0931 1.0932,-4.3727 -0.7288,-4.3727 -1.4575,-2.9151 -46.6417,-49.1924 -1.4576,-3.2795 -2.9151,-7.6521 -1.8219,-3.2795 -0.3644,-2.1863 v -4.3727 l -0.7288,-2.1863 -5.8302,-7.2878 0.3644,-4.0083 -5.4658,-6.559 -1.4576,-4.0082 -2.5507,-1.0932 -5.1014,-3.2795 -2.9152,-3.2795 2.9152,-1.4575 -5.8303,-13.482404 -3.6438,-14.5755 -1.4576,-3.6439 -2.1863,-4.0083 1.4575,-1.8219 -1.8219,-4.3727 -2.9151,-4.0082 -3.6439,-2.5508 -7.6521,-1.8219 -6.1946,-4.7371 -4.0083,-1.0931 -24.0496,3.6439 -1.822,-0.7288 -5.8302,-4.3727 -7.6521,-2.9151 -15.6687,-0.7288 -3.2795,-1.0931 -10.5673,-7.6522 -14.5755,-7.2877 -12.0248,-3.6439 -12.7536,1.0931 -3.2795,-1.0931 -7.2878,-3.2795 -4.0083,-0.7288 -14.9399,2.9151 -4.0082,-2.1863 -1.4576,-1.0932 -4.3727,-1.4575 h -1.4575 l -1.0932,-0.3644 -1.8219,-1.0932 -1.0932,-0.3644 -1.0931,0.7288 v 3.2795 l -1.0932,1.4576 -4.0083,-0.3644 -5.8302,-6.559 -3.6439,-1.822 -4.0082,-0.7287 -13.4824,-6.9234 -4.0083,-1.0932 h -5.1014 l -1.0932,0.3644 -1.0931,1.0932 -1.0932,3.2795 -1.0932,0.7287 -2.1863,-0.7287 0.3644,-1.4576 1.0932,-1.8219 0.7287,-2.1864 -1.0931,-1.8219 -2.5508,-0.7288 -16.3974,-0.3644 -2.9151,-1.4575 1.0931,-0.7288 1.4576,-1.8219 0.7288,-0.7288 -1.0932,-0.7288 -0.7288,-0.3644 -1.0931,-0.3644 h -1.4576 1.0932 l -2.5507,-0.3644 -8.0166,-1.8219 -1.8219,0.3644 -1.0932,0.3644 h -1.0932 l -1.4575,-0.7288 -0.3644,-0.3644 -0.3644,-1.8219 -0.7288,-1.4576 -0.7287,-1.45753 -2.5508,-0.72878 -8.3809,0.72878 -2.9151,-0.72878 -1.8219,-1.45755 -1.4576,-2.18633 -2.5507,-2.18633 -4.3727,-2.91511 -13.8467,-5.83021 -3.6439,-2.55071 -4.737,-4.73705 -2.9151,-5.10144 2.5507,-4.73704 -4.0083,-1.09317 -2.1863,3.64388 -2.1864,5.10144 -2.5507,4.37266 -0.3644,-1.82194 -0.7287,-1.82194 -1.822,-2.55072 -0.3644,-1.82194 0.3644,-2.18633 0.3644,-1.45756 0.3644,-0.36438 -1.0932,-3.64389 -1.8219,-2.9151 -1.822,-1.45756 -2.9151,-0.36438 -5.4658,-3.64389 -49.5568,-17.85502 -5.4658,-1.09316 -15.6687,2.18633 -6.1946,-1.82195 h -3.2795 l -3.2795,1.09317 -8.7453,7.28776 -5.4658,-2.18633 -6.1946,3.2795 -6.559,5.10143 -5.8302,2.18633 -5.4659,-1.09316 -1.4575,0.36439 -3.2795,3.64388 v 0.72878 l -2.9151,0.36438 -2.9151,1.45756 -1.822,2.18633 1.822,2.9151 v 4.00827 l 3.2795,8.74532 1.0931,5.10144 0.7288,1.82194 1.822,1.82194 2.1863,1.82194 1.0932,0.72877 1.8219,-0.36438 3.2795,-1.45756 h 1.8219 l 3.2795,0.72878 -1.0931,1.82194 -3.2795,1.45755 -3.6439,1.09317 -1.822,1.09316 0.3644,2.55072 2.1864,4.00827 0.3643,2.55071 1.822,0.7288 3.2795,-0.7288 6.1946,3.2795 1.0931,2.9151 0.7288,5.8302 1.822,4.3727 0.7287,2.1863 0.7288,1.4576 1.0932,0.7287 1.4575,0.3644 1.822,0.7288 2.5507,2.1863 1.4575,1.822 1.822,3.6439 1.0932,1.4575 2.1863,1.0932 4.3726,1.4575 2.5508,2.9151 1.8219,1.4576 1.4576,1.0932 1.0931,0.3643 2.5507,-0.7287 0.3644,-1.0932 -0.7288,-1.8219 -0.7287,-2.5508 -0.7288,-0.3643 h -1.0932 l 2.1864,-4.3727 2.5507,1.0932 2.9151,2.9151 2.9151,1.4575 7.2878,-0.7288 6.9233,-2.1863 6.559,-4.3726 2.9151,-0.7288 1.4576,4.0082 27.6935,-10.9316 7.6521,-0.3644 3.2795,-1.8219 v -4.0083 l -2.9151,-2.9151 -3.6439,-2.1863 -8.0165,-2.1864 h -18.2194 l -2.9151,-1.0931 -4.0083,-2.9151 -3.2795,-3.27953 -2.1863,-2.91511 9.4741,4.73704 32.4305,1.822 2.1864,0.7287 2.1863,1.822 2.1863,2.5507 1.0932,0.7288 1.4575,1.8219 1.822,0.7288 2.1863,-2.5507 3.2795,-2.1864 14.5755,-3.6438 -0.7287,5.4658 -12.3892,3.6439 -3.2795,6.1946 -4.3727,-0.3644 -2.1863,5.4658 0.7288,6.9234 8.0165,6.9233 4.0083,7.6522 5.8302,14.5755 -4.7371,-1.8219 -3.2795,-4.3727 -8.7453,-15.6687 -2.9151,-3.6438 -3.2795,-1.822 h -24.414 l -4.3726,1.0932 -4.0083,2.5507 -4.0083,1.4575 -5.4658,-1.8219 -1.0932,3.2795 -2.5507,0.3644 -5.4658,-1.822 -1.4576,0.7288 -1.0931,2.5507 v 2.9151 l 0.7287,2.1864 v 1.8219 l -2.5507,2.5507 -1.8219,5.1015 -1.4576,7.2877 -2.1863,1.822 1.4575,3.6439 4.0083,3.6438 4.0083,1.4576 1.8219,-1.0932 3.2795,-3.2795 1.0932,-0.7287 1.8219,1.0931 4.0083,4.7371 h 1.4576 l 1.8219,-1.0932 1.8219,0.3644 1.4576,1.8219 -0.3644,3.2795 -1.8219,1.4576 -4.3727,1.0931 -1.4575,2.5508 2.9151,1.4575 1.0931,1.0932 2.1864,3.6439 1.0931,0.7287 2.9151,-0.3643 3.2795,-1.0932 1.822,-0.3644 1.0931,1.4576 v 2.9151 l -1.0931,1.0931 -3.2795,1.4576 -10.2029,14.2111 -9.1097,8.016604 -1.4576,2.9151 1.4576,4.0082 3.2795,2.1864 8.0165,0.7287 0.7288,0.7288 2.5507,3.2795 1.4576,0.7288 1.8219,-0.3644 1.4576,-1.8219 8.0165,-10.9317 5.8302,-5.8302 5.8302,-4.372704 6.1946,-1.8219 -1.4575,2.9151 -1.4576,3.279504 -0.7288,3.6439 0.7288,3.6439 2.5507,2.9151 3.2795,-0.3644 6.559,-2.5507 4.3727,-3.2795 4.737,-6.1946 5.1015,-4.372704 5.8302,1.822 -5.8302,5.830204 -2.5508,2.9151 -1.4575,3.2795 h 10.9316 l -6.1946,3.6438 -1.8219,1.822 0.3644,4.737 1.4575,3.6439 2.5508,3.2795 5.8302,5.1014 3.2795,1.4576 3.2795,0.3644 3.6438,-0.3644 3.6439,-1.4576 3.2795,-2.5507 2.1863,-2.9151 0.7288,-3.2795 0.3644,-4.0082 -0.7288,-4.3727 -1.0931,-4.737 -0.7288,-3.6439 1.0932,-1.822 2.1863,1.4576 3.2795,3.2795 2.5507,3.6439 1.0932,2.5507 1.8219,1.8219 4.3727,1.0932 4.0082,-0.3644 2.5508,-3.2795 3.6438,-1.0932 1.0932,-0.7287 1.0932,-2.1864 0.3643,-2.1863 0.3644,-2.1863 1.4576,-1.822 2.1863,5.1015 -1.0931,4.737 -2.5508,4.0083 -6.5589,2.5507 -2.5508,3.2795 -2.1863,4.3727 -1.4575,4.737 v 1.4576 l 1.0931,0.7287 v 1.0932 l -0.7288,1.8219 -0.7287,0.7288 h -0.7288 l -1.0932,0.7288 -4.737,7.6521 -1.0932,3.6439 1.0932,4.0083 13.8467,19.3126 3.2795,2.1863 h 3.6439 l 4.0083,-1.0932 20.4057,-0.3644 1.4576,-0.7287 0.7287,-4.0083 0.3644,-12.3892 0.3644,-4.3727 0.3644,-1.8219 0.3644,-2.1863 0.3644,-1.4576 1.4575,4.0083 2.9151,16.3975 1.4576,1.8219 1.8219,0.3644 2.5508,-0.3644 2.5507,-1.0932 2.5507,-2.9151 2.1863,-3.6439 1.0932,-3.2794 -1.4576,-3.6439 -5.1014,-4.3727 v -3.2795 l 6.559,4.7371 2.9151,2.9151 2.5507,7.6521 2.9151,4.0083 3.6439,3.2795 3.2795,1.0932 3.6439,-1.822 2.9151,-2.9151 2.1863,-0.3644 0.7288,6.1946 0.7288,9.8385 0.7287,4.0083 5.1015,20.7701003 1.8219,4.0082997 2.9151,2.1863 4.7371,0.7288 4.3726,-1.0932 3.6439,-2.5507 2.5507,-4.0082997 0.7288,-3.6439 v -8.3809 l 0.7288,-1.8219 2.5507,0.3644 4.3727,2.1863 2.1863,0.7288 -0.3644,1.4575 -10.5673,14.9398997 -1.0931,4.0083 1.4575,2.5507 4.0083,2.5507 17.855,5.8303 2.5507,0.3643 4.3727,-2.9151 16.0331,-5.1014 12.3892,-1.0932 1.4575,0.7288 1.4576,1.4576 1.0931,1.8219 0.3644,2.1863 -7.6521,2.5508 -1.822,-0.3644 -3.6438,-1.4576 h -2.1864 l -1.8219,0.7288 -3.2795,2.1863 -18.9482,3.6439 -12.7536,-1.8219 -5.4658,0.3643 -7.2878,6.559 -5.4658,1.822 -2.5507,1.4575 -2.1863,2.1864 -0.3644,1.0931 -0.7288,1.822 -0.3644,2.1863 v 1.8219 1.0932 l -0.7288,1.4575 1.4576,3.2795 0.7288,1.0932 1.0931,1.0932 v 1.4575 h -1.0931 l 0.7287,2.5507 v 1.822 l -0.3644,1.4575 -0.3643,2.5508 v 6.1946 0.3643 l -0.7288,5.1015 -1.0932,2.9151 0.3644,2.9151 2.5507,4.3726 2.1864,2.5508 2.1863,1.8219 h 2.9151 l 3.6439,-1.4575 3.6439,-2.9152 v -2.1863 l -1.822,-3.2795 -1.8219,-4.737 1.0931,-2.1864 2.1864,-3.2794 2.9151,-2.5508 2.5507,-0.3644 1.4575,1.822 2.5508,5.4658 2.5507,2.9151 -2.1864,2.1863 1.4576,1.822 2.9151,1.8219 2.5507,1.4576 1.4576,2.1863 2.1863,1.4576 4.3727,2.1863 0.7287,1.0932 0.3644,1.4575 0.7288,1.0932 1.4576,-0.3644 0.7287,-0.7288 1.4576,-3.6439 2.1863,-4.737 0.7288,-3.6439 -0.3644,-3.6439 -1.4575,-3.6439 2.1863,-1.0931 1.8219,1.0931 1.0932,2.5508 0.3644,3.6438 1.0931,1.822 2.1864,1.4575 2.5507,0.3644 1.8219,0.3644 0.7288,-0.7288 0.3644,-1.0931 0.7288,-1.0932 2.9151,-0.7288 2.1863,-1.0931 3.2795,-0.7288 9.1097,-4.3727 1.4576,-0.3644 v 1.822 4.3726 l -0.7288,2.1864 -2.1863,3.6438 -0.7288,2.9152 2.9151,9.473996 1.8219,1.822 3.6439,2.1863 1.4576,1.4576 3.2795,-1.822 2.5507,-2.9151 1.4575,-3.643896 0.3644,-5.4658 1.4576,-3.2795 5.8302,-6.559 1.4575,-4.3726 1.822,4.0082 -1.4576,5.8303 -2.9151,6.1946 -3.6439,12.753496 -4.3726,4.0083 -4.7371,2.5507 -3.2795,4.7371 2.9151,4.3726 2.5508,3.2795 2.5507,1.4576 3.6439,0.7288 2.5507,-1.822 5.8302,-8.3809 4.0083,-1.0932 1.8219,0.7288 2.1863,2.5507 1.0932,-0.3644 1.0932,-1.4575 1.0931,-2.5507 1.0932,-2.9151 1.0931,-6.9234 1.822,-4.7371 2.1863,-4.008196 1.4576,-2.1864 h 1.0931 v 3.279496 l -1.0931,4.3727 -1.0932,3.6439 -1.4575,2.9151 -0.3644,2.5507 -0.3644,9.1097 0.3644,2.1863 1.4575,1.822 2.1863,-0.3644 2.5508,-1.4576 1.8219,-2.1863 1.4576,-1.0932 -0.3644,3.6439 -1.4576,7.2878 -0.3644,13.118 1.4576,4.737 3.6439,-2.9151 4.0082,-5.1014 13.8468,-10.5673 -0.3644,4.7371 -1.4576,2.1863 -1.8219,2.1863 -0.7288,3.2795 -1.0931,2.5507 -6.1946,3.6439 -1.4576,3.6439 -1.4575,-0.3644 -5.8303,5.1014 -1.0931,1.0932 -3.2795,1.4576 -2.9151,-0.3644 -2.5507,-1.822 -2.1864,-2.5507 -2.5507,2.1863 -4.737,1.0932 -1.4576,1.8219 -0.3644,2.9151 1.4576,2.1864 2.1863,1.8219 2.1863,1.0932 15.6687,3.6439 4.3727,4.0082 1.8219,1.822 4.0083,2.9151 5.4658,5.8302 0.7288,1.4575 1.0932,2.9152 1.0931,1.4575 2.1864,1.8219 5.1014,1.4576 2.1863,1.8219 1.822,1.822 2.5507,1.8219 2.9151,1.4576 2.1863,0.7288 0.3644,0.7287 1.0932,0.3644 3.2795,0.3644 1.4575,-0.7288 0.7288,-1.4575 0.7288,-1.822 0.3644,-0.7287 2.9151,-1.4576 4.737,-6.9234 5.4658,-3.6439 1.0932,-4.737 0.7288,-4.737 1.8219,-3.6439 h 1.4576 l 1.4575,1.0931 1.0932,1.4576 1.4575,0.7288 1.822,0.3644 5.8302,-0.3644 v 1.8219 l -3.6439,1.0932 -2.9151,3.2795 -5.4658,7.2877 3.2795,1.822 8.0165,0.3644 4.0083,1.8219 2.9151,0.3644 2.9151,-2.9151 5.1014,-6.559 3.6439,-1.0932 2.9151,1.0932 2.9151,2.1863 4.0083,1.0932 1.4576,-0.3644 3.2794,-2.1863 1.822,-0.7288 8.0165,1.8219 4.0083,-0.3644 6.9234,-3.6438 2.5507,-1.0932 3.2795,-1.8219 1.4575,-4.3727 1.4576,-10.2029 1.8219,-3.6439 2.5508,-3.2794 2.1863,-4.0083 1.0931,-4.7371 v -10.2028 l -1.0931,-8.7454 v -1.8219 l 0.3644,-1.8219 0.7287,-1.0932 1.0932,-1.4576 0.7288,-0.7287 1.8219,13.8467 2.9151,9.1097 -1.0931,4.3727 -2.1864,4.0083 -1.4575,4.3726 -1.4576,9.8385 -4.3726,9.1097 -5.8302,7.2878 -5.4659,4.3726 -7.2877,2.1864 -3.2795,1.8219 -2.9151,3.6439 -1.822,2.9151 v 1.8219 l 0.7288,1.4576 0.3644,3.6439 -0.7288,1.8219 -1.4575,1.4576 -2.1864,0.7287 -3.6438,0.3644 -1.822,0.3644 -1.4575,1.0932 -1.822,1.4575 -0.7288,1.4576 -1.8219,3.6439 -0.7288,1.4575 -9.4741,6.1946 -2.1863,3.6439 4.0083,3.6439 2.5507,2.9151 5.4658,8.3809 2.1863,2.1863 44.091,20.0414 2.5507,1.8219 4.7371,5.8303 6.1946,4.3726 10.5672,5.4658 24.0497,6.1946 2.9151,1.4576 1.4575,0.3644 2.9151,-4.0083 1.4576,-1.4576 1.8219,-1.4575 h 1.822 l 5.1014,0.7288 1.8219,1.0931 -2.5507,2.1864 -3.6439,3.2795 -1.4575,2.9151 4.0083,1.4575 4.0082,0.3644 40.8115,20.4057 37.8964,15.6688 8.0165,1.4575 9.4741,-0.3644 7.2878,2.9151 4.737,2.9151 3.2795,1.4576 2.5507,3.6439 2.1864,0.7288 2.1863,-0.7288 4.3727,-2.1863 2.9151,-0.3644 v 4.3726 l 3.6439,0.7288 3.2794,-1.4576 -0.7287,-3.6438 1.4575,-2.1864 2.9151,-2.5507 1.0932,-1.8219 0.7288,-2.1864 0.3644,-2.1863 0.3643,-1.8219 2.5508,-0.3644 2.5507,-2.1863 4.0083,-9.8386 2.5507,-2.9151 12.7536,10.5673 4.3726,-0.7287 4.3727,-2.5508 2.5507,-2.1863 0.7288,-5.8302 -0.7288,-4.7371 -2.5507,-3.6439 z"
           id="path888"
           style="fill:#000000;fill-opacity:1;stroke-width:35.71" />
      </g>
    </g>
  </g>
</svg>
