<?xml version="1.0" encoding="utf-8"?><svg xmlns="http://www.w3.org/2000/svg" version="1.1" baseProfile="tiny" width="1200" height="800" viewBox="0 0 1200 800"><g><g stroke="#000000" stroke-width=".98" fill="#FFFFFF"><path d="m1075.75 597.02l-.9-9.55.19-2.42-.45-1.38-.35-1.33-.46-1.03-.84-.4-.81-.08-.57-.44-.32-1.09-.11-2.06.26-1.7 1.17-1.94.35-2.03-.09-1.36-.29-1.5-.69-2.43.78-.83.29-.12-1.13-3.94-2.17-5.46-.29-1.46.08-1.57.72-5.19.21-2.36-.2-2.11-.81-2.12-1.38-1.73-2.01-1.52-2-.68-1.4.78.4 1.72-.44 1.95-.85 1.72-.85.99-2.52 1.05-1.12 1.18-.53.21-.81-.34-4.05-4.81-2.16-.82-.94 4.06-.44 2.47-1.03 1.05-3.63-.1-.62.24-.37.44-.6 1.29-.45.37-1.35-.76-1.41-2.25-2.08-4.89-.89-3-.42-3.15.18-3.14.95-2.93 1.55-2.63.62-1.76-.57-.78-.82-.31-1.05-.81-1.01-1.17-.69-1.4-1.52-1.16-5.08.49-1.1.67-.62 4.52-1.52 1.59-3.53-.32-1.7-.92-4.75-6.56-1.88-1.17-.74-.76-.78-1.66-.88-1.49-.71.36-.72 1.05-.87.61-.78-.02-.36-.21-2.98-6.13-8.33-8.15-4.16-1.48-3.58-3.29-3.25-1.31-1.89-2.97-2.3-.57-1.1-.95-6.73-3.59-.25-2.86.88-3.91-.16-3.28-.92-2.5-1.39-1.54-1.99-1.15-1.11-1.07-.79-2.43-1.47-2.38-5.09-4.14-2.33-.77-1.54 3.37.57 1.85.46 2.77.31 3.01.11 2.55.43 3.14 1.02 1.56 1.23 1.07 1.07 1.72 1.62 1.72 4.39.88 1.34 2.19-.39 2.9-2 .85-9.02-2.64-2.3-5.02-2.31-2.89-.96-2.23-1.34-2.45-1.9-1.09-11.94-.24-1.78-.95-1.42-2.35-2.51-6.35-.73-1.1-1.68-1.53-1.14-2.2-1.86-2.34-1.38-.97-3.42-4.81-.87-.81-.94-.4-3.14.38-1.66-.43-1.46-1.71-1.35-3.58-4.23-18.03-2.17-4.75-2.89-4.36-1.54-1.56-3.75-1.26-14.96-16.07-.62-1.49-1.1-3.46-.58-1.5-.65-1.02 1.06-3.05 1.42-1.52 2.89-2.02 3.51-5.99.95-2.45.97-5.87-.83-4.27-1.39-3.79-.72-4.39.52-3.56 1.24-2.1 1.53-.96 1.36-.15 5.37 3.51 1.21-.73-.05-2.23-.93-2.63-1.88-3.99-.46-2.84.25-2.63 1.12-5.2-2.75-1.96-1.03-1.82-.85-2.94 1.92-7.73.28-3.22-.77-3.77-5.22-12.31-1.57-1.96-.75-1.65-.3-1.31-.4-2.86-.33-1.4-2-4.98-1.27-2.16-1.21-.91-.51-.71-.29-1.67-.19-1.9-.23-1.41-.8-1.95-.84-.92-3.53-1.14-1.76-1.41-1.43-2.86-.59-4.91-.07-3.94-.24-2.86-.44-2.47-2.36-9.17-1.05-2.82-1.03-1.18-.16-.69-.59-3.54-.46-1.54-.89-1.12-2.1-.64-.96-.65.69-1.92-.06-2.09-.57-1.82-.8-1.11.72-3.28 2.35-2.52.91-2.43.15-2.71-.35-2.59-.71-1.95-1.77-1.67-.67-2.04-.95-4.17-.75-1.81-1.58-2.82-1.67-4.71-.27-1.18-.15-1.23-.18-2.88-.24-1.21-.91-2.24-2.82-4.28-1.37-3.19-2.14-6.89-1.47-2.86 1.13-1.11 1.02.5 1.01 1.09 1.09.59.67-.5.34-1.32.43-3.98-2.28-1.38-.46-1.52 1.31-3.01-.27-.56-.44-1.32-.35-.6.5-1.78.18-.48-.99-1.26-3.6-1.11.4-3.76-.25-2.86-.68-2.22-.93-1.87 2.77-3.05.43-1.26-.23-1.61-.54-1.31-.65-.9-2.24-1.05-5.26-5.24.22-1.51.34-1.25.41-1.08.48-.96-4.26-8.5 1.47-1.33 1.25 1.84 1.08 2.76 1.47 1.95 1 2.46.45.82.8.35.87-.25 1.6-1.4-.72-2.34-1.14-1.54-2.44-2.01 1.04-1.5.41-.98.32-1.23-1.13-.97-2.46-6.36-1.41-2.17-1.65-1.66-1.72-.93-1.62.05 0-1.21.51-.03.46-.43.43-.81.38-1.15-.77-.76-.5-1.29-.4-1.47-.46-1.31-.83-1.17-2.09-2-1-1.8 1.78-2.42-7.67-4.59-2.32-4.17-1.08-.96-.59-1.54.11-3.38-.04-3.4-1.08-1.54-2.62.14-1.44-1.09-.6.58-.6.97-.62.73-2.37.62-2.11-.78-6.8-5.27-2.84-.78-.62-.77-.8-3.37-.37-.76-.79-.64-2.93-4.26-2.24-1.04-1.19-1.19-.9-3.77-1.85-1.69-.65-.91-.24-1.35-.12-2.91-.35-1.9-.44-1.1-.61-.8-.66-.5-.58-.16-.49.23-.07.66.02 1.01-.19 1.28-1.07 1.31-5.88-2.96-1.41-2.58-2.16-6.37-1.68-3.24-2.43-2.31-2.61-1.07-2.21.43-1.63 2.26-.52.33-1.95-1.24-.56-.11-1.12.84-1.94 2.39-1.23.49.22 2.67-.6 2.1-1.76 2.75 4.87 5.99 1.24 2.52-1.47 3.32-1.75.11-5.17-3.05-2.9-4.23-2.1-1.54-1.26-2.55-2.29-1.51-6.11-7.09-3.38-1.28-7.46-5.94-6.85.4-11.45-5.2-3.87.13.95 2.26 2.05 2.81.88 2.37-5.77-.51-1.7 1.75.42.84.97.93.38.71.09.82-.03 2.49.14 1.02.69 1.72 1.83 2.83.87 1.01 7.77 4.6 1.9 4.12-10.4-3.25-5.07.28-4.9 5.44-2.05 7.58 1.71 5.72 5.68 8.84-.8 1.01-.91.29-1.85-.19-.51.6.47 1.3 2.99 5.15 1.67 3.91-.79.87-.6 1.66-.26 2.21.23 2.55.53 1.26 1.78 2.57.75 1.79-.05 1.92-1 .96-.92 1.33.17 3.04.51 1.72 1.46 3.76 1.75 6.99.59 4.31-.72 1.94-.7.88.47 1.9 1.28 2.66.57 1.65 1.14 2.14.6 1.66-1.06 4.05.71 2.82 2.84 3.76-.81.92-.84.33-.74.66-.48 1.88 4.05 2.38 1.82 2.17 1.31 3.67-.68 2.57-.1 1.9.29 1.78.49 2.16-5.73 1.19 2.22 4.83 2.57 2.88 2.77 1.39 2.82.36-1.18 3.57-3.29 1.37.36 3.95.72 1.49 1.72 1.22.6 1.45.14 2.36-.58 1.07-1.72 1.28 1.61 1.94 2.27 1.58 2.03 2.29.87 4.1-.49 2.53-1.14.67-1.26-.65-1.89-2.84-1.47-.51-1.19.46-.22 1.51 1.2 3.01 1.34 2.15 1.11 2.5.46 4.11 0 8.16.18 1.29.34 1.22.17 1.55-.33 2.37 7.5 2.32-1.04.99-.42.17.59 1.14 1.61 1.85.33 1.06-.29 1.83-1.39.74-.49 1.48.24 2.47.79 3.51.95 3.14.7 1.37 2.12.71 4.32 3.16 2.14.73.9 1.08.45 2.61.08 3.05-.21 2.44 1.16.13 3.17 2.17 3.2 1.06 1.07 1.23-1.04 2.89-1.86 1.7-2.01.39-4.33-2.52-.67.12-1.22 1.7-.38.99 1.56 1.36 2.27 3.99 1.24.91 3.35 1.02 1.74 1.38 1.35 2.05-13.92 3.63-2.34 1.53-1.81 3.63-1.68 4.21-1.97 3.31-2.1-.47-2.46-2.7-2.35-1.18-1.73 4.06-.23 2.92.3 2.17.71 1.34 1.01.46.74.74 3.19 4.81-.85 2.75-1.28.45-1.28-.24-.86.63-.39 0-.96.8-1.2-.36-3.21-3.39-3.55-.64.39-4.27-.74-3.78-1.37-3.16-1.48-2.37-2.65-1.1-5.28 2.89-2.45-2.82 2.98-1.7.61-.67.27-1.32.08-1.48-.19-1.24-.52-.51-1.34-.33-1.54-1.05-1.44-1.76-1.05-2.55 1.82-4.09.32-1.6-.09-2.12-.47-1.08-.62-.62-.57-.86-.77-3.46.89-1.57 1.59-1.18 1.33-2.32 1.71-6.35-.16-2.26-1.71-1.19-1.55 1.08-3.31 4.72-1.22-.05.68-1.18 1.81-5.62-1.43-2.12-1.66-.63-3.34.36.85-6.07.18-3.23-.29-2.23.17-1.39.16-3.23-.34-2.37-.13-2.68-.44-1.91-1.26-.09 0-1.16.53-.01.49-.4.44-.83.38-1.18-.64-1.19-.71-.86-.75-.39-.78.11-.12 3.13-1.28 1.01-1.64-.49-1.26-1.32.22-1.54.1-1.88.04-4.6-.05-1.13-2.96-14.73-.85-2.31-1.9-4.04-.68-2.53-.32-3.53.18-2.81.35-2.73.29-5.24.49-3.46.11-1.7.29-2.03.67-1.16.73-.89.48-1.18.23-3.44-.43-2.33-.62-2.25-.31-3.22-.91-2.92-2.1-2.07-10.12-4.96-1.1 2.11 1.34 1.07.6.95.52 1.55-1.33.34-3.63-1.42-4.47 2-1.27-.92.29-.8.49-1.94.28-.83-.39-.48-1.03-1.9.82-1.3.68-1.58.21-1.93-.64-2.33 3.97-1.82.86-1.16-.27-1.45-5.84-2.64-5.51-6.18.44-1.65.65-.76.73-.47.67-.71-.68-.46-1.78-2.55-1.04-.94-11.51 2.64 1.05-2.66.41-.73-19.59-19.38 1.29-2.7 4.42-.66 1.04-2.8-3.45-2.47-3.66-1.17-3.35 2.29-1.64.29-1.48-2.58-.07-.86.08-1.09-.01-1.33-.35-1.56-.79-1.23-5.13-2.57-3.79-1.91-16.33-1.18-16.34-1.19-1.67 1.37-.96 2.95.45 3.43 1.5 3.64 1.78 2.89 2.65 2.3 1.22 2.65 2.1 5.91 2.03 3.22 2.37 1.78 13.19 2.63 1.29 2.67.34 1.75 1.37 1.39.1 2.21-.58 1.73-1.06.91-1.95.97-1.21 1.62-.2 1.12.64.65 1.31.2 2.1-.94 2.02-2.12 2.25-1.48 2.97.23 2.41 1.21.53.27 2.17 2.24 2.16 1.15 5.76.63 1.38 2.51-2.29-.24-1.11.64-.91 2 .57 1.24 1.01 1.74.41 1.15-.1 1.27-.98.19-1.94-.81-6.66-6.08-2.06-1.88-3.96-1.52-4.07.47-.52 1.57.56 2.29 1.35 2.76-1.36 1.44-5.07.95 1.48 3.56 2.28 1.57 2.45-.26 2-1.88 1.82-.75 2.09 2 3.01 4.22 2.44 3.4.71 2.7.59 2.94 1.11 2.85 1.81 2.31 1.04.89.9.35.6.82 1.43 3.87.62 1.24-1.49 1.96-1.78.62-1.83-.38-5.92-5.26-.23-.3-4.9-6.38-5.17-2.06-2.05.39-1.2 1.93 11.37 8.2 1.95 2.63.94 1.27 9.51 6.64 1.19 2.54-1.46 1.02-1.41-1-1.42-1.63-6.16-2.82-1.19.64-.48.26-1.91 2.96-.42-.01-1.13-2.57-.29-.38-1.28-.58-2.77-3.41-4.02-8.34-2.43-1.52-2.09-3.18-1.19-.72-1.62-.09-.72.5-.67 1.37-.73 2.56-.42 1.06-.39.19-1.1-.39-1.47.63-1.45 1.46-1.06 2.19 2.53 4.13 9.27 7.67-1.38 1.53-1.49-1.07-1.49-1.91-1.91-1.3-1.33-1.46-3.08-1.56-.77-.13-.88-.64-1.35-1.57-1.22-1.94-.5-1.75.68-1.58 5.22-4.33.41-1.05.16-1.93-.33-.47-2.19 1.06-3.34-.33-1.65-.89-2.86-3.47-1.34.07-1.31 1.31-5.57 8.05.43 2.59.6 1.92 1.49 3.77-8.01-1.03-1.51.57-1.29 1.11-.38 1.66 1.2 2.31-1.66 3.34-2.2 1.55-1.7 2.38-.16 5.89.82 3.52 1.2 3.27.99 3.67.19 4.77-1-.86-.88-1.61-1.32-3.27-1.43-2.38-1.4-1.09-3.06-.25-.07-.65-.83-3.01-.33-.92-.71-.77-2.1-.61-.77.19-1.15 1.59-.91 1.95-.95 1.02-1.26-1.14 1-2.98 3.98-5.25-1.11-1.16-2.47.35-1.05-.26 1.4-2.61 5.45-3.21.93-1.46.41-.88.38-1.37-1.9-1.38-2.78.12-2.71 1.45-1.71 2.7-1.41 3.54-1.78 2.37-1.93 1.37-2.77.76-2.2 1.95-.82 1.24-.75 1.55-.28.93.16.85.51 1.38 1.02 1.84 1.15.74 2.49-.23 2.34-1.85 1.2-.44 1.08 1.22-3.24 3.79-4.32 2.68-1.42 2.21-.62.68-.84.06-1.67-.57-.73.51-.94 4.11-1.06 2.6-.16 1.19-.05 1.21-.27 1.41-1.14 2.96-.99 1.05-.91-.63-.91-2.11.86-2.55 1.46-2.79 1.13-2.92-.05-2.94.1-2.37 3.18-3.69.79-2.82-.73-3.27-1.56.62-3.04 3.92-2.5 1.48-1.36.1-1.14-.99-1.54-2.07-.86-.7-.79-.16.88-3.61 1.71-2.35 15.12-10.3 6.1-7.38.48-1.31-.31-1.63-.87-.7-1-.38-.7-.63 10.63-9.6 1.17-2.36.26-1.36.42-4.68.42-2.37 1.5-5.68.42-2.29-.21-1.96-1.06-2.14.27-1.09.17-1.15.27-2.54-4.63-2.4-4.34-.63-1.9-1.25-1.45-.13-.52-.49-.04-.63.09-2.1-.05-.66-.92-2.15-1.23-2.1-2.34-1.92-4.98-.75-3.45-3.57-8.67-4.55-2.13-2.63-4.57-1.69-3.55-3-10.58-.8-4.83-2.16-8.39-8.2-13.42-4.26-.76-.56-1.74-2.43-.99-.55-4.35.04-3.79-2.06-9.24 4.05-10.34 14.53-4.84 12.57-4.6 7.53-1.66 3.57 0 2.78 2.37 1.22 6 .5 1.6 3.78-.41.56-.35.83-.66 2.2 0 4.32-2.06 3.25-5.62 3.88-1.23.39-.45.48-.31 1.1-.27 1.27-.37.94-1.14 1.29-1.35.88-1.36.08-1.16-1.15 2.84-4.21 6.33-5.87 2.56-5.44-2.62.72-12.6 10.24-2.9.6-2.18-2.01.71-2.38-12.57 4.43-6.74 6.28-2.36.43-1.09 1.12-.92 4.87-1.11.85-2.37-.02-5.44-2.49-1.85.96-.62-.55.44-2.79-1.21-2.14-.66-.83-.65-.6-.33 0 6.84-2.93.87-1.17 1.57-3.04 1.11-1.57 4.71-2.86 2.28-2.26 1.18-.47-1.03-1.2-2.44 1.83-1.01-1.28-.22-1.41-.16-3.04-.33-1.54-.44-3.34 1.01-1.64 2.81-1.66 1.61-4.21.56-.6 11.36-.95 2.19-2 .6-2.71-.96-2.61-2.52-3.77-.78-1.89-.22-1.16-.07-1.9.21-1.99.47-1.27.49-.85.28-.73.23-3.29-.33-1.99-.54-1.78-.42-2.63.15-.4.2-2.17.11-2.14-.11-.27.4-1.31.96-2.05.42-1.51.22-1.68-.02-1.36-.12-1.5-.08-2.12.21-1.53 2.21-9.18.19-3.1-.36-3.08-.82-3.36-2.17-6.47-9.06-17.4-3.57-5.01-7.42-2.15-9.21-6.75-4.92 1.27-3.13 2.04-8.77 8.47-11.4 4.49-4.26 4.76-1.16.82-4.52-.21-.8.41-.98 1.04-.94 1.41-.71 1.52-.85 1.39-8.93 5.71-10.07 2.72-12.73 8.26-10.04 3.93-6.15 4.56-6.14 3.22-.92 1.07-2.14 1.41-5.11.25-2.63 4.51-13.06 12.04-11.24 4.02-5.08 3.88-8.4.91-1.62 2.1-2.85 6.81-1.4 2.63-3.28 3.88-2.64 5.73-11.08 10.62-3.07 6.36-7.07 4.85-1.97.28-4.51 4.15-2.2 1.15-1.05 1.12-.83 1.96-1.06 3.32-.64 1.4-.61.57-1.72.75-11.97 13.74-2.91 5.66-1.29 8.48.41 3.58 1.04 3.43 1.31 2.55 1.19 1.04 1.06.47 3.56 3.04 9.74 0 3.52 1.44 2.58 4.95 1.01 10.57-1.16 3.5-16.37 7.57-7.02.58-5.28 6.31-1.47 2.61-.87 3.24.68 1.24.17 1.56-.16 1.64-.34 1.46-1.63 3.35-4.03 2.46-6.4 7.89-5.55 9.52-1.13 2.76-.87 3.37-.39 2.89-.37 7.01-1.15 6.97-.42 3.92.33 3.33.55 2.89.9 8.04.53 3.35 1.78 5.03.42 1.85.97.79 1.08.34.77.51 3.63 4.54 2.01 1.05 1.11-1.7-1.26-1.67-.52-1.18-.35-1.65.77-.63.73-1.01.7-1.32.64-1.56-.5-1.83 1.57-.66 7.5.23.6.58 1.03 1.4.72.28.59-.44.85-2.15.51-.8.83-.25 2.37 1.38 2.94.51 1.43.89.29 1.99 2.16 1.5.83 1.18.21 1.94-.34 1.57-1.11 2.15-.36 1.82 1.02-.04 1.8-1.77.98-.46 3.04.33 4.83-1.19 1.62-1.54-.42-3.23 2.61-3.8 2.89-2.42 18.48-2.11 1.37 1.55-8.92 4.52-4.01-.35-.98 1.38-.36 2.16.15 1.78.53 1.24.75.56.51-.16.15-.64.08-.77.33-.58.72-.41.55-.06 3.39 1.49.34.53.72 1.72 2.01 1.22 4.24.57 1.97 1.69-.96 2.21-1.05.79-3.68-1.08-3.98.33.97 1.14 3.3 2.13-1.37 1.61-7.71-2.73-10.2 1.12-6.53 5.95-2.89 5.34-.03 6.17 3.42 6.35 4.23 2.35 13.59-1.34 1.09.33 2.05 1.47 2.15.33.89-.22.75-.77 1.37-3.12.72-.84.73.15.65 1.56-.39 1.11 8.21 2.12.9-.85 1.18-2.07 1.03-2.55.45-2.23-.8-3.22-1.87-1.25-3.77 0-.83-.7-.47-1.58.1-1.58.88-.71 1.63-.7 1.61-1.54-.32-.51-.15-.49-.1-.54-.18-.7 1.47.3 1.88 1.03 1.72 1.75.98 2.52-.47.33-.3.4-.66 1.51 4.31-.57.67 1.18-.21 1.29-.96 2.5-.44 4.11-.29 1.56.18.91 1.22.28 1.17-.19 4.04-2.72 3.36.58 1.06-.36 1.98-1.53 1.9-.6 2.24-1.58.84-.96 1.23-.85 6.57 1.63 5.27-.84 4.61-3.69 5.09.06 4.27-4.01 19.16-3.46 2.54-1.42 4.75-.95 3.33-2.1 4.9-.48 3.3-2.92 11.23-1.18 7.99 2.75 0 1.22-5.33 2.25 0 1.13 3.09 2.71 3.51.77 6.95-1.24 9.78-6.34 2.73 1.75-4.69 3.34-3.12 3.51-6.13 1.1-1.62.99-1.62 1.89-1.69 1.17-3.65-2.56-4.1-.76-1.58-1.96.72-1.01-1.48-1.27-6.09 2.33-1.03-.18-.69-2 1.07-2.24-15.92 10.82-7.43.02-1.28 1.46.47 1.54 7.27 1.05 8.46 4.3 6.08-.12 3.04 1.15-1.87 3.18-14.89.61-2.56 2.26-1.41.62-1.4-.12-1.06-1.09 5.01-2.22-1.33-1.52-8.62 2.07-2.31 2.16-25.69 9.72-1.69 3.32.29.12.5.64.28.24-1.8 2.6-2.46 1.31-10.18-.59-19.77 9.44-16.83 2.43-15.33 11.94-15.33 11.89-1.82 5.07.54 2.56 4.65 10.8 2.45 4.52 4.58 6.2 16.31 14.43 3.38 1.38 2 1.67 1.91 2.45 1.3 2.88-1.4 5.16 1.98 4.2 5.85 4.6 1.82.71.84-.11.9-.6.06-.42-.07-.73-.01-.68.21-.31 7.26-1.37 1.51 1.37-.39 1.07 1.15 1.65 4.93-2.72 12.88 2.75 15.93-.91 1.7-.77 3.49-3.15 18.23-1.01 2.27.92 1.18 2.17-1.93.61-.18 1.39 1.05 1.45 7.75 2.96 16.14-4.27 7.71 4.11 1.05.17.77-.49 1.75-2.22.87-.49 13.24-1.82 10.31 1.09 8.86-3.72 19.13-2.62 5.67-5.52 2.64-1.09 8.52 2.95 2.02-.74 5.63-5.81 2.5-1.08 14 3.84 1.69 2.21 2.54 1.83 1.99 2.41 2.02 1.22 1.87-2.27.16-.93.04-1.04.07-1.01.28-.78.62-.37.64.31 4.07 4.36 2.6 1.06 8.11-.09 0 1.17-.19 1.53.3 1.78.62 1.45.72.6 2.51-1.55 1.31-.35 1 1.37 1.72 3.06 6.65 3.9 1.97 2.83 1.13.64 1.06-4.18 1.33-.68 4.96.79 2.25 1.11 2.16 1.8 2.95 3.67 2.4 1.33 1.07.15.91-.48 1.45-2.21.82-.5 1 .54.41 1.25.27 1.43.64 1.05 1.01-.11 2.1-2.06 1.19.12 2.49 2.86 1.08.35 3.42-.39 1.19.39 1.48 1.47 1.12 2.19 1.89 5.39.3 1.21.33 2.54.24 1.02.66 1.22 2.22 1.96 1.72 2.33.88.7 4.57 1.11 3.53 2.37 12.6-1.21 2.67 1.17 1.51 3.16-1.3 1.25-2.7.92-1.36.89 1.49 2.64 4.3-.77 1.71 1.49-1.18 1.26-2.96 1.67-1.23.24-4.63-1.65-4.11 2.89-6.29-1.79-5.22 1.51-16.85-7.05-2.51 1.78 1.99 2.08 6.94 1.08-1.68 1.54-8.99.05-1.65.83-.91 1.79 2.52.96 0 1.13-.77.06-2.28 1.01-.86-.35-1.63-1.5-.73-.35-3.3-.21-1.65.92-1.29 2.64 2.53 1.08.71 1.01-1.55 1.25-1.84.06-12.73-4.85-1.77-1.9-5.22-1.47-1.18.51.26.43.81 1.66-1.38.79-11.79-4.4-13.4-3.65-8.64 3.27-20.61-2.91-7.62-5.33-16.92.08-13.19 3.67-15.04 1.74-9.49 2.52-21.02 2.45-20.61 4.27-24.94 8.74-12.09 2.69-11.54 2.58-11.98 5.61-5.45 5.48-3.04 1.55-1.51 1.95-1.43 2.7-1.44 4.04 2.18 3.44.99 2.37.73 5.21 2 7.17 2.35 6.08.35 2.18.17 1.89.45 3 .68 2.78.84 1.22 1.31.5 3.5 3.13 2.41 4.14 2.09 1.44 4.71 1.39 2.4 2.64 2.51 1.13.69.92.18.98.4 2.22-1.12 1.85-3.05 2.19 1.18 1.97 4.9 2.66 2.64 3.68 1.45.95 1.28-1.1-2.16-2.55-.69-1.44 7.48.93 1.22 1.15.68 1.48-.17 1.47-1.35 1.09.45 2.17.76 1.28.87 1.08.77 1.56-2.27 1.58-1.06 1.24-.58 2.25 5.46 7.11 5.01 1.51 14.89 9.26 4.8.75 1.25.76.87 1.33.53 1.22.7 1.14.75.83 20.47 4.24 20.47 4.23 3.98-.37 1.82-1.32 1.61-2.83.91-1.25 1.19-.4 3.47.39.7.65 1.39 2.12 2.29 1.51 23.88-5.2 7.43.66.87.48 1.74 2.08 3.78 2.31 5.7.16 4.07-1.39 1.3.89 1.18 2.38.62.82 15.68 4.39 2.24 1.54 1.68 2.39-6.51-1.32-1.98-1.59-1.11-.09.3 1.79-.18.86-.33.66-.18 1.29.43 1.16 2.84 2.34-1.56 1.09-.25-.09 0 .97.13.47.14.25.08.29.13 1.22.48 2.37.1.91.77 1.76 3.55 2.82 1.02 1.88-2.65-.36-1.27.54-.67 1.91 3.52 0-.33 1.86-.34 3.01-.05 2.82.54 1.24.09.46-.46 1.02-.66 1.02-1.01.83-1.3 2.61-1.79 2.53-.32 1.66.47 2.32 1.88 3.19.73 2.15-.81.98-1.41.43-.51 1.17.18 1.75.66 2.15.87 1.48 2.16 1.81.88 1.59.77 1.95.77 1.32 4.09 4.42 1.06 1.64.63 2.07-.78 2.62.57 3.2 1.26 2.72 1.28 1.14.44.55 1.28 2.58.61.87 3.58 1.4 2.99 2.82 4.31 1.93 1.99 1.62 2.7 3.9.65 2.09-1.24.9-7.76-2.26-2.6.23-1.89 1.68-.26 2.29 1.04 2.03 2.03.88 18.03-2.91 7.76 1.68 2.83-1.6 1.28.19.61-.27.38-.49 1.84-3.48.7-.7.99-.27 9.99.97 2.05-.63.97-.67 1.92-1.93.85.29.82.7.91.39 18.65-1.98 18.65-1.99 9.49 3.3 5.1.13 2.38-4.42-2.67-1.08-5.96-.57-2.46-2.32 2.91-1.26 13.18.95 1.4-.58 3.28-2.59 6.72-1.31 1.2.31.97 1.03.2 1.08-8.27 2.41-1.15.95-.81 1.05 3.2 2.26 11.44-5.19 3.49-.08 1.85-.6 2.75-3.91 1.86-.3 6.51 1.11 1.2.98 1.1 2.32 1.26 1.68 1.52-.55 2.75-3.56 3.41-3.24 3.67-.7 8.95 1.08 4.31-1.93 6.25.88 8.29-1.3 14.44-8.08 16.61-4.12 4.01-2.25 1.53-1.61 2.92-4.37 3.3-1.41 7.01-6.31 3.27-4.25 2.12-1.29.76-1.21.61-1.6.27-1.67-.18-1.14-.45-.96-1.15-1.86 1.46-1.84 11.06-.75 4.97 2.8 15.13-1.2 3.11-1.99 21.18-5.53 7.3-4.75 3.27-4.69 5.39-11.55 3.15-3.93 3.25.98.96.69-.02-1.46-.42-2.21-.18-1.57.69-1.45 3.22-.46.6-.72.8-1.41.59-1.74-.02-1.69-.73-2.24-.35-1.4-.62-4.87-1.76-4.48.1-2.65 1.43-2.6 2.2-1.2 8.03-.75.82-.58.27-1.28.04-1.6-.03-1.68.12-2.45-.03-.9 0-.88.16-.82.42-.53.97.09.41-.53.58-1.09 1.57-1.75 2.33-3.99 1.91-.95 1.96.47 1.8 1.6 3.71 7.2 1.3.99 1.07.22 1.17.62 1.13.94.9 1.26.72 1.38.12.5-.13.6 0 1.66.36 6.52.19 1.62.44.88.53.63.45.89.41 3.93-1.06 2.4-4.76 3.78-.83 1.33-.35 1.67-.34 2.92-.09 1.79.25.8 4.3 1.41 6.54 4.19 6.83-1.51 3.54 1.72 1.09.19.84-.36 2.03-2.54 2.25-1.4 17.57 3.3.7.42 1.62 2.33.66 1.24 1.17 3 .57.73 10.46 1.01 2.25 2 9.12 2.32-.78-1.94-1.22-1.33-1.38-.68-1.21-.02 1.33-1.95 1.08-.14 5.63 1.86 1.65 1.07 1.17 1.6.07 3.97-2.49 2.57-4.53 1.96.31.38.76 1.6-1.75 2.28-4.25-2.1-1.68 1.4-1.09 2.57-1.16 1.68-1.32.93-1.59.27 1.2.53 1.54 1.34 1.47 1.75 2.16 3.79 1.69 1.04 13.79 2.31 13.79 2.31 3.34-1.52 2.94-5.12.25-.97.24-1.97.24-.96.64-.62 4.18 1.8 3.26 2.95 1.75.27-.37-1.59-1.07-1.73-.38-1.53 2.14-1.09.56.9.2.87.1.96.51 2.56.07.77.16.7.54 1.16 1.32 1.73 5.11 3.3 1.78.28 5.4-1.36 1.79.61 3.26 2.72 1.71.61 2.61-.33.94.33 2.36 1.75 5.18 1.29.69-.3 1.3-1.36.67-.31 1.15.59 2.35 3.01 2.8 2.41 1.66.9 1.68.14 1.57-1.14-.62-1.6.19-1.75.69-1.56.87-1 8.74-1.7 1.25.63.42.47.56.98.44.53 2.14.95 2.95 2.39 2.54.44 2.54-.81 3.56-3.2 1.02-.56 4.82-.45 1.18-.9.62-1.81-1.25-1.05-1.34-2.34-.65-2.36.79-1.07.98.14 1.71 1 2.78 3.32.48.39 5.82.05 1.77-1.04.75-1.06.63-1.28.66-1.08 1.47-.78.7-.9.66-1.29.5-1.51-.62-1.86-.48-2.11 1.29-.45 2.39 1.89 1.34.64 5.04-2.08 2.44.25.94-.47 1.21-1.75 1.65-3.3.89-1.26 1.03-.5 1.04.52.82 1.19.76 1.42.88 1.2 1.34.54 6.13-2.72 1.29-1.11.56-1.49-.36-1.87-.84-1.28-.95-1.08-.69-1.28 3.57-7.23 1.51-4.27.64-5.45-.81-4.93-1.97-2.22-2.32-1.54-1.86-2.87-.98-2.33-.99-.99-1.11.05-2.39 1.41-1.44 1.32-1.28 1.94-.56 2.56-.5 3.35-1.18.99-1.4-.56-1.19-1.27-.96-2.6-.45-.41-.69-.18-1.5-1.1-.67-.72.33-1.63-.07-1.44-.38-1.16-.62-.78 1.31-2.38 1.45-.47 1.41.94 1.19 1.91 1.33 2.65.86.75.8-1.07 1.12-2.83.84-3.17-.54-1.27-1.22-.84-1.21-1.82-.43-1.62-.12-.85-.25-.22-.82.22-.64.5-1.14 1.39-.68.03.08-1.17-.08-2.77.29 0-.29-1.09.68-1.01 2.12-1.06 4.21 1.35 4.79-7.18.4-2.18-1.53-3.07-4.5-6.4-1.56-.78-6.94-.09-3.37-1.99-1.1.3-2.19 1.78-2.01.99-4.16.35-1.02 1.42-1.73 6.36-1.58 2.18-4.29.06-1.95 1.34-1.98 2.07-6.86.48-.32.32-.12 1.23-.14.46-.31.49-.37.4-.28.16-.58.65-.1 1.57.03 1.84-.21 1.53-.79 1.48-1.76 1.8-.86 1.21-3.84 11.32-1.26 2.71-2.02 1.6-1.91 2.54-.61 1.07-.42 1.5-.42 3.32-.22 1.07-.77 1.33-.78.25-.76-.65-.73-1.37-.37-1.54.11-1.38.29-1.43.16-1.66-.1-1.44-.16-.9-.03-.85.29-1.26.7-1.24 6.37-4.53 1.79-2.5.77-3.36.38-6.78-.15-2.58-.93-3.32.64-1.73 1.26-4.69.59-1.67-.24-1.38-.61-1.62-.25-1.05-.12-1.18-.08-2.66-.13-1.22-.6-3.05-.67-1.87-.93-.93-1.37-.26-.69 1.22.04 2.83.24 3.22-.12 2.43-.91 2.44-.66.26-.55-1.48-1.53-7.77-1.19-4.6-1.69-3.35-5.6-2.69-6.22-5.92-3.25-.94 1.33-5.9.29-2.66-.56-2.69 2.77-2.05.82-.1.83.79.51 1.27.38 1.26.42.78 1.68.11 1.34-1.35 1.26-.71 1.41 1.95 2.54 5.06 3.35 4.62 3.62 3.12 3.35.59.67 1.62 7.15 3.3 2.89 3.04 1.78.28 3.59-2.13 1.09-.05 3.08 1.06 3.37-.65 1.65-.91 1.51-1.4-.11-.68-.17-1.78-.11-.69.36-.36.24-.52.22-.63.31-.62-.64-5.37.8-4.93.26-3.34-4.75-1.09-1.91-2.45-3.46-6.28.46-2.03.7.22.8 1.13 1.2.97.96 1.32.54.35.51-.08 2.23-1.65.74-.88 1.81-4.01.43-.5.48-.15.59.07.47.37 1.02 1.4.32.29.8-.31.41-.69.16-1.37.02-2.26.26-1.48.58.61.6 1.71.34 1.73-.14 2.18-.38 1.25.11.55 1.31.14.67-.54.78-1.33.72-1.69.52-1.59-.45-1.7-.63-1.43-1.45-2.12 1.12-2.27 1.46-.88 3.15.05-.96-6.15.06-2.88 1.46-1.21 1.18.79 1.2 2.05.63 2.81-.5 3.1-.09 1.19.28 1.52.45 1.32.4.56 1.7.04.77-.41 2.11-2.54 1.16-.56.89 1.22.35 3.85-.1 1.99.14.7.49 1.47.49 1.08 1.13 1.88 2.31 5.27.91 1.19 1.03-.68 1-1.33.81-.72.76.4 7.5 8.4.67 1.46.24 1.2.09 1.32.19 1.35.54 1.35 1.14-5.32.71-2 2.88-5.28.69-2.26.27-3.18.59-4.57 4.07-14.61.91-1.88.98-.47.67 1.24-.04 3.26-1.63 4.61-.72 2.55.35 1.11 1.81 8.76 2.69 5.24-.01 1.43 1.15 3.95 1.46 2.52 1.76 1.34 2.07.39 4.59-2.05.21-.52.2-.81.32-.27.83 1.66 1.32 1.99 1.02 1.02.78.1 1.43-1.12 3.73.69.71-.18 2.05-5.29.26-3-1.42-2.48 0-1.02 1.5-.52 1.24-2.22.86-3.28.31-3.75z" /></g></g></svg>