<?xml version="1.0" encoding="UTF-8" standalone="no"?>
<svg
   xmlns:dc="http://purl.org/dc/elements/1.1/"
   xmlns:cc="http://creativecommons.org/ns#"
   xmlns:rdf="http://www.w3.org/1999/02/22-rdf-syntax-ns#"
   xmlns:svg="http://www.w3.org/2000/svg"
   xmlns="http://www.w3.org/2000/svg"
   xmlns:sodipodi="http://sodipodi.sourceforge.net/DTD/sodipodi-0.dtd"
   xmlns:inkscape="http://www.inkscape.org/namespaces/inkscape"
   version="1.1"
   width="1360"
   height="1360"
   viewBox="0 0 1360 1360"
   id="svg8"
   sodipodi:docname="Victoria_Island.svg"
   inkscape:version="1.0.1 (3bc2e813f5, 2020-09-07)">
  <metadata
     id="metadata14">
    <rdf:RDF>
      <cc:Work
         rdf:about="">
        <dc:format>image/svg+xml</dc:format>
        <dc:type
           rdf:resource="http://purl.org/dc/dcmitype/StillImage" />
        <dc:title></dc:title>
      </cc:Work>
    </rdf:RDF>
  </metadata>
  <defs
     id="defs12" />
  <sodipodi:namedview
     pagecolor="#ffffff"
     bordercolor="#666666"
     borderopacity="1"
     objecttolerance="10"
     gridtolerance="10"
     guidetolerance="10"
     inkscape:pageopacity="0"
     inkscape:pageshadow="2"
     inkscape:window-width="1920"
     inkscape:window-height="974"
     id="namedview10"
     showgrid="false"
     inkscape:zoom="0.94355198"
     inkscape:cx="600"
     inkscape:cy="400"
     inkscape:window-x="-11"
     inkscape:window-y="-11"
     inkscape:window-maximized="1"
     inkscape:current-layer="svg8" />
  <g
     id="g6"
     style="fill:#000000;fill-opacity:1"
     transform="matrix(1.4278448,0,0,1.4278448,-176.70639,108.88058)">
    <g
       stroke="#000000"
       stroke-width="0.98"
       fill="#ffffff"
       id="g4"
       style="fill:#000000;fill-opacity:1">
      <path
         d="m 1075.75,597.02 -0.9,-9.55 0.19,-2.42 -0.45,-1.38 -0.35,-1.33 -0.46,-1.03 -0.84,-0.4 -0.81,-0.08 -0.57,-0.44 -0.32,-1.09 -0.11,-2.06 0.26,-1.7 1.17,-1.94 0.35,-2.03 -0.09,-1.36 -0.29,-1.5 -0.69,-2.43 0.78,-0.83 0.29,-0.12 -1.13,-3.94 -2.17,-5.46 -0.29,-1.46 0.08,-1.57 0.72,-5.19 0.21,-2.36 -0.2,-2.11 -0.81,-2.12 -1.38,-1.73 -2.01,-1.52 -2,-0.68 -1.4,0.78 0.4,1.72 -0.44,1.95 -0.85,1.72 -0.85,0.99 -2.52,1.05 -1.12,1.18 -0.53,0.21 -0.81,-0.34 -4.05,-4.81 -2.16,-0.82 -0.94,4.06 -0.44,2.47 -1.03,1.05 -3.63,-0.1 -0.62,0.24 -0.37,0.44 -0.6,1.29 -0.45,0.37 -1.35,-0.76 -1.41,-2.25 -2.08,-4.89 -0.89,-3 -0.42,-3.15 0.18,-3.14 0.95,-2.93 1.55,-2.63 0.62,-1.76 -0.57,-0.78 -0.82,-0.31 -1.05,-0.81 -1.01,-1.17 -0.69,-1.4 -1.52,-1.16 -5.08,0.49 -1.1,0.67 -0.62,4.52 -1.52,1.59 -3.53,-0.32 -1.7,-0.92 -4.75,-6.56 -1.88,-1.17 -0.74,-0.76 -0.78,-1.66 -0.88,-1.49 -0.71,0.36 -0.72,1.05 -0.87,0.61 -0.78,-0.02 -0.36,-0.21 -2.98,-6.13 -8.33,-8.15 -4.16,-1.48 -3.58,-3.29 -3.25,-1.31 -1.89,-2.97 -2.3,-0.57 -1.1,-0.95 -6.73,-3.59 -0.25,-2.86 0.88,-3.91 -0.16,-3.28 -0.92,-2.5 -1.39,-1.54 -1.99,-1.15 -1.11,-1.07 -0.79,-2.43 -1.47,-2.38 -5.09,-4.14 -2.33,-0.77 -1.54,3.37 0.57,1.85 0.46,2.77 0.31,3.01 0.11,2.55 0.43,3.14 1.02,1.56 1.23,1.07 1.07,1.72 1.62,1.72 4.39,0.88 1.34,2.19 -0.39,2.9 -2,0.85 -9.02,-2.64 -2.3,-5.02 -2.31,-2.89 -0.96,-2.23 -1.34,-2.45 -1.9,-1.09 -11.94,-0.24 -1.78,-0.95 -1.42,-2.35 -2.51,-6.35 -0.73,-1.1 -1.68,-1.53 -1.14,-2.2 -1.86,-2.34 -1.38,-0.97 -3.42,-4.81 -0.87,-0.81 -0.94,-0.4 -3.14,0.38 -1.66,-0.43 -1.46,-1.71 -1.35,-3.58 -4.23,-18.03 -2.17,-4.75 -2.89,-4.36 -1.54,-1.56 -3.75,-1.26 -14.96,-16.07 -0.62,-1.49 -1.1,-3.46 -0.58,-1.5 -0.65,-1.02 1.06,-3.05 1.42,-1.52 2.89,-2.02 3.51,-5.99 0.95,-2.45 0.97,-5.87 -0.83,-4.27 -1.39,-3.79 -0.72,-4.39 0.52,-3.56 1.24,-2.1 1.53,-0.96 1.36,-0.15 5.37,3.51 1.21,-0.73 -0.05,-2.23 -0.93,-2.63 -1.88,-3.99 -0.46,-2.84 0.25,-2.63 1.12,-5.2 -2.75,-1.96 -1.03,-1.82 -0.85,-2.94 1.92,-7.73 0.28,-3.22 -0.77,-3.77 -5.22,-12.31 -1.57,-1.96 -0.75,-1.65 -0.3,-1.31 -0.4,-2.86 -0.33,-1.4 -2,-4.98 -1.27,-2.16 -1.21,-0.91 -0.51,-0.71 -0.29,-1.67 -0.19,-1.9 -0.23,-1.41 -0.8,-1.95 -0.84,-0.92 -3.53,-1.14 -1.76,-1.41 -1.43,-2.86 -0.59,-4.91 -0.07,-3.94 -0.24,-2.86 -0.44,-2.47 -2.36,-9.17 -1.05,-2.82 -1.03,-1.18 -0.16,-0.69 -0.59,-3.54 -0.46,-1.54 -0.89,-1.12 -2.1,-0.64 -0.96,-0.65 0.69,-1.92 -0.06,-2.09 -0.57,-1.82 -0.8,-1.11 0.72,-3.28 2.35,-2.52 0.91,-2.43 0.15,-2.71 -0.35,-2.59 -0.71,-1.95 -1.77,-1.67 -0.67,-2.04 -0.95,-4.17 -0.75,-1.81 -1.58,-2.82 -1.67,-4.71 -0.27,-1.18 -0.15,-1.23 -0.18,-2.88 -0.24,-1.21 -0.91,-2.24 -2.82,-4.28 -1.37,-3.19 -2.14,-6.89 -1.47,-2.86 1.13,-1.11 1.02,0.5 1.01,1.09 1.09,0.59 0.67,-0.5 0.34,-1.32 0.43,-3.98 -2.28,-1.38 -0.46,-1.52 1.31,-3.01 -0.27,-0.56 -0.44,-1.32 -0.35,-0.6 0.5,-1.78 0.18,-0.48 -0.99,-1.26 -3.6,-1.11 0.4,-3.76 -0.25,-2.86 -0.68,-2.22 -0.93,-1.87 2.77,-3.05 0.43,-1.26 -0.23,-1.61 -0.54,-1.31 -0.65,-0.9 -2.24,-1.05 -5.26,-5.24 0.22,-1.51 0.34,-1.25 0.41,-1.08 0.48,-0.96 -4.26,-8.5 1.47,-1.33 1.25,1.84 1.08,2.76 1.47,1.95 1,2.46 0.45,0.82 0.8,0.35 0.87,-0.25 1.6,-1.4 -0.72,-2.34 -1.14,-1.54 -2.44,-2.01 1.04,-1.5 0.41,-0.98 0.32,-1.23 -1.13,-0.97 -2.46,-6.36 -1.41,-2.17 -1.65,-1.66 -1.72,-0.93 -1.62,0.05 v -1.21 l 0.51,-0.03 0.46,-0.43 0.43,-0.81 0.38,-1.15 -0.77,-0.76 -0.5,-1.29 -0.4,-1.47 -0.46,-1.31 -0.83,-1.17 -2.09,-2 -1,-1.8 1.78,-2.42 -7.67,-4.59 -2.32,-4.17 -1.08,-0.96 -0.59,-1.54 0.11,-3.38 -0.04,-3.4 -1.08,-1.54 -2.62,0.14 -1.44,-1.09 -0.6,0.58 -0.6,0.97 -0.62,0.73 -2.37,0.62 -2.11,-0.78 -6.8,-5.27 -2.84,-0.78 -0.62,-0.77 -0.8,-3.37 -0.37,-0.76 -0.79,-0.64 -2.93,-4.26 -2.24,-1.04 -1.19,-1.19 -0.9,-3.77 -1.85,-1.69 -0.65,-0.91 -0.24,-1.35 -0.12,-2.91 -0.35,-1.9 -0.44,-1.1 -0.61,-0.8 -0.66,-0.5 -0.58,-0.16 -0.49,0.23 -0.07,0.66 0.02,1.01 -0.19,1.28 -1.07,1.31 -5.88,-2.96 -1.41,-2.58 -2.16,-6.37 -1.68,-3.24 -2.43,-2.31 -2.61,-1.07 -2.21,0.43 -1.63,2.26 -0.52,0.33 -1.95,-1.24 -0.56,-0.11 -1.12,0.84 -1.94,2.39 -1.23,0.49 0.22,2.67 -0.6,2.1 -1.76,2.75 4.87,5.99 1.24,2.52 -1.47,3.32 -1.75,0.11 -5.17,-3.05 -2.9,-4.23 -2.1,-1.54 -1.26,-2.55 -2.29,-1.51 -6.11,-7.09 -3.38,-1.28 -7.46,-5.94 -6.85,0.4 -11.45,-5.2 -3.87,0.13 0.95,2.26 2.05,2.81 0.88,2.37 -5.77,-0.51 -1.7,1.75 0.42,0.84 0.97,0.93 0.38,0.71 0.09,0.82 -0.03,2.49 0.14,1.02 0.69,1.72 1.83,2.83 0.87,1.01 7.77,4.6 1.9,4.12 -10.4,-3.25 -5.07,0.28 -4.9,5.44 -2.05,7.58 1.71,5.72 5.68,8.84 -0.8,1.01 -0.91,0.29 -1.85,-0.19 -0.51,0.6 0.47,1.3 2.99,5.15 1.67,3.91 -0.79,0.87 -0.6,1.66 -0.26,2.21 0.23,2.55 0.53,1.26 1.78,2.57 0.75,1.79 -0.05,1.92 -1,0.96 -0.92,1.33 0.17,3.04 0.51,1.72 1.46,3.76 1.75,6.99 0.59,4.31 -0.72,1.94 -0.7,0.88 0.47,1.9 1.28,2.66 0.57,1.65 1.14,2.14 0.6,1.66 -1.06,4.05 0.71,2.82 2.84,3.76 -0.81,0.92 -0.84,0.33 -0.74,0.66 -0.48,1.88 4.05,2.38 1.82,2.17 1.31,3.67 -0.68,2.57 -0.1,1.9 0.29,1.78 0.49,2.16 -5.73,1.19 2.22,4.83 2.57,2.88 2.77,1.39 2.82,0.36 -1.18,3.57 -3.29,1.37 0.36,3.95 0.72,1.49 1.72,1.22 0.6,1.45 0.14,2.36 -0.58,1.07 -1.72,1.28 1.61,1.94 2.27,1.58 2.03,2.29 0.87,4.1 -0.49,2.53 -1.14,0.67 -1.26,-0.65 -1.89,-2.84 -1.47,-0.51 -1.19,0.46 -0.22,1.51 1.2,3.01 1.34,2.15 1.11,2.5 0.46,4.11 v 8.16 l 0.18,1.29 0.34,1.22 0.17,1.55 -0.33,2.37 7.5,2.32 -1.04,0.99 -0.42,0.17 0.59,1.14 1.61,1.85 0.33,1.06 -0.29,1.83 -1.39,0.74 -0.49,1.48 0.24,2.47 0.79,3.51 0.95,3.14 0.7,1.37 2.12,0.71 4.32,3.16 2.14,0.73 0.9,1.08 0.45,2.61 0.08,3.05 -0.21,2.44 1.16,0.13 3.17,2.17 3.2,1.06 1.07,1.23 -1.04,2.89 -1.86,1.7 -2.01,0.39 -4.33,-2.52 -0.67,0.12 -1.22,1.7 -0.38,0.99 1.56,1.36 2.27,3.99 1.24,0.91 3.35,1.02 1.74,1.38 1.35,2.05 -13.92,3.63 -2.34,1.53 -1.81,3.63 -1.68,4.21 -1.97,3.31 -2.1,-0.47 -2.46,-2.7 -2.35,-1.18 -1.73,4.06 -0.23,2.92 0.3,2.17 0.71,1.34 1.01,0.46 0.74,0.74 3.19,4.81 -0.85,2.75 -1.28,0.45 -1.28,-0.24 -0.86,0.63 h -0.39 l -0.96,0.8 -1.2,-0.36 -3.21,-3.39 -3.55,-0.64 0.39,-4.27 -0.74,-3.78 -1.37,-3.16 -1.48,-2.37 -2.65,-1.1 -5.28,2.89 -2.45,-2.82 2.98,-1.7 0.61,-0.67 0.27,-1.32 0.08,-1.48 -0.19,-1.24 -0.52,-0.51 -1.34,-0.33 -1.54,-1.05 -1.44,-1.76 -1.05,-2.55 1.82,-4.09 0.32,-1.6 -0.09,-2.12 -0.47,-1.08 -0.62,-0.62 -0.57,-0.86 -0.77,-3.46 0.89,-1.57 1.59,-1.18 1.33,-2.32 1.71,-6.35 -0.16,-2.26 -1.71,-1.19 -1.55,1.08 -3.31,4.72 -1.22,-0.05 0.68,-1.18 1.81,-5.62 -1.43,-2.12 -1.66,-0.63 -3.34,0.36 0.85,-6.07 0.18,-3.23 -0.29,-2.23 0.17,-1.39 0.16,-3.23 -0.34,-2.37 -0.13,-2.68 -0.44,-1.91 -1.26,-0.09 v -1.16 l 0.53,-0.01 0.49,-0.4 0.44,-0.83 0.38,-1.18 -0.64,-1.19 -0.71,-0.86 -0.75,-0.39 -0.78,0.11 -0.12,3.13 -1.28,1.01 -1.64,-0.49 -1.26,-1.32 0.22,-1.54 0.1,-1.88 0.04,-4.6 -0.05,-1.13 -2.96,-14.73 -0.85,-2.31 -1.9,-4.04 -0.68,-2.53 -0.32,-3.53 0.18,-2.81 0.35,-2.73 0.29,-5.24 0.49,-3.46 0.11,-1.7 0.29,-2.03 0.67,-1.16 0.73,-0.89 0.48,-1.18 0.23,-3.44 -0.43,-2.33 -0.62,-2.25 -0.31,-3.22 -0.91,-2.92 -2.1,-2.07 -10.12,-4.96 -1.1,2.11 1.34,1.07 0.6,0.95 0.52,1.55 -1.33,0.34 -3.63,-1.42 -4.47,2 -1.27,-0.92 0.29,-0.8 0.49,-1.94 0.28,-0.83 -0.39,-0.48 -1.03,-1.9 0.82,-1.3 0.68,-1.58 0.21,-1.93 -0.64,-2.33 3.97,-1.82 0.86,-1.16 -0.27,-1.45 -5.84,-2.64 -5.51,-6.18 0.44,-1.65 0.65,-0.76 0.73,-0.47 0.67,-0.71 -0.68,-0.46 -1.78,-2.55 -1.04,-0.94 -11.51,2.64 1.05,-2.66 0.41,-0.73 -19.59,-19.38 1.29,-2.7 4.42,-0.66 1.04,-2.8 -3.45,-2.47 -3.66,-1.17 -3.35,2.29 -1.64,0.29 -1.48,-2.58 -0.07,-0.86 0.08,-1.09 -0.01,-1.33 -0.35,-1.56 -0.79,-1.23 -5.13,-2.57 -3.79,-1.91 -16.33,-1.18 -16.34,-1.19 -1.67,1.37 -0.96,2.95 0.45,3.43 1.5,3.64 1.78,2.89 2.65,2.3 1.22,2.65 2.1,5.91 2.03,3.22 2.37,1.78 13.19,2.63 1.29,2.67 0.34,1.75 1.37,1.39 0.1,2.21 -0.58,1.73 -1.06,0.91 -1.95,0.97 -1.21,1.62 -0.2,1.12 0.64,0.65 1.31,0.2 2.1,-0.94 2.02,-2.12 2.25,-1.48 2.97,0.23 2.41,1.21 0.53,0.27 2.17,2.24 2.16,1.15 5.76,0.63 1.38,2.51 -2.29,-0.24 -1.11,0.64 -0.91,2 0.57,1.24 1.01,1.74 0.41,1.15 -0.1,1.27 -0.98,0.19 -1.94,-0.81 -6.66,-6.08 -2.06,-1.88 -3.96,-1.52 -4.07,0.47 -0.52,1.57 0.56,2.29 1.35,2.76 -1.36,1.44 -5.07,0.95 1.48,3.56 2.28,1.57 2.45,-0.26 2,-1.88 1.82,-0.75 2.09,2 3.01,4.22 2.44,3.4 0.71,2.7 0.59,2.94 1.11,2.85 1.81,2.31 1.04,0.89 0.9,0.35 0.6,0.82 1.43,3.87 0.62,1.24 -1.49,1.96 -1.78,0.62 -1.83,-0.38 -5.92,-5.26 -0.23,-0.3 -4.9,-6.38 -5.17,-2.06 -2.05,0.39 -1.2,1.93 11.37,8.2 1.95,2.63 0.94,1.27 9.51,6.64 1.19,2.54 -1.46,1.02 -1.41,-1 -1.42,-1.63 -6.16,-2.82 -1.19,0.64 -0.48,0.26 -1.91,2.96 -0.42,-0.01 -1.13,-2.57 -0.29,-0.38 -1.28,-0.58 -2.77,-3.41 -4.02,-8.34 -2.43,-1.52 -2.09,-3.18 -1.19,-0.72 -1.62,-0.09 -0.72,0.5 -0.67,1.37 -0.73,2.56 -0.42,1.06 -0.39,0.19 -1.1,-0.39 -1.47,0.63 -1.45,1.46 -1.06,2.19 2.53,4.13 9.27,7.67 -1.38,1.53 -1.49,-1.07 -1.49,-1.91 -1.91,-1.3 -1.33,-1.46 -3.08,-1.56 -0.77,-0.13 -0.88,-0.64 -1.35,-1.57 -1.22,-1.94 -0.5,-1.75 0.68,-1.58 5.22,-4.33 0.41,-1.05 0.16,-1.93 -0.33,-0.47 -2.19,1.06 -3.34,-0.33 -1.65,-0.89 -2.86,-3.47 -1.34,0.07 -1.31,1.31 -5.57,8.05 0.43,2.59 0.6,1.92 1.49,3.77 -8.01,-1.03 -1.51,0.57 -1.29,1.11 -0.38,1.66 1.2,2.31 -1.66,3.34 -2.2,1.55 -1.7,2.38 -0.16,5.89 0.82,3.52 1.2,3.27 0.99,3.67 0.19,4.77 -1,-0.86 -0.88,-1.61 -1.32,-3.27 -1.43,-2.38 -1.4,-1.09 -3.06,-0.25 -0.07,-0.65 -0.83,-3.01 -0.33,-0.92 -0.71,-0.77 -2.1,-0.61 -0.77,0.19 -1.15,1.59 -0.91,1.95 -0.95,1.02 -1.26,-1.14 1,-2.98 3.98,-5.25 -1.11,-1.16 -2.47,0.35 -1.05,-0.26 1.4,-2.61 5.45,-3.21 0.93,-1.46 0.41,-0.88 0.38,-1.37 -1.9,-1.38 -2.78,0.12 -2.71,1.45 -1.71,2.7 -1.41,3.54 -1.78,2.37 -1.93,1.37 -2.77,0.76 -2.2,1.95 -0.82,1.24 -0.75,1.55 -0.28,0.93 0.16,0.85 0.51,1.38 1.02,1.84 1.15,0.74 2.49,-0.23 2.34,-1.85 1.2,-0.44 1.08,1.22 -3.24,3.79 -4.32,2.68 -1.42,2.21 -0.62,0.68 -0.84,0.06 -1.67,-0.57 -0.73,0.51 -0.94,4.11 -1.06,2.6 -0.16,1.19 -0.05,1.21 -0.27,1.41 -1.14,2.96 -0.99,1.05 -0.91,-0.63 -0.91,-2.11 0.86,-2.55 1.46,-2.79 1.13,-2.92 -0.05,-2.94 0.1,-2.37 3.18,-3.69 0.79,-2.82 -0.73,-3.27 -1.56,0.62 -3.04,3.92 -2.5,1.48 -1.36,0.1 -1.14,-0.99 -1.54,-2.07 -0.86,-0.7 -0.79,-0.16 0.88,-3.61 1.71,-2.35 15.12,-10.3 6.1,-7.38 0.48,-1.31 -0.31,-1.63 -0.87,-0.7 -1,-0.38 -0.7,-0.63 10.63,-9.6 1.17,-2.36 0.26,-1.36 0.42,-4.68 0.42,-2.37 1.5,-5.68 0.42,-2.29 -0.21,-1.96 -1.06,-2.14 0.27,-1.09 0.17,-1.15 0.27,-2.54 -4.63,-2.4 -4.34,-0.63 -1.9,-1.25 -1.45,-0.13 -0.52,-0.49 -0.04,-0.63 0.09,-2.1 -0.05,-0.66 -0.92,-2.15 -1.23,-2.1 -2.34,-1.92 -4.98,-0.75 -3.45,-3.57 -8.67,-4.55 -2.13,-2.63 -4.57,-1.69 -3.55,-3 -10.58,-0.8 -4.83,-2.16 -8.39,-8.2 -13.42,-4.26 -0.76,-0.56 -1.74,-2.43 -0.99,-0.55 -4.35,0.04 -3.79,-2.06 -9.24,4.05 -10.34,14.53 -4.84,12.57 -4.6,7.53 -1.66,3.57 v 2.78 l 2.37,1.22 6,0.5 1.6,3.78 -0.41,0.56 -0.35,0.83 -0.66,2.2 v 4.32 l -2.06,3.25 -5.62,3.88 -1.23,0.39 -0.45,0.48 -0.31,1.1 -0.27,1.27 -0.37,0.94 -1.14,1.29 -1.35,0.88 -1.36,0.08 -1.16,-1.15 2.84,-4.21 6.33,-5.87 2.56,-5.44 -2.62,0.72 -12.6,10.24 -2.9,0.6 -2.18,-2.01 0.71,-2.38 -12.57,4.43 -6.74,6.28 -2.36,0.43 -1.09,1.12 -0.92,4.87 -1.11,0.85 -2.37,-0.02 -5.44,-2.49 -1.85,0.96 -0.62,-0.55 0.44,-2.79 -1.21,-2.14 -0.66,-0.83 -0.65,-0.6 h -0.33 l 6.84,-2.93 0.87,-1.17 1.57,-3.04 1.11,-1.57 4.71,-2.86 2.28,-2.26 1.18,-0.47 -1.03,-1.2 -2.44,1.83 -1.01,-1.28 -0.22,-1.41 -0.16,-3.04 -0.33,-1.54 -0.44,-3.34 1.01,-1.64 2.81,-1.66 1.61,-4.21 0.56,-0.6 11.36,-0.95 2.19,-2 0.6,-2.71 -0.96,-2.61 -2.52,-3.77 -0.78,-1.89 -0.22,-1.16 -0.07,-1.9 0.21,-1.99 0.47,-1.27 0.49,-0.85 0.28,-0.73 0.23,-3.29 -0.33,-1.99 -0.54,-1.78 -0.42,-2.63 0.15,-0.4 0.2,-2.17 0.11,-2.14 -0.11,-0.27 0.4,-1.31 0.96,-2.05 0.42,-1.51 0.22,-1.68 -0.02,-1.36 -0.12,-1.5 -0.08,-2.12 0.21,-1.53 2.21,-9.18 0.19,-3.1 -0.36,-3.08 -0.82,-3.36 -2.17,-6.47 -9.06,-17.4 -3.57,-5.01 -7.42,-2.15 -9.21,-6.75 -4.92,1.27 -3.13,2.04 -8.77,8.47 -11.4,4.49 -4.26,4.76 -1.16,0.82 -4.52,-0.21 -0.8,0.41 -0.98,1.04 -0.94,1.41 -0.71,1.52 -0.85,1.39 -8.93,5.71 -10.07,2.72 -12.73,8.26 -10.04,3.93 -6.15,4.56 -6.14,3.22 -0.92,1.07 -2.14,1.41 -5.11,0.25 -2.63,4.51 -13.06,12.04 -11.24,4.02 -5.08,3.88 -8.4,0.91 -1.62,2.1 -2.85,6.81 -1.4,2.63 -3.28,3.88 -2.64,5.73 -11.08,10.62 -3.07,6.36 -7.07,4.85 -1.97,0.28 -4.51,4.15 -2.2,1.15 -1.05,1.12 -0.83,1.96 -1.06,3.32 -0.64,1.4 -0.61,0.57 -1.72,0.75 -11.97,13.74 -2.91,5.66 -1.29,8.48 0.41,3.58 1.04,3.43 1.31,2.55 1.19,1.04 1.06,0.47 3.56,3.04 h 9.74 l 3.52,1.44 2.58,4.95 1.01,10.57 -1.16,3.5 -16.37,7.57 -7.02,0.58 -5.28,6.31 -1.47,2.61 -0.87,3.24 0.68,1.24 0.17,1.56 -0.16,1.64 -0.34,1.46 -1.63,3.35 -4.03,2.46 -6.4,7.89 -5.55,9.52 -1.13,2.76 -0.87,3.37 -0.39,2.89 -0.37,7.01 -1.15,6.97 -0.42,3.92 0.33,3.33 0.55,2.89 0.9,8.04 0.53,3.35 1.78,5.03 0.42,1.85 0.97,0.79 1.08,0.34 0.77,0.51 3.63,4.54 2.01,1.05 1.11,-1.7 -1.26,-1.67 -0.52,-1.18 -0.35,-1.65 0.77,-0.63 0.73,-1.01 0.7,-1.32 0.64,-1.56 -0.5,-1.83 1.57,-0.66 7.5,0.23 0.6,0.58 1.03,1.4 0.72,0.28 0.59,-0.44 0.85,-2.15 0.51,-0.8 0.83,-0.25 2.37,1.38 2.94,0.51 1.43,0.89 0.29,1.99 2.16,1.5 0.83,1.18 0.21,1.94 -0.34,1.57 -1.11,2.15 -0.36,1.82 1.02,-0.04 1.8,-1.77 0.98,-0.46 3.04,0.33 4.83,-1.19 1.62,-1.54 -0.42,-3.23 2.61,-3.8 2.89,-2.42 18.48,-2.11 1.37,1.55 -8.92,4.52 -4.01,-0.35 -0.98,1.38 -0.36,2.16 0.15,1.78 0.53,1.24 0.75,0.56 0.51,-0.16 0.15,-0.64 0.08,-0.77 0.33,-0.58 0.72,-0.41 0.55,-0.06 3.39,1.49 0.34,0.53 0.72,1.72 2.01,1.22 4.24,0.57 1.97,1.69 -0.96,2.21 -1.05,0.79 -3.68,-1.08 -3.98,0.33 0.97,1.14 3.3,2.13 -1.37,1.61 -7.71,-2.73 -10.2,1.12 -6.53,5.95 -2.89,5.34 -0.03,6.17 3.42,6.35 4.23,2.35 13.59,-1.34 1.09,0.33 2.05,1.47 2.15,0.33 0.89,-0.22 0.75,-0.77 1.37,-3.12 0.72,-0.84 0.73,0.15 0.65,1.56 -0.39,1.11 8.21,2.12 0.9,-0.85 1.18,-2.07 1.03,-2.55 0.45,-2.23 -0.8,-3.22 -1.87,-1.25 H 204 l -0.83,-0.7 -0.47,-1.58 0.1,-1.58 0.88,-0.71 1.63,-0.7 1.61,-1.54 -0.32,-0.51 -0.15,-0.49 -0.1,-0.54 -0.18,-0.7 1.47,0.3 1.88,1.03 1.72,1.75 0.98,2.52 -0.47,0.33 -0.3,0.4 -0.66,1.51 4.31,-0.57 0.67,1.18 -0.21,1.29 -0.96,2.5 -0.44,4.11 -0.29,1.56 0.18,0.91 1.22,0.28 1.17,-0.19 4.04,-2.72 3.36,0.58 1.06,-0.36 1.98,-1.53 1.9,-0.6 2.24,-1.58 0.84,-0.96 1.23,-0.85 6.57,1.63 5.27,-0.84 4.61,-3.69 5.09,0.06 4.27,-4.01 19.16,-3.46 2.54,-1.42 4.75,-0.95 3.33,-2.1 4.9,-0.48 3.3,-2.92 11.23,-1.18 7.99,2.75 v 1.22 l -5.33,2.25 V 329 l 3.09,2.71 3.51,0.77 6.95,-1.24 9.78,-6.34 2.73,1.75 -4.69,3.34 -3.12,3.51 -6.13,1.1 -1.62,0.99 -1.62,1.89 -1.69,1.17 -3.65,-2.56 -4.1,-0.76 -1.58,-1.96 0.72,-1.01 -1.48,-1.27 -6.09,2.33 -1.03,-0.18 -0.69,-2 1.07,-2.24 -15.92,10.82 -7.43,0.02 -1.28,1.46 0.47,1.54 7.27,1.05 8.46,4.3 6.08,-0.12 3.04,1.15 -1.87,3.18 -14.89,0.61 -2.56,2.26 -1.41,0.62 -1.4,-0.12 -1.06,-1.09 5.01,-2.22 -1.33,-1.52 -8.62,2.07 -2.31,2.16 -25.69,9.72 -1.69,3.32 0.29,0.12 0.5,0.64 0.28,0.24 -1.8,2.6 -2.46,1.31 -10.18,-0.59 -19.77,9.44 -16.83,2.43 -15.33,11.94 -15.33,11.89 -1.82,5.07 0.54,2.56 4.65,10.8 2.45,4.52 4.58,6.2 16.31,14.43 3.38,1.38 2,1.67 1.91,2.45 1.3,2.88 -1.4,5.16 1.98,4.2 5.85,4.6 1.82,0.71 0.84,-0.11 0.9,-0.6 0.06,-0.42 -0.07,-0.73 -0.01,-0.68 0.21,-0.31 7.26,-1.37 1.51,1.37 -0.39,1.07 1.15,1.65 4.93,-2.72 12.88,2.75 15.93,-0.91 1.7,-0.77 3.49,-3.15 18.23,-1.01 2.27,0.92 1.18,2.17 -1.93,0.61 -0.18,1.39 1.05,1.45 7.75,2.96 16.14,-4.27 7.71,4.11 1.05,0.17 0.77,-0.49 1.75,-2.22 0.87,-0.49 13.24,-1.82 10.31,1.09 8.86,-3.72 19.13,-2.62 5.67,-5.52 2.64,-1.09 8.52,2.95 2.02,-0.74 5.63,-5.81 2.5,-1.08 14,3.84 1.69,2.21 2.54,1.83 1.99,2.41 2.02,1.22 1.87,-2.27 0.16,-0.93 0.04,-1.04 0.07,-1.01 0.28,-0.78 0.62,-0.37 0.64,0.31 4.07,4.36 2.6,1.06 8.11,-0.09 v 1.17 l -0.19,1.53 0.3,1.78 0.62,1.45 0.72,0.6 2.51,-1.55 1.31,-0.35 1,1.37 1.72,3.06 6.65,3.9 1.97,2.83 1.13,0.64 1.06,-4.18 1.33,-0.68 4.96,0.79 2.25,1.11 2.16,1.8 2.95,3.67 2.4,1.33 1.07,0.15 0.91,-0.48 1.45,-2.21 0.82,-0.5 1,0.54 0.41,1.25 0.27,1.43 0.64,1.05 1.01,-0.11 2.1,-2.06 1.19,0.12 2.49,2.86 1.08,0.35 3.42,-0.39 1.19,0.39 1.48,1.47 1.12,2.19 1.89,5.39 0.3,1.21 0.33,2.54 0.24,1.02 0.66,1.22 2.22,1.96 1.72,2.33 0.88,0.7 4.57,1.11 3.53,2.37 12.6,-1.21 2.67,1.17 1.51,3.16 -1.3,1.25 -2.7,0.92 -1.36,0.89 1.49,2.64 4.3,-0.77 1.71,1.49 -1.18,1.26 -2.96,1.67 -1.23,0.24 -4.63,-1.65 -4.11,2.89 -6.29,-1.79 -5.22,1.51 -16.85,-7.05 -2.51,1.78 1.99,2.08 6.94,1.08 -1.68,1.54 -8.99,0.05 -1.65,0.83 -0.91,1.79 2.52,0.96 v 1.13 l -0.77,0.06 -2.28,1.01 -0.86,-0.35 -1.63,-1.5 -0.73,-0.35 -3.3,-0.21 -1.65,0.92 -1.29,2.64 2.53,1.08 0.71,1.01 -1.55,1.25 -1.84,0.06 -12.73,-4.85 -1.77,-1.9 -5.22,-1.47 -1.18,0.51 0.26,0.43 0.81,1.66 -1.38,0.79 -11.79,-4.4 -13.4,-3.65 -8.64,3.27 -20.61,-2.91 -7.62,-5.33 -16.92,0.08 -13.19,3.67 -15.04,1.74 -9.49,2.52 -21.02,2.45 -20.61,4.27 -24.94,8.74 -12.09,2.69 -11.54,2.58 -11.98,5.61 -5.45,5.48 -3.04,1.55 -1.51,1.95 -1.43,2.7 -1.44,4.04 2.18,3.44 0.99,2.37 0.73,5.21 2,7.17 2.35,6.08 0.35,2.18 0.17,1.89 0.45,3 0.68,2.78 0.84,1.22 1.31,0.5 3.5,3.13 2.41,4.14 2.09,1.44 4.71,1.39 2.4,2.64 2.51,1.13 0.69,0.92 0.18,0.98 0.4,2.22 -1.12,1.85 -3.05,2.19 1.18,1.97 4.9,2.66 2.64,3.68 1.45,0.95 1.28,-1.1 -2.16,-2.55 -0.69,-1.44 7.48,0.93 1.22,1.15 0.68,1.48 -0.17,1.47 -1.35,1.09 0.45,2.17 0.76,1.28 0.87,1.08 0.77,1.56 -2.27,1.58 -1.06,1.24 -0.58,2.25 5.46,7.11 5.01,1.51 14.89,9.26 4.8,0.75 1.25,0.76 0.87,1.33 0.53,1.22 0.7,1.14 0.75,0.83 20.47,4.24 20.47,4.23 3.98,-0.37 1.82,-1.32 1.61,-2.83 0.91,-1.25 1.19,-0.4 3.47,0.39 0.7,0.65 1.39,2.12 2.29,1.51 23.88,-5.2 7.43,0.66 0.87,0.48 1.74,2.08 3.78,2.31 5.7,0.16 4.07,-1.39 1.3,0.89 1.18,2.38 0.62,0.82 15.68,4.39 2.24,1.54 1.68,2.39 -6.51,-1.32 -1.98,-1.59 -1.11,-0.09 0.3,1.79 -0.18,0.86 -0.33,0.66 -0.18,1.29 0.43,1.16 2.84,2.34 -1.56,1.09 -0.25,-0.09 v 0.97 l 0.13,0.47 0.14,0.25 0.08,0.29 0.13,1.22 0.48,2.37 0.1,0.91 0.77,1.76 3.55,2.82 1.02,1.88 -2.65,-0.36 -1.27,0.54 -0.67,1.91 h 3.52 l -0.33,1.86 -0.34,3.01 -0.05,2.82 0.54,1.24 0.09,0.46 -0.46,1.02 -0.66,1.02 -1.01,0.83 -1.3,2.61 -1.79,2.53 -0.32,1.66 0.47,2.32 1.88,3.19 0.73,2.15 -0.81,0.98 -1.41,0.43 -0.51,1.17 0.18,1.75 0.66,2.15 0.87,1.48 2.16,1.81 0.88,1.59 0.77,1.95 0.77,1.32 4.09,4.42 1.06,1.64 0.63,2.07 -0.78,2.62 0.57,3.2 1.26,2.72 1.28,1.14 0.44,0.55 1.28,2.58 0.61,0.87 3.58,1.4 2.99,2.82 4.31,1.93 1.99,1.62 2.7,3.9 0.65,2.09 -1.24,0.9 -7.76,-2.26 -2.6,0.23 -1.89,1.68 -0.26,2.29 1.04,2.03 2.03,0.88 18.03,-2.91 7.76,1.68 2.83,-1.6 1.28,0.19 0.61,-0.27 0.38,-0.49 1.84,-3.48 0.7,-0.7 0.99,-0.27 9.99,0.97 2.05,-0.63 0.97,-0.67 1.92,-1.93 0.85,0.29 0.82,0.7 0.91,0.39 18.65,-1.98 18.65,-1.99 9.49,3.3 5.1,0.13 2.38,-4.42 -2.67,-1.08 -5.96,-0.57 -2.46,-2.32 2.91,-1.26 13.18,0.95 1.4,-0.58 3.28,-2.59 6.72,-1.31 1.2,0.31 0.97,1.03 0.2,1.08 -8.27,2.41 -1.15,0.95 -0.81,1.05 3.2,2.26 11.44,-5.19 3.49,-0.08 1.85,-0.6 2.75,-3.91 1.86,-0.3 6.51,1.11 1.2,0.98 1.1,2.32 1.26,1.68 1.52,-0.55 2.75,-3.56 3.41,-3.24 3.67,-0.7 8.95,1.08 4.31,-1.93 6.25,0.88 8.29,-1.3 14.44,-8.08 16.61,-4.12 4.01,-2.25 1.53,-1.61 2.92,-4.37 3.3,-1.41 7.01,-6.31 3.27,-4.25 2.12,-1.29 0.76,-1.21 0.61,-1.6 0.27,-1.67 -0.18,-1.14 -0.45,-0.96 -1.15,-1.86 1.46,-1.84 11.06,-0.75 4.97,2.8 15.13,-1.2 3.11,-1.99 21.18,-5.53 7.3,-4.75 3.27,-4.69 5.39,-11.55 3.15,-3.93 3.25,0.98 0.96,0.69 -0.02,-1.46 -0.42,-2.21 -0.18,-1.57 0.69,-1.45 3.22,-0.46 0.6,-0.72 0.8,-1.41 0.59,-1.74 -0.02,-1.69 -0.73,-2.24 -0.35,-1.4 -0.62,-4.87 -1.76,-4.48 0.1,-2.65 1.43,-2.6 2.2,-1.2 8.03,-0.75 0.82,-0.58 0.27,-1.28 0.04,-1.6 -0.03,-1.68 0.12,-2.45 -0.03,-0.9 v -0.88 l 0.16,-0.82 0.42,-0.53 0.97,0.09 0.41,-0.53 0.58,-1.09 1.57,-1.75 2.33,-3.99 1.91,-0.95 1.96,0.47 1.8,1.6 3.71,7.2 1.3,0.99 1.07,0.22 1.17,0.62 1.13,0.94 0.9,1.26 0.72,1.38 0.12,0.5 -0.13,0.6 v 1.66 l 0.36,6.52 0.19,1.62 0.44,0.88 0.53,0.63 0.45,0.89 0.41,3.93 -1.06,2.4 -4.76,3.78 -0.83,1.33 -0.35,1.67 -0.34,2.92 -0.09,1.79 0.25,0.8 4.3,1.41 6.54,4.19 6.83,-1.51 3.54,1.72 1.09,0.19 0.84,-0.36 2.03,-2.54 2.25,-1.4 17.57,3.3 0.7,0.42 1.62,2.33 0.66,1.24 1.17,3 0.57,0.73 10.46,1.01 2.25,2 9.12,2.32 -0.78,-1.94 -1.22,-1.33 -1.38,-0.68 -1.21,-0.02 1.33,-1.95 1.08,-0.14 5.63,1.86 1.65,1.07 1.17,1.6 0.07,3.97 -2.49,2.57 -4.53,1.96 0.31,0.38 0.76,1.6 -1.75,2.28 -4.25,-2.1 -1.68,1.4 -1.09,2.57 -1.16,1.68 -1.32,0.93 -1.59,0.27 1.2,0.53 1.54,1.34 1.47,1.75 2.16,3.79 1.69,1.04 13.79,2.31 13.79,2.31 3.34,-1.52 2.94,-5.12 0.25,-0.97 0.24,-1.97 0.24,-0.96 0.64,-0.62 4.18,1.8 3.26,2.95 1.75,0.27 -0.37,-1.59 -1.07,-1.73 -0.38,-1.53 2.14,-1.09 0.56,0.9 0.2,0.87 0.1,0.96 0.51,2.56 0.07,0.77 0.16,0.7 0.54,1.16 1.32,1.73 5.11,3.3 1.78,0.28 5.4,-1.36 1.79,0.61 3.26,2.72 1.71,0.61 2.61,-0.33 0.94,0.33 2.36,1.75 5.18,1.29 0.69,-0.3 1.3,-1.36 0.67,-0.31 1.15,0.59 2.35,3.01 2.8,2.41 1.66,0.9 1.68,0.14 1.57,-1.14 -0.62,-1.6 0.19,-1.75 0.69,-1.56 0.87,-1 8.74,-1.7 1.25,0.63 0.42,0.47 0.56,0.98 0.44,0.53 2.14,0.95 2.95,2.39 2.54,0.44 2.54,-0.81 3.56,-3.2 1.02,-0.56 4.82,-0.45 1.18,-0.9 0.62,-1.81 -1.25,-1.05 -1.34,-2.34 -0.65,-2.36 0.79,-1.07 0.98,0.14 1.71,1 2.78,3.32 0.48,0.39 5.82,0.05 1.77,-1.04 0.75,-1.06 0.63,-1.28 0.66,-1.08 1.47,-0.78 0.7,-0.9 0.66,-1.29 0.5,-1.51 -0.62,-1.86 -0.48,-2.11 1.29,-0.45 2.39,1.89 1.34,0.64 5.04,-2.08 2.44,0.25 0.94,-0.47 1.21,-1.75 1.65,-3.3 0.89,-1.26 1.03,-0.5 1.04,0.52 0.82,1.19 0.76,1.42 0.88,1.2 1.34,0.54 6.13,-2.72 1.29,-1.11 0.56,-1.49 -0.36,-1.87 -0.84,-1.28 -0.95,-1.08 -0.69,-1.28 3.57,-7.23 1.51,-4.27 0.64,-5.45 -0.81,-4.93 -1.97,-2.22 -2.32,-1.54 -1.86,-2.87 -0.98,-2.33 -0.99,-0.99 -1.11,0.05 -2.39,1.41 -1.44,1.32 -1.28,1.94 -0.56,2.56 -0.5,3.35 -1.18,0.99 -1.4,-0.56 -1.19,-1.27 -0.96,-2.6 -0.45,-0.41 -0.69,-0.18 -1.5,-1.1 -0.67,-0.72 0.33,-1.63 -0.07,-1.44 -0.38,-1.16 -0.62,-0.78 1.31,-2.38 1.45,-0.47 1.41,0.94 1.19,1.91 1.33,2.65 0.86,0.75 0.8,-1.07 1.12,-2.83 0.84,-3.17 -0.54,-1.27 -1.22,-0.84 -1.21,-1.82 -0.43,-1.62 -0.12,-0.85 -0.25,-0.22 -0.82,0.22 -0.64,0.5 -1.14,1.39 -0.68,0.03 0.08,-1.17 -0.08,-2.77 h 0.29 l -0.29,-1.09 0.68,-1.01 2.12,-1.06 4.21,1.35 4.79,-7.18 0.4,-2.18 -1.53,-3.07 -4.5,-6.4 -1.56,-0.78 -6.94,-0.09 -3.37,-1.99 -1.1,0.3 -2.19,1.78 -2.01,0.99 -4.16,0.35 -1.02,1.42 -1.73,6.36 -1.58,2.18 -4.29,0.06 -1.95,1.34 -1.98,2.07 -6.86,0.48 -0.32,0.32 -0.12,1.23 -0.14,0.46 -0.31,0.49 -0.37,0.4 -0.28,0.16 -0.58,0.65 -0.1,1.57 0.03,1.84 -0.21,1.53 -0.79,1.48 -1.76,1.8 -0.86,1.21 -3.84,11.32 -1.26,2.71 -2.02,1.6 -1.91,2.54 -0.61,1.07 -0.42,1.5 -0.42,3.32 -0.22,1.07 -0.77,1.33 -0.78,0.25 -0.76,-0.65 -0.73,-1.37 -0.37,-1.54 0.11,-1.38 0.29,-1.43 0.16,-1.66 -0.1,-1.44 -0.16,-0.9 -0.03,-0.85 0.29,-1.26 0.7,-1.24 6.37,-4.53 1.79,-2.5 0.77,-3.36 0.38,-6.78 -0.15,-2.58 -0.93,-3.32 0.64,-1.73 1.26,-4.69 0.59,-1.67 -0.24,-1.38 -0.61,-1.62 -0.25,-1.05 -0.12,-1.18 -0.08,-2.66 -0.13,-1.22 -0.6,-3.05 -0.67,-1.87 -0.93,-0.93 -1.37,-0.26 -0.69,1.22 0.04,2.83 0.24,3.22 -0.12,2.43 -0.91,2.44 -0.66,0.26 -0.55,-1.48 -1.53,-7.77 -1.19,-4.6 -1.69,-3.35 -5.6,-2.69 -6.22,-5.92 -3.25,-0.94 1.33,-5.9 0.29,-2.66 -0.56,-2.69 2.77,-2.05 0.82,-0.1 0.83,0.79 0.51,1.27 0.38,1.26 0.42,0.78 1.68,0.11 1.34,-1.35 1.26,-0.71 1.41,1.95 2.54,5.06 3.35,4.62 3.62,3.12 3.35,0.59 0.67,1.62 7.15,3.3 2.89,3.04 1.78,0.28 3.59,-2.13 1.09,-0.05 3.08,1.06 3.37,-0.65 1.65,-0.91 1.51,-1.4 -0.11,-0.68 -0.17,-1.78 -0.11,-0.69 0.36,-0.36 0.24,-0.52 0.22,-0.63 0.31,-0.62 -0.64,-5.37 0.8,-4.93 0.26,-3.34 -4.75,-1.09 -1.91,-2.45 -3.46,-6.28 0.46,-2.03 0.7,0.22 0.8,1.13 1.2,0.97 0.96,1.32 0.54,0.35 0.51,-0.08 2.23,-1.65 0.74,-0.88 1.81,-4.01 0.43,-0.5 0.48,-0.15 0.59,0.07 0.47,0.37 1.02,1.4 0.32,0.29 0.8,-0.31 0.41,-0.69 0.16,-1.37 0.02,-2.26 0.26,-1.48 0.58,0.61 0.6,1.71 0.34,1.73 -0.14,2.18 -0.38,1.25 0.11,0.55 1.31,0.14 0.67,-0.54 0.78,-1.33 0.72,-1.69 0.52,-1.59 -0.45,-1.7 -0.63,-1.43 -1.45,-2.12 1.12,-2.27 1.46,-0.88 3.15,0.05 -0.96,-6.15 0.06,-2.88 1.46,-1.21 1.18,0.79 1.2,2.05 0.63,2.81 -0.5,3.1 -0.09,1.19 0.28,1.52 0.45,1.32 0.4,0.56 1.7,0.04 0.77,-0.41 2.11,-2.54 1.16,-0.56 0.89,1.22 0.35,3.85 -0.1,1.99 0.14,0.7 0.49,1.47 0.49,1.08 1.13,1.88 2.31,5.27 0.91,1.19 1.03,-0.68 1,-1.33 0.81,-0.72 0.76,0.4 7.5,8.4 0.67,1.46 0.24,1.2 0.09,1.32 0.19,1.35 0.54,1.35 1.14,-5.32 0.71,-2 2.88,-5.28 0.69,-2.26 0.27,-3.18 0.59,-4.57 4.07,-14.61 0.91,-1.88 0.98,-0.47 0.67,1.24 -0.04,3.26 -1.63,4.61 -0.72,2.55 0.35,1.11 1.81,8.76 2.69,5.24 -0.01,1.43 1.15,3.95 1.46,2.52 1.76,1.34 2.07,0.39 4.59,-2.05 0.21,-0.52 0.2,-0.81 0.32,-0.27 0.83,1.66 1.32,1.99 1.02,1.02 0.78,0.1 1.43,-1.12 3.73,0.69 0.71,-0.18 2.05,-5.29 0.26,-3 -1.42,-2.48 v -1.02 l 1.5,-0.52 1.24,-2.22 0.86,-3.28 z"
         id="path2"
         style="fill:#000000;fill-opacity:1" />
    </g>
  </g>
</svg>
