<?xml version="1.0" encoding="UTF-8" standalone="no"?>
<svg
   xmlns:dc="http://purl.org/dc/elements/1.1/"
   xmlns:cc="http://creativecommons.org/ns#"
   xmlns:rdf="http://www.w3.org/1999/02/22-rdf-syntax-ns#"
   xmlns:svg="http://www.w3.org/2000/svg"
   xmlns="http://www.w3.org/2000/svg"
   xmlns:sodipodi="http://sodipodi.sourceforge.net/DTD/sodipodi-0.dtd"
   xmlns:inkscape="http://www.inkscape.org/namespaces/inkscape"
   version="1.0"
   width="1024.000000pt"
   height="1024.000000pt"
   viewBox="0 0 1024.000000 1024.000000"
   preserveAspectRatio="xMidYMid meet"
   id="svg8"
   sodipodi:docname="bs.svg"
   inkscape:version="1.0.1 (3bc2e813f5, 2020-09-07)">
  <defs
     id="defs12" />
  <sodipodi:namedview
     pagecolor="#ffffff"
     bordercolor="#666666"
     borderopacity="1"
     objecttolerance="10"
     gridtolerance="10"
     guidetolerance="10"
     inkscape:pageopacity="0"
     inkscape:pageshadow="2"
     inkscape:window-width="1920"
     inkscape:window-height="974"
     id="namedview10"
     showgrid="false"
     inkscape:zoom="0.27643124"
     inkscape:cx="610.04336"
     inkscape:cy="141.22094"
     inkscape:window-x="-11"
     inkscape:window-y="-11"
     inkscape:window-maximized="1"
     inkscape:current-layer="svg8" />
  <metadata
     id="metadata2">
Created by potrace 1.10, written by Peter Selinger 2001-2011
<rdf:RDF>
  <cc:Work
     rdf:about="">
    <dc:format>image/svg+xml</dc:format>
    <dc:type
       rdf:resource="http://purl.org/dc/dcmitype/StillImage" />
    <dc:title></dc:title>
  </cc:Work>
</rdf:RDF>
</metadata>
  <g
     stroke="#000000"
     stroke-width="0.98"
     fill="#ffffff"
     id="g929"
     transform="matrix(1.1865204,0,0,1.2941656,-199.76761,-5.7109252)"
     style="fill:#000000;fill-opacity:1;stroke:#000000;stroke-opacity:1">
    <path
       d="m 997.5,724.18 1.48,-0.31 2.3,-2.02 4.9,-0.53 2.47,-1.52 0.55,-2.6 -1.22,-1.3 -2.61,-1.09 -2.61,-1.32 -1.38,-1.15 -1.6,-1.93 -1.23,-0.71 -1.97,1.3 -2.3,2.61 -2.46,1.42 -3.07,0.95 -1.32,0.97 0.5,2.68 1.72,2.54 0.94,2.52 -0.37,1.63 0.25,1.38 1.23,-0.15 1.32,-1.29 z"
       id="path837"
       style="fill:#000000;fill-opacity:1;stroke:#000000;stroke-opacity:1" />
    <path
       d="m 979.17,604.47 4.97,0.97 0.7,0.29 0.65,0.61 0.88,0.62 1.39,0.28 3.17,-0.58 5.21,-2.54 2.83,-0.55 1.04,0.3 0.67,0.64 0.85,0.65 1.55,0.28 1.04,-0.14 1.96,-0.67 1.48,-0.16 3.33,0.14 2.31,0.53 2.1,1.09 2.66,1.83 6.11,5.56 2.33,0.71 2.05,-0.87 1.7,-2.15 0.62,-2.63 -1.16,-2.42 -1.14,-0.46 h -2.58 l -1.25,-0.84 -1.72,-1.93 -1.03,-0.88 -0.88,-0.37 -3.05,-0.07 -2.36,-0.33 -2.02,-0.81 -2.07,-1.48 -1.42,0.69 -2.18,-0.51 -4.38,-2.06 1.16,2.12 0.64,0.73 -3.13,-0.1 -6.76,-4.31 -3.24,-1.12 -1.1,-0.15 -1.95,-0.6 -0.93,-0.07 -0.9,0.32 -1.06,0.61 -0.76,0.59 0.01,0.28 -2,-0.26 -1.12,-0.66 -2.25,-2.75 -1.38,1.07 -0.03,1.19 0.23,1.41 -0.61,1.7 -0.81,1.32 0.06,0.6 0.75,0.93 -2.41,1.74 -0.3,1.24 1.26,0.86 z"
       id="path839"
       style="fill:#000000;fill-opacity:1;stroke:#000000;stroke-opacity:1" />
    <path
       d="m 935.89,575.01 -1.28,-1.77 -2.98,-1.28 -2.99,-0.7 -2.24,0.3 -2.35,0.29 0.32,0.69 2.67,0.4 2.45,0.69 5.54,1.58 z"
       id="path841"
       style="fill:#000000;fill-opacity:1;stroke:#000000;stroke-opacity:1" />
    <path
       d="m 912.47,775.41 -0.82,2.85 -2.21,1.32 -3.91,0.39 -0.43,0.93 0.42,0.72 2.33,3.74 0.11,2.96 0.32,2.27 0.37,1.42 1.68,1.85 1.54,0.96 0.86,0.18 0.48,-1.04 0.76,-1.17 0.55,-0.98 2.13,-1.03 1.89,-0.26 8.41,0.69 5.8,2.21 7.77,-1.74 4.53,0.25 6.83,-3.68 2.82,0.32 1.94,1.43 -0.87,0.71 v 0.97 h 0.9 l 2.54,-1.69 1.25,-0.59 1.67,-0.48 5.69,0.82 9.76,-3.9 2.81,-1.51 4.23,-11.52 8.36,-9.89 1.1,-3.66 2.61,-14.04 0.14,-3.01 -0.99,-2.31 -2.83,-1.1 -2.54,1.46 -1.98,2.54 -6.47,9.61 -2.67,5.13 -3.05,3.65 -6.57,1.55 -2.9,1.33 -2.9,1.69 -8.24,-2.5 -3.4,-1.48 -2.63,-3.27 -2.09,-2.35 -0.85,-2.73 -0.48,-0.57 -1.09,1.11 -1.93,2.59 -1.35,0.95 -1.34,0.61 -1.34,0.04 -3.83,0.03 -2.61,1.4 -2.89,-0.63 -1.19,2.44 -2.9,2.43 -0.93,2.57 -4.1,1.16 -1.55,1.14 -2.26,0.76 -2.67,0.94 -4.52,-2.03 v 1.34 l 1.43,1.45 1.55,1.76 z"
       id="path843"
       style="fill:#000000;fill-opacity:1;stroke:#000000;stroke-opacity:1" />
    <path
       d="m 828.86,563.96 -3.71,4.4 -4.68,3.33 -3.81,3.75 -1.17,5.64 4.05,-2.87 4.89,-5.15 3.75,-5.41 z"
       id="path845"
       style="fill:#000000;fill-opacity:1;stroke:#000000;stroke-opacity:1" />
    <path
       d="m 866.69,565.83 -1.04,0.33 -0.95,0.5 -0.87,0.76 -1.58,2.37 -0.23,0.49 1.97,1.75 4.16,1.94 9.34,0.15 3.62,2.48 1.97,5.29 -1.23,4.25 -3.61,3.08 -5.2,1.8 -2.89,0.46 -2.31,0.62 -1.51,1.53 -0.54,3.17 -1.42,2.09 -3.25,0.74 -3.59,0.35 -2.42,0.91 -0.02,1.19 0.5,1.81 0.14,1.65 -1.74,1.14 -1.44,1.85 -0.7,0.43 -3.04,0.42 -3.86,2.19 -2.64,0.97 0.11,0.86 0.4,0.48 0.6,0.24 0.76,0.21 -0.92,0.35 -2.58,1.53 v 0.81 l 1.4,0.95 -0.11,0.84 -3.96,3.27 -1.11,0.48 -5.18,-0.39 -1.37,0.37 -0.6,1.29 -0.16,4.64 0.16,1.18 4.23,-3.78 2.34,-1.16 2.98,-0.43 1.33,-0.58 3.47,-2.83 1.06,-1.08 3.28,-4.89 2.01,-1.7 3.28,-0.66 7.98,-3.04 1.39,-0.1 1.21,-0.56 6.86,-5.27 4.36,-7.87 1.51,-1.17 1.59,-0.62 2,-1.48 1.89,-1.77 1.28,-1.52 0.82,-2.45 0.47,-2.88 0.94,-2.22 2.26,-0.51 -1.68,-3.37 -0.72,-2.02 -1.2,-9.81 -0.89,-1.92 -1.52,0.83 -1.42,-0.83 -1.09,-1.72 -0.45,-1.78 1.22,0.4 0.86,0.73 0.45,1.05 0.07,1.32 1.47,-1.27 3.1,-5.08 -0.51,-0.39 -0.19,-0.4 -0.06,-0.43 -0.13,-0.5 -3.52,1.3 -3.24,0.49 -6.77,-0.07 0.81,0.84 0.35,0.47 0.44,0.28 1.08,0.28 v 0.98 l -0.56,0.07 -0.36,0.19 -0.79,0.55 -1.08,-0.4 -1.18,0.51 -0.97,1.12 -0.44,1.46 -1.03,-0.55 -4.35,-1.17 1.86,2.74 z"
       id="path847"
       style="fill:#000000;fill-opacity:1;stroke:#000000;stroke-opacity:1" />
    <path
       d="m 828.45,555.89 1.15,0.64 0.02,1.49 -0.76,2.85 0.72,0.28 1.56,-0.7 1.57,-1.3 0.72,-1.54 2.15,2.19 1.35,1.03 9.7,2.34 3.42,-0.97 2.41,-0.4 -0.12,2.16 1.36,0.52 0.07,0.29 0.44,1.06 9.78,-8.22 -7.84,-2.85 -2.91,-0.66 0.97,1.79 -2.75,-0.67 -4.71,-0.3 -2.57,-0.82 -0.62,-1.49 -0.27,-0.38 -0.54,-0.07 -1.6,0.19 -0.47,-0.12 -0.34,-0.97 -0.15,-2.31 -0.4,-1.12 -3.67,-2.78 -1.3,-0.34 -2.85,-0.24 -1.31,-0.32 -3.73,-2.27 -1.57,-0.42 -0.85,0.12 -2.19,0.71 -1.44,0.08 -0.17,0.48 -0.1,0.45 -0.21,0.43 -0.5,0.42 z"
       id="path849"
       style="fill:#000000;fill-opacity:1;stroke:#000000;stroke-opacity:1" />
    <path
       d="m 909.96,509.11 v -0.98 l -2.56,-0.72 -7.38,0.72 -9.86,-0.9 2.57,3.94 5.53,0.11 z"
       id="path851"
       style="fill:#000000;fill-opacity:1;stroke:#000000;stroke-opacity:1" />
    <path
       d="m 648.98,460.53 2.14,3.15 4.65,1.58 5.53,1.03 4.72,1.41 -2.1,-3 -4.88,-2.39 -5.65,-1.47 z"
       id="path853"
       style="fill:#000000;fill-opacity:1;stroke:#000000;stroke-opacity:1" />
    <path
       d="m 629.99,450.13 -1.41,-0.44 -6.22,-3.32 -8.59,-8.42 0.77,-0.43 0.34,-0.37 0.24,-0.43 0.44,-0.56 -2.79,-0.1 -2.05,-0.4 -1.61,-0.79 -1.45,-1.32 -1.15,-1.64 -0.69,-0.69 -1.01,-0.44 -0.81,0.19 -0.85,0.58 -1.13,0.42 -1.62,-0.29 -1.04,1.4 0.26,1.68 1.09,1.52 1.39,0.86 -0.13,0.73 0.87,1.19 0.25,1.18 -0.61,0.29 -3.87,1.09 v 0.9 l 6.5,-0.55 5.54,1.68 4.91,3.36 4.56,4.47 1.85,-1.2 2.28,1.18 2.49,2.12 2.43,1.57 -1.09,2.74 2.49,1.19 6.67,0.47 5.88,2.97 3,0.76 1.88,-1.85 -11.02,-3.96 -4.93,-3.26 z"
       id="path855"
       style="fill:#000000;fill-opacity:1;stroke:#000000;stroke-opacity:1" />
    <path
       d="m 753.31,523.45 0.59,-0.65 0.72,-1.28 0.56,-0.68 -8.51,-8.82 -4.82,-3.46 -11.19,-3.89 -3.73,-2.41 -2.22,-3.94 -1.07,-6.33 -0.01,-5.8 -0.34,-2.86 -1.03,-1.2 0.19,-1.36 -7.76,-13.9 -2.3,-2.35 -1.58,-2.28 -1.6,-8.89 -1.27,-2.52 -2.19,-2.99 -2.37,-2.5 -1.79,-1.03 -7.7,-11.74 -0.56,-0.67 -0.58,-0.54 -0.67,-0.38 -0.79,-0.2 0.13,2.41 -0.55,1.91 -1.03,1.53 -1.34,1.32 v 0.98 l 1.62,-0.9 1.04,-1.41 1.08,-0.94 1.65,0.48 -0.82,0.46 -0.55,0.57 -1.23,1.74 2.75,-2.03 0.75,1.9 -0.9,6.32 1.5,-0.48 0.94,-0.65 0.86,-0.29 1.26,0.61 2.7,6.28 0.82,5.91 0.99,2.08 2.66,1.95 -0.61,1.6 0.83,0.99 1.61,0.59 1.76,0.41 -0.26,2.89 4.97,3.88 -0.22,3.09 1.4,-1.2 0.47,-0.6 1.95,1.96 1.48,3.14 0.87,3.52 0.11,3.12 -0.71,2.13 -1.2,2.08 -1.1,2.56 -0.5,3.54 0.98,2.21 7.49,7.7 0.88,1.41 -1.35,0.39 -2.12,-0.17 -1.48,-0.34 -1.19,-0.64 -2.5,-1.95 -1.61,-0.99 -1.55,0.08 -1.57,-0.76 -1.36,-1.3 -0.89,-1.52 1.09,0.37 3.38,0.45 -1.34,-1.81 -3.7,-1.68 -1.31,-1.9 h -0.82 l -1.03,1.05 -0.82,1.07 -0.61,1.17 -0.39,1.28 2.06,0.78 9.38,5.49 1.68,1.27 3.26,1.9 15.02,2.76 1.64,0.74 1.37,1.19 4.43,5.01 1.24,1.84 1.36,5.36 3.75,6.18 0.86,3.42 1.3,-0.58 0.49,-0.31 0.96,4.46 0.75,0.92 1.62,0.48 0.79,-0.58 0.26,-1.39 -0.19,-5.15 -0.66,-3.98 -1.13,-3.37 z"
       id="path857"
       style="fill:#000000;fill-opacity:1;stroke:#000000;stroke-opacity:1" />
    <path
       d="m 747.93,428.09 -3.02,0.69 -2.04,0.91 -0.89,1.67 0.49,3.01 2.33,-0.76 4.34,-0.04 2.37,-1 1.58,1.9 3.16,0.93 2.36,-0.03 -0.82,-1 v -0.82 l 2.78,0.11 1.33,-0.95 0.84,-1.68 1.32,-2.04 -2.94,-1.96 -1.67,-0.67 -4.91,-0.06 z"
       id="path859"
       style="fill:#000000;fill-opacity:1;stroke:#000000;stroke-opacity:1" />
    <path
       d="m 560.79,392.96 0.82,-0.81 -7.6,-15.92 -3.24,-2.1 v 1.9 l 0.51,1.37 1.35,2.12 1.62,3.91 2.15,3.01 2.42,4.66 z"
       id="path861"
       style="fill:#000000;fill-opacity:1;stroke:#000000;stroke-opacity:1" />
    <path
       d="m 804.58,386.69 -1.06,2.65 -0.23,1.3 0.39,1.51 5.38,-8.56 0.17,-1.19 0.73,-2.59 0.08,-1.19 -0.34,-0.86 -1.2,-1.85 -0.26,-1.36 -0.31,-0.32 -1.97,-3.24 -0.88,-0.34 -0.78,0.42 -0.71,0.72 -0.73,0.55 -2.56,0.94 -2.29,1.18 -1.44,1.9 -0.06,3.16 0.61,4.02 -0.55,4.56 -1.5,4.07 -2.23,2.58 v 0.9 l 8.64,-0.9 0.13,-1.16 1.89,-5.35 z"
       id="path863"
       style="fill:#000000;fill-opacity:1;stroke:#000000;stroke-opacity:1" />
    <path
       d="m 356.53,365.09 1.34,-1.53 1.26,-3.59 0.91,-1.24 1.36,-0.66 0.66,0.23 0.57,0.45 1.08,-0.02 2.31,-0.63 0.79,-0.65 0.48,-1.33 h -5.38 l -1.36,0.41 -2.13,1.14 -0.62,0.24 -7.22,4.53 -1.3,0.44 -0.62,1.25 -1.46,-0.06 -1.64,-0.41 -1.21,0.12 -0.37,1.23 0.27,1.84 0.67,1.74 0.86,0.98 2.36,-0.28 6.68,-3.07 z"
       id="path865"
       style="fill:#000000;fill-opacity:1;stroke:#000000;stroke-opacity:1" />
    <path
       d="m 351.15,355.14 -1.39,-1.8 -2.71,0.69 -3.4,1.48 -3.42,0.61 -1.59,0.8 0.52,1.16 1.52,1.08 1.43,0.55 1.96,0.01 3.32,-0.45 1.89,0.44 -0.79,-1.74 -0.1,-1.66 0.82,-1.11 z"
       id="path867"
       style="fill:#000000;fill-opacity:1;stroke:#000000;stroke-opacity:1" />
    <path
       d="m 542.69,361.5 -1.14,-1.84 -1.26,-0.88 -1.41,-0.64 -1.56,-1.13 -1.25,-1.72 -0.92,-1.85 -1.2,-1.64 -2.02,-1.06 0.05,1.64 1.22,1.93 5.53,6.5 1.49,0.67 z"
       id="path869"
       style="fill:#000000;fill-opacity:1;stroke:#000000;stroke-opacity:1" />
    <path
       d="m 403.24,398.34 -2.64,-0.47 -2.72,1.14 -4.59,3 0.48,-3.32 2.56,-0.98 2.86,-0.06 1.35,-0.58 0.43,-0.38 0.92,-0.65 0.92,-1.05 0.43,-1.55 -0.43,-1.25 -1.84,-2.49 -0.43,-0.73 0.16,-1.35 0.67,-2.53 0.16,-1.5 -0.16,-1.15 -0.67,-2.78 -0.25,-4.33 -0.43,-2.32 -0.94,-1.99 -1.67,-1.86 -1.46,-2.35 -1.59,-3.29 -1.96,-2.63 -2.61,-0.38 -1.55,1.92 -0.47,3.11 -0.15,3.32 -0.52,2.58 -1.29,1.89 -2.74,2.86 -4.08,7.62 -2.08,1.71 -2.44,-0.63 1.86,-0.94 0.69,-1.4 0.44,-1.7 2.16,-3.73 0.34,-2.38 -0.71,-1.44 -2.09,0.83 -3.23,-1.89 -1.36,-1.18 0.51,-0.52 2.32,-0.51 0.58,-1.11 -0.98,-0.97 -2.33,-0.18 v -0.89 l 4.04,-0.68 3.22,-1.64 8.11,-6.17 1.25,-1.55 -0.89,-0.72 -1.61,-0.74 -1.09,-1.75 -0.96,-2.1 -1.23,-1.77 -3.67,1.87 -1.48,1.79 -5.42,2.08 -1.98,1.51 -0.78,1.6 -0.29,1.02 -0.45,0.82 -1.33,1.05 -1.7,0.61 -4.5,0.29 -0.49,1.03 -0.85,3.23 -0.53,1.11 -1.47,1.04 -3.55,1.09 -1.34,0.64 -1.13,1.17 0.02,0.59 0.38,0.6 -0.08,1.23 0.03,0.63 -0.1,0.96 -0.74,0.36 -1.89,-1.14 -0.92,0.89 -0.78,1 8.19,3.01 2.57,1.47 v 0.89 l -0.84,1.1 1.03,0.87 1.81,0.99 1.49,1.53 v 1.6 l -0.56,1.79 0.07,1.46 1.93,0.61 -0.82,1.44 0.17,3.32 1.92,8.84 0.8,1.57 1.06,1.05 1.69,0.39 1.52,-0.4 1.6,-0.63 1.88,-0.34 6.95,-0.07 2.58,-0.77 1.88,-1.86 -0.62,2.79 -4.37,2.41 -8.62,2.88 2.66,0.89 3.16,4.14 3.14,0.35 -0.38,-0.45 -0.52,-0.37 7.67,-4.56 2.12,-0.93 2.23,-1.83 2.3,-1.22 2.35,0.83 v 1.48 l -1.98,1.44 -7.06,3.08 -1.82,1.23 -1.33,1.69 -0.81,2.37 -6.89,-2.18 -2.81,-0.06 0.66,2.24 -4.48,1.89 8.35,-0.26 3.89,0.96 2.18,2.8 h 0.98 l 1.24,-1.71 0.04,-1.15 -2.26,-2.53 3.33,0.83 2.86,1.94 3.14,1.24 4.12,-1.32 0.8,-0.92 0.95,-1.65 0.74,-1.93 0.19,-1.77 -0.77,-1.93 -2.37,-1.8 -0.44,-1.65 3.26,0.94 1.76,-0.83 2.24,-4.67 -0.67,-2.22 0.8,-4.97 z"
       id="path871"
       style="fill:#000000;fill-opacity:1;stroke:#000000;stroke-opacity:1" />
    <path
       d="m 371.36,346.66 2.58,-2.54 1.38,-0.49 2.33,-0.14 1.13,0.43 1.4,0.78 1.34,0.4 1.02,-0.72 0.02,-1.16 -0.74,-1.05 -1.06,-0.83 -0.92,-0.46 -2.11,-0.15 -2.63,0.61 -2.47,1.02 -2.45,1.6 -2.89,1.32 -0.75,1.3 0.61,1.3 1.7,0.36 z"
       id="path873"
       style="fill:#000000;fill-opacity:1;stroke:#000000;stroke-opacity:1" />
    <path
       d="m 693.48,361.01 -5.75,-5.79 -1.46,-0.9 -0.79,-1.01 -3.25,-6.24 -2.45,-1.89 -5.13,-2.55 -2.36,-1.75 -7.37,-9.75 -3.65,-6.12 -1.58,-4.1 -1.94,-2.08 -2.11,-1.76 -1.28,-1.38 -0.78,-2.47 -1.02,-8.37 -1.44,-1.57 -1.58,-0.8 -3.42,-1.22 -3.53,-3.07 -0.87,-0.59 -1.97,-0.22 -1.09,0.43 -2.73,2.97 -0.6,1.06 0.13,1 0.88,1.12 1.15,0.74 4.23,1.94 5.8,4.64 0.9,0.41 0.67,0.6 0.71,1.6 0.42,1.58 0.2,1.66 -0.11,1.58 -0.51,1.38 4.33,0.31 3.4,1.83 2.23,3.14 0.79,4.17 0.57,1.78 2.53,3.41 1.03,3.71 7.02,10.48 2.71,1.94 3.83,0.77 2.72,2.08 0.56,4.28 -1.17,3.57 -2.52,-0.06 -1.32,1.95 -2.58,1.72 -2.8,1.24 -1.93,0.47 -2.85,1.32 1.5,2.69 3.51,2.15 3.25,-0.29 2.3,-1.85 2.07,-1.05 5.94,-1.1 3.08,-0.23 2.71,0.21 5.96,1.81 -2.18,-7.59 z"
       id="path875"
       style="fill:#000000;fill-opacity:1;stroke:#000000;stroke-opacity:1" />
    <path
       d="m 409.15,259.37 1.73,0.57 1.83,-1 1.5,-1.57 0.76,-1.09 4.2,1.67 3.17,0.08 13.76,-5.85 1.43,-1.58 -5.02,-1.05 -3.16,-1.74 -1.82,-0.58 -2.05,-0.04 -5.58,0.93 -5.61,-0.2 -2,0.2 -4.44,1.49 -1.93,0.31 -2.97,1.17 -3.13,2.15 -1.43,2.51 2.15,2.23 1.65,0.16 2.43,-0.06 2.54,0.24 z"
       id="path877"
       style="fill:#000000;fill-opacity:1;stroke:#000000;stroke-opacity:1" />
    <path
       d="m 294.43,302.98 -1.08,-0.29 -1.22,-0.88 -0.96,-0.17 -0.41,1.83 -1.09,1.15 -2.5,1.39 -2.72,1.14 -1.76,0.39 1.63,2.98 2.5,2.73 7.86,6.64 16.44,8.53 2.63,0.64 3.47,-0.56 2,-1.38 1.62,-1.75 2.37,-1.69 -0.85,8.94 0.88,3.88 4.04,1.6 3.05,1.62 1.38,3.81 0.84,4.49 1.49,3.61 0.84,0.89 1.12,0.79 1.25,0.41 1.27,-0.29 0.8,-0.9 -0.1,-0.97 -0.43,-1.06 -0.27,-1.15 0.66,-1.06 5.17,-3.46 1.57,-0.66 4.57,-0.03 2.38,-0.65 4.79,-3.02 1.57,-1.47 -1.52,-2.87 1.03,-1.13 3.98,-0.49 1.34,-1.08 1.15,-1.49 1.37,-1.33 2.02,-0.57 4.94,-0.7 3.05,-2.06 1.2,-3.37 -0.63,-4.63 -2.88,-5.58 -1.06,-3.21 0.76,-2.5 0.78,-1.79 0.53,-3.02 0.22,-3.22 -0.14,-2.36 -1.22,-1.88 -4.86,-4.43 -1.59,-0.86 -2.23,-0.93 -2.18,-2.15 -5.8,-7.92 -7.99,-18.08 -1.72,-1.96 -1.97,-1.07 -2.4,-0.34 -0.79,-1.44 0.53,-3.23 1.65,-5.19 -2.16,-1.55 -1.03,-2.15 0.33,-2.31 1.95,-2.05 -1.41,-1.82 -1.78,-1.14 -1.84,-0.9 -1.68,-1.11 -2.25,-0.9 -2.01,0.89 -1.93,1.44 -2.01,0.77 -2.18,-0.47 -1.09,-1.18 -0.9,-1.46 -1.6,-1.38 -1.99,-0.77 -4.77,-0.83 -2.22,-0.12 -1.52,2.91 1.76,5.01 2.75,5.45 1.41,4.17 1.23,5.89 0.29,3.7 -1.03,1.65 -1.18,0.78 -1.01,1.73 -0.71,1.83 -0.27,1.03 0.54,1.16 1.06,1.37 0.47,1.03 -1.18,0.12 -0.41,1.83 -1.8,3.19 -0.4,1.66 -0.7,0.79 -3.43,0.61 -1.25,0.81 0.54,3.23 -2.01,2.62 -2.88,2.16 -2.01,1.92 -1.18,3.94 -0.38,2.25 0.22,0.99 1.83,0.85 1.03,1.97 0.84,2.14 1.24,1.39 0.08,-5.01 -0.49,-2.05 -1.39,-1.09 1.9,-0.65 0.8,1.24 0.37,2.06 0.52,1.84 0.81,0.96 2.05,1.73 0.8,0.97 0.13,0.82 -0.29,1.99 0.16,0.78 1.14,1.14 1.32,1.05 0.97,1.31 0.08,1.88 -0.68,0.69 -1.18,-0.33 -1.37,-0.74 -1.26,-0.51 0.63,2.53 -0.31,2.9 -1.24,1.65 -2.17,-1.22 -0.39,-2.32 0.68,-2.75 -0.02,-2.36 -2.55,-1.13 0.33,2.91 -1.07,1.04 -1.94,0.52 -3.54,2.05 -0.96,-0.48 -0.63,-1.15 -0.27,-1.3 0.39,-0.32 2.31,-1.47 1.2,-1.66 0.84,-1.77 0.49,-1.98 0.15,-2.25 -0.75,-2.74 -1.78,-1.74 -2.1,-0.07 -1.72,2.26 0.95,1.49 -0.23,1.21 -1.02,0.99 z"
       id="path879"
       style="fill:#000000;fill-opacity:1;stroke:#000000;stroke-opacity:1" />
    <path
       d="m 582.31,236.47 -8.2,-5.56 -7.94,-7.07 -6.77,-8.56 -2.08,-1.51 -2.19,-0.54 -6.08,-0.23 -6.09,-1.33 -4.82,-2.48 -16.67,-11.69 -2.54,-0.64 -1.19,-1.39 -1.18,-2.54 -1.47,-1.23 -2.06,2.47 -0.32,-2.76 0.04,-2.24 0.64,-2.02 1.44,-2.03 -1.52,-0.7 -2.04,-0.24 -4.52,0.04 h 0.9 l -2.06,9.77 -1.84,5.15 -3.28,3.1 1.99,0.31 4.61,-2.34 2.82,-0.67 2.51,0.29 5.43,1.23 2.86,0.28 5.16,1.4 7.93,6.85 5.42,2.51 10.51,2.12 4.99,1.66 3.32,2.49 10.84,14.43 4.13,2.98 4.72,2.19 4.12,3.21 2.35,6.05 0.04,2.8 -1.01,7.5 -0.63,0.94 -3.77,3.18 -0.77,0.86 -0.37,0.52 -0.74,2.2 -1.14,6 -0.14,3.36 0.79,1.49 1.39,-1.21 1.5,-2.1 1.08,-0.69 0.11,3.02 -0.36,1.82 -0.63,1.17 -2.15,1.98 -0.67,0.89 -0.55,1.02 -0.61,0.84 -0.86,0.36 -12.89,-2 -2.13,0.14 -0.35,1.21 2.77,2.93 2.44,1.39 5.74,2.14 2.17,1.44 1.81,3.66 1.43,4.82 2.27,4.18 4.36,1.76 -1.67,-4.24 -0.46,-5.06 0.34,-9.2 0.69,-1.83 3.09,-4.52 0.69,-2.65 0.52,-6.27 -0.52,-2.17 -1.66,-3.37 -0.58,-2.34 0.46,-2.52 0.68,-0.42 1.25,-0.51 1.2,-0.84 0.53,-1.38 0.13,-1.15 0.56,-2.1 1.1,-11.14 -0.7,-2.5 -1.71,-1.81 z"
       id="path881"
       style="fill:#000000;fill-opacity:1;stroke:#000000;stroke-opacity:1" />
    <path
       d="m 364.6,165.31 -0.22,-1.18 -4.91,-7.97 -1.28,-1.33 -1.66,-0.28 -0.88,1.07 0.9,1.63 2.68,2.69 2.1,3.47 1.66,1.76 z"
       id="path883"
       style="fill:#000000;fill-opacity:1;stroke:#000000;stroke-opacity:1" />
    <path
       d="m 401.53,86.66 -0.74,-0.78 -3.52,-2.65 -1.2,-0.65 0.03,2.57 0.94,1.73 0.67,1.82 -0.75,2.93 4,-3.97 z"
       id="path885"
       style="fill:#000000;fill-opacity:1;stroke:#000000;stroke-opacity:1" />
    <path
       d="m 263.37,56.5 2.58,-0.7 3.98,-3.08 2.45,-0.7 2.37,-0.36 27.58,-6.33 h 7.31 l 18.04,-3.25 7.83,-1.63 8.58,-0.44 1.69,0.27 1.22,0.64 2.23,1.72 0.94,0.33 2.43,-0.93 1.1,-2.11 -0.1,-2.52 -2.34,-4.64 0.36,-2.7 0.65,-2.68 -0.3,-2.43 -2.07,0.78 -1.17,1.45 -0.89,1.69 -1.24,1.46 -2.02,0.77 -8.34,0.13 -2.66,0.34 -4.18,1.69 -4.16,1.16 -6.32,-0.8 -4.67,1.74 -2.5,-0.41 -4.11,-1.67 -2.71,1.23 -1.77,2.38 -4.32,-0.14 -6.7,-1.05 -6.05,-1.34 -2.72,0.65 -10.83,-3.83 -2.48,-1.34 -0.67,-2.34 -1.7,-2.83 -2.31,-2.59 -2.5,-1.61 -1.02,5.55 -0.76,1.62 -3.58,3.67 -0.91,1.71 5.46,0.89 3.16,1.76 0.3,1.39 -2.44,1.46 -1.6,2.96 -1.92,1.45 -0.34,1.64 -1.66,1.21 -0.49,1.06 -1.02,0.61 -1.54,0.85 -1.81,0.75 -2.69,1.7 -2.96,1.24 -3.13,-0.04 -4.23,-1.64 -2.09,0.28 -2.6,0.44 -3.91,-4.83 -16.88,-9.6 -0.86,-0.94 -0.98,-0.6 -1.15,-0.27 -1.41,0.02 1.39,1.98 6.26,4.66 13.8,12.75 5.71,3.15 3.18,2.83 5.24,1.67 5.36,0.46 1.23,-0.55 2.75,-0.22 1.23,-0.93 2.29,-1.48 2.81,-1.26 z"
       id="path887"
       style="fill:#000000;fill-opacity:1;stroke:#000000;stroke-opacity:1" />
    <path
       d="m 365.5,7.84 2.32,0.93 3.71,2.22 1.55,0.44 5.21,0.01 2.38,0.27 7.72,2.28 3.11,0.45 2.28,-0.73 2.43,-1.19 2.92,0.08 2.87,0.97 2.22,1.44 3.58,3.79 5.98,8.96 2.17,4.45 -0.77,2.06 0.92,1.36 2.07,0.76 2.68,0.22 0.78,-0.35 0.64,-0.7 0.61,-0.5 0.69,0.21 0.47,0.64 0.67,1.41 1.49,1.74 0.37,1.15 -0.15,1.07 -0.6,0.8 1.58,3.22 1.47,2.23 2.31,1.3 12.16,1.6 3.08,1.29 4.65,1.11 0.94,1.93 -0.58,2.37 -1.33,2.06 -0.64,0.38 -0.94,0.36 -0.83,0.55 -0.36,0.91 0.14,2.52 -0.14,0.66 -0.92,1.56 -1.1,1.26 -1.43,0.74 -1.93,0.03 0.2,9.26 1.15,1.57 0.17,1.27 -4.17,5.55 2.23,1.97 0.37,1.7 0.05,3.46 -0.49,1.93 -1.13,1.25 -1.22,1.12 -0.82,1.48 0.21,1.42 1.01,0.97 1.1,0.78 0.53,0.91 0.07,1.57 0.26,1.24 0.53,1.08 0.85,1.08 -3.36,1.28 -3.08,2.33 -4.81,4.95 -1.58,0.71 -1.92,0.2 -1.61,0.4 -1.47,3.25 -1.95,1.37 -2.38,0.74 -2.13,0.01 2.64,3.19 9.6,1.9 2.11,1.71 0.83,2.72 2.16,4.1 3.05,3.73 3.46,1.65 4.72,-4.11 0.47,-9.47 -0.67,-10.57 1.38,-7.4 -0.2,-2.49 1.16,-10.03 1.24,-3.25 2.93,-3 3.59,-2.91 4.05,-2.07 4.27,-0.45 -0.63,1.96 -0.27,0.56 2.34,-0.44 1.09,-0.48 1.05,-0.79 1.08,-1.09 0.23,-0.52 -0.18,-0.5 -0.14,-1.07 -0.3,-0.66 -0.65,-0.65 -0.64,-0.89 -0.3,-1.43 0.2,-0.98 1.69,-3.05 -2.07,-0.51 -1.75,-0.85 -1.2,-1.39 -0.45,-2.14 0.03,-5.86 0.42,-0.91 1.74,-0.93 -0.02,-2.12 -0.98,-2.41 -1.19,-1.71 -1.54,-1.2 -4.82,-2.39 -6.3,-4.12 -3.62,-1.6 -8.02,-1.34 -3.42,-1.92 -2.72,-2.87 -1.92,-3.55 4.29,0.13 1.76,-0.49 1.13,-1.44 -4.35,-0.26 -3.08,-0.89 -2.73,-1.67 -24.08,-21.06 -5.55,-3.74 -6.99,-2.94 -3.02,2.13 -6.9,-0.56 -12.1,-2.47 -12.3,-0.15 -5.95,0.98 -4.72,2.77 -0.95,0.19 -0.39,0.19 -0.38,0.51 2.76,-0.06 4.17,-1.38 10.38,-0.7 z"
       id="path889"
       style="fill:#000000;fill-opacity:1;stroke:#000000;stroke-opacity:1" />
    <path
       d="m 916.26,573.23 -0.96,3.54 2.35,-0.39 1.81,-3.25 -1.6,-0.99 z"
       id="path891"
       style="fill:#000000;fill-opacity:1;stroke:#000000;stroke-opacity:1" />
    <path
       d="m 720.49,409.65 -1.09,0.19 -0.83,1.9 0.82,2.08 0.88,-0.46 0.65,-1.68 -0.04,-1.43 z"
       id="path893"
       style="fill:#000000;fill-opacity:1;stroke:#000000;stroke-opacity:1" />
    <path
       d="m 358.03,344 -1.89,0.75 -0.01,1.81 2.15,1.03 2.46,-1.06 1.52,-1.92 0.55,-0.96 -0.91,-0.07 z"
       id="path895"
       style="fill:#000000;fill-opacity:1;stroke:#000000;stroke-opacity:1" />
    <path
       d="m 501.81,318.82 -0.42,-0.69 -0.94,-1.2 -1.01,0.51 -0.36,2.32 0.76,1.7 1.37,0.55 0.83,-0.63 -0.06,-1.66 z"
       id="path897"
       style="fill:#000000;fill-opacity:1;stroke:#000000;stroke-opacity:1" />
    <path
       d="m 358.7,204.67 1.59,-0.64 1.3,-1.38 0.7,-1.48 -0.37,-0.06 -1.01,1.2 -1.55,0.87 -2.06,0.12 -1.51,-0.11 -0.8,0.06 -1,0.42 -0.77,0.6 -0.11,0.24 2.4,0.05 1.17,0.11 z"
       id="path899"
       style="fill:#000000;fill-opacity:1;stroke:#000000;stroke-opacity:1" />
    <path
       d="m 176.7,156.5 -1.44,0.37 -2.53,1.93 -1.77,2.78 -0.98,2.52 -0.39,1.9 0.47,0.58 1.51,0.04 3.59,0.51 0.5,-0.69 -1.33,-1.06 -1.99,-0.75 -1.39,-1.04 0.3,-1.72 0.7,-1.01 0.95,-1.11 1.77,-1.53 0.51,0.65 -0.92,1.98 0.23,1.19 1.62,-0.46 0.86,-0.39 0.28,0.58 0.35,-1.09 -0.37,-2.76 z"
       id="path901"
       style="fill:#000000;fill-opacity:1;stroke:#000000;stroke-opacity:1" />
    <path
       d="m 440.1,64.09 -1.25,-0.21 -1.06,0.29 -0.75,0.69 -0.63,0.41 -0.57,-0.07 -0.2,0.55 0.77,0.67 0.64,0.97 0.55,1.46 1.15,0.53 0.52,-0.01 0.51,-0.06 0.74,-0.54 -0.32,-1.53 0.13,-1.55 0.27,-0.05 -0.04,-0.1 -0.29,-0.22 0.11,-0.2 0.48,0.06 0.25,0.1 0.06,-0.13 -0.2,-0.49 z"
       id="path903"
       style="fill:#000000;fill-opacity:1;stroke:#000000;stroke-opacity:1" />
    <path
       d="m 360.05,48.02 -0.43,0.39 -0.97,0.55 0.28,-0.39 1.22,-1.36 -0.59,-0.63 -3.97,0.68 -0.7,0.52 0.27,1.13 0.59,1.11 1.8,1.97 0.31,0.51 0.28,0.37 0.85,-0.03 0.83,-1.13 0.49,-1.39 0.62,-0.95 0.01,-0.57 0.45,-0.77 1.18,-1.29 -0.37,-0.39 -1.44,1.05 z"
       id="path905"
       style="fill:#000000;fill-opacity:1;stroke:#000000;stroke-opacity:1" />
    <path
       d="m 502.35,185.84 -1.44,0.41 -0.82,0.82 3.5,0.21 1.44,0.1 0.51,-0.72 -1.64,-0.51 z"
       id="path907"
       style="fill:#000000;fill-opacity:1;stroke:#000000;stroke-opacity:1" />
    <path
       d="m 494.64,188.41 -2.06,0.72 -1.65,0.31 -2.06,1.23 0.11,1.03 1.44,-0.2 1.64,-1.14 h 2.58 l 2.36,-0.92 0.21,-0.72 -1.13,-0.41 z"
       id="path909"
       style="fill:#000000;fill-opacity:1;stroke:#000000;stroke-opacity:1" />
    <path
       d="m 376.25,430.25 -0.1,0.78 0.47,0.39 -1.03,0.3 0.77,0.38 0.43,0.37 0.72,-0.26 0.78,-0.79 0.45,-0.75 -0.76,-0.66 z"
       id="path911"
       style="fill:#000000;fill-opacity:1;stroke:#000000;stroke-opacity:1" />
    <path
       d="m 362.57,420.94 1.16,0.67 0.62,0.06 0.73,-0.81 -2.05,-0.75 z"
       id="path913"
       style="fill:#000000;fill-opacity:1;stroke:#000000;stroke-opacity:1" />
    <path
       d="m 169.5,167.67 -0.15,-0.13 -0.12,0.2 0.2,0.05 z"
       id="path915"
       style="fill:#000000;fill-opacity:1;stroke:#000000;stroke-opacity:1" />
    <path
       d="m 402.32,112.83 -0.55,-0.02 -0.57,0.93 -1.08,0.6 -0.01,0.34 0.62,0.65 0.73,0.49 0.47,0.68 0.44,0.05 0.82,-1.55 z"
       id="path917"
       style="fill:#000000;fill-opacity:1;stroke:#000000;stroke-opacity:1" />
    <path
       d="m 434.36,81.35 0.06,-0.6 -0.29,-0.42 -0.81,0.24 -0.44,-0.38 -1.88,0.8 -0.78,0.62 0.3,0.45 1.55,-0.98 0.69,0.01 0.52,0.35 0.97,2.07 -0.64,2.76 0.69,0.46 0.35,-0.41 0.41,-3.01 -0.16,-0.82 -0.46,-0.65 z"
       id="path919"
       style="fill:#000000;fill-opacity:1;stroke:#000000;stroke-opacity:1" />
    <path
       d="m 435.42,71.29 -1.77,1.48 -0.21,0.61 0.33,-0.04 2.34,-1.09 1.38,-1.16 0.31,-0.91 -1.03,0.04 z"
       id="path921"
       style="fill:#000000;fill-opacity:1;stroke:#000000;stroke-opacity:1" />
    <path
       d="m 476.98,54.21 -1.55,3.48 -0.28,1.4 0.04,0.53 -0.18,-0.03 -0.28,-0.2 -0.32,0.43 -0.29,0.66 -0.02,0.49 0.34,0.29 2.88,-4.5 0.13,-1.49 -0.32,-1.16 z"
       id="path923"
       style="fill:#000000;fill-opacity:1;stroke:#000000;stroke-opacity:1" />
    <path
       d="m 416.45,47.07 0.05,-1.14 -0.26,-0.55 -0.44,0.19 -0.52,-0.28 -0.29,0.01 0.38,0.77 -0.21,0.73 0.18,0.69 1.17,0.42 0.41,-0.22 -0.39,-0.25 z"
       id="path925"
       style="fill:#000000;fill-opacity:1;stroke:#000000;stroke-opacity:1" />
    <path
       d="m 278,25.28 -0.36,0.59 -0.14,0.57 -0.16,0.11 -1.03,-0.94 -0.52,-0.04 0.18,1.03 1,1.02 0.9,-0.01 0.57,-0.15 0.37,-0.2 -0.15,-0.42 0.06,-0.21 0.31,-0.38 -0.1,-0.8 -0.42,-0.48 z"
       id="path927"
       style="fill:#000000;fill-opacity:1;stroke:#000000;stroke-opacity:1" />
  </g>
</svg>
