<?xml version="1.0" encoding="UTF-8" standalone="no"?>
<svg
   xmlns:dc="http://purl.org/dc/elements/1.1/"
   xmlns:cc="http://creativecommons.org/ns#"
   xmlns:rdf="http://www.w3.org/1999/02/22-rdf-syntax-ns#"
   xmlns:svg="http://www.w3.org/2000/svg"
   xmlns="http://www.w3.org/2000/svg"
   xmlns:sodipodi="http://sodipodi.sourceforge.net/DTD/sodipodi-0.dtd"
   xmlns:inkscape="http://www.inkscape.org/namespaces/inkscape"
   version="1.0"
   width="1024.000000pt"
   height="1024.000000pt"
   viewBox="0 0 1024.000000 1024.000000"
   preserveAspectRatio="xMidYMid meet"
   id="svg12"
   sodipodi:docname="my.svg"
   inkscape:version="1.0.1 (3bc2e813f5, 2020-09-07)">
  <defs
     id="defs16" />
  <sodipodi:namedview
     pagecolor="#ffffff"
     bordercolor="#666666"
     borderopacity="1"
     objecttolerance="10"
     gridtolerance="10"
     guidetolerance="10"
     inkscape:pageopacity="0"
     inkscape:pageshadow="2"
     inkscape:window-width="1920"
     inkscape:window-height="974"
     id="namedview14"
     showgrid="false"
     inkscape:zoom="0.55286249"
     inkscape:cx="1115.6023"
     inkscape:cy="791.06313"
     inkscape:window-x="-11"
     inkscape:window-y="-11"
     inkscape:window-maximized="1"
     inkscape:current-layer="svg12" />
  <metadata
     id="metadata2">
Created by potrace 1.10, written by Peter Selinger 2001-2011
<rdf:RDF>
  <cc:Work
     rdf:about="">
    <dc:format>image/svg+xml</dc:format>
    <dc:type
       rdf:resource="http://purl.org/dc/dcmitype/StillImage" />
  </cc:Work>
</rdf:RDF>
</metadata>
  <g
     stroke="#000000"
     stroke-width="0.98"
     fill="#ffffff"
     id="g895"
     transform="matrix(0.86020174,0,0,0.8602576,-3.8712473,167.98325)"
     style="fill:#000000;fill-opacity:1">
    <path
       d="m 1099.57,396.37 v 0 l 2.09,0.38 h 2.75 4.18 l 3.31,0.03 -0.39,-0.88 v -0.01 l -0.27,-0.6 -2.81,-0.91 -0.83,-0.04 -0.59,-0.15 -0.53,-0.32 -0.57,-0.57 -0.81,-1.28 -0.58,-0.69 -0.66,-0.31 -1.1,-0.17 -2.19,-0.72 -1.12,-0.07 -0.95,0.29 -1.24,0.59 -1.09,0.75 -0.45,0.8 0.24,0.74 3.21,2.8 z"
       id="path861"
       style="fill:#000000;fill-opacity:1" />
    <path
       d="m 152.16,269.44 -0.39,3.2 0.28,4.74 -0.68,1.93 -1.61,1.6 -4.49,3.44 -1.5,1.81 -0.9,2.51 -0.03,2.59 -0.39,2.32 -1.97,1.71 -0.68,0.44 -0.3,0.51 -0.21,0.54 -0.37,0.54 -1.77,1.08 -0.32,0.37 -0.48,1.28 -0.71,0.77 -0.99,0.11 -1.29,-0.7 -0.53,-0.65 -0.38,-0.73 -0.48,-0.61 -0.8,-0.24 -0.73,0.21 -1.04,0.96 -0.06,0.05 -0.6,0.31 -1.26,-0.27 -0.94,-1.03 -1.19,-2.78 0.03,-0.54 0.19,-0.6 -0.02,-0.5 -0.58,-0.24 -0.7,-0.11 -0.47,-0.29 -0.33,-0.48 -0.28,-0.69 -0.96,-1.27 -1.3,-0.3 -1.41,0.32 -2.09,0.81 -6.51,2.52 -2.13,1.37 -2.34,1.11 -2.38,0.43 -1.86,0.97 -0.75,2.75 -0.18,1.35 -0.52,1.22 -0.78,1.08 -0.93,0.89 -2.84,1.71 -1.69,0.53 -1.01,-0.47 -0.7,-1.52 -0.92,-1.52 -1.15,-1.32 -1.36,-0.91 -0.6,-0.12 -1.16,0.05 -0.59,-0.23 -0.41,-0.49 -0.71,-1.42 -0.46,-0.72 -0.32,-0.49 -0.12,-0.69 0.15,-0.71 0.4,-0.68 2.48,-5.04 1.01,-0.64 1.27,-0.25 1.11,-0.41 0.46,-1.11 0.1,-1.14 0.43,-1.98 0.09,-3.45 0.32,-2.38 -0.43,-1.2 -1.13,-0.84 -0.97,-0.91 0.06,-1.4 0.81,-1.01 0.8,-0.37 0.55,-0.51 0.11,-1.48 -0.16,-1.23 -0.4,-0.79 -0.77,-0.26 -2.79,0.6 -1,-0.33 -1.95,-1.59 -1.16,0.24 -1.59,1.7 -1.14,0.29 -2.53,-0.63 -0.81,-0.1 -0.74,0.24 -0.33,0.41 -0.27,0.03 -0.51,-0.9 -0.14,-0.51 -0.04,-1.75 0.11,-0.54 0.02,-0.06 0.19,-0.51 0.13,-0.56 -0.11,-0.5 -0.73,-1.23 -0.27,-0.66 -0.13,-0.7 -0.18,-2.88 -0.56,-1.16 -1.4,-0.81 -0.69,-0.1 -0.62,0.01 -0.56,-0.08 -0.51,-0.38 -0.17,-0.51 0.02,-1.35 -0.09,-0.37 -1.04,0.01 -3.9,2.78 -1.08,0.14 -1.09,-0.26 -2.08,-0.92 -3.69,-1.07 -1.11,-0.51 -1.94,-1.39 -0.9,-0.22 -1.56,0.18 -1.03,-0.08 -1.35,-0.41 -0.59,-0.29 -1.75,-0.84 -1.18,-1.04 -0.69,-1.14 -2.25,-6.8 -0.41,-0.45 -0.65,-0.23 -0.7,-0.06 -0.55,0.05 -0.92,0.57 v 0.12 l -0.91,-0.02 -0.52,-0.29 -0.28,-0.33 -0.16,-0.19 -0.55,-0.33 -0.86,0.28 -0.39,0.5 -0.17,0.69 -0.08,1.37 -0.41,2.46 0.07,1.03 0.49,1.41 0.12,0.86 -0.37,0.52 -0.53,0.46 -0.41,0.63 -0.05,0.54 0.2,1.05 0.02,0.53 -0.25,1.51 -0.53,1.33 -0.5,0.93 0.23,1.15 0.39,2.6 0.93,2.82 1.31,2.61 1.54,1.94 1.98,1.37 0.93,0.94 0.73,2.42 2.19,3.96 1.08,2.72 0.73,1.31 0.89,1.16 0.52,1.04 1.61,12.23 -0.68,7.09 0.28,0.27 0.58,0.26 0.46,0.37 -0.08,0.6 -0.53,0.36 -0.69,0.04 -0.71,-0.16 -0.56,-0.24 0.42,5.15 0.3,1.31 1.37,2.42 0.4,1.42 -0.38,5.22 0.09,1.36 0.31,0.84 1.25,1.73 1.46,2.76 0.2,0.78 -0.13,0.67 -0.6,1.11 -0.14,0.73 0.13,0.37 0.58,1.22 0.16,0.68 -0.15,1.24 -0.89,1.88 -0.43,2 -0.55,0.71 -0.68,0.56 -0.61,0.67 -0.28,0.16 -0.28,-0.08 -0.22,0.05 -0.08,0.5 0.47,1.38 0.51,0.86 0.91,2.05 0.37,1.28 1.5,1.71 0.35,0.88 0.21,0.82 0.35,0.8 0.74,0.85 0.42,-0.43 0.6,-0.39 0.67,-0.14 0.61,0.29 0.71,0.59 0.46,0.2 0.22,0.27 0.04,0.81 -0.35,0.03 -0.62,0.46 -0.3,0.53 0.67,0.26 h 1.44 l 0.65,-0.13 0.61,-0.32 0.19,0.81 0.52,0.22 0.6,0.04 0.35,0.21 v 0.62 l -0.48,1.02 0.07,0.84 0.34,0.85 0.3,0.08 0.39,-0.18 0.62,0.08 1.18,0.41 0.15,0.39 -0.47,0.85 0.9,0.35 0.35,0.06 v 0.46 l -1.75,0.12 -0.56,0.79 0.2,3 0.38,1.68 0.99,-0.02 1.33,-0.49 1.44,0.26 -0.61,0.38 -0.53,0.54 -0.47,0.71 -0.42,0.85 -0.95,-0.56 -0.8,0.53 -0.57,1.13 -0.2,1.22 0.38,1.14 0.91,0.8 1.08,0.29 0.93,-0.37 -0.78,1.65 -1.08,3.95 -0.17,1.68 -0.26,0.83 -1.16,0.85 -0.26,0.8 -0.08,1.15 -0.19,0.83 -0.56,1.54 -0.31,1.32 0.25,0.35 0.6,0.13 0.7,0.68 0.24,0.95 0.04,0.95 0.28,0.74 0.91,0.29 -0.39,0.81 0.25,1.82 0.58,1.97 0.61,1.23 1.39,-0.85 1.34,0.27 1.2,0.86 0.99,0.97 3.16,2.13 0.61,0.81 0.04,1.57 -0.23,1.42 0.29,0.95 1.55,0.15 0.67,-0.43 1.45,-0.72 1.41,-0.15 0.6,1.3 -0.99,-0.2 -1.24,0.22 -1.04,0.47 -0.96,1.2 -1.2,0.18 -3.82,-0.17 -0.76,0.44 -0.31,0.99 -0.03,3.04 0.17,1.11 0.37,0.96 0.68,0.9 0.84,0.53 1.55,0.74 1.5,0.48 0.67,-0.28 0.28,-0.24 0.68,-0.2 1.34,-0.2 0.69,0.19 -0.23,0.46 -1.08,1.01 -0.63,1.41 -0.06,1.04 0.64,0.64 2.83,0.49 1.03,0.71 1.57,1.95 0.94,1.67 0.34,0.44 0.59,0.41 1.49,0.64 4.4,3.03 1.01,1.3 0.44,1.3 0.6,2.71 1.19,1.73 0.5,1.39 0.38,0.54 1.89,1.89 2.88,3.8 0.43,0.97 0.2,0.29 0.5,0.33 0.59,0.29 1.22,0.3 0.35,0.46 0.21,0.55 0.24,0.46 2.08,1.76 0.88,0.99 0.35,1.19 1.21,7.91 0.39,0.77 1.74,1.36 0.39,0.78 0.47,2.91 v 1.58 l -0.68,0.68 -0.87,0.34 -0.87,0.8 -3.02,3.7 -0.12,0.81 1.36,0.18 -1.03,2.74 1.46,0.98 2.7,0.26 2.67,0.62 1.88,1.61 3,4.57 1.4,1.68 2.4,1.7 1.33,0.56 2.04,0.35 1.24,0.57 3.34,0.58 1.06,0.75 0.6,0.65 0.76,0.46 2.88,0.27 0.82,0.34 0.52,0.65 1.22,3.51 0.88,0.95 0.59,0.49 0.41,0.21 1.02,0.71 0.31,1.68 0.12,1.93 0.43,1.51 0.74,-0.87 1.92,-0.12 1.07,-0.7 1.79,1.07 0.96,0.37 1.01,0.25 -0.1,1.05 0.72,0.94 1.19,0.68 1.31,0.26 0.67,0.32 4.58,5.07 1.66,1.31 2.04,1.17 9.74,4.02 8.51,3.46 2.29,1.34 1.08,0.8 0.77,0.76 0.06,0.27 0.12,0.25 -0.07,0.2 -0.53,0.11 0.44,0.77 0.68,0.74 4.96,3.98 1,1.17 1.15,2.57 0.8,1.19 1.36,0.75 1.03,0.03 3.01,-0.46 0.97,-0.36 1.89,0.88 1.7,1.08 1.44,1.25 1.17,1.38 1,1.61 0.69,0.63 1,0.25 1.39,0.13 1.35,0.38 2.47,1.18 10.24,6.37 7.21,2.73 2.57,1.63 1.7,1.94 1.12,2.34 1.96,6.58 0.52,1.2 0.86,1.18 2.13,1.82 0.74,1.18 0.86,-2.11 1.09,-1.6 0.15,-0.67 -0.06,-0.5 -0.29,-0.91 -0.06,-0.68 0.22,-0.29 0.46,0.44 0.44,0.63 0.12,0.27 2.15,0.39 1.81,-1.45 3.11,-3.9 0.99,-0.54 0.91,-0.09 2.45,0.21 1.27,-0.3 2.44,-1.27 1.54,-0.12 5.26,2.72 2.91,0.72 2.14,-1.75 0.16,-0.94 -0.15,-0.93 -0.26,-0.87 -0.14,-0.79 0.32,-1.69 -0.02,-0.84 -2.3,-3.63 -0.62,-1.65 0.35,-0.73 1.37,0.94 1.43,2.15 1.93,3.98 0.35,1.1 0.22,0.41 0.45,-0.23 2.04,-1.53 1.01,-0.59 1.08,-0.28 1.13,0.26 -1.48,1.69 -2.24,0.89 -1.62,1.06 0.33,2.22 0.6,0.6 0.84,0.57 0.72,0.64 0.33,0.87 -0.05,1.16 0.06,0.61 0.48,0.41 2.45,0.98 1.19,0.25 2.73,0.12 0.3,-0.2 0.64,-0.88 0.3,-0.2 h 2.29 l 0.3,-0.93 -0.17,-2.65 0.5,-0.55 0.42,-0.67 -0.06,-1.52 -0.59,-2.78 -1.23,-3.31 -0.44,-2.53 -0.4,-0.82 0.32,-0.63 -0.48,-0.77 -0.72,-0.84 -0.35,-0.85 -0.09,-2.05 -0.31,-0.89 -1.13,-1.58 -0.55,-2.78 -1.68,-2.93 h -0.39 l -0.72,0.58 -0.84,-0.69 -0.67,-1.31 -0.28,-1.25 0.16,-2.63 -0.09,-1.18 -0.49,-1.34 -0.38,-0.65 -1.28,-1.46 -0.4,-0.66 -0.7,-1.51 -1.12,-1.52 -1.54,-3.8 -2.85,-3.51 -0.42,-1.23 0.14,-0.72 0.59,-1.2 0.13,-0.56 -0.22,-0.72 -1.06,-1.32 -0.4,-0.67 -0.14,-0.67 -0.01,-1.21 -0.27,-0.64 -0.42,-0.4 -1.33,-0.98 -0.53,-0.48 -4.47,-5.65 -0.44,-1.12 0.04,-1.18 0.53,-1.4 -1.56,-3.43 -0.74,-0.93 -2.1,-1.64 -0.18,-0.57 0.16,-0.51 -0.1,-0.44 -0.94,-0.34 -1.44,0.7 -0.59,0.09 -0.65,-0.24 -0.91,-0.83 -0.32,-0.18 -1.07,-0.05 -0.93,-0.18 -0.72,-0.33 -0.11,-0.04 -7.17,-7.09 -2.82,-3.76 -1.97,-4.31 -0.4,-2.41 1.31,-14.66 -0.29,-1.21 -0.42,-1.2 -0.99,-7.49 0.32,-2.5 2.96,-6.27 -2.07,0.41 0.85,-1.76 -1.42,-2.05 -2.07,-1.95 -1.05,-1.5 -0.22,-0.76 -2.34,-5.11 -0.32,-1.01 -0.06,-1.21 0.25,-0.83 0.5,-1.05 0.6,-0.77 1.06,-0.03 0.18,-1.09 -0.06,-2.24 0.22,-1.99 0.65,-2.71 1.02,-1.76 1.38,0.85 0.22,-1.52 -2.25,-5.59 -0.41,-1.9 0.07,-1.07 0.53,-0.94 1.25,-1.66 0.49,-0.34 0.5,-0.19 0.11,-0.06 0.35,-0.21 0.38,-0.63 -0.39,-1.58 -0.02,-0.52 0.22,-0.47 0.86,-1.03 0.39,-0.37 0.48,-0.73 0.83,-2.12 0.15,-0.66 -0.14,-1.85 -1.96,-5.6 0.12,-0.89 -0.75,-2.71 0.42,-1.2 0.6,-1.14 0.07,-1.39 -1.02,-9.16 -0.6,-2.53 -0.09,-1.38 0.45,-1.78 -0.03,-0.7 -0.33,-0.61 -1.06,-1.24 -0.24,-0.43 -0.36,-1.16 -3.55,-6.49 -6.02,-10.05 -2.12,-5.15 -6.19,-9.71 -5.62,-6.31 -3.15,-2.78 -0.97,-0.65 -2.51,-0.51 -2.57,-1.27 -10.87,-8.57 -1.65,-0.74 -0.62,-0.94 -0.78,-1.96 -1.2,-1.47 -1.39,-1.11 -3.21,-1.98 -0.51,-0.4 -1.29,-1.03 -1.26,-1.56 -7.27,-14.28 -2.54,-2.67 -1.36,-0.81 -7.04,-2.57 -1.3,-0.05 -0.68,0.95 0.99,-0.31 0.52,0.49 -0.29,0.7 -1.42,0.36 -0.69,-0.34 -3.24,-2.18 z"
       id="path863"
       style="fill:#000000;fill-opacity:1" />
    <path
       d="m 944.55,351.21 0.04,1.39 0.56,0.56 0.81,0.39 0.78,0.53 1.52,2.16 3.96,11.44 0.26,1.44 -0.09,1.05 -0.49,2.39 -0.03,2.39 0.34,2.56 0.79,2.38 1.4,1.86 2.13,2 0.88,1.3 0.15,1.25 -0.88,0.96 -1.33,-0.05 -1.4,-0.61 -1.1,-0.73 -0.53,-0.2 -1.16,0.05 -0.64,-0.27 -0.94,-0.8 -0.51,-0.18 -1.81,0.18 -1.27,-0.27 -3.45,-1.28 -0.8,-0.54 -0.48,-0.86 -0.73,-5.97 -0.71,-2.39 -1.98,-4.72 -0.52,-2.35 -0.25,-4.93 0.43,-4.8 -0.02,-0.02 -0.36,-2.19 -0.05,-2.35 -0.42,-1.25 -0.35,0.56 -0.49,0.43 -0.57,0.36 -0.66,0.31 -1.38,1.38 -0.19,0.93 -0.05,1.01 -0.4,0.93 -0.96,0.59 -1.07,0.03 -1.11,-0.19 -1.11,-0.06 -1.36,0.37 -1.1,0.69 -1.95,1.87 -1.03,0.64 -2.22,0.93 -0.52,0.49 -0.08,0.06 -0.03,1 0.45,1.13 1.17,2.24 0.35,1.25 0.21,1.34 0.29,7.09 0.36,2.21 1.09,1.69 1.19,0.44 0.89,-0.15 0.45,0.29 -0.13,1.74 -0.56,2.3 -0.45,1.01 -0.65,1.03 -1.46,1.41 -0.38,0.37 -0.36,0.56 0.04,1.24 1.89,-0.77 0.2,1.06 -0.43,1.11 -1.39,2.07 -0.42,1.18 -0.34,2.5 -0.47,0.89 -5.57,5.32 -2.86,1.66 -2.49,-0.29 -0.3,-0.48 -0.45,-1.5 -0.3,-0.63 -0.48,-0.46 -1.28,-0.9 -3.81,-3.52 -0.87,-1.16 -0.59,-1.19 -1.26,-3.83 -0.77,-0.8 -1.12,-0.06 -2.48,0.44 -2.65,-0.52 -2.07,-0.15 -0.28,-0.55 -0.1,-0.91 0.19,-0.36 0.85,-0.73 0.2,-0.59 -0.42,-2.7 -0.82,-1.25 v -1.69 l -0.47,-1.69 -0.36,-0.67 -0.64,-0.71 -0.2,-0.39 -0.06,-0.48 -0.13,-0.4 -0.44,-0.17 -0.94,-0.03 -0.37,-0.18 -0.47,-1.24 -0.71,-0.47 -1.49,-0.57 -1.98,-1.54 -1.28,-0.66 -3.32,-0.51 -3.96,-1.89 -1.39,0.39 -0.39,0.98 1.36,5.7 0.02,2.88 -0.62,2.56 -1.3,2.02 0.44,2.38 -1.27,2.93 -12.73,16.52 -14.69,12.67 -2.51,1.43 -1.14,0.94 -0.49,1.12 -0.19,1.42 -0.49,1.37 -1.42,2.44 -2.91,3.27 -0.41,0.64 -0.32,0.38 -1.42,1.11 -0.32,0.61 -0.1,1.3 -0.12,0.5 -0.2,0.47 -1.11,1.67 -4.73,4.17 -2.02,3.18 -0.25,0.58 -0.65,0.34 -2.91,2.55 -1.6,1.09 -0.46,0.53 0.79,1.35 -1.28,2.31 -3.24,3.45 -2.02,1.06 -10.54,3.28 -0.71,-0.01 -3.73,1.46 -9.25,1.95 -16.78,4.42 -17.23,4.55 -9.27,0.33 -11.58,2.27 -1.86,0.9 -6.61,4.1 -4.37,3.33 -0.65,0.67 -0.41,0.88 -0.3,2.37 -1.07,3.73 -0.03,1.48 0.34,0.94 0.62,0.65 0.76,0.66 0.98,0.6 2.29,0.56 1.32,0.49 -0.34,0.19 -0.1,0.04 -0.09,-0.08 -0.33,-0.15 -1.2,1.02 -1.45,-0.06 -1.69,-0.44 -1.88,-0.11 0.47,0.89 0.72,2.55 0.51,0.74 1.97,1.83 1.22,1.25 0.5,1.09 -1.2,-0.68 -1.09,-0.8 -0.45,-0.11 -2.04,0.31 -0.56,0.18 -1.91,1.29 -0.5,0.14 -0.43,-0.25 -0.39,-0.35 -0.34,-0.18 -0.51,-0.39 -1.52,-1.86 -0.69,-0.6 -2.04,-0.64 -0.8,-0.49 -0.51,-1.02 -1.53,1.21 -0.76,1.65 -0.61,4.25 -0.72,2.85 -0.1,1.1 0.48,0.49 1.08,0.2 1.14,0.42 0.65,1.15 -1.22,-0.25 -1.21,0.58 -0.92,0.98 -0.37,0.96 0.04,1.39 0.32,0.66 0.86,0.11 4.34,-0.64 1.26,0.21 1.66,1.06 0.63,0.25 0.58,-0.13 0.5,-1.51 0.6,-0.63 0.72,-0.23 0.56,0.5 -0.18,0.47 -1.12,1.57 -0.4,0.44 -0.81,0.53 -0.52,0.1 -2.21,-0.44 -1.2,-0.43 -1.08,-0.08 -0.83,0.77 0.1,1.45 1.58,1.33 -1.49,0.12 -1.21,-0.4 -0.73,-0.11 -0.33,0.3 -0.12,1.42 -1.73,5.6 -1.91,3.95 -1.35,2.07 -0.51,1.11 -0.2,1.22 0.22,0.5 0.92,0.58 0.1,0.35 -0.43,0.37 -1.35,0.33 -0.3,0.35 0.12,0.91 0.31,0.81 1.4,2.4 0.25,0.29 0.38,0.13 1.09,0.22 0.22,0.22 0.14,0.28 0.69,0.99 0.06,0.73 0.2,0.16 0.39,-0.03 1.2,0.32 0.53,-0.03 0.54,0.06 1.08,0.83 0.57,0.27 1.22,0.36 -1.31,0.37 -1.02,-0.53 -0.84,-0.6 -0.77,0.16 -1.39,0.62 -0.98,-0.84 -0.79,-1.41 -0.8,-1.08 -1.18,-0.42 -1.34,0.06 -3.49,0.66 -0.56,0.79 -0.5,2.22 -0.82,2.11 -0.08,0.49 0.08,1.78 0.25,0.74 1.17,1.13 1.09,2.89 1.01,0.84 2.68,1.07 1.09,0.8 0.88,0.9 0.99,0.66 1.14,0.34 1.31,-0.06 2.19,-1 0.71,-0.2 0.89,0.08 1.69,0.6 0.96,0.15 0.43,0.38 0.56,1.68 0.27,0.38 0.83,0.16 1.69,0.63 1,0.04 -2.6,1.23 -2.39,-1.13 -2.19,-1.8 -1.96,-0.78 -1.27,0.39 -2.01,1.05 -1.46,0.21 -0.76,-0.25 -3.61,-1.82 -2.33,-1.54 -4.61,-4.63 -2.61,-1.69 -5.17,-2.11 -2.81,-0.39 -1.61,1.26 0.04,0.94 0.3,1.1 0.07,1.17 -0.61,1.15 -1.2,1.05 -1.12,0.56 -1.26,0.23 -1.6,0.04 v -0.45 l 2.28,-1.49 1.08,-1.09 0.36,-1.51 -0.76,-1.45 -1.55,-0.86 -3.49,-1.05 -2.49,-1.36 -0.82,-0.29 -0.7,0.06 -1.26,0.64 -0.55,0.13 -0.68,-0.26 -0.2,-0.52 -0.17,-0.65 -0.57,-0.68 -0.88,-0.34 -0.84,0.08 -1.63,0.67 0.35,-0.69 1.08,-1.11 0.22,-0.47 0.11,-1.22 0.31,-0.93 0.53,-0.85 0.75,-0.94 -0.78,-1.08 -0.98,0.12 -1.1,0.6 -1.82,0.62 -0.75,1.14 -0.61,0.26 -1.35,-0.09 -0.53,-0.11 -0.44,-0.17 -0.4,-0.24 -0.33,-0.27 -0.27,-0.35 -0.2,-0.43 -0.06,-0.39 0.1,-0.86 -0.04,-0.4 -0.2,-0.36 -0.55,-0.74 -0.47,-1.76 -0.83,-0.31 -0.97,0.6 -0.74,1.33 -0.09,0.56 0.09,1.93 0.07,0.24 0.3,0.62 0.04,0.37 -0.15,0.37 -0.59,0.71 -0.29,1.06 -0.42,-0.12 -1.45,-1.61 -0.35,-0.22 -0.35,0.06 -0.57,0.21 -0.45,0.25 -0.93,0.78 -0.28,0.17 -0.68,-0.2 -1.18,-0.82 -0.81,-0.18 -7.73,-0.06 -1.31,0.16 -0.93,0.47 -0.72,0.13 -3,0.06 -0.85,-0.19 -0.74,-0.97 -1.02,-2.11 -0.73,-1.03 -1.03,-0.77 -2.47,-1.04 -2.15,-1.42 -3.74,-1.58 -1.23,-0.91 -1.12,-1.13 -1.78,-2.52 -0.54,-1.35 0.04,-0.97 0.28,-0.85 0.22,-0.97 -0.09,-1.19 -0.6,-2.47 -0.14,-1.34 -0.27,-1.03 -0.01,-0.04 -1.13,3.24 -1.6,2.83 -0.92,1.34 -0.64,0.75 -2.22,1.87 -0.52,0.76 -0.05,0.92 0.38,2.19 -0.03,0.45 0.03,0.45 0.31,0.76 0.41,0.74 0.55,0.73 0.68,0.59 0.8,0.27 2.66,0.02 1.08,0.41 0.33,1.16 -0.41,4.78 0.07,2.78 0.32,1.18 0.67,1.24 1.17,1.47 5.4,4.63 0.41,0.65 0.15,1.69 0.36,0.1 1.15,-0.64 0.44,0.42 1.07,2.57 1.05,0.86 1.22,0.11 1.2,-0.14 h 1.17 l 1.11,0.55 0.74,0.98 1.17,3.57 0.72,1.28 0.76,0.66 2.18,1.04 1.12,1.03 1.28,2.31 1.38,1.02 1.15,0.42 3.55,0.47 1.11,0.57 0.89,1.23 1.31,2.57 3.02,4.41 0.31,1.47 0.11,1.24 0.56,0.2 0.83,-0.26 0.87,-0.15 3.08,0.68 0.76,0.31 1,0.9 2.55,3.46 2.28,1.81 2.79,1.35 2.88,0.36 2.56,-1.19 0.6,-0.74 0.22,-0.46 0.23,-0.19 0.69,0.05 0.45,0.28 0.4,0.47 0.54,0.42 0.82,0.11 0.8,-0.3 1.13,-1.07 0.67,-0.41 h 0.32 l 0.68,0.25 h 0.26 l 1.2,-0.47 0.06,-0.18 0.77,-0.39 0.16,0.1 0.62,0.51 0.33,0.07 0.44,-0.3 0.14,-0.49 0.05,-1.08 0.6,-0.94 3.37,-2.88 1.68,-0.81 1.83,-0.32 3.81,-0.12 13.59,-3.48 1.21,0.11 8.14,3.6 1.35,0.39 1.3,0.07 1.18,-0.23 2.39,-0.76 1.07,0.03 0.62,0.57 0.34,0.9 0.25,1.04 0.67,1.35 0.74,-0.36 1.42,-2.02 5.09,-1.97 0.88,-0.12 1.09,0.09 1.63,0.44 3.15,1.34 1.74,0.51 3.65,-0.94 5.28,-6.4 3.83,-1.21 4.89,0.03 1.54,-0.22 0.82,-0.36 0.43,-0.71 3.19,-9.18 1.9,-3.8 0.2,-0.65 0.04,-0.71 -0.37,-0.52 -1.38,-0.05 -0.3,-0.53 0.45,-1.51 1.12,-0.88 6.98,-3.32 1.45,-0.48 3.75,-0.36 1.06,-0.35 1.06,-0.8 0.83,-0.85 0.98,-0.69 1.49,-0.34 18.09,0.93 1.57,0.48 0.41,0.04 0.72,-0.34 0.43,-0.5 0.37,-0.58 0.6,-0.54 1.12,-0.4 0.99,0.12 1.02,0.35 1.18,0.26 2.93,-0.1 1.04,0.15 1.46,0.58 1.02,0.57 0.57,0.84 0.05,1.37 -0.35,1.33 -0.68,1.16 -0.95,0.99 -1.84,1.37 -0.36,0.65 0.17,0.48 0.91,0.04 2.32,-0.78 2.38,-0.42 2.33,0.21 2.22,1.07 1.99,1.55 0.86,0.27 2.72,0.17 3.54,0.73 2.89,1.06 4.48,3.48 2.75,0.09 2.38,-0.99 1.28,-0.35 1.28,0.06 1.31,0.73 3.05,3.63 1.72,0.85 1.5,-0.34 9.61,-6.45 3.64,-4.6 1.39,-1.18 1.13,-0.45 8.74,-1.37 2.44,-0.04 2.23,0.7 0.61,0.54 0.56,0.66 0.61,0.58 0.79,0.26 0.6,-0.18 1.31,-0.9 0.15,-0.07 8.99,-3.79 1.16,-0.3 1.42,0.2 1.4,0.69 4.81,3.41 1.31,0.4 1.41,-0.34 0.97,-0.91 0.39,-1.18 -0.02,-1.3 -0.27,-1.29 v -1.47 l 0.69,-1.03 2.13,-1.71 0.89,-1.04 1.57,-2.58 1.13,-3.19 0.67,-4.2 -0.07,-1.88 -0.19,-0.75 -0.19,-0.45 -0.07,-0.42 0.16,-0.66 0.33,-0.53 0.55,-0.58 0.64,-0.47 0.6,-0.24 3.27,-0.41 3.4,-1.31 0.78,-0.74 0.1,-1.14 -0.26,-1.29 v -1.04 l 0.27,-1.02 0.53,-1.24 0.16,-0.77 0.01,-0.92 -0.26,-0.8 -0.59,-0.4 -1.4,0.17 -0.97,0.43 -0.7,-0.07 -0.63,-1.35 -0.06,-0.51 0.06,-2.02 -0.14,-0.62 -0.68,-0.96 -0.23,-0.53 -0.05,-1.13 0.69,-3.31 0.92,-2.37 1.84,-1.06 4.69,-0.63 1.63,-0.54 0.38,-0.71 -0.17,-0.94 -0.09,-1.26 0.42,-1.33 0.74,-0.41 2.33,0.2 1.16,-0.76 2.59,-2.21 1.05,-0.46 0.93,-0.55 2.28,-2.58 1.3,-0.82 2.75,-0.25 1.26,-0.44 0.82,-1.17 -0.15,-1.07 -0.69,-1.43 -0.93,-1.4 -0.91,-0.98 -0.61,-0.41 -0.73,-0.35 -0.79,-0.23 -0.72,-0.07 -0.66,0.19 -1.3,0.63 -0.68,-0.02 -0.9,-0.85 0.13,-1.22 0.53,-1.36 0.27,-1.25 -0.19,-0.59 -0.66,-1.21 -0.05,-0.59 0.37,-0.75 0.55,-0.23 0.64,-0.13 0.66,-0.45 0.67,-1.48 -0.4,-1.19 -1.59,-2.04 -0.3,-0.82 0.13,-0.27 0.51,-0.23 0.83,-0.71 0.48,-0.69 0.22,-0.63 0.15,-0.62 0.27,-0.71 0.8,-1.27 0.98,-0.94 3.48,-2.38 0.7,-0.79 1.03,-2.13 1.04,-1.56 0.83,0.25 1.55,2.3 1.73,0.82 1.91,-0.31 3.96,-1.72 2.5,-0.28 0.97,-0.41 0.49,-1.19 0.23,-2.58 0.38,-1.09 2.11,-2.8 -0.16,-0.46 -0.91,-0.3 -0.96,-1.17 -0.04,-1.05 2.11,-9.14 1.1,-2.81 1.3,-1.33 0.6,0.1 0.54,0.27 0.54,0.16 0.64,-0.25 0.35,-0.57 -0.04,-0.66 -0.48,-1.26 -1.01,-1.8 -0.2,-0.76 -0.02,-0.61 0.12,-1.23 -0.06,-0.63 -1.51,-3.66 -0.25,-1.44 0.01,-2.42 0.36,-2.38 2.36,-7.05 -0.05,-2 -0.85,-0.88 -1.24,-0.69 -0.96,-0.87 0.03,-1.38 0.43,-0.43 2.13,-1.16 0.56,-0.68 1.17,-2.36 0.76,-2.62 0.68,-5.35 0.35,-1.06 0.48,-1.4 0.54,-0.58 1.22,-0.33 0.41,-0.4 0.43,-0.56 2.59,-2.39 0.46,0.19 0.42,0.52 0.59,0.33 0.84,-0.21 0.28,-0.63 0.25,-0.78 2.3,-1.96 0.27,-1.82 -0.04,-2 0.59,-1.93 0.8,-0.79 0.72,-0.1 0.54,0.5 0.27,0.96 0.57,0.88 1.21,0.31 2.56,0.17 1.45,0.53 0.75,0.42 0.37,0.44 0.24,1 0.38,0.97 0.63,0.74 1.01,0.35 0.76,-0.42 2.91,-2.89 1.1,-0.67 0.64,-0.52 0.46,-0.73 0.5,-1.32 0.65,0.36 0.63,0.11 1.41,0.08 2.72,0.73 0.83,0.1 1.73,-0.48 1.69,-0.87 1.55,-0.3 1.62,1.59 0.41,0.01 0.43,-0.06 0.42,0.15 0.22,0.31 0.22,0.77 1.55,2.61 0.6,0.28 0.63,0.08 0.63,-0.19 1.49,-1.54 0.65,0.03 0.69,0.27 1.06,-0.28 0.5,-0.48 -0.14,-0.39 -0.3,-0.44 -0.03,-0.63 0.48,-0.87 1.28,-1.27 0.41,-0.76 0.67,0.08 2.64,3.84 0.81,0.06 1.54,-0.79 1.59,0.62 1.17,-0.03 1.15,-0.34 1.91,-1.62 1.08,0.14 2.22,1.57 2.33,0.51 4.76,-0.9 h 2.5 l 3.41,0.93 11.16,-0.21 0.59,-0.32 0.97,-0.89 0.75,-0.18 0.87,0.16 0.47,0.41 0.35,0.57 0.49,0.63 2.23,1.56 4.91,2.52 3.42,3.6 1.43,0.88 1.67,0.46 2.08,0.33 0.98,0.04 1.67,-0.12 0.98,0.38 0.54,0.48 2.5,-1 0.52,-0.08 0.61,0.06 -0.41,-0.5 -1.07,-1.03 -0.23,-0.31 0.19,-0.51 0.37,-0.42 0.3,-0.53 0.4,-0.39 1.26,-0.85 0.52,-0.57 0.28,-0.69 -0.09,-0.77 -0.92,-0.86 -0.22,-0.64 V 385 l -0.28,-0.65 -1.16,-0.7 -0.23,-0.53 0.53,-0.67 1.19,-1.03 1.32,-0.86 0.92,-0.1 0.96,1.15 0.55,1.16 0.69,1.08 1.34,0.93 0.54,0.17 1.52,0.28 1.89,0.75 0.82,0.08 0.23,0.26 0.41,1.14 0.22,0.26 0.53,0.09 0.51,0.23 0.85,0.5 2.34,2.16 0.74,0.32 1.01,0.16 3.73,1.09 1.33,-0.03 8.03,-4.06 1.44,-0.46 4.92,-0.45 5.49,-1.54 0.46,-0.31 0.8,-1.05 0.94,0.66 1.4,0.25 2.62,-0.05 1.16,-0.18 1.95,-0.56 1.03,-0.12 2.38,0.09 0.86,-0.22 0.93,-0.67 0.64,-0.6 0.6,-0.78 0.28,-0.9 -0.32,-1.02 0.94,0.22 0.6,0.29 0.53,0.08 0.67,-0.4 0.51,-0.65 -0.03,-0.45 -2.4,-2.59 -0.7,-1.13 0.34,-0.83 -0.74,-0.28 -1.47,-0.21 -0.68,-0.34 -1.74,1.29 -1.12,0.56 -0.5,-0.36 -0.37,-0.5 -0.74,-0.58 -0.54,-0.67 0.24,-0.77 0.67,-0.78 0.31,-0.75 -0.12,-0.76 -0.65,-0.82 -0.87,-0.54 -1.08,-0.29 -0.83,0.22 -0.15,1.03 -1.05,-0.44 -0.43,-0.26 -0.38,-0.34 -0.27,-0.42 -0.49,-1.11 -0.28,-0.36 -0.47,-0.2 -1.27,-0.17 -0.56,-0.01 -0.55,-0.16 -0.51,-0.39 -0.78,-0.73 -2.1,-1.53 -1.89,-1.73 -1.66,-1.97 -1.46,-2.22 -0.67,-1.76 -0.36,-0.54 -0.4,-0.35 -1.55,-1.01 -0.41,-0.13 -0.25,-0.25 -0.08,-0.74 0.17,-0.64 0.45,-0.48 1.03,-0.76 3.4,-3.82 2.17,-1.29 2.34,0.56 -0.1,-0.8 0.12,-0.6 0.31,-0.22 0.49,0.34 1.87,-1.59 1.3,-0.83 0.59,0.18 0.57,-0.31 1.25,0.37 1.91,0.98 2.07,2.42 1.1,1.87 0.34,0.44 0.79,0.56 0.59,0.02 1.31,-0.8 1.79,-1.4 0.73,-0.25 0.77,-0.02 1.26,0.37 1.74,0.27 1.9,0.81 0.95,0.22 1.27,-0.14 1.51,-0.44 1.42,-0.62 2.17,-1.33 11.31,-3.27 11.08,-4.01 2.4,-1.36 2.94,-3.2 1.39,-1.19 0.14,-1.53 -0.3,-2.81 0.12,-1.04 0.58,-2.01 0.13,-1.31 -0.23,-1.01 -0.56,-0.79 -1.32,-1.29 -1.44,-1.96 -0.89,-0.94 -0.94,-0.45 -1.55,0.23 -4.73,2.25 -1.82,-0.06 -2.87,-1.51 -1.48,-0.04 -0.79,0.5 0.15,0.52 0.36,0.64 -0.18,0.82 -0.72,0.43 -0.98,-0.01 -0.95,-0.33 -0.66,-0.54 1.08,-0.6 -0.23,-1.28 -1.03,-1.27 -1.26,-0.58 -1.12,-0.32 -2.86,-2.16 0.03,0.62 -0.11,0.4 -0.25,0.3 -0.46,0.34 -0.38,-1.47 -0.78,-1.2 -1.2,-0.8 -1.6,-0.3 -1.05,-0.46 -1.17,-1.09 -2.85,-3.47 -1.17,-0.81 -1.33,-0.01 -1.58,1.08 -0.24,0.65 0.1,1.62 -0.29,0.61 -0.45,0.52 -0.38,0.69 -0.6,1.54 h -0.42 l -0.39,-1.27 0.19,-1.28 0.4,-1.31 0.59,-3.44 0.2,-0.22 0.42,-0.22 0.44,-0.35 0.23,-0.6 -0.34,-0.78 -0.9,-0.58 -1.05,-0.49 -0.84,-0.5 -2.12,-1.74 -6.21,-3.6 -1.2,-0.29 -0.38,-0.18 -0.56,-0.36 -0.61,-0.24 -0.52,0.18 -0.66,0.75 -0.31,0.25 -0.3,-0.09 -3.15,-1.66 -1.3,-0.28 -2.51,1.11 -2.7,0.26 -0.94,0.72 -0.09,0.64 0.48,1.11 -0.16,0.5 -0.39,0.44 -0.26,0.41 -0.41,1.07 0.27,0.63 v 0.54 l -0.48,0.68 -0.58,0.26 -0.45,-0.23 -0.62,-0.88 -0.6,-0.28 -0.63,0.13 -0.58,0.25 -0.47,0.1 -0.56,-0.2 -0.41,-0.52 -0.49,-0.1 -1.02,0.24 -2.42,1.11 -0.93,0.3 -0.73,0.15 -0.35,0.14 -0.27,-0.06 -0.51,-0.41 -1.81,-4.71 -0.26,-0.45 -0.57,-0.33 0.12,-0.74 0.65,-0.74 1.02,-0.33 3.76,0.33 1.02,-0.33 1.13,0.4 1.42,-0.07 1.35,-0.39 0.9,-0.53 1.77,-2.41 -0.04,-0.39 -0.34,-0.3 -2.53,-3.41 -0.31,-1.41 0.09,-1.24 -0.16,-0.73 -1.04,-0.54 -0.08,-0.55 0.05,-0.67 -0.14,-0.59 -2.07,-2.11 -0.86,-0.22 -0.43,0.17 -0.25,0.3 -1.08,0.55 -1.97,2.55 -1.65,1.16 -0.83,0.76 -0.38,0.77 -0.6,0.4 -2.87,0.56 -1.08,0.07 -0.87,-0.13 -0.72,-0.22 -0.63,-0.03 -0.64,0.38 0.52,1.51 -0.36,0.69 -1.07,0.11 -3.01,-0.33 -4.05,0.51 -4.29,0.02 -1.55,0.39 -3.47,1.49 -1.08,0.2 1.46,-1.58 7.69,-2.6 2.12,-1.28 0.87,-0.85 0.35,-0.99 -0.39,-1.48 -0.86,-0.39 -0.86,-0.22 -0.4,-0.99 0.16,-0.74 0.46,-0.26 0.56,-0.18 0.5,-0.52 0.27,-0.73 -0.02,-0.5 -0.16,-0.46 -0.09,-0.6 -0.19,-0.34 -0.89,-0.38 -0.98,-2.36 -1.3,-1.54 -0.32,-0.97 0.54,-1.03 1.75,-1.56 1.1,-0.74 1.12,-0.37 2.01,0.37 0.91,-0.11 0.4,-0.9 0.56,-4.01 -0.62,-1.62 0.27,-0.56 0.42,-0.54 0.23,-0.57 -0.11,-0.41 -0.56,-1.06 -0.19,-0.56 -0.08,-0.69 v -0.54 l -0.07,-0.45 -0.28,-0.43 -0.37,-0.29 -0.34,-0.05 -0.3,0.23 -0.22,0.52 h -0.42 l -0.6,-1.31 -0.65,-0.96 -1.45,-1.68 -0.6,-0.31 -0.64,0.11 -0.85,0.43 -0.78,-0.12 -0.59,-0.29 -0.91,-0.83 -0.25,-0.1 -0.77,-0.21 -0.22,-0.1 -0.05,-0.29 0.07,-0.39 0.16,-0.27 0.23,0.08 -1.4,-1.41 -0.26,-0.04 -0.03,-1.66 -0.2,-0.93 h -0.5 l -0.95,1.14 -1.45,2.41 -0.67,0.67 -0.99,0.23 -0.99,-0.33 -1.05,-0.76 -1.51,-1.39 -1.32,-1.51 -0.81,-0.71 -0.94,-0.3 -2.45,0.08 -0.79,-0.46 -0.69,-1.28 -0.25,-0.97 -0.16,-3.77 -0.35,-1.09 -2.18,-2.85 -0.34,-1.02 -0.12,-1.25 0.27,-1.05 0.84,-0.45 0.26,-0.6 0.39,-2.91 -0.05,-1.04 -0.25,-0.47 -0.34,-0.29 -3.14,-1.9 -0.2,-0.24 -0.5,-0.12 -1.54,-0.66 -0.47,-0.27 -0.39,-0.04 -0.92,0.8 -0.53,0.29 -0.47,-0.09 -0.69,-0.26 -0.72,-0.19 -0.64,0.13 -0.24,0.42 -0.12,0.69 0.12,0.64 0.46,0.28 0.24,0.2 -0.16,0.44 -0.4,0.44 -0.52,0.2 -0.75,-0.15 -0.56,-0.2 -0.48,0.07 -0.49,0.69 -0.07,1.29 1.36,2.65 0.37,1.25 -0.33,0.9 -2.19,2.23 -0.83,1.65 -0.43,0.34 -0.4,0.12 -0.29,0.25 -0.24,2.1 -0.39,0.74 -1.98,1.42 -2.69,2.58 -0.83,0.35 -0.61,0.49 -0.73,1.08 -0.94,1.12 -1.27,0.62 -2.46,-0.6 -0.33,-2.11 0.87,-2.62 1.09,-2.11 2.01,-2.89 0.65,-1.59 0.24,-2.39 -0.38,-1.25 -0.86,-0.54 -0.96,-0.33 -0.7,-0.61 0.03,-0.36 0.39,-1.89 0.29,-0.25 0.65,0.2 1.13,0.64 -0.83,-4.36 -0.37,-0.67 -2.5,-1.62 -0.62,-1.38 -0.2,-0.24 -0.69,0.1 -0.66,0.38 -0.52,0.51 -0.33,0.72 -0.65,0.98 -0.25,0.21 -0.44,0.21 -0.14,0.53 -0.07,1.33 -0.58,2.39 -0.51,0.94 -1.71,0.81 -0.21,1.02 0.1,2.32 -0.25,0.62 -0.74,1.01 -0.25,0.48 -0.1,0.62 0.1,2.05 -0.12,1.55 -0.36,1.07 -0.63,0.84 -0.92,0.87 -3.75,5.01 -1.07,0.82 -0.8,0.37 -0.46,0.91 -0.2,1.16 -0.01,0.15 -0.03,0.94 -0.36,1.3 -0.91,0.66 -1.14,0.51 -1.09,0.85 -0.91,0.91 -5.38,4.08 -0.56,0.65 -0.31,0.5 -0.17,0.38 -0.52,1.94 0.01,0.34 -0.13,0.2 -0.57,0.36 -1.21,-0.07 -0.45,0.07 -0.25,0.21 -0.95,1.04 -1.65,0.86 v 0.38 l 1.53,-0.18 1.16,-0.56 0.74,0.17 0.25,2.01 -0.32,0.6 -0.76,-0.14 -0.91,-0.42 -0.72,-0.24 -1.02,0.14 -0.77,0.38 -1.29,1.17 -2.87,4.29 -1.07,0.68 -1.84,0.58 -0.61,1.13 0.48,0.79 1.36,-0.47 0.94,1.78 -0.85,2.63 -3.72,6.01 -0.37,1.17 -0.18,2.8 -0.39,1.38 -0.95,1.05 -5.45,3.04 -0.89,0.72 -0.65,0.98 -0.35,1.17 -0.46,2.66 -0.75,2.45 -1.2,2.66 -1.56,2.38 -1.87,1.62 -1.61,0.51 -1.75,0.11 -5.35,-0.38 -1.26,-0.56 -2.07,-1.79 -0.28,0.66 -0.27,1.64 -0.32,0.63 -1.24,-1.74 2.09,-3.9 -0.85,-1.39 -1.18,1.19 -2.13,4.6 -4.28,3.06 -0.68,0.91 -0.72,1.24 -3.16,1.84 -0.71,0.65 -0.19,0.46 -0.43,0.63 -0.43,0.8 -0.4,1.98 -0.37,0.94 -0.18,0.86 0.34,0.74 1.19,-1.03 0.26,-0.13 0.64,0.14 0.04,0.39 -0.13,0.52 0.15,0.56 5.4,4.67 2.06,0.86 2.25,0.06 2.29,-1.07 0.4,0.81 -0.24,0.46 -0.53,0.35 -0.5,0.52 -0.66,1.24 -0.13,0.58 -0.09,2.21 -0.41,2.45 -0.37,0.97 -0.56,0.69 -0.97,0.68 -1.16,0.53 -1.23,0.21 -0.76,0.39 -1.94,2.47 -2.41,2.12 -0.27,0.36 -2.01,2.03 -0.72,0.49 -0.98,0.18 -1.25,-0.02 -1.07,-0.37 -0.65,-1.18 -0.48,-0.34 -0.61,-0.24 -0.59,-0.1 -1.31,0.09 -0.32,-0.12 -0.19,-0.42 -0.68,-0.85 -0.83,-0.08 -0.71,0.54 -0.57,2.02 -0.68,0.45 -0.94,0.12 z"
       id="path865"
       style="fill:#000000;fill-opacity:1" />
    <path
       d="m 1130.84,293.81 -1.6,0.05 -0.74,0.21 -0.67,0.46 -0.37,0.56 0.11,0.42 0.42,0.28 0.57,0.16 0.44,0.03 0.38,-0.03 1.07,-0.39 0.39,-0.06 0.68,-0.26 0.32,-0.58 -0.18,-0.58 z"
       id="path867"
       style="fill:#000000;fill-opacity:1" />
    <path
       d="m 718.18,503.8 -1.27,-3.52 -0.52,-4.5 -0.05,-10.58 -0.65,-2.53 -1.24,-1.92 -2.09,-0.8 -0.88,1.93 -0.11,3.03 1.13,10.06 -0.12,2.45 -0.46,2.68 0.28,1.26 1.17,0.54 0.64,0.52 1,2.47 0.65,0.8 0.27,-0.56 0.46,-0.53 0.55,-0.26 0.6,0.26 0.58,0.34 0.18,-0.36 -0.06,-0.56 z"
       id="path869"
       style="fill:#000000;fill-opacity:1" />
    <path
       d="m 282.45,479.89 -0.73,-2.57 -0.38,-0.79 -0.77,-1.17 -0.16,-0.44 -0.08,-0.74 -0.09,-0.34 -0.29,-0.27 -0.65,-0.08 -0.53,0.38 -0.36,0.62 -0.13,0.64 0.15,0.99 0.24,0.91 v 0.9 l -0.58,0.94 -0.39,0.29 -0.77,0.39 -0.28,0.34 -0.07,0.51 0.3,1.03 -0.04,0.34 0.03,0.53 0.48,0.74 1.15,1.23 0.89,0.33 1.21,-0.07 1.13,-0.37 0.72,-0.55 0.15,-0.71 z"
       id="path871"
       style="fill:#000000;fill-opacity:1" />
    <path
       d="m 1161.55,376.46 -3.1,-0.39 -0.87,0.01 h -0.16 l -0.63,0.01 -0.22,0.17 0.21,0.65 0.22,0.33 0.73,0.6 0.29,0.32 0.07,1.26 v 0.2 l 0.34,0.2 0.42,-0.03 0.86,-0.84 h 2.26 l 1.39,-0.39 0.24,-0.85 -0.68,-0.86 z"
       id="path873"
       style="fill:#000000;fill-opacity:1" />
    <path
       d="m 1148.46,366.95 -1.04,-0.79 -0.48,-1.06 -0.55,-0.87 -1.2,-0.21 -0.44,0.24 -0.35,0.43 -0.42,0.42 -0.67,0.18 h -4.78 v 0.38 l 4.14,1.28 2.07,0.38 0.29,0.19 0.54,0.52 0.24,0.11 0.82,0.07 0.94,0.24 0.99,0.46 0.94,0.71 0.47,0.2 0.27,-0.4 0.2,-0.55 0.31,-0.28 0.3,0.17 1.17,1.07 -0.08,-0.9 0.27,-0.69 0.57,-0.4 0.9,-0.07 v -0.45 l -1.33,-0.76 -1.71,-0.61 -1.56,-0.03 z"
       id="path875"
       style="fill:#000000;fill-opacity:1" />
    <path
       d="m 950.76,323.51 -0.42,-1.33 -0.94,0.39 -1.75,1.6 -0.49,0.6 -1.71,4.71 -0.11,0.9 1.52,-0.9 1.21,-1 0.49,-0.09 1.19,0.72 0.59,0.03 1.07,-1.13 0.03,-1.46 z"
       id="path877"
       style="fill:#000000;fill-opacity:1" />
    <path
       d="m 45.28,318.34 -1,-0.71 -1.16,-0.36 -1.24,-0.04 -1.15,0.28 -0.33,0.28 -0.29,0.42 -0.36,0.38 -0.48,0.16 -0.57,-0.27 -0.25,-0.53 -0.3,-0.35 -0.77,0.29 0.39,0.43 -0.04,0.42 -0.22,0.46 -0.13,0.59 0.13,0.28 0.29,0.37 0.28,0.47 0.13,0.55 -0.12,2.84 0.3,3.18 -0.21,0.85 -0.83,0.49 0.07,0.28 0.26,0.29 0.32,0.12 0.18,-0.07 0.06,-0.15 0.08,-0.13 2.41,-0.02 3.28,0.6 0.21,-1.07 1.48,-2.8 0.25,-1.09 0.27,-2.35 1.1,-2.08 -0.57,-0.56 -0.94,-0.51 z"
       id="path879"
       style="fill:#000000;fill-opacity:1" />
    <path
       d="m 13.55,270.4 -1.15,1.09 0.45,1.2 0.56,0.17 0.34,0.93 0.97,0.85 0.69,-0.29 0.57,-0.85 0.23,-0.92 -0.39,-1.04 -0.03,-0.98 0.1,-0.39 v -0.74 l 0.45,-0.68 0.45,-0.51 -0.17,-1.02 -0.79,0.73 -1.42,0.57 z"
       id="path881"
       style="fill:#000000;fill-opacity:1" />
    <path
       d="m 20.48,262.97 0.51,-0.83 0.26,-0.74 -0.52,-0.46 -0.43,-0.26 0.08,-0.5 -1.25,-0.57 -0.72,-0.6 -0.46,-0.86 -0.47,-1.32 -0.55,-0.24 -0.56,-0.08 0.1,0.46 0.29,0.51 -0.93,0.02 -0.58,0.03 -0.73,1.09 -0.99,0.8 -0.91,0.18 -2.09,-0.25 -0.91,-0.61 -1.98,-0.07 -1.17,0.51 -1.47,-0.54 0.05,2.52 0.24,1.06 0.53,0.85 1.1,-0.08 1.57,0.33 0.98,0.32 0.19,1.56 -0.4,1.06 0.8,2.94 0.48,-0.18 0.75,-0.34 0.77,-0.77 0.99,-0.01 0.83,-0.94 0.94,-1.15 1.1,-0.4 1.16,-0.04 0.3,1.46 0.98,0.61 0.29,-0.87 0.77,-0.47 0.52,-0.56 0.87,-0.25 0.62,-0.33 -0.11,-0.5 -0.22,-0.54 z"
       id="path883"
       style="fill:#000000;fill-opacity:1" />
    <path
       d="m 1085.33,238.58 -0.98,0.6 -2.48,0.33 -0.71,0.73 0.22,0.82 2.17,0.11 0.54,0.54 -0.27,1 -0.71,0.56 -0.96,0.25 -3.07,0.13 -0.64,0.21 -0.55,0.44 -0.15,0.53 0.21,0.52 0.56,0.43 1.54,0.52 1.86,0.27 1.86,-0.05 1.56,-0.45 2.3,-1.84 0.25,-1.87 -1.02,-1.88 z"
       id="path885"
       style="fill:#000000;fill-opacity:1" />
    <path
       d="m 1057.08,202.88 -2.48,2.9 -0.83,0.36 -2.04,0.48 -0.86,0.4 -2.93,5.41 0.63,0.24 0.88,0.1 0.86,-0.07 0.56,-0.27 0.3,-0.65 -0.33,-0.35 -0.52,-0.32 -0.28,-0.57 5.8,-1.45 -0.65,-1.1 0.32,-1.14 0.9,-0.42 1.12,1.04 0.62,-0.89 0.15,-1.47 -0.36,-1.44 z"
       id="path887"
       style="fill:#000000;fill-opacity:1" />
    <path
       d="m 1067.29,203.67 -0.81,0.12 -0.76,0.31 -1.35,0.94 -1.46,1.47 -0.59,0.33 -0.96,0.33 -0.34,0.3 -0.21,0.56 0.06,2.69 -0.24,0.44 -0.29,0.98 0.47,4.62 0.45,1.47 0.65,-0.5 0.34,-0.61 0.25,-0.68 0.41,-0.7 0.56,-0.37 1.62,-0.75 0.34,-0.34 0.75,-0.33 3.53,-0.69 1.13,-0.45 1.06,0.53 0.92,-1.14 0.67,-1.82 0.6,-4.66 -0.08,-1.42 -0.72,-1.01 -1.44,-0.41 z"
       id="path889"
       style="fill:#000000;fill-opacity:1" />
    <path
       d="m 103.55,464.07 -0.5,-0.59 -1.12,0.44 -0.45,0.85 0.42,0.53 0.95,-0.24 0.47,-0.31 z"
       id="path891"
       style="fill:#000000;fill-opacity:1" />
    <path
       d="m 107.58,463.75 -0.09,-0.8 -0.77,-0.37 -1.06,0.43 -0.82,1.28 -1.47,3.68 -0.11,0.65 0.11,0.38 0.45,-0.15 0.35,-0.29 0.36,-0.35 0.91,-0.63 1.16,-0.46 0.84,-0.78 0.16,-1.38 -0.09,-0.78 z"
       id="path893"
       style="fill:#000000;fill-opacity:1" />
  </g>
</svg>
