<?xml version="1.0" encoding="UTF-8" standalone="no"?>
<svg
   xmlns:dc="http://purl.org/dc/elements/1.1/"
   xmlns:cc="http://creativecommons.org/ns#"
   xmlns:rdf="http://www.w3.org/1999/02/22-rdf-syntax-ns#"
   xmlns:svg="http://www.w3.org/2000/svg"
   xmlns="http://www.w3.org/2000/svg"
   xmlns:sodipodi="http://sodipodi.sourceforge.net/DTD/sodipodi-0.dtd"
   xmlns:inkscape="http://www.inkscape.org/namespaces/inkscape"
   version="1.0"
   width="1024.000000pt"
   height="1024.000000pt"
   viewBox="0 0 1024.000000 1024.000000"
   preserveAspectRatio="xMidYMid meet"
   id="svg8"
   sodipodi:docname="ss.svg"
   inkscape:version="1.0.1 (3bc2e813f5, 2020-09-07)">
  <defs
     id="defs12" />
  <sodipodi:namedview
     pagecolor="#ffffff"
     bordercolor="#666666"
     borderopacity="1"
     objecttolerance="10"
     gridtolerance="10"
     guidetolerance="10"
     inkscape:pageopacity="0"
     inkscape:pageshadow="2"
     inkscape:window-width="1920"
     inkscape:window-height="974"
     id="namedview10"
     showgrid="false"
     inkscape:zoom="0.55286249"
     inkscape:cx="682.66667"
     inkscape:cy="465.6145"
     inkscape:window-x="-11"
     inkscape:window-y="-11"
     inkscape:window-maximized="1"
     inkscape:current-layer="svg8" />
  <metadata
     id="metadata2">
Created by potrace 1.10, written by Peter Selinger 2001-2011
<rdf:RDF>
  <cc:Work
     rdf:about="">
    <dc:format>image/svg+xml</dc:format>
    <dc:type
       rdf:resource="http://purl.org/dc/dcmitype/StillImage" />
  </cc:Work>
</rdf:RDF>
</metadata>
  <path
     d="m 1023.1623,791.97332 -11.8167,-12.55399 -2.1258,-3.60054 -0.7278,-4.21339 0.3735,-18.12716 0.4405,-1.12038 3.3132,-4.18467 0.7086,-1.74281 -0.019,-1.78111 -0.7757,-2.07797 -1.714,-3.28453 -0.2682,-1.68536 0.5746,-2.02051 2.3557,-3.39944 -0.431,-0.77565 -4.7496,-1.829 -5.6976,-3.51435 -2.2025,-0.58413 -1.59921,0.37346 -1.5513,0.71819 -2.0588,0.4405 -2.1067,-0.57456 -3.7346,-3.0164 -1.9726,-1.14911 -1.5513,-0.40219 -1.8099,-0.2394 h -1.8289 l -1.5609,0.30643 -1.9056,1.2736 -3.5335,3.85908 -1.9535,1.35978 -2.0971,0.316 -1.5896,-0.74692 -1.2928,-1.45553 -2.844,-4.4911 -0.3447,-0.7948 0.096,-1.06292 0.6225,-0.93844 0.7469,-0.90013 0.5266,-0.97674 -0.383,-1.0342 -0.632,-1.74281 -3.342,-2.7004 -6.9425,-4.04103 -3.8687,-2.84404 -0.9097,-1.67578 -0.7469,-5.02734 -1.2449,-2.31737 -7.0095,-9.9302 -0.8618,-1.91517 -0.1533,-1.13953 0.1628,-0.94802 0.2777,-0.99589 0.182,-1.22571 -0.2682,-0.97675 -1.4172,-1.53214 -0.4405,-0.93844 0.038,-1.00546 0.2969,-0.98632 0.9193,-1.829 -0.1628,-0.99589 -0.7374,-4.64431 -0.6894,-1.68535 -1.4747,-1.83857 -1.6375,-1.50342 -1.446,-1.64705 -1.6374,-4.24212 -3.0547,-5.29547 -0.431,-1.73324 -0.067,-5.10395 -0.5554,-2.25033 -3.4569,-5.90832 -0.7373,-1.74282 -0.7086,-4.99861 -1.9248,-4.94116 -0.8906,-3.50478 -0.8714,-3.5335 -0.6032,-0.37346 -1.0438,-1.18741 -0.4214,-1.5896 -0.5362,-0.94801 -5.8892,-3.89739 -1.4842,-0.58413 -1.8865,-0.22982 h -3.7059 l -1.5321,-0.33516 -0.9959,-0.84268 -0.5937,-3.55265 -0.1053,-0.37346 -0.3926,-0.88098 -0.096,-0.52668 0.1915,-0.0868 0.8044,-0.5554 0.1915,-0.24897 -0.1245,-1.69494 -0.3734,-1.51299 -0.5842,-1.32147 -0.7469,-1.13953 -5.5923,-3.88781 -12.27631,-2.92065 -0.26812,-0.316 -0.59371,-0.26813 -0.60328,-0.42134 -0.43091,-1.49384 -0.42134,-0.52667 -3.55266,-2.59507 -0.86183,-1.10123 -0.53625,-0.50752 -0.67031,-0.22024 -0.67031,-0.86183 -0.22025,-1.95349 v -0.93843 -2.70998 l -0.42134,-1.78112 -0.82352,-1.53214 -1.17784,-0.70861 -1.44596,0.68946 -1.61832,0.35431 -1.66621,-1.22572 -2.36524,-2.94937 -3.98357,-3.09301 -0.55541,-0.25855 -0.21067,-0.45007 -0.0479,-8.09163 -0.60328,-2.92064 -1.48426,-2.3844 -10.7633,-10.93567 -2.58549,-1.51299 -0.90971,-0.21067 -1.79069,-0.21067 -0.86183,-0.22982 -4.36661,-3.2175 -2.74828,-3.8112 -1.15868,-1.30233 -0.82353,-0.41176 -2.72913,-0.77565 -2.36524,-1.54171 -0.91929,-0.2394 -5.62105,0.53625 -1.85772,-0.53625 -0.90971,-0.65116 -1.20656,-1.58002 -0.84268,-0.77565 -0.86183,-0.42134 -1.5896,-0.45964 -0.77565,-0.60328 -1.49383,-0.54586 -2.24076,0.0766 -3.74418,0.7661 -0.76607,0.37346 -2.13542,1.39808 -1.10123,0.0294 -4.81667,-1.22571 -1.56087,-1.39811 -1.36936,-1.58002 -1.33104,-1.1491 -0.73735,-0.21067 -2.81531,-0.43092 -2.47058,-0.99589 -0.72777,-0.13406 -2.80573,0.62243 -0.45007,0.21067 -0.52667,0.71819 -1.15869,-0.17237 -1.91518,-0.84267 -2.35566,-0.25855 -0.60329,-0.2777 -0.316,-0.52668 -0.25855,-0.7948 -0.34473,-0.73734 -1.49384,-0.88098 -0.73734,-1.3502 -2.18331,-5.77427 0.32558,-0.94801 1.14911,-1.23529 0.067,-0.14364 0.38304,-0.80437 0.41176,-0.43092 0.42134,-0.60328 0.39261,-1.81942 0.43092,-0.8714 1.10122,-1.48427 4.92201,-4.98904 0.5171,-0.82352 0.42134,-0.88099 0.17237,-0.72776 0.36388,-0.44049 2.59507,-0.43092 1.49383,-0.68946 1.08208,-0.87141 0.68946,-1.21614 0.22983,-1.71408 -0.26813,-0.45964 -1.18741,-0.84268 -0.26812,-0.46922 0.0287,-1.21614 0.14364,-0.88098 0.35431,-0.78523 0.66074,-0.96716 0.76607,-0.57455 0.81395,-0.2777 0.61285,-0.45007 0.11492,-1.12038 -1.15869,-0.4788 -0.7948,-0.45964 -0.63201,-0.96716 -0.61285,-0.64159 -0.60328,-0.84268 -0.2777,-1.02462 0.16279,-0.64158 0.75649,-1.63748 0.19152,-1.05335 -0.14364,-0.29685 -0.78522,-0.56498 -0.18194,-0.26812 0.0575,-0.46922 0.43092,-0.58413 0.0958,-0.40219 -0.009,-1.46511 0.14364,-0.66073 0.39261,-0.61286 1.19698,-0.57456 1.3119,-0.25854 0.64159,-0.58413 -0.25855,-0.49795 -0.0862,-0.34473 2.48974,-2.17373 1.53214,-0.22025 9.4131,2.0684 0.82353,-0.26813 1.18741,-0.91928 0.65116,-0.33516 0.69904,-0.067 1.12995,0.24897 5.8413,-0.68946 0.81395,-0.45007 0.0383,-0.316 -0.48837,-0.65116 1.77154,-0.0766 1.45553,0.8331 1.3119,1.05335 1.30232,0.54583 1.64706,-0.2777 1.23529,-0.69905 1.27359,-0.50752 1.76196,0.28728 2.70998,2.26949 1.70451,2.96852 2.1067,2.37482 3.93569,0.49795 0.94801,-0.14364 0.37346,-0.11491 3.59096,-3.07386 0.90971,-0.61286 1.3885,-0.5937 1.44596,-0.39261 2.9781,-0.34474 4.90286,-0.009 1.60875,-0.4405 1.77154,-1.05334 8.57042,-7.65114 1.79069,-1.99179 1.12038,-1.97263 0.35431,-1.92475 0.40219,-2.17373 -1.25444,-25.07926 -1.24487,-25.07926 -1.0725,-21.62236 -14.72772,-0.067 -0.26812,-0.10534 -0.24898,-0.25855 -0.24897,-0.41176 -0.28728,-0.56498 -0.63201,-2.461 -0.316,-3.83993 0.53625,-6.62652 1.81942,-7.87138 5.56359,-11.06972 0.28728,-0.90971 0.0766,-0.5171 v -0.60328 l -0.5171,-1.97263 -0.65116,-1.70451 -0.32558,-2.58549 0.97674,-5.74554 0.0862,-1.78111 -0.13406,-2.28864 -0.43092,-1.45554 -3.88781,-9.57589 -1.28317,-1.52256 -18.77832,-15.2544 -18.77832,-15.24482 -6.85634,-8.27357 -0.73734,-0.56497 -0.92887,-0.44049 -19.0656,-6.94253 -0.92886,-0.69904 0.12449,-1.02462 0.59371,-1.31189 2.28863,-4.01231 0.31601,-1.06293 0.32558,-1.61832 -4.29958,-32.13669 -4.29957,-32.1367 0.0287,-1.26401 0.39261,-0.84268 0.316,-0.5171 1.13953,-1.36935 0.99589,-1.41723 1.12996,-2.47058 0.28728,-0.92886 1.17783,-11.4815 -0.0862,-10.06426 5.02734,-16.76737 0.54583,-7.13404 -41.39658,-0.49795 -0.25855,0.36389 -0.0192,0.44049 0.0958,0.50752 0.067,0.53625 -0.0287,1.12038 -0.33516,2.07797 -0.0862,1.10122 0.0383,1.12038 0.632,4.02188 1.09166,3.0164 0.17236,1.00547 0.0575,1.10123 -0.13407,2.08753 -28.80428,0.12449 -28.80428,0.13406 22.80978,25.20375 0.26812,0.50752 0.40219,1.36935 0.16279,1.00547 0.43091,8.86727 -1.22571,14.03826 0.25855,9.02049 1.34062,5.85087 6.17645,11.52937 -0.41176,2.15458 -1.43638,2.71955 -20.42538,17.13127 -20.42537,17.14086 -1.12996,1.60875 -5.69766,14.28723 -5.39122,8.32145 -2.40355,2.37482 -9.48971,11.66343 -18.63468,18.28996 -18.64426,18.28993 -6.09985,2.45143 -18.56765,1.00547 h -0.0287 l -9.79613,0.26813 -1.11081,0.2777 -1.67576,0.62243 -1.01505,0.94801 -1.21614,0.70862 -1.18741,-0.38304 -1.3885,-0.99589 -22.95341,-20.48282 -20.44453,-12.93703 -20.43495,-12.93703 -3.91654,2.35567 -23.13535,11.12719 -4.77837,2.88234 -2.64295,2.03967 -0.13406,12.45823 -4.03145,6.33924 -7.30641,6.90421 -20.00403,4.38575 -10.40899,3.76333 -10.64839,5.59232 -1.73323,1.39808 -6.54991,5.03692 -5.59232,5.46783 -1.79069,3.33241 -0.11491,3.68672 0.3543,3.09301 1.0725,2.145 h -0.11491 l -34.56896,-0.29685 -34.5594,-0.29685 -4.16551,-4.64431 -8.84812,-18.24207 -0.89056,0.34473 -1.42681,0.24897 -8.56084,0.45007 -11.09846,-1.60875 -0.48837,0.0479 -1.80985,0.47879 -0.49794,0.0575 -7.03828,-0.88098 -12.40078,0.0479 -3.974,-0.69904 -22.43631,0.5171 -33.47731,11.26124 -0.92887,0.0862 -5.01776,-0.40219 -2.15458,-0.98632 -3.8112,-2.47058 -16.3652,-19.00814 -16.35564,-19.00813 -6.66482,-2.49931 -0.0192,-0.0287 -1.22571,-1.27359 -1.02462,-1.28317 -5.18056,-8.42678 -0.50752,-0.67989 -0.30643,-0.28728 -0.5554,-0.44049 -0.2394,-0.11491 -2.35567,-0.67989 -1.32147,-0.57455 -3.12174,-1.81942 -0.67031,-0.54583 -0.56498,-0.61286 -0.22982,-0.37346 -0.16279,-0.47879 -0.5171,-13.41582 -0.11491,-0.4788 -0.17237,-0.40219 -0.44049,-0.71819 -3.77289,-4.6443 -0.316,-0.2394 -0.94801,0.0958 -3.86866,1.00547 -1.81942,0.88098 -0.76608,0.21067 -0.69904,0.0766 -3.48562,-0.13406 -0.49795,0.0862 -1.36935,0.37345 -1.98221,0.31601 -2.79616,0.0287 -0.49794,0.0766 -3.72503,0.90971 -6.40627,2.23119 -0.26812,0.0383 -1.08208,0.30643 -0.98631,0.15321 -3.48563,-0.11491 -1.04377,0.0862 -0.98632,0.18194 -1.29274,0.44049 -0.82353,0.37346 -0.88098,0.2777 -1.0342,0.10533 -0.5554,0.009 -1.02462,0.11491 -0.44049,0.13406 -1.61833,0.7565 -0.46922,0.0766 -0.49794,0.0102 -0.94802,-0.13406 -0.47879,0.0383 -0.8331,0.30643 -0.46922,0.11491 -0.52667,-0.0191 -0.50753,-0.0862 -0.497939,-0.15322 -0.88099,-0.38303 -0.46921,-0.15322 -1.0342,-0.18194 -0.59371,0.067 -0.61285,0.14364 -0.78523,0.316 -0.57455,0.0766 -1.01504,-0.12449 -0.49795,0.0102 -2.09712,0.80437 -0.99589,0.16279 -2.22161,-0.17236 -0.92886,0.19152 -1.26402,0.49794 -1.35978,0.39261 -0.53625,0.22025 -0.61285,0.5554 -0.86183,1.0342 -4.33788,9.26946 -0.22982,0.91929 -0.067,0.71819 0.19151,0.95759 0.13407,0.44049 0.70861,1.6279 0.2777,0.89056 0.0479,0.48837 -0.0287,0.54582 -0.10534,0.50753 -0.93844,2.54718 -2.26948,4.65389 -0.49795,1.51299 -0.75649,1.58002 -0.72777,0.99589 -1.16826,1.18741 -2.3844,3.20792 -1.12995,1.25445 -2.99726,1.80984 -2.98768,2.44185 -0.73734,0.44049 -0.75649,0.34474 -0.93844,0.16279 -0.82353,0.067 -0.30643,0.067 -0.34473,0.34473 -0.28728,0.5554 -0.32558,1.77153 0.14364,23.0779 -0.16279,1.02462 -0.63201,1.98221 -5.30504,5.9179 -2.51846,2.28863 -0.68946,0.9959 -0.59371,1.56087 -1.6662,16.56629 -0.0958,0.45964 -0.33516,0.84268 -7.85223,13.21473 -0.52667,1.30232 -0.0766,0.5554 v 9.25031 l -0.48837,0.57456 -0.86183,0.46922 -4.2517,1.41723 -7.88096,0.81395 -1.97263,0.41176 -9.47056,5.93705 -2.63337,1.22572 -4.9890296,3.78248 -0.52668,0.69904 -0.18194,1.23529 -0.39261,0.54582 0.88098,-0.12448 3.22707,-0.067 1.5704496,0.82353 -0.2010896,1.23529 -1.5896,2.28864 -0.33516,1.24486 0.62244,1.21614 2.3556696,1.83857 0.43091,1.05335 -0.5937,0.82353 -3.5143596,2.31736 -0.8714,0.94802 -4.85498,8.12035 -1.03419997,2.9398 -0.316,2.82489 0.85224997,2.53761 1.85773,2.1833 2.35567,1.74282 2.30779,1.25444 1.36935,0.52667 3.0068296,0.69904 0.52667,0.0575 1.5513,0.17236 h 1.25444 l 0.62243,0.0958 0.65116,0.33516 1.43639,1.12038 0.45964,0.24897 5.59232,-1.91518 2.98768,-0.30643 2.06839,1.96306 0.34473,0.77565 0.46922,0.57455 0.62243,0.36389 0.85226,0.20109 2.72913,1.68536 2.76743,0.0958 6.08069,-0.95759 4.85498,0.89055 1.69493,0.0192 1.74281,0.20109 2.75786,1.51299 5.01776,0.57455 2.76744,1.25445 7.44046,6.82761 0.85226,1.3885 0.20109,3.08344 1.77154,1.81942 0.18194,1.55129 0.46922,0.64159 0.58413,0.56497 0.67989,0.48837 0.74692,0.40219 4.16551,4.63473 2.59507,1.97264 2.63337,0.97674 1.19699,-0.0766 2.69082,-0.58413 1.22572,-0.009 2.13542,0.35431 0.63201,0.39261 0.43091,0.52668 0.52668,0.47879 2.19288,0.71819 1.1108,1.08208 0.84268,1.35977 0.89056,2.73871 1.29274,2.30779 0.45964,1.47469 0.067,1.26401 -0.33516,3.73463 0.33516,1.29274 0.497939,1.20657 0.26813,1.28316 -0.39262,1.513 -1.943899,1.69493 -5.72638,1.93433 -1.83858,1.75239 -0.0575,1.09165 0.38304,1.39808 1.85772,4.33788 5.1614,2.7004 1.15869,0.77564 0.54582,0.59371 0.833099,1.37893 0.50753,0.58413 0.67989,0.38303 1.45553,0.44049 0.56498,0.42134 0.68946,1.23529 0.5554,2.49931 0.45965,1.26402 0.94801,1.25444 1.13953,0.82353 4.86455,2.41312 3.38029,2.55676 2.25991,1.04378 1.66621,-0.56498 1.41723,0.2394 1.29275,0.80437 3.89738,3.54308 1.36936,0.74692 5.34334,1.36935 1.61833,0.66074 2.10669,1.6662 0.69904,0.19152 1.68536,-0.0294 0.86183,0.37346 1.36935,1.36935 0.95759,0.24897 2.16415,0.0958 0.45965,0.70862 0.009,1.15868 0.79479,1.39808 1.29275,0.45007 3.89739,0.36388 1.45552,0.67989 0.36388,0.67989 0.21067,1.6279 0.40219,0.80437 2.72913,1.53215 0.88098,0.22982 1.74281,0.25855 0.86183,0.3543 0.50753,0.60329 0.0383,0.66073 0.2394,0.54583 1.00547,0.28727 3.90696,0.30643 0.53625,1.96306 0.29685,4.49109 0.8331,1.95349 0.45007,0.26812 0.54583,-0.0677 0.56497,-0.14364 h 0.50753 l 0.38303,0.34473 -0.0479,0.46922 -0.17236,0.52668 0.0383,0.53625 0.36388,1.1108 0.14364,0.97674 0.30643,0.94801 0.89056,1.04378 1.95348,1.20656 1.57045,0.41176 1.36935,0.60328 2.7004,3.36114 3.52393,2.47058 1.45555,1.51299 2.9781,1.52257 5.13268,1.89602 4.18466,2.36525 0.10534,1.9056 0.0479,1.00547 -0.65117,0.86183 -1.40765,2.6238 -2.74828,3.66756 -1.67578,3.4952 -0.74692,0.64159 -0.86183,0.45964 -0.82353,0.5937 -0.58413,1.01505 1.63748,0.53625 0.13406,1.28317 -0.48837,1.6279 -0.19152,1.56087 0.59371,1.79069 0.95759,0.81395 1.30232,0.54583 1.68536,0.94801 1.43638,1.40766 2.08754,2.75785 1.6279,1.04378 3.60054,0.76607 1.37893,0.98631 0.2777,2.24076 0.0287,2.07797 0.80437,0.52668 1.26402,-0.0575 1.41723,0.34473 1.13953,1.35978 0.0479,1.64705 -0.81395,1.59918 -1.43638,1.16825 -1.58002,0.88099 -1.70451,1.22571 -1.41724,1.48426 -0.68946,1.68536 0.29685,1.83857 1.37893,-0.39261 3.4952,-2.43228 1.54172,0.45007 0.96717,1.48426 0.69904,1.8673 0.86183,1.56087 1.35977,1.06293 5.07522,1.76196 2.78659,0.35431 6.12857,-0.28728 6.18602,2.4227 1.56087,0.98632 0.92887,1.14911 0.49794,3.88781 0.69904,1.54172 2.02052,0.89055 2.00136,-0.14363 1.45553,-0.5171 1.05335,0.20109 0.82353,1.96306 1.1108,1.50341 1.81942,0.0958 3.7729,-0.92886 0.93844,0.99589 1.00547,2.47058 1.60875,1.22572 0.65116,1.32147 0.56497,0.41176 0.80438,0.0192 1.58002,-0.5171 0.7948,-0.0294 3.64842,1.37893 0.78522,0.56498 0.61286,1.44596 0.0479,0.91928 0.42134,0.65116 1.72366,0.56498 1.23529,0.61286 1.0342,1.12038 0.72777,1.35977 0.26812,1.34063 0.0383,0.78522 0.18194,0.50752 0.40219,0.38304 1.50341,1.01504 0.067,0.45965 -0.21067,0.56497 -0.13406,1.50342 -0.39261,1.25444 0.0574,0.58413 0.5171,0.82353 0.45964,0.0958 0.41177,-0.21067 0.32558,-0.0766 0.30643,-0.1047 0.46922,-0.26812 0.65116,-0.0575 0.8331,0.56498 0.33515,0.73734 -0.18194,1.52257 0.15322,0.84268 -3.51435,9.48971 -0.18195,1.33105 0.18195,1.0725 0.69904,2.21203 0.46921,4.28042 0.36389,1.30232 2.30779,5.46783 1.42681,2.56634 1.77154,2.19288 4.96031,3.33241 2.36524,1.99179 1.40766,3.40902 2.51846,1.80984 0.88098,1.12038 0.15321,1.12038 -0.58413,3.86866 0.4788,0.45006 0.5171,0.39262 0.58413,0.316 0.60328,0.24897 2.70997,2.0684 0.74692,0.84267 0.31601,0.82353 0.36388,1.85772 0.45965,0.86183 1.56087,1.29275 1.75238,0.61286 7.65114,0.82352 1.54172,0.98632 1.13953,2.05882 0.67989,3.59096 0.53625,1.43638 1.13953,0.90971 h 0.64158 l 1.67578,-0.46922 0.77565,-0.0383 0.82353,0.46922 0.71819,0.88098 0.57455,0.98631 0.34474,0.7948 0.32558,1.87688 -0.69904,5.05607 0.16279,3.57181 0.39261,2.06839 0.62243,1.40765 0.38304,0.0128 2.12584,0.45007 0.67989,0.22024 0.89056,0.72777 1.57045,1.70451 0.99589,0.58413 0.67989,0.0677 2.48015,-0.36388 0.46922,0.0677 1.47469,0.62243 0.52667,-0.0575 0.2011,-0.36388 0.0575,-0.42134 0.0766,-0.20109 -0.15321,-0.12513 0.36388,-0.26812 0.76607,-0.41177 0.44049,0.16279 0.89056,0.93844 0.58413,0.11491 0.97674,-0.12512 4.46236,0.64158 0.26813,0.94801 -0.43092,1.50342 -0.2777,1.96306 0.0575,0.92886 0.14364,0.71819 0.25855,0.67989 0.42134,0.82352 2.66209,3.78248 0.86183,-0.0766 1.43639,-1.53214 0.80437,-0.48837 1.39808,0.10597 0.57456,0.69904 0.3543,1.68536 2.41313,3.05471 1.59917,1.60875 1.63748,1.17784 3.40902,0.45006 3.83035,-0.72777 3.64842,-0.15321 2.92064,2.145 0.77565,1.829 0.28728,1.21613 0.71819,0.82353 2.08754,0.65116 1.96306,-0.22024 1.84815,-1.12038 1.59917,-1.53215 3.34199,-4.37618 1.24486,-0.87141 1.94391,-0.46921 0.82353,0.0485 0.84268,0.17237 0.84267,0.0855 0.7948,-0.22982 0.60328,-0.78522 0.21067,-1.00547 0.33516,-0.94801 1.02462,-0.65116 3.57181,-0.84268 1.30232,-0.84268 1.3119,-1.79069 3.59096,-6.92337 0.76607,-0.12385 h 1.78111 l 1.17784,-0.5937 0.75649,-0.73735 0.73735,-0.40218 1.19698,0.36388 1.25444,1.68536 0.12449,1.93433 0.42134,1.68535 2.19288,0.89056 h 0.90971 l 2.64294,-0.35431 4.10806,0.33516 1.9056,-0.19152 5.25717,-1.3119 0.67989,0.72777 4.18466,2.78659 0.93844,0.39261 0.2394,1.24486 0.25854,-0.10469 3.43775,1.48426 0.97674,0.70862 5.51571,5.58274 1.96305,0.94801 2.1833,-0.316 0.64159,-1.3885 0.24897,-1.62791 0.97674,-1.02462 2.13542,-0.0472 1.73324,0.37346 1.42681,-0.30643 1.28317,-2.07796 0.89056,-2.0684 0.86183,-1.26401 4.45279,-3.83994 1.0725,-1.58959 0.71819,-1.74282 0.5554,-2.01093 0.57455,-0.91929 1.6279,-1.51299 0.16279,-0.94801 -0.0862,-0.89056 0.26813,-1.51299 0.22024,-3.02598 0.72777,-1.08208 1.29274,-0.22982 1.8673,0.33516 0.34474,0.23939 0.90013,0.88098 0.42134,0.27771 1.34062,-0.67032 0.53625,-0.0677 0.98632,0.28728 2.63337,1.12038 2.60464,0.0472 1.02462,0.20109 3.61969,1.68536 0.99589,0.70862 2.50889,2.2216 1.26401,0.7565 0.66074,0.12512 1.92475,-0.49794 0.57456,0.22982 1.96305,1.19699 0.88099,0.36388 1.05334,0.63201 -0.29685,0.91928 -0.44049,0.5171 -0.39261,0.48837 -0.52667,0.86183 0.0766,0.7565 0.60328,1.43638 0.13407,0.76607 -0.11491,0.90014 -0.77565,2.59506 -0.0479,3.79206 1.00547,3.19834 2.34609,1.90561 3.974,-0.0473 1.9056,0.28728 2.24076,1.28317 1.89602,1.78112 0.84268,1.76196 -0.28728,0.87141 -0.65116,0.86183 -0.52667,0.91928 0.0766,1.05335 0.69904,0.82353 0.90971,0.20109 h 0.99589 l 1.02462,0.17237 2.03009,1.21613 1.33105,1.59918 2.01093,3.88781 1.29275,1.84815 1.29275,0.82352 3.64841,0.74692 1.98221,1.09166 0.89056,1.7045 0.47879,2.00137 0.77565,2.00136 2.08754,2.47058 0.56498,0.95759 0.20109,0.93843 0.0102,0.91929 0.14364,0.88098 0.62243,0.81395 1.43638,0.49795 5.6402,0.0766 5.80299,1.87688 7.02871,4.17509 3.28453,1.04377 0.76607,0.13406 1.75239,0.0472 0.8331,-0.13406 0.87141,-0.22982 0.86183,-0.0958 0.84268,0.28728 1.18741,2.25033 2.07796,12.71679 -0.0575,1.69493 -0.63201,3.37071 -0.48837,1.0725 -0.50752,0.53625 -0.0383,0.43092 0.90971,0.72776 0.7565,0.2777 0.90013,0.0192 1.72366,-0.21067 1.08208,-0.2777 2.72913,-1.50342 1.50341,-0.56498 1.00547,-0.12512 2.4227,0.0128 1.84815,-1.0342 1.44596,-1.70451 1.3502,-0.98631 1.58002,1.13953 0.35431,0.86183 0.26812,2.96852 0.58413,1.29275 1.12996,0.86183 2.70039,1.06292 1.25444,1.54172 -0.87141,4.47194 1.0342,1.80985 0.36388,-1.35978 1.9056,-3.7346 5.72639,-8.33102 0.39261,-1.02462 0.26812,-0.9959 0.4405,-0.94801 0.95758,-0.84268 0.90971,-0.316 1.71409,0.0472 0.88098,-0.12385 1.17784,-0.53625 2.67167,-2.12585 0.80437,-0.32558 1.64706,-0.32558 0.78522,-0.30643 2.31737,-1.80984 3.21749,-2.50888 2.25992,-0.63201 h 4.0889 l 3.55266,0.49794 3.40901,1.08208 7.16277,3.88781 11.07931,6.02324 1.58002,0.32558 0.93844,-0.82353 0.0862,-0.0766 1.01504,-1.25444 1.52257,-0.76607 8.99176,-1.32147 1.5896,-0.67032 0.80437,-0.73734 6.89465,-7.75647 0.19151,-0.49795 0.26813,0.0575 1.74281,0.81395 0.5171,0.2394 2.04924,1.71408 6.17645,6.90422 1.24487,2.07797 0.32558,1.64705 0.26812,3.99315 0.59371,1.46511 1.18741,0.61285 6.80845,0.42134 0.68947,0.0383 0.98632,0.52667 1.10122,1.76197 0.57456,0.91928 1.33105,1.36935 1.45553,0.7565 5.44868,1.10123 1.05335,-0.0472 0.56498,-0.74692 0.12449,-0.54583 0.26812,-1.22571 0.009,-1.3502 -0.37346,-3.10259 0.0958,-1.12038 1.02462,-1.17784 15.95343,-9.70038 3.79205,-0.88098 15.93429,-1.30232 13.61691,-1.10123 7.27768,-2.19287 6.80846,-3.4569 5.25716,-3.90697 1.53215,-0.54582 1.74281,0.72777 10.94524,8.9343 1.80985,0.95759 2.69082,0.5171 7.90011,0.39261 13.93292,0.70862 3.76333,-0.46922 3.20792,-1.87688 0.42134,-0.24897 6.38712,-6.39669 8.29272,-8.32145 9.6908,-9.70996 7.14362,-7.13404 7.01913,-7.04785 8.77151,-8.68533 8.75237,-8.67576 8.75236,-8.68534 8.76188,-8.67575 6.8085,-3.50478 6.0232,-3.10259 5.9754,-2.99725 5.9083,-2.94938 8.4364,-3.07386 7.0383,-2.64294 6.5977,-2.48016 7.0958,-2.67167 7.9384,-2.98768 7.0957,-2.67167 6.0328,-2.25991 1.5322,2.87276 6.0807,-3.36113 6.7701,-3.7346 1.9152,2.29821 -3.2558,6.7127 h 8.6279 l 6.5116,1.91518 -4.2134,10.74415 3.5048,6.35839 4.1272,7.47877 0.038,0.0677 0.1245,0.0472 7.65111,2.63337 0.4692,-2.61422 0.01,-0.0191 0.01,-0.0383 0.4788,-3.61011 2.4227,-1.69493 3.3803,0.23939 0.2394,5.06565 6.5307,0.0294 z"
     id="path837"
     style="fill:#000000;fill-opacity:1;stroke:#000000;stroke-width:0.938437" />
</svg>
