<?xml version="1.0" encoding="utf-8"?><svg xmlns="http://www.w3.org/2000/svg" version="1.1" baseProfile="tiny" width="1200" height="800" viewBox="0 0 1200 800"><g><g stroke="#000000" stroke-width=".98" fill="#000000"><path d="m217.03 747.58l7.69-44.7 10.13-9.93 26-1.71 7.27 1.06 27.13 11.82 9.98 3.05 18.86 2.36 9.44 2.26 8.18 4.66 5.45 4.07.32 2.07-.58 5.27 1.54 6.05.1.41 9.7 9.1 2.72 5.54-.97 5.08-6.18 7.57-1.53 4.67 1.02 5.17 4.15 9.28.54 5.59 3.94 8.5 10.99-1.02 19.28-8.36 8.01-.92 8.63 1.6 16.17 3.02 10.39 5.86 8.5-2.86 8.36-5.31 9.79-1.3 4.61.19 3.56-1.39 3.32-2.03 13.3-4.8 3.19.18 4.78 1.58 18.58 6.14 8.43 1.29 10-1.25 4.34-2.63 1.94-4.16 1.48-9.37 3.32-4.16 5.13-.04 9.97 3 11.11.32 9.03-1.71 8.4-4.94 9.14-9.28 5.96-8.08 5.45-9.24 4.25-9.74 2.4-9.83.2-4.98 1.88-45.82 9.67-33.76-3.21-34.35 2.91-22.86-.05-4.15 1.3-2.5 4.57-.14 3.58 2.03 3.06 2.64.77.66 7.87 6.77 3.47.51 3.76-.37 4.29.14 5.11 1.8 5.45 4.2 13.85 16.39 7.34 6.42 9.33 6.19 10.25 3.97 9.97-.32 7.62-5.27 20.18-25.3.93-3.14.23-4.2 1.59-3 5.2.5 13.94 6.79 5.54 1.25 7.21-.32 8.54-1.76 8.4-2.72 6.42-3.28 5.75-5.31 2.05-2.7 1.85-2.43 4.37-4.06 7.18-2.13 2.17 1.11 14.13 3.37 1.52-.55 2.13 2.45 2.3 6.28 2.57 3.51 24.26 19.9 14.87 6.97 14.69.56 8.63-5.08 9.51 1.2 9.7 2.77 9.35-.51 5.01-4.2 6.38-12.01 5.12-4.02 5.77-.78 4.81 1.52 23.31 11.5 3.65.88 4.07-1.11 3.23-1.85 6.23-1.52 6.91-3.97 7.5-3.33 5.82-4.2 4.62-8.36 1.89-9.09-1.89-30.57 3.87-19.68 15.38-49.73-3.74-12.97-4.78-6.47-6.81-6.83-8.06-4.02-8.35 1.8 5.88-26-1.34-11.82-13.39-2.12 2.22-3.6 2.72-2.91 7.25-5.68-3.41-7.99 2.51-6.88 4.55-6.7 2.45-7.57-3.56-17.92-1.57-4.71 5.13-12.28-1.11-4.11-3.97-6.1-1.02-2.31.14-4.8 5.77-35.23.37-11.5-3.25-9.47-10.62 4.07-7-5.5-4.29-10.06-4.34-16.07-1.99-3.42-5.54-5.91-7.39-9.88-2.65-5.82 2.37-2.59 1.39-5.26.83-11.64-2.54-11.68-8.68-5.27-8.77-1.24-29.51-10.95-4.11-2.49-6.7-6.37-4.71-3.33-13.16-5.45-5.77-4.34-2.4-7.15.46-3.33 1.06-2.63 1.02-1.94.44-1.39-.9-3.64-4.16-5.41-2.63-9.09-8.13-13.49-2.72-6.51-1.76-11.54-1.89-2.77-5.5-3.97-1.84.5-2.91 1.57-3.56.56-3.92-2.63-.74-2.68 1.2-2.68 1.68-2.54.95-2.63-1.48-6.1-6.51-4.48-1.48-4.8 1.41-5.03 3.44-4.9 3.55-3.7-4.9-1.53-6.8-2.11-6.07.83-5.86 2.63-7.02 1.76-7.53-.97-7.62-2.22-7.39-1.11-6.83 2.45-3.77 6.37-2.88 18.47-2.31 6.79-2.72 2.27-7.49 3.37-1.61 1.33-1.53 1.25-1.29 2.68-.99 6.42-.86 2.95-4.8 8.09-5.84 7.48-19.88 18.88-6.9 4.11-3.3.97-3.56.28-3.56.6-3.5 2.08-3.19 6.09-2.73 17.32-2.3 6.79-4.85 4.52-18.24 7.11-13.19 7.07-2.33 1.25-5.82 6-4.06 9.74-4.62.97-30.34 16.81-9.81 3.65-9.4 1.01-8.72-2.49-7.67-7.16-4.34-9.46-1.06-18.38-1.99-9.38-12.56-18.24-4.89-2.49-.05-.01-3.97-.59-3.88 1.15-4.13 2.59-4.04 4.8-2.68 8.82-3.69 2.17-3.1-1.1-9.51-5.78-5.31-1.2-10.85 1.94-7.48 3.88-6.91 4.99-9.21 5.17-8.31 2.26-9.38.7-17.96-.97-17.55 6.23-17.82 12.84-15.38 16.02-8.6 13.56-1.51 2.37-.92.97-1 .65-1.1.27-34.15 1.39-7.02 2.96-5.17 6.64-12.24 25.22-4.53 5.86-21.56 17.87-5.4 7.9-9.42 17.87-11.45 18.3-16.68 26.68-8.4 19.67-2.22 15.97.97 16.35 11.87 70.14.92 16.07-2.58 18.66-7.02 21.15-11.17 17.41-15.38 12.14-19.88 5.27-12.86-.42-3.79 1.34-4.59 4.29-.53 3.88-1.53 4.81-3.37 6.65-5.17 8.08-6.35 6.46-7.73 4.57-9.33 2.73-12.01 4.15-6.28 5.41-3.35 11.73.9 9.55 1.67 8.87 4.52 8.08 1.57 5.45-7.76 6.93-1.61 5.86 1.66 5.73 3.97 2.72 5.01 2.4 4.6 4.67 3 10.39-3 34.12 3.46 3.56 16.67 10.89 5.96 2.36 13.34 1.43 9.17 4.53 6.81 7.62z" /></g></g></svg>