<?xml version="1.0" encoding="UTF-8" standalone="no"?>
<svg
   xmlns:dc="http://purl.org/dc/elements/1.1/"
   xmlns:cc="http://creativecommons.org/ns#"
   xmlns:rdf="http://www.w3.org/1999/02/22-rdf-syntax-ns#"
   xmlns:svg="http://www.w3.org/2000/svg"
   xmlns="http://www.w3.org/2000/svg"
   xmlns:sodipodi="http://sodipodi.sourceforge.net/DTD/sodipodi-0.dtd"
   xmlns:inkscape="http://www.inkscape.org/namespaces/inkscape"
   version="1.0"
   width="1024.000000pt"
   height="1024.000000pt"
   viewBox="0 0 1024.000000 1024.000000"
   preserveAspectRatio="xMidYMid meet"
   id="svg8"
   sodipodi:docname="sd.svg"
   inkscape:version="1.0.1 (3bc2e813f5, 2020-09-07)">
  <defs
     id="defs12" />
  <sodipodi:namedview
     pagecolor="#ffffff"
     bordercolor="#666666"
     borderopacity="1"
     objecttolerance="10"
     gridtolerance="10"
     guidetolerance="10"
     inkscape:pageopacity="0"
     inkscape:pageshadow="2"
     inkscape:window-width="1920"
     inkscape:window-height="974"
     id="namedview10"
     showgrid="false"
     inkscape:zoom="0.27643124"
     inkscape:cx="507.23299"
     inkscape:cy="560.00219"
     inkscape:window-x="-11"
     inkscape:window-y="-11"
     inkscape:window-maximized="1"
     inkscape:current-layer="svg8" />
  <metadata
     id="metadata2">
Created by potrace 1.10, written by Peter Selinger 2001-2011
<rdf:RDF>
  <cc:Work
     rdf:about="">
    <dc:format>image/svg+xml</dc:format>
    <dc:type
       rdf:resource="http://purl.org/dc/dcmitype/StillImage" />
  </cc:Work>
</rdf:RDF>
</metadata>
  <g
     stroke="#000000"
     stroke-width="0.98"
     fill="#ffffff"
     id="g841"
     transform="matrix(1.0448311,0,0,1.0405316,-114.64634,95.78754)"
     style="fill:#000000;fill-opacity:1">
    <path
       d="m 171.59,664.5 0.12,1.6 8.3,11.95 6.06,4.22 10.6,10.19 9.71,15.52 9.7,15.51 1.21,2.61 1.71,10.07 -0.29,2.23 -0.79,1.73 -2.16,3.29 -0.72,1.68 0.04,0.64 0.56,1.45 0.12,0.76 -0.07,1.82 0.16,0.55 0.44,0.74 0.43,-0.02 0.35,0.13 0.31,0.47 0.03,0.39 -1.45,4.54 -0.08,1.03 0.59,1.79 0.09,0.85 -0.52,0.7 -0.77,0.59 -2.26,2.81 -1.27,1.29 -0.68,0.41 -0.94,0.17 -1.89,-0.08 -0.88,0.35 -0.67,0.99 -0.3,0.44 -1.28,7.42 0.15,1.42 0.77,1.19 1.55,0.89 1.6,-0.13 2.16,-2.11 1.03,0.05 0.43,1.26 -0.09,2.03 -0.72,3.32 -0.99,1.6 -2.41,2.7 -0.76,1.52 -0.03,1.4 0.48,1.56 0.89,1.27 1.19,0.54 0.86,-0.19 1.38,-1.04 0.81,-0.46 1.07,-0.21 0.99,0.11 0.92,0.39 0.87,0.61 0.76,0.3 1.87,-0.04 1.88,0.5 0.94,-0.28 1.83,-0.84 2.02,-0.05 3.69,0.83 3.24,-0.33 2.32,0.96 1.12,0.17 1.65,-0.28 6.09,1.01 3.29,-0.45 0.26,-0.37 0.12,-0.83 0.35,-0.47 3.36,-2.54 1.77,-0.83 6.37,-3.99 1.33,-0.27 5.3,-0.56 2.86,-0.95 0.58,-0.31 0.33,-0.39 v -6.22 l 0.05,-0.38 0.35,-0.87 5.29,-8.89 0.23,-0.57 0.06,-0.31 1.12,-11.14 0.4,-1.05 0.46,-0.68 1.69,-1.53 3.58,-3.98 0.42,-1.34 0.11,-0.69 -0.1,-15.52 0.22,-1.2 0.2,-0.37 0.22,-0.23 0.22,-0.05 0.55,-0.04 0.63,-0.11 0.51,-0.23 0.49,-0.3 2.01,-1.64 2.02,-1.22 0.76,-0.84 1.6,-2.16 0.79,-0.8 0.49,-0.67 0.51,-1.06 0.33,-1.02 1.53,-3.13 0.63,-1.72 0.08,-0.34 0.01,-0.36 -0.03,-0.33 -0.18,-0.6 -0.48,-1.1 -0.09,-0.29 -0.13,-0.64 0.05,-0.49 0.15,-0.62 2.91,-6.23 0.58,-0.7 0.42,-0.37 0.36,-0.15 0.92,-0.27 0.85,-0.33 0.62,-0.13 1.49,0.12 0.67,-0.11 1.41,-0.54 0.34,-0.01 0.68,0.08 0.39,-0.05 0.52,-0.21 0.42,-0.1 0.4,-0.04 0.69,0.12 0.32,0.1 0.59,0.26 0.33,0.1 0.35,0.06 0.35,0.01 0.32,-0.07 0.56,-0.21 0.32,-0.03 0.64,0.09 h 0.33 l 0.32,-0.05 1.09,-0.51 0.29,-0.09 0.69,-0.08 h 0.37 l 0.7,-0.07 0.6,-0.19 0.55,-0.25 0.87,-0.3 0.66,-0.12 0.71,-0.06 2.34,0.08 0.66,-0.11 0.73,-0.2 0.18,-0.03 4.31,-1.5 2.51,-0.61 0.33,-0.05 1.89,-0.02 1.33,-0.22 0.92,-0.25 0.34,-0.05 2.34,0.09 0.47,-0.06 0.51,-0.14 1.23,-0.59 2.6,-0.68 0.64,-0.06 0.21,0.16 2.54,3.12 0.3,0.49 0.11,0.27 0.08,0.32 0.35,9.03 0.11,0.32 0.15,0.25 0.38,0.41 0.45,0.37 2.1,1.22 0.89,0.39 1.58,0.45 0.17,0.09 0.37,0.29 0.21,0.19 0.34,0.46 3.48,5.67 0.69,0.86 0.82,0.86 0.02,0.02 4.48,1.68 11.01,12.79 11,12.79 2.57,1.66 1.45,0.66 3.38,0.27 0.62,-0.05 22.52,-7.58 15.09,-0.35 2.68,0.47 8.34,-0.03 4.74,0.59 0.33,-0.04 1.22,-0.32 0.32,-0.03 7.47,1.08 5.76,-0.3 0.96,-0.17 0.6,-0.23 5.95,12.27 2.8,3.12 23.26,0.2 23.25,0.2 h 0.08 l -0.72,-1.44 -0.24,-2.08 0.08,-2.48 1.2,-2.24 3.76,-3.68 4.41,-3.39 1.17,-0.94 7.16,-3.76 7,-2.53 13.46,-2.95 4.91,-4.65 2.72,-4.26 0.09,-8.38 1.77,-1.38 3.22,-1.94 15.56,-7.48 2.63,-1.59 13.76,8.71 13.75,8.7 15.44,13.78 0.93,0.67 0.81,0.26 0.81,-0.48 0.69,-0.63 1.12,-0.43 0.75,-0.18 6.59,-0.18 h 0.02 l 12.49,-0.68 4.11,-1.65 12.53,-12.3 12.54,-12.31 6.38,-7.84 1.62,-1.6 3.63,-5.6 3.83,-9.61 0.76,-1.08 13.74,-11.53 13.74,-11.53 0.97,-1.83 0.27,-1.44 -4.15,-7.76 -0.9,-3.94 -0.17,-6.07 0.82,-9.44 -0.29,-5.97 -0.11,-0.67 -0.27,-0.92 -0.18,-0.35 -15.34,-16.95 19.37,-0.09 19.38,-0.08 0.09,-1.41 -0.04,-0.74 -0.11,-0.68 -0.74,-2.03 -0.42,-2.7 -0.03,-0.76 0.06,-0.74 0.22,-1.39 0.02,-0.76 -0.04,-0.36 -0.07,-0.34 0.02,-0.3 0.17,-0.24 27.85,0.34 -0.36,4.79 -3.39,11.28 0.06,6.77 -0.79,7.73 -0.2,0.62 -0.76,1.67 -0.67,0.95 -0.76,0.92 -0.22,0.35 -0.26,0.56 -0.02,0.85 2.89,21.62 2.9,21.62 -0.22,1.09 -0.22,0.71 -1.54,2.7 -0.4,0.89 -0.08,0.69 0.63,0.47 12.82,4.67 0.62,0.3 0.5,0.38 4.62,5.56 12.63,10.26 12.63,10.26 0.87,1.02 2.61,6.44 0.29,0.98 0.09,1.55 -0.06,1.19 -0.65,3.87 0.21,1.74 0.44,1.15 0.35,1.32 v 0.41 l -0.05,0.34 -0.19,0.62 -3.75,7.44 -1.22,5.3 -0.36,4.46 0.21,2.58 0.43,1.65 0.19,0.38 0.16,0.28 0.18,0.17 0.18,0.08 9.9,0.04 -0.22,-4.47 1.83,-8.66 7.21,-20.2 3.44,-3.15 1.32,-1.95 0.09,-0.65 -0.2,-1.42 0.01,-0.66 0.16,-0.31 0.56,-0.57 0.19,-0.34 0.5,-2.47 -0.06,-2.63 -2.84,-12.83 -0.26,-2.42 0.45,-2.06 5.02,-7.02 2.25,-4.32 0.93,-1.22 1,-0.87 7.03,-4.79 0.99,-0.37 0.72,0.29 7.06,6.13 1.71,1.09 0.77,0.67 0.37,0.88 -0.24,1.76 0.09,0.85 0.61,0.23 0.47,-0.47 0.77,-1.79 0.72,-0.63 0.98,-0.09 0.71,0.2 0.64,-0.08 0.75,-0.96 0.35,-1.04 0.01,-0.71 0.24,-0.69 1.06,-1 3.15,-2.37 0.98,-1.39 0.45,-2 -0.32,-0.88 -1.73,-1.25 -0.56,-0.76 0.04,-0.64 3.85,-11.16 0.23,-1.81 -0.74,-1.2 -1.02,-1.12 -0.57,-1.58 0.17,-1.26 7.35,-15.99 0.21,-1.15 -0.14,-1.09 -1.22,-2.37 -0.42,-1.2 0.11,-2.39 -0.44,-2.21 0.03,-1.18 0.41,-1.38 0.64,-1.43 0.79,-1.34 0.89,-1.13 2.26,-1.44 1.28,-0.49 3.9,-1.47 1.76,-1.95 0.12,-0.56 0.04,-1.07 0.01,-0.27 0.16,-0.54 0.53,-0.5 2.18,-1.24 1.14,-1.29 0.51,-1.38 0.58,-3.2 1.03,-2.55 0.44,-0.66 0.57,-0.48 1.28,-0.65 0.61,-0.49 0.53,-0.79 0.17,-0.73 0.16,-1.62 0.62,-1.64 10.97,-17.97 0.52,-0.58 0.5,-0.2 1.13,-0.09 0.51,-0.21 0.58,-0.62 0.21,-0.6 0.08,-0.62 0.4,-1.49 -0.01,-0.31 0.21,-0.18 0.8,-0.36 0.08,-0.04 1.49,-0.49 17.59,-2.49 0.5,-0.02 0.71,0.12 0.38,0.19 0.34,0.25 0.53,0.28 1.59,0.43 0.91,-0.36 0.5,-1.14 1.15,-6.48 -0.01,-1.42 -0.26,-0.87 -1.36,-2.33 -0.05,-1.29 0.67,-1 0.87,-0.85 0.52,-0.86 -0.01,-0.5 -0.19,-0.5 -0.46,-0.92 -0.09,-1.12 5.64,-19.2 8.66,-12.21 0.54,-1.65 0.2,-3.3 0.21,-1.18 2.42,-5.84 1.07,-2.56 -0.17,-2.91 -1.01,-2.91 -0.32,-1.43 -0.02,-1.49 0.26,-1.24 5.23,-15.88 -1.29,-10.72 -0.88,-7.23 -0.88,-7.32 -0.69,-5.66 -0.39,-3.22 -1.19,-9.77 -0.67,-5.54 0.09,-1.28 0.47,-1.01 4.29,-4.05 1.06,-1.61 2.95,-8.49 1.14,-1.8 1.91,-1.24 -0.8,-2.55 0.15,-2.46 3.17,-11.18 0.71,-1.29 2.89,-2.89 1.56,-2.49 2.8,-7.69 2.63,-7.25 1.94,-5.32 0.95,-1.52 2.44,-2.44 0.6,-1.49 -0.16,-1.24 -1.06,-2.36 -0.3,-1.23 0.08,-1.24 0.21,-1.05 0.03,-1.03 -0.37,-1.01 -0.06,-0.17 -0.83,-1.07 -0.92,-0.94 -0.76,-1.03 -0.39,-1.35 0.04,-0.8 0.72,-2.33 0.17,-1.12 -0.11,-1.91 0.1,-1.03 0.53,-1.1 0.88,-0.77 1.93,-1.34 0.62,-0.8 1.44,-3.5 0.22,-3.49 0.11,-0.26 0.42,-0.47 0.11,-0.24 -0.07,-0.34 -0.34,-0.53 -0.08,-0.22 0.11,-2.34 -0.15,-0.74 -0.51,-0.72 -0.6,-0.58 -0.2,-0.63 1.41,-1.95 0.27,-1.13 -0.21,-1.12 -1.15,-1.55 -0.14,-0.51 0.12,-0.47 0.01,-0.03 0.39,-0.43 1.18,-0.15 0.93,0.39 0.88,0.59 1.04,0.41 1.51,0.24 0.6,0.22 2.25,1.33 0.58,0.09 3.17,-0.49 0.86,0.12 1.77,-0.11 2.77,-1.65 1.68,-0.14 5.47,1.49 3.28,-3.78 0.48,-1.17 0.28,-1.3 1.28,-2.19 0.37,-1.2 0.27,-2.43 -0.06,-1.06 -0.65,-2.67 0.15,-0.67 0.62,-0.36 7.73,-2.31 2.35,-0.32 2.38,-1.19 2.54,-4.38 2.04,-1.06 1.19,0.32 1.74,1.62 1.34,0.39 1.39,-0.31 1.14,-0.84 1.83,-2.26 3.94,-2.55 0.06,-0.03 1.36,-0.48 1.34,0.01 0.55,0.58 0.06,0.97 -0.08,1.16 0.33,1.26 0.87,-0.01 0.97,-0.8 0.61,-1.12 0.01,-0.61 -0.15,-0.4 -0.07,-0.37 0.27,-0.52 0.34,-0.05 2.06,-0.63 0.94,0.57 0.89,0.86 1.03,0.61 1.38,-0.2 0.98,-0.94 0.15,-1.15 -0.07,-1.24 0.3,-1.15 1,-0.89 2.9,-1.35 1.18,-0.87 1.61,-2.51 3.51,-8.93 1.62,-2.26 8.29,-6.65 0.14,-0.53 -0.61,-1.3 -0.14,-0.57 v -0.92 l -0.38,-0.9 -2.43,-2.41 -0.99,-0.58 0.83,1.15 0.09,1.33 -0.56,0.88 -1.16,-0.17 -0.38,-0.74 -0.2,-2.31 -0.61,-0.9 -0.94,0.63 -1.47,-0.1 -0.97,-0.58 0.55,-0.78 -1.87,-2.87 -1.15,-1.13 -0.92,0.81 0.72,0.42 -0.09,0.46 -0.6,0.27 -0.88,-0.15 -0.79,-0.26 -1.65,-0.19 -0.76,-0.18 -0.62,-0.34 -0.48,-0.38 -0.53,-0.31 -0.77,-0.13 -2.03,0.35 -0.76,0.01 0.44,-0.51 0.65,-0.06 0.78,0.05 0.89,-0.24 0.68,-0.66 0.15,-0.69 -0.05,-0.65 0.09,-0.47 0.6,-0.42 0.82,-0.42 0.5,-0.49 -0.36,-0.62 -2.04,1.16 -1.17,0.34 -0.34,2.15 -2.33,0.38 -3.13,-0.69 -2.81,-2.47 -1.6,-3.3 0.4,-2.02 1.53,-0.76 0.74,-1.02 -0.74,-0.82 -2.54,-0.95 -1.6,-1.01 -2.53,-2.39 -1.63,-2.62 -2.42,-2.22 -6.57,-1.79 -0.96,-0.94 -0.65,-0.49 -0.67,0.21 -0.91,0.46 0.44,-2.25 -0.94,-0.82 -0.14,-0.95 -0.37,-0.67 -1.2,0.08 -1.08,-0.2 -1.3,-0.66 -0.27,-1.08 -1.94,0.83 -3.48,0.5 -0.43,-0.1 -0.66,0.36 -0.71,0.22 -0.65,-0.34 -0.53,-0.65 -0.32,-0.67 -1.92,-1.7 -1.35,-2.21 -1.26,-2.22 -0.77,-1.06 -0.49,-3.02 -0.79,-2.44 -1.22,-3.74 -0.7,-2.91 -1.42,-1.88 0.03,-0.41 0.3,-0.76 v -0.39 l -0.35,-0.42 -0.54,-0.31 -0.49,-0.4 -0.21,-0.7 -0.47,-6.01 -2.31,-12.39 -1.2,-3.33 -0.93,-1.52 -0.23,-0.55 -0.09,-0.49 0.09,-1.1 -0.42,-3.51 0.18,-0.89 0.98,-1.3 0.31,-0.64 0.11,-1.04 v -3.81 l -0.34,-1.97 -3.69,-9.24 -0.43,-1.99 0.04,-1.57 0.27,-0.54 0.71,-0.84 0.21,-0.64 -0.02,-0.4 0.89,-2.21 -0.31,-2.79 -0.31,-1.91 -0.47,-2.05 -1.37,-3.42 -0.02,-0.86 -0.42,-2.36 0.44,-4.15 -0.22,-1.73 0.2,-0.75 1.77,0.24 0.57,-0.56 0.31,-0.92 0.16,-0.93 -0.14,-3.79 -2.6,-6.96 -0.84,-3.62 -0.53,-7.69 -0.74,-3.65 -1.56,-3.43 -1.69,-1.87 -0.3,-0.52 0.01,-0.96 0.41,-0.31 0.59,-0.17 0.58,-0.55 0.24,-0.66 0.02,-0.69 -0.26,-1.48 0.2,-0.5 0.2,-0.69 -0.14,-0.39 -0.72,-0.04 -0.3,-0.33 -0.13,-1.41 0.38,-1.55 0.96,-0.98 1.58,0.32 0.64,0.72 -0.11,0.69 -0.38,0.67 -0.15,0.71 0.24,0.77 0.38,0.57 0.46,0.1 0.47,-0.61 1.63,1.16 0.92,-0.29 0.64,0.81 0.91,2.27 1.44,1.54 0.12,0.48 -0.5,0.27 -0.79,-0.31 -1.34,-0.97 -0.35,-0.51 -0.27,-0.58 -0.42,-0.48 -0.75,-0.21 -0.41,0.29 0.17,0.65 0.43,0.73 0.4,0.51 1.6,2.6 1.05,0.83 1.18,-0.83 1.12,0.44 0.73,-0.48 0.41,-1.01 0.12,-1.13 -0.44,-0.98 -6.21,-7.45 -4.98,-4.43 -7.55,-10.95 -3.13,-7 -0.42,-0.56 -0.65,-0.62 -0.36,-0.64 -0.04,-0.72 -0.19,-0.68 -0.82,-0.53 0.52,-1.62 -1.32,-8.01 -0.04,-7.05 -0.56,-0.77 -1.39,-0.98 1.03,-0.34 0.93,-0.12 0.25,-0.11 0.15,-0.28 0.18,-0.87 h -13.63 -13.57 -13.57 -13.57 -13.57 l -13.58,0.01 h -13.57 -13.57 -13.56 -13.58 -13.57 -13.57 -0.36 l -4.96,13.31 -7.74,1.02 -17.82,2.37 -0.14,-0.11 -6.94,-5.22 -7.92,-5.98 -7.15,-5.39 -1.25,0.01 h -0.06 -5.91 -5.96 -5.98 -5.97 -5.97 -5.98 -1.22 -4.75 -5.96 -5.98 -5.96 -5.98 -5.97 -5.97 -5.97 -5.97 -5.97 -1.58 -3.45 l 1.86,-5.18 1.35,-3.74 0.07,-1.46 -0.51,-1.29 -1.29,-1.17 -1.07,-0.51 -1.12,-0.16 -1.12,0.19 -1.1,0.54 -1.5,1.54 -2.63,5 -0.21,0.39 -2.87,5.47 -0.77,0.44 h -2.24 -5.66 l -5.68,-0.01 h -5.68 -5.69 -5.67 -5.68 -5.67 -5.68 -5.67 -5.68 -5.68 -5.67 -5.68 l -5.67,-0.01 h -5.68 -5.67 -5.68 -5.68 -5.68 -5.67 -5.67 -5.68 -5.68 l -5.67,-0.01 h -5.68 -5.68 -5.68 -5.68 -5.67 -5.67 -5.69 -5.66 -5.68 -5.68 l -5.68,-0.01 h -5.67 -5.68 -5.68 -5.68 -5.67 -5.68 -5.67 -5.68 -5.67 -5.68 -5.68 l -5.67,-0.01 h -5.68 -5.68 -5.67 -5.67 -5.68 -5.67 -5.69 l -5.68,-0.01 h -5.67 -5.67 -5.68 -5.67 -5.68 -5.68 -5.68 -5.68 -5.67 v 7.26 l -0.01,7.27 v 7.27 7.26 7.27 7.26 l -0.01,7.27 v 7.26 7.27 7.27 7.26 7.27 l -0.01,5.54 -0.01,5.55 v 5.55 5.54 6.51 0.37 l -0.06,0.09 -0.05,0.09 -0.05,0.09 -0.06,0.09 -0.13,0.02 -0.13,0.01 -0.12,0.01 -0.13,0.02 h -5.88 l -8.51,-0.01 h -7.12 l -7.27,-0.01 h -7.8 -6.59 l -4.98,-0.01 h -9.4 v 7.28 7.28 7.28 7.28 l 0.01,13.55 0.02,13.55 0.01,13.54 0.01,13.55 0.01,13.54 0.01,13.55 0.02,13.55 v 13.54 l 0.01,13.55 0.02,13.55 0.01,13.54 0.01,13.55 0.01,13.55 0.01,13.55 0.02,13.55 v 13.54 3.37 0.05 l -0.69,1.75 -1.57,-0.07 -6.8,-2.26 -7.09,-1.04 -6.69,-0.01 -3.83,0.81 -7.66,2.73 -4.38,0.41 -8.97,-1.84 -2.78,0.33 -1.43,0.17 -1.53,1.03 -3.73,4.39 -4.6,2.77 -1.1,1.31 -0.42,1.82 0.43,1.68 0.97,1.51 1.25,1.31 1.25,1.65 0.58,1.81 0.12,1.95 -0.74,6.79 -0.45,1.3 -2.61,4.66 -0.45,0.53 -1.98,0.75 -1.33,0.71 -1.15,0.93 -5.26,5.35 -0.68,1.22 -0.31,1.42 -0.05,1.09 -0.33,0.96 -1.16,1.05 -2.13,1.4 -0.48,0.9 v 1.51 l 0.48,3.2 0.33,1.02 0.88,1.86 0.1,0.52 -0.28,0.82 -0.6,0.42 -11.72,3.06 -2.49,1.18 -2.36,1.74 -1.09,2.08 1.33,2.16 1.8,1.3 0.45,0.8 0.82,6.27 0.2,0.35 0.29,0.31 0.21,0.34 -0.06,0.43 -0.3,0.3 -0.79,0.35 -0.25,0.25 -0.52,1 -0.06,0.45 0.17,0.69 0.53,1.27 0.7,0.86 0.97,0.5 3.29,0.57 1.04,0.63 0.52,1.14 0.4,1.87 -0.08,1.71 -0.87,1 -1.35,0.52 -1.56,0.3 -1.33,0.72 -2.16,1.98 -1.13,0.75 -9.26,4.31 -1.68,1.1 -1.41,1.39 -0.57,0.71 -4.75,5.9 -1.42,2.28 -0.07,0.52 1.36,1.26 0.92,1.17 0.2,0.85 -0.12,0.9 v 1.3 l 1.04,2.26 3.72,3.4 0.86,2.26 0.03,3.35 0.26,1.12 0.76,1.39 2.06,2.45 0.7,1.33 -0.49,2.44 -2.06,2.65 -5.38,5.58 -0.97,0.66 -6.26,2.44 -1.03,0.56 -2,1.89 -1.69,2.28 -4.79,8.95 -1.46,4.35 -0.94,1.82 -0.14,0.37 0.25,0.66 1.58,1.94 2.3,4.24 1.2,1.16 2.05,0.98 2.41,0.45 2.47,0.03 2.28,-0.31 2.75,-0.8 2.23,-1.22 1.88,-1.76 1.66,-2.44 7.31,4.78 5.97,2.19 0.77,0.75 -2.91,6.7 -1.34,1.92 0.12,0.72 1.93,2.98 4.29,13.01 0.15,0.7 0.04,0.71 -0.06,0.71 -1.5,6.41 0.38,-0.15 0.35,-0.18 0.64,-0.48 3.79,-1.17 2.28,-0.41 0.77,0.48 0.5,-0.85 0.29,0.29 0.07,0.91 -0.18,1.02 -1.03,2.96 -3.25,17.97 0.27,2.79 1.17,2.74 1.78,2.47 2.09,1.97 2.01,0.98 4.69,1.57 1.5,1.39 0.17,0.53 0.01,1.75 0.58,0.25 5.55,-0.58 1.37,0.04 0.84,0.71 0.79,4.13 1.48,4.33 0.05,0.77 0.11,1.69 -0.26,1.03 -0.98,2.06 -0.36,1.04 -0.2,1.16 -0.03,1.17 -0.16,0.64 -0.92,1 -0.37,0.58 z"
       id="path837"
       style="fill:#000000;fill-opacity:1" />
    <path
       d="m 1011.68,85.01 -0.84,1.19 -0.44,1.79 0.05,1.83 0.59,1.33 0.59,-0.01 0.43,-0.94 0.68,-3.89 -0.25,-0.75 -0.21,-0.14 z"
       id="path839"
       style="fill:#000000;fill-opacity:1" />
  </g>
</svg>
